<?xml version="1.0" encoding="utf-8"?>
<!-- Generator: Adobe Illustrator 22.0.1, SVG Export Plug-In . SVG Version: 6.00 Build 0)  -->
<svg version="1.1" id="Layer_1" xmlns="http://www.w3.org/2000/svg" xmlns:xlink="http://www.w3.org/1999/xlink" x="0px" y="0px"
	 viewBox="0 0 13 7.5" style="enable-background:new 0 0 13 7.5;" xml:space="preserve">
<style type="text/css">
	.st0{fill:#8FB7E1;}
</style>
<title>dropup blue</title>
<desc>Created with Sketch.</desc>
<g id="dropup-blue">
	<g id="Line">
		<path class="st0" d="M1,7.5c-0.3,0-0.5-0.1-0.7-0.3c-0.4-0.4-0.4-1,0-1.4l5.5-5.5c0.4-0.4,1-0.4,1.4,0s0.4,1,0,1.4L1.7,7.2
			C1.5,7.4,1.3,7.5,1,7.5z"/>
	</g>
	<g id="Line-Copy">
		<path class="st0" d="M12,7.5c-0.3,0-0.5-0.1-0.7-0.3L5.8,1.7c-0.4-0.4-0.4-1,0-1.4s1-0.4,1.4,0l5.5,5.5c0.4,0.4,0.4,1,0,1.4
			C12.5,7.4,12.3,7.5,12,7.5z"/>
	</g>
</g>
</svg>
