<?xml version="1.0" encoding="utf-8"?>
<!-- Generator: Adobe Illustrator 22.0.1, SVG Export Plug-In . SVG Version: 6.00 Build 0)  -->
<svg version="1.1" id="Layer_1" xmlns="http://www.w3.org/2000/svg" xmlns:xlink="http://www.w3.org/1999/xlink" x="0px" y="0px"
	 viewBox="0 0 17.6 12" style="enable-background:new 0 0 17.6 12;" xml:space="preserve">
<style type="text/css">
	.st0{fill:#005BBB;}
</style>
<g id="Line-Copy">
	<path class="st0" d="M16.6,2H1C0.4,2,0,1.6,0,1s0.4-1,1-1h15.6c0.6,0,1,0.4,1,1S17.2,2,16.6,2z"/>
</g>
<g id="Line-Copy_1_">
	<path class="st0" d="M16.6,7H1C0.4,7,0,6.6,0,6s0.4-1,1-1h15.6c0.6,0,1,0.4,1,1S17.2,7,16.6,7z"/>
</g>
<g id="Line-Copy_2_">
	<path class="st0" d="M16.6,12H1c-0.6,0-1-0.4-1-1s0.4-1,1-1h15.6c0.6,0,1,0.4,1,1S17.2,12,16.6,12z"/>
</g>
</svg>
