<?xml version="1.0" encoding="utf-8"?>
<!-- Generator: Adobe Illustrator 22.0.1, SVG Export Plug-In . SVG Version: 6.00 Build 0)  -->
<svg version="1.1" id="Layer_1" xmlns="http://www.w3.org/2000/svg" xmlns:xlink="http://www.w3.org/1999/xlink" x="0px" y="0px"
	 viewBox="0 0 13 13" style="enable-background:new 0 0 13 13;" xml:space="preserve">
<style type="text/css">
	.st0{fill:#005EB8;}
</style>
<g id="Line-Copy">
	<path class="st0" d="M12,13c-0.3,0-0.5-0.1-0.7-0.3l-11-11c-0.4-0.4-0.4-1,0-1.4s1-0.4,1.4,0l11,11c0.4,0.4,0.4,1,0,1.4
		C12.5,12.9,12.3,13,12,13z"/>
</g>
<g id="Line-Copy_1_">
	<path class="st0" d="M1,13c-0.3,0-0.5-0.1-0.7-0.3c-0.4-0.4-0.4-1,0-1.4l11-11c0.4-0.4,1-0.4,1.4,0s0.4,1,0,1.4l-11,11
		C1.5,12.9,1.3,13,1,13z"/>
</g>
</svg>
