<?xml version="1.0" encoding="utf-8"?>
<!-- Generator: Adobe Illustrator 22.0.1, SVG Export Plug-In . SVG Version: 6.00 Build 0)  -->
<svg version="1.1" id="Layer_1" xmlns="http://www.w3.org/2000/svg" xmlns:xlink="http://www.w3.org/1999/xlink" x="0px" y="0px"
	 viewBox="0 0 13 7.5" style="enable-background:new 0 0 13 7.5;" xml:space="preserve">
<style type="text/css">
	.st0{fill:#8FB7E1;}
</style>
<g id="dropdown-blue">
	<g id="Line">
		<path class="st0" d="M6.5,7.5C6.2,7.5,6,7.4,5.8,7.2L0.3,1.7c-0.4-0.4-0.4-1,0-1.4s1-0.4,1.4,0l5.5,5.5c0.4,0.4,0.4,1,0,1.4
			C7,7.4,6.8,7.5,6.5,7.5z"/>
	</g>
	<g id="Line-Copy">
		<path class="st0" d="M6.5,7.5C6.2,7.5,6,7.4,5.8,7.2c-0.4-0.4-0.4-1,0-1.4l5.5-5.5c0.4-0.4,1-0.4,1.4,0s0.4,1,0,1.4L7.2,7.2
			C7,7.4,6.8,7.5,6.5,7.5z"/>
	</g>
</g>
</svg>
