<?xml version="1.0" standalone="no"?>
<!DOCTYPE svg PUBLIC "-//W3C//DTD SVG 1.1//EN" "http://www.w3.org/Graphics/SVG/1.1/DTD/svg11.dtd" >
<svg xmlns="http://www.w3.org/2000/svg">
<metadata>
Copyright (c) 2016 by Fontsmith Ltd. All rights reserved. This font may not be altered in any way without prior permission of Fontsmith Ltd.
</metadata>
<defs>
<font id="TIMSansWeb-Light" horiz-adv-x="354" >
  <font-face 
    font-family="TIM Sans Web Light"
    font-weight="300"
    font-stretch="normal"
    units-per-em="1000"
    panose-1="0 0 4 0 0 0 0 0 0 0"
    ascent="750"
    descent="-250"
    x-height="528"
    cap-height="720"
    bbox="-329.571 -276 2799 1033"
    underline-thickness="43"
    underline-position="-58"
    unicode-range="U+000D-FB02"
  />
<missing-glyph horiz-adv-x="694" 
d="M90 720h514v-720h-514v720zM522 669h-350l176 -263zM316 360l-174 262v-524zM553 622l-175 -262l175 -262v524zM522 52l-174 262l-176 -262h350z" />
    <glyph glyph-name="f_f.liga" unicode="ff" horiz-adv-x="650" 
d="M117 2.5q-6 2.5 -6 7.5v462h-70q-5 0 -7 5t-2 19v7q0 15 2 20t7 5h70v41q0 104 42.5 158.5t134.5 54.5q48 0 91 -17q6 -3 6 -10q0 -5 -3 -16l-2 -7q-4 -14 -7.5 -18t-9.5 -2q-36 12 -72 12q-66 0 -90.5 -38t-24.5 -119v-39h255v41q0 104 42.5 158.5t134.5 54.5
q48 0 91 -17q6 -3 6 -10q0 -5 -3 -16l-2 -7q-4 -14 -7.5 -18t-9.5 -2q-36 12 -72 12q-66 0 -90.5 -38t-24.5 -119v-39h123q5 0 7 -5t2 -20v-7q0 -14 -2 -19t-7 -5h-123v-462q0 -5 -6.5 -7.5t-21.5 -2.5h-8q-17 0 -23 2.5t-6 7.5v462h-255v-462q0 -5 -6.5 -7.5t-21.5 -2.5h-8
q-17 0 -23 2.5z" />
    <glyph glyph-name="f_f_i.liga" unicode="ffi" horiz-adv-x="868" 
d="M117 2.5q-6 2.5 -6 7.5v462h-70q-5 0 -7 5t-2 19v7q0 15 2 20t7 5h70v41q0 104 42.5 158.5t134.5 54.5q48 0 91 -17q6 -3 6 -10q0 -5 -3 -16l-2 -7q-4 -14 -7.5 -18t-9.5 -2q-36 12 -72 12q-66 0 -90.5 -38t-24.5 -119v-39h255v41q0 106 47.5 153.5t149.5 47.5
q36 0 77.5 -10t73.5 -26q5 -2 5 -7q0 -4 -6 -19l-2 -5q-6 -15 -9 -18t-10 0q-68 31 -130 31q-73 0 -102 -33.5t-29 -115.5v-39h123q5 0 7 -5t2 -20v-7q0 -14 -2 -19t-7 -5h-123v-462q0 -5 -6.5 -7.5t-21.5 -2.5h-8q-17 0 -23 2.5t-6 7.5v462h-255v-462q0 -5 -6.5 -7.5
t-21.5 -2.5h-8q-17 0 -23 2.5zM731 2q-6 2 -6 8v509q0 5 6 7t22 2h8q17 0 23 -2t6 -7v-509q0 -5 -6 -7.5t-22 -2.5h-8q-17 0 -23 2z" />
    <glyph glyph-name="f_f_l.liga" unicode="ffl" horiz-adv-x="908" 
d="M117 2.5q-6 2.5 -6 7.5v462h-70q-5 0 -7 5t-2 19v7q0 15 2 20t7 5h70v41q0 104 42.5 158.5t134.5 54.5q48 0 91 -17q6 -3 6 -10q0 -5 -3 -16l-2 -7q-4 -14 -7.5 -18t-9.5 -2q-36 12 -72 12q-66 0 -90.5 -38t-24.5 -119v-39h255v41q0 213 199 213q35 0 72.5 -8t67.5 -21
q19 -8 21 -25q8 -87 8 -268v-348q0 -35 7 -48t29 -13q8 0 20 2h2q3 0 4.5 -4.5t2.5 -13.5l1 -7q1 -4 1 -10q0 -9 -10 -12q-19 -6 -41 -6q-47 0 -66 28q-15 23 -15 104v351q0 119 -7 226q-43 20 -97 20q-76 0 -105 -41.5t-29 -120.5v-39h123q5 0 7 -5t2 -20v-7q0 -14 -2 -19
t-7 -5h-123v-462q0 -5 -6.5 -7.5t-21.5 -2.5h-8q-17 0 -23 2.5t-6 7.5v462h-255v-462q0 -5 -6.5 -7.5t-21.5 -2.5h-8q-17 0 -23 2.5z" />
    <glyph glyph-name="fi" unicode="fi" horiz-adv-x="548" 
d="M117 2.5q-6 2.5 -6 7.5v462h-70q-5 0 -7 5t-2 19v7q0 15 2 20t7 5h70v41q0 106 47.5 153.5t149.5 47.5q36 0 77.5 -10t73.5 -26q5 -2 5 -7q0 -4 -6 -19l-2 -5q-6 -15 -9 -18t-10 0q-68 31 -130 31q-73 0 -102 -33.5t-29 -115.5v-39h123q5 0 7 -5t2 -20v-7q0 -14 -2 -19
t-7 -5h-123v-462q0 -5 -6.5 -7.5t-21.5 -2.5h-8q-17 0 -23 2.5zM411 2q-6 2 -6 8v509q0 5 6 7t22 2h8q17 0 23 -2t6 -7v-509q0 -5 -6 -7.5t-22 -2.5h-8q-17 0 -23 2z" />
    <glyph glyph-name="fl" unicode="fl" horiz-adv-x="588" 
d="M117 2.5q-6 2.5 -6 7.5v462h-70q-5 0 -7 5t-2 19v7q0 15 2 20t7 5h70v41q0 213 199 213q35 0 72.5 -8t67.5 -21q19 -8 21 -25q8 -87 8 -268v-348q0 -35 7 -48t29 -13q8 0 20 2h2q3 0 4.5 -4.5t2.5 -13.5l1 -7q1 -4 1 -10q0 -9 -10 -12q-19 -6 -41 -6q-47 0 -66 28
q-15 23 -15 104v351q0 119 -7 226q-43 20 -97 20q-76 0 -105 -41.5t-29 -120.5v-39h123q5 0 7 -5t2 -20v-7q0 -14 -2 -19t-7 -5h-123v-462q0 -5 -6.5 -7.5t-21.5 -2.5h-8q-17 0 -23 2.5z" />
    <glyph glyph-name=".notdef" horiz-adv-x="694" 
d="M90 720h514v-720h-514v720zM522 669h-350l176 -263zM316 360l-174 262v-524zM553 622l-175 -262l175 -262v524zM522 52l-174 262l-176 -262h350z" />
    <glyph glyph-name=".null" horiz-adv-x="0" 
 />
    <glyph glyph-name="nonmarkingreturn" unicode="&#xd;" horiz-adv-x="250" 
 />
    <glyph glyph-name="space" unicode=" " horiz-adv-x="250" 
 />
    <glyph glyph-name="A" unicode="A" horiz-adv-x="671" 
d="M23.5 2.5q-5.5 2.5 -3.5 8.5l267 696q3 8 10.5 10.5t32.5 2.5h2q27 0 34.5 -2t11.5 -11l270 -696q2 -6 -4.5 -8.5t-26.5 -2.5h-9q-22 0 -28.5 1.5t-9.5 8.5l-67 184h-343l-68 -184q-2 -6 -9.5 -8t-26.5 -2h-7q-20 0 -25.5 2.5zM484 250l-36 96q-59 154 -115 319
q-54 -149 -117 -316l-37 -99h305z" />
    <glyph glyph-name="Aacute" unicode="&#xc1;" horiz-adv-x="671" 
d="M23.5 2.5q-5.5 2.5 -3.5 8.5l267 696q3 8 10.5 10.5t32.5 2.5h2q27 0 34.5 -2t11.5 -11l270 -696q2 -6 -4.5 -8.5t-26.5 -2.5h-9q-22 0 -28.5 1.5t-9.5 8.5l-67 184h-343l-68 -184q-2 -6 -9.5 -8t-26.5 -2h-7q-20 0 -25.5 2.5zM484 250l-36 96q-59 154 -115 319
q-54 -149 -117 -316l-37 -99h305zM273 785l67 118q3 6 10 8t26 2h15q17 0 21 -2.5t0 -7.5l-88 -119q-3 -4 -8 -5t-19 -1h-4q-24 0 -20 7z" />
    <glyph glyph-name="Abreve" unicode="&#x102;" horiz-adv-x="671" 
d="M23.5 2.5q-5.5 2.5 -3.5 8.5l267 696q3 8 10.5 10.5t32.5 2.5h2q27 0 34.5 -2t11.5 -11l270 -696q2 -6 -4.5 -8.5t-26.5 -2.5h-9q-22 0 -28.5 1.5t-9.5 8.5l-67 184h-343l-68 -184q-2 -6 -9.5 -8t-26.5 -2h-7q-20 0 -25.5 2.5zM484 250l-36 96q-59 154 -115 319
q-54 -149 -117 -316l-37 -99h305zM235.5 825q-38.5 30 -38.5 81q0 3 3.5 4.5t15.5 1.5h12q13 0 15.5 -1.5t3.5 -8.5q4 -32 26 -49t60 -17t60 17t26 49q1 7 3.5 8.5t15.5 1.5h12q12 0 15.5 -1.5t3.5 -4.5q0 -51 -38.5 -81t-97.5 -30t-97.5 30z" />
    <glyph glyph-name="uni01CD" unicode="&#x1cd;" horiz-adv-x="671" 
d="M23.5 2.5q-5.5 2.5 -3.5 8.5l267 696q3 8 10.5 10.5t32.5 2.5h2q27 0 34.5 -2t11.5 -11l270 -696q2 -6 -4.5 -8.5t-26.5 -2.5h-9q-22 0 -28.5 1.5t-9.5 8.5l-67 184h-343l-68 -184q-2 -6 -9.5 -8t-26.5 -2h-7q-20 0 -25.5 2.5zM484 250l-36 96q-59 154 -115 319
q-54 -149 -117 -316l-37 -99h305zM299 790q-7 2 -13 8l-94 100q-3 3 -3 5q0 4 7 11l5 6q6 7 9 8t7 -2l116 -97l116 97q4 2 5 2q4 0 11 -8l5 -6q6 -7 6.5 -9.5t-2.5 -6.5l-94 -100q-6 -6 -13 -8t-21 -2h-26q-14 0 -21 2z" />
    <glyph glyph-name="Acircumflex" unicode="&#xc2;" horiz-adv-x="671" 
d="M23.5 2.5q-5.5 2.5 -3.5 8.5l267 696q3 8 10.5 10.5t32.5 2.5h2q27 0 34.5 -2t11.5 -11l270 -696q2 -6 -4.5 -8.5t-26.5 -2.5h-9q-22 0 -28.5 1.5t-9.5 8.5l-67 184h-343l-68 -184q-2 -6 -9.5 -8t-26.5 -2h-7q-20 0 -25.5 2.5zM484 250l-36 96q-59 154 -115 319
q-54 -149 -117 -316l-37 -99h305zM212 781q-3 0 -11 8l-5 6q-5 6 -6 9.5t2 6.5l94 100q6 6 13 8t21 2h26q14 0 21 -2t13 -8l94 -100q2 -2 2 -5t-6 -11l-5 -6q-5 -6 -8.5 -7.5t-7.5 1.5l-116 97l-116 -97q-4 -2 -5 -2z" />
    <glyph glyph-name="Adieresis" unicode="&#xc4;" horiz-adv-x="671" 
d="M23.5 2.5q-5.5 2.5 -3.5 8.5l267 696q3 8 10.5 10.5t32.5 2.5h2q27 0 34.5 -2t11.5 -11l270 -696q2 -6 -4.5 -8.5t-26.5 -2.5h-9q-22 0 -28.5 1.5t-9.5 8.5l-67 184h-343l-68 -184q-2 -6 -9.5 -8t-26.5 -2h-7q-20 0 -25.5 2.5zM484 250l-36 96q-59 154 -115 319
q-54 -149 -117 -316l-37 -99h305zM197.5 813q-13.5 14 -13.5 33q0 20 14 34t33 14t33.5 -14t14.5 -34q0 -19 -14 -33t-34 -14t-33.5 14zM399.5 813q-13.5 14 -13.5 33q0 20 14 34t33 14t33.5 -14t14.5 -34q0 -19 -14 -33t-34 -14t-33.5 14z" />
    <glyph glyph-name="Agrave" unicode="&#xc0;" horiz-adv-x="671" 
d="M23.5 2.5q-5.5 2.5 -3.5 8.5l267 696q3 8 10.5 10.5t32.5 2.5h2q27 0 34.5 -2t11.5 -11l270 -696q2 -6 -4.5 -8.5t-26.5 -2.5h-9q-22 0 -28.5 1.5t-9.5 8.5l-67 184h-343l-68 -184q-2 -6 -9.5 -8t-26.5 -2h-7q-20 0 -25.5 2.5zM484 250l-36 96q-59 154 -115 319
q-54 -149 -117 -316l-37 -99h305zM340 779q-5 1 -8 5l-88 119q-2 4 -2 5q0 5 23 5h15q19 0 26 -2t10 -8l67 -118l1 -2q0 -5 -21 -5h-4q-14 0 -19 1z" />
    <glyph glyph-name="Amacron" unicode="&#x100;" horiz-adv-x="671" 
d="M23.5 2.5q-5.5 2.5 -3.5 8.5l267 696q3 8 10.5 10.5t32.5 2.5h2q27 0 34.5 -2t11.5 -11l270 -696q2 -6 -4.5 -8.5t-26.5 -2.5h-9q-22 0 -28.5 1.5t-9.5 8.5l-67 184h-343l-68 -184q-2 -6 -9.5 -8t-26.5 -2h-7q-20 0 -25.5 2.5zM484 250l-36 96q-59 154 -115 319
q-54 -149 -117 -316l-37 -99h305zM195.5 828.5q-1.5 5.5 -1.5 19.5v3q0 15 1.5 19t6.5 4h262q5 0 6.5 -4t1.5 -19v-3q0 -14 -1.5 -19.5t-6.5 -5.5h-262q-5 0 -6.5 5.5z" />
    <glyph glyph-name="Aogonek" unicode="&#x104;" horiz-adv-x="671" 
d="M502 -203q-29 26 -29 68q0 43 26 81t72 63l-68 185h-343l-68 -184q-2 -6 -9.5 -8t-26.5 -2h-7q-20 0 -25.5 2.5t-3.5 8.5l267 696q3 8 10.5 10.5t32.5 2.5h2q27 0 34.5 -2t11.5 -11l270 -696l1 -4q0 -4 -8 -6q-27 -5 -51 -21.5t-39 -40.5q-21 -33 -21 -67q0 -27 15.5 -42
t42.5 -15q15 0 49 9h2q4 0 8 -14l1 -5q1 -8 1 -12.5t-3 -5.5q-35 -16 -73 -16q-42 0 -71 26zM484 250l-36 96q-59 154 -115 319q-54 -149 -117 -316l-37 -99h305z" />
    <glyph glyph-name="Aring" unicode="&#xc5;" horiz-adv-x="671" 
d="M23.5 2.5q-5.5 2.5 -3.5 8.5l266 694q-21 12 -33.5 32.5t-12.5 44.5q0 37 28 63.5t66 26.5q39 0 66.5 -26t27.5 -64q0 -26 -13.5 -46.5t-35.5 -32.5l269 -692q2 -6 -4.5 -8.5t-26.5 -2.5h-9q-22 0 -28.5 1.5t-9.5 8.5l-67 184h-343l-68 -184q-2 -6 -9.5 -8t-26.5 -2h-7
q-20 0 -25.5 2.5zM369.5 745.5q13.5 14.5 13.5 36.5t-13.5 36.5t-35.5 14.5t-36.5 -14t-14.5 -37t14.5 -37t36.5 -14t35.5 14.5zM484 250l-36 96q-59 154 -115 319q-54 -149 -117 -316l-37 -99h305z" />
    <glyph glyph-name="Aringacute" unicode="&#x1fa;" horiz-adv-x="671" 
d="M277 905l67 118q3 6 10 8t26 2h15q17 0 21 -2.5t0 -7.5l-88 -119q-3 -4 -8 -5t-19 -1h-4q-24 0 -20 7zM23.5 2.5q-5.5 2.5 -3.5 8.5l266 694q-21 12 -33.5 32.5t-12.5 44.5q0 37 28 63.5t66 26.5q39 0 66.5 -26t27.5 -64q0 -26 -13.5 -46.5t-35.5 -32.5l269 -692
q2 -6 -4.5 -8.5t-26.5 -2.5h-9q-22 0 -28.5 1.5t-9.5 8.5l-67 184h-343l-68 -184q-2 -6 -9.5 -8t-26.5 -2h-7q-20 0 -25.5 2.5zM369.5 745.5q13.5 14.5 13.5 36.5t-13.5 36.5t-35.5 14.5t-36.5 -14t-14.5 -37t14.5 -37t36.5 -14t35.5 14.5zM484 250l-36 96q-59 154 -115 319
q-54 -149 -117 -316l-37 -99h305z" />
    <glyph glyph-name="Atilde" unicode="&#xc3;" horiz-adv-x="671" 
d="M23.5 2.5q-5.5 2.5 -3.5 8.5l267 696q3 8 10.5 10.5t32.5 2.5h2q27 0 34.5 -2t11.5 -11l270 -696q2 -6 -4.5 -8.5t-26.5 -2.5h-9q-22 0 -28.5 1.5t-9.5 8.5l-67 184h-343l-68 -184q-2 -6 -9.5 -8t-26.5 -2h-7q-20 0 -25.5 2.5zM484 250l-36 96q-59 154 -115 319
q-54 -149 -117 -316l-37 -99h305zM360.5 818q-15.5 5 -36.5 15q-18 9 -30.5 13.5t-26.5 4.5q-15 0 -28 -7t-30 -23q-1 -1 -4 -1q-6 0 -12 9l-8 10q-4 5 -4.5 8.5t2.5 7.5q14 18 39 31t49 13q19 0 34.5 -5t36.5 -15q18 -9 30.5 -13.5t26.5 -4.5q15 0 28 7t30 23q1 1 4 1
q6 0 12 -9l8 -10q4 -5 4.5 -8.5t-2.5 -7.5q-14 -18 -39 -31t-49 -13q-19 0 -34.5 5z" />
    <glyph glyph-name="AE" unicode="&#xc6;" horiz-adv-x="972" 
d="M7.5 3q-5.5 3 -1.5 8l449 698q4 7 9.5 9t20.5 2h420q5 0 7 -5t2 -21v-4q0 -16 -2 -21.5t-7 -5.5h-350v-270h297q5 0 7 -5t2 -21v-4q0 -16 -2 -21.5t-7 -5.5h-297v-279h354q5 0 7 -5t2 -21v-4q0 -16 -2 -21.5t-7 -5.5h-424v199h-287l-121 -189q-5 -6 -11 -8t-25 -2h-6
q-22 0 -27.5 3zM485 256v403q-44 -81 -110 -183l-141 -220h251z" />
    <glyph glyph-name="AEacute" unicode="&#x1fc;" horiz-adv-x="972" 
d="M7.5 3q-5.5 3 -1.5 8l449 698q4 7 9.5 9t20.5 2h420q5 0 7 -5t2 -21v-4q0 -16 -2 -21.5t-7 -5.5h-350v-270h297q5 0 7 -5t2 -21v-4q0 -16 -2 -21.5t-7 -5.5h-297v-279h354q5 0 7 -5t2 -21v-4q0 -16 -2 -21.5t-7 -5.5h-424v199h-287l-121 -189q-5 -6 -11 -8t-25 -2h-6
q-22 0 -27.5 3zM485 256v403q-44 -81 -110 -183l-141 -220h251zM549 785l67 118q3 6 10 8t26 2h15q17 0 21 -2.5t0 -7.5l-88 -119q-3 -4 -8 -5t-19 -1h-4q-24 0 -20 7z" />
    <glyph glyph-name="B" unicode="B" horiz-adv-x="614" 
d="M79 720h204q244 0 244 -181q0 -61 -35.5 -102t-86.5 -57q71 -15 117 -61t46 -117q0 -104 -72 -153t-195 -49h-222v720zM273 397q85 0 134 33t49 102q0 74 -45 103t-130 29h-132v-267h124zM292 56q204 0 204 144q0 76 -53.5 110.5t-144.5 34.5h-149v-289h143z" />
    <glyph glyph-name="C" unicode="C" horiz-adv-x="601" 
d="M190 34.5q-71 44.5 -108 125.5t-37 190q0 124 42.5 209.5t117.5 128t170 42.5q50 0 97 -11.5t84 -32.5q5 -3 5 -8q0 -4 -6 -18l-5 -11q-5 -10 -8.5 -13t-8.5 -1q-45 19 -81 27.5t-72 8.5q-126 0 -194 -82t-68 -233q0 -150 66.5 -228.5t192.5 -78.5q85 0 159 33q2 1 5 1
q4 0 7 -4.5t6 -11.5l4 -10q5 -13 5 -17q0 -6 -6 -9q-85 -41 -198 -41q-98 0 -169 44.5z" />
    <glyph glyph-name="Cacute" unicode="&#x106;" horiz-adv-x="601" 
d="M190 34.5q-71 44.5 -108 125.5t-37 190q0 124 42.5 209.5t117.5 128t170 42.5q50 0 97 -11.5t84 -32.5q5 -3 5 -8q0 -4 -6 -18l-5 -11q-5 -10 -8.5 -13t-8.5 -1q-45 19 -81 27.5t-72 8.5q-126 0 -194 -82t-68 -233q0 -150 66.5 -228.5t192.5 -78.5q85 0 159 33q2 1 5 1
q4 0 7 -4.5t6 -11.5l4 -10q5 -13 5 -17q0 -6 -6 -9q-85 -41 -198 -41q-98 0 -169 44.5zM316 785l67 118q3 6 10 8t26 2h15q17 0 21 -2.5t0 -7.5l-88 -119q-3 -4 -8 -5t-19 -1h-4q-24 0 -20 7z" />
    <glyph glyph-name="Cacute.loclPLK" horiz-adv-x="601" 
d="M190 34.5q-71 44.5 -108 125.5t-37 190q0 124 42.5 209.5t117.5 128t170 42.5q50 0 97 -11.5t84 -32.5q5 -3 5 -8q0 -4 -6 -18l-5 -11q-5 -10 -8.5 -13t-8.5 -1q-45 19 -81 27.5t-72 8.5q-126 0 -194 -82t-68 -233q0 -150 66.5 -228.5t192.5 -78.5q85 0 159 33q2 1 5 1
q4 0 7 -4.5t6 -11.5l4 -10q5 -13 5 -17q0 -6 -6 -9q-85 -41 -198 -41q-98 0 -169 44.5zM342 780q-4 2 -3 7l26 115q2 7 7 9t24 2h11q18 0 23 -2t3 -8l-45 -117q-2 -5 -6 -6.5t-19 -1.5h-3q-14 0 -18 2z" />
    <glyph glyph-name="Ccaron" unicode="&#x10c;" horiz-adv-x="601" 
d="M190 34.5q-71 44.5 -108 125.5t-37 190q0 124 42.5 209.5t117.5 128t170 42.5q50 0 97 -11.5t84 -32.5q5 -3 5 -8q0 -4 -6 -18l-5 -11q-5 -10 -8.5 -13t-8.5 -1q-45 19 -81 27.5t-72 8.5q-126 0 -194 -82t-68 -233q0 -150 66.5 -228.5t192.5 -78.5q85 0 159 33q2 1 5 1
q4 0 7 -4.5t6 -11.5l4 -10q5 -13 5 -17q0 -6 -6 -9q-85 -41 -198 -41q-98 0 -169 44.5zM342 790q-7 2 -13 8l-94 100q-3 3 -3 5q0 4 7 11l5 6q6 7 9 8t7 -2l116 -97l116 97q4 2 5 2q4 0 11 -8l5 -6q6 -7 6.5 -9.5t-2.5 -6.5l-94 -100q-6 -6 -13 -8t-21 -2h-26q-14 0 -21 2z
" />
    <glyph glyph-name="Ccedilla" unicode="&#xc7;" horiz-adv-x="601" 
d="M563 40q0 -6 -6 -9q-77 -38 -187 -41l-7 -56q18 2 27 2q40 0 65 -21.5t25 -56.5q0 -38 -28 -64t-82 -26q-20 0 -41 3.5t-31 8.5q-3 1 -3 7t1 11l1 5q2 10 4 12.5t6 1.5q32 -7 55 -7q62 0 62 44q0 43 -61 43q-30 0 -53 -5l13 100q-132 12 -205 107.5t-73 250.5
q0 124 42.5 209.5t117.5 128t170 42.5q50 0 97 -11.5t84 -32.5q5 -3 5 -8q0 -4 -6 -18l-5 -11q-5 -10 -8.5 -13t-8.5 -1q-45 19 -81 27.5t-72 8.5q-126 0 -194 -82t-68 -233q0 -150 66.5 -228.5t192.5 -78.5q85 0 159 33q2 1 5 1q4 0 7 -4.5t6 -11.5l4 -10q5 -13 5 -17z" />
    <glyph glyph-name="Ccircumflex" unicode="&#x108;" horiz-adv-x="601" 
d="M190 34.5q-71 44.5 -108 125.5t-37 190q0 124 42.5 209.5t117.5 128t170 42.5q50 0 97 -11.5t84 -32.5q5 -3 5 -8q0 -4 -6 -18l-5 -11q-5 -10 -8.5 -13t-8.5 -1q-45 19 -81 27.5t-72 8.5q-126 0 -194 -82t-68 -233q0 -150 66.5 -228.5t192.5 -78.5q85 0 159 33q2 1 5 1
q4 0 7 -4.5t6 -11.5l4 -10q5 -13 5 -17q0 -6 -6 -9q-85 -41 -198 -41q-98 0 -169 44.5zM255 781q-3 0 -11 8l-5 6q-5 6 -6 9.5t2 6.5l94 100q6 6 13 8t21 2h26q14 0 21 -2t13 -8l94 -100q2 -2 2 -5t-6 -11l-5 -6q-5 -6 -8.5 -7.5t-7.5 1.5l-116 97l-116 -97q-4 -2 -5 -2z
" />
    <glyph glyph-name="Cdotaccent" unicode="&#x10a;" horiz-adv-x="601" 
d="M190 34.5q-71 44.5 -108 125.5t-37 190q0 124 42.5 209.5t117.5 128t170 42.5q50 0 97 -11.5t84 -32.5q5 -3 5 -8q0 -4 -6 -18l-5 -11q-5 -10 -8.5 -13t-8.5 -1q-45 19 -81 27.5t-72 8.5q-126 0 -194 -82t-68 -233q0 -150 66.5 -228.5t192.5 -78.5q85 0 159 33q2 1 5 1
q4 0 7 -4.5t6 -11.5l4 -10q5 -13 5 -17q0 -6 -6 -9q-85 -41 -198 -41q-98 0 -169 44.5zM342 807.5q-13 13.5 -13 32.5q0 20 13.5 33.5t32.5 13.5t33 -13.5t14 -33.5q0 -19 -13.5 -32.5t-33.5 -13.5t-33 13.5z" />
    <glyph glyph-name="D" unicode="D" horiz-adv-x="686" 
d="M79 720h175q98 0 171.5 -22t123.5 -71q93 -91 93 -264q0 -182 -101 -275q-48 -45 -117.5 -66.5t-167.5 -21.5h-177v720zM249 56q158 0 235 68q85 75 85 236q0 79 -20.5 136.5t-63.5 97.5q-38 36 -94 53t-144 17h-98v-608h100z" />
    <glyph glyph-name="Eth" unicode="&#xd0;" horiz-adv-x="686" 
d="M642 363q0 -182 -101 -275q-48 -45 -117.5 -66.5t-167.5 -21.5h-177v339h-49q-5 0 -6.5 5.5t-1.5 19.5v3q0 15 1.5 19t6.5 4h49v330h175q98 0 171.5 -22t123.5 -71q93 -91 93 -264zM569 360q0 79 -20.5 136.5t-63.5 97.5q-38 36 -94 53t-144 17h-98v-274h177q5 0 6.5 -4
t1.5 -19v-3q0 -14 -1.5 -19.5t-6.5 -5.5h-177v-283h100q158 0 235 68q85 75 85 236z" />
    <glyph glyph-name="Dcaron" unicode="&#x10e;" horiz-adv-x="686" 
d="M79 720h175q98 0 171.5 -22t123.5 -71q93 -91 93 -264q0 -182 -101 -275q-48 -45 -117.5 -66.5t-167.5 -21.5h-177v720zM249 56q158 0 235 68q85 75 85 236q0 79 -20.5 136.5t-63.5 97.5q-38 36 -94 53t-144 17h-98v-608h100zM308 790q-7 2 -13 8l-94 100q-3 3 -3 5
q0 4 7 11l5 6q6 7 9 8t7 -2l116 -97l116 97q4 2 5 2q4 0 11 -8l5 -6q6 -7 6.5 -9.5t-2.5 -6.5l-94 -100q-6 -6 -13 -8t-21 -2h-26q-14 0 -21 2z" />
    <glyph glyph-name="Dcroat" unicode="&#x110;" horiz-adv-x="686" 
d="M642 363q0 -182 -101 -275q-48 -45 -117.5 -66.5t-167.5 -21.5h-177v339h-49q-5 0 -6.5 5.5t-1.5 19.5v3q0 15 1.5 19t6.5 4h49v330h175q98 0 171.5 -22t123.5 -71q93 -91 93 -264zM569 360q0 79 -20.5 136.5t-63.5 97.5q-38 36 -94 53t-144 17h-98v-274h177q5 0 6.5 -4
t1.5 -19v-3q0 -14 -1.5 -19.5t-6.5 -5.5h-177v-283h100q158 0 235 68q85 75 85 236z" />
    <glyph glyph-name="E" unicode="E" horiz-adv-x="566" 
d="M79 720h420q5 0 7 -5t2 -21v-4q0 -16 -2 -21.5t-7 -5.5h-350v-270h297q5 0 7 -5t2 -21v-4q0 -16 -2 -21.5t-7 -5.5h-297v-279h354q5 0 7 -5t2 -21v-4q0 -16 -2 -21.5t-7 -5.5h-424v720z" />
    <glyph glyph-name="Eacute" unicode="&#xc9;" horiz-adv-x="566" 
d="M79 720h420q5 0 7 -5t2 -21v-4q0 -16 -2 -21.5t-7 -5.5h-350v-270h297q5 0 7 -5t2 -21v-4q0 -16 -2 -21.5t-7 -5.5h-297v-279h354q5 0 7 -5t2 -21v-4q0 -16 -2 -21.5t-7 -5.5h-424v720zM236 785l67 118q3 6 10 8t26 2h15q17 0 21 -2.5t0 -7.5l-88 -119q-3 -4 -8 -5
t-19 -1h-4q-24 0 -20 7z" />
    <glyph glyph-name="Ebreve" unicode="&#x114;" horiz-adv-x="566" 
d="M79 720h420q5 0 7 -5t2 -21v-4q0 -16 -2 -21.5t-7 -5.5h-350v-270h297q5 0 7 -5t2 -21v-4q0 -16 -2 -21.5t-7 -5.5h-297v-279h354q5 0 7 -5t2 -21v-4q0 -16 -2 -21.5t-7 -5.5h-424v720zM198.5 825q-38.5 30 -38.5 81q0 3 3.5 4.5t15.5 1.5h12q13 0 15.5 -1.5t3.5 -8.5
q4 -32 26 -49t60 -17t60 17t26 49q1 7 3.5 8.5t15.5 1.5h12q12 0 15.5 -1.5t3.5 -4.5q0 -51 -38.5 -81t-97.5 -30t-97.5 30z" />
    <glyph glyph-name="Ecaron" unicode="&#x11a;" horiz-adv-x="566" 
d="M79 720h420q5 0 7 -5t2 -21v-4q0 -16 -2 -21.5t-7 -5.5h-350v-270h297q5 0 7 -5t2 -21v-4q0 -16 -2 -21.5t-7 -5.5h-297v-279h354q5 0 7 -5t2 -21v-4q0 -16 -2 -21.5t-7 -5.5h-424v720zM262 790q-7 2 -13 8l-94 100q-3 3 -3 5q0 4 7 11l5 6q6 7 9 8t7 -2l116 -97l116 97
q4 2 5 2q4 0 11 -8l5 -6q6 -7 6.5 -9.5t-2.5 -6.5l-94 -100q-6 -6 -13 -8t-21 -2h-26q-14 0 -21 2z" />
    <glyph glyph-name="Ecircumflex" unicode="&#xca;" horiz-adv-x="566" 
d="M79 720h420q5 0 7 -5t2 -21v-4q0 -16 -2 -21.5t-7 -5.5h-350v-270h297q5 0 7 -5t2 -21v-4q0 -16 -2 -21.5t-7 -5.5h-297v-279h354q5 0 7 -5t2 -21v-4q0 -16 -2 -21.5t-7 -5.5h-424v720zM175 781q-3 0 -11 8l-5 6q-5 6 -6 9.5t2 6.5l94 100q6 6 13 8t21 2h26q14 0 21 -2
t13 -8l94 -100q2 -2 2 -5t-6 -11l-5 -6q-5 -6 -8.5 -7.5t-7.5 1.5l-116 97l-116 -97q-4 -2 -5 -2z" />
    <glyph glyph-name="Edieresis" unicode="&#xcb;" horiz-adv-x="566" 
d="M79 720h420q5 0 7 -5t2 -21v-4q0 -16 -2 -21.5t-7 -5.5h-350v-270h297q5 0 7 -5t2 -21v-4q0 -16 -2 -21.5t-7 -5.5h-297v-279h354q5 0 7 -5t2 -21v-4q0 -16 -2 -21.5t-7 -5.5h-424v720zM160.5 813q-13.5 14 -13.5 33q0 20 14 34t33 14t33.5 -14t14.5 -34q0 -19 -14 -33
t-34 -14t-33.5 14zM362.5 813q-13.5 14 -13.5 33q0 20 14 34t33 14t33.5 -14t14.5 -34q0 -19 -14 -33t-34 -14t-33.5 14z" />
    <glyph glyph-name="Edotaccent" unicode="&#x116;" horiz-adv-x="566" 
d="M79 720h420q5 0 7 -5t2 -21v-4q0 -16 -2 -21.5t-7 -5.5h-350v-270h297q5 0 7 -5t2 -21v-4q0 -16 -2 -21.5t-7 -5.5h-297v-279h354q5 0 7 -5t2 -21v-4q0 -16 -2 -21.5t-7 -5.5h-424v720zM262 807.5q-13 13.5 -13 32.5q0 20 13.5 33.5t32.5 13.5t33 -13.5t14 -33.5
q0 -19 -13.5 -32.5t-33.5 -13.5t-33 13.5z" />
    <glyph glyph-name="Egrave" unicode="&#xc8;" horiz-adv-x="566" 
d="M79 720h420q5 0 7 -5t2 -21v-4q0 -16 -2 -21.5t-7 -5.5h-350v-270h297q5 0 7 -5t2 -21v-4q0 -16 -2 -21.5t-7 -5.5h-297v-279h354q5 0 7 -5t2 -21v-4q0 -16 -2 -21.5t-7 -5.5h-424v720zM313 779q-5 1 -8 5l-88 119q-2 4 -2 5q0 5 23 5h15q19 0 26 -2t10 -8l67 -118l1 -2
q0 -5 -21 -5h-4q-14 0 -19 1z" />
    <glyph glyph-name="Emacron" unicode="&#x112;" horiz-adv-x="566" 
d="M79 720h420q5 0 7 -5t2 -21v-4q0 -16 -2 -21.5t-7 -5.5h-350v-270h297q5 0 7 -5t2 -21v-4q0 -16 -2 -21.5t-7 -5.5h-297v-279h354q5 0 7 -5t2 -21v-4q0 -16 -2 -21.5t-7 -5.5h-424v720zM158.5 828.5q-1.5 5.5 -1.5 19.5v3q0 15 1.5 19t6.5 4h262q5 0 6.5 -4t1.5 -19v-3
q0 -14 -1.5 -19.5t-6.5 -5.5h-262q-5 0 -6.5 5.5z" />
    <glyph glyph-name="Eogonek" unicode="&#x118;" horiz-adv-x="566" 
d="M350.5 -204q-28.5 25 -28.5 73q0 36 22.5 72t61.5 59h-327v720h420q5 0 7 -5t2 -21v-4q0 -16 -2 -21.5t-7 -5.5h-350v-270h297q5 0 7 -5t2 -21v-4q0 -16 -2 -21.5t-7 -5.5h-297v-279h354q5 0 7 -5t2 -21v-4q0 -16 -2 -21t-7 -6q-50 -6 -87 -41.5t-37 -86.5
q0 -27 15.5 -42t40.5 -15q17 0 51 9h2q4 0 8 -14l1 -5q2 -9 1.5 -12.5t-3.5 -5.5q-34 -16 -73 -16q-43 0 -71.5 25z" />
    <glyph glyph-name="F" unicode="F" horiz-adv-x="530" 
d="M85.5 2q-6.5 2 -6.5 9v709h411q5 0 7 -5t2 -21v-4q0 -16 -2 -21.5t-7 -5.5h-341v-270h288q5 0 7 -5t2 -21v-4q0 -16 -2 -21.5t-7 -5.5h-288v-325q0 -7 -5.5 -9t-25.5 -2h-5q-21 0 -27.5 2z" />
    <glyph glyph-name="G" unicode="G" horiz-adv-x="681" 
d="M198 35.5q-77 45.5 -115 127.5t-38 191q0 112 39.5 197t116 132t183.5 47q121 0 210 -56q4 -3 4 -7q0 -5 -6 -17l-5 -11q-5 -11 -8.5 -14t-9.5 0q-87 46 -185 46q-126 0 -196 -82t-70 -230q0 -151 70.5 -231t203.5 -80q40 0 82 7.5t75 19.5v243h-181q-5 0 -7 5t-2 21v4
q0 16 2 21.5t7 5.5h248v-337q-118 -48 -229 -48q-112 0 -189 45.5z" />
    <glyph glyph-name="Gbreve" unicode="&#x11e;" horiz-adv-x="681" 
d="M198 35.5q-77 45.5 -115 127.5t-38 191q0 112 39.5 197t116 132t183.5 47q121 0 210 -56q4 -3 4 -7q0 -5 -6 -17l-5 -11q-5 -11 -8.5 -14t-9.5 0q-87 46 -185 46q-126 0 -196 -82t-70 -230q0 -151 70.5 -231t203.5 -80q40 0 82 7.5t75 19.5v243h-181q-5 0 -7 5t-2 21v4
q0 16 2 21.5t7 5.5h248v-337q-118 -48 -229 -48q-112 0 -189 45.5zM288.5 825q-38.5 30 -38.5 81q0 3 3.5 4.5t15.5 1.5h12q13 0 15.5 -1.5t3.5 -8.5q4 -32 26 -49t60 -17t60 17t26 49q1 7 3.5 8.5t15.5 1.5h12q12 0 15.5 -1.5t3.5 -4.5q0 -51 -38.5 -81t-97.5 -30t-97.5 30
z" />
    <glyph glyph-name="Gcircumflex" unicode="&#x11c;" horiz-adv-x="681" 
d="M198 35.5q-77 45.5 -115 127.5t-38 191q0 112 39.5 197t116 132t183.5 47q121 0 210 -56q4 -3 4 -7q0 -5 -6 -17l-5 -11q-5 -11 -8.5 -14t-9.5 0q-87 46 -185 46q-126 0 -196 -82t-70 -230q0 -151 70.5 -231t203.5 -80q40 0 82 7.5t75 19.5v243h-181q-5 0 -7 5t-2 21v4
q0 16 2 21.5t7 5.5h248v-337q-118 -48 -229 -48q-112 0 -189 45.5zM265 781q-3 0 -11 8l-5 6q-5 6 -6 9.5t2 6.5l94 100q6 6 13 8t21 2h26q14 0 21 -2t13 -8l94 -100q2 -2 2 -5t-6 -11l-5 -6q-5 -6 -8.5 -7.5t-7.5 1.5l-116 97l-116 -97q-4 -2 -5 -2z" />
    <glyph glyph-name="Gcommaaccent" unicode="&#x122;" horiz-adv-x="681" 
d="M198 35.5q-77 45.5 -115 127.5t-38 191q0 112 39.5 197t116 132t183.5 47q121 0 210 -56q4 -3 4 -7q0 -5 -6 -17l-5 -11q-5 -11 -8.5 -14t-9.5 0q-87 46 -185 46q-126 0 -196 -82t-70 -230q0 -151 70.5 -231t203.5 -80q40 0 82 7.5t75 19.5v243h-181q-5 0 -7 5t-2 21v4
q0 16 2 21.5t7 5.5h248v-337q-118 -48 -229 -48q-112 0 -189 45.5zM341 -276q-3 0 -9 6l-5 5q-4 4 -4 7t3 6q20 21 34.5 44.5t14.5 42.5q0 12 -4.5 20.5t-13.5 18.5q-8 9 -12 16.5t-4 18.5q0 17 12 27.5t29 10.5q22 0 35.5 -15.5t13.5 -38.5q0 -47 -22.5 -91t-62.5 -76
q-4 -2 -5 -2z" />
    <glyph glyph-name="Gdotaccent" unicode="&#x120;" horiz-adv-x="681" 
d="M198 35.5q-77 45.5 -115 127.5t-38 191q0 112 39.5 197t116 132t183.5 47q121 0 210 -56q4 -3 4 -7q0 -5 -6 -17l-5 -11q-5 -11 -8.5 -14t-9.5 0q-87 46 -185 46q-126 0 -196 -82t-70 -230q0 -151 70.5 -231t203.5 -80q40 0 82 7.5t75 19.5v243h-181q-5 0 -7 5t-2 21v4
q0 16 2 21.5t7 5.5h248v-337q-118 -48 -229 -48q-112 0 -189 45.5zM352 807.5q-13 13.5 -13 32.5q0 20 13.5 33.5t32.5 13.5t33 -13.5t14 -33.5q0 -19 -13.5 -32.5t-33.5 -13.5t-33 13.5z" />
    <glyph glyph-name="H" unicode="H" horiz-adv-x="693" 
d="M84.5 2q-5.5 2 -5.5 7v702q0 5 5.5 7t23.5 2h9q20 0 26 -1.5t6 -7.5v-318h395v318q0 5 5 7t23 2h10q20 0 26 -1.5t6 -7.5v-702q0 -6 -6 -7.5t-26 -1.5h-10q-18 0 -23 2t-5 7v327h-395v-327q0 -6 -6 -7.5t-26 -1.5h-9q-18 0 -23.5 2z" />
    <glyph glyph-name="Hbar" unicode="&#x126;" horiz-adv-x="703" 
d="M683.5 590q1.5 -4 1.5 -19v-3q0 -14 -1.5 -19.5t-6.5 -5.5h-58v-534q0 -6 -6 -7.5t-26 -1.5h-10q-18 0 -23 2t-5 7v327h-395v-327q0 -6 -6 -7.5t-26 -1.5h-9q-18 0 -23.5 2t-5.5 7v534h-58q-5 0 -6.5 5.5t-1.5 19.5v3q0 15 1.5 19t6.5 4h58v117q0 5 5.5 7t23.5 2h9
q20 0 26 -1.5t6 -7.5v-117h395v117q0 5 5 7t23 2h10q20 0 26 -1.5t6 -7.5v-117h58q5 0 6.5 -4zM549 543h-395v-150h395v150z" />
    <glyph glyph-name="Hcircumflex" unicode="&#x124;" horiz-adv-x="693" 
d="M84.5 2q-5.5 2 -5.5 7v702q0 5 5.5 7t23.5 2h9q20 0 26 -1.5t6 -7.5v-318h395v318q0 5 5 7t23 2h10q20 0 26 -1.5t6 -7.5v-702q0 -6 -6 -7.5t-26 -1.5h-10q-18 0 -23 2t-5 7v327h-395v-327q0 -6 -6 -7.5t-26 -1.5h-9q-18 0 -23.5 2zM226 781q-3 0 -11 8l-5 6q-5 6 -6 9.5
t2 6.5l94 100q6 6 13 8t21 2h26q14 0 21 -2t13 -8l94 -100q2 -2 2 -5t-6 -11l-5 -6q-5 -6 -8.5 -7.5t-7.5 1.5l-116 97l-116 -97q-4 -2 -5 -2z" />
    <glyph glyph-name="I" unicode="I" horiz-adv-x="240" 
d="M90.5 2q-5.5 2 -5.5 7v702q0 5 5.5 7t23.5 2h9q20 0 26 -1.5t6 -7.5v-702q0 -6 -6 -7.5t-26 -1.5h-9q-18 0 -23.5 2z" />
    <glyph glyph-name="IJ" unicode="&#x132;" horiz-adv-x="678" 
d="M90.5 2q-5.5 2 -5.5 7v702q0 5 5.5 7t23.5 2h9q20 0 26 -1.5t6 -7.5v-702q0 -6 -6 -7.5t-26 -1.5h-9q-18 0 -23.5 2zM339.5 1q-38.5 11 -68.5 31q-7 4 -7 10q0 4 6 16l5 10q6 11 10.5 14t11.5 -1q66 -33 116 -33q29 0 53.5 10t38.5 27q30 37 30 126v500q0 5 6.5 7t22.5 2
h8q17 0 24.5 -2t7.5 -7v-516q0 -53 -12 -90.5t-37 -64.5q-22 -24 -58 -37t-78 -13q-41 0 -79.5 11z" />
    <glyph glyph-name="Iacute" unicode="&#xcd;" horiz-adv-x="240" 
d="M90.5 2q-5.5 2 -5.5 7v702q0 5 5.5 7t23.5 2h9q20 0 26 -1.5t6 -7.5v-702q0 -6 -6 -7.5t-26 -1.5h-9q-18 0 -23.5 2zM59 785l67 118q3 6 10 8t26 2h15q17 0 21 -2.5t0 -7.5l-88 -119q-3 -4 -8 -5t-19 -1h-4q-24 0 -20 7z" />
    <glyph glyph-name="Iacute_J.loclNLD" horiz-adv-x="678" 
d="M90.5 2q-5.5 2 -5.5 7v702q0 5 5.5 7t23.5 2h9q20 0 26 -1.5t6 -7.5v-702q0 -6 -6 -7.5t-26 -1.5h-9q-18 0 -23.5 2zM59 785l67 118q3 6 10 8t26 2h15q17 0 21 -2.5t0 -7.5l-88 -119q-3 -4 -8 -5t-19 -1h-4q-24 0 -20 7zM339.5 1q-38.5 11 -68.5 31q-7 4 -7 10q0 4 6 16
l5 10q6 11 10.5 14t11.5 -1q66 -33 116 -33q29 0 53.5 10t38.5 27q30 37 30 126v500q0 5 6.5 7t22.5 2h8q17 0 24.5 -2t7.5 -7v-516q0 -53 -12 -90.5t-37 -64.5q-22 -24 -58 -37t-78 -13q-41 0 -79.5 11zM509 785l67 118q3 6 10 8t26 2h15q17 0 21 -2.5t0 -7.5l-88 -119
q-3 -4 -8 -5t-19 -1h-4q-24 0 -20 7z" />
    <glyph glyph-name="Ibreve" unicode="&#x12c;" horiz-adv-x="240" 
d="M90.5 2q-5.5 2 -5.5 7v702q0 5 5.5 7t23.5 2h9q20 0 26 -1.5t6 -7.5v-702q0 -6 -6 -7.5t-26 -1.5h-9q-18 0 -23.5 2zM21.5 825q-38.5 30 -38.5 81q0 3 3.5 4.5t15.5 1.5h12q13 0 15.5 -1.5t3.5 -8.5q4 -32 26 -49t60 -17t60 17t26 49q1 7 3.5 8.5t15.5 1.5h12
q12 0 15.5 -1.5t3.5 -4.5q0 -51 -38.5 -81t-97.5 -30t-97.5 30z" />
    <glyph glyph-name="Icircumflex" unicode="&#xce;" horiz-adv-x="240" 
d="M90.5 2q-5.5 2 -5.5 7v702q0 5 5.5 7t23.5 2h9q20 0 26 -1.5t6 -7.5v-702q0 -6 -6 -7.5t-26 -1.5h-9q-18 0 -23.5 2zM-2 781q-3 0 -11 8l-5 6q-5 6 -6 9.5t2 6.5l94 100q6 6 13 8t21 2h26q14 0 21 -2t13 -8l94 -100q2 -2 2 -5t-6 -11l-5 -6q-5 -6 -8.5 -7.5t-7.5 1.5
l-116 97l-116 -97q-4 -2 -5 -2z" />
    <glyph glyph-name="Idieresis" unicode="&#xcf;" horiz-adv-x="240" 
d="M90.5 2q-5.5 2 -5.5 7v702q0 5 5.5 7t23.5 2h9q20 0 26 -1.5t6 -7.5v-702q0 -6 -6 -7.5t-26 -1.5h-9q-18 0 -23.5 2zM-16.5 813q-13.5 14 -13.5 33q0 20 14 34t33 14t33.5 -14t14.5 -34q0 -19 -14 -33t-34 -14t-33.5 14zM185.5 813q-13.5 14 -13.5 33q0 20 14 34t33 14
t33.5 -14t14.5 -34q0 -19 -14 -33t-34 -14t-33.5 14z" />
    <glyph glyph-name="Idotaccent" unicode="&#x130;" horiz-adv-x="240" 
d="M90.5 2q-5.5 2 -5.5 7v702q0 5 5.5 7t23.5 2h9q20 0 26 -1.5t6 -7.5v-702q0 -6 -6 -7.5t-26 -1.5h-9q-18 0 -23.5 2zM85 807.5q-13 13.5 -13 32.5q0 20 13.5 33.5t32.5 13.5t33 -13.5t14 -33.5q0 -19 -13.5 -32.5t-33.5 -13.5t-33 13.5z" />
    <glyph glyph-name="Igrave" unicode="&#xcc;" horiz-adv-x="240" 
d="M90.5 2q-5.5 2 -5.5 7v702q0 5 5.5 7t23.5 2h9q20 0 26 -1.5t6 -7.5v-702q0 -6 -6 -7.5t-26 -1.5h-9q-18 0 -23.5 2zM136 779q-5 1 -8 5l-88 119q-2 4 -2 5q0 5 23 5h15q19 0 26 -2t10 -8l67 -118l1 -2q0 -5 -21 -5h-4q-14 0 -19 1z" />
    <glyph glyph-name="Imacron" unicode="&#x12a;" horiz-adv-x="240" 
d="M90.5 2q-5.5 2 -5.5 7v702q0 5 5.5 7t23.5 2h9q20 0 26 -1.5t6 -7.5v-702q0 -6 -6 -7.5t-26 -1.5h-9q-18 0 -23.5 2zM-18.5 828.5q-1.5 5.5 -1.5 19.5v3q0 15 1.5 19t6.5 4h262q5 0 6.5 -4t1.5 -19v-3q0 -14 -1.5 -19.5t-6.5 -5.5h-262q-5 0 -6.5 5.5z" />
    <glyph glyph-name="Iogonek" unicode="&#x12e;" horiz-adv-x="240" 
d="M48 -203q-29 26 -29 70q0 71 66 133v711q0 5 5.5 7t23.5 2h9q20 0 26 -1.5t6 -7.5v-693q0 -5 -1.5 -8.5t-7.5 -9.5q-35 -35 -52.5 -63.5t-17.5 -64.5q0 -27 15.5 -42t42.5 -15q15 0 49 9h2q4 0 8 -14l1 -5q1 -8 1 -12.5t-3 -5.5q-35 -16 -73 -16q-42 0 -71 26z" />
    <glyph glyph-name="Itilde" unicode="&#x128;" horiz-adv-x="240" 
d="M90.5 2q-5.5 2 -5.5 7v702q0 5 5.5 7t23.5 2h9q20 0 26 -1.5t6 -7.5v-702q0 -6 -6 -7.5t-26 -1.5h-9q-18 0 -23.5 2zM146.5 818q-15.5 5 -36.5 15q-18 9 -30.5 13.5t-26.5 4.5q-15 0 -28 -7t-30 -23q-1 -1 -4 -1q-6 0 -12 9l-8 10q-4 5 -4.5 8.5t2.5 7.5q14 18 39 31
t49 13q19 0 34.5 -5t36.5 -15q18 -9 30.5 -13.5t26.5 -4.5q15 0 28 7t30 23q1 1 4 1q6 0 12 -9l8 -10q4 -5 4.5 -8.5t-2.5 -7.5q-14 -18 -39 -31t-49 -13q-19 0 -34.5 5z" />
    <glyph glyph-name="J" unicode="J" horiz-adv-x="438" 
d="M99.5 1q-38.5 11 -68.5 31q-7 4 -7 10q0 4 6 16l5 10q6 11 10.5 14t11.5 -1q66 -33 116 -33q29 0 53.5 10t38.5 27q30 37 30 126v500q0 5 6.5 7t22.5 2h8q17 0 24.5 -2t7.5 -7v-516q0 -53 -12 -90.5t-37 -64.5q-22 -24 -58 -37t-78 -13q-41 0 -79.5 11z" />
    <glyph glyph-name="Jcircumflex" unicode="&#x134;" horiz-adv-x="438" 
d="M99.5 1q-38.5 11 -68.5 31q-7 4 -7 10q0 4 6 16l5 10q6 11 10.5 14t11.5 -1q66 -33 116 -33q29 0 53.5 10t38.5 27q30 37 30 126v500q0 5 6.5 7t22.5 2h8q17 0 24.5 -2t7.5 -7v-516q0 -53 -12 -90.5t-37 -64.5q-22 -24 -58 -37t-78 -13q-41 0 -79.5 11zM208 781
q-3 0 -11 8l-5 6q-5 6 -6 9.5t2 6.5l94 100q6 6 13 8t21 2h26q14 0 21 -2t13 -8l94 -100q2 -2 2 -5t-6 -11l-5 -6q-5 -6 -8.5 -7.5t-7.5 1.5l-116 97l-116 -97q-4 -2 -5 -2z" />
    <glyph glyph-name="K" unicode="K" horiz-adv-x="612" 
d="M84.5 2q-5.5 2 -5.5 7v702q0 5 5.5 7t23.5 2h9q20 0 26 -1.5t6 -7.5v-379l118 114q160 154 220 266q2 5 7 6.5t21 1.5h16q15 0 18.5 -2t1.5 -8q-27 -58 -88.5 -133.5t-147.5 -156.5l269 -407q2 -2 2 -6q0 -7 -25 -7h-17q-23 0 -29 1.5t-11 8.5l-236 364l-119 -111v-254
q0 -6 -6 -7.5t-26 -1.5h-9q-18 0 -23.5 2z" />
    <glyph glyph-name="Kcommaaccent" unicode="&#x136;" horiz-adv-x="612" 
d="M84.5 2q-5.5 2 -5.5 7v702q0 5 5.5 7t23.5 2h9q20 0 26 -1.5t6 -7.5v-379l118 114q160 154 220 266q2 5 7 6.5t21 1.5h16q15 0 18.5 -2t1.5 -8q-27 -58 -88.5 -133.5t-147.5 -156.5l269 -407q2 -2 2 -6q0 -7 -25 -7h-17q-23 0 -29 1.5t-11 8.5l-236 364l-119 -111v-254
q0 -6 -6 -7.5t-26 -1.5h-9q-18 0 -23.5 2zM286 -276q-3 0 -9 6l-5 5q-4 4 -4 7t3 6q20 21 34.5 44.5t14.5 42.5q0 12 -4.5 20.5t-13.5 18.5q-8 9 -12 16.5t-4 18.5q0 17 12 27.5t29 10.5q22 0 35.5 -15.5t13.5 -38.5q0 -47 -22.5 -91t-62.5 -76q-4 -2 -5 -2z" />
    <glyph glyph-name="L" unicode="L" horiz-adv-x="522" 
d="M84 2q-5 2 -5 9v700q0 5 5.5 7t23.5 2h9q20 0 26 -1.5t6 -7.5v-654h328q5 0 7 -5t2 -21v-4q0 -16 -2 -21.5t-7 -5.5h-370q-18 0 -23 2z" />
    <glyph glyph-name="Lacute" unicode="&#x139;" horiz-adv-x="522" 
d="M84 2q-5 2 -5 9v700q0 5 5.5 7t23.5 2h9q20 0 26 -1.5t6 -7.5v-654h328q5 0 7 -5t2 -21v-4q0 -16 -2 -21.5t-7 -5.5h-370q-18 0 -23 2zM74 785l67 118q3 6 10 8t26 2h15q17 0 21 -2.5t0 -7.5l-88 -119q-3 -4 -8 -5t-19 -1h-4q-24 0 -20 7z" />
    <glyph glyph-name="Lcaron" unicode="&#x13d;" horiz-adv-x="522" 
d="M84 2q-5 2 -5 9v700q0 5 5.5 7t23.5 2h9q20 0 26 -1.5t6 -7.5v-654h328q5 0 7 -5t2 -21v-4q0 -16 -2 -21.5t-7 -5.5h-370q-18 0 -23 2zM251 517q-3 0 -9 6l-5 5q-4 4 -4 7t3 6q20 21 34.5 44.5t14.5 42.5q0 12 -4.5 20.5t-13.5 18.5q-8 9 -12 16.5t-4 18.5q0 17 12 27.5
t29 10.5q22 0 35.5 -15.5t13.5 -38.5q0 -47 -22.5 -91t-62.5 -76q-4 -2 -5 -2z" />
    <glyph glyph-name="Lcommaaccent" unicode="&#x13b;" horiz-adv-x="522" 
d="M84 2q-5 2 -5 9v700q0 5 5.5 7t23.5 2h9q20 0 26 -1.5t6 -7.5v-654h328q5 0 7 -5t2 -21v-4q0 -16 -2 -21.5t-7 -5.5h-370q-18 0 -23 2zM245 -276q-3 0 -9 6l-5 5q-4 4 -4 7t3 6q20 21 34.5 44.5t14.5 42.5q0 12 -4.5 20.5t-13.5 18.5q-8 9 -12 16.5t-4 18.5q0 17 12 27.5
t29 10.5q22 0 35.5 -15.5t13.5 -38.5q0 -47 -22.5 -91t-62.5 -76q-4 -2 -5 -2z" />
    <glyph glyph-name="Ldot" unicode="&#x13f;" horiz-adv-x="522" 
d="M84 2q-5 2 -5 9v700q0 5 5.5 7t23.5 2h9q20 0 26 -1.5t6 -7.5v-654h328q5 0 7 -5t2 -21v-4q0 -16 -2 -21.5t-7 -5.5h-370q-18 0 -23 2zM324 330.5q-13 13.5 -13 32.5q0 20 13.5 33.5t32.5 13.5t33 -13.5t14 -33.5q0 -19 -13.5 -32.5t-33.5 -13.5t-33 13.5z" />
    <glyph glyph-name="Lslash" unicode="&#x141;" horiz-adv-x="525" 
d="M487 52q2 -5 2 -21v-4q0 -16 -2 -21.5t-7 -5.5h-370q-18 0 -23 2t-5 9v266l-56 -43q-3 -3 -6 -3q-6 0 -6 17v18q0 12 1.5 16.5t6.5 8.5l60 47v373q0 5 5.5 7t23.5 2h9q20 0 26 -1.5t6 -7.5v-319l124 96l6 3q6 0 6 -18v-16q0 -12 -1.5 -17t-6.5 -9l-128 -99v-275h328
q5 0 7 -5z" />
    <glyph glyph-name="M" unicode="M" horiz-adv-x="806" 
d="M84 2q-5 2 -5 7v701q0 6 6.5 8t32.5 2h3q21 0 28 -2t10 -8l164 -333q44 -90 84 -181q47 112 80 181l157 333q3 6 10 8t31 2h6q23 0 29.5 -2t6.5 -8v-701q0 -6 -6 -7.5t-26 -1.5h-6q-18 0 -23 2t-5 7v363q0 183 2 242q-54 -128 -85 -191l-142 -289q-2 -6 -7.5 -7.5
t-22.5 -1.5h-3q-17 0 -23 2t-8 7l-144 289q-28 57 -48.5 103t-37.5 87q3 -97 3 -243v-361q0 -6 -6 -7.5t-26 -1.5h-6q-18 0 -23 2z" />
    <glyph glyph-name="N" unicode="N" horiz-adv-x="721" 
d="M83.5 1.5q-4.5 1.5 -4.5 7.5v702q0 6 5 7.5t24 1.5h8q27 0 35 -1.5t12 -8.5l273 -407l144 -215v623q0 6 4.5 7.5t21.5 1.5h8q18 0 23 -1.5t5 -7.5v-702q0 -6 -5 -7.5t-24 -1.5h-8q-26 0 -34 1.5t-12 8.5l-272 407l-146 217v-625q0 -6 -4.5 -7.5t-23.5 -1.5h-7
q-18 0 -22.5 1.5z" />
    <glyph glyph-name="Nacute" unicode="&#x143;" horiz-adv-x="721" 
d="M83.5 1.5q-4.5 1.5 -4.5 7.5v702q0 6 5 7.5t24 1.5h8q27 0 35 -1.5t12 -8.5l273 -407l144 -215v623q0 6 4.5 7.5t21.5 1.5h8q18 0 23 -1.5t5 -7.5v-702q0 -6 -5 -7.5t-24 -1.5h-8q-26 0 -34 1.5t-12 8.5l-272 407l-146 217v-625q0 -6 -4.5 -7.5t-23.5 -1.5h-7
q-18 0 -22.5 1.5zM312 785l67 118q3 6 10 8t26 2h15q17 0 21 -2.5t0 -7.5l-88 -119q-3 -4 -8 -5t-19 -1h-4q-24 0 -20 7z" />
    <glyph glyph-name="Nacute.loclPLK" horiz-adv-x="721" 
d="M83.5 1.5q-4.5 1.5 -4.5 7.5v702q0 6 5 7.5t24 1.5h8q27 0 35 -1.5t12 -8.5l273 -407l144 -215v623q0 6 4.5 7.5t21.5 1.5h8q18 0 23 -1.5t5 -7.5v-702q0 -6 -5 -7.5t-24 -1.5h-8q-26 0 -34 1.5t-12 8.5l-272 407l-146 217v-625q0 -6 -4.5 -7.5t-23.5 -1.5h-7
q-18 0 -22.5 1.5zM338 780q-4 2 -3 7l26 115q2 7 7 9t24 2h11q18 0 23 -2t3 -8l-45 -117q-2 -5 -6 -6.5t-19 -1.5h-3q-14 0 -18 2z" />
    <glyph glyph-name="Ncaron" unicode="&#x147;" horiz-adv-x="721" 
d="M83.5 1.5q-4.5 1.5 -4.5 7.5v702q0 6 5 7.5t24 1.5h8q27 0 35 -1.5t12 -8.5l273 -407l144 -215v623q0 6 4.5 7.5t21.5 1.5h8q18 0 23 -1.5t5 -7.5v-702q0 -6 -5 -7.5t-24 -1.5h-8q-26 0 -34 1.5t-12 8.5l-272 407l-146 217v-625q0 -6 -4.5 -7.5t-23.5 -1.5h-7
q-18 0 -22.5 1.5zM338 790q-7 2 -13 8l-94 100q-3 3 -3 5q0 4 7 11l5 6q6 7 9 8t7 -2l116 -97l116 97q4 2 5 2q4 0 11 -8l5 -6q6 -7 6.5 -9.5t-2.5 -6.5l-94 -100q-6 -6 -13 -8t-21 -2h-26q-14 0 -21 2z" />
    <glyph glyph-name="Ncommaaccent" unicode="&#x145;" horiz-adv-x="721" 
d="M83.5 1.5q-4.5 1.5 -4.5 7.5v702q0 6 5 7.5t24 1.5h8q27 0 35 -1.5t12 -8.5l273 -407l144 -215v623q0 6 4.5 7.5t21.5 1.5h8q18 0 23 -1.5t5 -7.5v-702q0 -6 -5 -7.5t-24 -1.5h-8q-26 0 -34 1.5t-12 8.5l-272 407l-146 217v-625q0 -6 -4.5 -7.5t-23.5 -1.5h-7
q-18 0 -22.5 1.5zM325 -276q-3 0 -9 6l-5 5q-4 4 -4 7t3 6q20 21 34.5 44.5t14.5 42.5q0 12 -4.5 20.5t-13.5 18.5q-8 9 -12 16.5t-4 18.5q0 17 12 27.5t29 10.5q22 0 35.5 -15.5t13.5 -38.5q0 -47 -22.5 -91t-62.5 -76q-4 -2 -5 -2z" />
    <glyph glyph-name="Eng" unicode="&#x14a;" horiz-adv-x="721" 
d="M398 -184q-4 1 -4 10q0 8 1 14l1 6q2 15 4 18.5t7 2.5q25 -7 50 -7q56 0 84.5 29t35.5 95l-290 433l-146 217v-625q0 -6 -4.5 -7.5t-23.5 -1.5h-7q-18 0 -22.5 1.5t-4.5 7.5v702q0 6 5 7.5t24 1.5h8q27 0 35 -1.5t12 -8.5l273 -407l144 -215v623q0 6 4.5 7.5t21.5 1.5h8
q18 0 23 -1.5t5 -7.5v-670q0 -125 -44.5 -180.5t-134.5 -55.5q-37 0 -65 11z" />
    <glyph glyph-name="Ntilde" unicode="&#xd1;" horiz-adv-x="721" 
d="M83.5 1.5q-4.5 1.5 -4.5 7.5v702q0 6 5 7.5t24 1.5h8q27 0 35 -1.5t12 -8.5l273 -407l144 -215v623q0 6 4.5 7.5t21.5 1.5h8q18 0 23 -1.5t5 -7.5v-702q0 -6 -5 -7.5t-24 -1.5h-8q-26 0 -34 1.5t-12 8.5l-272 407l-146 217v-625q0 -6 -4.5 -7.5t-23.5 -1.5h-7
q-18 0 -22.5 1.5zM399.5 818q-15.5 5 -36.5 15q-18 9 -30.5 13.5t-26.5 4.5q-15 0 -28 -7t-30 -23q-1 -1 -4 -1q-6 0 -12 9l-8 10q-4 5 -4.5 8.5t2.5 7.5q14 18 39 31t49 13q19 0 34.5 -5t36.5 -15q18 -9 30.5 -13.5t26.5 -4.5q15 0 28 7t30 23q1 1 4 1q6 0 12 -9l8 -10
q4 -5 4.5 -8.5t-2.5 -7.5q-14 -18 -39 -31t-49 -13q-19 0 -34.5 5z" />
    <glyph glyph-name="O" unicode="O" horiz-adv-x="742" 
d="M192 33q-71 43 -109 124t-38 193q0 116 41 201.5t117 132t179 46.5q98 0 169.5 -42.5t109 -123.5t37.5 -193q0 -116 -41 -202t-117 -132.5t-179 -46.5q-98 0 -169 43zM503 87q59 38 90 110t31 170q0 146 -64 225t-182 79q-122 0 -191 -84t-69 -233q0 -146 64.5 -225.5
t181.5 -79.5q80 0 139 38z" />
    <glyph glyph-name="Oacute" unicode="&#xd3;" horiz-adv-x="742" 
d="M192 33q-71 43 -109 124t-38 193q0 116 41 201.5t117 132t179 46.5q98 0 169.5 -42.5t109 -123.5t37.5 -193q0 -116 -41 -202t-117 -132.5t-179 -46.5q-98 0 -169 43zM503 87q59 38 90 110t31 170q0 146 -64 225t-182 79q-122 0 -191 -84t-69 -233q0 -146 64.5 -225.5
t181.5 -79.5q80 0 139 38zM323 785l67 118q3 6 10 8t26 2h15q17 0 21 -2.5t0 -7.5l-88 -119q-3 -4 -8 -5t-19 -1h-4q-24 0 -20 7z" />
    <glyph glyph-name="Oacute.loclPLK" horiz-adv-x="742" 
d="M192 33q-71 43 -109 124t-38 193q0 116 41 201.5t117 132t179 46.5q98 0 169.5 -42.5t109 -123.5t37.5 -193q0 -116 -41 -202t-117 -132.5t-179 -46.5q-98 0 -169 43zM503 87q59 38 90 110t31 170q0 146 -64 225t-182 79q-122 0 -191 -84t-69 -233q0 -146 64.5 -225.5
t181.5 -79.5q80 0 139 38zM349 780q-4 2 -3 7l26 115q2 7 7 9t24 2h11q18 0 23 -2t3 -8l-45 -117q-2 -5 -6 -6.5t-19 -1.5h-3q-14 0 -18 2z" />
    <glyph glyph-name="Obreve" unicode="&#x14e;" horiz-adv-x="742" 
d="M192 33q-71 43 -109 124t-38 193q0 116 41 201.5t117 132t179 46.5q98 0 169.5 -42.5t109 -123.5t37.5 -193q0 -116 -41 -202t-117 -132.5t-179 -46.5q-98 0 -169 43zM503 87q59 38 90 110t31 170q0 146 -64 225t-182 79q-122 0 -191 -84t-69 -233q0 -146 64.5 -225.5
t181.5 -79.5q80 0 139 38zM285.5 825q-38.5 30 -38.5 81q0 3 3.5 4.5t15.5 1.5h12q13 0 15.5 -1.5t3.5 -8.5q4 -32 26 -49t60 -17t60 17t26 49q1 7 3.5 8.5t15.5 1.5h12q12 0 15.5 -1.5t3.5 -4.5q0 -51 -38.5 -81t-97.5 -30t-97.5 30z" />
    <glyph glyph-name="Ocircumflex" unicode="&#xd4;" horiz-adv-x="742" 
d="M192 33q-71 43 -109 124t-38 193q0 116 41 201.5t117 132t179 46.5q98 0 169.5 -42.5t109 -123.5t37.5 -193q0 -116 -41 -202t-117 -132.5t-179 -46.5q-98 0 -169 43zM503 87q59 38 90 110t31 170q0 146 -64 225t-182 79q-122 0 -191 -84t-69 -233q0 -146 64.5 -225.5
t181.5 -79.5q80 0 139 38zM262 781q-3 0 -11 8l-5 6q-5 6 -6 9.5t2 6.5l94 100q6 6 13 8t21 2h26q14 0 21 -2t13 -8l94 -100q2 -2 2 -5t-6 -11l-5 -6q-5 -6 -8.5 -7.5t-7.5 1.5l-116 97l-116 -97q-4 -2 -5 -2z" />
    <glyph glyph-name="Odieresis" unicode="&#xd6;" horiz-adv-x="742" 
d="M192 33q-71 43 -109 124t-38 193q0 116 41 201.5t117 132t179 46.5q98 0 169.5 -42.5t109 -123.5t37.5 -193q0 -116 -41 -202t-117 -132.5t-179 -46.5q-98 0 -169 43zM503 87q59 38 90 110t31 170q0 146 -64 225t-182 79q-122 0 -191 -84t-69 -233q0 -146 64.5 -225.5
t181.5 -79.5q80 0 139 38zM247.5 813q-13.5 14 -13.5 33q0 20 14 34t33 14t33.5 -14t14.5 -34q0 -19 -14 -33t-34 -14t-33.5 14zM449.5 813q-13.5 14 -13.5 33q0 20 14 34t33 14t33.5 -14t14.5 -34q0 -19 -14 -33t-34 -14t-33.5 14z" />
    <glyph glyph-name="Ograve" unicode="&#xd2;" horiz-adv-x="742" 
d="M192 33q-71 43 -109 124t-38 193q0 116 41 201.5t117 132t179 46.5q98 0 169.5 -42.5t109 -123.5t37.5 -193q0 -116 -41 -202t-117 -132.5t-179 -46.5q-98 0 -169 43zM503 87q59 38 90 110t31 170q0 146 -64 225t-182 79q-122 0 -191 -84t-69 -233q0 -146 64.5 -225.5
t181.5 -79.5q80 0 139 38zM400 779q-5 1 -8 5l-88 119q-2 4 -2 5q0 5 23 5h15q19 0 26 -2t10 -8l67 -118l1 -2q0 -5 -21 -5h-4q-14 0 -19 1z" />
    <glyph glyph-name="Ohungarumlaut" unicode="&#x150;" horiz-adv-x="742" 
d="M192 33q-71 43 -109 124t-38 193q0 116 41 201.5t117 132t179 46.5q98 0 169.5 -42.5t109 -123.5t37.5 -193q0 -116 -41 -202t-117 -132.5t-179 -46.5q-98 0 -169 43zM503 87q59 38 90 110t31 170q0 146 -64 225t-182 79q-122 0 -191 -84t-69 -233q0 -146 64.5 -225.5
t181.5 -79.5q80 0 139 38zM254 785l67 118q3 6 10 8t26 2h15q17 0 21 -2.5t0 -7.5l-88 -119q-3 -4 -8 -5t-19 -1h-4q-24 0 -20 7zM411 785l67 118q3 6 10 8t26 2h15q17 0 21 -2.5t0 -7.5l-88 -119q-3 -4 -8 -5t-19 -1h-4q-24 0 -20 7z" />
    <glyph glyph-name="Omacron" unicode="&#x14c;" horiz-adv-x="742" 
d="M192 33q-71 43 -109 124t-38 193q0 116 41 201.5t117 132t179 46.5q98 0 169.5 -42.5t109 -123.5t37.5 -193q0 -116 -41 -202t-117 -132.5t-179 -46.5q-98 0 -169 43zM503 87q59 38 90 110t31 170q0 146 -64 225t-182 79q-122 0 -191 -84t-69 -233q0 -146 64.5 -225.5
t181.5 -79.5q80 0 139 38zM245.5 828.5q-1.5 5.5 -1.5 19.5v3q0 15 1.5 19t6.5 4h262q5 0 6.5 -4t1.5 -19v-3q0 -14 -1.5 -19.5t-6.5 -5.5h-262q-5 0 -6.5 5.5z" />
    <glyph glyph-name="Oslash" unicode="&#xd8;" horiz-adv-x="742" 
d="M674 529.5q24 -69.5 24 -158.5q0 -116 -41 -202t-117 -132.5t-179 -46.5q-111 0 -187 55l-57 -80q-3 -4 -7 -4q-7 0 -19 9l-12 9q-11 9 -13.5 13.5t0.5 9.5l61 85q-82 96 -82 263q0 116 41 201.5t117 132t179 46.5q100 0 173 -45l52 72q3 4 7 4q7 0 19 -9l12 -9
q11 -9 13.5 -13.5t-0.5 -9.5l-53 -74q45 -47 69 -116.5zM169 146l348 486q-58 39 -139 39q-122 0 -191 -84t-69 -233q0 -129 51 -208zM503 87q59 38 90 110t31 170q0 142 -61 221l-351 -490q61 -49 152 -49q80 0 139 38z" />
    <glyph glyph-name="Oslashacute" unicode="&#x1fe;" horiz-adv-x="742" 
d="M674 529.5q24 -69.5 24 -158.5q0 -116 -41 -202t-117 -132.5t-179 -46.5q-111 0 -187 55l-57 -80q-3 -4 -7 -4q-7 0 -19 9l-12 9q-11 9 -13.5 13.5t0.5 9.5l61 85q-82 96 -82 263q0 116 41 201.5t117 132t179 46.5q100 0 173 -45l52 72q3 4 7 4q7 0 19 -9l12 -9
q11 -9 13.5 -13.5t-0.5 -9.5l-53 -74q45 -47 69 -116.5zM169 146l348 486q-58 39 -139 39q-122 0 -191 -84t-69 -233q0 -129 51 -208zM503 87q59 38 90 110t31 170q0 142 -61 221l-351 -490q61 -49 152 -49q80 0 139 38zM311 785l67 118q3 6 10 8t26 2h15q17 0 21 -2.5
t0 -7.5l-88 -119q-3 -4 -8 -5t-19 -1h-4q-24 0 -20 7z" />
    <glyph glyph-name="Otilde" unicode="&#xd5;" horiz-adv-x="742" 
d="M192 33q-71 43 -109 124t-38 193q0 116 41 201.5t117 132t179 46.5q98 0 169.5 -42.5t109 -123.5t37.5 -193q0 -116 -41 -202t-117 -132.5t-179 -46.5q-98 0 -169 43zM503 87q59 38 90 110t31 170q0 146 -64 225t-182 79q-122 0 -191 -84t-69 -233q0 -146 64.5 -225.5
t181.5 -79.5q80 0 139 38zM410.5 818q-15.5 5 -36.5 15q-18 9 -30.5 13.5t-26.5 4.5q-15 0 -28 -7t-30 -23q-1 -1 -4 -1q-6 0 -12 9l-8 10q-4 5 -4.5 8.5t2.5 7.5q14 18 39 31t49 13q19 0 34.5 -5t36.5 -15q18 -9 30.5 -13.5t26.5 -4.5q15 0 28 7t30 23q1 1 4 1q6 0 12 -9
l8 -10q4 -5 4.5 -8.5t-2.5 -7.5q-14 -18 -39 -31t-49 -13q-19 0 -34.5 5z" />
    <glyph glyph-name="OE" unicode="&#x152;" horiz-adv-x="1007" 
d="M145 72q-100 94 -100 273q0 177 90 280q45 52 110 78.5t145 26.5q23 0 50 -2t37 -3q43 -5 75 -5h388q5 0 7 -5t2 -21v-4q0 -16 -2 -21.5t-7 -5.5h-350v-270h297q5 0 7 -5t2 -21v-4q0 -16 -2 -21.5t-7 -5.5h-297v-279h354q5 0 7 -5t2 -21v-4q0 -16 -2 -21.5t-7 -5.5h-385
q-23 0 -51.5 -2t-39.5 -3q-48 -5 -85 -5q-153 0 -238 82zM437 50q28 2 40 3q13 2 43 4v606q-99 9 -127 9q-139 0 -211 -93q-65 -86 -65 -227q0 -149 73 -227q71 -77 199 -77q20 0 48 2z" />
    <glyph glyph-name="P" unicode="P" horiz-adv-x="565" 
d="M84.5 2q-5.5 2 -5.5 7v711h163q141 0 218 -49.5t77 -163.5q0 -110 -70.5 -169t-193.5 -59q-50 0 -124 9v-279q0 -6 -6 -7.5t-26 -1.5h-9q-18 0 -23.5 2zM465 502q0 90 -58 126t-168 36h-90v-321q57 -8 111 -8q205 0 205 167z" />
    <glyph glyph-name="Thorn" unicode="&#xde;" horiz-adv-x="575" 
d="M84.5 2q-5.5 2 -5.5 7v702q0 5 5.5 7t23.5 2h9q20 0 26 -1.5t6 -7.5v-152q66 10 129 10q127 0 193 -50t66 -145q0 -96 -66.5 -147.5t-192.5 -51.5q-62 0 -129 10v-176q0 -6 -6 -7.5t-26 -1.5h-9q-18 0 -23.5 2zM465 373q0 140 -190 140q-54 0 -126 -9v-264q64 -9 126 -9
q190 0 190 142z" />
    <glyph glyph-name="Q" unicode="Q" horiz-adv-x="742" 
d="M383 -23q-9 8 -16.5 10t-28.5 4q-138 8 -215.5 102.5t-77.5 256.5q0 116 41 201.5t117 132t179 46.5q98 0 169.5 -42.5t109 -123.5t37.5 -193q0 -151 -68.5 -249.5t-189.5 -123.5q23 -14 57 -43l86 -77q4 -3 4 -6q0 -4 -12 -16l-11 -11q-11 -11 -16 -11q-4 0 -8 4z
M503 87q59 38 90 110t31 170q0 146 -64 225t-182 79q-122 0 -191 -84t-69 -233q0 -146 64.5 -225.5t181.5 -79.5q80 0 139 38z" />
    <glyph glyph-name="R" unicode="R" horiz-adv-x="589" 
d="M527 0h-9q-22 0 -30 2t-12 9l-121 204q-24 42 -41 60t-39.5 24t-68.5 6h-57v-296q0 -6 -6 -7.5t-26 -1.5h-9q-18 0 -23.5 2t-5.5 7v711h176q141 0 214 -46t73 -151q0 -84 -47.5 -136t-134.5 -75q15 -10 28.5 -28t36.5 -56l130 -215q9 -13 -28 -13zM268 359q200 0 200 160
q0 79 -50.5 112.5t-157.5 33.5h-111v-306h119z" />
    <glyph glyph-name="Racute" unicode="&#x154;" horiz-adv-x="589" 
d="M527 0h-9q-22 0 -30 2t-12 9l-121 204q-24 42 -41 60t-39.5 24t-68.5 6h-57v-296q0 -6 -6 -7.5t-26 -1.5h-9q-18 0 -23.5 2t-5.5 7v711h176q141 0 214 -46t73 -151q0 -84 -47.5 -136t-134.5 -75q15 -10 28.5 -28t36.5 -56l130 -215q9 -13 -28 -13zM268 359q200 0 200 160
q0 79 -50.5 112.5t-157.5 33.5h-111v-306h119zM253 785l67 118q3 6 10 8t26 2h15q17 0 21 -2.5t0 -7.5l-88 -119q-3 -4 -8 -5t-19 -1h-4q-24 0 -20 7z" />
    <glyph glyph-name="Rcaron" unicode="&#x158;" horiz-adv-x="589" 
d="M527 0h-9q-22 0 -30 2t-12 9l-121 204q-24 42 -41 60t-39.5 24t-68.5 6h-57v-296q0 -6 -6 -7.5t-26 -1.5h-9q-18 0 -23.5 2t-5.5 7v711h176q141 0 214 -46t73 -151q0 -84 -47.5 -136t-134.5 -75q15 -10 28.5 -28t36.5 -56l130 -215q9 -13 -28 -13zM268 359q200 0 200 160
q0 79 -50.5 112.5t-157.5 33.5h-111v-306h119zM279 790q-7 2 -13 8l-94 100q-3 3 -3 5q0 4 7 11l5 6q6 7 9 8t7 -2l116 -97l116 97q4 2 5 2q4 0 11 -8l5 -6q6 -7 6.5 -9.5t-2.5 -6.5l-94 -100q-6 -6 -13 -8t-21 -2h-26q-14 0 -21 2z" />
    <glyph glyph-name="Rcommaaccent" unicode="&#x156;" horiz-adv-x="589" 
d="M527 0h-9q-22 0 -30 2t-12 9l-121 204q-24 42 -41 60t-39.5 24t-68.5 6h-57v-296q0 -6 -6 -7.5t-26 -1.5h-9q-18 0 -23.5 2t-5.5 7v711h176q141 0 214 -46t73 -151q0 -84 -47.5 -136t-134.5 -75q15 -10 28.5 -28t36.5 -56l130 -215q9 -13 -28 -13zM268 359q200 0 200 160
q0 79 -50.5 112.5t-157.5 33.5h-111v-306h119zM270 -276q-3 0 -9 6l-5 5q-4 4 -4 7t3 6q20 21 34.5 44.5t14.5 42.5q0 12 -4.5 20.5t-13.5 18.5q-8 9 -12 16.5t-4 18.5q0 17 12 27.5t29 10.5q22 0 35.5 -15.5t13.5 -38.5q0 -47 -22.5 -91t-62.5 -76q-4 -2 -5 -2z" />
    <glyph glyph-name="S" unicode="S" horiz-adv-x="553" 
d="M142.5 5.5q-57.5 15.5 -95.5 41.5q-5 3 -5 8q0 6 9 21l3 5q8 12 12 15.5t9 0.5q41 -24 87 -37t91 -13q54 0 96 17.5t65.5 48t23.5 69.5q0 37 -22.5 65.5t-59 49.5t-100.5 51t-102.5 56.5t-59.5 60.5t-21 81q0 56 30.5 97.5t81 64t110.5 22.5q47 0 95 -13t85 -36
q5 -3 5 -7q0 -5 -8 -19l-3 -5q-7 -13 -11.5 -16t-9.5 0q-78 39 -149 39q-68 0 -112.5 -33t-44.5 -87q0 -37 22 -64.5t54 -47t84 -44.5q69 -32 110.5 -58t68 -63.5t26.5 -89.5q0 -57 -31 -101.5t-87.5 -69.5t-129.5 -25q-59 0 -116.5 15.5z" />
    <glyph glyph-name="Sacute" unicode="&#x15a;" horiz-adv-x="553" 
d="M142.5 5.5q-57.5 15.5 -95.5 41.5q-5 3 -5 8q0 6 9 21l3 5q8 12 12 15.5t9 0.5q41 -24 87 -37t91 -13q54 0 96 17.5t65.5 48t23.5 69.5q0 37 -22.5 65.5t-59 49.5t-100.5 51t-102.5 56.5t-59.5 60.5t-21 81q0 56 30.5 97.5t81 64t110.5 22.5q47 0 95 -13t85 -36
q5 -3 5 -7q0 -5 -8 -19l-3 -5q-7 -13 -11.5 -16t-9.5 0q-78 39 -149 39q-68 0 -112.5 -33t-44.5 -87q0 -37 22 -64.5t54 -47t84 -44.5q69 -32 110.5 -58t68 -63.5t26.5 -89.5q0 -57 -31 -101.5t-87.5 -69.5t-129.5 -25q-59 0 -116.5 15.5zM236 785l67 118q3 6 10 8t26 2h15
q17 0 21 -2.5t0 -7.5l-88 -119q-3 -4 -8 -5t-19 -1h-4q-24 0 -20 7z" />
    <glyph glyph-name="Sacute.loclPLK" horiz-adv-x="553" 
d="M142.5 5.5q-57.5 15.5 -95.5 41.5q-5 3 -5 8q0 6 9 21l3 5q8 12 12 15.5t9 0.5q41 -24 87 -37t91 -13q54 0 96 17.5t65.5 48t23.5 69.5q0 37 -22.5 65.5t-59 49.5t-100.5 51t-102.5 56.5t-59.5 60.5t-21 81q0 56 30.5 97.5t81 64t110.5 22.5q47 0 95 -13t85 -36
q5 -3 5 -7q0 -5 -8 -19l-3 -5q-7 -13 -11.5 -16t-9.5 0q-78 39 -149 39q-68 0 -112.5 -33t-44.5 -87q0 -37 22 -64.5t54 -47t84 -44.5q69 -32 110.5 -58t68 -63.5t26.5 -89.5q0 -57 -31 -101.5t-87.5 -69.5t-129.5 -25q-59 0 -116.5 15.5zM262 780q-4 2 -3 7l26 115q2 7 7 9
t24 2h11q18 0 23 -2t3 -8l-45 -117q-2 -5 -6 -6.5t-19 -1.5h-3q-14 0 -18 2z" />
    <glyph glyph-name="Scaron" unicode="&#x160;" horiz-adv-x="553" 
d="M142.5 5.5q-57.5 15.5 -95.5 41.5q-5 3 -5 8q0 6 9 21l3 5q8 12 12 15.5t9 0.5q41 -24 87 -37t91 -13q54 0 96 17.5t65.5 48t23.5 69.5q0 37 -22.5 65.5t-59 49.5t-100.5 51t-102.5 56.5t-59.5 60.5t-21 81q0 56 30.5 97.5t81 64t110.5 22.5q47 0 95 -13t85 -36
q5 -3 5 -7q0 -5 -8 -19l-3 -5q-7 -13 -11.5 -16t-9.5 0q-78 39 -149 39q-68 0 -112.5 -33t-44.5 -87q0 -37 22 -64.5t54 -47t84 -44.5q69 -32 110.5 -58t68 -63.5t26.5 -89.5q0 -57 -31 -101.5t-87.5 -69.5t-129.5 -25q-59 0 -116.5 15.5zM262 790q-7 2 -13 8l-94 100
q-3 3 -3 5q0 4 7 11l5 6q6 7 9 8t7 -2l116 -97l116 97q4 2 5 2q4 0 11 -8l5 -6q6 -7 6.5 -9.5t-2.5 -6.5l-94 -100q-6 -6 -13 -8t-21 -2h-26q-14 0 -21 2z" />
    <glyph glyph-name="Scedilla" unicode="&#x15e;" horiz-adv-x="553" 
d="M447.5 52q-59.5 -53 -157.5 -61l-8 -57q18 2 27 2q40 0 65 -21.5t25 -56.5q0 -38 -28 -64t-82 -26q-20 0 -41 3.5t-31 8.5q-3 1 -3 7t1 11l1 5q2 10 4 12.5t6 1.5q32 -7 55 -7q62 0 62 44q0 43 -61 43q-30 0 -53 -5l13 98q-55 2 -107.5 17.5t-87.5 39.5q-5 3 -5 8
q0 6 9 21l3 5q8 12 12 15.5t9 0.5q41 -24 87 -37t91 -13q54 0 96 17.5t65.5 48t23.5 69.5q0 37 -22.5 65.5t-59 49.5t-100.5 51t-102.5 56.5t-59.5 60.5t-21 81q0 56 30.5 97.5t81 64t110.5 22.5q47 0 95 -13t85 -36q5 -3 5 -7q0 -5 -8 -19l-3 -5q-7 -13 -11.5 -16t-9.5 0
q-78 39 -149 39q-68 0 -112.5 -33t-44.5 -87q0 -37 22 -64.5t54 -47t84 -44.5q69 -32 110.5 -58t68 -63.5t26.5 -89.5q0 -81 -59.5 -134z" />
    <glyph glyph-name="Scircumflex" unicode="&#x15c;" horiz-adv-x="553" 
d="M142.5 5.5q-57.5 15.5 -95.5 41.5q-5 3 -5 8q0 6 9 21l3 5q8 12 12 15.5t9 0.5q41 -24 87 -37t91 -13q54 0 96 17.5t65.5 48t23.5 69.5q0 37 -22.5 65.5t-59 49.5t-100.5 51t-102.5 56.5t-59.5 60.5t-21 81q0 56 30.5 97.5t81 64t110.5 22.5q47 0 95 -13t85 -36
q5 -3 5 -7q0 -5 -8 -19l-3 -5q-7 -13 -11.5 -16t-9.5 0q-78 39 -149 39q-68 0 -112.5 -33t-44.5 -87q0 -37 22 -64.5t54 -47t84 -44.5q69 -32 110.5 -58t68 -63.5t26.5 -89.5q0 -57 -31 -101.5t-87.5 -69.5t-129.5 -25q-59 0 -116.5 15.5zM175 781q-3 0 -11 8l-5 6
q-5 6 -6 9.5t2 6.5l94 100q6 6 13 8t21 2h26q14 0 21 -2t13 -8l94 -100q2 -2 2 -5t-6 -11l-5 -6q-5 -6 -8.5 -7.5t-7.5 1.5l-116 97l-116 -97q-4 -2 -5 -2z" />
    <glyph glyph-name="Scommaaccent" unicode="&#x218;" horiz-adv-x="553" 
d="M142.5 5.5q-57.5 15.5 -95.5 41.5q-5 3 -5 8q0 6 9 21l3 5q8 12 12 15.5t9 0.5q41 -24 87 -37t91 -13q54 0 96 17.5t65.5 48t23.5 69.5q0 37 -22.5 65.5t-59 49.5t-100.5 51t-102.5 56.5t-59.5 60.5t-21 81q0 56 30.5 97.5t81 64t110.5 22.5q47 0 95 -13t85 -36
q5 -3 5 -7q0 -5 -8 -19l-3 -5q-7 -13 -11.5 -16t-9.5 0q-78 39 -149 39q-68 0 -112.5 -33t-44.5 -87q0 -37 22 -64.5t54 -47t84 -44.5q69 -32 110.5 -58t68 -63.5t26.5 -89.5q0 -57 -31 -101.5t-87.5 -69.5t-129.5 -25q-59 0 -116.5 15.5zM237 -276q-3 0 -9 6l-5 5
q-4 4 -4 7t3 6q20 21 34.5 44.5t14.5 42.5q0 12 -4.5 20.5t-13.5 18.5q-8 9 -12 16.5t-4 18.5q0 17 12 27.5t29 10.5q22 0 35.5 -15.5t13.5 -38.5q0 -47 -22.5 -91t-62.5 -76q-4 -2 -5 -2z" />
    <glyph glyph-name="T" unicode="T" horiz-adv-x="566" 
d="M254 2q-6 2 -6 7v654h-223q-5 0 -7 6t-2 21v4q0 15 2 20.5t7 5.5h516q5 0 7 -6t2 -21v-4q0 -14 -2 -20t-7 -6h-223v-654q0 -6 -6.5 -7.5t-26.5 -1.5h-8q-17 0 -23 2z" />
    <glyph glyph-name="Tbar" unicode="&#x166;" horiz-adv-x="566" 
d="M548 714q2 -6 2 -21v-4q0 -14 -2 -20t-7 -6h-223v-273h115q5 0 6.5 -4t1.5 -19v-3q0 -14 -1.5 -19.5t-6.5 -5.5h-115v-330q0 -6 -6.5 -7.5t-26.5 -1.5h-8q-17 0 -23 2t-6 7v330h-122q-5 0 -6.5 5.5t-1.5 19.5v3q0 15 1.5 19t6.5 4h122v273h-223q-5 0 -7 6t-2 21v4
q0 15 2 20.5t7 5.5h516q5 0 7 -6z" />
    <glyph glyph-name="Tcaron" unicode="&#x164;" horiz-adv-x="566" 
d="M254 2q-6 2 -6 7v654h-223q-5 0 -7 6t-2 21v4q0 15 2 20.5t7 5.5h516q5 0 7 -6t2 -21v-4q0 -14 -2 -20t-7 -6h-223v-654q0 -6 -6.5 -7.5t-26.5 -1.5h-8q-17 0 -23 2zM249 790q-7 2 -13 8l-94 100q-3 3 -3 5q0 4 7 11l5 6q6 7 9 8t7 -2l116 -97l116 97q4 2 5 2q4 0 11 -8
l5 -6q6 -7 6.5 -9.5t-2.5 -6.5l-94 -100q-6 -6 -13 -8t-21 -2h-26q-14 0 -21 2z" />
    <glyph glyph-name="uni0162" unicode="&#x162;" horiz-adv-x="566" 
d="M254 2q-6 2 -6 7v654h-223q-5 0 -7 6t-2 21v4q0 15 2 20.5t7 5.5h516q5 0 7 -6t2 -21v-4q0 -14 -2 -20t-7 -6h-223v-654q0 -6 -6.5 -7.5t-26.5 -1.5h-8q-17 0 -23 2zM246 -276q-3 0 -9 6l-5 5q-4 4 -4 7t3 6q20 21 34.5 44.5t14.5 42.5q0 12 -4.5 20.5t-13.5 18.5
q-8 9 -12 16.5t-4 18.5q0 17 12 27.5t29 10.5q22 0 35.5 -15.5t13.5 -38.5q0 -47 -22.5 -91t-62.5 -76q-4 -2 -5 -2z" />
    <glyph glyph-name="uni021A" unicode="&#x21a;" horiz-adv-x="566" 
d="M254 2q-6 2 -6 7v654h-223q-5 0 -7 6t-2 21v4q0 15 2 20.5t7 5.5h516q5 0 7 -6t2 -21v-4q0 -14 -2 -20t-7 -6h-223v-654q0 -6 -6.5 -7.5t-26.5 -1.5h-8q-17 0 -23 2zM246 -276q-3 0 -9 6l-5 5q-4 4 -4 7t3 6q20 21 34.5 44.5t14.5 42.5q0 12 -4.5 20.5t-13.5 18.5
q-8 9 -12 16.5t-4 18.5q0 17 12 27.5t29 10.5q22 0 35.5 -15.5t13.5 -38.5q0 -47 -22.5 -91t-62.5 -76q-4 -2 -5 -2z" />
    <glyph glyph-name="U" unicode="U" horiz-adv-x="717" 
d="M145.5 58q-69.5 68 -69.5 208v445q0 5 5 7t23 2h9q20 0 26 -1.5t6 -7.5v-436q0 -115 51.5 -171t163.5 -56q111 0 162 56.5t51 170.5v436q0 5 5.5 7t23.5 2h7q20 0 26.5 -1.5t6.5 -7.5v-444q0 -140 -72 -208.5t-210 -68.5q-145 0 -214.5 68z" />
    <glyph glyph-name="Uacute" unicode="&#xda;" horiz-adv-x="717" 
d="M145.5 58q-69.5 68 -69.5 208v445q0 5 5 7t23 2h9q20 0 26 -1.5t6 -7.5v-436q0 -115 51.5 -171t163.5 -56q111 0 162 56.5t51 170.5v436q0 5 5.5 7t23.5 2h7q20 0 26.5 -1.5t6.5 -7.5v-444q0 -140 -72 -208.5t-210 -68.5q-145 0 -214.5 68zM298 785l67 118q3 6 10 8t26 2
h15q17 0 21 -2.5t0 -7.5l-88 -119q-3 -4 -8 -5t-19 -1h-4q-24 0 -20 7z" />
    <glyph glyph-name="Ubreve" unicode="&#x16c;" horiz-adv-x="717" 
d="M145.5 58q-69.5 68 -69.5 208v445q0 5 5 7t23 2h9q20 0 26 -1.5t6 -7.5v-436q0 -115 51.5 -171t163.5 -56q111 0 162 56.5t51 170.5v436q0 5 5.5 7t23.5 2h7q20 0 26.5 -1.5t6.5 -7.5v-444q0 -140 -72 -208.5t-210 -68.5q-145 0 -214.5 68zM260.5 825q-38.5 30 -38.5 81
q0 3 3.5 4.5t15.5 1.5h12q13 0 15.5 -1.5t3.5 -8.5q4 -32 26 -49t60 -17t60 17t26 49q1 7 3.5 8.5t15.5 1.5h12q12 0 15.5 -1.5t3.5 -4.5q0 -51 -38.5 -81t-97.5 -30t-97.5 30z" />
    <glyph glyph-name="Ucircumflex" unicode="&#xdb;" horiz-adv-x="717" 
d="M145.5 58q-69.5 68 -69.5 208v445q0 5 5 7t23 2h9q20 0 26 -1.5t6 -7.5v-436q0 -115 51.5 -171t163.5 -56q111 0 162 56.5t51 170.5v436q0 5 5.5 7t23.5 2h7q20 0 26.5 -1.5t6.5 -7.5v-444q0 -140 -72 -208.5t-210 -68.5q-145 0 -214.5 68zM237 781q-3 0 -11 8l-5 6
q-5 6 -6 9.5t2 6.5l94 100q6 6 13 8t21 2h26q14 0 21 -2t13 -8l94 -100q2 -2 2 -5t-6 -11l-5 -6q-5 -6 -8.5 -7.5t-7.5 1.5l-116 97l-116 -97q-4 -2 -5 -2z" />
    <glyph glyph-name="Udieresis" unicode="&#xdc;" horiz-adv-x="717" 
d="M145.5 58q-69.5 68 -69.5 208v445q0 5 5 7t23 2h9q20 0 26 -1.5t6 -7.5v-436q0 -115 51.5 -171t163.5 -56q111 0 162 56.5t51 170.5v436q0 5 5.5 7t23.5 2h7q20 0 26.5 -1.5t6.5 -7.5v-444q0 -140 -72 -208.5t-210 -68.5q-145 0 -214.5 68zM222.5 813q-13.5 14 -13.5 33
q0 20 14 34t33 14t33.5 -14t14.5 -34q0 -19 -14 -33t-34 -14t-33.5 14zM424.5 813q-13.5 14 -13.5 33q0 20 14 34t33 14t33.5 -14t14.5 -34q0 -19 -14 -33t-34 -14t-33.5 14z" />
    <glyph glyph-name="Ugrave" unicode="&#xd9;" horiz-adv-x="717" 
d="M145.5 58q-69.5 68 -69.5 208v445q0 5 5 7t23 2h9q20 0 26 -1.5t6 -7.5v-436q0 -115 51.5 -171t163.5 -56q111 0 162 56.5t51 170.5v436q0 5 5.5 7t23.5 2h7q20 0 26.5 -1.5t6.5 -7.5v-444q0 -140 -72 -208.5t-210 -68.5q-145 0 -214.5 68zM375 779q-5 1 -8 5l-88 119
q-2 4 -2 5q0 5 23 5h15q19 0 26 -2t10 -8l67 -118l1 -2q0 -5 -21 -5h-4q-14 0 -19 1z" />
    <glyph glyph-name="Uhungarumlaut" unicode="&#x170;" horiz-adv-x="717" 
d="M145.5 58q-69.5 68 -69.5 208v445q0 5 5 7t23 2h9q20 0 26 -1.5t6 -7.5v-436q0 -115 51.5 -171t163.5 -56q111 0 162 56.5t51 170.5v436q0 5 5.5 7t23.5 2h7q20 0 26.5 -1.5t6.5 -7.5v-444q0 -140 -72 -208.5t-210 -68.5q-145 0 -214.5 68zM229 785l67 118q3 6 10 8t26 2
h15q17 0 21 -2.5t0 -7.5l-88 -119q-3 -4 -8 -5t-19 -1h-4q-24 0 -20 7zM386 785l67 118q3 6 10 8t26 2h15q17 0 21 -2.5t0 -7.5l-88 -119q-3 -4 -8 -5t-19 -1h-4q-24 0 -20 7z" />
    <glyph glyph-name="Umacron" unicode="&#x16a;" horiz-adv-x="717" 
d="M145.5 58q-69.5 68 -69.5 208v445q0 5 5 7t23 2h9q20 0 26 -1.5t6 -7.5v-436q0 -115 51.5 -171t163.5 -56q111 0 162 56.5t51 170.5v436q0 5 5.5 7t23.5 2h7q20 0 26.5 -1.5t6.5 -7.5v-444q0 -140 -72 -208.5t-210 -68.5q-145 0 -214.5 68zM220.5 828.5
q-1.5 5.5 -1.5 19.5v3q0 15 1.5 19t6.5 4h262q5 0 6.5 -4t1.5 -19v-3q0 -14 -1.5 -19.5t-6.5 -5.5h-262q-5 0 -6.5 5.5z" />
    <glyph glyph-name="Uogonek" unicode="&#x172;" horiz-adv-x="717" 
d="M378 -203.5q-30 25.5 -30 67.5q0 72 82 131q-20 -5 -70 -5q-145 0 -214.5 68t-69.5 208v445q0 5 5 7t23 2h9q20 0 26 -1.5t6 -7.5v-436q0 -115 51.5 -171t163.5 -56q111 0 162 56.5t51 170.5v436q0 5 5.5 7t23.5 2h7q20 0 26.5 -1.5t6.5 -7.5v-443q0 -76 -17.5 -126.5
t-53.5 -84.5q-28 -27 -63 -52q-8 -7 -29.5 -24t-35.5 -32q-36 -36 -36 -77q0 -26 15.5 -41.5t42.5 -15.5q15 0 49 9h2q4 0 8 -14l1 -5q1 -8 1 -12.5t-3 -5.5q-35 -16 -73 -16q-42 0 -72 25.5z" />
    <glyph glyph-name="Uring" unicode="&#x16e;" horiz-adv-x="717" 
d="M145.5 58q-69.5 68 -69.5 208v445q0 5 5 7t23 2h9q20 0 26 -1.5t6 -7.5v-436q0 -115 51.5 -171t163.5 -56q111 0 162 56.5t51 170.5v436q0 5 5.5 7t23.5 2h7q20 0 26.5 -1.5t6.5 -7.5v-444q0 -140 -72 -208.5t-210 -68.5q-145 0 -214.5 68zM292 804.5q-28 26.5 -28 63.5
t28 63.5t66 26.5q39 0 66.5 -26t27.5 -64t-27.5 -64t-66.5 -26q-38 0 -66 26.5zM393.5 831.5q13.5 14.5 13.5 36.5t-13.5 36.5t-35.5 14.5t-36.5 -14t-14.5 -37t14.5 -37t36.5 -14t35.5 14.5z" />
    <glyph glyph-name="Utilde" unicode="&#x168;" horiz-adv-x="717" 
d="M145.5 58q-69.5 68 -69.5 208v445q0 5 5 7t23 2h9q20 0 26 -1.5t6 -7.5v-436q0 -115 51.5 -171t163.5 -56q111 0 162 56.5t51 170.5v436q0 5 5.5 7t23.5 2h7q20 0 26.5 -1.5t6.5 -7.5v-444q0 -140 -72 -208.5t-210 -68.5q-145 0 -214.5 68zM385.5 818q-15.5 5 -36.5 15
q-18 9 -30.5 13.5t-26.5 4.5q-15 0 -28 -7t-30 -23q-1 -1 -4 -1q-6 0 -12 9l-8 10q-4 5 -4.5 8.5t2.5 7.5q14 18 39 31t49 13q19 0 34.5 -5t36.5 -15q18 -9 30.5 -13.5t26.5 -4.5q15 0 28 7t30 23q1 1 4 1q6 0 12 -9l8 -10q4 -5 4.5 -8.5t-2.5 -7.5q-14 -18 -39 -31t-49 -13
q-19 0 -34.5 5z" />
    <glyph glyph-name="V" unicode="V" horiz-adv-x="647" 
d="M291 2.5q-8 2.5 -12 11.5l-257 693q-2 8 3 10.5t26 2.5h10q19 0 25 -2t8 -9l140 -383l34 -91q13 -37 29.5 -80.5t34.5 -94.5l40 117q11 33 24.5 72t28.5 83l132 378q2 7 7 8.5t24 1.5h10q19 0 24.5 -2.5t2.5 -8.5l-247 -695q-3 -9 -11 -11.5t-36 -2.5h-5q-27 0 -35 2.5z
" />
    <glyph glyph-name="W" unicode="W" horiz-adv-x="1038" 
d="M258 2.5q-8 2.5 -11 11.5l-218 693q-2 8 3 10.5t26 2.5h10q19 0 25.5 -2t8.5 -9l112 -374q4 -15 48 -162q10 -31 36 -119q7 26 46 155l37 125l111 376q2 6 7.5 8t21.5 2h9q16 0 21.5 -2t7.5 -8l112 -377l48 -160l35 -115q6 22 10 33q61 209 72 248l108 371q2 7 7 8.5
t24 1.5h8q18 0 24 -2t4 -9l-212 -695q-3 -9 -11.5 -11.5t-35.5 -2.5h-5q-27 0 -36 3t-11 11l-96 319l-82 271q-52 -180 -81 -272l-96 -318q-2 -8 -11 -11t-35 -3h-6q-27 0 -35 2.5z" />
    <glyph glyph-name="Wacute" unicode="&#x1e82;" horiz-adv-x="1038" 
d="M258 2.5q-8 2.5 -11 11.5l-218 693q-2 8 3 10.5t26 2.5h10q19 0 25.5 -2t8.5 -9l112 -374q4 -15 48 -162q10 -31 36 -119q7 26 46 155l37 125l111 376q2 6 7.5 8t21.5 2h9q16 0 21.5 -2t7.5 -8l112 -377l48 -160l35 -115q6 22 10 33q61 209 72 248l108 371q2 7 7 8.5
t24 1.5h8q18 0 24 -2t4 -9l-212 -695q-3 -9 -11.5 -11.5t-35.5 -2.5h-5q-27 0 -36 3t-11 11l-96 319l-82 271q-52 -180 -81 -272l-96 -318q-2 -8 -11 -11t-35 -3h-6q-27 0 -35 2.5zM465 785l67 118q3 6 10 8t26 2h15q17 0 21 -2.5t0 -7.5l-88 -119q-3 -4 -8 -5t-19 -1h-4
q-24 0 -20 7z" />
    <glyph glyph-name="Wcircumflex" unicode="&#x174;" horiz-adv-x="1038" 
d="M258 2.5q-8 2.5 -11 11.5l-218 693q-2 8 3 10.5t26 2.5h10q19 0 25.5 -2t8.5 -9l112 -374q4 -15 48 -162q10 -31 36 -119q7 26 46 155l37 125l111 376q2 6 7.5 8t21.5 2h9q16 0 21.5 -2t7.5 -8l112 -377l48 -160l35 -115q6 22 10 33q61 209 72 248l108 371q2 7 7 8.5
t24 1.5h8q18 0 24 -2t4 -9l-212 -695q-3 -9 -11.5 -11.5t-35.5 -2.5h-5q-27 0 -36 3t-11 11l-96 319l-82 271q-52 -180 -81 -272l-96 -318q-2 -8 -11 -11t-35 -3h-6q-27 0 -35 2.5zM404 781q-3 0 -11 8l-5 6q-5 6 -6 9.5t2 6.5l94 100q6 6 13 8t21 2h26q14 0 21 -2t13 -8
l94 -100q2 -2 2 -5t-6 -11l-5 -6q-5 -6 -8.5 -7.5t-7.5 1.5l-116 97l-116 -97q-4 -2 -5 -2z" />
    <glyph glyph-name="Wdieresis" unicode="&#x1e84;" horiz-adv-x="1038" 
d="M258 2.5q-8 2.5 -11 11.5l-218 693q-2 8 3 10.5t26 2.5h10q19 0 25.5 -2t8.5 -9l112 -374q4 -15 48 -162q10 -31 36 -119q7 26 46 155l37 125l111 376q2 6 7.5 8t21.5 2h9q16 0 21.5 -2t7.5 -8l112 -377l48 -160l35 -115q6 22 10 33q61 209 72 248l108 371q2 7 7 8.5
t24 1.5h8q18 0 24 -2t4 -9l-212 -695q-3 -9 -11.5 -11.5t-35.5 -2.5h-5q-27 0 -36 3t-11 11l-96 319l-82 271q-52 -180 -81 -272l-96 -318q-2 -8 -11 -11t-35 -3h-6q-27 0 -35 2.5zM389.5 813q-13.5 14 -13.5 33q0 20 14 34t33 14t33.5 -14t14.5 -34q0 -19 -14 -33t-34 -14
t-33.5 14zM591.5 813q-13.5 14 -13.5 33q0 20 14 34t33 14t33.5 -14t14.5 -34q0 -19 -14 -33t-34 -14t-33.5 14z" />
    <glyph glyph-name="Wgrave" unicode="&#x1e80;" horiz-adv-x="1038" 
d="M258 2.5q-8 2.5 -11 11.5l-218 693q-2 8 3 10.5t26 2.5h10q19 0 25.5 -2t8.5 -9l112 -374q4 -15 48 -162q10 -31 36 -119q7 26 46 155l37 125l111 376q2 6 7.5 8t21.5 2h9q16 0 21.5 -2t7.5 -8l112 -377l48 -160l35 -115q6 22 10 33q61 209 72 248l108 371q2 7 7 8.5
t24 1.5h8q18 0 24 -2t4 -9l-212 -695q-3 -9 -11.5 -11.5t-35.5 -2.5h-5q-27 0 -36 3t-11 11l-96 319l-82 271q-52 -180 -81 -272l-96 -318q-2 -8 -11 -11t-35 -3h-6q-27 0 -35 2.5zM542 779q-5 1 -8 5l-88 119q-2 4 -2 5q0 5 23 5h15q19 0 26 -2t10 -8l67 -118l1 -2
q0 -5 -21 -5h-4q-14 0 -19 1z" />
    <glyph glyph-name="X" unicode="X" horiz-adv-x="592" 
d="M21.5 3.5q-5.5 3.5 -0.5 11.5l190 288l50 75l-50 77l-163 251q-5 8 1.5 11t25.5 3h13q18 0 24 -1.5t10 -7.5l118 -183q47 -73 61 -97q27 39 64 98l113 181q5 7 11.5 8.5t28.5 1.5h5q15 0 21.5 -1.5t6.5 -5.5q0 -3 -3 -8l-161 -243q-20 -33 -54 -82l47 -72l191 -294
q5 -8 -0.5 -11t-27.5 -3h-13q-16 0 -22.5 1.5t-10.5 7.5l-146 226l-60 92l-65 -103l-136 -214q-4 -7 -10.5 -8.5t-29.5 -1.5h-5q-18 0 -23.5 3.5z" />
    <glyph glyph-name="Y" unicode="Y" horiz-adv-x="571" 
d="M254.5 2q-5.5 2 -5.5 8v268l-233 430q-3 6 3 9t26 3h7q23 0 29 -2t10 -9l118 -224l24 -45q37 -68 57 -107l78 151l118 227q3 6 9 7.5t26 1.5h9q17 0 22.5 -2.5t1.5 -9.5l-236 -430v-268q0 -6 -6.5 -8t-25.5 -2h-9q-17 0 -22.5 2z" />
    <glyph glyph-name="Yacute" unicode="&#xdd;" horiz-adv-x="571" 
d="M254.5 2q-5.5 2 -5.5 8v268l-233 430q-3 6 3 9t26 3h7q23 0 29 -2t10 -9l118 -224l24 -45q37 -68 57 -107l78 151l118 227q3 6 9 7.5t26 1.5h9q17 0 22.5 -2.5t1.5 -9.5l-236 -430v-268q0 -6 -6.5 -8t-25.5 -2h-9q-17 0 -22.5 2zM227 785l67 118q3 6 10 8t26 2h15
q17 0 21 -2.5t0 -7.5l-88 -119q-3 -4 -8 -5t-19 -1h-4q-24 0 -20 7z" />
    <glyph glyph-name="Ycircumflex" unicode="&#x176;" horiz-adv-x="571" 
d="M254.5 2q-5.5 2 -5.5 8v268l-233 430q-3 6 3 9t26 3h7q23 0 29 -2t10 -9l118 -224l24 -45q37 -68 57 -107l78 151l118 227q3 6 9 7.5t26 1.5h9q17 0 22.5 -2.5t1.5 -9.5l-236 -430v-268q0 -6 -6.5 -8t-25.5 -2h-9q-17 0 -22.5 2zM166 781q-3 0 -11 8l-5 6q-5 6 -6 9.5
t2 6.5l94 100q6 6 13 8t21 2h26q14 0 21 -2t13 -8l94 -100q2 -2 2 -5t-6 -11l-5 -6q-5 -6 -8.5 -7.5t-7.5 1.5l-116 97l-116 -97q-4 -2 -5 -2z" />
    <glyph glyph-name="Ydieresis" unicode="&#x178;" horiz-adv-x="571" 
d="M254.5 2q-5.5 2 -5.5 8v268l-233 430q-3 6 3 9t26 3h7q23 0 29 -2t10 -9l118 -224l24 -45q37 -68 57 -107l78 151l118 227q3 6 9 7.5t26 1.5h9q17 0 22.5 -2.5t1.5 -9.5l-236 -430v-268q0 -6 -6.5 -8t-25.5 -2h-9q-17 0 -22.5 2zM151.5 813q-13.5 14 -13.5 33q0 20 14 34
t33 14t33.5 -14t14.5 -34q0 -19 -14 -33t-34 -14t-33.5 14zM353.5 813q-13.5 14 -13.5 33q0 20 14 34t33 14t33.5 -14t14.5 -34q0 -19 -14 -33t-34 -14t-33.5 14z" />
    <glyph glyph-name="Ygrave" unicode="&#x1ef2;" horiz-adv-x="571" 
d="M254.5 2q-5.5 2 -5.5 8v268l-233 430q-3 6 3 9t26 3h7q23 0 29 -2t10 -9l118 -224l24 -45q37 -68 57 -107l78 151l118 227q3 6 9 7.5t26 1.5h9q17 0 22.5 -2.5t1.5 -9.5l-236 -430v-268q0 -6 -6.5 -8t-25.5 -2h-9q-17 0 -22.5 2zM304 779q-5 1 -8 5l-88 119q-2 4 -2 5
q0 5 23 5h15q19 0 26 -2t10 -8l67 -118l1 -2q0 -5 -21 -5h-4q-14 0 -19 1z" />
    <glyph glyph-name="Z" unicode="Z" horiz-adv-x="583" 
d="M47.5 1.5q-3.5 1.5 -3.5 8.5v20q0 15 4 25t15 28l386 580h-375q-5 0 -7 6t-2 21v4q0 15 2 20.5t7 5.5h437q15 0 18 -1.5t3 -8.5v-15q0 -16 -4 -26t-16 -27l-387 -585h407q5 0 7 -6t2 -21v-4q0 -14 -2 -20t-7 -6h-466q-15 0 -18.5 1.5z" />
    <glyph glyph-name="Zacute" unicode="&#x179;" horiz-adv-x="583" 
d="M47.5 1.5q-3.5 1.5 -3.5 8.5v20q0 15 4 25t15 28l386 580h-375q-5 0 -7 6t-2 21v4q0 15 2 20.5t7 5.5h437q15 0 18 -1.5t3 -8.5v-15q0 -16 -4 -26t-16 -27l-387 -585h407q5 0 7 -6t2 -21v-4q0 -14 -2 -20t-7 -6h-466q-15 0 -18.5 1.5zM245 785l67 118q3 6 10 8t26 2h15
q17 0 21 -2.5t0 -7.5l-88 -119q-3 -4 -8 -5t-19 -1h-4q-24 0 -20 7z" />
    <glyph glyph-name="Zacute.loclPLK" horiz-adv-x="583" 
d="M47.5 1.5q-3.5 1.5 -3.5 8.5v20q0 15 4 25t15 28l386 580h-375q-5 0 -7 6t-2 21v4q0 15 2 20.5t7 5.5h437q15 0 18 -1.5t3 -8.5v-15q0 -16 -4 -26t-16 -27l-387 -585h407q5 0 7 -6t2 -21v-4q0 -14 -2 -20t-7 -6h-466q-15 0 -18.5 1.5zM271 780q-4 2 -3 7l26 115q2 7 7 9
t24 2h11q18 0 23 -2t3 -8l-45 -117q-2 -5 -6 -6.5t-19 -1.5h-3q-14 0 -18 2z" />
    <glyph glyph-name="Zcaron" unicode="&#x17d;" horiz-adv-x="583" 
d="M47.5 1.5q-3.5 1.5 -3.5 8.5v20q0 15 4 25t15 28l386 580h-375q-5 0 -7 6t-2 21v4q0 15 2 20.5t7 5.5h437q15 0 18 -1.5t3 -8.5v-15q0 -16 -4 -26t-16 -27l-387 -585h407q5 0 7 -6t2 -21v-4q0 -14 -2 -20t-7 -6h-466q-15 0 -18.5 1.5zM271 790q-7 2 -13 8l-94 100
q-3 3 -3 5q0 4 7 11l5 6q6 7 9 8t7 -2l116 -97l116 97q4 2 5 2q4 0 11 -8l5 -6q6 -7 6.5 -9.5t-2.5 -6.5l-94 -100q-6 -6 -13 -8t-21 -2h-26q-14 0 -21 2z" />
    <glyph glyph-name="Zdotaccent" unicode="&#x17b;" horiz-adv-x="583" 
d="M47.5 1.5q-3.5 1.5 -3.5 8.5v20q0 15 4 25t15 28l386 580h-375q-5 0 -7 6t-2 21v4q0 15 2 20.5t7 5.5h437q15 0 18 -1.5t3 -8.5v-15q0 -16 -4 -26t-16 -27l-387 -585h407q5 0 7 -6t2 -21v-4q0 -14 -2 -20t-7 -6h-466q-15 0 -18.5 1.5zM271 807.5q-13 13.5 -13 32.5
q0 20 13.5 33.5t32.5 13.5t33 -13.5t14 -33.5q0 -19 -13.5 -32.5t-33.5 -13.5t-33 13.5z" />
    <glyph glyph-name="a" unicode="a" horiz-adv-x="563" 
d="M102.5 64.5q-55.5 74.5 -55.5 190.5q0 84 29.5 148.5t81.5 99.5t118 35q50 0 87.5 -19.5t60.5 -53.5l5 53q1 6 6.5 8t21.5 2h7q15 0 18.5 -2t3.5 -10l-1 -32q-1 -31 -1 -115v-146q0 -116 7 -215q0 -5 -5 -6.5t-20 -1.5h-3q-17 0 -21.5 2t-5.5 7l-8 62q-23 -39 -65.5 -60
t-95.5 -21q-109 0 -164.5 74.5zM383 90q21 24 28.5 55t7.5 101v150q-26 40 -59.5 61t-79.5 21q-75 0 -119 -59t-44 -159q0 -90 37 -150.5t119 -60.5q73 0 110 41z" />
    <glyph glyph-name="a.ss01" horiz-adv-x="583" 
d="M543 14q0 -9 -10 -12q-19 -6 -41 -6q-46 0 -65 28q-12 17 -15 51q-24 -37 -70.5 -61t-107.5 -24q-49 0 -90.5 20t-65.5 57.5t-24 86.5q0 75 55.5 109t138.5 34h162v33q0 73 -32.5 112.5t-106.5 39.5q-68 0 -155 -36q-4 -2 -7 -2q-7 0 -14 17l-4 10q-5 13 -5 17q0 6 7 9
q37 19 85 30t97 11q100 0 150 -52t50 -149v-229q0 -35 7.5 -48t29.5 -13q8 0 20 2h2q3 0 4.5 -4.5t2.5 -13.5l1 -7q1 -4 1 -10zM334 66q37 21 56.5 56t19.5 76v47h-156q-66 0 -99 -21t-33 -69q0 -49 34.5 -79.5t92.5 -30.5q48 0 85 21z" />
    <glyph glyph-name="aacute" unicode="&#xe1;" horiz-adv-x="563" 
d="M102.5 64.5q-55.5 74.5 -55.5 190.5q0 84 29.5 148.5t81.5 99.5t118 35q50 0 87.5 -19.5t60.5 -53.5l5 53q1 6 6.5 8t21.5 2h7q15 0 18.5 -2t3.5 -10l-1 -32q-1 -31 -1 -115v-146q0 -116 7 -215q0 -5 -5 -6.5t-20 -1.5h-3q-17 0 -21.5 2t-5.5 7l-8 62q-23 -39 -65.5 -60
t-95.5 -21q-109 0 -164.5 74.5zM383 90q21 24 28.5 55t7.5 101v150q-26 40 -59.5 61t-79.5 21q-75 0 -119 -59t-44 -159q0 -90 37 -150.5t119 -60.5q73 0 110 41zM226 593l67 118q3 6 10 8t26 2h15q17 0 21 -2.5t0 -7.5l-88 -119q-3 -4 -8 -5t-19 -1h-4q-24 0 -20 7z" />
    <glyph glyph-name="aacute.ss01" horiz-adv-x="583" 
d="M543 14q0 -9 -10 -12q-19 -6 -41 -6q-46 0 -65 28q-12 17 -15 51q-24 -37 -70.5 -61t-107.5 -24q-49 0 -90.5 20t-65.5 57.5t-24 86.5q0 75 55.5 109t138.5 34h162v33q0 73 -32.5 112.5t-106.5 39.5q-68 0 -155 -36q-4 -2 -7 -2q-7 0 -14 17l-4 10q-5 13 -5 17q0 6 7 9
q37 19 85 30t97 11q100 0 150 -52t50 -149v-229q0 -35 7.5 -48t29.5 -13q8 0 20 2h2q3 0 4.5 -4.5t2.5 -13.5l1 -7q1 -4 1 -10zM334 66q37 21 56.5 56t19.5 76v47h-156q-66 0 -99 -21t-33 -69q0 -49 34.5 -79.5t92.5 -30.5q48 0 85 21zM218 593l67 118q3 6 10 8t26 2h15
q17 0 21 -2.5t0 -7.5l-88 -119q-3 -4 -8 -5t-19 -1h-4q-24 0 -20 7z" />
    <glyph glyph-name="abreve" unicode="&#x103;" horiz-adv-x="563" 
d="M102.5 64.5q-55.5 74.5 -55.5 190.5q0 84 29.5 148.5t81.5 99.5t118 35q50 0 87.5 -19.5t60.5 -53.5l5 53q1 6 6.5 8t21.5 2h7q15 0 18.5 -2t3.5 -10l-1 -32q-1 -31 -1 -115v-146q0 -116 7 -215q0 -5 -5 -6.5t-20 -1.5h-3q-17 0 -21.5 2t-5.5 7l-8 62q-23 -39 -65.5 -60
t-95.5 -21q-109 0 -164.5 74.5zM383 90q21 24 28.5 55t7.5 101v150q-26 40 -59.5 61t-79.5 21q-75 0 -119 -59t-44 -159q0 -90 37 -150.5t119 -60.5q73 0 110 41zM182.5 625q-38.5 30 -38.5 81q0 3 3 4.5t16 1.5h12q13 0 15.5 -1.5t3.5 -8.5q4 -32 26 -49t60 -17t60 17
t26 49q1 7 3.5 8.5t15.5 1.5h12q12 0 15.5 -1.5t3.5 -4.5q0 -51 -38.5 -81t-97.5 -30t-97.5 30z" />
    <glyph glyph-name="abreve.ss01" horiz-adv-x="583" 
d="M543 14q0 -9 -10 -12q-19 -6 -41 -6q-46 0 -65 28q-12 17 -15 51q-24 -37 -70.5 -61t-107.5 -24q-49 0 -90.5 20t-65.5 57.5t-24 86.5q0 75 55.5 109t138.5 34h162v33q0 73 -32.5 112.5t-106.5 39.5q-68 0 -155 -36q-4 -2 -7 -2q-7 0 -14 17l-4 10q-5 13 -5 17q0 6 7 9
q37 19 85 30t97 11q100 0 150 -52t50 -149v-229q0 -35 7.5 -48t29.5 -13q8 0 20 2h2q3 0 4.5 -4.5t2.5 -13.5l1 -7q1 -4 1 -10zM334 66q37 21 56.5 56t19.5 76v47h-156q-66 0 -99 -21t-33 -69q0 -49 34.5 -79.5t92.5 -30.5q48 0 85 21zM174.5 625q-38.5 30 -38.5 81
q0 3 3 4.5t16 1.5h12q13 0 15.5 -1.5t3.5 -8.5q4 -32 26 -49t60 -17t60 17t26 49q1 7 3.5 8.5t15.5 1.5h12q12 0 15.5 -1.5t3.5 -4.5q0 -51 -38.5 -81t-97.5 -30t-97.5 30z" />
    <glyph glyph-name="uni01CE" unicode="&#x1ce;" horiz-adv-x="563" 
d="M102.5 64.5q-55.5 74.5 -55.5 190.5q0 84 29.5 148.5t81.5 99.5t118 35q50 0 87.5 -19.5t60.5 -53.5l5 53q1 6 6.5 8t21.5 2h7q15 0 18.5 -2t3.5 -10l-1 -32q-1 -31 -1 -115v-146q0 -116 7 -215q0 -5 -5 -6.5t-20 -1.5h-3q-17 0 -21.5 2t-5.5 7l-8 62q-23 -39 -65.5 -60
t-95.5 -21q-109 0 -164.5 74.5zM383 90q21 24 28.5 55t7.5 101v150q-26 40 -59.5 61t-79.5 21q-75 0 -119 -59t-44 -159q0 -90 37 -150.5t119 -60.5q73 0 110 41zM246 585q-7 2 -13 8l-94 100q-2 2 -2 5q0 4 6 11l5 6q5 6 8.5 7.5t7.5 -1.5l116 -97l116 97q4 2 5 2
q3 0 11 -8l5 -6q5 -6 6 -9.5t-2 -6.5l-94 -100q-6 -6 -13 -8t-21 -2h-26q-14 0 -21 2z" />
    <glyph glyph-name="uni01CE.ss01" horiz-adv-x="583" 
d="M543 14q0 -9 -10 -12q-19 -6 -41 -6q-46 0 -65 28q-12 17 -15 51q-24 -37 -70.5 -61t-107.5 -24q-49 0 -90.5 20t-65.5 57.5t-24 86.5q0 75 55.5 109t138.5 34h162v33q0 73 -32.5 112.5t-106.5 39.5q-68 0 -155 -36q-4 -2 -7 -2q-7 0 -14 17l-4 10q-5 13 -5 17q0 6 7 9
q37 19 85 30t97 11q100 0 150 -52t50 -149v-229q0 -35 7.5 -48t29.5 -13q8 0 20 2h2q3 0 4.5 -4.5t2.5 -13.5l1 -7q1 -4 1 -10zM334 66q37 21 56.5 56t19.5 76v47h-156q-66 0 -99 -21t-33 -69q0 -49 34.5 -79.5t92.5 -30.5q48 0 85 21zM238 585q-7 2 -13 8l-94 100
q-2 2 -2 5q0 4 6 11l5 6q5 6 8.5 7.5t7.5 -1.5l116 -97l116 97q4 2 5 2q3 0 11 -8l5 -6q5 -6 6 -9.5t-2 -6.5l-94 -100q-6 -6 -13 -8t-21 -2h-26q-14 0 -21 2z" />
    <glyph glyph-name="acircumflex" unicode="&#xe2;" horiz-adv-x="563" 
d="M102.5 64.5q-55.5 74.5 -55.5 190.5q0 84 29.5 148.5t81.5 99.5t118 35q50 0 87.5 -19.5t60.5 -53.5l5 53q1 6 6.5 8t21.5 2h7q15 0 18.5 -2t3.5 -10l-1 -32q-1 -31 -1 -115v-146q0 -116 7 -215q0 -5 -5 -6.5t-20 -1.5h-3q-17 0 -21.5 2t-5.5 7l-8 62q-23 -39 -65.5 -60
t-95.5 -21q-109 0 -164.5 74.5zM383 90q21 24 28.5 55t7.5 101v150q-26 40 -59.5 61t-79.5 21q-75 0 -119 -59t-44 -159q0 -90 37 -150.5t119 -60.5q73 0 110 41zM159 589q-3 0 -11 8l-5 6q-5 6 -6 9.5t2 6.5l94 100q6 6 13 8t21 2h26q14 0 21 -2t13 -8l94 -100q2 -2 2 -5
t-6 -11l-5 -6q-5 -6 -8.5 -7.5t-7.5 1.5l-116 97l-116 -97q-4 -2 -5 -2z" />
    <glyph glyph-name="acircumflex.ss01" horiz-adv-x="583" 
d="M543 14q0 -9 -10 -12q-19 -6 -41 -6q-46 0 -65 28q-12 17 -15 51q-24 -37 -70.5 -61t-107.5 -24q-49 0 -90.5 20t-65.5 57.5t-24 86.5q0 75 55.5 109t138.5 34h162v33q0 73 -32.5 112.5t-106.5 39.5q-68 0 -155 -36q-4 -2 -7 -2q-7 0 -14 17l-4 10q-5 13 -5 17q0 6 7 9
q37 19 85 30t97 11q100 0 150 -52t50 -149v-229q0 -35 7.5 -48t29.5 -13q8 0 20 2h2q3 0 4.5 -4.5t2.5 -13.5l1 -7q1 -4 1 -10zM334 66q37 21 56.5 56t19.5 76v47h-156q-66 0 -99 -21t-33 -69q0 -49 34.5 -79.5t92.5 -30.5q48 0 85 21zM151 589q-3 0 -11 8l-5 6q-5 6 -6 9.5
t2 6.5l94 100q6 6 13 8t21 2h26q14 0 21 -2t13 -8l94 -100q2 -2 2 -5t-6 -11l-5 -6q-5 -6 -8.5 -7.5t-7.5 1.5l-116 97l-116 -97q-4 -2 -5 -2z" />
    <glyph glyph-name="adieresis" unicode="&#xe4;" horiz-adv-x="563" 
d="M102.5 64.5q-55.5 74.5 -55.5 190.5q0 84 29.5 148.5t81.5 99.5t118 35q50 0 87.5 -19.5t60.5 -53.5l5 53q1 6 6.5 8t21.5 2h7q15 0 18.5 -2t3.5 -10l-1 -32q-1 -31 -1 -115v-146q0 -116 7 -215q0 -5 -5 -6.5t-20 -1.5h-3q-17 0 -21.5 2t-5.5 7l-8 62q-23 -39 -65.5 -60
t-95.5 -21q-109 0 -164.5 74.5zM383 90q21 24 28.5 55t7.5 101v150q-26 40 -59.5 61t-79.5 21q-75 0 -119 -59t-44 -159q0 -90 37 -150.5t119 -60.5q73 0 110 41zM144.5 621q-13.5 14 -13.5 33q0 20 14 34t33 14t33.5 -14t14.5 -34q0 -19 -14 -33t-34 -14t-33.5 14z
M346.5 621q-13.5 14 -13.5 33q0 20 14 34t33 14t33.5 -14t14.5 -34q0 -19 -14 -33t-34 -14t-33.5 14z" />
    <glyph glyph-name="adieresis.ss01" horiz-adv-x="583" 
d="M543 14q0 -9 -10 -12q-19 -6 -41 -6q-46 0 -65 28q-12 17 -15 51q-24 -37 -70.5 -61t-107.5 -24q-49 0 -90.5 20t-65.5 57.5t-24 86.5q0 75 55.5 109t138.5 34h162v33q0 73 -32.5 112.5t-106.5 39.5q-68 0 -155 -36q-4 -2 -7 -2q-7 0 -14 17l-4 10q-5 13 -5 17q0 6 7 9
q37 19 85 30t97 11q100 0 150 -52t50 -149v-229q0 -35 7.5 -48t29.5 -13q8 0 20 2h2q3 0 4.5 -4.5t2.5 -13.5l1 -7q1 -4 1 -10zM334 66q37 21 56.5 56t19.5 76v47h-156q-66 0 -99 -21t-33 -69q0 -49 34.5 -79.5t92.5 -30.5q48 0 85 21zM136.5 621q-13.5 14 -13.5 33
q0 20 14 34t33 14t33.5 -14t14.5 -34q0 -19 -14 -33t-34 -14t-33.5 14zM338.5 621q-13.5 14 -13.5 33q0 20 14 34t33 14t33.5 -14t14.5 -34q0 -19 -14 -33t-34 -14t-33.5 14z" />
    <glyph glyph-name="agrave" unicode="&#xe0;" horiz-adv-x="563" 
d="M102.5 64.5q-55.5 74.5 -55.5 190.5q0 84 29.5 148.5t81.5 99.5t118 35q50 0 87.5 -19.5t60.5 -53.5l5 53q1 6 6.5 8t21.5 2h7q15 0 18.5 -2t3.5 -10l-1 -32q-1 -31 -1 -115v-146q0 -116 7 -215q0 -5 -5 -6.5t-20 -1.5h-3q-17 0 -21.5 2t-5.5 7l-8 62q-23 -39 -65.5 -60
t-95.5 -21q-109 0 -164.5 74.5zM383 90q21 24 28.5 55t7.5 101v150q-26 40 -59.5 61t-79.5 21q-75 0 -119 -59t-44 -159q0 -90 37 -150.5t119 -60.5q73 0 110 41zM297 587q-5 1 -8 5l-88 119q-2 4 -2 5q0 5 23 5h15q19 0 26 -2t10 -8l67 -118l1 -2q0 -5 -21 -5h-4
q-14 0 -19 1z" />
    <glyph glyph-name="agrave.ss01" horiz-adv-x="583" 
d="M543 14q0 -9 -10 -12q-19 -6 -41 -6q-46 0 -65 28q-12 17 -15 51q-24 -37 -70.5 -61t-107.5 -24q-49 0 -90.5 20t-65.5 57.5t-24 86.5q0 75 55.5 109t138.5 34h162v33q0 73 -32.5 112.5t-106.5 39.5q-68 0 -155 -36q-4 -2 -7 -2q-7 0 -14 17l-4 10q-5 13 -5 17q0 6 7 9
q37 19 85 30t97 11q100 0 150 -52t50 -149v-229q0 -35 7.5 -48t29.5 -13q8 0 20 2h2q3 0 4.5 -4.5t2.5 -13.5l1 -7q1 -4 1 -10zM334 66q37 21 56.5 56t19.5 76v47h-156q-66 0 -99 -21t-33 -69q0 -49 34.5 -79.5t92.5 -30.5q48 0 85 21zM289 587q-5 1 -8 5l-88 119q-2 4 -2 5
q0 5 23 5h15q19 0 26 -2t10 -8l67 -118l1 -2q0 -5 -21 -5h-4q-14 0 -19 1z" />
    <glyph glyph-name="amacron" unicode="&#x101;" horiz-adv-x="563" 
d="M102.5 64.5q-55.5 74.5 -55.5 190.5q0 84 29.5 148.5t81.5 99.5t118 35q50 0 87.5 -19.5t60.5 -53.5l5 53q1 6 6.5 8t21.5 2h7q15 0 18.5 -2t3.5 -10l-1 -32q-1 -31 -1 -115v-146q0 -116 7 -215q0 -5 -5 -6.5t-20 -1.5h-3q-17 0 -21.5 2t-5.5 7l-8 62q-23 -39 -65.5 -60
t-95.5 -21q-109 0 -164.5 74.5zM383 90q21 24 28.5 55t7.5 101v150q-26 40 -59.5 61t-79.5 21q-75 0 -119 -59t-44 -159q0 -90 37 -150.5t119 -60.5q73 0 110 41zM142.5 638.5q-1.5 5.5 -1.5 19.5v3q0 15 1.5 19t6.5 4h262q5 0 6.5 -4t1.5 -19v-3q0 -14 -1.5 -19.5
t-6.5 -5.5h-262q-5 0 -6.5 5.5z" />
    <glyph glyph-name="amacron.ss01" horiz-adv-x="583" 
d="M543 14q0 -9 -10 -12q-19 -6 -41 -6q-46 0 -65 28q-12 17 -15 51q-24 -37 -70.5 -61t-107.5 -24q-49 0 -90.5 20t-65.5 57.5t-24 86.5q0 75 55.5 109t138.5 34h162v33q0 73 -32.5 112.5t-106.5 39.5q-68 0 -155 -36q-4 -2 -7 -2q-7 0 -14 17l-4 10q-5 13 -5 17q0 6 7 9
q37 19 85 30t97 11q100 0 150 -52t50 -149v-229q0 -35 7.5 -48t29.5 -13q8 0 20 2h2q3 0 4.5 -4.5t2.5 -13.5l1 -7q1 -4 1 -10zM334 66q37 21 56.5 56t19.5 76v47h-156q-66 0 -99 -21t-33 -69q0 -49 34.5 -79.5t92.5 -30.5q48 0 85 21zM134.5 638.5q-1.5 5.5 -1.5 19.5v3
q0 15 1.5 19t6.5 4h262q5 0 6.5 -4t1.5 -19v-3q0 -14 -1.5 -19.5t-6.5 -5.5h-262q-5 0 -6.5 5.5z" />
    <glyph glyph-name="aogonek" unicode="&#x105;" horiz-adv-x="563" 
d="M344 -203q-29 26 -29 70q0 49 33.5 88.5t87.5 59.5l-8 56q-23 -39 -65.5 -60t-95.5 -21q-109 0 -164.5 74.5t-55.5 190.5q0 84 29.5 148.5t81.5 99.5t118 35q50 0 87.5 -19.5t60.5 -53.5l5 53q1 6 6.5 8t21.5 2h7q15 0 18.5 -2t3.5 -10l-1 -32q-1 -31 -1 -115v-146
q0 -112 7 -211q0 -7 -1.5 -8.5t-7.5 -3.5q-28 -7 -51.5 -22.5t-37.5 -38.5q-21 -33 -21 -67q0 -27 15.5 -42t42.5 -15q15 0 49 9h2q4 0 8 -14l1 -5q1 -8 1 -12.5t-3 -5.5q-35 -16 -73 -16q-42 0 -71 26zM383 90q21 24 28.5 55t7.5 101v150q-26 40 -59.5 61t-79.5 21
q-75 0 -119 -59t-44 -159q0 -90 37 -150.5t119 -60.5q73 0 110 41z" />
    <glyph glyph-name="aogonek.ss01" horiz-adv-x="583" 
d="M396 -201q-29 26 -29 70q0 41 23.5 75.5t64.5 57.5q-16 6 -28 22q-12 17 -15 51q-24 -37 -70.5 -61t-107.5 -24q-49 0 -90.5 20t-65.5 57.5t-24 86.5q0 75 55.5 109t138.5 34h162v33q0 73 -32.5 112.5t-106.5 39.5q-68 0 -155 -36q-4 -2 -7 -2q-7 0 -14 17l-4 10
q-5 13 -5 17q0 6 7 9q37 19 85 30t97 11q100 0 150 -52t50 -149v-229q0 -35 7.5 -48t29.5 -13q8 0 20 2h2q3 0 4.5 -4.5t2.5 -13.5l2 -17v-3q0 -4 -1.5 -5.5t-7.5 -3.5q-28 -7 -51.5 -22.5t-37.5 -38.5q-21 -33 -21 -67q0 -27 15.5 -42t42.5 -15q15 0 49 9h2q4 0 8 -14l1 -5
q1 -8 1 -12.5t-3 -5.5q-35 -16 -73 -16q-42 0 -71 26zM334 66q37 21 56.5 56t19.5 76v47h-156q-66 0 -99 -21t-33 -69q0 -49 34.5 -79.5t92.5 -30.5q48 0 85 21z" />
    <glyph glyph-name="aring" unicode="&#xe5;" horiz-adv-x="563" 
d="M102.5 64.5q-55.5 74.5 -55.5 190.5q0 84 29.5 148.5t81.5 99.5t118 35q50 0 87.5 -19.5t60.5 -53.5l5 53q1 6 6.5 8t21.5 2h7q15 0 18.5 -2t3.5 -10l-1 -32q-1 -31 -1 -115v-146q0 -116 7 -215q0 -5 -5 -6.5t-20 -1.5h-3q-17 0 -21.5 2t-5.5 7l-8 62q-23 -39 -65.5 -60
t-95.5 -21q-109 0 -164.5 74.5zM383 90q21 24 28.5 55t7.5 101v150q-26 40 -59.5 61t-79.5 21q-75 0 -119 -59t-44 -159q0 -90 37 -150.5t119 -60.5q73 0 110 41zM214 604.5q-28 26.5 -28 63.5t28 63.5t66 26.5q39 0 66.5 -26t27.5 -64t-27.5 -64t-66.5 -26q-38 0 -66 26.5z
M315.5 631.5q13.5 14.5 13.5 36.5t-13.5 36.5t-35.5 14.5t-36.5 -14t-14.5 -37t14.5 -37t36.5 -14t35.5 14.5z" />
    <glyph glyph-name="aring.ss01" horiz-adv-x="583" 
d="M543 14q0 -9 -10 -12q-19 -6 -41 -6q-46 0 -65 28q-12 17 -15 51q-24 -37 -70.5 -61t-107.5 -24q-49 0 -90.5 20t-65.5 57.5t-24 86.5q0 75 55.5 109t138.5 34h162v33q0 73 -32.5 112.5t-106.5 39.5q-68 0 -155 -36q-4 -2 -7 -2q-7 0 -14 17l-4 10q-5 13 -5 17q0 6 7 9
q37 19 85 30t97 11q100 0 150 -52t50 -149v-229q0 -35 7.5 -48t29.5 -13q8 0 20 2h2q3 0 4.5 -4.5t2.5 -13.5l1 -7q1 -4 1 -10zM334 66q37 21 56.5 56t19.5 76v47h-156q-66 0 -99 -21t-33 -69q0 -49 34.5 -79.5t92.5 -30.5q48 0 85 21zM206 604.5q-28 26.5 -28 63.5t28 63.5
t66 26.5q39 0 66.5 -26t27.5 -64t-27.5 -64t-66.5 -26q-38 0 -66 26.5zM307.5 631.5q13.5 14.5 13.5 36.5t-13.5 36.5t-35.5 14.5t-36.5 -14t-14.5 -37t14.5 -37t36.5 -14t35.5 14.5z" />
    <glyph glyph-name="aringacute" unicode="&#x1fb;" horiz-adv-x="563" 
d="M102.5 64.5q-55.5 74.5 -55.5 190.5q0 84 29.5 148.5t81.5 99.5t118 35q50 0 87.5 -19.5t60.5 -53.5l5 53q1 6 6.5 8t21.5 2h7q15 0 18.5 -2t3.5 -10l-1 -32q-1 -31 -1 -115v-146q0 -116 7 -215q0 -5 -5 -6.5t-20 -1.5h-3q-17 0 -21.5 2t-5.5 7l-8 62q-23 -39 -65.5 -60
t-95.5 -21q-109 0 -164.5 74.5zM383 90q21 24 28.5 55t7.5 101v150q-26 40 -59.5 61t-79.5 21q-75 0 -119 -59t-44 -159q0 -90 37 -150.5t119 -60.5q73 0 110 41zM215 594.5q-28 26.5 -28 63.5t28 63.5t66 26.5q39 0 66.5 -26t27.5 -64t-27.5 -64t-66.5 -26q-38 0 -66 26.5z
M316.5 621.5q13.5 14.5 13.5 36.5t-13.5 36.5t-35.5 14.5t-36.5 -14t-14.5 -37t14.5 -37t36.5 -14t35.5 14.5zM216 775l67 118q3 6 10 8t26 2h15q17 0 21 -2.5t0 -7.5l-88 -119q-3 -4 -8 -5t-19 -1h-4q-24 0 -20 7z" />
    <glyph glyph-name="aringacute.ss01" horiz-adv-x="583" 
d="M543 14q0 -9 -10 -12q-19 -6 -41 -6q-46 0 -65 28q-12 17 -15 51q-24 -37 -70.5 -61t-107.5 -24q-49 0 -90.5 20t-65.5 57.5t-24 86.5q0 75 55.5 109t138.5 34h162v33q0 73 -32.5 112.5t-106.5 39.5q-68 0 -155 -36q-4 -2 -7 -2q-7 0 -14 17l-4 10q-5 13 -5 17q0 6 7 9
q37 19 85 30t97 11q100 0 150 -52t50 -149v-229q0 -35 7.5 -48t29.5 -13q8 0 20 2h2q3 0 4.5 -4.5t2.5 -13.5l1 -7q1 -4 1 -10zM334 66q37 21 56.5 56t19.5 76v47h-156q-66 0 -99 -21t-33 -69q0 -49 34.5 -79.5t92.5 -30.5q48 0 85 21zM206 590.5q-28 26.5 -28 63.5t28 63.5
t66 26.5q39 0 66.5 -26t27.5 -64t-27.5 -64t-66.5 -26q-38 0 -66 26.5zM307.5 617.5q13.5 14.5 13.5 36.5t-13.5 36.5t-35.5 14.5t-36.5 -14t-14.5 -37t14.5 -37t36.5 -14t35.5 14.5zM218 775l67 118q3 6 10 8t26 2h15q17 0 21 -2.5t0 -7.5l-88 -119q-3 -4 -8 -5t-19 -1h-4
q-24 0 -20 7z" />
    <glyph glyph-name="atilde" unicode="&#xe3;" horiz-adv-x="563" 
d="M102.5 64.5q-55.5 74.5 -55.5 190.5q0 84 29.5 148.5t81.5 99.5t118 35q50 0 87.5 -19.5t60.5 -53.5l5 53q1 6 6.5 8t21.5 2h7q15 0 18.5 -2t3.5 -10l-1 -32q-1 -31 -1 -115v-146q0 -116 7 -215q0 -5 -5 -6.5t-20 -1.5h-3q-17 0 -21.5 2t-5.5 7l-8 62q-23 -39 -65.5 -60
t-95.5 -21q-109 0 -164.5 74.5zM383 90q21 24 28.5 55t7.5 101v150q-26 40 -59.5 61t-79.5 21q-75 0 -119 -59t-44 -159q0 -90 37 -150.5t119 -60.5q73 0 110 41zM307.5 626q-15.5 5 -36.5 15q-18 9 -30.5 13.5t-26.5 4.5q-15 0 -28 -7t-30 -23q-1 -1 -4 -1q-6 0 -12 9
l-8 10q-4 5 -4.5 8.5t2.5 7.5q14 18 39 31t49 13q19 0 34.5 -5t36.5 -15q18 -9 30.5 -13.5t26.5 -4.5q15 0 28 7t30 23q1 1 4 1q6 0 12 -9l8 -10q4 -5 4.5 -8.5t-2.5 -7.5q-14 -18 -39 -31t-49 -13q-19 0 -34.5 5z" />
    <glyph glyph-name="atilde.ss01" horiz-adv-x="583" 
d="M543 14q0 -9 -10 -12q-19 -6 -41 -6q-46 0 -65 28q-12 17 -15 51q-24 -37 -70.5 -61t-107.5 -24q-49 0 -90.5 20t-65.5 57.5t-24 86.5q0 75 55.5 109t138.5 34h162v33q0 73 -32.5 112.5t-106.5 39.5q-68 0 -155 -36q-4 -2 -7 -2q-7 0 -14 17l-4 10q-5 13 -5 17q0 6 7 9
q37 19 85 30t97 11q100 0 150 -52t50 -149v-229q0 -35 7.5 -48t29.5 -13q8 0 20 2h2q3 0 4.5 -4.5t2.5 -13.5l1 -7q1 -4 1 -10zM334 66q37 21 56.5 56t19.5 76v47h-156q-66 0 -99 -21t-33 -69q0 -49 34.5 -79.5t92.5 -30.5q48 0 85 21zM299.5 626q-15.5 5 -36.5 15
q-18 9 -30.5 13.5t-26.5 4.5q-15 0 -28 -7t-30 -23q-1 -1 -4 -1q-6 0 -12 9l-8 10q-4 5 -4.5 8.5t2.5 7.5q14 18 39 31t49 13q19 0 34.5 -5t36.5 -15q18 -9 30.5 -13.5t26.5 -4.5q15 0 28 7t30 23q1 1 4 1q6 0 12 -9l8 -10q4 -5 4.5 -8.5t-2.5 -7.5q-14 -18 -39 -31t-49 -13
q-19 0 -34.5 5z" />
    <glyph glyph-name="ae" unicode="&#xe6;" horiz-adv-x="863" 
d="M95 32.5q-50 42.5 -50 120.5q0 83 55.5 126.5t153.5 43.5q67 0 133 -26l1 33q2 80 -32 114.5t-112 34.5q-68 0 -138 -27q-2 -1 -5 -1q-4 0 -6.5 4.5t-6.5 15.5l-2 6q-5 15 -5 20q0 6 5 8q35 15 80.5 24t86.5 9q69 0 118 -27t62 -78q25 50 70.5 77.5t107.5 27.5
q58 0 103 -28.5t70 -79.5q34 -69 34 -162q0 -16 -3 -20.5t-11 -4.5h-349q4 -106 51 -151q22 -21 49.5 -31t66.5 -10q77 0 137 30q5 3 8 3q4 0 7 -5t7 -14l4 -10q4 -9 4 -17q0 -6 -5 -9q-75 -39 -173 -39q-64 0 -113 27t-71 70q-34 -43 -85 -70t-120 -27q-77 0 -127 42.5z
M751 295q-2 76 -38 129t-104 53t-107.5 -46t-45.5 -136h295zM332.5 71.5q42.5 23.5 70.5 65.5q-16 47 -18 105q-62 29 -129 29q-65 0 -103 -28t-38 -86q0 -53 32 -81t89 -28q54 0 96.5 23.5z" />
    <glyph glyph-name="aeacute" unicode="&#x1fd;" horiz-adv-x="863" 
d="M95 32.5q-50 42.5 -50 120.5q0 83 55.5 126.5t153.5 43.5q67 0 133 -26l1 33q2 80 -32 114.5t-112 34.5q-68 0 -138 -27q-2 -1 -5 -1q-4 0 -6.5 4.5t-6.5 15.5l-2 6q-5 15 -5 20q0 6 5 8q35 15 80.5 24t86.5 9q69 0 118 -27t62 -78q25 50 70.5 77.5t107.5 27.5
q58 0 103 -28.5t70 -79.5q34 -69 34 -162q0 -16 -3 -20.5t-11 -4.5h-349q4 -106 51 -151q22 -21 49.5 -31t66.5 -10q77 0 137 30q5 3 8 3q4 0 7 -5t7 -14l4 -10q4 -9 4 -17q0 -6 -5 -9q-75 -39 -173 -39q-64 0 -113 27t-71 70q-34 -43 -85 -70t-120 -27q-77 0 -127 42.5z
M751 295q-2 76 -38 129t-104 53t-107.5 -46t-45.5 -136h295zM332.5 71.5q42.5 23.5 70.5 65.5q-16 47 -18 105q-62 29 -129 29q-65 0 -103 -28t-38 -86q0 -53 32 -81t89 -28q54 0 96.5 23.5zM408 593l67 118q3 6 10 8t26 2h15q17 0 21 -2.5t0 -7.5l-88 -119q-3 -4 -8 -5
t-19 -1h-4q-24 0 -20 7z" />
    <glyph glyph-name="b" unicode="b" horiz-adv-x="557" 
d="M89 18q-8 3 -10.5 6.5t-2.5 10.5v716q0 9 28 9h8q29 0 29 -9v-284q57 71 154 71q110 0 162.5 -75t52.5 -185q0 -134 -67 -211t-187 -77q-92 0 -167 28zM393.5 106.5q46.5 58.5 46.5 164.5q0 101 -37.5 154t-111.5 53q-36 0 -65 -11.5t-49 -33.5q-14 -16 -22.5 -35
t-10.5 -49q-3 -43 -3 -143v-140q49 -18 112 -18q94 0 140.5 58.5z" />
    <glyph glyph-name="c" unicode="c" horiz-adv-x="483" 
d="M106 64q-59 74 -59 192q0 89 31.5 152.5t86.5 96.5t125 33q88 0 156 -45q5 -3 5 -8q0 -6 -7 -20l-4 -8q-7 -13 -11.5 -16t-11.5 1q-58 35 -122 35q-81 0 -129.5 -56.5t-48.5 -158.5q0 -93 40.5 -153t126.5 -60q75 0 131 30q4 2 6 2q7 0 14 -19l4 -11q4 -11 4 -16t-5 -8
q-31 -18 -73 -27.5t-88 -9.5q-112 0 -171 74z" />
    <glyph glyph-name="cacute" unicode="&#x107;" horiz-adv-x="483" 
d="M106 64q-59 74 -59 192q0 89 31.5 152.5t86.5 96.5t125 33q88 0 156 -45q5 -3 5 -8q0 -6 -7 -20l-4 -8q-7 -13 -11.5 -16t-11.5 1q-58 35 -122 35q-81 0 -129.5 -56.5t-48.5 -158.5q0 -93 40.5 -153t126.5 -60q75 0 131 30q4 2 6 2q7 0 14 -19l4 -11q4 -11 4 -16t-5 -8
q-31 -18 -73 -27.5t-88 -9.5q-112 0 -171 74zM237 593l67 118q3 6 10 8t26 2h15q17 0 21 -2.5t0 -7.5l-88 -119q-3 -4 -8 -5t-19 -1h-4q-24 0 -20 7z" />
    <glyph glyph-name="cacute.loclPLK" horiz-adv-x="483" 
d="M106 64q-59 74 -59 192q0 89 31.5 152.5t86.5 96.5t125 33q88 0 156 -45q5 -3 5 -8q0 -6 -7 -20l-4 -8q-7 -13 -11.5 -16t-11.5 1q-58 35 -122 35q-81 0 -129.5 -56.5t-48.5 -158.5q0 -93 40.5 -153t126.5 -60q75 0 131 30q4 2 6 2q7 0 14 -19l4 -11q4 -11 4 -16t-5 -8
q-31 -18 -73 -27.5t-88 -9.5q-112 0 -171 74zM257 588q-4 2 -3 7l26 115q2 7 7 9t24 2h11q18 0 23 -2t3 -8l-45 -117q-2 -5 -6.5 -6.5t-19.5 -1.5h-3q-13 0 -17 2z" />
    <glyph glyph-name="ccaron" unicode="&#x10d;" horiz-adv-x="483" 
d="M106 64q-59 74 -59 192q0 89 31.5 152.5t86.5 96.5t125 33q88 0 156 -45q5 -3 5 -8q0 -6 -7 -20l-4 -8q-7 -13 -11.5 -16t-11.5 1q-58 35 -122 35q-81 0 -129.5 -56.5t-48.5 -158.5q0 -93 40.5 -153t126.5 -60q75 0 131 30q4 2 6 2q7 0 14 -19l4 -11q4 -11 4 -16t-5 -8
q-31 -18 -73 -27.5t-88 -9.5q-112 0 -171 74zM257 585q-7 2 -13 8l-94 100q-2 2 -2 5q0 4 6 11l5 6q5 6 8.5 7.5t7.5 -1.5l116 -97l116 97q4 2 5 2q3 0 11 -8l5 -6q5 -6 6 -9.5t-2 -6.5l-94 -100q-6 -6 -13 -8t-21 -2h-26q-14 0 -21 2z" />
    <glyph glyph-name="ccedilla" unicode="&#xe7;" horiz-adv-x="483" 
d="M165.5 420.5q-48.5 -56.5 -48.5 -158.5q0 -93 40.5 -153t126.5 -60q75 0 131 30q4 2 6 2q7 0 14 -19l4 -11q4 -11 4 -16t-5 -8q-60 -34 -150 -37l-7 -56q18 2 27 2q40 0 65 -21.5t25 -56.5q0 -38 -28 -64t-82 -26q-20 0 -41 3.5t-31 8.5q-3 1 -3 7t1 11l1 5q2 10 4 12.5
t6 1.5q32 -7 55 -7q62 0 62 44q0 43 -61 43q-30 0 -53 -5l13 100q-95 12 -144.5 84t-49.5 180q0 89 31.5 152.5t86.5 96.5t125 33q88 0 156 -45q5 -3 5 -8q0 -6 -7 -20l-4 -8q-7 -13 -11.5 -16t-11.5 1q-58 35 -122 35q-81 0 -129.5 -56.5z" />
    <glyph glyph-name="ccircumflex" unicode="&#x109;" horiz-adv-x="483" 
d="M106 64q-59 74 -59 192q0 89 31.5 152.5t86.5 96.5t125 33q88 0 156 -45q5 -3 5 -8q0 -6 -7 -20l-4 -8q-7 -13 -11.5 -16t-11.5 1q-58 35 -122 35q-81 0 -129.5 -56.5t-48.5 -158.5q0 -93 40.5 -153t126.5 -60q75 0 131 30q4 2 6 2q7 0 14 -19l4 -11q4 -11 4 -16t-5 -8
q-31 -18 -73 -27.5t-88 -9.5q-112 0 -171 74zM170 589q-3 0 -11 8l-5 6q-5 6 -6 9.5t2 6.5l94 100q6 6 13 8t21 2h26q14 0 21 -2t13 -8l94 -100q2 -2 2 -5t-6 -11l-5 -6q-5 -6 -8.5 -7.5t-7.5 1.5l-116 97l-116 -97q-4 -2 -5 -2z" />
    <glyph glyph-name="cdotaccent" unicode="&#x10b;" horiz-adv-x="483" 
d="M106 64q-59 74 -59 192q0 89 31.5 152.5t86.5 96.5t125 33q88 0 156 -45q5 -3 5 -8q0 -6 -7 -20l-4 -8q-7 -13 -11.5 -16t-11.5 1q-58 35 -122 35q-81 0 -129.5 -56.5t-48.5 -158.5q0 -93 40.5 -153t126.5 -60q75 0 131 30q4 2 6 2q7 0 14 -19l4 -11q4 -11 4 -16t-5 -8
q-31 -18 -73 -27.5t-88 -9.5q-112 0 -171 74zM257 627.5q-13 13.5 -13 32.5q0 20 13.5 33.5t32.5 13.5t33 -13.5t14 -33.5q0 -19 -13.5 -32.5t-33.5 -13.5t-33 13.5z" />
    <glyph glyph-name="d" unicode="d" horiz-adv-x="581" 
d="M105 59.5q-58 69.5 -58 193.5q0 77 27 142t81.5 104t131.5 39q36 0 72 -11.5t61 -30.5v255q0 9 28 9h8q29 0 29 -9v-636q0 -29 4 -42.5t12.5 -18t25.5 -4.5q5 0 6 -3t1 -18v-4q0 -15 -1 -18.5t-5 -4.5q-14 -4 -34 -4q-30 0 -47.5 17t-20.5 49q-22 -36 -62 -55t-95 -19
q-106 0 -164 69.5zM340 60q29 11 48 30q20 20 26 51.5t6 102.5v186q-56 47 -127 47q-80 0 -128 -60t-48 -161t43 -154t117 -53q34 0 63 11z" />
    <glyph glyph-name="eth" unicode="&#xf0;" horiz-adv-x="566" 
d="M158.5 21q-52.5 31 -82 89.5t-29.5 138.5q0 76 30.5 137t83.5 95.5t119 34.5q75 0 133 -41q-48 101 -149 173l-137 -64l-4 -1q-4 0 -10 10l-6 12q-7 14 -1 17l115 54q-39 25 -104 56q-5 3 -5 7q0 5 6 15l5 9q6 10 8.5 12t8.5 0q70 -26 140 -71l126 58l4 1q4 0 10 -10
l6 -12q8 -14 1 -17l-106 -49q193 -146 193 -388q0 -154 -66 -225.5t-169 -71.5q-68 0 -120.5 31zM406 110.5q39 61.5 39 183.5q0 30 -4.5 62.5t-11.5 52.5q-66 48 -139 48q-82 0 -127.5 -58t-45.5 -148q0 -94 44 -148t123 -54q83 0 122 61.5z" />
    <glyph glyph-name="dcaron" unicode="&#x10f;" horiz-adv-x="631" 
d="M105 59.5q-58 69.5 -58 193.5q0 77 27 142t81.5 104t131.5 39q36 0 72 -11.5t61 -30.5v255q0 9 28 9h8q29 0 29 -9v-636q0 -29 4 -42.5t12.5 -18t25.5 -4.5q5 0 6 -3t1 -18v-4q0 -15 -1 -18.5t-5 -4.5q-14 -4 -34 -4q-30 0 -47.5 17t-20.5 49q-22 -36 -62 -55t-95 -19
q-106 0 -164 69.5zM340 60q29 11 48 30q20 20 26 51.5t6 102.5v186q-56 47 -127 47q-80 0 -128 -60t-48 -161t43 -154t117 -53q34 0 63 11zM551 507q-3 0 -9 6l-5 5q-4 4 -4 7t3 6q20 21 34.5 44.5t14.5 42.5q0 12 -4.5 20.5t-13.5 18.5q-8 9 -12 16.5t-4 18.5q0 17 12 27.5
t29 10.5q22 0 35.5 -15.5t13.5 -38.5q0 -47 -22.5 -91t-62.5 -76q-4 -2 -5 -2z" />
    <glyph glyph-name="dcroat" unicode="&#x111;" horiz-adv-x="581" 
d="M105 59.5q-58 69.5 -58 193.5q0 77 27 142t81.5 104t131.5 39q36 0 72 -11.5t61 -30.5v124h-160q-5 0 -6.5 5.5t-1.5 19.5v1q0 15 1.5 19t6.5 4h160v82q0 9 28 9h8q29 0 29 -9v-82h67q5 0 6.5 -4t1.5 -19v-1q0 -14 -1.5 -19.5t-6.5 -5.5h-67v-505q0 -29 4 -42.5t12.5 -18
t25.5 -4.5q5 0 6 -3t1 -18v-4q0 -15 -1 -18.5t-5 -4.5q-14 -4 -34 -4q-30 0 -47.5 17t-20.5 49q-22 -36 -62 -55t-95 -19q-106 0 -164 69.5zM340 60q29 11 48 30q20 20 26 51.5t6 102.5v186q-56 47 -127 47q-80 0 -128 -60t-48 -161t43 -154t117 -53q34 0 63 11z" />
    <glyph glyph-name="e" unicode="e" horiz-adv-x="541" 
d="M110.5 59.5q-63.5 69.5 -63.5 192.5q0 82 28.5 147t82 102t126.5 37q63 0 107.5 -28.5t70.5 -79.5q34 -69 34 -162q0 -16 -3 -20.5t-11 -4.5h-365q4 -107 57 -152q44 -40 126 -40q77 0 137 30q5 3 8 3q4 0 7 -5t7 -14l4 -10q4 -9 4 -17q0 -6 -5 -9q-75 -39 -173 -39
q-115 0 -178.5 69.5zM429 295q-2 76 -38.5 129t-107.5 53q-68 0 -111.5 -43.5t-53.5 -138.5h311z" />
    <glyph glyph-name="eacute" unicode="&#xe9;" horiz-adv-x="541" 
d="M110.5 59.5q-63.5 69.5 -63.5 192.5q0 82 28.5 147t82 102t126.5 37q63 0 107.5 -28.5t70.5 -79.5q34 -69 34 -162q0 -16 -3 -20.5t-11 -4.5h-365q4 -107 57 -152q44 -40 126 -40q77 0 137 30q5 3 8 3q4 0 7 -5t7 -14l4 -10q4 -9 4 -17q0 -6 -5 -9q-75 -39 -173 -39
q-115 0 -178.5 69.5zM429 295q-2 76 -38.5 129t-107.5 53q-68 0 -111.5 -43.5t-53.5 -138.5h311zM227 593l67 118q3 6 10 8t26 2h15q17 0 21 -2.5t0 -7.5l-88 -119q-3 -4 -8 -5t-19 -1h-4q-24 0 -20 7z" />
    <glyph glyph-name="ebreve" unicode="&#x115;" horiz-adv-x="541" 
d="M110.5 59.5q-63.5 69.5 -63.5 192.5q0 82 28.5 147t82 102t126.5 37q63 0 107.5 -28.5t70.5 -79.5q34 -69 34 -162q0 -16 -3 -20.5t-11 -4.5h-365q4 -107 57 -152q44 -40 126 -40q77 0 137 30q5 3 8 3q4 0 7 -5t7 -14l4 -10q4 -9 4 -17q0 -6 -5 -9q-75 -39 -173 -39
q-115 0 -178.5 69.5zM429 295q-2 76 -38.5 129t-107.5 53q-68 0 -111.5 -43.5t-53.5 -138.5h311zM183.5 625q-38.5 30 -38.5 81q0 3 3 4.5t16 1.5h12q13 0 15.5 -1.5t3.5 -8.5q4 -32 26 -49t60 -17t60 17t26 49q1 7 3.5 8.5t15.5 1.5h12q12 0 15.5 -1.5t3.5 -4.5
q0 -51 -38.5 -81t-97.5 -30t-97.5 30z" />
    <glyph glyph-name="ecaron" unicode="&#x11b;" horiz-adv-x="541" 
d="M110.5 59.5q-63.5 69.5 -63.5 192.5q0 82 28.5 147t82 102t126.5 37q63 0 107.5 -28.5t70.5 -79.5q34 -69 34 -162q0 -16 -3 -20.5t-11 -4.5h-365q4 -107 57 -152q44 -40 126 -40q77 0 137 30q5 3 8 3q4 0 7 -5t7 -14l4 -10q4 -9 4 -17q0 -6 -5 -9q-75 -39 -173 -39
q-115 0 -178.5 69.5zM429 295q-2 76 -38.5 129t-107.5 53q-68 0 -111.5 -43.5t-53.5 -138.5h311zM247 585q-7 2 -13 8l-94 100q-2 2 -2 5q0 4 6 11l5 6q5 6 8.5 7.5t7.5 -1.5l116 -97l116 97q4 2 5 2q3 0 11 -8l5 -6q5 -6 6 -9.5t-2 -6.5l-94 -100q-6 -6 -13 -8t-21 -2h-26
q-14 0 -21 2z" />
    <glyph glyph-name="ecircumflex" unicode="&#xea;" horiz-adv-x="541" 
d="M110.5 59.5q-63.5 69.5 -63.5 192.5q0 82 28.5 147t82 102t126.5 37q63 0 107.5 -28.5t70.5 -79.5q34 -69 34 -162q0 -16 -3 -20.5t-11 -4.5h-365q4 -107 57 -152q44 -40 126 -40q77 0 137 30q5 3 8 3q4 0 7 -5t7 -14l4 -10q4 -9 4 -17q0 -6 -5 -9q-75 -39 -173 -39
q-115 0 -178.5 69.5zM429 295q-2 76 -38.5 129t-107.5 53q-68 0 -111.5 -43.5t-53.5 -138.5h311zM160 589q-3 0 -11 8l-5 6q-5 6 -6 9.5t2 6.5l94 100q6 6 13 8t21 2h26q14 0 21 -2t13 -8l94 -100q2 -2 2 -5t-6 -11l-5 -6q-5 -6 -8.5 -7.5t-7.5 1.5l-116 97l-116 -97
q-4 -2 -5 -2z" />
    <glyph glyph-name="edieresis" unicode="&#xeb;" horiz-adv-x="541" 
d="M110.5 59.5q-63.5 69.5 -63.5 192.5q0 82 28.5 147t82 102t126.5 37q63 0 107.5 -28.5t70.5 -79.5q34 -69 34 -162q0 -16 -3 -20.5t-11 -4.5h-365q4 -107 57 -152q44 -40 126 -40q77 0 137 30q5 3 8 3q4 0 7 -5t7 -14l4 -10q4 -9 4 -17q0 -6 -5 -9q-75 -39 -173 -39
q-115 0 -178.5 69.5zM429 295q-2 76 -38.5 129t-107.5 53q-68 0 -111.5 -43.5t-53.5 -138.5h311zM145.5 621q-13.5 14 -13.5 33q0 20 14 34t33 14t33.5 -14t14.5 -34q0 -19 -14 -33t-34 -14t-33.5 14zM347.5 621q-13.5 14 -13.5 33q0 20 14 34t33 14t33.5 -14t14.5 -34
q0 -19 -14 -33t-34 -14t-33.5 14z" />
    <glyph glyph-name="edotaccent" unicode="&#x117;" horiz-adv-x="541" 
d="M110.5 59.5q-63.5 69.5 -63.5 192.5q0 82 28.5 147t82 102t126.5 37q63 0 107.5 -28.5t70.5 -79.5q34 -69 34 -162q0 -16 -3 -20.5t-11 -4.5h-365q4 -107 57 -152q44 -40 126 -40q77 0 137 30q5 3 8 3q4 0 7 -5t7 -14l4 -10q4 -9 4 -17q0 -6 -5 -9q-75 -39 -173 -39
q-115 0 -178.5 69.5zM429 295q-2 76 -38.5 129t-107.5 53q-68 0 -111.5 -43.5t-53.5 -138.5h311zM247 627.5q-13 13.5 -13 32.5q0 20 13.5 33.5t32.5 13.5t33 -13.5t14 -33.5q0 -19 -13.5 -32.5t-33.5 -13.5t-33 13.5z" />
    <glyph glyph-name="egrave" unicode="&#xe8;" horiz-adv-x="541" 
d="M110.5 59.5q-63.5 69.5 -63.5 192.5q0 82 28.5 147t82 102t126.5 37q63 0 107.5 -28.5t70.5 -79.5q34 -69 34 -162q0 -16 -3 -20.5t-11 -4.5h-365q4 -107 57 -152q44 -40 126 -40q77 0 137 30q5 3 8 3q4 0 7 -5t7 -14l4 -10q4 -9 4 -17q0 -6 -5 -9q-75 -39 -173 -39
q-115 0 -178.5 69.5zM429 295q-2 76 -38.5 129t-107.5 53q-68 0 -111.5 -43.5t-53.5 -138.5h311zM298 587q-5 1 -8 5l-88 119q-2 4 -2 5q0 5 23 5h15q19 0 26 -2t10 -8l67 -118l1 -2q0 -5 -21 -5h-4q-14 0 -19 1z" />
    <glyph glyph-name="emacron" unicode="&#x113;" horiz-adv-x="541" 
d="M110.5 59.5q-63.5 69.5 -63.5 192.5q0 82 28.5 147t82 102t126.5 37q63 0 107.5 -28.5t70.5 -79.5q34 -69 34 -162q0 -16 -3 -20.5t-11 -4.5h-365q4 -107 57 -152q44 -40 126 -40q77 0 137 30q5 3 8 3q4 0 7 -5t7 -14l4 -10q4 -9 4 -17q0 -6 -5 -9q-75 -39 -173 -39
q-115 0 -178.5 69.5zM429 295q-2 76 -38.5 129t-107.5 53q-68 0 -111.5 -43.5t-53.5 -138.5h311zM143.5 638.5q-1.5 5.5 -1.5 19.5v3q0 15 1.5 19t6.5 4h262q5 0 6.5 -4t1.5 -19v-3q0 -14 -1.5 -19.5t-6.5 -5.5h-262q-5 0 -6.5 5.5z" />
    <glyph glyph-name="eogonek" unicode="&#x119;" horiz-adv-x="541" 
d="M300 -202.5q-29 26.5 -29 72.5q0 34 18.5 67t48.5 56q-24 -3 -49 -3q-115 0 -178.5 69.5t-63.5 192.5q0 82 28.5 147t82 102t126.5 37q63 0 107.5 -28.5t70.5 -79.5q34 -69 34 -162q0 -16 -3 -20.5t-11 -4.5h-365q4 -107 57 -152q44 -40 126 -40q77 0 137 30q5 3 8 3
q4 0 7 -5t7 -14l4 -10q4 -9 4 -17q0 -6 -5 -9q-61 -30 -97.5 -69t-36.5 -85q0 -28 15.5 -44t42.5 -16q15 0 49 9h2q4 0 8 -14l1 -5q1 -8 1 -12.5t-3 -5.5q-35 -16 -73 -16q-42 0 -71 26.5zM429 295q-2 76 -38.5 129t-107.5 53q-68 0 -111.5 -43.5t-53.5 -138.5h311z" />
    <glyph glyph-name="f" unicode="f" horiz-adv-x="330" 
d="M117 2.5q-6 2.5 -6 7.5v462h-70q-5 0 -7 5t-2 19v7q0 15 2 20t7 5h70v41q0 104 42.5 158.5t134.5 54.5q48 0 91 -17q6 -3 6 -10q0 -5 -3 -16l-2 -7q-4 -14 -7.5 -18t-9.5 -2q-36 12 -72 12q-66 0 -90.5 -38t-24.5 -119v-39h123q5 0 7 -5t2 -20v-7q0 -14 -2 -19t-7 -5
h-123v-462q0 -5 -6.5 -7.5t-21.5 -2.5h-8q-17 0 -23 2.5z" />
    <glyph glyph-name="g" unicode="g" horiz-adv-x="561" 
d="M173.5 -237.5q-38.5 7.5 -63.5 18.5q-6 3 -6 10q0 6 4 18l2 6q6 17 9 20.5t11 0.5q51 -21 119 -21q69 0 112 32t56 96q6 39 6 123q-63 -66 -165 -66t-156.5 71.5t-54.5 186.5q0 85 29.5 148.5t82 97.5t118.5 34q99 0 145 -67l1 48q0 5 5.5 7t22.5 2h4q19 0 24 -2t5 -7
q4 -106 4 -252v-174q0 -68 -4.5 -113t-15.5 -81q-22 -70 -79 -107t-140 -37q-37 0 -75.5 7.5zM356.5 79.5q38.5 19.5 66.5 52.5v152q0 55 -3.5 81.5t-13.5 46.5q-14 28 -45 45.5t-75 17.5q-82 0 -125.5 -57t-43.5 -156t39.5 -150.5t118.5 -51.5q43 0 81.5 19.5z" />
    <glyph glyph-name="gbreve" unicode="&#x11f;" horiz-adv-x="561" 
d="M173.5 -237.5q-38.5 7.5 -63.5 18.5q-6 3 -6 10q0 6 4 18l2 6q6 17 9 20.5t11 0.5q51 -21 119 -21q69 0 112 32t56 96q6 39 6 123q-63 -66 -165 -66t-156.5 71.5t-54.5 186.5q0 85 29.5 148.5t82 97.5t118.5 34q99 0 145 -67l1 48q0 5 5.5 7t22.5 2h4q19 0 24 -2t5 -7
q4 -106 4 -252v-174q0 -68 -4.5 -113t-15.5 -81q-22 -70 -79 -107t-140 -37q-37 0 -75.5 7.5zM356.5 79.5q38.5 19.5 66.5 52.5v152q0 55 -3.5 81.5t-13.5 46.5q-14 28 -45 45.5t-75 17.5q-82 0 -125.5 -57t-43.5 -156t39.5 -150.5t118.5 -51.5q43 0 81.5 19.5zM183.5 625
q-38.5 30 -38.5 81q0 3 3 4.5t16 1.5h12q13 0 15.5 -1.5t3.5 -8.5q4 -32 26 -49t60 -17t60 17t26 49q1 7 3.5 8.5t15.5 1.5h12q12 0 15.5 -1.5t3.5 -4.5q0 -51 -38.5 -81t-97.5 -30t-97.5 30z" />
    <glyph glyph-name="gcircumflex" unicode="&#x11d;" horiz-adv-x="561" 
d="M173.5 -237.5q-38.5 7.5 -63.5 18.5q-6 3 -6 10q0 6 4 18l2 6q6 17 9 20.5t11 0.5q51 -21 119 -21q69 0 112 32t56 96q6 39 6 123q-63 -66 -165 -66t-156.5 71.5t-54.5 186.5q0 85 29.5 148.5t82 97.5t118.5 34q99 0 145 -67l1 48q0 5 5.5 7t22.5 2h4q19 0 24 -2t5 -7
q4 -106 4 -252v-174q0 -68 -4.5 -113t-15.5 -81q-22 -70 -79 -107t-140 -37q-37 0 -75.5 7.5zM356.5 79.5q38.5 19.5 66.5 52.5v152q0 55 -3.5 81.5t-13.5 46.5q-14 28 -45 45.5t-75 17.5q-82 0 -125.5 -57t-43.5 -156t39.5 -150.5t118.5 -51.5q43 0 81.5 19.5zM160 589
q-3 0 -11 8l-5 6q-5 6 -6 9.5t2 6.5l94 100q6 6 13 8t21 2h26q14 0 21 -2t13 -8l94 -100q2 -2 2 -5t-6 -11l-5 -6q-5 -6 -8.5 -7.5t-7.5 1.5l-116 97l-116 -97q-4 -2 -5 -2z" />
    <glyph glyph-name="gcommaaccent" unicode="&#x123;" horiz-adv-x="561" 
d="M240.5 617.5q-13.5 15.5 -13.5 38.5q0 47 22.5 91t62.5 76q4 2 5 2q3 0 9 -6l5 -5q4 -4 4 -7t-3 -6q-20 -21 -34.5 -44.5t-14.5 -42.5q0 -12 4.5 -20.5t13.5 -18.5q8 -9 12 -16.5t4 -18.5q0 -17 -12 -27.5t-29 -10.5q-22 0 -35.5 15.5zM173.5 -237.5
q-38.5 7.5 -63.5 18.5q-6 3 -6 10q0 6 4 18l2 6q6 17 9 20.5t11 0.5q51 -21 119 -21q69 0 112 32t56 96q6 39 6 123q-63 -66 -165 -66t-156.5 71.5t-54.5 186.5q0 85 29.5 148.5t82 97.5t118.5 34q99 0 145 -67l1 48q0 5 5.5 7t22.5 2h4q19 0 24 -2t5 -7q4 -106 4 -252v-174
q0 -68 -4.5 -113t-15.5 -81q-22 -70 -79 -107t-140 -37q-37 0 -75.5 7.5zM356.5 79.5q38.5 19.5 66.5 52.5v152q0 55 -3.5 81.5t-13.5 46.5q-14 28 -45 45.5t-75 17.5q-82 0 -125.5 -57t-43.5 -156t39.5 -150.5t118.5 -51.5q43 0 81.5 19.5z" />
    <glyph glyph-name="gdotaccent" unicode="&#x121;" horiz-adv-x="561" 
d="M173.5 -237.5q-38.5 7.5 -63.5 18.5q-6 3 -6 10q0 6 4 18l2 6q6 17 9 20.5t11 0.5q51 -21 119 -21q69 0 112 32t56 96q6 39 6 123q-63 -66 -165 -66t-156.5 71.5t-54.5 186.5q0 85 29.5 148.5t82 97.5t118.5 34q99 0 145 -67l1 48q0 5 5.5 7t22.5 2h4q19 0 24 -2t5 -7
q4 -106 4 -252v-174q0 -68 -4.5 -113t-15.5 -81q-22 -70 -79 -107t-140 -37q-37 0 -75.5 7.5zM356.5 79.5q38.5 19.5 66.5 52.5v152q0 55 -3.5 81.5t-13.5 46.5q-14 28 -45 45.5t-75 17.5q-82 0 -125.5 -57t-43.5 -156t39.5 -150.5t118.5 -51.5q43 0 81.5 19.5zM247 627.5
q-13 13.5 -13 32.5q0 20 13.5 33.5t32.5 13.5t33 -13.5t14 -33.5q0 -19 -13.5 -32.5t-33.5 -13.5t-33 13.5z" />
    <glyph glyph-name="h" unicode="h" horiz-adv-x="580" 
d="M84 2.5q-6 2.5 -6 8.5v740q0 9 28 9h8q29 0 29 -9v-294q58 81 173 81q93 0 143 -52q25 -26 37 -66.5t12 -101.5v-307q0 -6 -6 -8.5t-22 -2.5h-8q-17 0 -23 2.5t-6 8.5v262q0 70 -6 105t-26 58q-32 38 -111 38q-78 0 -124 -49q-12 -13 -20 -32.5t-10 -39.5q-3 -29 -3 -145
v-197q0 -11 -28 -11h-8q-17 0 -23 2.5z" />
    <glyph glyph-name="hbar" unicode="&#x127;" horiz-adv-x="580" 
d="M84 2.5q-6 2.5 -6 8.5v609h-67q-5 0 -6.5 5.5t-1.5 19.5v1q0 15 1.5 19t6.5 4h67v82q0 9 28 9h8q29 0 29 -9v-82h160q5 0 6.5 -4t1.5 -19v-1q0 -14 -1.5 -19.5t-6.5 -5.5h-160v-163q58 81 173 81q93 0 143 -52q25 -26 37 -66.5t12 -101.5v-307q0 -6 -6 -8.5t-22 -2.5h-8
q-17 0 -23 2.5t-6 8.5v262q0 70 -6 105t-26 58q-32 38 -111 38q-78 0 -124 -49q-12 -13 -20 -32.5t-10 -39.5q-3 -29 -3 -145v-197q0 -11 -28 -11h-8q-17 0 -23 2.5z" />
    <glyph glyph-name="hcircumflex" unicode="&#x125;" horiz-adv-x="580" 
d="M84 2.5q-6 2.5 -6 8.5v740q0 9 28 9h8q29 0 29 -9v-294q58 81 173 81q93 0 143 -52q25 -26 37 -66.5t12 -101.5v-307q0 -6 -6 -8.5t-22 -2.5h-8q-17 0 -23 2.5t-6 8.5v262q0 70 -6 105t-26 58q-32 38 -111 38q-78 0 -124 -49q-12 -13 -20 -32.5t-10 -39.5q-3 -29 -3 -145
v-197q0 -11 -28 -11h-8q-17 0 -23 2.5zM-10 762q-3 0 -11 8l-5 6q-5 6 -6 9.5t2 6.5l94 100q6 6 13 8t21 2h26q14 0 21 -2t13 -8l94 -100q2 -2 2 -5t-6 -11l-5 -6q-5 -6 -8.5 -7.5t-7.5 1.5l-116 97l-116 -97q-4 -2 -5 -2z" />
    <glyph glyph-name="i" unicode="i" horiz-adv-x="221" 
d="M74.5 672q-15.5 15 -15.5 38q0 22 15.5 38t36.5 16t36.5 -16t15.5 -38q0 -23 -15.5 -38t-36.5 -15t-36.5 15zM84 2q-6 2 -6 8v509q0 5 6 7t22 2h8q17 0 23 -2t6 -7v-509q0 -5 -6 -7.5t-22 -2.5h-8q-17 0 -23 2z" />
    <glyph glyph-name="dotlessi" unicode="&#x131;" horiz-adv-x="222" 
d="M84 2q-6 2 -6 8v509q0 5 6 7t22 2h8q17 0 23 -2t6 -7v-509q0 -5 -6 -7.5t-22 -2.5h-8q-17 0 -23 2z" />
    <glyph glyph-name="iacute" unicode="&#xed;" horiz-adv-x="222" 
d="M84 2q-6 2 -6 8v509q0 5 6 7t22 2h8q17 0 23 -2t6 -7v-509q0 -5 -6 -7.5t-22 -2.5h-8q-17 0 -23 2zM56 593l67 118q3 6 10 8t26 2h15q17 0 21 -2.5t0 -7.5l-88 -119q-3 -4 -8 -5t-19 -1h-4q-24 0 -20 7z" />
    <glyph glyph-name="iacute_j.loclNLD" horiz-adv-x="468" 
d="M84 2q-6 2 -6 8v509q0 5 6 7t22 2h8q17 0 23 -2t6 -7v-509q0 -5 -6 -7.5t-22 -2.5h-8q-17 0 -23 2zM56 593l67 118q3 6 10 8t26 2h15q17 0 21 -2.5t0 -7.5l-88 -119q-3 -4 -8 -5t-19 -1h-4q-24 0 -20 7zM145 -234q-4 1 -4 10q0 8 1 14l1 6q2 14 4.5 18t6.5 3q25 -7 50 -7
q66 0 93 41t27 138v530q0 5 6.5 7t21.5 2h8q17 0 23 -2t6 -7v-528q0 -125 -44.5 -180.5t-134.5 -55.5q-38 0 -65 11zM302 593l67 118q3 6 10 8t26 2h15q17 0 21 -2.5t0 -7.5l-88 -119q-3 -4 -8 -5t-19 -1h-4q-24 0 -20 7z" />
    <glyph glyph-name="ibreve" unicode="&#x12d;" horiz-adv-x="222" 
d="M84 2q-6 2 -6 8v509q0 5 6 7t22 2h8q17 0 23 -2t6 -7v-509q0 -5 -6 -7.5t-22 -2.5h-8q-17 0 -23 2zM12.5 625q-38.5 30 -38.5 81q0 3 3 4.5t16 1.5h12q13 0 15.5 -1.5t3.5 -8.5q4 -32 26 -49t60 -17t60 17t26 49q1 7 3.5 8.5t15.5 1.5h12q12 0 15.5 -1.5t3.5 -4.5
q0 -51 -38.5 -81t-97.5 -30t-97.5 30z" />
    <glyph glyph-name="icircumflex" unicode="&#xee;" horiz-adv-x="222" 
d="M84 2q-6 2 -6 8v509q0 5 6 7t22 2h8q17 0 23 -2t6 -7v-509q0 -5 -6 -7.5t-22 -2.5h-8q-17 0 -23 2zM-11 589q-3 0 -11 8l-5 6q-5 6 -6 9.5t2 6.5l94 100q6 6 13 8t21 2h26q14 0 21 -2t13 -8l94 -100q2 -2 2 -5t-6 -11l-5 -6q-5 -6 -8.5 -7.5t-7.5 1.5l-116 97l-116 -97
q-4 -2 -5 -2z" />
    <glyph glyph-name="idieresis" unicode="&#xef;" horiz-adv-x="222" 
d="M84 2q-6 2 -6 8v509q0 5 6 7t22 2h8q17 0 23 -2t6 -7v-509q0 -5 -6 -7.5t-22 -2.5h-8q-17 0 -23 2zM-25.5 621q-13.5 14 -13.5 33q0 20 14 34t33 14t33.5 -14t14.5 -34q0 -19 -14 -33t-34 -14t-33.5 14zM176.5 621q-13.5 14 -13.5 33q0 20 14 34t33 14t33.5 -14t14.5 -34
q0 -19 -14 -33t-34 -14t-33.5 14z" />
    <glyph glyph-name="i.loclTRK" horiz-adv-x="222" 
d="M84 2q-6 2 -6 8v509q0 5 6 7t22 2h8q17 0 23 -2t6 -7v-509q0 -5 -6 -7.5t-22 -2.5h-8q-17 0 -23 2zM76 627.5q-13 13.5 -13 32.5q0 20 13.5 33.5t32.5 13.5t33 -13.5t14 -33.5q0 -19 -13.5 -32.5t-33.5 -13.5t-33 13.5z" />
    <glyph glyph-name="igrave" unicode="&#xec;" horiz-adv-x="222" 
d="M84 2q-6 2 -6 8v509q0 5 6 7t22 2h8q17 0 23 -2t6 -7v-509q0 -5 -6 -7.5t-22 -2.5h-8q-17 0 -23 2zM127 587q-5 1 -8 5l-88 119q-2 4 -2 5q0 5 23 5h15q19 0 26 -2t10 -8l67 -118l1 -2q0 -5 -21 -5h-4q-14 0 -19 1z" />
    <glyph glyph-name="ij" unicode="&#x133;" horiz-adv-x="467" 
d="M74.5 672q-15.5 15 -15.5 38q0 22 15.5 38t36.5 16t36.5 -16t15.5 -38q0 -23 -15.5 -38t-36.5 -15t-36.5 15zM84 2q-6 2 -6 8v509q0 5 6 7t22 2h8q17 0 23 -2t6 -7v-509q0 -5 -6 -7.5t-22 -2.5h-8q-17 0 -23 2zM319.5 672q-15.5 15 -15.5 38q0 22 15.5 38t36.5 16
t36.5 -16t15.5 -38q0 -23 -15.5 -38t-36.5 -15t-36.5 15zM144 -234q-4 1 -4 10q0 8 1 14l1 6q2 14 4.5 18t6.5 3q25 -7 50 -7q66 0 93 41t27 138v530q0 5 6.5 7t21.5 2h8q17 0 23 -2t6 -7v-528q0 -125 -44.5 -180.5t-134.5 -55.5q-38 0 -65 11z" />
    <glyph glyph-name="imacron" unicode="&#x12b;" horiz-adv-x="222" 
d="M84 2q-6 2 -6 8v509q0 5 6 7t22 2h8q17 0 23 -2t6 -7v-509q0 -5 -6 -7.5t-22 -2.5h-8q-17 0 -23 2zM-27.5 638.5q-1.5 5.5 -1.5 19.5v3q0 15 1.5 19t6.5 4h262q5 0 6.5 -4t1.5 -19v-3q0 -14 -1.5 -19.5t-6.5 -5.5h-262q-5 0 -6.5 5.5z" />
    <glyph glyph-name="iogonek" unicode="&#x12f;" horiz-adv-x="221" 
d="M74.5 672q-15.5 15 -15.5 38q0 22 15.5 38t36.5 16t36.5 -16t15.5 -38q0 -23 -15.5 -38t-36.5 -15t-36.5 15zM36 -203q-29 26 -29 70q0 73 71 133v519q0 5 6 7t22 2h8q17 0 23 -2t6 -7v-501q0 -5 -1.5 -8.5t-7.5 -9.5q-35 -35 -52.5 -63.5t-17.5 -64.5q0 -27 15.5 -42
t42.5 -15q15 0 49 9h2q4 0 8 -14l1 -5q1 -8 1 -12.5t-3 -5.5q-35 -16 -73 -16q-42 0 -71 26z" />
    <glyph glyph-name="itilde" unicode="&#x129;" horiz-adv-x="222" 
d="M84 2q-6 2 -6 8v509q0 5 6 7t22 2h8q17 0 23 -2t6 -7v-509q0 -5 -6 -7.5t-22 -2.5h-8q-17 0 -23 2zM137.5 626q-15.5 5 -36.5 15q-18 9 -30.5 13.5t-26.5 4.5q-15 0 -28 -7t-30 -23q-1 -1 -4 -1q-6 0 -12 9l-8 10q-4 5 -4.5 8.5t2.5 7.5q14 18 39 31t49 13q19 0 34.5 -5
t36.5 -15q18 -9 30.5 -13.5t26.5 -4.5q15 0 28 7t30 23q1 1 4 1q6 0 12 -9l8 -10q4 -5 4.5 -8.5t-2.5 -7.5q-14 -18 -39 -31t-49 -13q-19 0 -34.5 5z" />
    <glyph glyph-name="j" unicode="j" horiz-adv-x="246" 
d="M98.5 672q-15.5 15 -15.5 38q0 22 15.5 38t36.5 16t36.5 -16t15.5 -38q0 -23 -15.5 -38t-36.5 -15t-36.5 15zM-77 -234q-4 1 -4 10q0 8 1 14l1 6q2 14 4.5 18t6.5 3q25 -7 50 -7q66 0 93 41t27 138v530q0 5 6.5 7t21.5 2h8q17 0 23 -2t6 -7v-528q0 -125 -44.5 -180.5
t-134.5 -55.5q-38 0 -65 11z" />
    <glyph glyph-name="uni0237" unicode="&#x237;" horiz-adv-x="246" 
d="M-77 -234q-4 1 -4 10q0 8 1 14l1 6q2 14 4.5 18t6.5 3q25 -7 50 -7q66 0 93 41t27 138v530q0 5 6.5 7t21.5 2h8q17 0 23 -2t6 -7v-528q0 -125 -44.5 -180.5t-134.5 -55.5q-38 0 -65 11z" />
    <glyph glyph-name="jcircumflex" unicode="&#x135;" horiz-adv-x="246" 
d="M-77 -234q-4 1 -4 10q0 8 1 14l1 6q2 14 4.5 18t6.5 3q25 -7 50 -7q66 0 93 41t27 138v530q0 5 6.5 7t21.5 2h8q17 0 23 -2t6 -7v-528q0 -125 -44.5 -180.5t-134.5 -55.5q-38 0 -65 11zM13 589q-3 0 -11 8l-5 6q-5 6 -6 9.5t2 6.5l94 100q6 6 13 8t21 2h26q14 0 21 -2
t13 -8l94 -100q2 -2 2 -5t-6 -11l-5 -6q-5 -6 -8.5 -7.5t-7.5 1.5l-116 97l-116 -97q-4 -2 -5 -2z" />
    <glyph glyph-name="k" unicode="k" horiz-adv-x="478" 
d="M78 9v742q0 9 28 9h8q29 0 29 -9v-462l58 50q44 37 87.5 84.5t78.5 94.5q4 6 11.5 8t24.5 2h5q20 0 25 -2t1 -9q-26 -39 -71.5 -92t-98.5 -102l190 -309q6 -8 -0.5 -11t-26.5 -3h-4q-24 0 -30 2t-11 9l-166 271l-73 -63v-210q0 -9 -28 -9h-8q-29 0 -29 9z" />
    <glyph glyph-name="kcommaaccent" unicode="&#x137;" horiz-adv-x="478" 
d="M78 9v742q0 9 28 9h8q29 0 29 -9v-462l58 50q44 37 87.5 84.5t78.5 94.5q4 6 11.5 8t24.5 2h5q20 0 25 -2t1 -9q-26 -39 -71.5 -92t-98.5 -102l190 -309q6 -8 -0.5 -11t-26.5 -3h-4q-24 0 -30 2t-11 9l-166 271l-73 -63v-210q0 -9 -28 -9h-8q-29 0 -29 9zM220 -276
q-3 0 -9 6l-5 5q-4 4 -4 7t3 6q20 21 34.5 44.5t14.5 42.5q0 12 -4.5 20.5t-13.5 18.5q-8 9 -12 16.5t-4 18.5q0 17 12 27.5t29 10.5q22 0 35.5 -15.5t13.5 -38.5q0 -47 -22.5 -91t-62.5 -76q-4 -2 -5 -2z" />
    <glyph glyph-name="kgreenlandic" unicode="&#x138;" horiz-adv-x="478" 
d="M78 9v510q0 9 28 9h8q29 0 29 -9v-230l58 50q44 37 87.5 84.5t78.5 94.5q4 6 11.5 8t24.5 2h5q20 0 25 -2t1 -9q-26 -39 -71.5 -92t-98.5 -102l190 -309q6 -8 -0.5 -11t-26.5 -3h-4q-24 0 -30 2t-11 9l-166 271l-73 -63v-210q0 -9 -28 -9h-8q-29 0 -29 9z" />
    <glyph glyph-name="l" unicode="l" horiz-adv-x="245" 
d="M86 28q-15 23 -15 104v351q0 163 -4 268q0 5 6 7t22 2h8q17 0 23 -2t6 -7q4 -77 4 -291v-348q0 -35 7 -48t29 -13q8 0 20 2h2q3 0 4.5 -4.5t2.5 -13.5l1 -7q1 -4 1 -10q0 -9 -10 -12q-19 -6 -41 -6q-47 0 -66 28z" />
    <glyph glyph-name="lacute" unicode="&#x13a;" horiz-adv-x="245" 
d="M86 28q-15 23 -15 104v351q0 163 -4 268q0 5 6 7t22 2h8q17 0 23 -2t6 -7q4 -77 4 -291v-348q0 -35 7 -48t29 -13q8 0 20 2h2q3 0 4.5 -4.5t2.5 -13.5l1 -7q1 -4 1 -10q0 -9 -10 -12q-19 -6 -41 -6q-47 0 -66 28zM55 797l67 118q3 6 10 8t26 2h15q17 0 21 -2.5t0 -7.5
l-88 -119q-3 -4 -8 -5t-19 -1h-4q-24 0 -20 7z" />
    <glyph glyph-name="lcaron" unicode="&#x13e;" horiz-adv-x="282" 
d="M86 28q-15 23 -15 104v351q0 163 -4 268q0 5 6 7t22 2h8q17 0 23 -2t6 -7q4 -77 4 -291v-348q0 -35 7 -48t29 -13q8 0 20 2h2q3 0 4.5 -4.5t2.5 -13.5l1 -7q1 -4 1 -10q0 -9 -10 -12q-19 -6 -41 -6q-47 0 -66 28zM202 507q-3 0 -9 6l-5 5q-4 4 -4 7t3 6q20 21 34.5 44.5
t14.5 42.5q0 12 -4.5 20.5t-13.5 18.5q-8 9 -12 16.5t-4 18.5q0 17 12 27.5t29 10.5q22 0 35.5 -15.5t13.5 -38.5q0 -47 -22.5 -91t-62.5 -76q-4 -2 -5 -2z" />
    <glyph glyph-name="lcommaaccent" unicode="&#x13c;" horiz-adv-x="245" 
d="M86 28q-15 23 -15 104v351q0 163 -4 268q0 5 6 7t22 2h8q17 0 23 -2t6 -7q4 -77 4 -291v-348q0 -35 7 -48t29 -13q8 0 20 2h2q3 0 4.5 -4.5t2.5 -13.5l1 -7q1 -4 1 -10q0 -9 -10 -12q-19 -6 -41 -6q-47 0 -66 28zM87 -276q-3 0 -9 6l-5 5q-4 4 -4 7t3 6q20 21 34.5 44.5
t14.5 42.5q0 12 -4.5 20.5t-13.5 18.5q-8 9 -12 16.5t-4 18.5q0 17 12 27.5t29 10.5q22 0 35.5 -15.5t13.5 -38.5q0 -47 -22.5 -91t-62.5 -76q-4 -2 -5 -2z" />
    <glyph glyph-name="ldot" unicode="&#x140;" horiz-adv-x="293" 
d="M86 28q-15 23 -15 104v351q0 163 -4 268q0 5 6 7t22 2h8q17 0 23 -2t6 -7q4 -77 4 -291v-348q0 -35 7 -48t29 -13q8 0 20 2h2q3 0 4.5 -4.5t2.5 -13.5l1 -7q1 -4 1 -10q0 -9 -10 -12q-19 -6 -41 -6q-47 0 -66 28zM215 303.5q-13 13.5 -13 32.5q0 20 13.5 33.5t32.5 13.5
t33 -13.5t14 -33.5q0 -19 -13.5 -32.5t-33.5 -13.5t-33 13.5z" />
    <glyph glyph-name="lslash" unicode="&#x142;" horiz-adv-x="245" 
d="M86 28q-15 23 -15 104v191l-53 -41l-5 -2q-7 0 -7 16v9q0 12 1.5 16.5t6.5 8.5l57 44v109q0 163 -4 268q0 5 6 7t22 2h8q17 0 23 -2t6 -7q4 -77 4 -291v-36l73 57q3 3 6 3q6 0 6 -18v-7q0 -12 -1.5 -17t-6.5 -9l-77 -60v-261q0 -35 7 -48t29 -13q8 0 20 2h2q3 0 4.5 -4.5
t2.5 -13.5l1 -7q1 -4 1 -10q0 -9 -10 -12q-19 -6 -41 -6q-47 0 -66 28z" />
    <glyph glyph-name="m" unicode="m" horiz-adv-x="924" 
d="M79 9v378q0 93 -2 132q0 6 5 7.5t21 1.5h8q17 0 23 -1.5t6 -7.5l3 -61q55 80 169 80q87 0 137 -52q20 -22 29 -45q61 97 182 97q45 0 81.5 -13.5t61.5 -38.5q25 -26 37 -66.5t12 -101.5v-309q0 -9 -28 -9h-8q-29 0 -29 9v264q0 70 -6 105t-26 58q-32 38 -106 38
q-84 0 -125 -55q-18 -24 -23 -66q-3 -25 -3 -72v-272q0 -9 -28 -9h-8q-29 0 -29 9v264q0 70 -6 105t-26 58q-32 38 -106 38q-84 0 -125 -55q-18 -24 -23 -66q-3 -29 -3 -145v-199q0 -9 -28 -9h-8q-29 0 -29 9z" />
    <glyph glyph-name="n" unicode="n" horiz-adv-x="581" 
d="M85 2.5q-6 2.5 -6 8.5v376q0 87 -2 132q0 5 6 7t21 2h7q15 0 21 -2t6 -7l3 -64q60 83 176 83q93 0 143 -52q25 -26 37 -66.5t12 -101.5v-307q0 -6 -6 -8.5t-22 -2.5h-8q-17 0 -23 2.5t-6 8.5v262q0 70 -6 105t-26 58q-32 38 -111 38q-78 0 -124 -49q-12 -13 -20 -32.5
t-10 -39.5q-3 -29 -3 -145v-197q0 -11 -28 -11h-8q-17 0 -23 2.5z" />
    <glyph glyph-name="nacute" unicode="&#x144;" horiz-adv-x="581" 
d="M85 2.5q-6 2.5 -6 8.5v376q0 87 -2 132q0 5 6 7t21 2h7q15 0 21 -2t6 -7l3 -64q60 83 176 83q93 0 143 -52q25 -26 37 -66.5t12 -101.5v-307q0 -6 -6 -8.5t-22 -2.5h-8q-17 0 -23 2.5t-6 8.5v262q0 70 -6 105t-26 58q-32 38 -111 38q-78 0 -124 -49q-12 -13 -20 -32.5
t-10 -39.5q-3 -29 -3 -145v-197q0 -11 -28 -11h-8q-17 0 -23 2.5zM249 593l67 118q3 6 10 8t26 2h15q17 0 21 -2.5t0 -7.5l-88 -119q-3 -4 -8 -5t-19 -1h-4q-24 0 -20 7z" />
    <glyph glyph-name="nacute.loclPLK" horiz-adv-x="581" 
d="M85 2.5q-6 2.5 -6 8.5v376q0 87 -2 132q0 5 6 7t21 2h7q15 0 21 -2t6 -7l3 -64q60 83 176 83q93 0 143 -52q25 -26 37 -66.5t12 -101.5v-307q0 -6 -6 -8.5t-22 -2.5h-8q-17 0 -23 2.5t-6 8.5v262q0 70 -6 105t-26 58q-32 38 -111 38q-78 0 -124 -49q-12 -13 -20 -32.5
t-10 -39.5q-3 -29 -3 -145v-197q0 -11 -28 -11h-8q-17 0 -23 2.5zM269 588q-4 2 -3 7l26 115q2 7 7 9t24 2h11q18 0 23 -2t3 -8l-45 -117q-2 -5 -6.5 -6.5t-19.5 -1.5h-3q-13 0 -17 2z" />
    <glyph glyph-name="napostrophe" unicode="&#x149;" horiz-adv-x="640" 
d="M144 2.5q-6 2.5 -6 8.5v376q0 87 -2 132q0 5 6 7t21 2h7q15 0 21 -2t6 -7l3 -64q60 83 176 83q93 0 143 -52q25 -26 37 -66.5t12 -101.5v-307q0 -6 -6 -8.5t-22 -2.5h-8q-17 0 -23 2.5t-6 8.5v262q0 70 -6 105t-26 58q-32 38 -111 38q-78 0 -124 -49q-12 -13 -20 -32.5
t-10 -39.5q-3 -29 -3 -145v-197q0 -11 -28 -11h-8q-17 0 -23 2.5zM11 446q-3 0 -11 8l-4 5q-5 6 -5.5 9t3.5 7q25 25 44 56t19 56q0 16 -6 26.5t-18 23.5q-11 12 -16.5 21.5t-5.5 23.5q0 21 15 34.5t37 13.5q28 0 45 -20t17 -49q0 -58 -29.5 -115.5t-78.5 -96.5q-3 -3 -6 -3
z" />
    <glyph glyph-name="ncaron" unicode="&#x148;" horiz-adv-x="581" 
d="M85 2.5q-6 2.5 -6 8.5v376q0 87 -2 132q0 5 6 7t21 2h7q15 0 21 -2t6 -7l3 -64q60 83 176 83q93 0 143 -52q25 -26 37 -66.5t12 -101.5v-307q0 -6 -6 -8.5t-22 -2.5h-8q-17 0 -23 2.5t-6 8.5v262q0 70 -6 105t-26 58q-32 38 -111 38q-78 0 -124 -49q-12 -13 -20 -32.5
t-10 -39.5q-3 -29 -3 -145v-197q0 -11 -28 -11h-8q-17 0 -23 2.5zM269 585q-7 2 -13 8l-94 100q-2 2 -2 5q0 4 6 11l5 6q5 6 8.5 7.5t7.5 -1.5l116 -97l116 97q4 2 5 2q3 0 11 -8l5 -6q5 -6 6 -9.5t-2 -6.5l-94 -100q-6 -6 -13 -8t-21 -2h-26q-14 0 -21 2z" />
    <glyph glyph-name="ncommaaccent" unicode="&#x146;" horiz-adv-x="581" 
d="M85 2.5q-6 2.5 -6 8.5v376q0 87 -2 132q0 5 6 7t21 2h7q15 0 21 -2t6 -7l3 -64q60 83 176 83q93 0 143 -52q25 -26 37 -66.5t12 -101.5v-307q0 -6 -6 -8.5t-22 -2.5h-8q-17 0 -23 2.5t-6 8.5v262q0 70 -6 105t-26 58q-32 38 -111 38q-78 0 -124 -49q-12 -13 -20 -32.5
t-10 -39.5q-3 -29 -3 -145v-197q0 -11 -28 -11h-8q-17 0 -23 2.5zM255 -276q-3 0 -9 6l-5 5q-4 4 -4 7t3 6q20 21 34.5 44.5t14.5 42.5q0 12 -4.5 20.5t-13.5 18.5q-8 9 -12 16.5t-4 18.5q0 17 12 27.5t29 10.5q22 0 35.5 -15.5t13.5 -38.5q0 -47 -22.5 -91t-62.5 -76
q-4 -2 -5 -2z" />
    <glyph glyph-name="eng" unicode="&#x14b;" horiz-adv-x="581" 
d="M265 -184q-4 1 -4 10q0 8 1 14l1 6q2 14 4.5 18t6.5 3q25 -7 50 -7q66 0 93 41t27 138v234q0 70 -6 105t-26 58q-32 38 -111 38q-78 0 -124 -49q-12 -13 -20 -32.5t-10 -39.5q-3 -29 -3 -145v-197q0 -11 -28 -11h-8q-17 0 -23 2.5t-6 8.5v376q0 87 -2 132q0 5 6 7t21 2h7
q15 0 21 -2t6 -7l3 -64q60 83 176 83q93 0 143 -52q25 -26 37 -66.5t12 -101.5v-277q0 -125 -44.5 -180.5t-134.5 -55.5q-37 0 -65 11z" />
    <glyph glyph-name="ntilde" unicode="&#xf1;" horiz-adv-x="581" 
d="M85 2.5q-6 2.5 -6 8.5v376q0 87 -2 132q0 5 6 7t21 2h7q15 0 21 -2t6 -7l3 -64q60 83 176 83q93 0 143 -52q25 -26 37 -66.5t12 -101.5v-307q0 -6 -6 -8.5t-22 -2.5h-8q-17 0 -23 2.5t-6 8.5v262q0 70 -6 105t-26 58q-32 38 -111 38q-78 0 -124 -49q-12 -13 -20 -32.5
t-10 -39.5q-3 -29 -3 -145v-197q0 -11 -28 -11h-8q-17 0 -23 2.5zM330.5 626q-15.5 5 -36.5 15q-18 9 -30.5 13.5t-26.5 4.5q-15 0 -28 -7t-30 -23q-1 -1 -4 -1q-6 0 -12 9l-8 10q-4 5 -4.5 8.5t2.5 7.5q14 18 39 31t49 13q19 0 34.5 -5t36.5 -15q18 -9 30.5 -13.5
t26.5 -4.5q15 0 28 7t30 23q1 1 4 1q6 0 12 -9l8 -10q4 -5 4.5 -8.5t-2.5 -7.5q-14 -18 -39 -31t-49 -13q-19 0 -34.5 5z" />
    <glyph glyph-name="o" unicode="o" horiz-adv-x="566" 
d="M126 39q-38 34 -58.5 88t-20.5 125q0 139 66 212.5t180 73.5q92 0 147 -49q38 -34 58.5 -88t20.5 -125q0 -139 -66 -212.5t-180 -73.5q-92 0 -147 49zM400 103q49 54 49 166q0 89 -37 149.5t-123 60.5q-75 0 -123.5 -54.5t-48.5 -165.5q0 -89 37 -149.5t122 -60.5
q75 0 124 54z" />
    <glyph glyph-name="oacute" unicode="&#xf3;" horiz-adv-x="566" 
d="M126 39q-38 34 -58.5 88t-20.5 125q0 139 66 212.5t180 73.5q92 0 147 -49q38 -34 58.5 -88t20.5 -125q0 -139 -66 -212.5t-180 -73.5q-92 0 -147 49zM400 103q49 54 49 166q0 89 -37 149.5t-123 60.5q-75 0 -123.5 -54.5t-48.5 -165.5q0 -89 37 -149.5t122 -60.5
q75 0 124 54zM229 593l67 118q3 6 10 8t26 2h15q17 0 21 -2.5t0 -7.5l-88 -119q-3 -4 -8 -5t-19 -1h-4q-24 0 -20 7z" />
    <glyph glyph-name="oacute.loclPLK" horiz-adv-x="566" 
d="M126 39q-38 34 -58.5 88t-20.5 125q0 139 66 212.5t180 73.5q92 0 147 -49q38 -34 58.5 -88t20.5 -125q0 -139 -66 -212.5t-180 -73.5q-92 0 -147 49zM400 103q49 54 49 166q0 89 -37 149.5t-123 60.5q-75 0 -123.5 -54.5t-48.5 -165.5q0 -89 37 -149.5t122 -60.5
q75 0 124 54zM249 588q-4 2 -3 7l26 115q2 7 7 9t24 2h11q18 0 23 -2t3 -8l-45 -117q-2 -5 -6.5 -6.5t-19.5 -1.5h-3q-13 0 -17 2z" />
    <glyph glyph-name="obreve" unicode="&#x14f;" horiz-adv-x="566" 
d="M126 39q-38 34 -58.5 88t-20.5 125q0 139 66 212.5t180 73.5q92 0 147 -49q38 -34 58.5 -88t20.5 -125q0 -139 -66 -212.5t-180 -73.5q-92 0 -147 49zM400 103q49 54 49 166q0 89 -37 149.5t-123 60.5q-75 0 -123.5 -54.5t-48.5 -165.5q0 -89 37 -149.5t122 -60.5
q75 0 124 54zM185.5 625q-38.5 30 -38.5 81q0 3 3 4.5t16 1.5h12q13 0 15.5 -1.5t3.5 -8.5q4 -32 26 -49t60 -17t60 17t26 49q1 7 3.5 8.5t15.5 1.5h12q12 0 15.5 -1.5t3.5 -4.5q0 -51 -38.5 -81t-97.5 -30t-97.5 30z" />
    <glyph glyph-name="ocircumflex" unicode="&#xf4;" horiz-adv-x="566" 
d="M126 39q-38 34 -58.5 88t-20.5 125q0 139 66 212.5t180 73.5q92 0 147 -49q38 -34 58.5 -88t20.5 -125q0 -139 -66 -212.5t-180 -73.5q-92 0 -147 49zM400 103q49 54 49 166q0 89 -37 149.5t-123 60.5q-75 0 -123.5 -54.5t-48.5 -165.5q0 -89 37 -149.5t122 -60.5
q75 0 124 54zM162 589q-3 0 -11 8l-5 6q-5 6 -6 9.5t2 6.5l94 100q6 6 13 8t21 2h26q14 0 21 -2t13 -8l94 -100q2 -2 2 -5t-6 -11l-5 -6q-5 -6 -8.5 -7.5t-7.5 1.5l-116 97l-116 -97q-4 -2 -5 -2z" />
    <glyph glyph-name="odieresis" unicode="&#xf6;" horiz-adv-x="566" 
d="M126 39q-38 34 -58.5 88t-20.5 125q0 139 66 212.5t180 73.5q92 0 147 -49q38 -34 58.5 -88t20.5 -125q0 -139 -66 -212.5t-180 -73.5q-92 0 -147 49zM400 103q49 54 49 166q0 89 -37 149.5t-123 60.5q-75 0 -123.5 -54.5t-48.5 -165.5q0 -89 37 -149.5t122 -60.5
q75 0 124 54zM147.5 621q-13.5 14 -13.5 33q0 20 14 34t33 14t33.5 -14t14.5 -34q0 -19 -14 -33t-34 -14t-33.5 14zM349.5 621q-13.5 14 -13.5 33q0 20 14 34t33 14t33.5 -14t14.5 -34q0 -19 -14 -33t-34 -14t-33.5 14z" />
    <glyph glyph-name="ograve" unicode="&#xf2;" horiz-adv-x="566" 
d="M126 39q-38 34 -58.5 88t-20.5 125q0 139 66 212.5t180 73.5q92 0 147 -49q38 -34 58.5 -88t20.5 -125q0 -139 -66 -212.5t-180 -73.5q-92 0 -147 49zM400 103q49 54 49 166q0 89 -37 149.5t-123 60.5q-75 0 -123.5 -54.5t-48.5 -165.5q0 -89 37 -149.5t122 -60.5
q75 0 124 54zM300 587q-5 1 -8 5l-88 119q-2 4 -2 5q0 5 23 5h15q19 0 26 -2t10 -8l67 -118l1 -2q0 -5 -21 -5h-4q-14 0 -19 1z" />
    <glyph glyph-name="ohungarumlaut" unicode="&#x151;" horiz-adv-x="566" 
d="M126 39q-38 34 -58.5 88t-20.5 125q0 139 66 212.5t180 73.5q92 0 147 -49q38 -34 58.5 -88t20.5 -125q0 -139 -66 -212.5t-180 -73.5q-92 0 -147 49zM400 103q49 54 49 166q0 89 -37 149.5t-123 60.5q-75 0 -123.5 -54.5t-48.5 -165.5q0 -89 37 -149.5t122 -60.5
q75 0 124 54zM148 593l67 118q3 6 10 8t26 2h15q17 0 21 -2.5t0 -7.5l-88 -119q-3 -4 -8 -5t-19 -1h-4q-24 0 -20 7zM305 593l67 118q3 6 10 8t26 2h15q17 0 21 -2.5t0 -7.5l-88 -119q-3 -4 -8 -5t-19 -1h-4q-24 0 -20 7z" />
    <glyph glyph-name="omacron" unicode="&#x14d;" horiz-adv-x="566" 
d="M126 39q-38 34 -58.5 88t-20.5 125q0 139 66 212.5t180 73.5q92 0 147 -49q38 -34 58.5 -88t20.5 -125q0 -139 -66 -212.5t-180 -73.5q-92 0 -147 49zM400 103q49 54 49 166q0 89 -37 149.5t-123 60.5q-75 0 -123.5 -54.5t-48.5 -165.5q0 -89 37 -149.5t122 -60.5
q75 0 124 54zM145.5 638.5q-1.5 5.5 -1.5 19.5v3q0 15 1.5 19t6.5 4h262q5 0 6.5 -4t1.5 -19v-3q0 -14 -1.5 -19.5t-6.5 -5.5h-262q-5 0 -6.5 5.5z" />
    <glyph glyph-name="oslash" unicode="&#xf8;" horiz-adv-x="566" 
d="M105 -30q-5 0 -22 11l-6 4q-15 11 -15 17q0 3 3 7l39 53q-27 34 -42 82t-15 108q0 139 66 212.5t180 73.5q75 0 127 -34l41 57q3 5 7 5q6 0 22 -12l4 -3q8 -6 12.5 -10t4.5 -8q0 -3 -3 -8l-44 -62q26 -34 40.5 -81.5t14.5 -105.5q0 -139 -66 -212.5t-180 -73.5
q-77 0 -126 33l-35 -48q-3 -5 -7 -5zM381 450q-37 29 -92 29q-75 0 -123.5 -54.5t-48.5 -165.5q0 -84 29 -138zM400 103q49 54 49 166q0 82 -29 134l-235 -327q37 -27 91 -27q75 0 124 54z" />
    <glyph glyph-name="oslashacute" unicode="&#x1ff;" horiz-adv-x="566" 
d="M105 -30q-5 0 -22 11l-6 4q-15 11 -15 17q0 3 3 7l39 53q-27 34 -42 82t-15 108q0 139 66 212.5t180 73.5q75 0 127 -34l41 57q3 5 7 5q6 0 22 -12l4 -3q8 -6 12.5 -10t4.5 -8q0 -3 -3 -8l-44 -62q26 -34 40.5 -81.5t14.5 -105.5q0 -139 -66 -212.5t-180 -73.5
q-77 0 -126 33l-35 -48q-3 -5 -7 -5zM381 450q-37 29 -92 29q-75 0 -123.5 -54.5t-48.5 -165.5q0 -84 29 -138zM400 103q49 54 49 166q0 82 -29 134l-235 -327q37 -27 91 -27q75 0 124 54zM229 593l67 118q3 6 10 8t26 2h15q17 0 21 -2.5t0 -7.5l-88 -119q-3 -4 -8 -5
t-19 -1h-4q-24 0 -20 7z" />
    <glyph glyph-name="otilde" unicode="&#xf5;" horiz-adv-x="566" 
d="M126 39q-38 34 -58.5 88t-20.5 125q0 139 66 212.5t180 73.5q92 0 147 -49q38 -34 58.5 -88t20.5 -125q0 -139 -66 -212.5t-180 -73.5q-92 0 -147 49zM400 103q49 54 49 166q0 89 -37 149.5t-123 60.5q-75 0 -123.5 -54.5t-48.5 -165.5q0 -89 37 -149.5t122 -60.5
q75 0 124 54zM310.5 626q-15.5 5 -36.5 15q-18 9 -30.5 13.5t-26.5 4.5q-15 0 -28 -7t-30 -23q-1 -1 -4 -1q-6 0 -12 9l-8 10q-4 5 -4.5 8.5t2.5 7.5q14 18 39 31t49 13q19 0 34.5 -5t36.5 -15q18 -9 30.5 -13.5t26.5 -4.5q15 0 28 7t30 23q1 1 4 1q6 0 12 -9l8 -10
q4 -5 4.5 -8.5t-2.5 -7.5q-14 -18 -39 -31t-49 -13q-19 0 -34.5 5z" />
    <glyph glyph-name="oe" unicode="&#x153;" horiz-adv-x="909" 
d="M123 39q-36 34 -56 88.5t-20 125.5q0 138 63.5 211.5t172.5 73.5q89 0 141 -49q28 -28 45 -62q28 54 76 82.5t112 28.5q58 0 103 -28.5t70 -79.5q34 -69 34 -162q0 -16 -3 -20.5t-11 -4.5h-349q4 -106 51 -151q22 -21 49.5 -31t66.5 -10q76 0 137 30q5 3 8 3q4 0 7 -5
t7 -14l4 -10q4 -9 4 -17q0 -6 -5 -9q-75 -39 -170 -39q-72 0 -124.5 31.5t-72.5 82.5q-30 -56 -81 -85t-118 -29q-89 0 -141 49zM385.5 103q46.5 54 46.5 166q0 89 -35 149.5t-118 60.5q-71 0 -117 -54t-46 -165q0 -90 34.5 -150.5t116.5 -60.5q72 0 118.5 54zM797 295
q-2 76 -38 129t-104 53q-67 0 -107 -47.5t-46 -134.5h295z" />
    <glyph glyph-name="p" unicode="p" horiz-adv-x="560" 
d="M83 -231q-6 2 -6 7v743q0 5 5.5 7t21.5 2h8q14 0 20 -2t6 -7l3 -50q27 34 67 51.5t90 17.5q101 0 158 -67.5t57 -195.5q0 -77 -27.5 -142t-81 -104t-126.5 -39q-82 0 -136 48v-262q0 -9 -29 -9h-8q-16 0 -22 2zM399.5 109.5q43.5 60.5 43.5 162.5q0 106 -40.5 156
t-113.5 50q-78 0 -115 -45q-16 -21 -24 -55t-8 -113v-163q24 -24 60 -38.5t76 -14.5q78 0 121.5 60.5z" />
    <glyph glyph-name="thorn" unicode="&#xfe;" horiz-adv-x="561" 
d="M84 -231q-6 2 -6 7v985q0 5 5.5 7t22.5 2h8q16 0 22.5 -2t6.5 -7v-291q53 68 156 68q101 0 158 -67.5t57 -195.5q0 -77 -27.5 -142t-81 -104t-126.5 -39q-82 0 -136 48v-262q0 -9 -29 -9h-8q-16 0 -22 2zM400.5 109.5q43.5 60.5 43.5 162.5q0 106 -40.5 156t-113.5 50
q-78 0 -115 -45q-16 -21 -24 -55t-8 -113v-163q24 -24 60 -38.5t76 -14.5q78 0 121.5 60.5z" />
    <glyph glyph-name="q" unicode="q" horiz-adv-x="560" 
d="M430 -231.5q-6 1.5 -6 6.5q-6 118 -6 302q-23 -42 -64.5 -64.5t-96.5 -22.5q-103 0 -156.5 71.5t-53.5 188.5q0 88 32.5 153t92.5 100t141 35t156 -29q7 -2 10.5 -6.5t3.5 -12.5v-435q0 -186 6 -280q0 -5 -6.5 -6.5t-23.5 -1.5h-6q-17 0 -23 1.5zM375 94q24 24 33.5 67.5
t9.5 140.5v158q-52 21 -105 21q-94 0 -145 -60.5t-51 -163.5q0 -102 38 -155t113 -53q62 0 107 45z" />
    <glyph glyph-name="r" unicode="r" horiz-adv-x="347" 
d="M84.5 2q-5.5 2 -5.5 7v348q0 54 -2 164q0 4 5.5 5.5t22.5 1.5h5q18 0 23.5 -1.5t5.5 -5.5l3 -116q21 61 61.5 95t86.5 34q20 0 30 -3q4 -1 5.5 -5t1.5 -16v-8q0 -17 -2 -24t-8 -7q-75 0 -123 -60q-42 -54 -47 -135q-3 -43 -3 -155v-112q0 -5 -6 -7t-24 -2h-6
q-18 0 -23.5 2z" />
    <glyph glyph-name="racute" unicode="&#x155;" horiz-adv-x="347" 
d="M84.5 2q-5.5 2 -5.5 7v348q0 54 -2 164q0 4 5.5 5.5t22.5 1.5h5q18 0 23.5 -1.5t5.5 -5.5l3 -116q21 61 61.5 95t86.5 34q20 0 30 -3q4 -1 5.5 -5t1.5 -16v-8q0 -17 -2 -24t-8 -7q-75 0 -123 -60q-42 -54 -47 -135q-3 -43 -3 -155v-112q0 -5 -6 -7t-24 -2h-6
q-18 0 -23.5 2zM160 593l67 118q3 6 10 8t26 2h15q17 0 21 -2.5t0 -7.5l-88 -119q-3 -4 -8 -5t-19 -1h-4q-24 0 -20 7z" />
    <glyph glyph-name="rcaron" unicode="&#x159;" horiz-adv-x="347" 
d="M84.5 2q-5.5 2 -5.5 7v348q0 54 -2 164q0 4 5.5 5.5t22.5 1.5h5q18 0 23.5 -1.5t5.5 -5.5l3 -116q21 61 61.5 95t86.5 34q20 0 30 -3q4 -1 5.5 -5t1.5 -16v-8q0 -17 -2 -24t-8 -7q-75 0 -123 -60q-42 -54 -47 -135q-3 -43 -3 -155v-112q0 -5 -6 -7t-24 -2h-6
q-18 0 -23.5 2zM180 585q-7 2 -13 8l-94 100q-2 2 -2 5q0 4 6 11l5 6q5 6 8.5 7.5t7.5 -1.5l116 -97l116 97q4 2 5 2q3 0 11 -8l5 -6q5 -6 6 -9.5t-2 -6.5l-94 -100q-6 -6 -13 -8t-21 -2h-26q-14 0 -21 2z" />
    <glyph glyph-name="rcommaaccent" unicode="&#x157;" horiz-adv-x="347" 
d="M84.5 2q-5.5 2 -5.5 7v348q0 54 -2 164q0 4 5.5 5.5t22.5 1.5h5q18 0 23.5 -1.5t5.5 -5.5l3 -116q21 61 61.5 95t86.5 34q20 0 30 -3q4 -1 5.5 -5t1.5 -16v-8q0 -17 -2 -24t-8 -7q-75 0 -123 -60q-42 -54 -47 -135q-3 -43 -3 -155v-112q0 -5 -6 -7t-24 -2h-6
q-18 0 -23.5 2zM69 -276q-3 0 -9 6l-5 5q-4 4 -4 7t3 6q20 21 34.5 44.5t14.5 42.5q0 12 -4.5 20.5t-13.5 18.5q-8 9 -12 16.5t-4 18.5q0 17 12 27.5t29 10.5q22 0 35.5 -15.5t13.5 -38.5q0 -47 -22.5 -91t-62.5 -76q-4 -2 -5 -2z" />
    <glyph glyph-name="s" unicode="s" horiz-adv-x="449" 
d="M50 37q-4 3 -4 7q0 5 7 18l3 6q8 15 12.5 18t10.5 -1q29 -18 65 -29.5t68 -11.5q62 0 96.5 24t34.5 74q0 30 -14.5 48t-41.5 29t-76 23q-83 20 -117 50q-20 17 -30.5 42t-10.5 54q0 71 48.5 110.5t127.5 39.5q44 0 85.5 -14t72.5 -38q4 -4 4 -7q0 -5 -9 -19l-4 -6
q-8 -12 -12.5 -14t-10.5 2q-30 20 -60.5 30t-67.5 10q-51 0 -80.5 -22.5t-29.5 -63.5q0 -31 15 -49t37.5 -26.5t67.5 -20.5q56 -15 90.5 -30.5t55 -44t20.5 -75.5q0 -76 -51.5 -118t-137.5 -42q-93 0 -164 47z" />
    <glyph glyph-name="sacute" unicode="&#x15b;" horiz-adv-x="449" 
d="M50 37q-4 3 -4 7q0 5 7 18l3 6q8 15 12.5 18t10.5 -1q29 -18 65 -29.5t68 -11.5q62 0 96.5 24t34.5 74q0 30 -14.5 48t-41.5 29t-76 23q-83 20 -117 50q-20 17 -30.5 42t-10.5 54q0 71 48.5 110.5t127.5 39.5q44 0 85.5 -14t72.5 -38q4 -4 4 -7q0 -5 -9 -19l-4 -6
q-8 -12 -12.5 -14t-10.5 2q-30 20 -60.5 30t-67.5 10q-51 0 -80.5 -22.5t-29.5 -63.5q0 -31 15 -49t37.5 -26.5t67.5 -20.5q56 -15 90.5 -30.5t55 -44t20.5 -75.5q0 -76 -51.5 -118t-137.5 -42q-93 0 -164 47zM181 593l67 118q3 6 10 8t26 2h15q17 0 21 -2.5t0 -7.5
l-88 -119q-3 -4 -8 -5t-19 -1h-4q-24 0 -20 7z" />
    <glyph glyph-name="sacute.loclPLK" horiz-adv-x="449" 
d="M50 37q-4 3 -4 7q0 5 7 18l3 6q8 15 12.5 18t10.5 -1q29 -18 65 -29.5t68 -11.5q62 0 96.5 24t34.5 74q0 30 -14.5 48t-41.5 29t-76 23q-83 20 -117 50q-20 17 -30.5 42t-10.5 54q0 71 48.5 110.5t127.5 39.5q44 0 85.5 -14t72.5 -38q4 -4 4 -7q0 -5 -9 -19l-4 -6
q-8 -12 -12.5 -14t-10.5 2q-30 20 -60.5 30t-67.5 10q-51 0 -80.5 -22.5t-29.5 -63.5q0 -31 15 -49t37.5 -26.5t67.5 -20.5q56 -15 90.5 -30.5t55 -44t20.5 -75.5q0 -76 -51.5 -118t-137.5 -42q-93 0 -164 47zM201 588q-4 2 -3 7l26 115q2 7 7 9t24 2h11q18 0 23 -2t3 -8
l-45 -117q-2 -5 -6.5 -6.5t-19.5 -1.5h-3q-13 0 -17 2z" />
    <glyph glyph-name="scaron" unicode="&#x161;" horiz-adv-x="449" 
d="M50 37q-4 3 -4 7q0 5 7 18l3 6q8 15 12.5 18t10.5 -1q29 -18 65 -29.5t68 -11.5q62 0 96.5 24t34.5 74q0 30 -14.5 48t-41.5 29t-76 23q-83 20 -117 50q-20 17 -30.5 42t-10.5 54q0 71 48.5 110.5t127.5 39.5q44 0 85.5 -14t72.5 -38q4 -4 4 -7q0 -5 -9 -19l-4 -6
q-8 -12 -12.5 -14t-10.5 2q-30 20 -60.5 30t-67.5 10q-51 0 -80.5 -22.5t-29.5 -63.5q0 -31 15 -49t37.5 -26.5t67.5 -20.5q56 -15 90.5 -30.5t55 -44t20.5 -75.5q0 -76 -51.5 -118t-137.5 -42q-93 0 -164 47zM201 585q-7 2 -13 8l-94 100q-2 2 -2 5q0 4 6 11l5 6
q5 6 8.5 7.5t7.5 -1.5l116 -97l116 97q4 2 5 2q3 0 11 -8l5 -6q5 -6 6 -9.5t-2 -6.5l-94 -100q-6 -6 -13 -8t-21 -2h-26q-14 0 -21 2z" />
    <glyph glyph-name="scedilla" unicode="&#x15f;" horiz-adv-x="449" 
d="M356.5 36.5q-46.5 -41.5 -124.5 -46.5l-8 -56q18 2 27 2q40 0 65 -21.5t25 -56.5q0 -38 -28 -64t-82 -26q-20 0 -41 3.5t-31 8.5q-3 1 -3 7t1 11l1 5q2 10 4 12.5t6 1.5q31 -7 55 -7q62 0 62 44q0 43 -61 43q-30 0 -53 -5l13 99q-76 8 -134 46q-4 3 -4 7q0 5 7 18l3 6
q8 15 12.5 18t10.5 -1q29 -18 65 -29.5t68 -11.5q62 0 96.5 24t34.5 74q0 30 -14.5 48t-41.5 29t-76 23q-83 20 -117 50q-20 17 -30.5 42t-10.5 54q0 71 48.5 110.5t127.5 39.5q44 0 85.5 -14t72.5 -38q4 -4 4 -7q0 -5 -9 -19l-4 -6q-8 -12 -12.5 -14t-10.5 2
q-30 20 -60.5 30t-67.5 10q-51 0 -80.5 -22.5t-29.5 -63.5q0 -31 15 -49t37.5 -26.5t67.5 -20.5q56 -15 90.5 -30.5t55 -44t20.5 -75.5q0 -72 -46.5 -113.5z" />
    <glyph glyph-name="scircumflex" unicode="&#x15d;" horiz-adv-x="449" 
d="M50 37q-4 3 -4 7q0 5 7 18l3 6q8 15 12.5 18t10.5 -1q29 -18 65 -29.5t68 -11.5q62 0 96.5 24t34.5 74q0 30 -14.5 48t-41.5 29t-76 23q-83 20 -117 50q-20 17 -30.5 42t-10.5 54q0 71 48.5 110.5t127.5 39.5q44 0 85.5 -14t72.5 -38q4 -4 4 -7q0 -5 -9 -19l-4 -6
q-8 -12 -12.5 -14t-10.5 2q-30 20 -60.5 30t-67.5 10q-51 0 -80.5 -22.5t-29.5 -63.5q0 -31 15 -49t37.5 -26.5t67.5 -20.5q56 -15 90.5 -30.5t55 -44t20.5 -75.5q0 -76 -51.5 -118t-137.5 -42q-93 0 -164 47zM114 589q-3 0 -11 8l-5 6q-5 6 -6 9.5t2 6.5l94 100q6 6 13 8
t21 2h26q14 0 21 -2t13 -8l94 -100q2 -2 2 -5t-6 -11l-5 -6q-5 -6 -8.5 -7.5t-7.5 1.5l-116 97l-116 -97q-4 -2 -5 -2z" />
    <glyph glyph-name="scommaaccent" unicode="&#x219;" horiz-adv-x="449" 
d="M50 37q-4 3 -4 7q0 5 7 18l3 6q8 15 12.5 18t10.5 -1q29 -18 65 -29.5t68 -11.5q62 0 96.5 24t34.5 74q0 30 -14.5 48t-41.5 29t-76 23q-83 20 -117 50q-20 17 -30.5 42t-10.5 54q0 71 48.5 110.5t127.5 39.5q44 0 85.5 -14t72.5 -38q4 -4 4 -7q0 -5 -9 -19l-4 -6
q-8 -12 -12.5 -14t-10.5 2q-30 20 -60.5 30t-67.5 10q-51 0 -80.5 -22.5t-29.5 -63.5q0 -31 15 -49t37.5 -26.5t67.5 -20.5q56 -15 90.5 -30.5t55 -44t20.5 -75.5q0 -76 -51.5 -118t-137.5 -42q-93 0 -164 47zM179 -276q-3 0 -9 6l-5 5q-4 4 -4 7t3 6q20 21 34.5 44.5
t14.5 42.5q0 12 -4.5 20.5t-13.5 18.5q-8 9 -12 16.5t-4 18.5q0 17 12 27.5t29 10.5q22 0 35.5 -15.5t13.5 -38.5q0 -47 -22.5 -91t-62.5 -76q-4 -2 -5 -2z" />
    <glyph glyph-name="germandbls" unicode="&#xdf;" horiz-adv-x="605" 
d="M246 26q-3 2 -3 6q0 6 7 20l2 4q7 15 12 19t10 1q23 -13 53 -21t60 -8q56 0 88 27t32 79q0 34 -12.5 55t-33.5 33.5t-59 27.5q-63 24 -94 58.5t-31 81.5q0 34 13.5 61t49.5 64q23 24 32.5 44.5t9.5 45.5q0 42 -27.5 67t-79.5 25q-65 0 -98.5 -43.5t-33.5 -144.5v-518
q0 -5 -6 -7.5t-22 -2.5h-8q-17 0 -23 2t-6 8v516q0 125 50 184.5t151 59.5q70 0 116.5 -38.5t46.5 -104.5q0 -37 -13.5 -67t-45.5 -62q-27 -28 -36 -45.5t-9 -40.5q0 -29 20.5 -49.5t75.5 -41.5q70 -27 102 -62.5t32 -103.5q0 -82 -49.5 -123.5t-130.5 -41.5q-78 0 -142 36z
" />
    <glyph glyph-name="longs" unicode="&#x17f;" horiz-adv-x="299" 
d="M117 2.5q-6 2.5 -6 7.5v462h-70q-5 0 -7 5t-2 19v7q0 15 2 20t7 5h70v41q0 104 42.5 158.5t134.5 54.5q48 0 91 -17q6 -3 6 -10q0 -5 -3 -16l-2 -7q-4 -14 -7.5 -18t-9.5 -2q-36 12 -72 12q-66 0 -90.5 -38t-24.5 -119v-557q0 -5 -6.5 -7.5t-21.5 -2.5h-8q-17 0 -23 2.5z
" />
    <glyph glyph-name="t" unicode="t" horiz-adv-x="365" 
d="M138 21q-20 19 -27.5 48.5t-7.5 80.5v328h-90q-4 0 -5 3t-1 11v5q0 8 1.5 11.5t5.5 4.5q43 12 65 31t31 46.5t15 79.5q1 4 4 5t14 1h7q11 0 14.5 -1t3.5 -5v-142h141q4 0 5.5 -4.5t1.5 -19.5v-3q0 -14 -1.5 -18.5t-5.5 -4.5h-141v-321q0 -40 3.5 -60t14.5 -31t25 -15.5
t36 -4.5q43 0 76 12q2 1 5 1t5 -5t4 -14l2 -7q3 -12 3 -16q0 -6 -5 -8q-47 -19 -105 -19q-60 0 -94 31z" />
    <glyph glyph-name="tbar" unicode="&#x167;" horiz-adv-x="365" 
d="M342 17q0 -6 -5 -8q-47 -19 -105 -19q-60 0 -94 31q-20 19 -27.5 48.5t-7.5 80.5v103h-65q-5 0 -6.5 5.5t-1.5 19.5v1q0 15 1.5 19t6.5 4h65v176h-90q-4 0 -5 3t-1 11v5q0 8 1.5 11.5t5.5 4.5q43 12 65 31t31 46.5t15 79.5q1 4 4 5t14 1h7q11 0 14.5 -1t3.5 -5v-142h141
q4 0 5.5 -4.5t1.5 -19.5v-3q0 -14 -1.5 -18.5t-5.5 -4.5h-141v-176h127q5 0 6.5 -4t1.5 -19v-1q0 -14 -1.5 -19.5t-6.5 -5.5h-127v-96q0 -40 3.5 -60t14.5 -31t25 -15.5t36 -4.5q43 0 76 12q2 1 5 1t5 -5t4 -14l2 -7q3 -12 3 -16z" />
    <glyph glyph-name="tcaron" unicode="&#x165;" horiz-adv-x="365" 
d="M138 21q-20 19 -27.5 48.5t-7.5 80.5v328h-90q-4 0 -5 3t-1 11v5q0 8 1.5 11.5t5.5 4.5q43 12 65 31t31 46.5t15 79.5q1 4 4 5t14 1h7q11 0 14.5 -1t3.5 -5v-142h141q4 0 5.5 -4.5t1.5 -19.5v-3q0 -14 -1.5 -18.5t-5.5 -4.5h-141v-321q0 -40 3.5 -60t14.5 -31t25 -15.5
t36 -4.5q43 0 76 12q2 1 5 1t5 -5t4 -14l2 -7q3 -12 3 -16q0 -6 -5 -8q-47 -19 -105 -19q-60 0 -94 31zM242 591q-3 0 -9 6l-5 5q-4 4 -4 7t3 6q20 21 34.5 44.5t14.5 42.5q0 12 -4.5 20.5t-13.5 18.5q-8 9 -12 16.5t-4 18.5q0 17 12 27.5t29 10.5q22 0 35.5 -15.5
t13.5 -38.5q0 -47 -22.5 -91t-62.5 -76q-4 -2 -5 -2z" />
    <glyph glyph-name="uni0163" unicode="&#x163;" horiz-adv-x="365" 
d="M138 21q-20 19 -27.5 48.5t-7.5 80.5v328h-90q-4 0 -5 3t-1 11v5q0 8 1.5 11.5t5.5 4.5q43 12 65 31t31 46.5t15 79.5q1 4 4 5t14 1h7q11 0 14.5 -1t3.5 -5v-142h141q4 0 5.5 -4.5t1.5 -19.5v-3q0 -14 -1.5 -18.5t-5.5 -4.5h-141v-321q0 -40 3.5 -60t14.5 -31t25 -15.5
t36 -4.5q43 0 76 12q2 1 5 1t5 -5t4 -14l2 -7q3 -12 3 -16q0 -6 -5 -8q-47 -19 -105 -19q-60 0 -94 31zM185 -276q-3 0 -9 6l-5 5q-4 4 -4 7t3 6q20 21 34.5 44.5t14.5 42.5q0 12 -4.5 20.5t-13.5 18.5q-8 9 -12 16.5t-4 18.5q0 17 12 27.5t29 10.5q22 0 35.5 -15.5
t13.5 -38.5q0 -47 -22.5 -91t-62.5 -76q-4 -2 -5 -2z" />
    <glyph glyph-name="uni021B" unicode="&#x21b;" horiz-adv-x="365" 
d="M138 21q-20 19 -27.5 48.5t-7.5 80.5v328h-90q-4 0 -5 3t-1 11v5q0 8 1.5 11.5t5.5 4.5q43 12 65 31t31 46.5t15 79.5q1 4 4 5t14 1h7q11 0 14.5 -1t3.5 -5v-142h141q4 0 5.5 -4.5t1.5 -19.5v-3q0 -14 -1.5 -18.5t-5.5 -4.5h-141v-321q0 -40 3.5 -60t14.5 -31t25 -15.5
t36 -4.5q43 0 76 12q2 1 5 1t5 -5t4 -14l2 -7q3 -12 3 -16q0 -6 -5 -8q-47 -19 -105 -19q-60 0 -94 31zM185 -276q-3 0 -9 6l-5 5q-4 4 -4 7t3 6q20 21 34.5 44.5t14.5 42.5q0 12 -4.5 20.5t-13.5 18.5q-8 9 -12 16.5t-4 18.5q0 17 12 27.5t29 10.5q22 0 35.5 -15.5
t13.5 -38.5q0 -47 -22.5 -91t-62.5 -76q-4 -2 -5 -2z" />
    <glyph glyph-name="u" unicode="u" horiz-adv-x="578" 
d="M179.5 3q-38.5 13 -61.5 38q-25 26 -36 66t-11 103v308q0 6 5.5 8t22.5 2h8q17 0 23 -2t6 -8v-264q0 -72 5 -106t23 -56q34 -40 111 -40q72 0 114 42q22 22 32.5 60.5t10.5 114.5v249q0 6 5.5 8t22.5 2h8q17 0 23 -2t6 -8v-347q0 -104 3 -159v-2q0 -6 -5 -8t-19 -2h-8
q-17 0 -21 1.5t-5 8.5l-5 69q-25 -43 -68.5 -66t-102.5 -23q-48 0 -86.5 13z" />
    <glyph glyph-name="uacute" unicode="&#xfa;" horiz-adv-x="578" 
d="M179.5 3q-38.5 13 -61.5 38q-25 26 -36 66t-11 103v308q0 6 5.5 8t22.5 2h8q17 0 23 -2t6 -8v-264q0 -72 5 -106t23 -56q34 -40 111 -40q72 0 114 42q22 22 32.5 60.5t10.5 114.5v249q0 6 5.5 8t22.5 2h8q17 0 23 -2t6 -8v-347q0 -104 3 -159v-2q0 -6 -5 -8t-19 -2h-8
q-17 0 -21 1.5t-5 8.5l-5 69q-25 -43 -68.5 -66t-102.5 -23q-48 0 -86.5 13zM235 593l67 118q3 6 10 8t26 2h15q17 0 21 -2.5t0 -7.5l-88 -119q-3 -4 -8 -5t-19 -1h-4q-24 0 -20 7z" />
    <glyph glyph-name="ubreve" unicode="&#x16d;" horiz-adv-x="578" 
d="M179.5 3q-38.5 13 -61.5 38q-25 26 -36 66t-11 103v308q0 6 5.5 8t22.5 2h8q17 0 23 -2t6 -8v-264q0 -72 5 -106t23 -56q34 -40 111 -40q72 0 114 42q22 22 32.5 60.5t10.5 114.5v249q0 6 5.5 8t22.5 2h8q17 0 23 -2t6 -8v-347q0 -104 3 -159v-2q0 -6 -5 -8t-19 -2h-8
q-17 0 -21 1.5t-5 8.5l-5 69q-25 -43 -68.5 -66t-102.5 -23q-48 0 -86.5 13zM191.5 625q-38.5 30 -38.5 81q0 3 3 4.5t16 1.5h12q13 0 15.5 -1.5t3.5 -8.5q4 -32 26 -49t60 -17t60 17t26 49q1 7 3.5 8.5t15.5 1.5h12q12 0 15.5 -1.5t3.5 -4.5q0 -51 -38.5 -81t-97.5 -30
t-97.5 30z" />
    <glyph glyph-name="ucircumflex" unicode="&#xfb;" horiz-adv-x="578" 
d="M179.5 3q-38.5 13 -61.5 38q-25 26 -36 66t-11 103v308q0 6 5.5 8t22.5 2h8q17 0 23 -2t6 -8v-264q0 -72 5 -106t23 -56q34 -40 111 -40q72 0 114 42q22 22 32.5 60.5t10.5 114.5v249q0 6 5.5 8t22.5 2h8q17 0 23 -2t6 -8v-347q0 -104 3 -159v-2q0 -6 -5 -8t-19 -2h-8
q-17 0 -21 1.5t-5 8.5l-5 69q-25 -43 -68.5 -66t-102.5 -23q-48 0 -86.5 13zM168 589q-3 0 -11 8l-5 6q-5 6 -6 9.5t2 6.5l94 100q6 6 13 8t21 2h26q14 0 21 -2t13 -8l94 -100q2 -2 2 -5t-6 -11l-5 -6q-5 -6 -8.5 -7.5t-7.5 1.5l-116 97l-116 -97q-4 -2 -5 -2z" />
    <glyph glyph-name="udieresis" unicode="&#xfc;" horiz-adv-x="578" 
d="M179.5 3q-38.5 13 -61.5 38q-25 26 -36 66t-11 103v308q0 6 5.5 8t22.5 2h8q17 0 23 -2t6 -8v-264q0 -72 5 -106t23 -56q34 -40 111 -40q72 0 114 42q22 22 32.5 60.5t10.5 114.5v249q0 6 5.5 8t22.5 2h8q17 0 23 -2t6 -8v-347q0 -104 3 -159v-2q0 -6 -5 -8t-19 -2h-8
q-17 0 -21 1.5t-5 8.5l-5 69q-25 -43 -68.5 -66t-102.5 -23q-48 0 -86.5 13zM153.5 621q-13.5 14 -13.5 33q0 20 14 34t33 14t33.5 -14t14.5 -34q0 -19 -14 -33t-34 -14t-33.5 14zM355.5 621q-13.5 14 -13.5 33q0 20 14 34t33 14t33.5 -14t14.5 -34q0 -19 -14 -33t-34 -14
t-33.5 14z" />
    <glyph glyph-name="ugrave" unicode="&#xf9;" horiz-adv-x="578" 
d="M179.5 3q-38.5 13 -61.5 38q-25 26 -36 66t-11 103v308q0 6 5.5 8t22.5 2h8q17 0 23 -2t6 -8v-264q0 -72 5 -106t23 -56q34 -40 111 -40q72 0 114 42q22 22 32.5 60.5t10.5 114.5v249q0 6 5.5 8t22.5 2h8q17 0 23 -2t6 -8v-347q0 -104 3 -159v-2q0 -6 -5 -8t-19 -2h-8
q-17 0 -21 1.5t-5 8.5l-5 69q-25 -43 -68.5 -66t-102.5 -23q-48 0 -86.5 13zM306 587q-5 1 -8 5l-88 119q-2 4 -2 5q0 5 23 5h15q19 0 26 -2t10 -8l67 -118l1 -2q0 -5 -21 -5h-4q-14 0 -19 1z" />
    <glyph glyph-name="uhungarumlaut" unicode="&#x171;" horiz-adv-x="578" 
d="M179.5 3q-38.5 13 -61.5 38q-25 26 -36 66t-11 103v308q0 6 5.5 8t22.5 2h8q17 0 23 -2t6 -8v-264q0 -72 5 -106t23 -56q34 -40 111 -40q72 0 114 42q22 22 32.5 60.5t10.5 114.5v249q0 6 5.5 8t22.5 2h8q17 0 23 -2t6 -8v-347q0 -104 3 -159v-2q0 -6 -5 -8t-19 -2h-8
q-17 0 -21 1.5t-5 8.5l-5 69q-25 -43 -68.5 -66t-102.5 -23q-48 0 -86.5 13zM154 593l67 118q3 6 10 8t26 2h15q17 0 21 -2.5t0 -7.5l-88 -119q-3 -4 -8 -5t-19 -1h-4q-24 0 -20 7zM311 593l67 118q3 6 10 8t26 2h15q17 0 21 -2.5t0 -7.5l-88 -119q-3 -4 -8 -5t-19 -1h-4
q-24 0 -20 7z" />
    <glyph glyph-name="umacron" unicode="&#x16b;" horiz-adv-x="578" 
d="M179.5 3q-38.5 13 -61.5 38q-25 26 -36 66t-11 103v308q0 6 5.5 8t22.5 2h8q17 0 23 -2t6 -8v-264q0 -72 5 -106t23 -56q34 -40 111 -40q72 0 114 42q22 22 32.5 60.5t10.5 114.5v249q0 6 5.5 8t22.5 2h8q17 0 23 -2t6 -8v-347q0 -104 3 -159v-2q0 -6 -5 -8t-19 -2h-8
q-17 0 -21 1.5t-5 8.5l-5 69q-25 -43 -68.5 -66t-102.5 -23q-48 0 -86.5 13zM151.5 638.5q-1.5 5.5 -1.5 19.5v3q0 15 1.5 19t6.5 4h262q5 0 6.5 -4t1.5 -19v-3q0 -14 -1.5 -19.5t-6.5 -5.5h-262q-5 0 -6.5 5.5z" />
    <glyph glyph-name="uogonek" unicode="&#x173;" horiz-adv-x="578" 
d="M353 -203q-29 26 -29 70q0 48 32.5 87.5t84.5 59.5l-4 65q-25 -43 -68.5 -66t-102.5 -23q-48 0 -86.5 13t-61.5 38q-25 26 -36 66t-11 103v308q0 6 5.5 8t22.5 2h8q17 0 23 -2t6 -8v-264q0 -72 5 -106t23 -56q34 -40 111 -40q72 0 114 42q22 22 32.5 60.5t10.5 114.5v249
q0 6 5.5 8t22.5 2h8q17 0 23 -2t6 -8v-347q0 -105 3 -159q0 -6 -1.5 -8.5t-7.5 -3.5q-28 -7 -51.5 -22.5t-37.5 -38.5q-21 -33 -21 -67q0 -27 15.5 -42t42.5 -15q15 0 49 9h2q4 0 8 -14l1 -5q1 -8 1 -12.5t-3 -5.5q-35 -16 -73 -16q-42 0 -71 26z" />
    <glyph glyph-name="uring" unicode="&#x16f;" horiz-adv-x="578" 
d="M179.5 3q-38.5 13 -61.5 38q-25 26 -36 66t-11 103v308q0 6 5.5 8t22.5 2h8q17 0 23 -2t6 -8v-264q0 -72 5 -106t23 -56q34 -40 111 -40q72 0 114 42q22 22 32.5 60.5t10.5 114.5v249q0 6 5.5 8t22.5 2h8q17 0 23 -2t6 -8v-347q0 -104 3 -159v-2q0 -6 -5 -8t-19 -2h-8
q-17 0 -21 1.5t-5 8.5l-5 69q-25 -43 -68.5 -66t-102.5 -23q-48 0 -86.5 13zM223 604.5q-28 26.5 -28 63.5t28 63.5t66 26.5q39 0 66.5 -26t27.5 -64t-27.5 -64t-66.5 -26q-38 0 -66 26.5zM324.5 631.5q13.5 14.5 13.5 36.5t-13.5 36.5t-35.5 14.5t-36.5 -14t-14.5 -37
t14.5 -37t36.5 -14t35.5 14.5z" />
    <glyph glyph-name="utilde" unicode="&#x169;" horiz-adv-x="578" 
d="M179.5 3q-38.5 13 -61.5 38q-25 26 -36 66t-11 103v308q0 6 5.5 8t22.5 2h8q17 0 23 -2t6 -8v-264q0 -72 5 -106t23 -56q34 -40 111 -40q72 0 114 42q22 22 32.5 60.5t10.5 114.5v249q0 6 5.5 8t22.5 2h8q17 0 23 -2t6 -8v-347q0 -104 3 -159v-2q0 -6 -5 -8t-19 -2h-8
q-17 0 -21 1.5t-5 8.5l-5 69q-25 -43 -68.5 -66t-102.5 -23q-48 0 -86.5 13zM316.5 626q-15.5 5 -36.5 15q-18 9 -30.5 13.5t-26.5 4.5q-15 0 -28 -7t-30 -23q-1 -1 -4 -1q-6 0 -12 9l-8 10q-4 5 -4.5 8.5t2.5 7.5q14 18 39 31t49 13q19 0 34.5 -5t36.5 -15
q18 -9 30.5 -13.5t26.5 -4.5q15 0 28 7t30 23q1 1 4 1q6 0 12 -9l8 -10q4 -5 4.5 -8.5t-2.5 -7.5q-14 -18 -39 -31t-49 -13q-19 0 -34.5 5z" />
    <glyph glyph-name="v" unicode="v" horiz-adv-x="493" 
d="M211.5 3.5q-7.5 3.5 -11.5 13.5l-181 498l-1 4q0 9 27 9h12q18 0 24.5 -2t8.5 -9l161 -464q92 235 148 464q1 7 7 9t21 2h9q18 0 24.5 -3t4.5 -10q-35 -132 -80.5 -264.5t-89.5 -235.5q-4 -9 -12.5 -12t-32.5 -3h-8q-23 0 -30.5 3.5z" />
    <glyph glyph-name="w" unicode="w" horiz-adv-x="788" 
d="M189 4q-9 4 -12 13l-151 498q-2 8 3.5 10.5t25.5 2.5h8q20 0 25.5 -2t7.5 -10l130 -463l120 464q2 7 8.5 9t28.5 2h9q23 0 29.5 -2t8.5 -8l132 -465q46 132 75 237t52 226q2 8 6.5 10t23.5 2h5q17 0 22.5 -2t4.5 -7q-37 -162 -68.5 -269t-77.5 -229q-5 -12 -13 -16.5
t-30 -4.5h-8q-22 0 -31 4t-11 13l-66 235q-29 101 -58 217q-30 -133 -53 -218l-64 -231q-3 -11 -12.5 -15.5t-31.5 -4.5h-8q-21 0 -30 4z" />
    <glyph glyph-name="wacute" unicode="&#x1e83;" horiz-adv-x="788" 
d="M189 4q-9 4 -12 13l-151 498q-2 8 3.5 10.5t25.5 2.5h8q20 0 25.5 -2t7.5 -10l130 -463l120 464q2 7 8.5 9t28.5 2h9q23 0 29.5 -2t8.5 -8l132 -465q46 132 75 237t52 226q2 8 6.5 10t23.5 2h5q17 0 22.5 -2t4.5 -7q-37 -162 -68.5 -269t-77.5 -229q-5 -12 -13 -16.5
t-30 -4.5h-8q-22 0 -31 4t-11 13l-66 235q-29 101 -58 217q-30 -133 -53 -218l-64 -231q-3 -11 -12.5 -15.5t-31.5 -4.5h-8q-21 0 -30 4zM336 593l67 118q3 6 10 8t26 2h15q17 0 21 -2.5t0 -7.5l-88 -119q-3 -4 -8 -5t-19 -1h-4q-24 0 -20 7z" />
    <glyph glyph-name="wcircumflex" unicode="&#x175;" horiz-adv-x="788" 
d="M189 4q-9 4 -12 13l-151 498q-2 8 3.5 10.5t25.5 2.5h8q20 0 25.5 -2t7.5 -10l130 -463l120 464q2 7 8.5 9t28.5 2h9q23 0 29.5 -2t8.5 -8l132 -465q46 132 75 237t52 226q2 8 6.5 10t23.5 2h5q17 0 22.5 -2t4.5 -7q-37 -162 -68.5 -269t-77.5 -229q-5 -12 -13 -16.5
t-30 -4.5h-8q-22 0 -31 4t-11 13l-66 235q-29 101 -58 217q-30 -133 -53 -218l-64 -231q-3 -11 -12.5 -15.5t-31.5 -4.5h-8q-21 0 -30 4zM269 589q-3 0 -11 8l-5 6q-5 6 -6 9.5t2 6.5l94 100q6 6 13 8t21 2h26q14 0 21 -2t13 -8l94 -100q2 -2 2 -5t-6 -11l-5 -6
q-5 -6 -8.5 -7.5t-7.5 1.5l-116 97l-116 -97q-4 -2 -5 -2z" />
    <glyph glyph-name="wdieresis" unicode="&#x1e85;" horiz-adv-x="788" 
d="M189 4q-9 4 -12 13l-151 498q-2 8 3.5 10.5t25.5 2.5h8q20 0 25.5 -2t7.5 -10l130 -463l120 464q2 7 8.5 9t28.5 2h9q23 0 29.5 -2t8.5 -8l132 -465q46 132 75 237t52 226q2 8 6.5 10t23.5 2h5q17 0 22.5 -2t4.5 -7q-37 -162 -68.5 -269t-77.5 -229q-5 -12 -13 -16.5
t-30 -4.5h-8q-22 0 -31 4t-11 13l-66 235q-29 101 -58 217q-30 -133 -53 -218l-64 -231q-3 -11 -12.5 -15.5t-31.5 -4.5h-8q-21 0 -30 4zM254.5 621q-13.5 14 -13.5 33q0 20 14 34t33 14t33.5 -14t14.5 -34q0 -19 -14 -33t-34 -14t-33.5 14zM456.5 621q-13.5 14 -13.5 33
q0 20 14 34t33 14t33.5 -14t14.5 -34q0 -19 -14 -33t-34 -14t-33.5 14z" />
    <glyph glyph-name="wgrave" unicode="&#x1e81;" horiz-adv-x="788" 
d="M189 4q-9 4 -12 13l-151 498q-2 8 3.5 10.5t25.5 2.5h8q20 0 25.5 -2t7.5 -10l130 -463l120 464q2 7 8.5 9t28.5 2h9q23 0 29.5 -2t8.5 -8l132 -465q46 132 75 237t52 226q2 8 6.5 10t23.5 2h5q17 0 22.5 -2t4.5 -7q-37 -162 -68.5 -269t-77.5 -229q-5 -12 -13 -16.5
t-30 -4.5h-8q-22 0 -31 4t-11 13l-66 235q-29 101 -58 217q-30 -133 -53 -218l-64 -231q-3 -11 -12.5 -15.5t-31.5 -4.5h-8q-21 0 -30 4zM407 587q-5 1 -8 5l-88 119q-2 4 -2 5q0 5 23 5h15q19 0 26 -2t10 -8l67 -118l1 -2q0 -5 -21 -5h-4q-14 0 -19 1z" />
    <glyph glyph-name="x" unicode="x" horiz-adv-x="496" 
d="M40 11l172 264l-152 240q-4 7 2.5 10t29.5 3h6q21 0 28.5 -2t10.5 -7l115 -190l114 190q4 6 10 7.5t26 1.5h7q21 0 27.5 -3t1.5 -10l-150 -233l173 -267q2 -4 2 -5q0 -10 -28 -10h-9q-22 0 -29.5 2.5t-12.5 10.5l-136 213l-137 -218q-3 -5 -11 -6.5t-26 -1.5h-5
q-36 0 -29 11z" />
    <glyph glyph-name="y" unicode="y" horiz-adv-x="509" 
d="M30 -240.5q-21 3.5 -35 9.5q-5 1 -5 7t4 17l3 9q5 14 7.5 17.5t7.5 2.5q29 -9 53 -9q61 0 100 40t71 133l-206 530q-2 6 3.5 9t26.5 3h8q19 0 26.5 -2t9.5 -8l94 -254q32 -84 71 -207q38 117 67 200l92 261q2 6 7.5 8t23.5 2h5q33 0 29 -10l-192 -539q-45 -118 -87 -163
q-54 -60 -145 -60q-18 0 -39 3.5z" />
    <glyph glyph-name="yacute" unicode="&#xfd;" horiz-adv-x="509" 
d="M30 -240.5q-21 3.5 -35 9.5q-5 1 -5 7t4 17l3 9q5 14 7.5 17.5t7.5 2.5q29 -9 53 -9q61 0 100 40t71 133l-206 530q-2 6 3.5 9t26.5 3h8q19 0 26.5 -2t9.5 -8l94 -254q32 -84 71 -207q38 117 67 200l92 261q2 6 7.5 8t23.5 2h5q33 0 29 -10l-192 -539q-45 -118 -87 -163
q-54 -60 -145 -60q-18 0 -39 3.5zM215 593l67 118q3 6 10 8t26 2h15q17 0 21 -2.5t0 -7.5l-88 -119q-3 -4 -8 -5t-19 -1h-4q-24 0 -20 7z" />
    <glyph glyph-name="ycircumflex" unicode="&#x177;" horiz-adv-x="509" 
d="M30 -240.5q-21 3.5 -35 9.5q-5 1 -5 7t4 17l3 9q5 14 7.5 17.5t7.5 2.5q29 -9 53 -9q61 0 100 40t71 133l-206 530q-2 6 3.5 9t26.5 3h8q19 0 26.5 -2t9.5 -8l94 -254q32 -84 71 -207q38 117 67 200l92 261q2 6 7.5 8t23.5 2h5q33 0 29 -10l-192 -539q-45 -118 -87 -163
q-54 -60 -145 -60q-18 0 -39 3.5zM148 589q-3 0 -11 8l-5 6q-5 6 -6 9.5t2 6.5l94 100q6 6 13 8t21 2h26q14 0 21 -2t13 -8l94 -100q2 -2 2 -5t-6 -11l-5 -6q-5 -6 -8.5 -7.5t-7.5 1.5l-116 97l-116 -97q-4 -2 -5 -2z" />
    <glyph glyph-name="ydieresis" unicode="&#xff;" horiz-adv-x="509" 
d="M30 -240.5q-21 3.5 -35 9.5q-5 1 -5 7t4 17l3 9q5 14 7.5 17.5t7.5 2.5q29 -9 53 -9q61 0 100 40t71 133l-206 530q-2 6 3.5 9t26.5 3h8q19 0 26.5 -2t9.5 -8l94 -254q32 -84 71 -207q38 117 67 200l92 261q2 6 7.5 8t23.5 2h5q33 0 29 -10l-192 -539q-45 -118 -87 -163
q-54 -60 -145 -60q-18 0 -39 3.5zM133.5 621q-13.5 14 -13.5 33q0 20 14 34t33 14t33.5 -14t14.5 -34q0 -19 -14 -33t-34 -14t-33.5 14zM335.5 621q-13.5 14 -13.5 33q0 20 14 34t33 14t33.5 -14t14.5 -34q0 -19 -14 -33t-34 -14t-33.5 14z" />
    <glyph glyph-name="ygrave" unicode="&#x1ef3;" horiz-adv-x="509" 
d="M30 -240.5q-21 3.5 -35 9.5q-5 1 -5 7t4 17l3 9q5 14 7.5 17.5t7.5 2.5q29 -9 53 -9q61 0 100 40t71 133l-206 530q-2 6 3.5 9t26.5 3h8q19 0 26.5 -2t9.5 -8l94 -254q32 -84 71 -207q38 117 67 200l92 261q2 6 7.5 8t23.5 2h5q33 0 29 -10l-192 -539q-45 -118 -87 -163
q-54 -60 -145 -60q-18 0 -39 3.5zM286 587q-5 1 -8 5l-88 119q-2 4 -2 5q0 5 23 5h15q19 0 26 -2t10 -8l67 -118l1 -2q0 -5 -21 -5h-4q-14 0 -19 1z" />
    <glyph glyph-name="z" unicode="z" horiz-adv-x="455" 
d="M44 4.5q-2 4.5 -2 17.5v5q0 9 1 15.5t5 11.5l272 418h-258q-5 0 -6.5 4.5t-1.5 21.5v3q0 17 1.5 22t6.5 5h330q6 0 7.5 -3.5t1.5 -18.5v-4q0 -13 -1.5 -18.5t-5.5 -12.5l-271 -415h284q5 0 6.5 -5t1.5 -22v-3q0 -17 -1.5 -21.5t-6.5 -4.5h-356q-5 0 -7 4.5z" />
    <glyph glyph-name="zacute" unicode="&#x17a;" horiz-adv-x="455" 
d="M44 4.5q-2 4.5 -2 17.5v5q0 9 1 15.5t5 11.5l272 418h-258q-5 0 -6.5 4.5t-1.5 21.5v3q0 17 1.5 22t6.5 5h330q6 0 7.5 -3.5t1.5 -18.5v-4q0 -13 -1.5 -18.5t-5.5 -12.5l-271 -415h284q5 0 6.5 -5t1.5 -22v-3q0 -17 -1.5 -21.5t-6.5 -4.5h-356q-5 0 -7 4.5zM174 593
l67 118q3 6 10 8t26 2h15q17 0 21 -2.5t0 -7.5l-88 -119q-3 -4 -8 -5t-19 -1h-4q-24 0 -20 7z" />
    <glyph glyph-name="zacute.loclPLK" horiz-adv-x="455" 
d="M44 4.5q-2 4.5 -2 17.5v5q0 9 1 15.5t5 11.5l272 418h-258q-5 0 -6.5 4.5t-1.5 21.5v3q0 17 1.5 22t6.5 5h330q6 0 7.5 -3.5t1.5 -18.5v-4q0 -13 -1.5 -18.5t-5.5 -12.5l-271 -415h284q5 0 6.5 -5t1.5 -22v-3q0 -17 -1.5 -21.5t-6.5 -4.5h-356q-5 0 -7 4.5zM194 588
q-4 2 -3 7l26 115q2 7 7 9t24 2h11q18 0 23 -2t3 -8l-45 -117q-2 -5 -6.5 -6.5t-19.5 -1.5h-3q-13 0 -17 2z" />
    <glyph glyph-name="zcaron" unicode="&#x17e;" horiz-adv-x="455" 
d="M44 4.5q-2 4.5 -2 17.5v5q0 9 1 15.5t5 11.5l272 418h-258q-5 0 -6.5 4.5t-1.5 21.5v3q0 17 1.5 22t6.5 5h330q6 0 7.5 -3.5t1.5 -18.5v-4q0 -13 -1.5 -18.5t-5.5 -12.5l-271 -415h284q5 0 6.5 -5t1.5 -22v-3q0 -17 -1.5 -21.5t-6.5 -4.5h-356q-5 0 -7 4.5zM194 585
q-7 2 -13 8l-94 100q-2 2 -2 5q0 4 6 11l5 6q5 6 8.5 7.5t7.5 -1.5l116 -97l116 97q4 2 5 2q3 0 11 -8l5 -6q5 -6 6 -9.5t-2 -6.5l-94 -100q-6 -6 -13 -8t-21 -2h-26q-14 0 -21 2z" />
    <glyph glyph-name="zdotaccent" unicode="&#x17c;" horiz-adv-x="455" 
d="M44 4.5q-2 4.5 -2 17.5v5q0 9 1 15.5t5 11.5l272 418h-258q-5 0 -6.5 4.5t-1.5 21.5v3q0 17 1.5 22t6.5 5h330q6 0 7.5 -3.5t1.5 -18.5v-4q0 -13 -1.5 -18.5t-5.5 -12.5l-271 -415h284q5 0 6.5 -5t1.5 -22v-3q0 -17 -1.5 -21.5t-6.5 -4.5h-356q-5 0 -7 4.5zM194 627.5
q-13 13.5 -13 32.5q0 20 13.5 33.5t32.5 13.5t33 -13.5t14 -33.5q0 -19 -13.5 -32.5t-33.5 -13.5t-33 13.5z" />
    <glyph glyph-name="a.sc" horiz-adv-x="602" 
d="M575 6q0 -4 -6.5 -5t-22.5 -1h-10q-21 0 -28 1.5t-9 7.5l-57 145h-291l-57 -145q-2 -6 -8.5 -7.5t-25.5 -1.5h-6q-19 0 -25 2t-4 7l231 563q3 6 10 8t30 2h6q21 0 28.5 -2t9.5 -8l234 -563zM421 208l-124 317l-125 -317h249z" />
    <glyph glyph-name="a.ss01.sc" horiz-adv-x="602" 
d="M575 6q0 -4 -6.5 -5t-22.5 -1h-10q-21 0 -28 1.5t-9 7.5l-57 145h-291l-57 -145q-2 -6 -8.5 -7.5t-25.5 -1.5h-6q-19 0 -25 2t-4 7l231 563q3 6 10 8t30 2h6q21 0 28.5 -2t9.5 -8l234 -563zM421 208l-124 317l-125 -317h249z" />
    <glyph glyph-name="aacute.sc" horiz-adv-x="602" 
d="M575 6q0 -4 -6.5 -5t-22.5 -1h-10q-21 0 -28 1.5t-9 7.5l-57 145h-291l-57 -145q-2 -6 -8.5 -7.5t-25.5 -1.5h-6q-19 0 -25 2t-4 7l231 563q3 6 10 8t30 2h6q21 0 28.5 -2t9.5 -8l234 -563zM421 208l-124 317l-125 -317h249zM249 647l67 118q3 6 10 8t26 2h15
q17 0 21 -2.5t0 -7.5l-88 -119q-3 -4 -8 -5t-19 -1h-4q-24 0 -20 7z" />
    <glyph glyph-name="aacute.ss01.sc" horiz-adv-x="602" 
d="M575 6q0 -4 -6.5 -5t-22.5 -1h-10q-21 0 -28 1.5t-9 7.5l-57 145h-291l-57 -145q-2 -6 -8.5 -7.5t-25.5 -1.5h-6q-19 0 -25 2t-4 7l231 563q3 6 10 8t30 2h6q21 0 28.5 -2t9.5 -8l234 -563zM421 208l-124 317l-125 -317h249zM249 647l67 118q3 6 10 8t26 2h15
q17 0 21 -2.5t0 -7.5l-88 -119q-3 -4 -8 -5t-19 -1h-4q-24 0 -20 7z" />
    <glyph glyph-name="abreve.sc" horiz-adv-x="602" 
d="M575 6q0 -4 -6.5 -5t-22.5 -1h-10q-21 0 -28 1.5t-9 7.5l-57 145h-291l-57 -145q-2 -6 -8.5 -7.5t-25.5 -1.5h-6q-19 0 -25 2t-4 7l231 563q3 6 10 8t30 2h6q21 0 28.5 -2t9.5 -8l234 -563zM421 208l-124 317l-125 -317h249zM201.5 670q-38.5 30 -38.5 81q0 3 3.5 4.5
t15.5 1.5h12q13 0 15.5 -1.5t3.5 -8.5q4 -32 26 -49t60 -17t60 17t26 49q1 7 3.5 8.5t15.5 1.5h12q13 0 16 -1.5t3 -4.5q0 -51 -38.5 -81t-97.5 -30t-97.5 30z" />
    <glyph glyph-name="abreve.ss01.sc" horiz-adv-x="602" 
d="M575 6q0 -4 -6.5 -5t-22.5 -1h-10q-21 0 -28 1.5t-9 7.5l-57 145h-291l-57 -145q-2 -6 -8.5 -7.5t-25.5 -1.5h-6q-19 0 -25 2t-4 7l231 563q3 6 10 8t30 2h6q21 0 28.5 -2t9.5 -8l234 -563zM421 208l-124 317l-125 -317h249zM201.5 670q-38.5 30 -38.5 81q0 3 3.5 4.5
t15.5 1.5h12q13 0 15.5 -1.5t3.5 -8.5q4 -32 26 -49t60 -17t60 17t26 49q1 7 3.5 8.5t15.5 1.5h12q13 0 16 -1.5t3 -4.5q0 -51 -38.5 -81t-97.5 -30t-97.5 30z" />
    <glyph glyph-name="uni01CE.sc" horiz-adv-x="602" 
d="M575 6q0 -4 -6.5 -5t-22.5 -1h-10q-21 0 -28 1.5t-9 7.5l-57 145h-291l-57 -145q-2 -6 -8.5 -7.5t-25.5 -1.5h-6q-19 0 -25 2t-4 7l231 563q3 6 10 8t30 2h6q21 0 28.5 -2t9.5 -8l234 -563zM421 208l-124 317l-125 -317h249zM265 642q-7 2 -13 8l-94 100q-2 2 -2 5
q0 4 6 11l5 6q5 6 8.5 7.5t7.5 -1.5l116 -97l116 97q4 2 5 2q3 0 11 -8l5 -6q5 -6 6 -9.5t-2 -6.5l-94 -100q-6 -6 -13 -8t-21 -2h-26q-14 0 -21 2z" />
    <glyph glyph-name="uni01CE.ss01.sc" horiz-adv-x="602" 
d="M575 6q0 -4 -6.5 -5t-22.5 -1h-10q-21 0 -28 1.5t-9 7.5l-57 145h-291l-57 -145q-2 -6 -8.5 -7.5t-25.5 -1.5h-6q-19 0 -25 2t-4 7l231 563q3 6 10 8t30 2h6q21 0 28.5 -2t9.5 -8l234 -563zM421 208l-124 317l-125 -317h249zM265 642q-7 2 -13 8l-94 100q-2 2 -2 5
q0 4 6 11l5 6q5 6 8.5 7.5t7.5 -1.5l116 -97l116 97q4 2 5 2q3 0 11 -8l5 -6q5 -6 6 -9.5t-2 -6.5l-94 -100q-6 -6 -13 -8t-21 -2h-26q-14 0 -21 2z" />
    <glyph glyph-name="acircumflex.sc" horiz-adv-x="602" 
d="M575 6q0 -4 -6.5 -5t-22.5 -1h-10q-21 0 -28 1.5t-9 7.5l-57 145h-291l-57 -145q-2 -6 -8.5 -7.5t-25.5 -1.5h-6q-19 0 -25 2t-4 7l231 563q3 6 10 8t30 2h6q21 0 28.5 -2t9.5 -8l234 -563zM421 208l-124 317l-125 -317h249zM178 630q-3 0 -11 8l-5 6q-5 6 -6 9.5t2 6.5
l94 100q6 6 13 8t21 2h26q14 0 21 -2t13 -8l94 -100q2 -2 2 -5t-6 -11l-5 -6q-5 -6 -8.5 -7.5t-7.5 1.5l-116 97l-116 -97q-4 -2 -5 -2z" />
    <glyph glyph-name="acircumflex.ss01.sc" horiz-adv-x="602" 
d="M575 6q0 -4 -6.5 -5t-22.5 -1h-10q-21 0 -28 1.5t-9 7.5l-57 145h-291l-57 -145q-2 -6 -8.5 -7.5t-25.5 -1.5h-6q-19 0 -25 2t-4 7l231 563q3 6 10 8t30 2h6q21 0 28.5 -2t9.5 -8l234 -563zM421 208l-124 317l-125 -317h249zM178 630q-3 0 -11 8l-5 6q-5 6 -6 9.5t2 6.5
l94 100q6 6 13 8t21 2h26q14 0 21 -2t13 -8l94 -100q2 -2 2 -5t-6 -11l-5 -6q-5 -6 -8.5 -7.5t-7.5 1.5l-116 97l-116 -97q-4 -2 -5 -2z" />
    <glyph glyph-name="adieresis.sc" horiz-adv-x="602" 
d="M575 6q0 -4 -6.5 -5t-22.5 -1h-10q-21 0 -28 1.5t-9 7.5l-57 145h-291l-57 -145q-2 -6 -8.5 -7.5t-25.5 -1.5h-6q-19 0 -25 2t-4 7l231 563q3 6 10 8t30 2h6q21 0 28.5 -2t9.5 -8l234 -563zM421 208l-124 317l-125 -317h249zM164 665q-14 14 -14 33q0 20 14 34t33 14
q20 0 34 -14t14 -34q0 -19 -14 -33t-34 -14q-19 0 -33 14zM366 665q-14 14 -14 33q0 20 14 34t33 14q20 0 34 -14t14 -34q0 -19 -14 -33t-34 -14q-19 0 -33 14z" />
    <glyph glyph-name="adieresis.ss01.sc" horiz-adv-x="602" 
d="M575 6q0 -4 -6.5 -5t-22.5 -1h-10q-21 0 -28 1.5t-9 7.5l-57 145h-291l-57 -145q-2 -6 -8.5 -7.5t-25.5 -1.5h-6q-19 0 -25 2t-4 7l231 563q3 6 10 8t30 2h6q21 0 28.5 -2t9.5 -8l234 -563zM421 208l-124 317l-125 -317h249zM164 665q-14 14 -14 33q0 20 14 34t33 14
q20 0 34 -14t14 -34q0 -19 -14 -33t-34 -14q-19 0 -33 14zM366 665q-14 14 -14 33q0 20 14 34t33 14q20 0 34 -14t14 -34q0 -19 -14 -33t-34 -14q-19 0 -33 14z" />
    <glyph glyph-name="agrave.sc" horiz-adv-x="602" 
d="M575 6q0 -4 -6.5 -5t-22.5 -1h-10q-21 0 -28 1.5t-9 7.5l-57 145h-291l-57 -145q-2 -6 -8.5 -7.5t-25.5 -1.5h-6q-19 0 -25 2t-4 7l231 563q3 6 10 8t30 2h6q21 0 28.5 -2t9.5 -8l234 -563zM421 208l-124 317l-125 -317h249zM296 641q-5 1 -8 5l-88 119q-2 4 -2 5
q0 5 23 5h15q19 0 26 -2t10 -8l67 -118l1 -2q0 -5 -21 -5h-4q-14 0 -19 1z" />
    <glyph glyph-name="agrave.ss01.sc" horiz-adv-x="602" 
d="M575 6q0 -4 -6.5 -5t-22.5 -1h-10q-21 0 -28 1.5t-9 7.5l-57 145h-291l-57 -145q-2 -6 -8.5 -7.5t-25.5 -1.5h-6q-19 0 -25 2t-4 7l231 563q3 6 10 8t30 2h6q21 0 28.5 -2t9.5 -8l234 -563zM421 208l-124 317l-125 -317h249zM296 641q-5 1 -8 5l-88 119q-2 4 -2 5
q0 5 23 5h15q19 0 26 -2t10 -8l67 -118l1 -2q0 -5 -21 -5h-4q-14 0 -19 1z" />
    <glyph glyph-name="amacron.sc" horiz-adv-x="602" 
d="M575 6q0 -4 -6.5 -5t-22.5 -1h-10q-21 0 -28 1.5t-9 7.5l-57 145h-291l-57 -145q-2 -6 -8.5 -7.5t-25.5 -1.5h-6q-19 0 -25 2t-4 7l231 563q3 6 10 8t30 2h6q21 0 28.5 -2t9.5 -8l234 -563zM421 208l-124 317l-125 -317h249zM161.5 656.5q-1.5 5.5 -1.5 19.5v3
q0 15 1.5 19t6.5 4h262q5 0 6.5 -4t1.5 -19v-3q0 -14 -1.5 -19.5t-6.5 -5.5h-262q-5 0 -6.5 5.5z" />
    <glyph glyph-name="amacron.ss01.sc" horiz-adv-x="602" 
d="M575 6q0 -4 -6.5 -5t-22.5 -1h-10q-21 0 -28 1.5t-9 7.5l-57 145h-291l-57 -145q-2 -6 -8.5 -7.5t-25.5 -1.5h-6q-19 0 -25 2t-4 7l231 563q3 6 10 8t30 2h6q21 0 28.5 -2t9.5 -8l234 -563zM421 208l-124 317l-125 -317h249zM161.5 656.5q-1.5 5.5 -1.5 19.5v3
q0 15 1.5 19t6.5 4h262q5 0 6.5 -4t1.5 -19v-3q0 -14 -1.5 -19.5t-6.5 -5.5h-262q-5 0 -6.5 5.5z" />
    <glyph glyph-name="aogonek.sc" horiz-adv-x="606" 
d="M578 -204.5q0 -4.5 -3 -5.5q-35 -16 -73 -16q-42 0 -71 25.5t-29 66.5q0 42 26.5 81t70.5 61l-57 146h-291l-57 -145q-2 -6 -8.5 -7.5t-25.5 -1.5h-6q-19 0 -25 2t-4 7l231 563q3 6 10 8t30 2h6q21 0 28.5 -2t9.5 -8l233 -561l2 -6q0 -4 -7 -5q-47 -13 -78 -48t-31 -77
q0 -27 15.5 -42t42.5 -15q22 0 49 9h2q4 0 8 -14l1 -5q1 -8 1 -12.5zM421 208l-124 317l-125 -317h249z" />
    <glyph glyph-name="aogonek.ss01.sc" horiz-adv-x="606" 
d="M578 -204.5q0 -4.5 -3 -5.5q-35 -16 -73 -16q-42 0 -71 25.5t-29 66.5q0 42 26.5 81t70.5 61l-57 146h-291l-57 -145q-2 -6 -8.5 -7.5t-25.5 -1.5h-6q-19 0 -25 2t-4 7l231 563q3 6 10 8t30 2h6q21 0 28.5 -2t9.5 -8l233 -561l2 -6q0 -4 -7 -5q-47 -13 -78 -48t-31 -77
q0 -27 15.5 -42t42.5 -15q22 0 49 9h2q4 0 8 -14l1 -5q1 -8 1 -12.5zM421 208l-124 317l-125 -317h249z" />
    <glyph glyph-name="aring.sc" horiz-adv-x="602" 
d="M575 6q0 -4 -6.5 -5t-22.5 -1h-10q-21 0 -28 1.5t-9 7.5l-57 145h-291l-57 -145q-2 -6 -8.5 -7.5t-25.5 -1.5h-6q-19 0 -25 2t-4 7l230 561q-22 12 -36 33t-14 47q0 37 28 63.5t66 26.5q39 0 66.5 -26t27.5 -64q0 -26 -14.5 -47.5t-37.5 -33.5l233 -560zM262.5 687
q-14.5 -14 -14.5 -37t14.5 -37t36.5 -14t35.5 14.5t13.5 36.5t-13.5 36.5t-35.5 14.5t-36.5 -14zM421 208l-124 317l-125 -317h249z" />
    <glyph glyph-name="aring.ss01.sc" horiz-adv-x="602" 
d="M575 6q0 -4 -6.5 -5t-22.5 -1h-10q-21 0 -28 1.5t-9 7.5l-57 145h-291l-57 -145q-2 -6 -8.5 -7.5t-25.5 -1.5h-6q-19 0 -25 2t-4 7l230 561q-22 12 -36 33t-14 47q0 37 28 63.5t66 26.5q39 0 66.5 -26t27.5 -64q0 -26 -14.5 -47.5t-37.5 -33.5l233 -560zM262.5 687
q-14.5 -14 -14.5 -37t14.5 -37t36.5 -14t35.5 14.5t13.5 36.5t-13.5 36.5t-35.5 14.5t-36.5 -14zM421 208l-124 317l-125 -317h249z" />
    <glyph glyph-name="aringacute.sc" horiz-adv-x="602" 
d="M249 772l67 118q3 6 10 8t26 2h15q17 0 21 -2.5t0 -7.5l-88 -119q-3 -4 -8 -5t-19 -1h-4q-24 0 -20 7zM575 6q0 -4 -6.5 -5t-22.5 -1h-10q-21 0 -28 1.5t-9 7.5l-57 145h-291l-57 -145q-2 -6 -8.5 -7.5t-25.5 -1.5h-6q-19 0 -25 2t-4 7l230 561q-22 12 -36 33t-14 47
q0 37 28 63.5t66 26.5q39 0 66.5 -26t27.5 -64q0 -26 -14.5 -47.5t-37.5 -33.5l233 -560zM262.5 687q-14.5 -14 -14.5 -37t14.5 -37t36.5 -14t35.5 14.5t13.5 36.5t-13.5 36.5t-35.5 14.5t-36.5 -14zM421 208l-124 317l-125 -317h249z" />
    <glyph glyph-name="aringacute.ss01.sc" horiz-adv-x="602" 
d="M249 772l67 118q3 6 10 8t26 2h15q17 0 21 -2.5t0 -7.5l-88 -119q-3 -4 -8 -5t-19 -1h-4q-24 0 -20 7zM575 6q0 -4 -6.5 -5t-22.5 -1h-10q-21 0 -28 1.5t-9 7.5l-57 145h-291l-57 -145q-2 -6 -8.5 -7.5t-25.5 -1.5h-6q-19 0 -25 2t-4 7l230 561q-22 12 -36 33t-14 47
q0 37 28 63.5t66 26.5q39 0 66.5 -26t27.5 -64q0 -26 -14.5 -47.5t-37.5 -33.5l233 -560zM262.5 687q-14.5 -14 -14.5 -37t14.5 -37t36.5 -14t35.5 14.5t13.5 36.5t-13.5 36.5t-35.5 14.5t-36.5 -14zM421 208l-124 317l-125 -317h249z" />
    <glyph glyph-name="atilde.sc" horiz-adv-x="602" 
d="M575 6q0 -4 -6.5 -5t-22.5 -1h-10q-21 0 -28 1.5t-9 7.5l-57 145h-291l-57 -145q-2 -6 -8.5 -7.5t-25.5 -1.5h-6q-19 0 -25 2t-4 7l231 563q3 6 10 8t30 2h6q21 0 28.5 -2t9.5 -8l234 -563zM421 208l-124 317l-125 -317h249zM326.5 656q-15.5 5 -36.5 15
q-18 9 -30.5 13.5t-26.5 4.5q-15 0 -28 -7t-30 -23q-1 -1 -4 -1q-6 0 -12 9l-8 10q-4 5 -4.5 8.5t2.5 7.5q14 18 39 31t49 13q19 0 34.5 -5t36.5 -15q18 -9 30.5 -13.5t26.5 -4.5q15 0 28 7t30 23q1 1 4 1q6 0 12 -9l8 -10q4 -5 4.5 -8.5t-2.5 -7.5q-14 -18 -39 -31t-49 -13
q-19 0 -34.5 5z" />
    <glyph glyph-name="atilde.ss01.sc" horiz-adv-x="602" 
d="M575 6q0 -4 -6.5 -5t-22.5 -1h-10q-21 0 -28 1.5t-9 7.5l-57 145h-291l-57 -145q-2 -6 -8.5 -7.5t-25.5 -1.5h-6q-19 0 -25 2t-4 7l231 563q3 6 10 8t30 2h6q21 0 28.5 -2t9.5 -8l234 -563zM421 208l-124 317l-125 -317h249zM326.5 656q-15.5 5 -36.5 15
q-18 9 -30.5 13.5t-26.5 4.5q-15 0 -28 -7t-30 -23q-1 -1 -4 -1q-6 0 -12 9l-8 10q-4 5 -4.5 8.5t2.5 7.5q14 18 39 31t49 13q19 0 34.5 -5t36.5 -15q18 -9 30.5 -13.5t26.5 -4.5q15 0 28 7t30 23q1 1 4 1q6 0 12 -9l8 -10q4 -5 4.5 -8.5t-2.5 -7.5q-14 -18 -39 -31t-49 -13
q-19 0 -34.5 5z" />
    <glyph glyph-name="ae.sc" horiz-adv-x="852" 
d="M8.5 2q-7.5 2 -3.5 7l384 562q5 7 10.5 9t22.5 2h364q4 0 5.5 -4.5t1.5 -18.5v-9q0 -14 -1.5 -18.5t-5.5 -4.5h-300v-205h255q4 0 5.5 -4.5t1.5 -18.5v-9q0 -14 -1.5 -18.5t-5.5 -4.5h-255v-212h305q7 0 7 -23v-9q0 -23 -7 -23h-371v158h-241l-101 -150q-3 -5 -9.5 -6.5
t-23.5 -1.5h-9q-20 0 -27.5 2zM420 212v302l-208 -302h208z" />
    <glyph glyph-name="aeacute.sc" horiz-adv-x="852" 
d="M8.5 2q-7.5 2 -3.5 7l384 562q5 7 10.5 9t22.5 2h364q4 0 5.5 -4.5t1.5 -18.5v-9q0 -14 -1.5 -18.5t-5.5 -4.5h-300v-205h255q4 0 5.5 -4.5t1.5 -18.5v-9q0 -14 -1.5 -18.5t-5.5 -4.5h-255v-212h305q7 0 7 -23v-9q0 -23 -7 -23h-371v158h-241l-101 -150q-3 -5 -9.5 -6.5
t-23.5 -1.5h-9q-20 0 -27.5 2zM420 212v302l-208 -302h208zM486 647l67 118q3 6 10 8t26 2h15q17 0 21 -2.5t0 -7.5l-88 -119q-3 -4 -8 -5t-19 -1h-4q-24 0 -20 7z" />
    <glyph glyph-name="b.sc" horiz-adv-x="543" 
d="M463 255.5q36 -36.5 36 -94.5q0 -78 -63.5 -119.5t-184.5 -41.5h-169v582h153q228 0 228 -147q0 -48 -29 -81t-71 -46q64 -16 100 -52.5zM148 325h81q83 0 124.5 28t41.5 80q0 49 -38.5 72t-121.5 23h-87v-203zM382 78q48 24 48 82q0 54 -45.5 84t-132.5 30h-104v-220h96
q90 0 138 24z" />
    <glyph glyph-name="c.sc" horiz-adv-x="536" 
d="M118.5 69.5q-70.5 79.5 -70.5 213.5q0 93 35 163t99 108t150 38q45 0 86.5 -9.5t72.5 -27.5q5 -3 5 -8q0 -3 -5 -15l-5 -11q-5 -11 -8 -13.5t-8 -0.5q-66 29 -133 29q-106 0 -162.5 -64t-56.5 -185q0 -107 54 -174t162 -67q68 0 135 27q2 1 6 1t6.5 -3.5t4.5 -9.5l5 -14
q5 -12 5 -16t-5 -6q-82 -35 -170 -35q-132 0 -202.5 79.5z" />
    <glyph glyph-name="cacute.loclPLK.sc" horiz-adv-x="536" 
d="M118.5 69.5q-70.5 79.5 -70.5 213.5q0 93 35 163t99 108t150 38q45 0 86.5 -9.5t72.5 -27.5q5 -3 5 -8q0 -3 -5 -15l-5 -11q-5 -11 -8 -13.5t-8 -0.5q-66 29 -133 29q-106 0 -162.5 -64t-56.5 -185q0 -107 54 -174t162 -67q68 0 135 27q2 1 6 1t6.5 -3.5t4.5 -9.5l5 -14
q5 -12 5 -16t-5 -6q-82 -35 -170 -35q-132 0 -202.5 79.5zM276 647l67 118q3 6 10 8t26 2h15q17 0 21 -2.5t0 -7.5l-88 -119q-3 -4 -8 -5t-19 -1h-4q-24 0 -20 7z" />
    <glyph glyph-name="cacute.sc" horiz-adv-x="536" 
d="M118.5 69.5q-70.5 79.5 -70.5 213.5q0 93 35 163t99 108t150 38q45 0 86.5 -9.5t72.5 -27.5q5 -3 5 -8q0 -3 -5 -15l-5 -11q-5 -11 -8 -13.5t-8 -0.5q-66 29 -133 29q-106 0 -162.5 -64t-56.5 -185q0 -107 54 -174t162 -67q68 0 135 27q2 1 6 1t6.5 -3.5t4.5 -9.5l5 -14
q5 -12 5 -16t-5 -6q-82 -35 -170 -35q-132 0 -202.5 79.5zM280 647l67 118q3 6 10 8t26 2h15q17 0 21 -2.5t0 -7.5l-88 -119q-3 -4 -8 -5t-19 -1h-4q-24 0 -20 7z" />
    <glyph glyph-name="ccaron.sc" horiz-adv-x="536" 
d="M118.5 69.5q-70.5 79.5 -70.5 213.5q0 93 35 163t99 108t150 38q45 0 86.5 -9.5t72.5 -27.5q5 -3 5 -8q0 -3 -5 -15l-5 -11q-5 -11 -8 -13.5t-8 -0.5q-66 29 -133 29q-106 0 -162.5 -64t-56.5 -185q0 -107 54 -174t162 -67q68 0 135 27q2 1 6 1t6.5 -3.5t4.5 -9.5l5 -14
q5 -12 5 -16t-5 -6q-82 -35 -170 -35q-132 0 -202.5 79.5zM296 642q-7 2 -13 8l-94 100q-2 2 -2 5q0 4 6 11l5 6q5 6 8.5 7.5t7.5 -1.5l116 -97l116 97q4 2 5 2q3 0 11 -8l5 -6q5 -6 6 -9.5t-2 -6.5l-94 -100q-6 -6 -13 -8t-21 -2h-26q-14 0 -21 2z" />
    <glyph glyph-name="ccedilla.sc" horiz-adv-x="536" 
d="M491 47q5 -12 5 -16t-5 -6q-74 -32 -154 -35l-8 -56q18 2 27 2q40 0 65 -21.5t25 -56.5q0 -38 -28 -64t-82 -26q-20 0 -41 3.5t-31 8.5q-3 1 -3 7t1 11l1 5q2 10 4 12.5t6 1.5q32 -7 55 -7q62 0 62 44q0 43 -61 43q-30 0 -53 -5l13 99q-117 10 -179 88.5t-62 203.5
q0 93 35 163t99 108t150 38q45 0 86.5 -9.5t72.5 -27.5q5 -3 5 -8q0 -3 -5 -15l-5 -11q-5 -11 -8 -13.5t-8 -0.5q-66 29 -133 29q-106 0 -162.5 -64t-56.5 -185q0 -107 54 -174t162 -67q68 0 135 27q2 1 6 1t6.5 -3.5t4.5 -9.5z" />
    <glyph glyph-name="ccircumflex.sc" horiz-adv-x="536" 
d="M118.5 69.5q-70.5 79.5 -70.5 213.5q0 93 35 163t99 108t150 38q45 0 86.5 -9.5t72.5 -27.5q5 -3 5 -8q0 -3 -5 -15l-5 -11q-5 -11 -8 -13.5t-8 -0.5q-66 29 -133 29q-106 0 -162.5 -64t-56.5 -185q0 -107 54 -174t162 -67q68 0 135 27q2 1 6 1t6.5 -3.5t4.5 -9.5l5 -14
q5 -12 5 -16t-5 -6q-82 -35 -170 -35q-132 0 -202.5 79.5zM209 630q-3 0 -11 8l-5 6q-5 6 -6 9.5t2 6.5l94 100q6 6 13 8t21 2h26q14 0 21 -2t13 -8l94 -100q2 -2 2 -5t-6 -11l-5 -6q-5 -6 -8.5 -7.5t-7.5 1.5l-116 97l-116 -97q-4 -2 -5 -2z" />
    <glyph glyph-name="cdotaccent.sc" horiz-adv-x="536" 
d="M118.5 69.5q-70.5 79.5 -70.5 213.5q0 93 35 163t99 108t150 38q45 0 86.5 -9.5t72.5 -27.5q5 -3 5 -8q0 -3 -5 -15l-5 -11q-5 -11 -8 -13.5t-8 -0.5q-66 29 -133 29q-106 0 -162.5 -64t-56.5 -185q0 -107 54 -174t162 -67q68 0 135 27q2 1 6 1t6.5 -3.5t4.5 -9.5l5 -14
q5 -12 5 -16t-5 -6q-82 -35 -170 -35q-132 0 -202.5 79.5zM296.5 664.5q-13.5 13.5 -13.5 32.5q0 20 13.5 33.5t32.5 13.5q20 0 33.5 -13.5t13.5 -33.5q0 -19 -13.5 -32.5t-33.5 -13.5q-19 0 -32.5 13.5z" />
    <glyph glyph-name="d.sc" horiz-adv-x="614" 
d="M82 582h153q167 0 251 -69t84 -219q0 -153 -84 -223.5t-250 -70.5h-154v582zM232 54q138 0 204 56t66 182q0 236 -270 236h-84v-474h84z" />
    <glyph glyph-name="eth.sc" horiz-adv-x="634" 
d="M502 513q84 -69 84 -219q0 -153 -84 -223.5t-250 -70.5h-154v270h-68q-4 0 -6 5t-2 17v4q0 13 2 18t6 5h68v263h153q167 0 251 -69zM452 110q66 56 66 182q0 236 -270 236h-84v-209h127q4 0 6 -5t2 -18v-4q0 -12 -2 -17t-6 -5h-127v-216h84q138 0 204 56z" />
    <glyph glyph-name="dcaron.sc" horiz-adv-x="614" 
d="M82 582h153q167 0 251 -69t84 -219q0 -153 -84 -223.5t-250 -70.5h-154v582zM232 54q138 0 204 56t66 182q0 236 -270 236h-84v-474h84zM273 642q-7 2 -13 8l-94 100q-2 2 -2 5q0 4 6 11l5 6q5 6 8.5 7.5t7.5 -1.5l116 -97l116 97q4 2 5 2q3 0 11 -8l5 -6q5 -6 6 -9.5
t-2 -6.5l-94 -100q-6 -6 -13 -8t-21 -2h-26q-14 0 -21 2z" />
    <glyph glyph-name="dcroat.sc" horiz-adv-x="634" 
d="M502 513q84 -69 84 -219q0 -153 -84 -223.5t-250 -70.5h-154v270h-68q-4 0 -6 5t-2 17v4q0 13 2 18t6 5h68v263h153q167 0 251 -69zM452 110q66 56 66 182q0 236 -270 236h-84v-209h127q4 0 6 -5t2 -18v-4q0 -12 -2 -17t-6 -5h-127v-216h84q138 0 204 56z" />
    <glyph glyph-name="e.sc" horiz-adv-x="513" 
d="M82 582h366q4 0 5.5 -4.5t1.5 -18.5v-9q0 -14 -1.5 -18.5t-5.5 -4.5h-300v-205h255q4 0 5.5 -4.5t1.5 -18.5v-9q0 -14 -1.5 -18.5t-5.5 -4.5h-255v-212h304q4 0 5.5 -4.5t1.5 -18.5v-9q0 -14 -1.5 -18.5t-5.5 -4.5h-370v582z" />
    <glyph glyph-name="eacute.sc" horiz-adv-x="513" 
d="M82 582h366q4 0 5.5 -4.5t1.5 -18.5v-9q0 -14 -1.5 -18.5t-5.5 -4.5h-300v-205h255q4 0 5.5 -4.5t1.5 -18.5v-9q0 -14 -1.5 -18.5t-5.5 -4.5h-255v-212h304q4 0 5.5 -4.5t1.5 -18.5v-9q0 -14 -1.5 -18.5t-5.5 -4.5h-370v582zM228 647l67 118q3 6 10 8t26 2h15
q17 0 21 -2.5t0 -7.5l-88 -119q-3 -4 -8 -5t-19 -1h-4q-24 0 -20 7z" />
    <glyph glyph-name="ebreve.sc" horiz-adv-x="513" 
d="M82 582h366q4 0 5.5 -4.5t1.5 -18.5v-9q0 -14 -1.5 -18.5t-5.5 -4.5h-300v-205h255q4 0 5.5 -4.5t1.5 -18.5v-9q0 -14 -1.5 -18.5t-5.5 -4.5h-255v-212h304q4 0 5.5 -4.5t1.5 -18.5v-9q0 -14 -1.5 -18.5t-5.5 -4.5h-370v582zM180.5 670q-38.5 30 -38.5 81q0 3 3.5 4.5
t15.5 1.5h12q13 0 15.5 -1.5t3.5 -8.5q4 -32 26 -49t60 -17t60 17t26 49q1 7 3.5 8.5t15.5 1.5h12q13 0 16 -1.5t3 -4.5q0 -51 -38.5 -81t-97.5 -30t-97.5 30z" />
    <glyph glyph-name="ecaron.sc" horiz-adv-x="513" 
d="M82 582h366q4 0 5.5 -4.5t1.5 -18.5v-9q0 -14 -1.5 -18.5t-5.5 -4.5h-300v-205h255q4 0 5.5 -4.5t1.5 -18.5v-9q0 -14 -1.5 -18.5t-5.5 -4.5h-255v-212h304q4 0 5.5 -4.5t1.5 -18.5v-9q0 -14 -1.5 -18.5t-5.5 -4.5h-370v582zM244 642q-7 2 -13 8l-94 100q-2 2 -2 5
q0 4 6 11l5 6q5 6 8.5 7.5t7.5 -1.5l116 -97l116 97q4 2 5 2q3 0 11 -8l5 -6q5 -6 6 -9.5t-2 -6.5l-94 -100q-6 -6 -13 -8t-21 -2h-26q-14 0 -21 2z" />
    <glyph glyph-name="ecircumflex.sc" horiz-adv-x="513" 
d="M82 582h366q4 0 5.5 -4.5t1.5 -18.5v-9q0 -14 -1.5 -18.5t-5.5 -4.5h-300v-205h255q4 0 5.5 -4.5t1.5 -18.5v-9q0 -14 -1.5 -18.5t-5.5 -4.5h-255v-212h304q4 0 5.5 -4.5t1.5 -18.5v-9q0 -14 -1.5 -18.5t-5.5 -4.5h-370v582zM157 630q-3 0 -11 8l-5 6q-5 6 -6 9.5t2 6.5
l94 100q6 6 13 8t21 2h26q14 0 21 -2t13 -8l94 -100q2 -2 2 -5t-6 -11l-5 -6q-5 -6 -8.5 -7.5t-7.5 1.5l-116 97l-116 -97q-4 -2 -5 -2z" />
    <glyph glyph-name="edieresis.sc" horiz-adv-x="513" 
d="M82 582h366q4 0 5.5 -4.5t1.5 -18.5v-9q0 -14 -1.5 -18.5t-5.5 -4.5h-300v-205h255q4 0 5.5 -4.5t1.5 -18.5v-9q0 -14 -1.5 -18.5t-5.5 -4.5h-255v-212h304q4 0 5.5 -4.5t1.5 -18.5v-9q0 -14 -1.5 -18.5t-5.5 -4.5h-370v582zM143 665q-14 14 -14 33q0 20 14 34t33 14
q20 0 34 -14t14 -34q0 -19 -14 -33t-34 -14q-19 0 -33 14zM345 665q-14 14 -14 33q0 20 14 34t33 14q20 0 34 -14t14 -34q0 -19 -14 -33t-34 -14q-19 0 -33 14z" />
    <glyph glyph-name="edotaccent.sc" horiz-adv-x="513" 
d="M82 582h366q4 0 5.5 -4.5t1.5 -18.5v-9q0 -14 -1.5 -18.5t-5.5 -4.5h-300v-205h255q4 0 5.5 -4.5t1.5 -18.5v-9q0 -14 -1.5 -18.5t-5.5 -4.5h-255v-212h304q4 0 5.5 -4.5t1.5 -18.5v-9q0 -14 -1.5 -18.5t-5.5 -4.5h-370v582zM244.5 664.5q-13.5 13.5 -13.5 32.5
q0 20 13.5 33.5t32.5 13.5q20 0 33.5 -13.5t13.5 -33.5q0 -19 -13.5 -32.5t-33.5 -13.5q-19 0 -32.5 13.5z" />
    <glyph glyph-name="egrave.sc" horiz-adv-x="513" 
d="M82 582h366q4 0 5.5 -4.5t1.5 -18.5v-9q0 -14 -1.5 -18.5t-5.5 -4.5h-300v-205h255q4 0 5.5 -4.5t1.5 -18.5v-9q0 -14 -1.5 -18.5t-5.5 -4.5h-255v-212h304q4 0 5.5 -4.5t1.5 -18.5v-9q0 -14 -1.5 -18.5t-5.5 -4.5h-370v582zM275 641q-5 1 -8 5l-88 119q-2 4 -2 5
q0 5 23 5h15q19 0 26 -2t10 -8l67 -118l1 -2q0 -5 -21 -5h-4q-14 0 -19 1z" />
    <glyph glyph-name="emacron.sc" horiz-adv-x="513" 
d="M82 582h366q4 0 5.5 -4.5t1.5 -18.5v-9q0 -14 -1.5 -18.5t-5.5 -4.5h-300v-205h255q4 0 5.5 -4.5t1.5 -18.5v-9q0 -14 -1.5 -18.5t-5.5 -4.5h-255v-212h304q4 0 5.5 -4.5t1.5 -18.5v-9q0 -14 -1.5 -18.5t-5.5 -4.5h-370v582zM140.5 656.5q-1.5 5.5 -1.5 19.5v3
q0 15 1.5 19t6.5 4h262q5 0 6.5 -4t1.5 -19v-3q0 -14 -1.5 -19.5t-6.5 -5.5h-262q-5 0 -6.5 5.5z" />
    <glyph glyph-name="eogonek.sc" horiz-adv-x="514" 
d="M458.5 50.5q1.5 -4.5 1.5 -18.5v-9q0 -14 -2 -18t-8 -5q-49 -6 -86 -41.5t-37 -86.5q0 -27 15.5 -42t43.5 -15q21 0 48 9h2q4 0 8 -14l1 -5q1 -8 1 -12.5t-3 -5.5q-15 -7 -34 -11.5t-34 -4.5q-47 0 -76 26.5t-29 68.5q0 39 23 75t63 59h-274v582h367q4 0 5.5 -4.5
t1.5 -18.5v-9q0 -14 -1.5 -18.5t-5.5 -4.5h-300v-205h255q4 0 5.5 -4.5t1.5 -18.5v-9q0 -14 -1.5 -18.5t-5.5 -4.5h-255v-212h304q4 0 5.5 -4.5z" />
    <glyph glyph-name="f.sc" horiz-adv-x="462" 
d="M432 559v-9q0 -23 -7 -23h-276v-205h231q7 0 7 -23v-9q0 -23 -7 -23h-231v-258q0 -6 -5 -7.5t-24 -1.5h-9q-19 0 -24 1.5t-5 7.5v573h343q7 0 7 -23z" />
    <glyph glyph-name="f_f.liga.sc" horiz-adv-x="924" 
d="M432 559v-9q0 -23 -7 -23h-276v-205h231q7 0 7 -23v-9q0 -23 -7 -23h-231v-258q0 -6 -5 -7.5t-24 -1.5h-9q-19 0 -24 1.5t-5 7.5v573h343q7 0 7 -23zM894 559v-9q0 -23 -7 -23h-276v-205h231q7 0 7 -23v-9q0 -23 -7 -23h-231v-258q0 -6 -5 -7.5t-24 -1.5h-9
q-19 0 -24 1.5t-5 7.5v573h343q7 0 7 -23z" />
    <glyph glyph-name="f_f_i.liga.sc" horiz-adv-x="1154" 
d="M432 559v-9q0 -23 -7 -23h-276v-205h231q7 0 7 -23v-9q0 -23 -7 -23h-231v-258q0 -6 -5 -7.5t-24 -1.5h-9q-19 0 -24 1.5t-5 7.5v573h343q7 0 7 -23zM894 559v-9q0 -23 -7 -23h-276v-205h231q7 0 7 -23v-9q0 -23 -7 -23h-231v-258q0 -6 -5 -7.5t-24 -1.5h-9
q-19 0 -24 1.5t-5 7.5v573h343q7 0 7 -23zM1011 1.5q-5 1.5 -5 7.5v564q0 6 5 7.5t23 1.5h9q19 0 24 -1.5t5 -7.5v-564q0 -6 -5 -7.5t-24 -1.5h-9q-18 0 -23 1.5z" />
    <glyph glyph-name="f_f_l.liga.sc" horiz-adv-x="1402" 
d="M432 559v-9q0 -23 -7 -23h-276v-205h231q7 0 7 -23v-9q0 -23 -7 -23h-231v-258q0 -6 -5 -7.5t-24 -1.5h-9q-19 0 -24 1.5t-5 7.5v573h343q7 0 7 -23zM894 559v-9q0 -23 -7 -23h-276v-205h231q7 0 7 -23v-9q0 -23 -7 -23h-231v-258q0 -6 -5 -7.5t-24 -1.5h-9
q-19 0 -24 1.5t-5 7.5v573h343q7 0 7 -23zM1012 2q-5 2 -5 9v562q0 6 5 7.5t24 1.5h8q19 0 24 -1.5t5 -7.5v-518h282q4 0 5.5 -4.5t1.5 -18.5v-9q0 -14 -1.5 -18.5t-5.5 -4.5h-320q-18 0 -23 2z" />
    <glyph glyph-name="fi.sc" horiz-adv-x="692" 
d="M432 559v-9q0 -23 -7 -23h-276v-205h231q7 0 7 -23v-9q0 -23 -7 -23h-231v-258q0 -6 -5 -7.5t-24 -1.5h-9q-19 0 -24 1.5t-5 7.5v573h343q7 0 7 -23zM549 1.5q-5 1.5 -5 7.5v564q0 6 5 7.5t23 1.5h9q19 0 24 -1.5t5 -7.5v-564q0 -6 -5 -7.5t-24 -1.5h-9q-18 0 -23 1.5z
" />
    <glyph glyph-name="fl.sc" horiz-adv-x="940" 
d="M432 559v-9q0 -23 -7 -23h-276v-205h231q7 0 7 -23v-9q0 -23 -7 -23h-231v-258q0 -6 -5 -7.5t-24 -1.5h-9q-19 0 -24 1.5t-5 7.5v573h343q7 0 7 -23zM550 2q-5 2 -5 9v562q0 6 5 7.5t24 1.5h8q19 0 24 -1.5t5 -7.5v-518h282q4 0 5.5 -4.5t1.5 -18.5v-9q0 -14 -1.5 -18.5
t-5.5 -4.5h-320q-18 0 -23 2z" />
    <glyph glyph-name="g.sc" horiz-adv-x="610" 
d="M123.5 68q-75.5 78 -75.5 218q0 94 35.5 163t101.5 106t156 37q107 0 183 -47q5 -2 5 -7q0 -6 -7 -17l-5 -9q-6 -11 -9.5 -13.5t-8.5 -0.5q-74 38 -157 38q-113 0 -168.5 -68t-55.5 -178q0 -118 60 -181.5t172 -63.5q67 0 130 20v187h-155q-4 0 -5.5 4.5t-1.5 18.5v9
q0 14 1.5 18.5t5.5 4.5h220v-278q-108 -39 -204 -39q-142 0 -217.5 78z" />
    <glyph glyph-name="gbreve.sc" horiz-adv-x="610" 
d="M123.5 68q-75.5 78 -75.5 218q0 94 35.5 163t101.5 106t156 37q107 0 183 -47q5 -2 5 -7q0 -6 -7 -17l-5 -9q-6 -11 -9.5 -13.5t-8.5 -0.5q-74 38 -157 38q-113 0 -168.5 -68t-55.5 -178q0 -118 60 -181.5t172 -63.5q67 0 130 20v187h-155q-4 0 -5.5 4.5t-1.5 18.5v9
q0 14 1.5 18.5t5.5 4.5h220v-278q-108 -39 -204 -39q-142 0 -217.5 78zM243.5 670q-38.5 30 -38.5 81q0 3 3.5 4.5t15.5 1.5h12q13 0 15.5 -1.5t3.5 -8.5q4 -32 26 -49t60 -17t60 17t26 49q1 7 3.5 8.5t15.5 1.5h12q13 0 16 -1.5t3 -4.5q0 -51 -38.5 -81t-97.5 -30t-97.5 30
z" />
    <glyph glyph-name="gcircumflex.sc" horiz-adv-x="610" 
d="M123.5 68q-75.5 78 -75.5 218q0 94 35.5 163t101.5 106t156 37q107 0 183 -47q5 -2 5 -7q0 -6 -7 -17l-5 -9q-6 -11 -9.5 -13.5t-8.5 -0.5q-74 38 -157 38q-113 0 -168.5 -68t-55.5 -178q0 -118 60 -181.5t172 -63.5q67 0 130 20v187h-155q-4 0 -5.5 4.5t-1.5 18.5v9
q0 14 1.5 18.5t5.5 4.5h220v-278q-108 -39 -204 -39q-142 0 -217.5 78zM220 630q-3 0 -11 8l-5 6q-5 6 -6 9.5t2 6.5l94 100q6 6 13 8t21 2h26q14 0 21 -2t13 -8l94 -100q2 -2 2 -5t-6 -11l-5 -6q-5 -6 -8.5 -7.5t-7.5 1.5l-116 97l-116 -97q-4 -2 -5 -2z" />
    <glyph glyph-name="gcommaaccent.sc" horiz-adv-x="610" 
d="M123.5 68q-75.5 78 -75.5 218q0 94 35.5 163t101.5 106t156 37q107 0 183 -47q5 -2 5 -7q0 -6 -7 -17l-5 -9q-6 -11 -9.5 -13.5t-8.5 -0.5q-74 38 -157 38q-113 0 -168.5 -68t-55.5 -178q0 -118 60 -181.5t172 -63.5q67 0 130 20v187h-155q-4 0 -5.5 4.5t-1.5 18.5v9
q0 14 1.5 18.5t5.5 4.5h220v-278q-108 -39 -204 -39q-142 0 -217.5 78zM298 -276q-3 0 -9 6l-5 5q-4 4 -4 7t3 6q20 21 34.5 44.5t14.5 42.5q0 12 -4.5 20.5t-13.5 18.5q-8 9 -12 16.5t-4 18.5q0 17 12 27.5t29 10.5q22 0 35.5 -15.5t13.5 -38.5q0 -47 -22.5 -91t-62.5 -76
q-4 -2 -5 -2z" />
    <glyph glyph-name="gdotaccent.sc" horiz-adv-x="610" 
d="M123.5 68q-75.5 78 -75.5 218q0 94 35.5 163t101.5 106t156 37q107 0 183 -47q5 -2 5 -7q0 -6 -7 -17l-5 -9q-6 -11 -9.5 -13.5t-8.5 -0.5q-74 38 -157 38q-113 0 -168.5 -68t-55.5 -178q0 -118 60 -181.5t172 -63.5q67 0 130 20v187h-155q-4 0 -5.5 4.5t-1.5 18.5v9
q0 14 1.5 18.5t5.5 4.5h220v-278q-108 -39 -204 -39q-142 0 -217.5 78zM307.5 664.5q-13.5 13.5 -13.5 32.5q0 20 13.5 33.5t32.5 13.5q20 0 33.5 -13.5t13.5 -33.5q0 -19 -13.5 -32.5t-33.5 -13.5q-19 0 -32.5 13.5z" />
    <glyph glyph-name="h.sc" horiz-adv-x="629" 
d="M542 580.5q5 -1.5 5 -7.5v-564q0 -6 -5 -7.5t-24 -1.5h-9q-19 0 -23.5 1.5t-4.5 7.5v258h-333v-258q0 -6 -5 -7.5t-24 -1.5h-9q-19 0 -23.5 1.5t-4.5 7.5v564q0 6 4.5 7.5t23.5 1.5h9q19 0 24 -1.5t5 -7.5v-251h333v251q0 6 4.5 7.5t23.5 1.5h9q19 0 24 -1.5z" />
    <glyph glyph-name="hbar.sc" horiz-adv-x="633" 
d="M607 478q2 -5 2 -18v-4q0 -12 -2 -17t-6 -5h-52v-425q0 -6 -5 -7.5t-24 -1.5h-9q-19 0 -23.5 1.5t-4.5 7.5v258h-333v-258q0 -6 -5 -7.5t-24 -1.5h-9q-19 0 -23.5 1.5t-4.5 7.5v425h-52q-4 0 -6 5t-2 17v4q0 13 2 18t6 5h52v90q0 6 4.5 7.5t23.5 1.5h9q19 0 24 -1.5
t5 -7.5v-90h333v90q0 6 4.5 7.5t23.5 1.5h9q19 0 24 -1.5t5 -7.5v-90h52q4 0 6 -5zM483 434h-333v-112h333v112z" />
    <glyph glyph-name="hcircumflex.sc" horiz-adv-x="629" 
d="M542 580.5q5 -1.5 5 -7.5v-564q0 -6 -5 -7.5t-24 -1.5h-9q-19 0 -23.5 1.5t-4.5 7.5v258h-333v-258q0 -6 -5 -7.5t-24 -1.5h-9q-19 0 -23.5 1.5t-4.5 7.5v564q0 6 4.5 7.5t23.5 1.5h9q19 0 24 -1.5t5 -7.5v-251h333v251q0 6 4.5 7.5t23.5 1.5h9q19 0 24 -1.5zM194 630
q-3 0 -11 8l-5 6q-5 6 -6 9.5t2 6.5l94 100q6 6 13 8t21 2h26q14 0 21 -2t13 -8l94 -100q2 -2 2 -5t-6 -11l-5 -6q-5 -6 -8.5 -7.5t-7.5 1.5l-116 97l-116 -97q-4 -2 -5 -2z" />
    <glyph glyph-name="i.sc" horiz-adv-x="230" 
d="M87 1.5q-5 1.5 -5 7.5v564q0 6 5 7.5t23 1.5h9q19 0 24 -1.5t5 -7.5v-564q0 -6 -5 -7.5t-24 -1.5h-9q-18 0 -23 1.5z" />
    <glyph glyph-name="dotlessi.sc" horiz-adv-x="230" 
d="M87 1.5q-5 1.5 -5 7.5v564q0 6 5 7.5t23 1.5h9q19 0 24 -1.5t5 -7.5v-564q0 -6 -5 -7.5t-24 -1.5h-9q-18 0 -23 1.5z" />
    <glyph glyph-name="iacute.sc" horiz-adv-x="230" 
d="M87 1.5q-5 1.5 -5 7.5v564q0 6 5 7.5t23 1.5h9q19 0 24 -1.5t5 -7.5v-564q0 -6 -5 -7.5t-24 -1.5h-9q-18 0 -23 1.5zM65 647l67 118q3 6 10 8t26 2h15q17 0 21 -2.5t0 -7.5l-88 -119q-3 -4 -8 -5t-19 -1h-4q-24 0 -20 7z" />
    <glyph glyph-name="iacute_j.loclNLD.sc" horiz-adv-x="649" 
d="M87 1.5q-5 1.5 -5 7.5v564q0 6 5 7.5t23 1.5h9q19 0 24 -1.5t5 -7.5v-564q0 -6 -5 -7.5t-24 -1.5h-9q-18 0 -23 1.5zM65 647l67 118q3 6 10 8t26 2h15q17 0 21 -2.5t0 -7.5l-88 -119q-3 -4 -8 -5t-19 -1h-4q-24 0 -20 7zM323.5 -0.5q-36.5 9.5 -64.5 27.5q-5 3 -5 7t7 17
l6 11q3 5 6 8.5t6 3.5q5 0 8 -2q57 -27 110 -27q112 0 112 123v405q0 6 5 7.5t24 1.5h8q19 0 24 -1.5t5 -7.5v-408q0 -86 -44.5 -130.5t-130.5 -44.5q-40 0 -76.5 9.5zM492 647l67 118q3 6 10 8t26 2h15q17 0 21 -2.5t0 -7.5l-88 -119q-3 -4 -8 -5t-19 -1h-4q-24 0 -20 7z
" />
    <glyph glyph-name="ibreve.sc" horiz-adv-x="230" 
d="M87 1.5q-5 1.5 -5 7.5v564q0 6 5 7.5t23 1.5h9q19 0 24 -1.5t5 -7.5v-564q0 -6 -5 -7.5t-24 -1.5h-9q-18 0 -23 1.5zM17.5 670q-38.5 30 -38.5 81q0 3 3.5 4.5t15.5 1.5h12q13 0 15.5 -1.5t3.5 -8.5q4 -32 26 -49t60 -17t60 17t26 49q1 7 3.5 8.5t15.5 1.5h12
q13 0 16 -1.5t3 -4.5q0 -51 -38.5 -81t-97.5 -30t-97.5 30z" />
    <glyph glyph-name="icircumflex.sc" horiz-adv-x="230" 
d="M87 1.5q-5 1.5 -5 7.5v564q0 6 5 7.5t23 1.5h9q19 0 24 -1.5t5 -7.5v-564q0 -6 -5 -7.5t-24 -1.5h-9q-18 0 -23 1.5zM-6 630q-3 0 -11 8l-5 6q-5 6 -6 9.5t2 6.5l94 100q6 6 13 8t21 2h26q14 0 21 -2t13 -8l94 -100q2 -2 2 -5t-6 -11l-5 -6q-5 -6 -8.5 -7.5t-7.5 1.5
l-116 97l-116 -97q-4 -2 -5 -2z" />
    <glyph glyph-name="idieresis.sc" horiz-adv-x="230" 
d="M87 1.5q-5 1.5 -5 7.5v564q0 6 5 7.5t23 1.5h9q19 0 24 -1.5t5 -7.5v-564q0 -6 -5 -7.5t-24 -1.5h-9q-18 0 -23 1.5zM-20 665q-14 14 -14 33q0 20 14 34t33 14q20 0 34 -14t14 -34q0 -19 -14 -33t-34 -14q-19 0 -33 14zM182 665q-14 14 -14 33q0 20 14 34t33 14
q20 0 34 -14t14 -34q0 -19 -14 -33t-34 -14q-19 0 -33 14z" />
    <glyph glyph-name="i.sc.loclTRK" horiz-adv-x="230" 
d="M87 1.5q-5 1.5 -5 7.5v564q0 6 5 7.5t23 1.5h9q19 0 24 -1.5t5 -7.5v-564q0 -6 -5 -7.5t-24 -1.5h-9q-18 0 -23 1.5zM81.5 664.5q-13.5 13.5 -13.5 32.5q0 20 13.5 33.5t32.5 13.5q20 0 33.5 -13.5t13.5 -33.5q0 -19 -13.5 -32.5t-33.5 -13.5q-19 0 -32.5 13.5z" />
    <glyph glyph-name="igrave.sc" horiz-adv-x="230" 
d="M87 1.5q-5 1.5 -5 7.5v564q0 6 5 7.5t23 1.5h9q19 0 24 -1.5t5 -7.5v-564q0 -6 -5 -7.5t-24 -1.5h-9q-18 0 -23 1.5zM112 641q-5 1 -8 5l-88 119q-2 4 -2 5q0 5 23 5h15q19 0 26 -2t10 -8l67 -118l1 -2q0 -5 -21 -5h-4q-14 0 -19 1z" />
    <glyph glyph-name="ij.sc" horiz-adv-x="649" 
d="M87 1.5q-5 1.5 -5 7.5v564q0 6 5 7.5t23 1.5h9q19 0 24 -1.5t5 -7.5v-564q0 -6 -5 -7.5t-24 -1.5h-9q-18 0 -23 1.5zM323.5 -0.5q-36.5 9.5 -64.5 27.5q-5 3 -5 7t7 17l6 11q3 5 6 8.5t6 3.5q5 0 8 -2q57 -27 110 -27q112 0 112 123v405q0 6 5 7.5t24 1.5h8q19 0 24 -1.5
t5 -7.5v-408q0 -86 -44.5 -130.5t-130.5 -44.5q-40 0 -76.5 9.5z" />
    <glyph glyph-name="imacron.sc" horiz-adv-x="230" 
d="M87 1.5q-5 1.5 -5 7.5v564q0 6 5 7.5t23 1.5h9q19 0 24 -1.5t5 -7.5v-564q0 -6 -5 -7.5t-24 -1.5h-9q-18 0 -23 1.5zM-22.5 656.5q-1.5 5.5 -1.5 19.5v3q0 15 1.5 19t6.5 4h262q5 0 6.5 -4t1.5 -19v-3q0 -14 -1.5 -19.5t-6.5 -5.5h-262q-5 0 -6.5 5.5z" />
    <glyph glyph-name="iogonek.sc" horiz-adv-x="231" 
d="M172 -204.5q0 -4.5 -3 -5.5q-37 -17 -78 -17q-44 0 -74 24.5t-30 71.5q0 41 24.5 76.5t70.5 61.5v566q0 6 5 7.5t23 1.5h9q19 0 24 -1.5t5 -7.5v-561q0 -6 -1 -8t-6 -4q-49 -19 -73 -51.5t-24 -71.5q0 -30 16.5 -45t46.5 -15q23 0 53 10h2q4 0 8 -14l1 -5q1 -8 1 -12.5z
" />
    <glyph glyph-name="itilde.sc" horiz-adv-x="230" 
d="M87 1.5q-5 1.5 -5 7.5v564q0 6 5 7.5t23 1.5h9q19 0 24 -1.5t5 -7.5v-564q0 -6 -5 -7.5t-24 -1.5h-9q-18 0 -23 1.5zM142.5 656q-15.5 5 -36.5 15q-18 9 -30.5 13.5t-26.5 4.5q-15 0 -28 -7t-30 -23q-1 -1 -4 -1q-6 0 -12 9l-8 10q-4 5 -4.5 8.5t2.5 7.5q14 18 39 31
t49 13q19 0 34.5 -5t36.5 -15q18 -9 30.5 -13.5t26.5 -4.5q15 0 28 7t30 23q1 1 4 1q6 0 12 -9l8 -10q4 -5 4.5 -8.5t-2.5 -7.5q-14 -18 -39 -31t-49 -13q-19 0 -34.5 5z" />
    <glyph glyph-name="j.sc" horiz-adv-x="419" 
d="M93.5 -0.5q-36.5 9.5 -64.5 27.5q-5 3 -5 7t7 17l6 11q3 5 6 8.5t6 3.5q5 0 8 -2q57 -27 110 -27q112 0 112 123v405q0 6 5 7.5t24 1.5h8q19 0 24 -1.5t5 -7.5v-408q0 -86 -44.5 -130.5t-130.5 -44.5q-40 0 -76.5 9.5z" />
    <glyph glyph-name="uni0237.sc" horiz-adv-x="419" 
d="M93.5 -0.5q-36.5 9.5 -64.5 27.5q-5 3 -5 7t7 17l6 11q3 5 6 8.5t6 3.5q5 0 8 -2q57 -27 110 -27q112 0 112 123v405q0 6 5 7.5t24 1.5h8q19 0 24 -1.5t5 -7.5v-408q0 -86 -44.5 -130.5t-130.5 -44.5q-40 0 -76.5 9.5z" />
    <glyph glyph-name="jcircumflex.sc" horiz-adv-x="419" 
d="M93.5 -0.5q-36.5 9.5 -64.5 27.5q-5 3 -5 7t7 17l6 11q3 5 6 8.5t6 3.5q5 0 8 -2q57 -27 110 -27q112 0 112 123v405q0 6 5 7.5t24 1.5h8q19 0 24 -1.5t5 -7.5v-408q0 -86 -44.5 -130.5t-130.5 -44.5q-40 0 -76.5 9.5zM191 630q-3 0 -11 8l-5 6q-5 6 -6 9.5t2 6.5l94 100
q6 6 13 8t21 2h26q14 0 21 -2t13 -8l94 -100q2 -2 2 -5t-6 -11l-5 -6q-5 -6 -8.5 -7.5t-7.5 1.5l-116 97l-116 -97q-4 -2 -5 -2z" />
    <glyph glyph-name="k.sc" horiz-adv-x="552" 
d="M528 6q0 -4 -5.5 -5t-19.5 -1h-16q-19 0 -27 2t-12 7l-201 286l-99 -89v-197q0 -6 -5 -7.5t-24 -1.5h-9q-19 0 -23.5 1.5t-4.5 7.5v564q0 6 4.5 7.5t23.5 1.5h9q19 0 24 -1.5t5 -7.5v-296l97 86q116 102 188 210q4 6 9.5 7.5t20.5 1.5h12q16 0 19.5 -2t-0.5 -10
q-25 -44 -79 -107.5t-120 -124.5l231 -328z" />
    <glyph glyph-name="kcommaaccent.sc" horiz-adv-x="552" 
d="M528 6q0 -4 -5.5 -5t-19.5 -1h-16q-19 0 -27 2t-12 7l-201 286l-99 -89v-197q0 -6 -5 -7.5t-24 -1.5h-9q-19 0 -23.5 1.5t-4.5 7.5v564q0 6 4.5 7.5t23.5 1.5h9q19 0 24 -1.5t5 -7.5v-296l97 86q116 102 188 210q4 6 9.5 7.5t20.5 1.5h12q16 0 19.5 -2t-0.5 -10
q-25 -44 -79 -107.5t-120 -124.5l231 -328zM250 -276q-3 0 -9 6l-5 5q-4 4 -4 7t3 6q20 21 34.5 44.5t14.5 42.5q0 12 -4.5 20.5t-13.5 18.5q-8 9 -12 16.5t-4 18.5q0 17 12 27.5t29 10.5q22 0 35.5 -15.5t13.5 -38.5q0 -47 -22.5 -91t-62.5 -76q-4 -2 -5 -2z" />
    <glyph glyph-name="l.sc" horiz-adv-x="478" 
d="M88 2q-5 2 -5 9v562q0 6 5 7.5t24 1.5h8q19 0 24 -1.5t5 -7.5v-518h282q4 0 5.5 -4.5t1.5 -18.5v-9q0 -14 -1.5 -18.5t-5.5 -4.5h-320q-18 0 -23 2z" />
    <glyph glyph-name="lacute.sc" horiz-adv-x="478" 
d="M88 2q-5 2 -5 9v562q0 6 5 7.5t24 1.5h8q19 0 24 -1.5t5 -7.5v-518h282q4 0 5.5 -4.5t1.5 -18.5v-9q0 -14 -1.5 -18.5t-5.5 -4.5h-320q-18 0 -23 2zM66 647l67 118q3 6 10 8t26 2h15q17 0 21 -2.5t0 -7.5l-88 -119q-3 -4 -8 -5t-19 -1h-4q-24 0 -20 7z" />
    <glyph glyph-name="lcaron.sc" horiz-adv-x="478" 
d="M88 2q-5 2 -5 9v562q0 6 5 7.5t24 1.5h8q19 0 24 -1.5t5 -7.5v-518h282q4 0 5.5 -4.5t1.5 -18.5v-9q0 -14 -1.5 -18.5t-5.5 -4.5h-320q-18 0 -23 2zM235 369q-3 0 -9 6l-5 5q-4 4 -4 7t3 6q20 21 34.5 44.5t14.5 42.5q0 12 -4.5 20.5t-13.5 18.5q-8 9 -12 16.5t-4 18.5
q0 17 12 27.5t29 10.5q22 0 35.5 -15.5t13.5 -38.5q0 -47 -22.5 -91t-62.5 -76q-4 -2 -5 -2z" />
    <glyph glyph-name="lcommaaccent.sc" horiz-adv-x="478" 
d="M88 2q-5 2 -5 9v562q0 6 5 7.5t24 1.5h8q19 0 24 -1.5t5 -7.5v-518h282q4 0 5.5 -4.5t1.5 -18.5v-9q0 -14 -1.5 -18.5t-5.5 -4.5h-320q-18 0 -23 2zM225 -276q-3 0 -9 6l-5 5q-4 4 -4 7t3 6q20 21 34.5 44.5t14.5 42.5q0 12 -4.5 20.5t-13.5 18.5q-8 9 -12 16.5t-4 18.5
q0 17 12 27.5t29 10.5q22 0 35.5 -15.5t13.5 -38.5q0 -47 -22.5 -91t-62.5 -76q-4 -2 -5 -2z" />
    <glyph glyph-name="ldot.sc" horiz-adv-x="478" 
d="M88 2q-5 2 -5 9v562q0 6 5 7.5t24 1.5h8q19 0 24 -1.5t5 -7.5v-518h282q4 0 5.5 -4.5t1.5 -18.5v-9q0 -14 -1.5 -18.5t-5.5 -4.5h-320q-18 0 -23 2zM302.5 270.5q-16.5 16.5 -16.5 41.5q0 24 16.5 41t39.5 17q24 0 40.5 -16.5t16.5 -41.5t-16.5 -41.5t-40.5 -16.5
q-23 0 -39.5 16.5z" />
    <glyph glyph-name="lslash.sc" horiz-adv-x="486" 
d="M444.5 50.5q1.5 -4.5 1.5 -18.5v-9q0 -14 -1.5 -18.5t-5.5 -4.5h-320q-18 0 -23 2t-5 9v219l-66 -45l-5 -2q-6 0 -6 14v16q0 11 1.5 16t5.5 7l70 48v289q0 6 5 7.5t24 1.5h8q19 0 24 -1.5t5 -7.5v-243l89 61q2 2 5 2q6 0 6 -18v-12q0 -11 -1 -15t-6 -8l-93 -64v-221h282
q4 0 5.5 -4.5z" />
    <glyph glyph-name="m.sc" horiz-adv-x="720" 
d="M86.5 1.5q-4.5 1.5 -4.5 6.5v567q0 5 6 6.5t29 1.5h5q19 0 25.5 -1.5t8.5 -6.5l134 -258q40 -77 73 -150q37 82 71 150l127 257q3 6 9.5 7.5t27.5 1.5h7q21 0 27 -1.5t6 -6.5v-567q0 -5 -5.5 -6.5t-24.5 -1.5h-5q-17 0 -22 1.5t-5 5.5l1 286q0 146 1 193
q-27 -64 -74 -156l-114 -221q-3 -4 -7.5 -6t-19.5 -2h-4q-16 0 -21 1t-7 6l-115 221q-51 97 -75 156q2 -100 2 -192v-285q0 -5 -5.5 -6.5t-23.5 -1.5h-6q-17 0 -21.5 1.5z" />
    <glyph glyph-name="n.sc" horiz-adv-x="652" 
d="M86.5 1.5q-4.5 1.5 -4.5 6.5v566q0 5 4.5 6.5t21.5 1.5h10q22 0 28 -1.5t11 -7.5l247 -340l39 -54q13 -17 29.5 -40t38.5 -52v487q0 5 4.5 6.5t21.5 1.5h8q16 0 20.5 -1.5t4.5 -6.5v-566q0 -5 -4.5 -6.5t-20.5 -1.5h-9q-22 0 -29 1.5t-11 6.5l-355 486v-179v-307
q0 -5 -4.5 -6.5t-20.5 -1.5h-8q-17 0 -21.5 1.5z" />
    <glyph glyph-name="nacute.loclPLK.sc" horiz-adv-x="652" 
d="M86.5 1.5q-4.5 1.5 -4.5 6.5v566q0 5 4.5 6.5t21.5 1.5h10q22 0 28 -1.5t11 -7.5l247 -340l39 -54q13 -17 29.5 -40t38.5 -52v487q0 5 4.5 6.5t21.5 1.5h8q16 0 20.5 -1.5t4.5 -6.5v-566q0 -5 -4.5 -6.5t-20.5 -1.5h-9q-22 0 -29 1.5t-11 6.5l-355 486v-179v-307
q0 -5 -4.5 -6.5t-20.5 -1.5h-8q-17 0 -21.5 1.5zM272 647l67 118q3 6 10 8t26 2h15q17 0 21 -2.5t0 -7.5l-88 -119q-3 -4 -8 -5t-19 -1h-4q-24 0 -20 7z" />
    <glyph glyph-name="nacute.sc" horiz-adv-x="652" 
d="M86.5 1.5q-4.5 1.5 -4.5 6.5v566q0 5 4.5 6.5t21.5 1.5h10q22 0 28 -1.5t11 -7.5l247 -340l39 -54q13 -17 29.5 -40t38.5 -52v487q0 5 4.5 6.5t21.5 1.5h8q16 0 20.5 -1.5t4.5 -6.5v-566q0 -5 -4.5 -6.5t-20.5 -1.5h-9q-22 0 -29 1.5t-11 6.5l-355 486v-179v-307
q0 -5 -4.5 -6.5t-20.5 -1.5h-8q-17 0 -21.5 1.5zM276 647l67 118q3 6 10 8t26 2h15q17 0 21 -2.5t0 -7.5l-88 -119q-3 -4 -8 -5t-19 -1h-4q-24 0 -20 7z" />
    <glyph glyph-name="ncaron.sc" horiz-adv-x="652" 
d="M86.5 1.5q-4.5 1.5 -4.5 6.5v566q0 5 4.5 6.5t21.5 1.5h10q22 0 28 -1.5t11 -7.5l247 -340l39 -54q13 -17 29.5 -40t38.5 -52v487q0 5 4.5 6.5t21.5 1.5h8q16 0 20.5 -1.5t4.5 -6.5v-566q0 -5 -4.5 -6.5t-20.5 -1.5h-9q-22 0 -29 1.5t-11 6.5l-355 486v-179v-307
q0 -5 -4.5 -6.5t-20.5 -1.5h-8q-17 0 -21.5 1.5zM292 642q-7 2 -13 8l-94 100q-2 2 -2 5q0 4 6 11l5 6q5 6 8.5 7.5t7.5 -1.5l116 -97l116 97q4 2 5 2q3 0 11 -8l5 -6q5 -6 6 -9.5t-2 -6.5l-94 -100q-6 -6 -13 -8t-21 -2h-26q-14 0 -21 2z" />
    <glyph glyph-name="ncommaaccent.sc" horiz-adv-x="652" 
d="M86.5 1.5q-4.5 1.5 -4.5 6.5v566q0 5 4.5 6.5t21.5 1.5h10q22 0 28 -1.5t11 -7.5l247 -340l39 -54q13 -17 29.5 -40t38.5 -52v487q0 5 4.5 6.5t21.5 1.5h8q16 0 20.5 -1.5t4.5 -6.5v-566q0 -5 -4.5 -6.5t-20.5 -1.5h-9q-22 0 -29 1.5t-11 6.5l-355 486v-179v-307
q0 -5 -4.5 -6.5t-20.5 -1.5h-8q-17 0 -21.5 1.5zM279 -276q-3 0 -9 6l-5 5q-4 4 -4 7t3 6q20 21 34.5 44.5t14.5 42.5q0 12 -4.5 20.5t-13.5 18.5q-8 9 -12 16.5t-4 18.5q0 17 12 27.5t29 10.5q22 0 35.5 -15.5t13.5 -38.5q0 -47 -22.5 -91t-62.5 -76q-4 -2 -5 -2z" />
    <glyph glyph-name="eng.sc" horiz-adv-x="652" 
d="M565.5 580.5q4.5 -1.5 4.5 -6.5v-537q0 -100 -37.5 -147t-115.5 -47q-34 0 -60 10q-4 1 -4 7l2 16l1 8q1 12 4 16t8 3q25 -5 44 -5q43 0 67.5 24t27.5 72l-366 500v-179v-307q0 -5 -4.5 -6.5t-20.5 -1.5h-8q-17 0 -21.5 1.5t-4.5 6.5v566q0 5 4.5 6.5t21.5 1.5h10
q22 0 28 -1.5t11 -7.5l247 -340l39 -54q13 -17 29.5 -40t38.5 -52v487q0 5 4.5 6.5t21.5 1.5h8q16 0 20.5 -1.5z" />
    <glyph glyph-name="ntilde.sc" horiz-adv-x="652" 
d="M86.5 1.5q-4.5 1.5 -4.5 6.5v566q0 5 4.5 6.5t21.5 1.5h10q22 0 28 -1.5t11 -7.5l247 -340l39 -54q13 -17 29.5 -40t38.5 -52v487q0 5 4.5 6.5t21.5 1.5h8q16 0 20.5 -1.5t4.5 -6.5v-566q0 -5 -4.5 -6.5t-20.5 -1.5h-9q-22 0 -29 1.5t-11 6.5l-355 486v-179v-307
q0 -5 -4.5 -6.5t-20.5 -1.5h-8q-17 0 -21.5 1.5zM353.5 656q-15.5 5 -36.5 15q-18 9 -30.5 13.5t-26.5 4.5q-15 0 -28 -7t-30 -23q-1 -1 -4 -1q-6 0 -12 9l-8 10q-4 5 -4.5 8.5t2.5 7.5q14 18 39 31t49 13q19 0 34.5 -5t36.5 -15q18 -9 30.5 -13.5t26.5 -4.5q15 0 28 7
t30 23q1 1 4 1q6 0 12 -9l8 -10q4 -5 4.5 -8.5t-2.5 -7.5q-14 -18 -39 -31t-49 -13q-19 0 -34.5 5z" />
    <glyph glyph-name="o.sc" horiz-adv-x="662" 
d="M120.5 67.5q-72.5 77.5 -72.5 215.5q0 94 35.5 163.5t102 107.5t155.5 38q128 0 200.5 -77.5t72.5 -215.5q0 -94 -35.5 -164t-102 -107.5t-155.5 -37.5q-128 0 -200.5 77.5zM486 112q58 66 58 184q0 115 -54 177.5t-152 62.5q-104 0 -162 -66t-58 -184q0 -115 54 -177.5
t153 -62.5q103 0 161 66z" />
    <glyph glyph-name="oacute.loclPLK.sc" horiz-adv-x="662" 
d="M120.5 67.5q-72.5 77.5 -72.5 215.5q0 94 35.5 163.5t102 107.5t155.5 38q128 0 200.5 -77.5t72.5 -215.5q0 -94 -35.5 -164t-102 -107.5t-155.5 -37.5q-128 0 -200.5 77.5zM486 112q58 66 58 184q0 115 -54 177.5t-152 62.5q-104 0 -162 -66t-58 -184q0 -115 54 -177.5
t153 -62.5q103 0 161 66zM277 647l67 118q3 6 10 8t26 2h15q17 0 21 -2.5t0 -7.5l-88 -119q-3 -4 -8 -5t-19 -1h-4q-24 0 -20 7z" />
    <glyph glyph-name="oacute.sc" horiz-adv-x="662" 
d="M120.5 67.5q-72.5 77.5 -72.5 215.5q0 94 35.5 163.5t102 107.5t155.5 38q128 0 200.5 -77.5t72.5 -215.5q0 -94 -35.5 -164t-102 -107.5t-155.5 -37.5q-128 0 -200.5 77.5zM486 112q58 66 58 184q0 115 -54 177.5t-152 62.5q-104 0 -162 -66t-58 -184q0 -115 54 -177.5
t153 -62.5q103 0 161 66zM281 647l67 118q3 6 10 8t26 2h15q17 0 21 -2.5t0 -7.5l-88 -119q-3 -4 -8 -5t-19 -1h-4q-24 0 -20 7z" />
    <glyph glyph-name="obreve.sc" horiz-adv-x="662" 
d="M120.5 67.5q-72.5 77.5 -72.5 215.5q0 94 35.5 163.5t102 107.5t155.5 38q128 0 200.5 -77.5t72.5 -215.5q0 -94 -35.5 -164t-102 -107.5t-155.5 -37.5q-128 0 -200.5 77.5zM486 112q58 66 58 184q0 115 -54 177.5t-152 62.5q-104 0 -162 -66t-58 -184q0 -115 54 -177.5
t153 -62.5q103 0 161 66zM233.5 670q-38.5 30 -38.5 81q0 3 3.5 4.5t15.5 1.5h12q13 0 15.5 -1.5t3.5 -8.5q4 -32 26 -49t60 -17t60 17t26 49q1 7 3.5 8.5t15.5 1.5h12q13 0 16 -1.5t3 -4.5q0 -51 -38.5 -81t-97.5 -30t-97.5 30z" />
    <glyph glyph-name="ocircumflex.sc" horiz-adv-x="662" 
d="M120.5 67.5q-72.5 77.5 -72.5 215.5q0 94 35.5 163.5t102 107.5t155.5 38q128 0 200.5 -77.5t72.5 -215.5q0 -94 -35.5 -164t-102 -107.5t-155.5 -37.5q-128 0 -200.5 77.5zM486 112q58 66 58 184q0 115 -54 177.5t-152 62.5q-104 0 -162 -66t-58 -184q0 -115 54 -177.5
t153 -62.5q103 0 161 66zM210 630q-3 0 -11 8l-5 6q-5 6 -6 9.5t2 6.5l94 100q6 6 13 8t21 2h26q14 0 21 -2t13 -8l94 -100q2 -2 2 -5t-6 -11l-5 -6q-5 -6 -8.5 -7.5t-7.5 1.5l-116 97l-116 -97q-4 -2 -5 -2z" />
    <glyph glyph-name="odieresis.sc" horiz-adv-x="662" 
d="M120.5 67.5q-72.5 77.5 -72.5 215.5q0 94 35.5 163.5t102 107.5t155.5 38q128 0 200.5 -77.5t72.5 -215.5q0 -94 -35.5 -164t-102 -107.5t-155.5 -37.5q-128 0 -200.5 77.5zM486 112q58 66 58 184q0 115 -54 177.5t-152 62.5q-104 0 -162 -66t-58 -184q0 -115 54 -177.5
t153 -62.5q103 0 161 66zM196 665q-14 14 -14 33q0 20 14 34t33 14q20 0 34 -14t14 -34q0 -19 -14 -33t-34 -14q-19 0 -33 14zM398 665q-14 14 -14 33q0 20 14 34t33 14q20 0 34 -14t14 -34q0 -19 -14 -33t-34 -14q-19 0 -33 14z" />
    <glyph glyph-name="ograve.sc" horiz-adv-x="662" 
d="M120.5 67.5q-72.5 77.5 -72.5 215.5q0 94 35.5 163.5t102 107.5t155.5 38q128 0 200.5 -77.5t72.5 -215.5q0 -94 -35.5 -164t-102 -107.5t-155.5 -37.5q-128 0 -200.5 77.5zM486 112q58 66 58 184q0 115 -54 177.5t-152 62.5q-104 0 -162 -66t-58 -184q0 -115 54 -177.5
t153 -62.5q103 0 161 66zM328 641q-5 1 -8 5l-88 119q-2 4 -2 5q0 5 23 5h15q19 0 26 -2t10 -8l67 -118l1 -2q0 -5 -21 -5h-4q-14 0 -19 1z" />
    <glyph glyph-name="ohungarumlaut.sc" horiz-adv-x="662" 
d="M120.5 67.5q-72.5 77.5 -72.5 215.5q0 94 35.5 163.5t102 107.5t155.5 38q128 0 200.5 -77.5t72.5 -215.5q0 -94 -35.5 -164t-102 -107.5t-155.5 -37.5q-128 0 -200.5 77.5zM486 112q58 66 58 184q0 115 -54 177.5t-152 62.5q-104 0 -162 -66t-58 -184q0 -115 54 -177.5
t153 -62.5q103 0 161 66zM202 647l67 118q3 6 10 8t26 2h15q17 0 21 -2.5t0 -7.5l-88 -119q-3 -4 -8 -5t-19 -1h-4q-24 0 -20 7zM359 647l67 118q3 6 10 8t26 2h15q17 0 21 -2.5t0 -7.5l-88 -119q-3 -4 -8 -5t-19 -1h-4q-24 0 -20 7z" />
    <glyph glyph-name="omacron.sc" horiz-adv-x="662" 
d="M120.5 67.5q-72.5 77.5 -72.5 215.5q0 94 35.5 163.5t102 107.5t155.5 38q128 0 200.5 -77.5t72.5 -215.5q0 -94 -35.5 -164t-102 -107.5t-155.5 -37.5q-128 0 -200.5 77.5zM486 112q58 66 58 184q0 115 -54 177.5t-152 62.5q-104 0 -162 -66t-58 -184q0 -115 54 -177.5
t153 -62.5q103 0 161 66zM193.5 656.5q-1.5 5.5 -1.5 19.5v3q0 15 1.5 19t6.5 4h262q5 0 6.5 -4t1.5 -19v-3q0 -14 -1.5 -19.5t-6.5 -5.5h-262q-5 0 -6.5 5.5z" />
    <glyph glyph-name="oslash.sc" horiz-adv-x="662" 
d="M595.5 422q18.5 -55 18.5 -123q0 -94 -35.5 -164t-102 -107.5t-155.5 -37.5q-88 0 -152 38l-44 -58q-3 -4 -8 -4q-7 0 -16 8l-14 11q-17 13 -11 20l46 61q-74 77 -74 217q0 94 35.5 163.5t102 107.5t155.5 38q91 0 153 -39l46 60q3 5 7 5q6 0 17 -9l14 -11
q9 -7 11.5 -11.5t-0.5 -8.5l-48 -63q36 -38 54.5 -93zM163 119l294 385q-49 32 -119 32q-104 0 -162 -66t-58 -184q0 -103 45 -167zM486 112q58 66 58 184q0 104 -44 165l-293 -383q49 -32 118 -32q103 0 161 66z" />
    <glyph glyph-name="oslashacute.sc" horiz-adv-x="662" 
d="M595.5 422q18.5 -55 18.5 -123q0 -94 -35.5 -164t-102 -107.5t-155.5 -37.5q-88 0 -152 38l-44 -58q-3 -4 -8 -4q-7 0 -16 8l-14 11q-17 13 -11 20l46 61q-74 77 -74 217q0 94 35.5 163.5t102 107.5t155.5 38q91 0 153 -39l46 60q3 5 7 5q6 0 17 -9l14 -11
q9 -7 11.5 -11.5t-0.5 -8.5l-48 -63q36 -38 54.5 -93zM163 119l294 385q-49 32 -119 32q-104 0 -162 -66t-58 -184q0 -103 45 -167zM486 112q58 66 58 184q0 104 -44 165l-293 -383q49 -32 118 -32q103 0 161 66zM281 647l67 118q3 6 10 8t26 2h15q17 0 21 -2.5t0 -7.5
l-88 -119q-3 -4 -8 -5t-19 -1h-4q-24 0 -20 7z" />
    <glyph glyph-name="otilde.sc" horiz-adv-x="662" 
d="M120.5 67.5q-72.5 77.5 -72.5 215.5q0 94 35.5 163.5t102 107.5t155.5 38q128 0 200.5 -77.5t72.5 -215.5q0 -94 -35.5 -164t-102 -107.5t-155.5 -37.5q-128 0 -200.5 77.5zM486 112q58 66 58 184q0 115 -54 177.5t-152 62.5q-104 0 -162 -66t-58 -184q0 -115 54 -177.5
t153 -62.5q103 0 161 66zM358.5 656q-15.5 5 -36.5 15q-18 9 -30.5 13.5t-26.5 4.5q-15 0 -28 -7t-30 -23q-1 -1 -4 -1q-6 0 -12 9l-8 10q-4 5 -4.5 8.5t2.5 7.5q14 18 39 31t49 13q19 0 34.5 -5t36.5 -15q18 -9 30.5 -13.5t26.5 -4.5q15 0 28 7t30 23q1 1 4 1q6 0 12 -9
l8 -10q4 -5 4.5 -8.5t-2.5 -7.5q-14 -18 -39 -31t-49 -13q-19 0 -34.5 5z" />
    <glyph glyph-name="oe.sc" horiz-adv-x="896" 
d="M120.5 68.5q-72.5 78.5 -72.5 214.5q0 94 36.5 164t104 107.5t159.5 37.5q31 0 66 -4.5t45 -5.5h372q3 0 4.5 -4.5t1.5 -18.5v-9q0 -14 -1.5 -18.5t-4.5 -4.5h-300v-205h254q4 0 5.5 -4.5t1.5 -18.5v-9q0 -14 -1.5 -18.5t-5.5 -4.5h-254v-212h304q4 0 5.5 -4.5t1.5 -18.5
v-9q0 -14 -1.5 -18.5t-5.5 -4.5h-374q-77 -10 -124 -10q-144 0 -216.5 78.5zM464 56v468q-64 12 -115 12q-111 0 -171 -64.5t-60 -185.5q0 -118 55.5 -179t162.5 -61q58 0 128 10z" />
    <glyph glyph-name="p.sc" horiz-adv-x="506" 
d="M87 1.5q-5 1.5 -5 7.5v573h146q130 0 192 -42.5t62 -131.5q0 -85 -59.5 -135.5t-172.5 -50.5q-48 0 -101 6v-219q0 -6 -5 -7.5t-24 -1.5h-9q-19 0 -24 1.5zM370.5 309q42.5 33 42.5 97q0 65 -43.5 93.5t-140.5 28.5h-80v-246q54 -6 96 -6q83 0 125.5 33z" />
    <glyph glyph-name="thorn.sc" horiz-adv-x="520" 
d="M424.5 422q57.5 -40 57.5 -119q0 -82 -63 -124.5t-164 -42.5q-57 0 -107 8v-135q0 -6 -5 -7.5t-24 -1.5h-9q-19 0 -23.5 1.5t-4.5 7.5v564q0 6 4.5 7.5t23.5 1.5h9q19 0 24 -1.5t5 -7.5v-117q63 6 106 6q113 0 170.5 -40zM413 302q0 56 -39 81.5t-124 25.5q-34 0 -102 -6
v-207q49 -7 103 -7q162 0 162 113z" />
    <glyph glyph-name="q.sc" horiz-adv-x="662" 
d="M555.5 98.5q-58.5 -79.5 -160.5 -100.5q18 -9 48 -36l71 -62q4 -4 4 -6q0 -3 -11 -14l-10 -10q-10 -10 -15 -10q-3 0 -8 3l-131 113q-9 8 -16.5 10.5t-23.5 3.5q-120 5 -187.5 82.5t-67.5 210.5q0 94 35.5 163.5t102 107.5t155.5 38q128 0 200.5 -77.5t72.5 -215.5
q0 -121 -58.5 -200.5zM486 112q58 66 58 184q0 115 -54 177.5t-152 62.5q-104 0 -162 -66t-58 -184q0 -115 54 -177.5t153 -62.5q103 0 161 66z" />
    <glyph glyph-name="r.sc" horiz-adv-x="541" 
d="M501 6q0 -6 -26 -6h-13q-20 0 -26.5 1.5t-10.5 7.5l-104 166q-20 31 -34 44.5t-33 18.5t-56 5h-50v-234q0 -6 -5 -7.5t-24 -1.5h-9q-18 0 -23 1.5t-5 7.5v573h158q122 0 183.5 -37t61.5 -122q0 -68 -39.5 -110t-111.5 -61q12 -9 24 -23.5t29 -42.5l112 -175q2 -4 2 -5z
M247 295q168 0 168 124q0 60 -41 85t-129 25h-97v-234h99z" />
    <glyph glyph-name="racute.sc" horiz-adv-x="541" 
d="M501 6q0 -6 -26 -6h-13q-20 0 -26.5 1.5t-10.5 7.5l-104 166q-20 31 -34 44.5t-33 18.5t-56 5h-50v-234q0 -6 -5 -7.5t-24 -1.5h-9q-18 0 -23 1.5t-5 7.5v573h158q122 0 183.5 -37t61.5 -122q0 -68 -39.5 -110t-111.5 -61q12 -9 24 -23.5t29 -42.5l112 -175q2 -4 2 -5z
M247 295q168 0 168 124q0 60 -41 85t-129 25h-97v-234h99zM231 647l67 118q3 6 10 8t26 2h15q17 0 21 -2.5t0 -7.5l-88 -119q-3 -4 -8 -5t-19 -1h-4q-24 0 -20 7z" />
    <glyph glyph-name="rcaron.sc" horiz-adv-x="541" 
d="M501 6q0 -6 -26 -6h-13q-20 0 -26.5 1.5t-10.5 7.5l-104 166q-20 31 -34 44.5t-33 18.5t-56 5h-50v-234q0 -6 -5 -7.5t-24 -1.5h-9q-18 0 -23 1.5t-5 7.5v573h158q122 0 183.5 -37t61.5 -122q0 -68 -39.5 -110t-111.5 -61q12 -9 24 -23.5t29 -42.5l112 -175q2 -4 2 -5z
M247 295q168 0 168 124q0 60 -41 85t-129 25h-97v-234h99zM247 642q-7 2 -13 8l-94 100q-2 2 -2 5q0 4 6 11l5 6q5 6 8.5 7.5t7.5 -1.5l116 -97l116 97q4 2 5 2q3 0 11 -8l5 -6q5 -6 6 -9.5t-2 -6.5l-94 -100q-6 -6 -13 -8t-21 -2h-26q-14 0 -21 2z" />
    <glyph glyph-name="rcommaaccent.sc" horiz-adv-x="541" 
d="M501 6q0 -6 -26 -6h-13q-20 0 -26.5 1.5t-10.5 7.5l-104 166q-20 31 -34 44.5t-33 18.5t-56 5h-50v-234q0 -6 -5 -7.5t-24 -1.5h-9q-18 0 -23 1.5t-5 7.5v573h158q122 0 183.5 -37t61.5 -122q0 -68 -39.5 -110t-111.5 -61q12 -9 24 -23.5t29 -42.5l112 -175q2 -4 2 -5z
M247 295q168 0 168 124q0 60 -41 85t-129 25h-97v-234h99zM245 -276q-3 0 -9 6l-5 5q-4 4 -4 7t3 6q20 21 34.5 44.5t14.5 42.5q0 12 -4.5 20.5t-13.5 18.5q-8 9 -12 16.5t-4 18.5q0 17 12 27.5t29 10.5q22 0 35.5 -15.5t13.5 -38.5q0 -47 -22.5 -91t-62.5 -76q-4 -2 -5 -2z
" />
    <glyph glyph-name="s.sc" horiz-adv-x="492" 
d="M131 2q-50 12 -82 34q-4 3 -4 7q0 5 8 20l4 7q6 11 10 13.5t8 0.5q35 -19 75.5 -29.5t76.5 -10.5q70 0 113.5 28.5t43.5 75.5q0 30 -19.5 52t-47.5 37t-80 37q-54 22 -87.5 41t-56.5 49t-23 72q0 48 26.5 83.5t70.5 54t96 18.5q43 0 85 -10.5t73 -29.5q3 -1 3 -5
q0 -6 -7 -19l-4 -7q-6 -11 -10 -13t-9 0q-62 30 -126 30q-58 0 -95 -26.5t-37 -66.5q0 -38 32.5 -62t98.5 -53q60 -26 95.5 -45.5t61 -52t25.5 -78.5q0 -74 -58.5 -119t-155.5 -45q-54 0 -104 12z" />
    <glyph glyph-name="sacute.loclPLK.sc" horiz-adv-x="492" 
d="M131 2q-50 12 -82 34q-4 3 -4 7q0 5 8 20l4 7q6 11 10 13.5t8 0.5q35 -19 75.5 -29.5t76.5 -10.5q70 0 113.5 28.5t43.5 75.5q0 30 -19.5 52t-47.5 37t-80 37q-54 22 -87.5 41t-56.5 49t-23 72q0 48 26.5 83.5t70.5 54t96 18.5q43 0 85 -10.5t73 -29.5q3 -1 3 -5
q0 -6 -7 -19l-4 -7q-6 -11 -10 -13t-9 0q-62 30 -126 30q-58 0 -95 -26.5t-37 -66.5q0 -38 32.5 -62t98.5 -53q60 -26 95.5 -45.5t61 -52t25.5 -78.5q0 -74 -58.5 -119t-155.5 -45q-54 0 -104 12zM211 647l67 118q3 6 10 8t26 2h15q17 0 21 -2.5t0 -7.5l-88 -119
q-3 -4 -8 -5t-19 -1h-4q-24 0 -20 7z" />
    <glyph glyph-name="sacute.sc" horiz-adv-x="492" 
d="M131 2q-50 12 -82 34q-4 3 -4 7q0 5 8 20l4 7q6 11 10 13.5t8 0.5q35 -19 75.5 -29.5t76.5 -10.5q70 0 113.5 28.5t43.5 75.5q0 30 -19.5 52t-47.5 37t-80 37q-54 22 -87.5 41t-56.5 49t-23 72q0 48 26.5 83.5t70.5 54t96 18.5q43 0 85 -10.5t73 -29.5q3 -1 3 -5
q0 -6 -7 -19l-4 -7q-6 -11 -10 -13t-9 0q-62 30 -126 30q-58 0 -95 -26.5t-37 -66.5q0 -38 32.5 -62t98.5 -53q60 -26 95.5 -45.5t61 -52t25.5 -78.5q0 -74 -58.5 -119t-155.5 -45q-54 0 -104 12zM215 647l67 118q3 6 10 8t26 2h15q17 0 21 -2.5t0 -7.5l-88 -119
q-3 -4 -8 -5t-19 -1h-4q-24 0 -20 7z" />
    <glyph glyph-name="scaron.sc" horiz-adv-x="492" 
d="M131 2q-50 12 -82 34q-4 3 -4 7q0 5 8 20l4 7q6 11 10 13.5t8 0.5q35 -19 75.5 -29.5t76.5 -10.5q70 0 113.5 28.5t43.5 75.5q0 30 -19.5 52t-47.5 37t-80 37q-54 22 -87.5 41t-56.5 49t-23 72q0 48 26.5 83.5t70.5 54t96 18.5q43 0 85 -10.5t73 -29.5q3 -1 3 -5
q0 -6 -7 -19l-4 -7q-6 -11 -10 -13t-9 0q-62 30 -126 30q-58 0 -95 -26.5t-37 -66.5q0 -38 32.5 -62t98.5 -53q60 -26 95.5 -45.5t61 -52t25.5 -78.5q0 -74 -58.5 -119t-155.5 -45q-54 0 -104 12zM231 642q-7 2 -13 8l-94 100q-2 2 -2 5q0 4 6 11l5 6q5 6 8.5 7.5t7.5 -1.5
l116 -97l116 97q4 2 5 2q3 0 11 -8l5 -6q5 -6 6 -9.5t-2 -6.5l-94 -100q-6 -6 -13 -8t-21 -2h-26q-14 0 -21 2z" />
    <glyph glyph-name="scedilla.sc" horiz-adv-x="492" 
d="M399 41.5q-50 -43.5 -136 -50.5l-8 -57q18 2 27 2q40 0 65 -21.5t25 -56.5q0 -38 -28 -64t-82 -26q-20 0 -41 3.5t-31 8.5q-3 1 -3 7t1 11l1 5q2 10 4 12.5t6 1.5q32 -7 55 -7q62 0 62 44q0 43 -61 43q-30 0 -53 -5l13 98q-49 2 -93 14.5t-73 31.5q-4 3 -4 7q0 5 8 20
l4 7q6 11 10 13.5t8 0.5q35 -19 75.5 -29.5t76.5 -10.5q70 0 113.5 28.5t43.5 75.5q0 30 -19.5 52t-47.5 37t-80 37q-54 22 -87.5 41t-56.5 49t-23 72q0 48 26.5 83.5t70.5 54t96 18.5q43 0 85 -10.5t73 -29.5q3 -1 3 -5q0 -6 -7 -19l-4 -7q-6 -11 -10 -13t-9 0
q-62 30 -126 30q-58 0 -95 -26.5t-37 -66.5q0 -38 32.5 -62t98.5 -53q60 -26 95.5 -45.5t61 -52t25.5 -78.5q0 -69 -50 -112.5z" />
    <glyph glyph-name="scircumflex.sc" horiz-adv-x="492" 
d="M131 2q-50 12 -82 34q-4 3 -4 7q0 5 8 20l4 7q6 11 10 13.5t8 0.5q35 -19 75.5 -29.5t76.5 -10.5q70 0 113.5 28.5t43.5 75.5q0 30 -19.5 52t-47.5 37t-80 37q-54 22 -87.5 41t-56.5 49t-23 72q0 48 26.5 83.5t70.5 54t96 18.5q43 0 85 -10.5t73 -29.5q3 -1 3 -5
q0 -6 -7 -19l-4 -7q-6 -11 -10 -13t-9 0q-62 30 -126 30q-58 0 -95 -26.5t-37 -66.5q0 -38 32.5 -62t98.5 -53q60 -26 95.5 -45.5t61 -52t25.5 -78.5q0 -74 -58.5 -119t-155.5 -45q-54 0 -104 12zM144 630q-3 0 -11 8l-5 6q-5 6 -6 9.5t2 6.5l94 100q6 6 13 8t21 2h26
q14 0 21 -2t13 -8l94 -100q2 -2 2 -5t-6 -11l-5 -6q-5 -6 -8.5 -7.5t-7.5 1.5l-116 97l-116 -97q-4 -2 -5 -2z" />
    <glyph glyph-name="scommaaccent.sc" horiz-adv-x="492" 
d="M131 2q-50 12 -82 34q-4 3 -4 7q0 5 8 20l4 7q6 11 10 13.5t8 0.5q35 -19 75.5 -29.5t76.5 -10.5q70 0 113.5 28.5t43.5 75.5q0 30 -19.5 52t-47.5 37t-80 37q-54 22 -87.5 41t-56.5 49t-23 72q0 48 26.5 83.5t70.5 54t96 18.5q43 0 85 -10.5t73 -29.5q3 -1 3 -5
q0 -6 -7 -19l-4 -7q-6 -11 -10 -13t-9 0q-62 30 -126 30q-58 0 -95 -26.5t-37 -66.5q0 -38 32.5 -62t98.5 -53q60 -26 95.5 -45.5t61 -52t25.5 -78.5q0 -74 -58.5 -119t-155.5 -45q-54 0 -104 12zM210 -276q-3 0 -9 6l-5 5q-4 4 -4 7t3 6q20 21 34.5 44.5t14.5 42.5
q0 12 -4.5 20.5t-13.5 18.5q-8 9 -12 16.5t-4 18.5q0 17 12 27.5t29 10.5q22 0 35.5 -15.5t13.5 -38.5q0 -47 -22.5 -91t-62.5 -76q-4 -2 -5 -2z" />
    <glyph glyph-name="germandbls.sc" horiz-adv-x="984" 
d="M131 2q-50 12 -82 34q-4 3 -4 7q0 5 8 20l4 7q6 11 10 13.5t8 0.5q35 -19 75.5 -29.5t76.5 -10.5q70 0 113.5 28.5t43.5 75.5q0 30 -19.5 52t-47.5 37t-80 37q-54 22 -87.5 41t-56.5 49t-23 72q0 48 26.5 83.5t70.5 54t96 18.5q43 0 85 -10.5t73 -29.5q3 -1 3 -5
q0 -6 -7 -19l-4 -7q-6 -11 -10 -13t-9 0q-62 30 -126 30q-58 0 -95 -26.5t-37 -66.5q0 -38 32.5 -62t98.5 -53q60 -26 95.5 -45.5t61 -52t25.5 -78.5q0 -74 -58.5 -119t-155.5 -45q-54 0 -104 12zM623 2q-50 12 -82 34q-4 3 -4 7q0 5 8 20l4 7q6 11 10 13.5t8 0.5
q35 -19 75.5 -29.5t76.5 -10.5q70 0 113.5 28.5t43.5 75.5q0 30 -19.5 52t-47.5 37t-80 37q-54 22 -87.5 41t-56.5 49t-23 72q0 48 26.5 83.5t70.5 54t96 18.5q43 0 85 -10.5t73 -29.5q3 -1 3 -5q0 -6 -7 -19l-4 -7q-6 -11 -10 -13t-9 0q-62 30 -126 30q-58 0 -95 -26.5
t-37 -66.5q0 -38 32.5 -62t98.5 -53q60 -26 95.5 -45.5t61 -52t25.5 -78.5q0 -74 -58.5 -119t-155.5 -45q-54 0 -104 12z" />
    <glyph glyph-name="t.sc" horiz-adv-x="483" 
d="M467 576q2 -6 2 -20v-4q0 -14 -2 -19.5t-6 -5.5h-186v-518q0 -6 -5 -7.5t-24 -1.5h-8q-19 0 -24 1.5t-5 7.5v518h-187q-4 0 -6 5.5t-2 19.5v4q0 14 2 20t6 6h439q4 0 6 -6z" />
    <glyph glyph-name="tbar.sc" horiz-adv-x="483" 
d="M467 576q2 -6 2 -20v-4q0 -14 -2 -19.5t-6 -5.5h-186v-208h112q4 0 6 -5t2 -18v-4q0 -12 -2 -17t-6 -5h-112v-261q0 -6 -5 -7.5t-24 -1.5h-8q-19 0 -24 1.5t-5 7.5v261h-113q-4 0 -6 5t-2 17v4q0 13 2 18t6 5h113v208h-187q-4 0 -6 5.5t-2 19.5v4q0 14 2 20t6 6h439
q4 0 6 -6z" />
    <glyph glyph-name="tcaron.sc" horiz-adv-x="483" 
d="M467 576q2 -6 2 -20v-4q0 -14 -2 -19.5t-6 -5.5h-186v-518q0 -6 -5 -7.5t-24 -1.5h-8q-19 0 -24 1.5t-5 7.5v518h-187q-4 0 -6 5.5t-2 19.5v4q0 14 2 20t6 6h439q4 0 6 -6zM208 642q-7 2 -13 8l-94 100q-2 2 -2 5q0 4 6 11l5 6q5 6 8.5 7.5t7.5 -1.5l116 -97l116 97
q4 2 5 2q3 0 11 -8l5 -6q5 -6 6 -9.5t-2 -6.5l-94 -100q-6 -6 -13 -8t-21 -2h-26q-14 0 -21 2z" />
    <glyph glyph-name="uni0163.sc" horiz-adv-x="483" 
d="M467 576q2 -6 2 -20v-4q0 -14 -2 -19.5t-6 -5.5h-186v-518q0 -6 -5 -7.5t-24 -1.5h-8q-19 0 -24 1.5t-5 7.5v518h-187q-4 0 -6 5.5t-2 19.5v4q0 14 2 20t6 6h439q4 0 6 -6zM206 -276q-3 0 -9 6l-5 5q-4 4 -4 7t3 6q20 21 34.5 44.5t14.5 42.5q0 12 -4.5 20.5t-13.5 18.5
q-8 9 -12 16.5t-4 18.5q0 17 12 27.5t29 10.5q22 0 35.5 -15.5t13.5 -38.5q0 -47 -22.5 -91t-62.5 -76q-4 -2 -5 -2z" />
    <glyph glyph-name="uni021B.sc" horiz-adv-x="483" 
d="M467 576q2 -6 2 -20v-4q0 -14 -2 -19.5t-6 -5.5h-186v-518q0 -6 -5 -7.5t-24 -1.5h-8q-19 0 -24 1.5t-5 7.5v518h-187q-4 0 -6 5.5t-2 19.5v4q0 14 2 20t6 6h439q4 0 6 -6zM206 -276q-3 0 -9 6l-5 5q-4 4 -4 7t3 6q20 21 34.5 44.5t14.5 42.5q0 12 -4.5 20.5t-13.5 18.5
q-8 9 -12 16.5t-4 18.5q0 17 12 27.5t29 10.5q22 0 35.5 -15.5t13.5 -38.5q0 -47 -22.5 -91t-62.5 -76q-4 -2 -5 -2z" />
    <glyph glyph-name="u.sc" horiz-adv-x="642" 
d="M136 44.5q-60 54.5 -60 167.5v361q0 6 5 7.5t24 1.5h8q19 0 24 -1.5t5 -7.5v-354q0 -89 44 -131.5t136 -42.5q179 0 179 173v355q0 6 5 7.5t24 1.5h8q19 0 24 -1.5t5 -7.5v-353q0 -230 -246 -230q-125 0 -185 54.5z" />
    </font>
</defs>
</svg>
