<?xml version="1.0" standalone="no"?>
<!DOCTYPE svg PUBLIC "-//W3C//DTD SVG 1.1//EN" "http://www.w3.org/Graphics/SVG/1.1/DTD/svg11.dtd" >
<svg xmlns="http://www.w3.org/2000/svg">
<metadata>
Copyright (c) 2016 by Fontsmith Ltd. All rights reserved. This font may not be altered in any way without prior permission of Fontsmith Ltd.
</metadata>
<defs>
<font id="TIMSansWeb-ThinItalic" horiz-adv-x="347" >
  <font-face 
    font-family="TIM Sans Web Thin"
    font-weight="250"
    font-style="italic"
    font-stretch="normal"
    units-per-em="1000"
    panose-1="0 0 3 0 0 0 0 0 0 0"
    ascent="750"
    descent="-250"
    x-height="528"
    cap-height="720"
    bbox="-304.667 -273 2799 993"
    underline-thickness="17"
    underline-position="-84"
    slope="-8"
    unicode-range="U+000D-FB02"
  />
<missing-glyph horiz-adv-x="694" 
d="M90 720h514v-720h-514v720zM522 669h-350l176 -263zM316 360l-174 262v-524zM553 622l-175 -262l175 -262v524zM522 52l-174 262l-176 -262h350z" />
    <glyph glyph-name="f_f.liga" unicode="ff" horiz-adv-x="612" 
d="M738.5 767.5q0.5 -1.5 -1.5 -5.5l-9 -17q-4 -6 -10 -3q-30 13 -67 13q-73 0 -108 -45t-50 -151l-4 -31h124q6 0 7 -2t0 -8l-2 -16q-1 -4 -2.5 -5.5t-5.5 -1.5h-126l-100 -723q-1 -6 -4 -7.5t-11 -1.5h-11q-13 0 -12 9l100 723h-257l-100 -723q-1 -6 -4 -7.5t-11 -1.5h-11
q-13 0 -12 9l100 723h-64q-6 0 -7 1.5t0 7.5l2 16q1 8 8 8h66l6 43q16 112 63.5 164t136.5 52q39 0 77 -16q4 -2 4.5 -3.5t-1.5 -5.5l-9 -17q-4 -6 -10 -3q-30 13 -67 13q-73 0 -108 -45t-50 -151l-4 -31h257l6 43q16 112 63.5 164t136.5 52q39 0 77 -16q4 -2 4.5 -3.5z" />
    <glyph glyph-name="f_f_i.liga" unicode="ffi" horiz-adv-x="826" 
d="M827.5 747.5q0.5 -2.5 -2.5 -6.5l-9 -13q-3 -4 -5 -5t-5 0q-57 32 -112 32q-76 0 -115 -48t-53 -148l-4 -31h124q6 0 7 -2t0 -8l-2 -16q-1 -4 -2.5 -5.5t-5.5 -1.5h-126l-100 -723q-1 -6 -4 -7.5t-11 -1.5h-11q-13 0 -12 9l100 723h-64h-226l-100 -723q-1 -6 -4 -7.5
t-11 -1.5h-11q-13 0 -12 9l100 723h-64q-6 0 -7 1.5t0 7.5l2 16q1 8 8 8h66l6 43q16 112 63.5 164t136.5 52q39 0 77 -16q4 -2 4.5 -3.5t-1.5 -5.5l-9 -17q-4 -6 -10 -3q-30 13 -67 13q-73 0 -108 -45t-50 -151l-4 -31h284h6l6 43q30 216 210 216q30 0 62.5 -9t60.5 -26
q4 -2 4.5 -4.5zM794 519l-71 -510q-1 -6 -4 -7.5t-11 -1.5h-12q-13 0 -12 9l71 510q1 6 4.5 7.5t10.5 1.5h12q13 0 12 -9z" />
    <glyph glyph-name="f_f_l.liga" unicode="ffl" horiz-adv-x="874" 
d="M742 101q-3 -21 -3 -35q0 -20 6.5 -28t22.5 -8q7 0 23 4h2q2 0 5 -9l3 -13l1 -4q0 -3 -2.5 -4.5t-7.5 -2.5q-15 -5 -34 -5q-14 0 -27 5.5t-20 15.5q-9 13 -9 42q0 17 6 69l50 359l5 34q23 164 28 214q-50 20 -99 20q-76 0 -115 -48t-53 -148l-4 -31h124q6 0 7 -2t0 -8
l-2 -16q-1 -4 -2.5 -5.5t-5.5 -1.5h-126l-100 -723q-1 -6 -4 -7.5t-11 -1.5h-11q-13 0 -12 9l100 723h-64h-224l-100 -723q-1 -6 -4 -7.5t-11 -1.5h-11q-13 0 -12 9l100 723h-64q-6 0 -7 1.5t0 7.5l2 16q1 8 8 8h66l6 43q16 112 63.5 164t136.5 52q39 0 77 -16
q4 -2 4.5 -3.5t-1.5 -5.5l-9 -17q-4 -6 -10 -3q-30 13 -67 13q-73 0 -108 -45t-50 -151l-4 -31h284h4l6 43q30 216 210 216q30 0 62.5 -7.5t60.5 -20.5q5 -2 6.5 -5t0.5 -11q-7 -72 -36 -282z" />
    <glyph glyph-name="fi" unicode="fi" horiz-adv-x="518" 
d="M499.5 747.5q0.5 -2.5 -2.5 -6.5l-9 -13q-3 -4 -5 -5t-5 0q-57 32 -112 32q-76 0 -115 -48t-53 -148l-4 -31h124q6 0 7 -2t0 -8l-2 -16q-1 -4 -2.5 -5.5t-5.5 -1.5h-126l-100 -723q-1 -6 -4 -7.5t-11 -1.5h-11q-13 0 -12 9l100 723h-64q-6 0 -7 2t0 7l2 16q1 8 8 8h66
l6 43q30 216 210 216q30 0 62.5 -9t60.5 -26q4 -2 4.5 -4.5zM466 519l-71 -510q-1 -6 -4 -7.5t-11 -1.5h-12q-13 0 -12 9l71 510q1 6 4.5 7.5t10.5 1.5h12q13 0 12 -9z" />
    <glyph glyph-name="fl" unicode="fl" horiz-adv-x="568" 
d="M416 101q-3 -21 -3 -35q0 -20 6.5 -28t22.5 -8q7 0 23 4h2q2 0 5 -9l3 -13l1 -4q0 -3 -2.5 -4.5t-7.5 -2.5q-15 -5 -34 -5q-14 0 -27 5.5t-20 15.5q-9 13 -9 42q0 17 6 69l50 359l5 34q23 164 28 214q-50 20 -99 20q-76 0 -115 -48t-53 -148l-4 -31h124q6 0 7 -2t0 -8
l-2 -16q-1 -4 -2.5 -5.5t-5.5 -1.5h-126l-100 -723q-1 -6 -4 -7.5t-11 -1.5h-11q-13 0 -12 9l100 723h-64q-6 0 -7 2t0 7l2 16q1 8 8 8h66l6 43q30 216 210 216q30 0 62.5 -7.5t60.5 -20.5q5 -2 6.5 -5t0.5 -11q-7 -72 -36 -282z" />
    <glyph glyph-name=".notdef" horiz-adv-x="694" 
d="M90 720h514v-720h-514v720zM522 669h-350l176 -263zM316 360l-174 262v-524zM553 622l-175 -262l175 -262v524zM522 52l-174 262l-176 -262h350z" />
    <glyph glyph-name=".null" horiz-adv-x="0" 
 />
    <glyph glyph-name="nonmarkingreturn" unicode="&#xd;" horiz-adv-x="244" 
 />
    <glyph glyph-name="space" unicode=" " horiz-adv-x="244" 
 />
    <glyph glyph-name="A" unicode="A" horiz-adv-x="655" 
d="M582 6q0 -6 -15 -6h-8q-10 0 -14.5 1.5t-5.5 6.5l-44 191h-362l-99 -193q-3 -6 -20 -6h-9q-10 0 -13 2.5t0 7.5l365 699q3 7 9 9t18 2h9q11 0 15.5 -2.5t6.5 -10.5l167 -699v-2zM488 232l-35 151q-26 117 -54 234l-16 68q-104 -200 -155 -302l-78 -151h338z" />
    <glyph glyph-name="Aacute" unicode="&#xc1;" horiz-adv-x="655" 
d="M582 6q0 -6 -15 -6h-8q-10 0 -14.5 1.5t-5.5 6.5l-44 191h-362l-99 -193q-3 -6 -20 -6h-9q-10 0 -13 2.5t0 7.5l365 699q3 7 9 9t18 2h9q11 0 15.5 -2.5t6.5 -10.5l167 -699v-2zM488 232l-35 151q-26 117 -54 234l-16 68q-104 -200 -155 -302l-78 -151h338zM356 782
l65 95q4 6 8.5 7.5t15.5 1.5h10q14 0 17 -1.5t-1 -6.5l-86 -100q-4 -4 -16 -4h-5q-13 0 -8 8z" />
    <glyph glyph-name="Abreve" unicode="&#x102;" horiz-adv-x="655" 
d="M582 6q0 -6 -15 -6h-8q-10 0 -14.5 1.5t-5.5 6.5l-44 191h-362l-99 -193q-3 -6 -20 -6h-9q-10 0 -13 2.5t0 7.5l365 699q3 7 9 9t18 2h9q11 0 15.5 -2.5t6.5 -10.5l167 -699v-2zM488 232l-35 151q-26 117 -54 234l-16 68q-104 -200 -155 -302l-78 -151h338zM299.5 821
q-33.5 28 -28.5 68q1 5 3.5 6t8.5 1h10q7 0 9 -1t2 -5q-1 -32 24.5 -50.5t61.5 -18.5q84 0 102 69q1 4 3 5t9 1h11q11 0 10 -6q-6 -44 -43 -70.5t-93 -26.5t-89.5 28z" />
    <glyph glyph-name="uni01CD" unicode="&#x1cd;" horiz-adv-x="655" 
d="M582 6q0 -6 -15 -6h-8q-10 0 -14.5 1.5t-5.5 6.5l-44 191h-362l-99 -193q-3 -6 -20 -6h-9q-10 0 -13 2.5t0 7.5l365 699q3 7 9 9t18 2h9q11 0 15.5 -2.5t6.5 -10.5l167 -699v-2zM488 232l-35 151q-26 117 -54 234l-16 68q-104 -200 -155 -302l-78 -151h338zM538.5 886
q-0.5 -2 -3.5 -5l-112 -92q-6 -6 -11.5 -8t-14.5 -2h-16q-9 0 -13 2t-9 8l-85 95q-3 3 -3 5q0 3 5 7l4 4q4 4 6.5 4t6.5 -3l99 -94l127 91q5 4 7 3.5t5 -4.5l4 -5q4 -4 3.5 -6z" />
    <glyph glyph-name="Acircumflex" unicode="&#xc2;" horiz-adv-x="655" 
d="M582 6q0 -6 -15 -6h-8q-10 0 -14.5 1.5t-5.5 6.5l-44 191h-362l-99 -193q-3 -6 -20 -6h-9q-10 0 -13 2.5t0 7.5l365 699q3 7 9 9t18 2h9q11 0 15.5 -2.5t6.5 -10.5l167 -699v-2zM488 232l-35 151q-26 117 -54 234l-16 68q-104 -200 -155 -302l-78 -151h338zM522 792
q0 -2 -5 -7l-4 -4q-4 -4 -6.5 -4t-6.5 3l-99 94l-127 -91q-5 -4 -7 -3.5t-5 4.5l-4 5q-4 4 -3.5 6t3.5 5l112 92q6 6 11.5 8t14.5 2h16q9 0 13 -2t9 -8l85 -95q3 -3 3 -5z" />
    <glyph glyph-name="Adieresis" unicode="&#xc4;" horiz-adv-x="655" 
d="M582 6q0 -6 -15 -6h-8q-10 0 -14.5 1.5t-5.5 6.5l-44 191h-362l-99 -193q-3 -6 -20 -6h-9q-10 0 -13 2.5t0 7.5l365 699q3 7 9 9t18 2h9q11 0 15.5 -2.5t6.5 -10.5l167 -699v-2zM488 232l-35 151q-26 117 -54 234l-16 68q-104 -200 -155 -302l-78 -151h338zM273.5 806
q-9.5 9 -9.5 24q0 18 13.5 31.5t30.5 13.5q13 0 23 -9.5t10 -23.5q0 -20 -13 -32.5t-31 -12.5q-14 0 -23.5 9zM464.5 806q-9.5 9 -9.5 24q0 18 13.5 31.5t30.5 13.5q13 0 23 -9.5t10 -23.5q0 -20 -13 -32.5t-31 -12.5q-14 0 -23.5 9z" />
    <glyph glyph-name="Agrave" unicode="&#xc0;" horiz-adv-x="655" 
d="M582 6q0 -6 -15 -6h-8q-10 0 -14.5 1.5t-5.5 6.5l-44 191h-362l-99 -193q-3 -6 -20 -6h-9q-10 0 -13 2.5t0 7.5l365 699q3 7 9 9t18 2h9q11 0 15.5 -2.5t6.5 -10.5l167 -699v-2zM488 232l-35 151q-26 117 -54 234l-16 68q-104 -200 -155 -302l-78 -151h338zM384 780
l-56 98q-1 1 -1 3q0 3 5.5 4t16.5 1h4q16 0 21 -1.5t7 -7.5l36 -97v-2q0 -4 -12 -4h-6q-11 0 -15 6z" />
    <glyph glyph-name="Amacron" unicode="&#x100;" horiz-adv-x="655" 
d="M582 6q0 -6 -15 -6h-8q-10 0 -14.5 1.5t-5.5 6.5l-44 191h-362l-99 -193q-3 -6 -20 -6h-9q-10 0 -13 2.5t0 7.5l365 699q3 7 9 9t18 2h9q11 0 15.5 -2.5t6.5 -10.5l167 -699v-2zM488 232l-35 151q-26 117 -54 234l-16 68q-104 -200 -155 -302l-78 -151h338zM266 823
q-1 2 0 8l2 14q1 8 8 8h248q6 0 7 -2t0 -8l-2 -14q-1 -8 -8 -8h-248q-6 0 -7 2z" />
    <glyph glyph-name="Aogonek" unicode="&#x104;" horiz-adv-x="655" 
d="M582 7q0 -4 -5 -7.5t-15 -8.5q-49 -26 -76.5 -62.5t-27.5 -80.5q0 -21 11 -33.5t34 -12.5q11 0 24.5 3t21.5 7q1 1 3 1q3 0 2 -8l-1 -6q-1 -6 -3 -8t-10 -6q-21 -10 -53 -10q-33 0 -52 18.5t-19 50.5q0 42 33.5 85.5t90.5 72.5l-45 197h-362l-99 -193q-3 -6 -20 -6h-9
q-10 0 -13 2.5t0 7.5l365 699q3 7 9 9t18 2h9q11 0 15.5 -2.5t6.5 -10.5l167 -698v-2zM488 232l-35 151q-26 117 -54 234l-16 68q-104 -200 -155 -302l-78 -151h338z" />
    <glyph glyph-name="Aring" unicode="&#xc5;" horiz-adv-x="655" 
d="M-8 2.5q-3 2.5 0 7.5l359 688q-19 8 -30 25.5t-11 38.5q0 38 28.5 65.5t68.5 27.5q35 0 55 -19.5t20 -50.5q0 -30 -18 -54t-47 -34l165 -689v-2q0 -6 -15 -6h-8q-10 0 -14.5 1.5t-5.5 6.5l-44 191h-362l-99 -193q-3 -6 -20 -6h-9q-10 0 -13 2.5zM431 737.5
q16 17.5 16 43.5q0 22 -11 34t-32 12q-27 0 -43 -18t-16 -44q0 -21 11 -33t32 -12q27 0 43 17.5zM488 232l-35 151q-26 117 -54 234l-16 68q-104 -200 -155 -302l-78 -151h338z" />
    <glyph glyph-name="Aringacute" unicode="&#x1fa;" horiz-adv-x="655" 
d="M376 889l65 95q4 6 8.5 7.5t15.5 1.5h10q14 0 17 -1.5t-1 -6.5l-86 -100q-4 -4 -16 -4h-5q-13 0 -8 8zM-8 2.5q-3 2.5 0 7.5l359 688q-19 8 -30 25.5t-11 38.5q0 38 28.5 65.5t68.5 27.5q35 0 55 -19.5t20 -50.5q0 -30 -18 -54t-47 -34l165 -689v-2q0 -6 -15 -6h-8
q-10 0 -14.5 1.5t-5.5 6.5l-44 191h-362l-99 -193q-3 -6 -20 -6h-9q-10 0 -13 2.5zM431 737.5q16 17.5 16 43.5q0 22 -11 34t-32 12q-27 0 -43 -18t-16 -44q0 -21 11 -33t32 -12q27 0 43 17.5zM488 232l-35 151q-26 117 -54 234l-16 68q-104 -200 -155 -302l-78 -151h338z
" />
    <glyph glyph-name="Atilde" unicode="&#xc3;" horiz-adv-x="655" 
d="M582 6q0 -6 -15 -6h-8q-10 0 -14.5 1.5t-5.5 6.5l-44 191h-362l-99 -193q-3 -6 -20 -6h-9q-10 0 -13 2.5t0 7.5l365 699q3 7 9 9t18 2h9q11 0 15.5 -2.5t6.5 -10.5l167 -699v-2zM488 232l-35 151q-26 117 -54 234l-16 68q-104 -200 -155 -302l-78 -151h338zM427 818
q-14 5 -33 15q-17 9 -30.5 14t-29.5 5q-14 0 -26 -6t-33 -23q-4 -4 -8 2l-7 9q-3 4 -2 5.5t4 4.5q13 15 35 26t46 11q19 0 34.5 -5t32.5 -15t30 -14.5t29 -4.5q14 0 26 6t33 23q4 4 8 -2l7 -9q3 -4 2 -5.5t-4 -4.5q-13 -15 -35 -26t-46 -11q-19 0 -33 5z" />
    <glyph glyph-name="AE" unicode="&#xc6;" horiz-adv-x="911" 
d="M-30 9l515 702q4 6 8.5 7.5t14.5 1.5h398q6 0 7 -2t0 -9l-2 -14q-1 -9 -8 -9h-358l-42 -304h302q6 0 7 -2t0 -9l-2 -14q-1 -9 -8 -9h-304l-43 -314h361q6 0 7 -2t0 -9l-2 -14q-1 -9 -8 -9h-404l29 209h-279l-148 -202q-3 -5 -6.5 -6t-12.5 -1h-15q-15 0 -7 9zM443 245
l60 436l-173 -239l-144 -197h257z" />
    <glyph glyph-name="AEacute" unicode="&#x1fc;" horiz-adv-x="911" 
d="M-30 9l515 702q4 6 8.5 7.5t14.5 1.5h398q6 0 7 -2t0 -9l-2 -14q-1 -9 -8 -9h-358l-42 -304h302q6 0 7 -2t0 -9l-2 -14q-1 -9 -8 -9h-304l-43 -314h361q6 0 7 -2t0 -9l-2 -14q-1 -9 -8 -9h-404l29 209h-279l-148 -202q-3 -5 -6.5 -6t-12.5 -1h-15q-15 0 -7 9zM443 245
l60 436l-173 -239l-144 -197h257zM578 782l65 95q4 6 8.5 7.5t15.5 1.5h10q14 0 17 -1.5t-1 -6.5l-86 -100q-4 -4 -16 -4h-5q-13 0 -8 8z" />
    <glyph glyph-name="B" unicode="B" horiz-adv-x="590" 
d="M500.5 325.5q39.5 -41.5 39.5 -99.5q0 -109 -79.5 -167.5t-213.5 -58.5h-202l99 720h193q101 0 155.5 -36t54.5 -112q0 -46 -19.5 -88t-53.5 -71t-75 -38q62 -8 101.5 -49.5zM139 387h142q103 0 162.5 48.5t59.5 133.5q0 66 -46.5 91.5t-129.5 25.5h-146zM427.5 81
q67.5 47 67.5 143q0 131 -214 131h-146l-44 -321h145q124 0 191.5 47z" />
    <glyph glyph-name="C" unicode="C" horiz-adv-x="589" 
d="M125.5 66.5q-69.5 76.5 -69.5 208.5q0 125 46.5 229t133.5 165t205 61q80 0 152 -36q7 -4 7.5 -6t-2.5 -7l-9 -15q-3 -6 -6 -6q-1 0 -9 4q-64 32 -132 32q-109 0 -186 -55.5t-116 -149.5t-39 -209q0 -128 59 -193t178 -65q79 0 151 28q6 3 10 3q3 0 4 -7l2 -16v-6
q0 -6 -7 -8q-76 -28 -175 -28q-128 0 -197.5 76.5z" />
    <glyph glyph-name="Cacute" unicode="&#x106;" horiz-adv-x="589" 
d="M125.5 66.5q-69.5 76.5 -69.5 208.5q0 125 46.5 229t133.5 165t205 61q80 0 152 -36q7 -4 7.5 -6t-2.5 -7l-9 -15q-3 -6 -6 -6q-1 0 -9 4q-64 32 -132 32q-109 0 -186 -55.5t-116 -149.5t-39 -209q0 -128 59 -193t178 -65q79 0 151 28q6 3 10 3q3 0 4 -7l2 -16v-6
q0 -6 -7 -8q-76 -28 -175 -28q-128 0 -197.5 76.5zM420 782l65 95q4 6 8.5 7.5t15.5 1.5h10q14 0 17 -1.5t-1 -6.5l-86 -100q-4 -4 -16 -4h-5q-13 0 -8 8z" />
    <glyph glyph-name="Cacute.loclPLK" horiz-adv-x="589" 
d="M125.5 66.5q-69.5 76.5 -69.5 208.5q0 125 46.5 229t133.5 165t205 61q80 0 152 -36q7 -4 7.5 -6t-2.5 -7l-9 -15q-3 -6 -6 -6q-1 0 -9 4q-64 32 -132 32q-109 0 -186 -55.5t-116 -149.5t-39 -209q0 -128 59 -193t178 -65q79 0 151 28q6 3 10 3q3 0 4 -7l2 -16v-6
q0 -6 -7 -8q-76 -28 -175 -28q-128 0 -197.5 76.5zM436 780l31 96q2 7 5.5 8.5t14.5 1.5h12q13 0 15.5 -1t0.5 -6l-48 -98q-4 -7 -12 -7h-9q-12 0 -10 6z" />
    <glyph glyph-name="Ccaron" unicode="&#x10c;" horiz-adv-x="589" 
d="M125.5 66.5q-69.5 76.5 -69.5 208.5q0 125 46.5 229t133.5 165t205 61q80 0 152 -36q7 -4 7.5 -6t-2.5 -7l-9 -15q-3 -6 -6 -6q-1 0 -9 4q-64 32 -132 32q-109 0 -186 -55.5t-116 -149.5t-39 -209q0 -128 59 -193t178 -65q79 0 151 28q6 3 10 3q3 0 4 -7l2 -16v-6
q0 -6 -7 -8q-76 -28 -175 -28q-128 0 -197.5 76.5zM602.5 886q-0.5 -2 -3.5 -5l-112 -92q-6 -6 -11.5 -8t-14.5 -2h-16q-9 0 -13 2t-9 8l-85 95q-3 3 -3 5q0 3 5 7l4 4q4 4 6.5 4t6.5 -3l99 -94l127 91q5 4 7 3.5t5 -4.5l4 -5q4 -4 3.5 -6z" />
    <glyph glyph-name="Ccedilla" unicode="&#xc7;" horiz-adv-x="589" 
d="M600.5 688q0.5 -2 -2.5 -7l-9 -15q-3 -6 -6 -6q-1 0 -9 4q-64 32 -132 32q-109 0 -186 -55.5t-116 -149.5t-39 -209q0 -128 59 -193t178 -65q79 0 151 28q6 3 10 3q3 0 4 -7l2 -16v-6q0 -6 -7 -8q-74 -27 -160 -28l-18 -66q12 3 29 3q34 0 53.5 -17t19.5 -46
q0 -40 -28 -67t-87 -27q-17 0 -35.5 4t-26.5 8q-4 3 -2 9l3 7q2 5 3.5 7.5t3.5 1.5q28 -10 57 -10q33 0 53.5 13.5t20.5 44.5q0 20 -15 31t-39 11q-29 0 -55 -8l30 101q-120 6 -184.5 82t-64.5 203q0 125 46.5 229t133.5 165t205 61q80 0 152 -36q7 -4 7.5 -6z" />
    <glyph glyph-name="Ccircumflex" unicode="&#x108;" horiz-adv-x="589" 
d="M125.5 66.5q-69.5 76.5 -69.5 208.5q0 125 46.5 229t133.5 165t205 61q80 0 152 -36q7 -4 7.5 -6t-2.5 -7l-9 -15q-3 -6 -6 -6q-1 0 -9 4q-64 32 -132 32q-109 0 -186 -55.5t-116 -149.5t-39 -209q0 -128 59 -193t178 -65q79 0 151 28q6 3 10 3q3 0 4 -7l2 -16v-6
q0 -6 -7 -8q-76 -28 -175 -28q-128 0 -197.5 76.5zM586 792q0 -2 -5 -7l-4 -4q-4 -4 -6.5 -4t-6.5 3l-99 94l-127 -91q-5 -4 -7 -3.5t-5 4.5l-4 5q-4 4 -3.5 6t3.5 5l112 92q6 6 11.5 8t14.5 2h16q9 0 13 -2t9 -8l85 -95q3 -3 3 -5z" />
    <glyph glyph-name="Cdotaccent" unicode="&#x10a;" horiz-adv-x="589" 
d="M125.5 66.5q-69.5 76.5 -69.5 208.5q0 125 46.5 229t133.5 165t205 61q80 0 152 -36q7 -4 7.5 -6t-2.5 -7l-9 -15q-3 -6 -6 -6q-1 0 -9 4q-64 32 -132 32q-109 0 -186 -55.5t-116 -149.5t-39 -209q0 -128 59 -193t178 -65q79 0 151 28q6 3 10 3q3 0 4 -7l2 -16v-6
q0 -6 -7 -8q-76 -28 -175 -28q-128 0 -197.5 76.5zM430.5 795.5q-9.5 8.5 -9.5 23.5q0 18 13.5 31t30.5 13q13 0 23 -9t10 -23q0 -19 -13 -31.5t-31 -12.5q-14 0 -23.5 8.5z" />
    <glyph glyph-name="D" unicode="D" horiz-adv-x="670" 
d="M638 440q0 -228 -127 -342q-109 -98 -307 -98h-159l99 720h159q168 0 252 -72q83 -71 83 -208zM593 438q0 129 -77 188.5t-229 59.5h-106l-90 -652h106q191 0 290 97q106 103 106 307z" />
    <glyph glyph-name="Eth" unicode="&#xd0;" horiz-adv-x="677" 
d="M645 440q0 -228 -127 -342q-109 -98 -307 -98h-159l48 349h-50q-6 0 -7 1.5t0 7.5l2 14q1 5 2.5 6t5.5 1h51l47 341h159q168 0 252 -72q83 -71 83 -208zM600 438q0 129 -77 188.5t-229 59.5h-106l-43 -307h192q6 0 7 -1.5t0 -7.5l-2 -14q-1 -5 -2.5 -6t-5.5 -1h-193
l-43 -315h106q191 0 290 97q106 103 106 307z" />
    <glyph glyph-name="Dcaron" unicode="&#x10e;" horiz-adv-x="670" 
d="M638 440q0 -228 -127 -342q-109 -98 -307 -98h-159l99 720h159q168 0 252 -72q83 -71 83 -208zM593 438q0 129 -77 188.5t-229 59.5h-106l-90 -652h106q191 0 290 97q106 103 106 307zM546.5 886q-0.5 -2 -3.5 -5l-112 -92q-6 -6 -11.5 -8t-14.5 -2h-16q-9 0 -13 2t-9 8
l-85 95q-3 3 -3 5q0 3 5 7l4 4q4 4 6.5 4t6.5 -3l99 -94l127 91q5 4 7 3.5t5 -4.5l4 -5q4 -4 3.5 -6z" />
    <glyph glyph-name="Dcroat" unicode="&#x110;" horiz-adv-x="677" 
d="M645 440q0 -228 -127 -342q-109 -98 -307 -98h-159l48 349h-50q-6 0 -7 1.5t0 7.5l2 14q1 5 2.5 6t5.5 1h51l47 341h159q168 0 252 -72q83 -71 83 -208zM600 438q0 129 -77 188.5t-229 59.5h-106l-43 -307h192q6 0 7 -1.5t0 -7.5l-2 -14q-1 -5 -2.5 -6t-5.5 -1h-193
l-43 -315h106q191 0 290 97q106 103 106 307z" />
    <glyph glyph-name="E" unicode="E" horiz-adv-x="547" 
d="M549 718q1 -2 0 -9l-2 -14q-1 -9 -8 -9h-358l-42 -304h302q6 0 7 -2t0 -9l-2 -14q-1 -9 -8 -9h-304l-43 -314h361q6 0 7 -2t0 -9l-2 -14q-1 -9 -8 -9h-404l99 720h398q6 0 7 -2z" />
    <glyph glyph-name="Eacute" unicode="&#xc9;" horiz-adv-x="547" 
d="M549 718q1 -2 0 -9l-2 -14q-1 -9 -8 -9h-358l-42 -304h302q6 0 7 -2t0 -9l-2 -14q-1 -9 -8 -9h-304l-43 -314h361q6 0 7 -2t0 -9l-2 -14q-1 -9 -8 -9h-404l99 720h398q6 0 7 -2zM331 782l65 95q4 6 8.5 7.5t15.5 1.5h10q14 0 17 -1.5t-1 -6.5l-86 -100q-4 -4 -16 -4h-5
q-13 0 -8 8z" />
    <glyph glyph-name="Ebreve" unicode="&#x114;" horiz-adv-x="547" 
d="M549 718q1 -2 0 -9l-2 -14q-1 -9 -8 -9h-358l-42 -304h302q6 0 7 -2t0 -9l-2 -14q-1 -9 -8 -9h-304l-43 -314h361q6 0 7 -2t0 -9l-2 -14q-1 -9 -8 -9h-404l99 720h398q6 0 7 -2zM274.5 821q-33.5 28 -28.5 68q1 5 3.5 6t8.5 1h10q7 0 9 -1t2 -5q-1 -32 24.5 -50.5
t61.5 -18.5q84 0 102 69q1 4 3 5t9 1h11q11 0 10 -6q-6 -44 -43 -70.5t-93 -26.5t-89.5 28z" />
    <glyph glyph-name="Ecaron" unicode="&#x11a;" horiz-adv-x="547" 
d="M549 718q1 -2 0 -9l-2 -14q-1 -9 -8 -9h-358l-42 -304h302q6 0 7 -2t0 -9l-2 -14q-1 -9 -8 -9h-304l-43 -314h361q6 0 7 -2t0 -9l-2 -14q-1 -9 -8 -9h-404l99 720h398q6 0 7 -2zM513.5 886q-0.5 -2 -3.5 -5l-112 -92q-6 -6 -11.5 -8t-14.5 -2h-16q-9 0 -13 2t-9 8l-85 95
q-3 3 -3 5q0 3 5 7l4 4q4 4 6.5 4t6.5 -3l99 -94l127 91q5 4 7 3.5t5 -4.5l4 -5q4 -4 3.5 -6z" />
    <glyph glyph-name="Ecircumflex" unicode="&#xca;" horiz-adv-x="547" 
d="M549 718q1 -2 0 -9l-2 -14q-1 -9 -8 -9h-358l-42 -304h302q6 0 7 -2t0 -9l-2 -14q-1 -9 -8 -9h-304l-43 -314h361q6 0 7 -2t0 -9l-2 -14q-1 -9 -8 -9h-404l99 720h398q6 0 7 -2zM497 792q0 -2 -5 -7l-4 -4q-4 -4 -6.5 -4t-6.5 3l-99 94l-127 -91q-5 -4 -7 -3.5t-5 4.5
l-4 5q-4 4 -3.5 6t3.5 5l112 92q6 6 11.5 8t14.5 2h16q9 0 13 -2t9 -8l85 -95q3 -3 3 -5z" />
    <glyph glyph-name="Edieresis" unicode="&#xcb;" horiz-adv-x="547" 
d="M549 718q1 -2 0 -9l-2 -14q-1 -9 -8 -9h-358l-42 -304h302q6 0 7 -2t0 -9l-2 -14q-1 -9 -8 -9h-304l-43 -314h361q6 0 7 -2t0 -9l-2 -14q-1 -9 -8 -9h-404l99 720h398q6 0 7 -2zM248.5 806q-9.5 9 -9.5 24q0 18 13.5 31.5t30.5 13.5q13 0 23 -9.5t10 -23.5
q0 -20 -13 -32.5t-31 -12.5q-14 0 -23.5 9zM439.5 806q-9.5 9 -9.5 24q0 18 13.5 31.5t30.5 13.5q13 0 23 -9.5t10 -23.5q0 -20 -13 -32.5t-31 -12.5q-14 0 -23.5 9z" />
    <glyph glyph-name="Edotaccent" unicode="&#x116;" horiz-adv-x="547" 
d="M549 718q1 -2 0 -9l-2 -14q-1 -9 -8 -9h-358l-42 -304h302q6 0 7 -2t0 -9l-2 -14q-1 -9 -8 -9h-304l-43 -314h361q6 0 7 -2t0 -9l-2 -14q-1 -9 -8 -9h-404l99 720h398q6 0 7 -2zM341.5 795.5q-9.5 8.5 -9.5 23.5q0 18 13.5 31t30.5 13q13 0 23 -9t10 -23q0 -19 -13 -31.5
t-31 -12.5q-14 0 -23.5 8.5z" />
    <glyph glyph-name="Egrave" unicode="&#xc8;" horiz-adv-x="547" 
d="M549 718q1 -2 0 -9l-2 -14q-1 -9 -8 -9h-358l-42 -304h302q6 0 7 -2t0 -9l-2 -14q-1 -9 -8 -9h-304l-43 -314h361q6 0 7 -2t0 -9l-2 -14q-1 -9 -8 -9h-404l99 720h398q6 0 7 -2zM359 780l-56 98q-1 1 -1 3q0 3 5.5 4t16.5 1h4q16 0 21 -1.5t7 -7.5l36 -97v-2q0 -4 -12 -4
h-6q-11 0 -15 6z" />
    <glyph glyph-name="Emacron" unicode="&#x112;" horiz-adv-x="547" 
d="M549 718q1 -2 0 -9l-2 -14q-1 -9 -8 -9h-358l-42 -304h302q6 0 7 -2t0 -9l-2 -14q-1 -9 -8 -9h-304l-43 -314h361q6 0 7 -2t0 -9l-2 -14q-1 -9 -8 -9h-404l99 720h398q6 0 7 -2zM241 823q-1 2 0 8l2 14q1 8 8 8h248q6 0 7 -2t0 -8l-2 -14q-1 -8 -8 -8h-248q-6 0 -7 2z
" />
    <glyph glyph-name="Eogonek" unicode="&#x118;" horiz-adv-x="547" 
d="M549 718q1 -2 0 -9l-2 -14q-1 -9 -8 -9h-358l-42 -304h302q6 0 7 -2t0 -9l-2 -14q-1 -9 -8 -9h-304l-43 -314h361q6 0 7 -2t0 -9l-2 -14q-1 -4 -3 -6t-4 -2.5t-4 -1.5q-51 -21 -86 -64t-35 -87q0 -21 11 -33.5t34 -12.5q11 0 25 3.5t21 6.5l4 1q2 0 1 -8l-1 -6
q-1 -5 -3 -8t-10 -6q-21 -10 -53 -10q-33 0 -52 18.5t-19 50.5q0 42 33 86t88 70h-359l99 720h398q6 0 7 -2z" />
    <glyph glyph-name="F" unicode="F" horiz-adv-x="506" 
d="M529 718q1 -2 0 -9l-2 -14q-1 -9 -8 -9h-338l-42 -304h282q6 0 7 -2t0 -9l-2 -14q-1 -9 -8 -9h-284l-47 -340q-1 -5 -4 -6.5t-12 -1.5h-10q-9 0 -12.5 2.5t-2.5 7.5l98 710h378q6 0 7 -2z" />
    <glyph glyph-name="G" unicode="G" horiz-adv-x="660" 
d="M631.5 676.5q0.5 -2.5 -2.5 -7.5l-9 -15q-4 -6 -7 -6q-2 0 -4 1.5t-4 2.5q-39 24 -78 34t-87 10q-105 0 -182 -56t-117 -150.5t-40 -207.5q0 -126 67.5 -192t193.5 -66q89 0 169 32l38 274h-197q-6 0 -7 2t0 9l2 14q1 9 8 9h238l-42 -300l-4 -28q-47 -23 -103 -34.5
t-110 -11.5q-146 0 -222 78.5t-76 212.5q0 124 48 226.5t136.5 162.5t204.5 60q55 0 98 -12t82 -36q6 -3 6.5 -5.5z" />
    <glyph glyph-name="Gbreve" unicode="&#x11e;" horiz-adv-x="660" 
d="M631.5 676.5q0.5 -2.5 -2.5 -7.5l-9 -15q-4 -6 -7 -6q-2 0 -4 1.5t-4 2.5q-39 24 -78 34t-87 10q-105 0 -182 -56t-117 -150.5t-40 -207.5q0 -126 67.5 -192t193.5 -66q89 0 169 32l38 274h-197q-6 0 -7 2t0 9l2 14q1 9 8 9h238l-42 -300l-4 -28q-47 -23 -103 -34.5
t-110 -11.5q-146 0 -222 78.5t-76 212.5q0 124 48 226.5t136.5 162.5t204.5 60q55 0 98 -12t82 -36q6 -3 6.5 -5.5zM361.5 821q-33.5 28 -28.5 68q1 5 3.5 6t8.5 1h10q7 0 9 -1t2 -5q-1 -32 24.5 -50.5t61.5 -18.5q84 0 102 69q1 4 3 5t9 1h11q11 0 10 -6q-6 -44 -43 -70.5
t-93 -26.5t-89.5 28z" />
    <glyph glyph-name="Gcircumflex" unicode="&#x11c;" horiz-adv-x="660" 
d="M631.5 676.5q0.5 -2.5 -2.5 -7.5l-9 -15q-4 -6 -7 -6q-2 0 -4 1.5t-4 2.5q-39 24 -78 34t-87 10q-105 0 -182 -56t-117 -150.5t-40 -207.5q0 -126 67.5 -192t193.5 -66q89 0 169 32l38 274h-197q-6 0 -7 2t0 9l2 14q1 9 8 9h238l-42 -300l-4 -28q-47 -23 -103 -34.5
t-110 -11.5q-146 0 -222 78.5t-76 212.5q0 124 48 226.5t136.5 162.5t204.5 60q55 0 98 -12t82 -36q6 -3 6.5 -5.5zM584 792q0 -2 -5 -7l-4 -4q-4 -4 -6.5 -4t-6.5 3l-99 94l-127 -91q-5 -4 -7 -3.5t-5 4.5l-4 5q-4 4 -3.5 6t3.5 5l112 92q6 6 11.5 8t14.5 2h16q9 0 13 -2
t9 -8l85 -95q3 -3 3 -5z" />
    <glyph glyph-name="Gcommaaccent" unicode="&#x122;" horiz-adv-x="660" 
d="M631.5 676.5q0.5 -2.5 -2.5 -7.5l-9 -15q-4 -6 -7 -6q-2 0 -4 1.5t-4 2.5q-39 24 -78 34t-87 10q-105 0 -182 -56t-117 -150.5t-40 -207.5q0 -126 67.5 -192t193.5 -66q89 0 169 32l38 274h-197q-6 0 -7 2t0 9l2 14q1 9 8 9h238l-42 -300l-4 -28q-47 -23 -103 -34.5
t-110 -11.5q-146 0 -222 78.5t-76 212.5q0 124 48 226.5t136.5 162.5t204.5 60q55 0 98 -12t82 -36q6 -3 6.5 -5.5zM253.5 -255.5q-2.5 -0.5 -5.5 3.5l-4 5q-3 4 -2.5 5.5t1.5 2.5l2 2q21 15 43 41t22 48q0 11 -3 18t-9 16q-10 14 -10 27q0 17 11 26.5t25 9.5q18 0 27.5 -12
t9.5 -33q0 -40 -29.5 -85t-71.5 -72q-4 -2 -6.5 -2.5z" />
    <glyph glyph-name="Gdotaccent" unicode="&#x120;" horiz-adv-x="660" 
d="M631.5 676.5q0.5 -2.5 -2.5 -7.5l-9 -15q-4 -6 -7 -6q-2 0 -4 1.5t-4 2.5q-39 24 -78 34t-87 10q-105 0 -182 -56t-117 -150.5t-40 -207.5q0 -126 67.5 -192t193.5 -66q89 0 169 32l38 274h-197q-6 0 -7 2t0 9l2 14q1 9 8 9h238l-42 -300l-4 -28q-47 -23 -103 -34.5
t-110 -11.5q-146 0 -222 78.5t-76 212.5q0 124 48 226.5t136.5 162.5t204.5 60q55 0 98 -12t82 -36q6 -3 6.5 -5.5zM428.5 795.5q-9.5 8.5 -9.5 23.5q0 18 13.5 31t30.5 13q13 0 23 -9t10 -23q0 -19 -13 -31.5t-31 -12.5q-14 0 -23.5 8.5z" />
    <glyph glyph-name="H" unicode="H" horiz-adv-x="672" 
d="M645.5 717.5q3.5 -2.5 2.5 -7.5l-97 -702q-1 -5 -4.5 -6.5t-12.5 -1.5h-9q-9 0 -12.5 2.5t-2.5 7.5l47 338h-423l-47 -340q-1 -5 -4.5 -6.5t-12.5 -1.5h-9q-9 0 -12.5 2.5t-2.5 7.5l97 702q1 5 4.5 6.5t12.5 1.5h9q9 0 12.5 -2.5t2.5 -7.5l-45 -328h422l46 330
q1 5 4.5 6.5t12.5 1.5h9q9 0 12.5 -2.5z" />
    <glyph glyph-name="Hbar" unicode="&#x126;" horiz-adv-x="680" 
d="M693 578.5q1 -1.5 0 -7.5l-2 -14q-1 -5 -2.5 -6t-5.5 -1h-53l-75 -542q-1 -5 -4.5 -6.5t-12.5 -1.5h-9q-9 0 -12.5 2.5t-2.5 7.5l47 338h-423l-47 -340q-1 -5 -4.5 -6.5t-12.5 -1.5h-9q-9 0 -12.5 2.5t-2.5 7.5l75 540h-50q-6 0 -7 1.5t0 7.5l2 14q1 5 2.5 6t5.5 1h51
l18 132q1 5 4.5 6.5t12.5 1.5h9q9 0 12.5 -2.5t2.5 -7.5l-18 -130h423l18 132q1 5 4.5 6.5t12.5 1.5h9q9 0 12.5 -2.5t2.5 -7.5l-18 -130h52q6 0 7 -1.5zM589 550h-423l-23 -168h422z" />
    <glyph glyph-name="Hcircumflex" unicode="&#x124;" horiz-adv-x="672" 
d="M645.5 717.5q3.5 -2.5 2.5 -7.5l-97 -702q-1 -5 -4.5 -6.5t-12.5 -1.5h-9q-9 0 -12.5 2.5t-2.5 7.5l47 338h-423l-47 -340q-1 -5 -4.5 -6.5t-12.5 -1.5h-9q-9 0 -12.5 2.5t-2.5 7.5l97 702q1 5 4.5 6.5t12.5 1.5h9q9 0 12.5 -2.5t2.5 -7.5l-45 -328h422l46 330
q1 5 4.5 6.5t12.5 1.5h9q9 0 12.5 -2.5zM537 792q0 -2 -5 -7l-4 -4q-4 -4 -6.5 -4t-6.5 3l-99 94l-127 -91q-5 -4 -7 -3.5t-5 4.5l-4 5q-4 4 -3.5 6t3.5 5l112 92q6 6 11.5 8t14.5 2h16q9 0 13 -2t9 -8l85 -95q3 -3 3 -5z" />
    <glyph glyph-name="I" unicode="I" horiz-adv-x="218" 
d="M53.5 2.5q-3.5 2.5 -2.5 7.5l97 702q1 5 4.5 6.5t12.5 1.5h9q9 0 12.5 -2.5t2.5 -7.5l-97 -702q-1 -5 -4.5 -6.5t-12.5 -1.5h-9q-9 0 -12.5 2.5z" />
    <glyph glyph-name="IJ" unicode="&#x132;" horiz-adv-x="635" 
d="M53.5 2.5q-3.5 2.5 -2.5 7.5l97 702q1 5 4.5 6.5t12.5 1.5h9q9 0 12.5 -2.5t2.5 -7.5l-97 -702q-1 -5 -4.5 -6.5t-12.5 -1.5h-9q-9 0 -12.5 2.5zM207 32q-6 5 -6 7t5 10l7 10q4 7 8 7q3 0 12 -6q31 -19 59 -27t60 -8q69 0 106.5 43.5t49.5 131.5l71 512q1 5 4.5 6.5
t12.5 1.5h9q9 0 12.5 -2.5t2.5 -7.5l-71 -513q-14 -110 -66 -160q-49 -47 -132 -47q-80 0 -144 42z" />
    <glyph glyph-name="Iacute" unicode="&#xcd;" horiz-adv-x="218" 
d="M53.5 2.5q-3.5 2.5 -2.5 7.5l97 702q1 5 4.5 6.5t12.5 1.5h9q9 0 12.5 -2.5t2.5 -7.5l-97 -702q-1 -5 -4.5 -6.5t-12.5 -1.5h-9q-9 0 -12.5 2.5zM144 782l65 95q4 6 8.5 7.5t15.5 1.5h10q14 0 17 -1.5t-1 -6.5l-86 -100q-4 -4 -16 -4h-5q-13 0 -8 8z" />
    <glyph glyph-name="Iacute_J.loclNLD" horiz-adv-x="635" 
d="M53.5 2.5q-3.5 2.5 -2.5 7.5l97 702q1 5 4.5 6.5t12.5 1.5h9q9 0 12.5 -2.5t2.5 -7.5l-97 -702q-1 -5 -4.5 -6.5t-12.5 -1.5h-9q-9 0 -12.5 2.5zM144 782l65 95q4 6 8.5 7.5t15.5 1.5h10q14 0 17 -1.5t-1 -6.5l-86 -100q-4 -4 -16 -4h-5q-13 0 -8 8zM207 32q-6 5 -6 7
t5 10l7 10q4 7 8 7q3 0 12 -6q31 -19 59 -27t60 -8q69 0 106.5 43.5t49.5 131.5l71 512q1 5 4.5 6.5t12.5 1.5h9q9 0 12.5 -2.5t2.5 -7.5l-71 -513q-14 -110 -66 -160q-49 -47 -132 -47q-80 0 -144 42zM576 782l65 95q4 6 8.5 7.5t15.5 1.5h10q14 0 17 -1.5t-1 -6.5
l-86 -100q-4 -4 -16 -4h-5q-13 0 -8 8z" />
    <glyph glyph-name="Ibreve" unicode="&#x12c;" horiz-adv-x="218" 
d="M53.5 2.5q-3.5 2.5 -2.5 7.5l97 702q1 5 4.5 6.5t12.5 1.5h9q9 0 12.5 -2.5t2.5 -7.5l-97 -702q-1 -5 -4.5 -6.5t-12.5 -1.5h-9q-9 0 -12.5 2.5zM87.5 821q-33.5 28 -28.5 68q1 5 3.5 6t8.5 1h10q7 0 9 -1t2 -5q-1 -32 24.5 -50.5t61.5 -18.5q84 0 102 69q1 4 3 5t9 1h11
q11 0 10 -6q-6 -44 -43 -70.5t-93 -26.5t-89.5 28z" />
    <glyph glyph-name="Icircumflex" unicode="&#xce;" horiz-adv-x="218" 
d="M53.5 2.5q-3.5 2.5 -2.5 7.5l97 702q1 5 4.5 6.5t12.5 1.5h9q9 0 12.5 -2.5t2.5 -7.5l-97 -702q-1 -5 -4.5 -6.5t-12.5 -1.5h-9q-9 0 -12.5 2.5zM310 792q0 -2 -5 -7l-4 -4q-4 -4 -6.5 -4t-6.5 3l-99 94l-127 -91q-5 -4 -7 -3.5t-5 4.5l-4 5q-4 4 -3.5 6t3.5 5l112 92
q6 6 11.5 8t14.5 2h16q9 0 13 -2t9 -8l85 -95q3 -3 3 -5z" />
    <glyph glyph-name="Idieresis" unicode="&#xcf;" horiz-adv-x="218" 
d="M53.5 2.5q-3.5 2.5 -2.5 7.5l97 702q1 5 4.5 6.5t12.5 1.5h9q9 0 12.5 -2.5t2.5 -7.5l-97 -702q-1 -5 -4.5 -6.5t-12.5 -1.5h-9q-9 0 -12.5 2.5zM61.5 806q-9.5 9 -9.5 24q0 18 13.5 31.5t30.5 13.5q13 0 23 -9.5t10 -23.5q0 -20 -13 -32.5t-31 -12.5q-14 0 -23.5 9z
M252.5 806q-9.5 9 -9.5 24q0 18 13.5 31.5t30.5 13.5q13 0 23 -9.5t10 -23.5q0 -20 -13 -32.5t-31 -12.5q-14 0 -23.5 9z" />
    <glyph glyph-name="Idotaccent" unicode="&#x130;" horiz-adv-x="218" 
d="M53.5 2.5q-3.5 2.5 -2.5 7.5l97 702q1 5 4.5 6.5t12.5 1.5h9q9 0 12.5 -2.5t2.5 -7.5l-97 -702q-1 -5 -4.5 -6.5t-12.5 -1.5h-9q-9 0 -12.5 2.5zM154.5 795.5q-9.5 8.5 -9.5 23.5q0 18 13.5 31t30.5 13q13 0 23 -9t10 -23q0 -19 -13 -31.5t-31 -12.5q-14 0 -23.5 8.5z
" />
    <glyph glyph-name="Igrave" unicode="&#xcc;" horiz-adv-x="218" 
d="M53.5 2.5q-3.5 2.5 -2.5 7.5l97 702q1 5 4.5 6.5t12.5 1.5h9q9 0 12.5 -2.5t2.5 -7.5l-97 -702q-1 -5 -4.5 -6.5t-12.5 -1.5h-9q-9 0 -12.5 2.5zM172 780l-56 98q-1 1 -1 3q0 3 5.5 4t16.5 1h4q16 0 21 -1.5t7 -7.5l36 -97v-2q0 -4 -12 -4h-6q-11 0 -15 6z" />
    <glyph glyph-name="Imacron" unicode="&#x12a;" horiz-adv-x="218" 
d="M53.5 2.5q-3.5 2.5 -2.5 7.5l97 702q1 5 4.5 6.5t12.5 1.5h9q9 0 12.5 -2.5t2.5 -7.5l-97 -702q-1 -5 -4.5 -6.5t-12.5 -1.5h-9q-9 0 -12.5 2.5zM54 823q-1 2 0 8l2 14q1 8 8 8h248q6 0 7 -2t0 -8l-2 -14q-1 -8 -8 -8h-248q-6 0 -7 2z" />
    <glyph glyph-name="Iogonek" unicode="&#x12e;" horiz-adv-x="218" 
d="M-23.5 -205.5q-18.5 19.5 -18.5 56.5q0 68 92 152l98 709q1 5 4.5 6.5t12.5 1.5h9q9 0 12.5 -2.5t2.5 -7.5l-95 -688q-1 -9 -5.5 -15t-18.5 -20q-34 -34 -52 -65t-18 -69q0 -51 45 -51q11 0 25 3.5t21 6.5l4 1q2 0 1 -8l-1 -6q-1 -5 -3 -8t-10 -6q-21 -10 -53 -10
q-34 0 -52.5 19.5z" />
    <glyph glyph-name="Itilde" unicode="&#x128;" horiz-adv-x="218" 
d="M53.5 2.5q-3.5 2.5 -2.5 7.5l97 702q1 5 4.5 6.5t12.5 1.5h9q9 0 12.5 -2.5t2.5 -7.5l-97 -702q-1 -5 -4.5 -6.5t-12.5 -1.5h-9q-9 0 -12.5 2.5zM215 818q-14 5 -33 15q-17 9 -30.5 14t-29.5 5q-14 0 -26 -6t-33 -23q-4 -4 -8 2l-7 9q-3 4 -2 5.5t4 4.5q13 15 35 26
t46 11q19 0 34.5 -5t32.5 -15t30 -14.5t29 -4.5q14 0 26 6t33 23q4 4 8 -2l7 -9q3 -4 2 -5.5t-4 -4.5q-13 -15 -35 -26t-46 -11q-19 0 -33 5z" />
    <glyph glyph-name="J" unicode="J" horiz-adv-x="417" 
d="M-11 32q-6 5 -6 7t5 10l7 10q4 7 8 7q3 0 12 -6q31 -19 59 -27t60 -8q69 0 106.5 43.5t49.5 131.5l71 512q1 5 4.5 6.5t12.5 1.5h9q9 0 12.5 -2.5t2.5 -7.5l-71 -513q-14 -110 -66 -160q-49 -47 -132 -47q-80 0 -144 42z" />
    <glyph glyph-name="Jcircumflex" unicode="&#x134;" horiz-adv-x="417" 
d="M-11 32q-6 5 -6 7t5 10l7 10q4 7 8 7q3 0 12 -6q31 -19 59 -27t60 -8q69 0 106.5 43.5t49.5 131.5l71 512q1 5 4.5 6.5t12.5 1.5h9q9 0 12.5 -2.5t2.5 -7.5l-71 -513q-14 -110 -66 -160q-49 -47 -132 -47q-80 0 -144 42zM524 792q0 -2 -5 -7l-4 -4q-4 -4 -6.5 -4t-6.5 3
l-99 94l-127 -91q-5 -4 -7 -3.5t-5 4.5l-4 5q-4 4 -3.5 6t3.5 5l112 92q6 6 11.5 8t14.5 2h16q9 0 13 -2t9 -8l85 -95q3 -3 3 -5z" />
    <glyph glyph-name="K" unicode="K" horiz-adv-x="581" 
d="M468 576.5q-70 -75.5 -160 -154.5l208 -411l2 -6q0 -5 -12 -5h-16q-11 0 -13.5 1t-5.5 7l-195 387l-154 -136l-35 -251q-1 -5 -4.5 -6.5t-12.5 -1.5h-9q-9 0 -12.5 2.5t-2.5 7.5l97 702q1 5 4.5 6.5t12.5 1.5h9q9 0 12.5 -2.5t2.5 -7.5l-55 -400l168 148q78 69 134.5 130
t104.5 126q3 4 7.5 5t11.5 1h15q9 0 9 -4q0 -2 -1.5 -4t-2.5 -4q-37 -56 -107 -131.5z" />
    <glyph glyph-name="Kcommaaccent" unicode="&#x136;" horiz-adv-x="581" 
d="M468 576.5q-70 -75.5 -160 -154.5l208 -411l2 -6q0 -5 -12 -5h-16q-11 0 -13.5 1t-5.5 7l-195 387l-154 -136l-35 -251q-1 -5 -4.5 -6.5t-12.5 -1.5h-9q-9 0 -12.5 2.5t-2.5 7.5l97 702q1 5 4.5 6.5t12.5 1.5h9q9 0 12.5 -2.5t2.5 -7.5l-55 -400l168 148q78 69 134.5 130
t104.5 126q3 4 7.5 5t11.5 1h15q9 0 9 -4q0 -2 -1.5 -4t-2.5 -4q-37 -56 -107 -131.5zM188.5 -255.5q-2.5 -0.5 -5.5 3.5l-4 5q-3 4 -2.5 5.5t1.5 2.5l2 2q21 15 43 41t22 48q0 11 -3 18t-9 16q-10 14 -10 27q0 17 11 26.5t25 9.5q18 0 27.5 -12t9.5 -33q0 -40 -29.5 -85
t-71.5 -72q-4 -2 -6.5 -2.5z" />
    <glyph glyph-name="L" unicode="L" horiz-adv-x="506" 
d="M430 32q1 -2 0 -9l-2 -14q-1 -9 -8 -9h-357q-19 0 -18 10l98 702q1 5 4.5 6.5t12.5 1.5h9q9 0 12.5 -2.5t2.5 -7.5l-94 -676h333q6 0 7 -2z" />
    <glyph glyph-name="Lacute" unicode="&#x139;" horiz-adv-x="506" 
d="M430 32q1 -2 0 -9l-2 -14q-1 -9 -8 -9h-357q-19 0 -18 10l98 702q1 5 4.5 6.5t12.5 1.5h9q9 0 12.5 -2.5t2.5 -7.5l-94 -676h333q6 0 7 -2zM154 782l65 95q4 6 8.5 7.5t15.5 1.5h10q14 0 17 -1.5t-1 -6.5l-86 -100q-4 -4 -16 -4h-5q-13 0 -8 8z" />
    <glyph glyph-name="Lcaron" unicode="&#x13d;" horiz-adv-x="475" 
d="M430 32q1 -2 0 -9l-2 -14q-1 -9 -8 -9h-357q-19 0 -18 10l98 702q1 5 4.5 6.5t12.5 1.5h9q9 0 12.5 -2.5t2.5 -7.5l-94 -676h333q6 0 7 -2zM243.5 525.5q-2.5 -0.5 -5.5 3.5l-4 5q-3 4 -2.5 5.5t1.5 2.5l2 2q21 15 43 41t22 48q0 11 -3 18t-9 16q-10 14 -10 27
q0 17 11 26.5t25 9.5q18 0 27.5 -12t9.5 -33q0 -40 -29.5 -85t-71.5 -72q-4 -2 -6.5 -2.5z" />
    <glyph glyph-name="Lcommaaccent" unicode="&#x13b;" horiz-adv-x="506" 
d="M430 32q1 -2 0 -9l-2 -14q-1 -9 -8 -9h-357q-19 0 -18 10l98 702q1 5 4.5 6.5t12.5 1.5h9q9 0 12.5 -2.5t2.5 -7.5l-94 -676h333q6 0 7 -2zM156.5 -255.5q-2.5 -0.5 -5.5 3.5l-4 5q-3 4 -2.5 5.5t1.5 2.5l2 2q21 15 43 41t22 48q0 11 -3 18t-9 16q-10 14 -10 27
q0 17 11 26.5t25 9.5q18 0 27.5 -12t9.5 -33q0 -40 -29.5 -85t-71.5 -72q-4 -2 -6.5 -2.5z" />
    <glyph glyph-name="Ldot" unicode="&#x13f;" horiz-adv-x="475" 
d="M430 32q1 -2 0 -9l-2 -14q-1 -9 -8 -9h-357q-19 0 -18 10l98 702q1 5 4.5 6.5t12.5 1.5h9q9 0 12.5 -2.5t2.5 -7.5l-94 -676h333q6 0 7 -2zM275.5 313q-9.5 9 -9.5 24q0 18 13.5 31.5t30.5 13.5q13 0 23 -9.5t10 -23.5q0 -20 -13 -32.5t-31 -12.5q-14 0 -23.5 9z" />
    <glyph glyph-name="Lslash" unicode="&#x141;" horiz-adv-x="518" 
d="M442 32q1 -2 0 -9l-2 -14q-1 -9 -8 -9h-357q-19 0 -18 10l37 262l-63 -50q-3 -2 -5 -1t-1 5l4 26q0 3 1.5 6t4.5 5l65 52l55 397q1 5 4.5 6.5t12.5 1.5h9q9 0 12.5 -2.5t2.5 -7.5l-50 -358l141 113q3 2 4.5 0.5t0.5 -6.5l-4 -24q-1 -7 -5 -11l-143 -115l-38 -275h333
q6 0 7 -2z" />
    <glyph glyph-name="M" unicode="M" horiz-adv-x="773" 
d="M748 718.5q4 -1.5 3 -6.5l-100 -708v-1q0 -3 -15 -3h-5q-19 0 -19 4l93 652l-319 -520q-2 -4 -5 -5t-10 -1h-5q-9 0 -11.5 1t-4.5 5l-177 514l-90 -645q-1 -4 -5 -4.5t-13 -0.5h-5q-8 0 -12 1t-4 4l100 707q1 5 4 6.5t16 1.5h8q11 0 15 -1.5t5 -5.5l182 -534l325 534
q2 5 6 6t17 1h7q15 0 19 -1.5z" />
    <glyph glyph-name="N" unicode="N" horiz-adv-x="699" 
d="M676.5 717.5q3.5 -2.5 2.5 -7.5l-99 -702q-1 -5 -4 -6.5t-14 -1.5h-9q-11 0 -15.5 1.5t-7.5 6.5l-252 463l-106 200q-17 -137 -25 -193l-66 -470q-1 -5 -4.5 -6.5t-12.5 -1.5h-7q-9 0 -12.5 2.5t-2.5 7.5l99 702q1 5 4.5 6.5t14.5 1.5h9q11 0 15.5 -1.5t7.5 -6.5
l252 -463q24 -47 43 -82t32 -59l30 -55q16 126 25 189l66 470q1 5 4.5 6.5t12.5 1.5h7q9 0 12.5 -2.5z" />
    <glyph glyph-name="Nacute" unicode="&#x143;" horiz-adv-x="699" 
d="M676.5 717.5q3.5 -2.5 2.5 -7.5l-99 -702q-1 -5 -4 -6.5t-14 -1.5h-9q-11 0 -15.5 1.5t-7.5 6.5l-252 463l-106 200q-17 -137 -25 -193l-66 -470q-1 -5 -4.5 -6.5t-12.5 -1.5h-7q-9 0 -12.5 2.5t-2.5 7.5l99 702q1 5 4.5 6.5t14.5 1.5h9q11 0 15.5 -1.5t7.5 -6.5
l252 -463q24 -47 43 -82t32 -59l30 -55q16 126 25 189l66 470q1 5 4.5 6.5t12.5 1.5h7q9 0 12.5 -2.5zM397 782l65 95q4 6 8.5 7.5t15.5 1.5h10q14 0 17 -1.5t-1 -6.5l-86 -100q-4 -4 -16 -4h-5q-13 0 -8 8z" />
    <glyph glyph-name="Nacute.loclPLK" horiz-adv-x="699" 
d="M676.5 717.5q3.5 -2.5 2.5 -7.5l-99 -702q-1 -5 -4 -6.5t-14 -1.5h-9q-11 0 -15.5 1.5t-7.5 6.5l-252 463l-106 200q-17 -137 -25 -193l-66 -470q-1 -5 -4.5 -6.5t-12.5 -1.5h-7q-9 0 -12.5 2.5t-2.5 7.5l99 702q1 5 4.5 6.5t14.5 1.5h9q11 0 15.5 -1.5t7.5 -6.5
l252 -463q24 -47 43 -82t32 -59l30 -55q16 126 25 189l66 470q1 5 4.5 6.5t12.5 1.5h7q9 0 12.5 -2.5zM413 780l31 96q2 7 5.5 8.5t14.5 1.5h12q13 0 15.5 -1t0.5 -6l-48 -98q-4 -7 -12 -7h-9q-12 0 -10 6z" />
    <glyph glyph-name="Ncaron" unicode="&#x147;" horiz-adv-x="699" 
d="M676.5 717.5q3.5 -2.5 2.5 -7.5l-99 -702q-1 -5 -4 -6.5t-14 -1.5h-9q-11 0 -15.5 1.5t-7.5 6.5l-252 463l-106 200q-17 -137 -25 -193l-66 -470q-1 -5 -4.5 -6.5t-12.5 -1.5h-7q-9 0 -12.5 2.5t-2.5 7.5l99 702q1 5 4.5 6.5t14.5 1.5h9q11 0 15.5 -1.5t7.5 -6.5
l252 -463q24 -47 43 -82t32 -59l30 -55q16 126 25 189l66 470q1 5 4.5 6.5t12.5 1.5h7q9 0 12.5 -2.5zM579.5 886q-0.5 -2 -3.5 -5l-112 -92q-6 -6 -11.5 -8t-14.5 -2h-16q-9 0 -13 2t-9 8l-85 95q-3 3 -3 5q0 3 5 7l4 4q4 4 6.5 4t6.5 -3l99 -94l127 91q5 4 7 3.5t5 -4.5
l4 -5q4 -4 3.5 -6z" />
    <glyph glyph-name="Ncommaaccent" unicode="&#x145;" horiz-adv-x="699" 
d="M676.5 717.5q3.5 -2.5 2.5 -7.5l-99 -702q-1 -5 -4 -6.5t-14 -1.5h-9q-11 0 -15.5 1.5t-7.5 6.5l-252 463l-106 200q-17 -137 -25 -193l-66 -470q-1 -5 -4.5 -6.5t-12.5 -1.5h-7q-9 0 -12.5 2.5t-2.5 7.5l99 702q1 5 4.5 6.5t14.5 1.5h9q11 0 15.5 -1.5t7.5 -6.5
l252 -463q24 -47 43 -82t32 -59l30 -55q16 126 25 189l66 470q1 5 4.5 6.5t12.5 1.5h7q9 0 12.5 -2.5zM239.5 -255.5q-2.5 -0.5 -5.5 3.5l-4 5q-3 4 -2.5 5.5t1.5 2.5l2 2q21 15 43 41t22 48q0 11 -3 18t-9 16q-10 14 -10 27q0 17 11 26.5t25 9.5q18 0 27.5 -12t9.5 -33
q0 -40 -29.5 -85t-71.5 -72q-4 -2 -6.5 -2.5z" />
    <glyph glyph-name="Eng" unicode="&#x14a;" horiz-adv-x="699" 
d="M676.5 717.5q3.5 -2.5 2.5 -7.5l-96 -683q-18 -126 -68 -177t-129 -51q-12 0 -27 2.5t-22 6.5q-1 1 -4 2.5t-3 3.5t1 5l6 14q3 7 4.5 8t6.5 -1q21 -8 46 -8q55 0 92 37t53 122l-261 480l-106 200q-17 -137 -25 -193l-66 -470q-1 -5 -4.5 -6.5t-12.5 -1.5h-7
q-9 0 -12.5 2.5t-2.5 7.5l99 702q1 5 4.5 6.5t14.5 1.5h9q11 0 15.5 -1.5t7.5 -6.5l252 -463q24 -47 43 -82t32 -59l30 -55q16 126 25 189l66 470q1 5 4.5 6.5t12.5 1.5h7q9 0 12.5 -2.5z" />
    <glyph glyph-name="Ntilde" unicode="&#xd1;" horiz-adv-x="699" 
d="M676.5 717.5q3.5 -2.5 2.5 -7.5l-99 -702q-1 -5 -4 -6.5t-14 -1.5h-9q-11 0 -15.5 1.5t-7.5 6.5l-252 463l-106 200q-17 -137 -25 -193l-66 -470q-1 -5 -4.5 -6.5t-12.5 -1.5h-7q-9 0 -12.5 2.5t-2.5 7.5l99 702q1 5 4.5 6.5t14.5 1.5h9q11 0 15.5 -1.5t7.5 -6.5
l252 -463q24 -47 43 -82t32 -59l30 -55q16 126 25 189l66 470q1 5 4.5 6.5t12.5 1.5h7q9 0 12.5 -2.5zM468 818q-14 5 -33 15q-17 9 -30.5 14t-29.5 5q-14 0 -26 -6t-33 -23q-4 -4 -8 2l-7 9q-3 4 -2 5.5t4 4.5q13 15 35 26t46 11q19 0 34.5 -5t32.5 -15t30 -14.5t29 -4.5
q14 0 26 6t33 23q4 4 8 -2l7 -9q3 -4 2 -5.5t-4 -4.5q-13 -15 -35 -26t-46 -11q-19 0 -33 5z" />
    <glyph glyph-name="O" unicode="O" horiz-adv-x="733" 
d="M122 61.5q-65 71.5 -65 210.5q0 128 47.5 232.5t136 165t206.5 60.5q121 0 186.5 -72t65.5 -210q0 -127 -47 -231.5t-135 -165.5t-205 -61q-125 0 -190 71.5zM497 83q76 58 116.5 154.5t40.5 210.5q0 123 -55 185t-158 62t-180 -57t-117.5 -153.5t-40.5 -210.5
q0 -249 215 -249q103 0 179 58z" />
    <glyph glyph-name="Oacute" unicode="&#xd3;" horiz-adv-x="733" 
d="M122 61.5q-65 71.5 -65 210.5q0 128 47.5 232.5t136 165t206.5 60.5q121 0 186.5 -72t65.5 -210q0 -127 -47 -231.5t-135 -165.5t-205 -61q-125 0 -190 71.5zM497 83q76 58 116.5 154.5t40.5 210.5q0 123 -55 185t-158 62t-180 -57t-117.5 -153.5t-40.5 -210.5
q0 -249 215 -249q103 0 179 58zM427 782l65 95q4 6 8.5 7.5t15.5 1.5h10q14 0 17 -1.5t-1 -6.5l-86 -100q-4 -4 -16 -4h-5q-13 0 -8 8z" />
    <glyph glyph-name="Oacute.loclPLK" horiz-adv-x="733" 
d="M122 61.5q-65 71.5 -65 210.5q0 128 47.5 232.5t136 165t206.5 60.5q121 0 186.5 -72t65.5 -210q0 -127 -47 -231.5t-135 -165.5t-205 -61q-125 0 -190 71.5zM497 83q76 58 116.5 154.5t40.5 210.5q0 123 -55 185t-158 62t-180 -57t-117.5 -153.5t-40.5 -210.5
q0 -249 215 -249q103 0 179 58zM443 780l31 96q2 7 5.5 8.5t14.5 1.5h12q13 0 15.5 -1t0.5 -6l-48 -98q-4 -7 -12 -7h-9q-12 0 -10 6z" />
    <glyph glyph-name="Obreve" unicode="&#x14e;" horiz-adv-x="733" 
d="M122 61.5q-65 71.5 -65 210.5q0 128 47.5 232.5t136 165t206.5 60.5q121 0 186.5 -72t65.5 -210q0 -127 -47 -231.5t-135 -165.5t-205 -61q-125 0 -190 71.5zM497 83q76 58 116.5 154.5t40.5 210.5q0 123 -55 185t-158 62t-180 -57t-117.5 -153.5t-40.5 -210.5
q0 -249 215 -249q103 0 179 58zM370.5 821q-33.5 28 -28.5 68q1 5 3.5 6t8.5 1h10q7 0 9 -1t2 -5q-1 -32 24.5 -50.5t61.5 -18.5q84 0 102 69q1 4 3 5t9 1h11q11 0 10 -6q-6 -44 -43 -70.5t-93 -26.5t-89.5 28z" />
    <glyph glyph-name="Ocircumflex" unicode="&#xd4;" horiz-adv-x="733" 
d="M122 61.5q-65 71.5 -65 210.5q0 128 47.5 232.5t136 165t206.5 60.5q121 0 186.5 -72t65.5 -210q0 -127 -47 -231.5t-135 -165.5t-205 -61q-125 0 -190 71.5zM497 83q76 58 116.5 154.5t40.5 210.5q0 123 -55 185t-158 62t-180 -57t-117.5 -153.5t-40.5 -210.5
q0 -249 215 -249q103 0 179 58zM593 792q0 -2 -5 -7l-4 -4q-4 -4 -6.5 -4t-6.5 3l-99 94l-127 -91q-5 -4 -7 -3.5t-5 4.5l-4 5q-4 4 -3.5 6t3.5 5l112 92q6 6 11.5 8t14.5 2h16q9 0 13 -2t9 -8l85 -95q3 -3 3 -5z" />
    <glyph glyph-name="Odieresis" unicode="&#xd6;" horiz-adv-x="733" 
d="M122 61.5q-65 71.5 -65 210.5q0 128 47.5 232.5t136 165t206.5 60.5q121 0 186.5 -72t65.5 -210q0 -127 -47 -231.5t-135 -165.5t-205 -61q-125 0 -190 71.5zM497 83q76 58 116.5 154.5t40.5 210.5q0 123 -55 185t-158 62t-180 -57t-117.5 -153.5t-40.5 -210.5
q0 -249 215 -249q103 0 179 58zM344.5 806q-9.5 9 -9.5 24q0 18 13.5 31.5t30.5 13.5q13 0 23 -9.5t10 -23.5q0 -20 -13 -32.5t-31 -12.5q-14 0 -23.5 9zM535.5 806q-9.5 9 -9.5 24q0 18 13.5 31.5t30.5 13.5q13 0 23 -9.5t10 -23.5q0 -20 -13 -32.5t-31 -12.5
q-14 0 -23.5 9z" />
    <glyph glyph-name="Ograve" unicode="&#xd2;" horiz-adv-x="733" 
d="M122 61.5q-65 71.5 -65 210.5q0 128 47.5 232.5t136 165t206.5 60.5q121 0 186.5 -72t65.5 -210q0 -127 -47 -231.5t-135 -165.5t-205 -61q-125 0 -190 71.5zM497 83q76 58 116.5 154.5t40.5 210.5q0 123 -55 185t-158 62t-180 -57t-117.5 -153.5t-40.5 -210.5
q0 -249 215 -249q103 0 179 58zM455 780l-56 98q-1 1 -1 3q0 3 5.5 4t16.5 1h4q16 0 21 -1.5t7 -7.5l36 -97v-2q0 -4 -12 -4h-6q-11 0 -15 6z" />
    <glyph glyph-name="Ohungarumlaut" unicode="&#x150;" horiz-adv-x="733" 
d="M122 61.5q-65 71.5 -65 210.5q0 128 47.5 232.5t136 165t206.5 60.5q121 0 186.5 -72t65.5 -210q0 -127 -47 -231.5t-135 -165.5t-205 -61q-125 0 -190 71.5zM497 83q76 58 116.5 154.5t40.5 210.5q0 123 -55 185t-158 62t-180 -57t-117.5 -153.5t-40.5 -210.5
q0 -249 215 -249q103 0 179 58zM345.5 773q-2.5 1 0.5 5l69 97q4 6 9 7.5t21 1.5h4q16 0 19.5 -1.5t-0.5 -6.5l-90 -100q-4 -4 -16 -4h-6q-8 0 -10.5 1zM483.5 773q-2.5 1 0.5 5l69 97q4 6 9 7.5t21 1.5h4q16 0 19.5 -1.5t-0.5 -6.5l-90 -100q-4 -4 -16 -4h-6q-8 0 -10.5 1z
" />
    <glyph glyph-name="Omacron" unicode="&#x14c;" horiz-adv-x="733" 
d="M122 61.5q-65 71.5 -65 210.5q0 128 47.5 232.5t136 165t206.5 60.5q121 0 186.5 -72t65.5 -210q0 -127 -47 -231.5t-135 -165.5t-205 -61q-125 0 -190 71.5zM497 83q76 58 116.5 154.5t40.5 210.5q0 123 -55 185t-158 62t-180 -57t-117.5 -153.5t-40.5 -210.5
q0 -249 215 -249q103 0 179 58zM337 823q-1 2 0 8l2 14q1 8 8 8h248q6 0 7 -2t0 -8l-2 -14q-1 -8 -8 -8h-248q-6 0 -7 2z" />
    <glyph glyph-name="Oslash" unicode="&#xd8;" horiz-adv-x="733" 
d="M754.5 714.5q0.5 -2.5 -4.5 -7.5l-87 -90q36 -69 36 -169q0 -127 -47 -231.5t-135 -165.5t-205 -61q-124 0 -189 71l-84 -86q-4 -4 -6 -4q-3 0 -11 8l-6 6q-8 8 -8 11q0 2 5 7l86 89q-42 68 -42 180q0 128 47.5 232.5t136 165t206.5 60.5q130 0 194 -81l83 86q3 3 5 3
q4 0 12 -8l6 -6q7 -7 7.5 -9.5zM132 125l479 493q-53 77 -170 77q-103 0 -180 -57t-117.5 -153.5t-40.5 -210.5q0 -89 29 -149zM630 583l-477 -491q54 -67 165 -67q103 0 179 58t116.5 154.5t40.5 210.5q0 81 -24 135z" />
    <glyph glyph-name="Oslashacute" unicode="&#x1fe;" horiz-adv-x="733" 
d="M754.5 714.5q0.5 -2.5 -4.5 -7.5l-87 -90q36 -69 36 -169q0 -127 -47 -231.5t-135 -165.5t-205 -61q-124 0 -189 71l-84 -86q-4 -4 -6 -4q-3 0 -11 8l-6 6q-8 8 -8 11q0 2 5 7l86 89q-42 68 -42 180q0 128 47.5 232.5t136 165t206.5 60.5q130 0 194 -81l83 86q3 3 5 3
q4 0 12 -8l6 -6q7 -7 7.5 -9.5zM132 125l479 493q-53 77 -170 77q-103 0 -180 -57t-117.5 -153.5t-40.5 -210.5q0 -89 29 -149zM630 583l-477 -491q54 -67 165 -67q103 0 179 58t116.5 154.5t40.5 210.5q0 81 -24 135zM425 782l65 95q4 6 8.5 7.5t15.5 1.5h10q14 0 17 -1.5
t-1 -6.5l-86 -100q-4 -4 -16 -4h-5q-13 0 -8 8z" />
    <glyph glyph-name="Otilde" unicode="&#xd5;" horiz-adv-x="733" 
d="M122 61.5q-65 71.5 -65 210.5q0 128 47.5 232.5t136 165t206.5 60.5q121 0 186.5 -72t65.5 -210q0 -127 -47 -231.5t-135 -165.5t-205 -61q-125 0 -190 71.5zM497 83q76 58 116.5 154.5t40.5 210.5q0 123 -55 185t-158 62t-180 -57t-117.5 -153.5t-40.5 -210.5
q0 -249 215 -249q103 0 179 58zM498 818q-14 5 -33 15q-17 9 -30.5 14t-29.5 5q-14 0 -26 -6t-33 -23q-4 -4 -8 2l-7 9q-3 4 -2 5.5t4 4.5q13 15 35 26t46 11q19 0 34.5 -5t32.5 -15t30 -14.5t29 -4.5q14 0 26 6t33 23q4 4 8 -2l7 -9q3 -4 2 -5.5t-4 -4.5q-13 -15 -35 -26
t-46 -11q-19 0 -33 5z" />
    <glyph glyph-name="OE" unicode="&#x152;" horiz-adv-x="988" 
d="M132.5 69q-73.5 79 -73.5 219q0 110 41.5 211t132 166t227.5 65q55 0 127 -10h396q6 0 7 -2t0 -9l-2 -14q-1 -9 -8 -9h-358l-42 -304h302q6 0 7 -2t0 -9l-2 -14q-1 -9 -8 -9h-304l-43 -314h361q6 0 7 -2t0 -9l-2 -14q-1 -9 -8 -9h-402q-28 -4 -72.5 -7t-72.5 -3
q-137 0 -210.5 79zM491 33l89 654q-52 9 -116 9q-122 0 -203 -57.5t-119 -151.5t-38 -205q0 -119 62 -189t191 -70q51 0 134 10z" />
    <glyph glyph-name="P" unicode="P" horiz-adv-x="533" 
d="M486 678q65 -42 65 -138q0 -118 -75 -185t-212 -67q-53 0 -137 12l-40 -292q-1 -5 -4.5 -6.5t-12.5 -1.5h-9q-9 0 -12.5 2.5t-2.5 7.5l98 710h152q125 0 190 -42zM444.5 377.5q61.5 55.5 61.5 161.5q0 82 -58 114.5t-169 32.5h-98l-49 -352q72 -12 127 -12
q124 0 185.5 55.5z" />
    <glyph glyph-name="Thorn" unicode="&#xde;" horiz-adv-x="553" 
d="M467 532.5q60 -43.5 60 -125.5q0 -66 -33.5 -116t-97 -78t-152.5 -28q-62 0 -131 12l-26 -189q-1 -5 -4.5 -6.5t-12.5 -1.5h-9q-9 0 -12.5 2.5t-2.5 7.5l97 702q1 5 4.5 6.5t12.5 1.5h9q9 0 12.5 -2.5t2.5 -7.5l-20 -147q67 13 130 13q113 0 173 -43.5zM422 267.5
q61 48.5 61 138.5q0 73 -50.5 105t-142.5 32q-62 0 -131 -13l-41 -300q62 -11 121 -11q122 0 183 48.5z" />
    <glyph glyph-name="Q" unicode="Q" horiz-adv-x="733" 
d="M348 -27q-11 11 -18.5 14t-21.5 3q-123 0 -187 72t-64 210q0 128 47.5 232.5t136 165t206.5 60.5q121 0 186.5 -72t65.5 -210q0 -116 -39 -214t-113 -161.5t-175 -77.5q28 -21 51 -44l83 -79l2 -4q0 -3 -7 -10l-7 -7q-5 -5 -7.5 -5.5t-6.5 2.5zM497 83q76 58 116.5 154.5
t40.5 210.5q0 123 -55 185t-158 62t-180 -57t-117.5 -153.5t-40.5 -210.5q0 -249 215 -249q103 0 179 58z" />
    <glyph glyph-name="R" unicode="R" horiz-adv-x="573" 
d="M500 8q1 -1 1 -3q0 -5 -18 -5h-7q-9 0 -13.5 1.5t-6.5 5.5l-93 206q-21 48 -37 68t-41 27t-76 7h-80l-42 -307q-1 -5 -4.5 -6.5t-12.5 -1.5h-9q-9 0 -12.5 2.5t-2.5 7.5l98 710h162q122 0 185.5 -37t63.5 -124q0 -100 -57 -160t-162 -79q17 -10 31 -31.5t35 -66.5z
M266 349q115 0 179.5 53t64.5 157q0 68 -49.5 97.5t-156.5 29.5h-123l-47 -337h132z" />
    <glyph glyph-name="Racute" unicode="&#x154;" horiz-adv-x="573" 
d="M500 8q1 -1 1 -3q0 -5 -18 -5h-7q-9 0 -13.5 1.5t-6.5 5.5l-93 206q-21 48 -37 68t-41 27t-76 7h-80l-42 -307q-1 -5 -4.5 -6.5t-12.5 -1.5h-9q-9 0 -12.5 2.5t-2.5 7.5l98 710h162q122 0 185.5 -37t63.5 -124q0 -100 -57 -160t-162 -79q17 -10 31 -31.5t35 -66.5z
M266 349q115 0 179.5 53t64.5 157q0 68 -49.5 97.5t-156.5 29.5h-123l-47 -337h132zM325 782l65 95q4 6 8.5 7.5t15.5 1.5h10q14 0 17 -1.5t-1 -6.5l-86 -100q-4 -4 -16 -4h-5q-13 0 -8 8z" />
    <glyph glyph-name="Rcaron" unicode="&#x158;" horiz-adv-x="573" 
d="M500 8q1 -1 1 -3q0 -5 -18 -5h-7q-9 0 -13.5 1.5t-6.5 5.5l-93 206q-21 48 -37 68t-41 27t-76 7h-80l-42 -307q-1 -5 -4.5 -6.5t-12.5 -1.5h-9q-9 0 -12.5 2.5t-2.5 7.5l98 710h162q122 0 185.5 -37t63.5 -124q0 -100 -57 -160t-162 -79q17 -10 31 -31.5t35 -66.5z
M266 349q115 0 179.5 53t64.5 157q0 68 -49.5 97.5t-156.5 29.5h-123l-47 -337h132zM507.5 886q-0.5 -2 -3.5 -5l-112 -92q-6 -6 -11.5 -8t-14.5 -2h-16q-9 0 -13 2t-9 8l-85 95q-3 3 -3 5q0 3 5 7l4 4q4 4 6.5 4t6.5 -3l99 -94l127 91q5 4 7 3.5t5 -4.5l4 -5q4 -4 3.5 -6z
" />
    <glyph glyph-name="Rcommaaccent" unicode="&#x156;" horiz-adv-x="573" 
d="M500 8q1 -1 1 -3q0 -5 -18 -5h-7q-9 0 -13.5 1.5t-6.5 5.5l-93 206q-21 48 -37 68t-41 27t-76 7h-80l-42 -307q-1 -5 -4.5 -6.5t-12.5 -1.5h-9q-9 0 -12.5 2.5t-2.5 7.5l98 710h162q122 0 185.5 -37t63.5 -124q0 -100 -57 -160t-162 -79q17 -10 31 -31.5t35 -66.5z
M266 349q115 0 179.5 53t64.5 157q0 68 -49.5 97.5t-156.5 29.5h-123l-47 -337h132zM184.5 -255.5q-2.5 -0.5 -5.5 3.5l-4 5q-3 4 -2.5 5.5t1.5 2.5l2 2q21 15 43 41t22 48q0 11 -3 18t-9 16q-10 14 -10 27q0 17 11 26.5t25 9.5q18 0 27.5 -12t9.5 -33q0 -40 -29.5 -85
t-71.5 -72q-4 -2 -6.5 -2.5z" />
    <glyph glyph-name="S" unicode="S" horiz-adv-x="529" 
d="M19 43q-5 3 -5 6q0 1 5 11l5 8q4 7 6.5 8t7.5 -2q39 -23 88 -36.5t101 -13.5q54 0 101 19t75.5 55t28.5 85q0 57 -41.5 96t-131.5 82q-79 38 -114.5 81t-35.5 104q0 54 29 96t81 65t121 23q43 0 86.5 -12t77.5 -33q3 -1 3 -5q0 -2 -5 -10l-6 -8q-5 -6 -7.5 -7.5t-7.5 1.5
q-31 18 -66 29t-81 11q-49 0 -90.5 -17.5t-66.5 -50t-25 -76.5q0 -37 13 -63t43 -49t85 -52q69 -36 103 -58.5t56.5 -56.5t22.5 -85q0 -58 -31.5 -103t-89 -70t-133.5 -25q-108 0 -202 53z" />
    <glyph glyph-name="Sacute" unicode="&#x15a;" horiz-adv-x="529" 
d="M19 43q-5 3 -5 6q0 1 5 11l5 8q4 7 6.5 8t7.5 -2q39 -23 88 -36.5t101 -13.5q54 0 101 19t75.5 55t28.5 85q0 57 -41.5 96t-131.5 82q-79 38 -114.5 81t-35.5 104q0 54 29 96t81 65t121 23q43 0 86.5 -12t77.5 -33q3 -1 3 -5q0 -2 -5 -10l-6 -8q-5 -6 -7.5 -7.5t-7.5 1.5
q-31 18 -66 29t-81 11q-49 0 -90.5 -17.5t-66.5 -50t-25 -76.5q0 -37 13 -63t43 -49t85 -52q69 -36 103 -58.5t56.5 -56.5t22.5 -85q0 -58 -31.5 -103t-89 -70t-133.5 -25q-108 0 -202 53zM316 782l65 95q4 6 8.5 7.5t15.5 1.5h10q14 0 17 -1.5t-1 -6.5l-86 -100
q-4 -4 -16 -4h-5q-13 0 -8 8z" />
    <glyph glyph-name="Sacute.loclPLK" horiz-adv-x="529" 
d="M19 43q-5 3 -5 6q0 1 5 11l5 8q4 7 6.5 8t7.5 -2q39 -23 88 -36.5t101 -13.5q54 0 101 19t75.5 55t28.5 85q0 57 -41.5 96t-131.5 82q-79 38 -114.5 81t-35.5 104q0 54 29 96t81 65t121 23q43 0 86.5 -12t77.5 -33q3 -1 3 -5q0 -2 -5 -10l-6 -8q-5 -6 -7.5 -7.5t-7.5 1.5
q-31 18 -66 29t-81 11q-49 0 -90.5 -17.5t-66.5 -50t-25 -76.5q0 -37 13 -63t43 -49t85 -52q69 -36 103 -58.5t56.5 -56.5t22.5 -85q0 -58 -31.5 -103t-89 -70t-133.5 -25q-108 0 -202 53zM332 780l31 96q2 7 5.5 8.5t14.5 1.5h12q13 0 15.5 -1t0.5 -6l-48 -98q-4 -7 -12 -7
h-9q-12 0 -10 6z" />
    <glyph glyph-name="Scaron" unicode="&#x160;" horiz-adv-x="529" 
d="M19 43q-5 3 -5 6q0 1 5 11l5 8q4 7 6.5 8t7.5 -2q39 -23 88 -36.5t101 -13.5q54 0 101 19t75.5 55t28.5 85q0 57 -41.5 96t-131.5 82q-79 38 -114.5 81t-35.5 104q0 54 29 96t81 65t121 23q43 0 86.5 -12t77.5 -33q3 -1 3 -5q0 -2 -5 -10l-6 -8q-5 -6 -7.5 -7.5t-7.5 1.5
q-31 18 -66 29t-81 11q-49 0 -90.5 -17.5t-66.5 -50t-25 -76.5q0 -37 13 -63t43 -49t85 -52q69 -36 103 -58.5t56.5 -56.5t22.5 -85q0 -58 -31.5 -103t-89 -70t-133.5 -25q-108 0 -202 53zM498.5 886q-0.5 -2 -3.5 -5l-112 -92q-6 -6 -11.5 -8t-14.5 -2h-16q-9 0 -13 2t-9 8
l-85 95q-3 3 -3 5q0 3 5 7l4 4q4 4 6.5 4t6.5 -3l99 -94l127 91q5 4 7 3.5t5 -4.5l4 -5q4 -4 3.5 -6z" />
    <glyph glyph-name="Scedilla" unicode="&#x15e;" horiz-adv-x="529" 
d="M507 680q0 -2 -5 -10l-6 -8q-5 -6 -7.5 -7.5t-7.5 1.5q-31 18 -66 29t-81 11q-49 0 -90.5 -17.5t-66.5 -50t-25 -76.5q0 -37 13 -63t43 -49t85 -52q69 -36 103 -58.5t56.5 -56.5t22.5 -85q0 -57 -30.5 -101.5t-86 -70t-129.5 -26.5l-18 -66q12 3 29 3q34 0 53.5 -17
t19.5 -46q0 -40 -28 -67t-87 -27q-17 0 -35.5 4t-26.5 8q-4 3 -2 9l3 7q2 5 3.5 7.5t3.5 1.5q28 -10 57 -10q33 0 53.5 13.5t20.5 44.5q0 20 -15 31t-39 11q-29 0 -55 -8l30 102q-96 6 -177 52q-5 3 -5 6q0 1 5 11l5 8q4 7 6.5 8t7.5 -2q39 -23 88 -36.5t101 -13.5
q54 0 101 19t75.5 55t28.5 85q0 57 -41.5 96t-131.5 82q-79 38 -114.5 81t-35.5 104q0 54 29 96t81 65t121 23q43 0 86.5 -12t77.5 -33q3 -1 3 -5z" />
    <glyph glyph-name="Scircumflex" unicode="&#x15c;" horiz-adv-x="529" 
d="M19 43q-5 3 -5 6q0 1 5 11l5 8q4 7 6.5 8t7.5 -2q39 -23 88 -36.5t101 -13.5q54 0 101 19t75.5 55t28.5 85q0 57 -41.5 96t-131.5 82q-79 38 -114.5 81t-35.5 104q0 54 29 96t81 65t121 23q43 0 86.5 -12t77.5 -33q3 -1 3 -5q0 -2 -5 -10l-6 -8q-5 -6 -7.5 -7.5t-7.5 1.5
q-31 18 -66 29t-81 11q-49 0 -90.5 -17.5t-66.5 -50t-25 -76.5q0 -37 13 -63t43 -49t85 -52q69 -36 103 -58.5t56.5 -56.5t22.5 -85q0 -58 -31.5 -103t-89 -70t-133.5 -25q-108 0 -202 53zM482 792q0 -2 -5 -7l-4 -4q-4 -4 -6.5 -4t-6.5 3l-99 94l-127 -91q-5 -4 -7 -3.5
t-5 4.5l-4 5q-4 4 -3.5 6t3.5 5l112 92q6 6 11.5 8t14.5 2h16q9 0 13 -2t9 -8l85 -95q3 -3 3 -5z" />
    <glyph glyph-name="Scommaaccent" unicode="&#x218;" horiz-adv-x="529" 
d="M19 43q-5 3 -5 6q0 1 5 11l5 8q4 7 6.5 8t7.5 -2q39 -23 88 -36.5t101 -13.5q54 0 101 19t75.5 55t28.5 85q0 57 -41.5 96t-131.5 82q-79 38 -114.5 81t-35.5 104q0 54 29 96t81 65t121 23q43 0 86.5 -12t77.5 -33q3 -1 3 -5q0 -2 -5 -10l-6 -8q-5 -6 -7.5 -7.5t-7.5 1.5
q-31 18 -66 29t-81 11q-49 0 -90.5 -17.5t-66.5 -50t-25 -76.5q0 -37 13 -63t43 -49t85 -52q69 -36 103 -58.5t56.5 -56.5t22.5 -85q0 -58 -31.5 -103t-89 -70t-133.5 -25q-108 0 -202 53zM141.5 -255.5q-2.5 -0.5 -5.5 3.5l-4 5q-3 4 -2.5 5.5t1.5 2.5l2 2q21 15 43 41
t22 48q0 11 -3 18t-9 16q-10 14 -10 27q0 17 11 26.5t25 9.5q18 0 27.5 -12t9.5 -33q0 -40 -29.5 -85t-71.5 -72q-4 -2 -6.5 -2.5z" />
    <glyph glyph-name="T" unicode="T" horiz-adv-x="543" 
d="M582 718q1 -2 0 -9l-2 -14q-1 -9 -8 -9h-219l-94 -678q-1 -5 -4.5 -6.5t-12.5 -1.5h-9q-9 0 -12.5 2.5t-2.5 7.5l93 676h-230q-6 0 -7 2t0 9l2 14q1 9 8 9h491q6 0 7 -2z" />
    <glyph glyph-name="Tbar" unicode="&#x166;" horiz-adv-x="543" 
d="M582 718q1 -2 0 -9l-2 -14q-1 -9 -8 -9h-219l-43 -307h129q6 0 7 -1.5t0 -7.5l-2 -14q-1 -5 -2.5 -6t-5.5 -1h-130l-47 -341q-1 -5 -4.5 -6.5t-12.5 -1.5h-9q-9 0 -12.5 2.5t-2.5 7.5l47 339h-129q-6 0 -7 1.5t0 7.5l2 14q1 5 2.5 6t5.5 1h130l42 307h-230q-6 0 -7 2t0 9
l2 14q1 9 8 9h491q6 0 7 -2z" />
    <glyph glyph-name="Tcaron" unicode="&#x164;" horiz-adv-x="543" 
d="M582 718q1 -2 0 -9l-2 -14q-1 -9 -8 -9h-219l-94 -678q-1 -5 -4.5 -6.5t-12.5 -1.5h-9q-9 0 -12.5 2.5t-2.5 7.5l93 676h-230q-6 0 -7 2t0 9l2 14q1 9 8 9h491q6 0 7 -2zM493.5 886q-0.5 -2 -3.5 -5l-112 -92q-6 -6 -11.5 -8t-14.5 -2h-16q-9 0 -13 2t-9 8l-85 95
q-3 3 -3 5q0 3 5 7l4 4q4 4 6.5 4t6.5 -3l99 -94l127 91q5 4 7 3.5t5 -4.5l4 -5q4 -4 3.5 -6z" />
    <glyph glyph-name="uni0162" unicode="&#x162;" horiz-adv-x="543" 
d="M582 718q1 -2 0 -9l-2 -14q-1 -9 -8 -9h-219l-94 -678q-1 -5 -4.5 -6.5t-12.5 -1.5h-9q-9 0 -12.5 2.5t-2.5 7.5l93 676h-230q-6 0 -7 2t0 9l2 14q1 9 8 9h491q6 0 7 -2zM161.5 -255.5q-2.5 -0.5 -5.5 3.5l-4 5q-3 4 -2.5 5.5t1.5 2.5l2 2q21 15 43 41t22 48q0 11 -3 18
t-9 16q-10 14 -10 27q0 17 11 26.5t25 9.5q18 0 27.5 -12t9.5 -33q0 -40 -29.5 -85t-71.5 -72q-4 -2 -6.5 -2.5z" />
    <glyph glyph-name="uni021A" unicode="&#x21a;" horiz-adv-x="543" 
d="M582 718q1 -2 0 -9l-2 -14q-1 -9 -8 -9h-219l-94 -678q-1 -5 -4.5 -6.5t-12.5 -1.5h-9q-9 0 -12.5 2.5t-2.5 7.5l93 676h-230q-6 0 -7 2t0 9l2 14q1 9 8 9h491q6 0 7 -2zM161.5 -255.5q-2.5 -0.5 -5.5 3.5l-4 5q-3 4 -2.5 5.5t1.5 2.5l2 2q21 15 43 41t22 48q0 11 -3 18
t-9 16q-10 14 -10 27q0 17 11 26.5t25 9.5q18 0 27.5 -12t9.5 -33q0 -40 -29.5 -85t-71.5 -72q-4 -2 -6.5 -2.5z" />
    <glyph glyph-name="U" unicode="U" horiz-adv-x="696" 
d="M128.5 44.5q-59.5 54.5 -59.5 164.5q0 27 5 69l61 434q1 5 4.5 6.5t12.5 1.5h9q9 0 12.5 -2.5t2.5 -7.5l-58 -415q-6 -40 -6 -75q0 -98 48 -145.5t151 -47.5q111 0 173 53q40 35 63.5 89t35.5 146l55 397q1 5 4.5 6.5t12.5 1.5h9q9 0 12.5 -2.5t2.5 -7.5l-57 -417
q-12 -91 -40.5 -149t-74.5 -95q-73 -59 -197 -59q-122 0 -181.5 54.5z" />
    <glyph glyph-name="Uacute" unicode="&#xda;" horiz-adv-x="696" 
d="M128.5 44.5q-59.5 54.5 -59.5 164.5q0 27 5 69l61 434q1 5 4.5 6.5t12.5 1.5h9q9 0 12.5 -2.5t2.5 -7.5l-58 -415q-6 -40 -6 -75q0 -98 48 -145.5t151 -47.5q111 0 173 53q40 35 63.5 89t35.5 146l55 397q1 5 4.5 6.5t12.5 1.5h9q9 0 12.5 -2.5t2.5 -7.5l-57 -417
q-12 -91 -40.5 -149t-74.5 -95q-73 -59 -197 -59q-122 0 -181.5 54.5zM395 782l65 95q4 6 8.5 7.5t15.5 1.5h10q14 0 17 -1.5t-1 -6.5l-86 -100q-4 -4 -16 -4h-5q-13 0 -8 8z" />
    <glyph glyph-name="Ubreve" unicode="&#x16c;" horiz-adv-x="696" 
d="M128.5 44.5q-59.5 54.5 -59.5 164.5q0 27 5 69l61 434q1 5 4.5 6.5t12.5 1.5h9q9 0 12.5 -2.5t2.5 -7.5l-58 -415q-6 -40 -6 -75q0 -98 48 -145.5t151 -47.5q111 0 173 53q40 35 63.5 89t35.5 146l55 397q1 5 4.5 6.5t12.5 1.5h9q9 0 12.5 -2.5t2.5 -7.5l-57 -417
q-12 -91 -40.5 -149t-74.5 -95q-73 -59 -197 -59q-122 0 -181.5 54.5zM338.5 821q-33.5 28 -28.5 68q1 5 3.5 6t8.5 1h10q7 0 9 -1t2 -5q-1 -32 24.5 -50.5t61.5 -18.5q84 0 102 69q1 4 3 5t9 1h11q11 0 10 -6q-6 -44 -43 -70.5t-93 -26.5t-89.5 28z" />
    <glyph glyph-name="Ucircumflex" unicode="&#xdb;" horiz-adv-x="696" 
d="M128.5 44.5q-59.5 54.5 -59.5 164.5q0 27 5 69l61 434q1 5 4.5 6.5t12.5 1.5h9q9 0 12.5 -2.5t2.5 -7.5l-58 -415q-6 -40 -6 -75q0 -98 48 -145.5t151 -47.5q111 0 173 53q40 35 63.5 89t35.5 146l55 397q1 5 4.5 6.5t12.5 1.5h9q9 0 12.5 -2.5t2.5 -7.5l-57 -417
q-12 -91 -40.5 -149t-74.5 -95q-73 -59 -197 -59q-122 0 -181.5 54.5zM561 792q0 -2 -5 -7l-4 -4q-4 -4 -6.5 -4t-6.5 3l-99 94l-127 -91q-5 -4 -7 -3.5t-5 4.5l-4 5q-4 4 -3.5 6t3.5 5l112 92q6 6 11.5 8t14.5 2h16q9 0 13 -2t9 -8l85 -95q3 -3 3 -5z" />
    <glyph glyph-name="Udieresis" unicode="&#xdc;" horiz-adv-x="696" 
d="M128.5 44.5q-59.5 54.5 -59.5 164.5q0 27 5 69l61 434q1 5 4.5 6.5t12.5 1.5h9q9 0 12.5 -2.5t2.5 -7.5l-58 -415q-6 -40 -6 -75q0 -98 48 -145.5t151 -47.5q111 0 173 53q40 35 63.5 89t35.5 146l55 397q1 5 4.5 6.5t12.5 1.5h9q9 0 12.5 -2.5t2.5 -7.5l-57 -417
q-12 -91 -40.5 -149t-74.5 -95q-73 -59 -197 -59q-122 0 -181.5 54.5zM312.5 806q-9.5 9 -9.5 24q0 18 13.5 31.5t30.5 13.5q13 0 23 -9.5t10 -23.5q0 -20 -13 -32.5t-31 -12.5q-14 0 -23.5 9zM503.5 806q-9.5 9 -9.5 24q0 18 13.5 31.5t30.5 13.5q13 0 23 -9.5t10 -23.5
q0 -20 -13 -32.5t-31 -12.5q-14 0 -23.5 9z" />
    <glyph glyph-name="Ugrave" unicode="&#xd9;" horiz-adv-x="696" 
d="M128.5 44.5q-59.5 54.5 -59.5 164.5q0 27 5 69l61 434q1 5 4.5 6.5t12.5 1.5h9q9 0 12.5 -2.5t2.5 -7.5l-58 -415q-6 -40 -6 -75q0 -98 48 -145.5t151 -47.5q111 0 173 53q40 35 63.5 89t35.5 146l55 397q1 5 4.5 6.5t12.5 1.5h9q9 0 12.5 -2.5t2.5 -7.5l-57 -417
q-12 -91 -40.5 -149t-74.5 -95q-73 -59 -197 -59q-122 0 -181.5 54.5zM423 780l-56 98q-1 1 -1 3q0 3 5.5 4t16.5 1h4q16 0 21 -1.5t7 -7.5l36 -97v-2q0 -4 -12 -4h-6q-11 0 -15 6z" />
    <glyph glyph-name="Uhungarumlaut" unicode="&#x170;" horiz-adv-x="696" 
d="M128.5 44.5q-59.5 54.5 -59.5 164.5q0 27 5 69l61 434q1 5 4.5 6.5t12.5 1.5h9q9 0 12.5 -2.5t2.5 -7.5l-58 -415q-6 -40 -6 -75q0 -98 48 -145.5t151 -47.5q111 0 173 53q40 35 63.5 89t35.5 146l55 397q1 5 4.5 6.5t12.5 1.5h9q9 0 12.5 -2.5t2.5 -7.5l-57 -417
q-12 -91 -40.5 -149t-74.5 -95q-73 -59 -197 -59q-122 0 -181.5 54.5zM313.5 773q-2.5 1 0.5 5l69 97q4 6 9 7.5t21 1.5h4q16 0 19.5 -1.5t-0.5 -6.5l-90 -100q-4 -4 -16 -4h-6q-8 0 -10.5 1zM451.5 773q-2.5 1 0.5 5l69 97q4 6 9 7.5t21 1.5h4q16 0 19.5 -1.5t-0.5 -6.5
l-90 -100q-4 -4 -16 -4h-6q-8 0 -10.5 1z" />
    <glyph glyph-name="Umacron" unicode="&#x16a;" horiz-adv-x="696" 
d="M128.5 44.5q-59.5 54.5 -59.5 164.5q0 27 5 69l61 434q1 5 4.5 6.5t12.5 1.5h9q9 0 12.5 -2.5t2.5 -7.5l-58 -415q-6 -40 -6 -75q0 -98 48 -145.5t151 -47.5q111 0 173 53q40 35 63.5 89t35.5 146l55 397q1 5 4.5 6.5t12.5 1.5h9q9 0 12.5 -2.5t2.5 -7.5l-57 -417
q-12 -91 -40.5 -149t-74.5 -95q-73 -59 -197 -59q-122 0 -181.5 54.5zM305 823q-1 2 0 8l2 14q1 8 8 8h248q6 0 7 -2t0 -8l-2 -14q-1 -8 -8 -8h-248q-6 0 -7 2z" />
    <glyph glyph-name="Uogonek" unicode="&#x172;" horiz-adv-x="696" 
d="M266 -206.5q-19 18.5 -19 50.5q0 40 28 80t79 68q-28 -2 -44 -2q-122 0 -181.5 54.5t-59.5 164.5q0 27 5 69l61 434q1 5 4.5 6.5t12.5 1.5h9q9 0 12.5 -2.5t2.5 -7.5l-58 -415q-6 -40 -6 -75q0 -98 48 -145.5t151 -47.5q106 0 173 53q41 33 63.5 87t33.5 136l57 409
q1 5 4.5 6.5t12.5 1.5h9q9 0 12.5 -2.5t2.5 -7.5l-59 -427q-11 -83 -37 -138t-71 -91q-22 -18 -39.5 -27.5t-66.5 -31.5q-51 -23 -84 -63t-33 -84q0 -21 11 -33.5t34 -12.5q11 0 25 3.5t21 6.5l4 1q2 0 1 -8l-1 -6q-1 -5 -3 -8t-10 -6q-21 -10 -51 -10q-35 0 -54 18.5z" />
    <glyph glyph-name="Uring" unicode="&#x16e;" horiz-adv-x="696" 
d="M128.5 44.5q-59.5 54.5 -59.5 164.5q0 27 5 69l61 434q1 5 4.5 6.5t12.5 1.5h9q9 0 12.5 -2.5t2.5 -7.5l-58 -415q-6 -40 -6 -75q0 -98 48 -145.5t151 -47.5q111 0 173 53q40 35 63.5 89t35.5 146l55 397q1 5 4.5 6.5t12.5 1.5h9q9 0 12.5 -2.5t2.5 -7.5l-57 -417
q-12 -91 -40.5 -149t-74.5 -95q-73 -59 -197 -59q-122 0 -181.5 54.5zM375.5 793q-20.5 20 -20.5 50q0 38 28.5 65.5t68.5 27.5q35 0 55 -19.5t20 -50.5q0 -39 -28 -66t-69 -27q-34 0 -54.5 20zM476 818.5q16 17.5 16 43.5q0 22 -11 34t-32 12q-27 0 -43 -18t-16 -44
q0 -21 11 -33t32 -12q27 0 43 17.5z" />
    <glyph glyph-name="Utilde" unicode="&#x168;" horiz-adv-x="696" 
d="M128.5 44.5q-59.5 54.5 -59.5 164.5q0 27 5 69l61 434q1 5 4.5 6.5t12.5 1.5h9q9 0 12.5 -2.5t2.5 -7.5l-58 -415q-6 -40 -6 -75q0 -98 48 -145.5t151 -47.5q111 0 173 53q40 35 63.5 89t35.5 146l55 397q1 5 4.5 6.5t12.5 1.5h9q9 0 12.5 -2.5t2.5 -7.5l-57 -417
q-12 -91 -40.5 -149t-74.5 -95q-73 -59 -197 -59q-122 0 -181.5 54.5zM466 818q-14 5 -33 15q-17 9 -30.5 14t-29.5 5q-14 0 -26 -6t-33 -23q-4 -4 -8 2l-7 9q-3 4 -2 5.5t4 4.5q13 15 35 26t46 11q19 0 34.5 -5t32.5 -15t30 -14.5t29 -4.5q14 0 26 6t33 23q4 4 8 -2l7 -9
q3 -4 2 -5.5t-4 -4.5q-13 -15 -35 -26t-46 -11q-19 0 -33 5z" />
    <glyph glyph-name="V" unicode="V" horiz-adv-x="614" 
d="M653 718q3 -2 0 -8l-351 -699q-3 -7 -9.5 -9t-19.5 -2h-8q-11 0 -16.5 2.5t-7.5 10.5l-164 699v2q0 6 16 6h9q10 0 13.5 -1.5t4.5 -6.5l104 -453q28 -129 51 -224l73 148l37 75l223 455q2 4 6.5 5.5t13.5 1.5h11q11 0 14 -2z" />
    <glyph glyph-name="W" unicode="W" horiz-adv-x="1022" 
d="M1049.5 718q2.5 -2 -0.5 -8l-317 -699q-4 -7 -9 -9t-18 -2h-8q-20 0 -23 13l-67 368l-24 140q-14 88 -22 132l-122 -272l-171 -370q-3 -7 -9 -9t-18 -2h-7q-11 0 -16.5 2.5t-6.5 10.5l-127 699v2q0 6 16 6h9q9 0 13.5 -1.5t5.5 -6.5l84 -474l32 -193l101 223l206 446
q1 4 4 5t10 1h11q7 0 9 -1.5t3 -6.5l86 -473l34 -198l100 228l197 445q2 4 7 5t12 1h15q8 0 10.5 -2z" />
    <glyph glyph-name="Wacute" unicode="&#x1e82;" horiz-adv-x="1022" 
d="M1049.5 718q2.5 -2 -0.5 -8l-317 -699q-4 -7 -9 -9t-18 -2h-8q-20 0 -23 13l-67 368l-24 140q-14 88 -22 132l-122 -272l-171 -370q-3 -7 -9 -9t-18 -2h-7q-11 0 -16.5 2.5t-6.5 10.5l-127 699v2q0 6 16 6h9q9 0 13.5 -1.5t5.5 -6.5l84 -474l32 -193l101 223l206 446
q1 4 4 5t10 1h11q7 0 9 -1.5t3 -6.5l86 -473l34 -198l100 228l197 445q2 4 7 5t12 1h15q8 0 10.5 -2zM546 782l65 95q4 6 8.5 7.5t15.5 1.5h10q14 0 17 -1.5t-1 -6.5l-86 -100q-4 -4 -16 -4h-5q-13 0 -8 8z" />
    <glyph glyph-name="Wcircumflex" unicode="&#x174;" horiz-adv-x="1022" 
d="M1049.5 718q2.5 -2 -0.5 -8l-317 -699q-4 -7 -9 -9t-18 -2h-8q-20 0 -23 13l-67 368l-24 140q-14 88 -22 132l-122 -272l-171 -370q-3 -7 -9 -9t-18 -2h-7q-11 0 -16.5 2.5t-6.5 10.5l-127 699v2q0 6 16 6h9q9 0 13.5 -1.5t5.5 -6.5l84 -474l32 -193l101 223l206 446
q1 4 4 5t10 1h11q7 0 9 -1.5t3 -6.5l86 -473l34 -198l100 228l197 445q2 4 7 5t12 1h15q8 0 10.5 -2zM712 792q0 -2 -5 -7l-4 -4q-4 -4 -6.5 -4t-6.5 3l-99 94l-127 -91q-5 -4 -7 -3.5t-5 4.5l-4 5q-4 4 -3.5 6t3.5 5l112 92q6 6 11.5 8t14.5 2h16q9 0 13 -2t9 -8l85 -95
q3 -3 3 -5z" />
    <glyph glyph-name="Wdieresis" unicode="&#x1e84;" horiz-adv-x="1022" 
d="M1049.5 718q2.5 -2 -0.5 -8l-317 -699q-4 -7 -9 -9t-18 -2h-8q-20 0 -23 13l-67 368l-24 140q-14 88 -22 132l-122 -272l-171 -370q-3 -7 -9 -9t-18 -2h-7q-11 0 -16.5 2.5t-6.5 10.5l-127 699v2q0 6 16 6h9q9 0 13.5 -1.5t5.5 -6.5l84 -474l32 -193l101 223l206 446
q1 4 4 5t10 1h11q7 0 9 -1.5t3 -6.5l86 -473l34 -198l100 228l197 445q2 4 7 5t12 1h15q8 0 10.5 -2zM463.5 806q-9.5 9 -9.5 24q0 18 13.5 31.5t30.5 13.5q13 0 23 -9.5t10 -23.5q0 -20 -13 -32.5t-31 -12.5q-14 0 -23.5 9zM654.5 806q-9.5 9 -9.5 24q0 18 13.5 31.5
t30.5 13.5q13 0 23 -9.5t10 -23.5q0 -20 -13 -32.5t-31 -12.5q-14 0 -23.5 9z" />
    <glyph glyph-name="Wgrave" unicode="&#x1e80;" horiz-adv-x="1022" 
d="M1049.5 718q2.5 -2 -0.5 -8l-317 -699q-4 -7 -9 -9t-18 -2h-8q-20 0 -23 13l-67 368l-24 140q-14 88 -22 132l-122 -272l-171 -370q-3 -7 -9 -9t-18 -2h-7q-11 0 -16.5 2.5t-6.5 10.5l-127 699v2q0 6 16 6h9q9 0 13.5 -1.5t5.5 -6.5l84 -474l32 -193l101 223l206 446
q1 4 4 5t10 1h11q7 0 9 -1.5t3 -6.5l86 -473l34 -198l100 228l197 445q2 4 7 5t12 1h15q8 0 10.5 -2zM574 780l-56 98q-1 1 -1 3q0 3 5.5 4t16.5 1h4q16 0 21 -1.5t7 -7.5l36 -97v-2q0 -4 -12 -4h-6q-11 0 -15 6z" />
    <glyph glyph-name="X" unicode="X" horiz-adv-x="564" 
d="M371 446l-17 -21q-24 -30 -35 -46q20 -38 29 -57l156 -313l1 -4q0 -5 -15 -5h-14q-7 0 -10.5 2t-6.5 8l-120 245l-47 95l-74 -96l-187 -248q-5 -6 -17 -6h-17q-18 0 -9 11l239 312l48 60q-4 8 -15 28.5t-18 36.5l-131 263l-2 5q0 4 16 4h14q7 0 10.5 -2t6.5 -8l99 -203
l47 -95l74 97l157 205q3 4 5.5 5t10.5 1h21q10 0 10 -3q0 -2 -4 -8z" />
    <glyph glyph-name="Y" unicode="Y" horiz-adv-x="533" 
d="M574.5 717.5q1.5 -2.5 -2.5 -8.5l-292 -432l-37 -269q-1 -5 -4.5 -6.5t-12.5 -1.5h-9q-9 0 -12.5 2.5t-2.5 7.5l37 269l-167 432l-1 4q0 5 15 5h12q8 0 11.5 -2t5.5 -8l95 -249l56 -150l100 150l165 253q2 4 5 5t13 1h16q8 0 9.5 -2.5z" />
    <glyph glyph-name="Yacute" unicode="&#xdd;" horiz-adv-x="533" 
d="M574.5 717.5q1.5 -2.5 -2.5 -8.5l-292 -432l-37 -269q-1 -5 -4.5 -6.5t-12.5 -1.5h-9q-9 0 -12.5 2.5t-2.5 7.5l37 269l-167 432l-1 4q0 5 15 5h12q8 0 11.5 -2t5.5 -8l95 -249l56 -150l100 150l165 253q2 4 5 5t13 1h16q8 0 9.5 -2.5zM298 782l65 95q4 6 8.5 7.5
t15.5 1.5h10q14 0 17 -1.5t-1 -6.5l-86 -100q-4 -4 -16 -4h-5q-13 0 -8 8z" />
    <glyph glyph-name="Ycircumflex" unicode="&#x176;" horiz-adv-x="533" 
d="M574.5 717.5q1.5 -2.5 -2.5 -8.5l-292 -432l-37 -269q-1 -5 -4.5 -6.5t-12.5 -1.5h-9q-9 0 -12.5 2.5t-2.5 7.5l37 269l-167 432l-1 4q0 5 15 5h12q8 0 11.5 -2t5.5 -8l95 -249l56 -150l100 150l165 253q2 4 5 5t13 1h16q8 0 9.5 -2.5zM464 792q0 -2 -5 -7l-4 -4
q-4 -4 -6.5 -4t-6.5 3l-99 94l-127 -91q-5 -4 -7 -3.5t-5 4.5l-4 5q-4 4 -3.5 6t3.5 5l112 92q6 6 11.5 8t14.5 2h16q9 0 13 -2t9 -8l85 -95q3 -3 3 -5z" />
    <glyph glyph-name="Ydieresis" unicode="&#x178;" horiz-adv-x="533" 
d="M574.5 717.5q1.5 -2.5 -2.5 -8.5l-292 -432l-37 -269q-1 -5 -4.5 -6.5t-12.5 -1.5h-9q-9 0 -12.5 2.5t-2.5 7.5l37 269l-167 432l-1 4q0 5 15 5h12q8 0 11.5 -2t5.5 -8l95 -249l56 -150l100 150l165 253q2 4 5 5t13 1h16q8 0 9.5 -2.5zM215.5 806q-9.5 9 -9.5 24
q0 18 13.5 31.5t30.5 13.5q13 0 23 -9.5t10 -23.5q0 -20 -13 -32.5t-31 -12.5q-14 0 -23.5 9zM406.5 806q-9.5 9 -9.5 24q0 18 13.5 31.5t30.5 13.5q13 0 23 -9.5t10 -23.5q0 -20 -13 -32.5t-31 -12.5q-14 0 -23.5 9z" />
    <glyph glyph-name="Ygrave" unicode="&#x1ef2;" horiz-adv-x="533" 
d="M574.5 717.5q1.5 -2.5 -2.5 -8.5l-292 -432l-37 -269q-1 -5 -4.5 -6.5t-12.5 -1.5h-9q-9 0 -12.5 2.5t-2.5 7.5l37 269l-167 432l-1 4q0 5 15 5h12q8 0 11.5 -2t5.5 -8l95 -249l56 -150l100 150l165 253q2 4 5 5t13 1h16q8 0 9.5 -2.5zM326 780l-56 98q-1 1 -1 3
q0 3 5.5 4t16.5 1h4q16 0 21 -1.5t7 -7.5l36 -97v-2q0 -4 -12 -4h-6q-11 0 -15 6z" />
    <glyph glyph-name="Z" unicode="Z" horiz-adv-x="557" 
d="M572 719q1 -1 0 -6l-1 -8q-1 -11 -9 -20l-507 -651h420q6 0 7 -2t0 -9l-2 -14q-1 -9 -8 -9h-460q-5 0 -6 1t0 8l1 11q1 10 9 20l499 646h-387q-6 0 -7 2t0 9l2 14q1 9 8 9h435q5 0 6 -1z" />
    <glyph glyph-name="Zacute" unicode="&#x179;" horiz-adv-x="557" 
d="M572 719q1 -1 0 -6l-1 -8q-1 -11 -9 -20l-507 -651h420q6 0 7 -2t0 -9l-2 -14q-1 -9 -8 -9h-460q-5 0 -6 1t0 8l1 11q1 10 9 20l499 646h-387q-6 0 -7 2t0 9l2 14q1 9 8 9h435q5 0 6 -1zM319 782l65 95q4 6 8.5 7.5t15.5 1.5h10q14 0 17 -1.5t-1 -6.5l-86 -100
q-4 -4 -16 -4h-5q-13 0 -8 8z" />
    <glyph glyph-name="Zacute.loclPLK" horiz-adv-x="557" 
d="M572 719q1 -1 0 -6l-1 -8q-1 -11 -9 -20l-507 -651h420q6 0 7 -2t0 -9l-2 -14q-1 -9 -8 -9h-460q-5 0 -6 1t0 8l1 11q1 10 9 20l499 646h-387q-6 0 -7 2t0 9l2 14q1 9 8 9h435q5 0 6 -1zM335 780l31 96q2 7 5.5 8.5t14.5 1.5h12q13 0 15.5 -1t0.5 -6l-48 -98
q-4 -7 -12 -7h-9q-12 0 -10 6z" />
    <glyph glyph-name="Zcaron" unicode="&#x17d;" horiz-adv-x="557" 
d="M572 719q1 -1 0 -6l-1 -8q-1 -11 -9 -20l-507 -651h420q6 0 7 -2t0 -9l-2 -14q-1 -9 -8 -9h-460q-5 0 -6 1t0 8l1 11q1 10 9 20l499 646h-387q-6 0 -7 2t0 9l2 14q1 9 8 9h435q5 0 6 -1zM501.5 886q-0.5 -2 -3.5 -5l-112 -92q-6 -6 -11.5 -8t-14.5 -2h-16q-9 0 -13 2
t-9 8l-85 95q-3 3 -3 5q0 3 5 7l4 4q4 4 6.5 4t6.5 -3l99 -94l127 91q5 4 7 3.5t5 -4.5l4 -5q4 -4 3.5 -6z" />
    <glyph glyph-name="Zdotaccent" unicode="&#x17b;" horiz-adv-x="557" 
d="M572 719q1 -1 0 -6l-1 -8q-1 -11 -9 -20l-507 -651h420q6 0 7 -2t0 -9l-2 -14q-1 -9 -8 -9h-460q-5 0 -6 1t0 8l1 11q1 10 9 20l499 646h-387q-6 0 -7 2t0 9l2 14q1 9 8 9h435q5 0 6 -1zM329.5 795.5q-9.5 8.5 -9.5 23.5q0 18 13.5 31t30.5 13q13 0 23 -9t10 -23
q0 -19 -13 -31.5t-31 -12.5q-14 0 -23.5 8.5z" />
    <glyph glyph-name="a" unicode="a" horiz-adv-x="547" 
d="M501 526q2 -2 1 -9l-17 -118l-26 -183q-16 -115 -24 -211q0 -3 -4 -4t-9 -1h-13q-7 0 -8.5 2t-1.5 8q0 41 1 63q-28 -39 -73 -61t-104 -22q-87 0 -133 53.5t-46 151.5q0 91 33 170t93.5 126t138.5 47q48 0 86.5 -22t59.5 -60l15 63q1 6 3.5 7.5t8.5 1.5h11q6 0 8 -2z
M447 407q-23 47 -59.5 72t-80.5 25q-66 0 -116 -43t-77 -113t-27 -148q0 -85 37.5 -130.5t100.5 -45.5q81 0 134 51q29 29 43 70t26 126z" />
    <glyph glyph-name="a.ss01" horiz-adv-x="559" 
d="M75.5 29.5q-45.5 39.5 -45.5 105.5q0 79 60.5 117t160.5 38h162l4 26q6 47 6 67q0 55 -31.5 87.5t-99.5 32.5q-44 0 -82 -7.5t-86 -25.5q-3 -1 -7 -1t-10 11l-2 5q-2 8 -2 9q0 5 8 9q88 35 179 35q86 0 129.5 -41.5t43.5 -112.5q0 -22 -6 -67l-31 -216q-3 -21 -3 -35
q0 -20 6.5 -28t22.5 -8q7 0 23 4h2q2 0 5 -9l3 -13l1 -4q0 -3 -2.5 -4.5t-7.5 -2.5q-17 -5 -34 -5q-28 0 -42.5 17.5t-14.5 47.5q0 6 2 26q-29 -42 -78.5 -69.5t-113.5 -27.5q-74 0 -119.5 39.5zM293.5 46.5q43.5 22.5 72 62.5t35.5 93l7 54h-159q-175 0 -175 -118
q0 -52 33.5 -83t91.5 -31q51 0 94.5 22.5z" />
    <glyph glyph-name="aacute" unicode="&#xe1;" horiz-adv-x="547" 
d="M501 526q2 -2 1 -9l-17 -118l-26 -183q-16 -115 -24 -211q0 -3 -4 -4t-9 -1h-13q-7 0 -8.5 2t-1.5 8q0 41 1 63q-28 -39 -73 -61t-104 -22q-87 0 -133 53.5t-46 151.5q0 91 33 170t93.5 126t138.5 47q48 0 86.5 -22t59.5 -60l15 63q1 6 3.5 7.5t8.5 1.5h11q6 0 8 -2z
M447 407q-23 47 -59.5 72t-80.5 25q-66 0 -116 -43t-77 -113t-27 -148q0 -85 37.5 -130.5t100.5 -45.5q81 0 134 51q29 29 43 70t26 126zM281 590l65 95q4 6 8.5 7.5t15.5 1.5h10q14 0 17 -1.5t-1 -6.5l-86 -100q-4 -4 -16 -4h-5q-13 0 -8 8z" />
    <glyph glyph-name="aacute.ss01" horiz-adv-x="559" 
d="M75.5 29.5q-45.5 39.5 -45.5 105.5q0 79 60.5 117t160.5 38h162l4 26q6 47 6 67q0 55 -31.5 87.5t-99.5 32.5q-44 0 -82 -7.5t-86 -25.5q-3 -1 -7 -1t-10 11l-2 5q-2 8 -2 9q0 5 8 9q88 35 179 35q86 0 129.5 -41.5t43.5 -112.5q0 -22 -6 -67l-31 -216q-3 -21 -3 -35
q0 -20 6.5 -28t22.5 -8q7 0 23 4h2q2 0 5 -9l3 -13l1 -4q0 -3 -2.5 -4.5t-7.5 -2.5q-17 -5 -34 -5q-28 0 -42.5 17.5t-14.5 47.5q0 6 2 26q-29 -42 -78.5 -69.5t-113.5 -27.5q-74 0 -119.5 39.5zM293.5 46.5q43.5 22.5 72 62.5t35.5 93l7 54h-159q-175 0 -175 -118
q0 -52 33.5 -83t91.5 -31q51 0 94.5 22.5zM262 590l65 95q4 6 8.5 7.5t15.5 1.5h10q14 0 17 -1.5t-1 -6.5l-86 -100q-4 -4 -16 -4h-5q-13 0 -8 8z" />
    <glyph glyph-name="abreve" unicode="&#x103;" horiz-adv-x="547" 
d="M501 526q2 -2 1 -9l-17 -118l-26 -183q-16 -115 -24 -211q0 -3 -4 -4t-9 -1h-13q-7 0 -8.5 2t-1.5 8q0 41 1 63q-28 -39 -73 -61t-104 -22q-87 0 -133 53.5t-46 151.5q0 91 33 170t93.5 126t138.5 47q48 0 86.5 -22t59.5 -60l15 63q1 6 3.5 7.5t8.5 1.5h11q6 0 8 -2z
M447 407q-23 47 -59.5 72t-80.5 25q-66 0 -116 -43t-77 -113t-27 -148q0 -85 37.5 -130.5t100.5 -45.5q81 0 134 51q29 29 43 70t26 126zM227.5 617q-33.5 28 -28.5 68q1 5 3.5 6t8.5 1h10q7 0 9 -1t2 -5q-1 -32 24.5 -50.5t61.5 -18.5q84 0 102 69q1 4 3 5t9 1h11
q11 0 10 -6q-6 -44 -43 -70.5t-93 -26.5t-89.5 28z" />
    <glyph glyph-name="abreve.ss01" horiz-adv-x="559" 
d="M75.5 29.5q-45.5 39.5 -45.5 105.5q0 79 60.5 117t160.5 38h162l4 26q6 47 6 67q0 55 -31.5 87.5t-99.5 32.5q-44 0 -82 -7.5t-86 -25.5q-3 -1 -7 -1t-10 11l-2 5q-2 8 -2 9q0 5 8 9q88 35 179 35q86 0 129.5 -41.5t43.5 -112.5q0 -22 -6 -67l-31 -216q-3 -21 -3 -35
q0 -20 6.5 -28t22.5 -8q7 0 23 4h2q2 0 5 -9l3 -13l1 -4q0 -3 -2.5 -4.5t-7.5 -2.5q-17 -5 -34 -5q-28 0 -42.5 17.5t-14.5 47.5q0 6 2 26q-29 -42 -78.5 -69.5t-113.5 -27.5q-74 0 -119.5 39.5zM293.5 46.5q43.5 22.5 72 62.5t35.5 93l7 54h-159q-175 0 -175 -118
q0 -52 33.5 -83t91.5 -31q51 0 94.5 22.5zM208.5 617q-33.5 28 -28.5 68q1 5 3.5 6t8.5 1h10q7 0 9 -1t2 -5q-1 -32 24.5 -50.5t61.5 -18.5q84 0 102 69q1 4 3 5t9 1h11q11 0 10 -6q-6 -44 -43 -70.5t-93 -26.5t-89.5 28z" />
    <glyph glyph-name="uni01CE" unicode="&#x1ce;" horiz-adv-x="547" 
d="M501 526q2 -2 1 -9l-17 -118l-26 -183q-16 -115 -24 -211q0 -3 -4 -4t-9 -1h-13q-7 0 -8.5 2t-1.5 8q0 41 1 63q-28 -39 -73 -61t-104 -22q-87 0 -133 53.5t-46 151.5q0 91 33 170t93.5 126t138.5 47q48 0 86.5 -22t59.5 -60l15 63q1 6 3.5 7.5t8.5 1.5h11q6 0 8 -2z
M447 407q-23 47 -59.5 72t-80.5 25q-66 0 -116 -43t-77 -113t-27 -148q0 -85 37.5 -130.5t100.5 -45.5q81 0 134 51q29 29 43 70t26 126zM462 687q0 -2 -3 -5l-111 -95q-6 -6 -11.5 -8t-14.5 -2h-16q-9 0 -13 2t-9 8l-84 96q-3 3 -3 5q0 3 5 7l4 4q4 4 6.5 4t6.5 -3l100 -95
l124 95q5 4 7 3.5t5 -4.5l4 -6q3 -4 3 -6z" />
    <glyph glyph-name="uni01CE.ss01" horiz-adv-x="559" 
d="M75.5 29.5q-45.5 39.5 -45.5 105.5q0 79 60.5 117t160.5 38h162l4 26q6 47 6 67q0 55 -31.5 87.5t-99.5 32.5q-44 0 -82 -7.5t-86 -25.5q-3 -1 -7 -1t-10 11l-2 5q-2 8 -2 9q0 5 8 9q88 35 179 35q86 0 129.5 -41.5t43.5 -112.5q0 -22 -6 -67l-31 -216q-3 -21 -3 -35
q0 -20 6.5 -28t22.5 -8q7 0 23 4h2q2 0 5 -9l3 -13l1 -4q0 -3 -2.5 -4.5t-7.5 -2.5q-17 -5 -34 -5q-28 0 -42.5 17.5t-14.5 47.5q0 6 2 26q-29 -42 -78.5 -69.5t-113.5 -27.5q-74 0 -119.5 39.5zM293.5 46.5q43.5 22.5 72 62.5t35.5 93l7 54h-159q-175 0 -175 -118
q0 -52 33.5 -83t91.5 -31q51 0 94.5 22.5zM443 687q0 -2 -3 -5l-111 -95q-6 -6 -11.5 -8t-14.5 -2h-16q-9 0 -13 2t-9 8l-84 96q-3 3 -3 5q0 3 5 7l4 4q4 4 6.5 4t6.5 -3l100 -95l124 95q5 4 7 3.5t5 -4.5l4 -6q3 -4 3 -6z" />
    <glyph glyph-name="acircumflex" unicode="&#xe2;" horiz-adv-x="547" 
d="M501 526q2 -2 1 -9l-17 -118l-26 -183q-16 -115 -24 -211q0 -3 -4 -4t-9 -1h-13q-7 0 -8.5 2t-1.5 8q0 41 1 63q-28 -39 -73 -61t-104 -22q-87 0 -133 53.5t-46 151.5q0 91 33 170t93.5 126t138.5 47q48 0 86.5 -22t59.5 -60l15 63q1 6 3.5 7.5t8.5 1.5h11q6 0 8 -2z
M447 407q-23 47 -59.5 72t-80.5 25q-66 0 -116 -43t-77 -113t-27 -148q0 -85 37.5 -130.5t100.5 -45.5q81 0 134 51q29 29 43 70t26 126zM462 602q1 -1 1 -3l-5 -7l-4 -4q-4 -4 -6.5 -4t-6.5 3l-98 95l-126 -95q-5 -4 -7 -3.5t-5 4.5l-5 6q-4 4 -3.5 6t3.5 5l112 95
q6 6 11.5 8t14.5 2h16q9 0 13 -2t9 -8l84 -96z" />
    <glyph glyph-name="acircumflex.ss01" horiz-adv-x="559" 
d="M75.5 29.5q-45.5 39.5 -45.5 105.5q0 79 60.5 117t160.5 38h162l4 26q6 47 6 67q0 55 -31.5 87.5t-99.5 32.5q-44 0 -82 -7.5t-86 -25.5q-3 -1 -7 -1t-10 11l-2 5q-2 8 -2 9q0 5 8 9q88 35 179 35q86 0 129.5 -41.5t43.5 -112.5q0 -22 -6 -67l-31 -216q-3 -21 -3 -35
q0 -20 6.5 -28t22.5 -8q7 0 23 4h2q2 0 5 -9l3 -13l1 -4q0 -3 -2.5 -4.5t-7.5 -2.5q-17 -5 -34 -5q-28 0 -42.5 17.5t-14.5 47.5q0 6 2 26q-29 -42 -78.5 -69.5t-113.5 -27.5q-74 0 -119.5 39.5zM293.5 46.5q43.5 22.5 72 62.5t35.5 93l7 54h-159q-175 0 -175 -118
q0 -52 33.5 -83t91.5 -31q51 0 94.5 22.5zM443 602q1 -1 1 -3l-5 -7l-4 -4q-4 -4 -6.5 -4t-6.5 3l-98 95l-126 -95q-5 -4 -7 -3.5t-5 4.5l-5 6q-4 4 -3.5 6t3.5 5l112 95q6 6 11.5 8t14.5 2h16q9 0 13 -2t9 -8l84 -96z" />
    <glyph glyph-name="adieresis" unicode="&#xe4;" horiz-adv-x="547" 
d="M501 526q2 -2 1 -9l-17 -118l-26 -183q-16 -115 -24 -211q0 -3 -4 -4t-9 -1h-13q-7 0 -8.5 2t-1.5 8q0 41 1 63q-28 -39 -73 -61t-104 -22q-87 0 -133 53.5t-46 151.5q0 91 33 170t93.5 126t138.5 47q48 0 86.5 -22t59.5 -60l15 63q1 6 3.5 7.5t8.5 1.5h11q6 0 8 -2z
M447 407q-23 47 -59.5 72t-80.5 25q-66 0 -116 -43t-77 -113t-27 -148q0 -85 37.5 -130.5t100.5 -45.5q81 0 134 51q29 29 43 70t26 126zM205.5 614q-9.5 9 -9.5 24q0 18 13.5 31.5t30.5 13.5q13 0 23 -9.5t10 -23.5q0 -20 -13 -32.5t-31 -12.5q-14 0 -23.5 9zM396.5 614
q-9.5 9 -9.5 24q0 18 13.5 31.5t30.5 13.5q13 0 23 -9.5t10 -23.5q0 -20 -13 -32.5t-31 -12.5q-14 0 -23.5 9z" />
    <glyph glyph-name="adieresis.ss01" horiz-adv-x="559" 
d="M75.5 29.5q-45.5 39.5 -45.5 105.5q0 79 60.5 117t160.5 38h162l4 26q6 47 6 67q0 55 -31.5 87.5t-99.5 32.5q-44 0 -82 -7.5t-86 -25.5q-3 -1 -7 -1t-10 11l-2 5q-2 8 -2 9q0 5 8 9q88 35 179 35q86 0 129.5 -41.5t43.5 -112.5q0 -22 -6 -67l-31 -216q-3 -21 -3 -35
q0 -20 6.5 -28t22.5 -8q7 0 23 4h2q2 0 5 -9l3 -13l1 -4q0 -3 -2.5 -4.5t-7.5 -2.5q-17 -5 -34 -5q-28 0 -42.5 17.5t-14.5 47.5q0 6 2 26q-29 -42 -78.5 -69.5t-113.5 -27.5q-74 0 -119.5 39.5zM293.5 46.5q43.5 22.5 72 62.5t35.5 93l7 54h-159q-175 0 -175 -118
q0 -52 33.5 -83t91.5 -31q51 0 94.5 22.5zM186.5 614q-9.5 9 -9.5 24q0 18 13.5 31.5t30.5 13.5q13 0 23 -9.5t10 -23.5q0 -20 -13 -32.5t-31 -12.5q-14 0 -23.5 9zM377.5 614q-9.5 9 -9.5 24q0 18 13.5 31.5t30.5 13.5q13 0 23 -9.5t10 -23.5q0 -20 -13 -32.5t-31 -12.5
q-14 0 -23.5 9z" />
    <glyph glyph-name="agrave" unicode="&#xe0;" horiz-adv-x="547" 
d="M501 526q2 -2 1 -9l-17 -118l-26 -183q-16 -115 -24 -211q0 -3 -4 -4t-9 -1h-13q-7 0 -8.5 2t-1.5 8q0 41 1 63q-28 -39 -73 -61t-104 -22q-87 0 -133 53.5t-46 151.5q0 91 33 170t93.5 126t138.5 47q48 0 86.5 -22t59.5 -60l15 63q1 6 3.5 7.5t8.5 1.5h11q6 0 8 -2z
M447 407q-23 47 -59.5 72t-80.5 25q-66 0 -116 -43t-77 -113t-27 -148q0 -85 37.5 -130.5t100.5 -45.5q81 0 134 51q29 29 43 70t26 126zM324 588l-56 98q-1 1 -1 3q0 3 5.5 4t16.5 1h4q16 0 21 -1.5t7 -7.5l36 -97v-2q0 -4 -12 -4h-6q-11 0 -15 6z" />
    <glyph glyph-name="agrave.ss01" horiz-adv-x="559" 
d="M75.5 29.5q-45.5 39.5 -45.5 105.5q0 79 60.5 117t160.5 38h162l4 26q6 47 6 67q0 55 -31.5 87.5t-99.5 32.5q-44 0 -82 -7.5t-86 -25.5q-3 -1 -7 -1t-10 11l-2 5q-2 8 -2 9q0 5 8 9q88 35 179 35q86 0 129.5 -41.5t43.5 -112.5q0 -22 -6 -67l-31 -216q-3 -21 -3 -35
q0 -20 6.5 -28t22.5 -8q7 0 23 4h2q2 0 5 -9l3 -13l1 -4q0 -3 -2.5 -4.5t-7.5 -2.5q-17 -5 -34 -5q-28 0 -42.5 17.5t-14.5 47.5q0 6 2 26q-29 -42 -78.5 -69.5t-113.5 -27.5q-74 0 -119.5 39.5zM293.5 46.5q43.5 22.5 72 62.5t35.5 93l7 54h-159q-175 0 -175 -118
q0 -52 33.5 -83t91.5 -31q51 0 94.5 22.5zM305 588l-56 98q-1 1 -1 3q0 3 5.5 4t16.5 1h4q16 0 21 -1.5t7 -7.5l36 -97v-2q0 -4 -12 -4h-6q-11 0 -15 6z" />
    <glyph glyph-name="amacron" unicode="&#x101;" horiz-adv-x="547" 
d="M501 526q2 -2 1 -9l-17 -118l-26 -183q-16 -115 -24 -211q0 -3 -4 -4t-9 -1h-13q-7 0 -8.5 2t-1.5 8q0 41 1 63q-28 -39 -73 -61t-104 -22q-87 0 -133 53.5t-46 151.5q0 91 33 170t93.5 126t138.5 47q48 0 86.5 -22t59.5 -60l15 63q1 6 3.5 7.5t8.5 1.5h11q6 0 8 -2z
M447 407q-23 47 -59.5 72t-80.5 25q-66 0 -116 -43t-77 -113t-27 -148q0 -85 37.5 -130.5t100.5 -45.5q81 0 134 51q29 29 43 70t26 126zM199 633q-1 2 0 8l2 14q1 8 8 8h248q6 0 7 -2t0 -8l-2 -14q-1 -8 -8 -8h-248q-6 0 -7 2z" />
    <glyph glyph-name="amacron.ss01" horiz-adv-x="559" 
d="M75.5 29.5q-45.5 39.5 -45.5 105.5q0 79 60.5 117t160.5 38h162l4 26q6 47 6 67q0 55 -31.5 87.5t-99.5 32.5q-44 0 -82 -7.5t-86 -25.5q-3 -1 -7 -1t-10 11l-2 5q-2 8 -2 9q0 5 8 9q88 35 179 35q86 0 129.5 -41.5t43.5 -112.5q0 -22 -6 -67l-31 -216q-3 -21 -3 -35
q0 -20 6.5 -28t22.5 -8q7 0 23 4h2q2 0 5 -9l3 -13l1 -4q0 -3 -2.5 -4.5t-7.5 -2.5q-17 -5 -34 -5q-28 0 -42.5 17.5t-14.5 47.5q0 6 2 26q-29 -42 -78.5 -69.5t-113.5 -27.5q-74 0 -119.5 39.5zM293.5 46.5q43.5 22.5 72 62.5t35.5 93l7 54h-159q-175 0 -175 -118
q0 -52 33.5 -83t91.5 -31q51 0 94.5 22.5zM180 633q-1 2 0 8l2 14q1 8 8 8h248q6 0 7 -2t0 -8l-2 -14q-1 -8 -8 -8h-248q-6 0 -7 2z" />
    <glyph glyph-name="aogonek" unicode="&#x105;" horiz-adv-x="547" 
d="M501 526q2 -2 1 -9l-17 -118l-26 -183q-9 -60 -14 -106t-9 -100q0 -6 -6 -10q-55 -29 -87 -68.5t-32 -83.5q0 -21 11 -33.5t34 -12.5q11 0 25 3.5t21 6.5l4 1q2 0 1 -8l-1 -6q-1 -5 -3 -8t-10 -6q-21 -10 -53 -10q-33 0 -52 18.5t-19 50.5q0 44 35.5 88.5t94.5 72.5
q0 46 1 68q-28 -39 -73 -61t-104 -22q-87 0 -133 53.5t-46 151.5q0 91 33 170t93.5 126t138.5 47q48 0 86.5 -22t59.5 -60l15 63q1 6 3.5 7.5t8.5 1.5h11q6 0 8 -2zM447 407q-23 47 -59.5 72t-80.5 25q-66 0 -116 -43t-77 -113t-27 -148q0 -85 37.5 -130.5t100.5 -45.5
q81 0 134 51q29 29 43 70t26 126z" />
    <glyph glyph-name="aogonek.ss01" horiz-adv-x="561" 
d="M340 -206.5q-19 18.5 -19 50.5q0 40 30.5 82t83.5 71q-48 6 -48 64q0 6 2 26q-29 -42 -78.5 -69.5t-113.5 -27.5q-74 0 -119.5 39.5t-45.5 105.5q0 79 60.5 117t160.5 38h162l4 26q6 47 6 67q0 55 -31.5 87.5t-99.5 32.5q-44 0 -82 -7.5t-86 -25.5q-3 -1 -7 -1t-10 11
l-2 5q-2 8 -2 9q0 5 8 9q88 35 179 35q86 0 129.5 -41.5t43.5 -112.5q0 -22 -6 -67l-31 -216q-3 -21 -3 -35q0 -20 6.5 -28t22.5 -8q7 0 23 4h2q2 0 5 -9l3 -13v-4q0 -5 -5 -8q-55 -29 -87 -68.5t-32 -83.5q0 -21 11 -33.5t34 -12.5q11 0 25 3.5t21 6.5l4 1q2 0 1 -8l-1 -6
q-1 -5 -3 -8t-10 -6q-21 -10 -53 -10q-33 0 -52 18.5zM295.5 46.5q43.5 22.5 72 62.5t35.5 93l7 54h-159q-175 0 -175 -118q0 -52 33.5 -83t91.5 -31q51 0 94.5 22.5z" />
    <glyph glyph-name="aring" unicode="&#xe5;" horiz-adv-x="547" 
d="M501 526q2 -2 1 -9l-17 -118l-26 -183q-16 -115 -24 -211q0 -3 -4 -4t-9 -1h-13q-7 0 -8.5 2t-1.5 8q0 41 1 63q-28 -39 -73 -61t-104 -22q-87 0 -133 53.5t-46 151.5q0 91 33 170t93.5 126t138.5 47q48 0 86.5 -22t59.5 -60l15 63q1 6 3.5 7.5t8.5 1.5h11q6 0 8 -2z
M447 407q-23 47 -59.5 72t-80.5 25q-66 0 -116 -43t-77 -113t-27 -148q0 -85 37.5 -130.5t100.5 -45.5q81 0 134 51q29 29 43 70t26 126zM266.5 593q-20.5 20 -20.5 50q0 38 28.5 65.5t68.5 27.5q35 0 55 -19.5t20 -50.5q0 -39 -28 -66t-69 -27q-34 0 -54.5 20zM367 618.5
q16 17.5 16 43.5q0 22 -11 34t-32 12q-27 0 -43 -18t-16 -44q0 -21 11 -33t32 -12q27 0 43 17.5z" />
    <glyph glyph-name="aring.ss01" horiz-adv-x="559" 
d="M75.5 29.5q-45.5 39.5 -45.5 105.5q0 79 60.5 117t160.5 38h162l4 26q6 47 6 67q0 55 -31.5 87.5t-99.5 32.5q-44 0 -82 -7.5t-86 -25.5q-3 -1 -7 -1t-10 11l-2 5q-2 8 -2 9q0 5 8 9q88 35 179 35q86 0 129.5 -41.5t43.5 -112.5q0 -22 -6 -67l-31 -216q-3 -21 -3 -35
q0 -20 6.5 -28t22.5 -8q7 0 23 4h2q2 0 5 -9l3 -13l1 -4q0 -3 -2.5 -4.5t-7.5 -2.5q-17 -5 -34 -5q-28 0 -42.5 17.5t-14.5 47.5q0 6 2 26q-29 -42 -78.5 -69.5t-113.5 -27.5q-74 0 -119.5 39.5zM293.5 46.5q43.5 22.5 72 62.5t35.5 93l7 54h-159q-175 0 -175 -118
q0 -52 33.5 -83t91.5 -31q51 0 94.5 22.5zM247.5 593q-20.5 20 -20.5 50q0 38 28.5 65.5t68.5 27.5q35 0 55 -19.5t20 -50.5q0 -39 -28 -66t-69 -27q-34 0 -54.5 20zM348 618.5q16 17.5 16 43.5q0 22 -11 34t-32 12q-27 0 -43 -18t-16 -44q0 -21 11 -33t32 -12q27 0 43 17.5
z" />
    <glyph glyph-name="aringacute" unicode="&#x1fb;" horiz-adv-x="547" 
d="M356 768l65 95q4 6 8.5 7.5t15.5 1.5h10q14 0 17 -1.5t-1 -6.5l-86 -100q-4 -4 -16 -4h-5q-13 0 -8 8zM501 526q2 -2 1 -9l-17 -118l-26 -183q-16 -115 -24 -211q0 -3 -4 -4t-9 -1h-13q-7 0 -8.5 2t-1.5 8q0 41 1 63q-28 -39 -73 -61t-104 -22q-87 0 -133 53.5t-46 151.5
q0 91 33 170t93.5 126t138.5 47q48 0 86.5 -22t59.5 -60l15 63q1 6 3.5 7.5t8.5 1.5h11q6 0 8 -2zM447 407q-23 47 -59.5 72t-80.5 25q-66 0 -116 -43t-77 -113t-27 -148q0 -85 37.5 -130.5t100.5 -45.5q81 0 134 51q29 29 43 70t26 126zM286.5 597q-20.5 20 -20.5 50
q0 38 28.5 65.5t68.5 27.5q35 0 55 -19.5t20 -50.5q0 -39 -28 -66t-69 -27q-34 0 -54.5 20zM387 622.5q16 17.5 16 43.5q0 22 -11 34t-32 12q-27 0 -43 -18t-16 -44q0 -21 11 -33t32 -12q27 0 43 17.5z" />
    <glyph glyph-name="aringacute.ss01" horiz-adv-x="559" 
d="M75.5 29.5q-45.5 39.5 -45.5 105.5q0 79 60.5 117t160.5 38h162l4 26q6 47 6 67q0 55 -31.5 87.5t-99.5 32.5q-44 0 -82 -7.5t-86 -25.5q-3 -1 -7 -1t-10 11l-2 5q-2 8 -2 9q0 5 8 9q88 35 179 35q86 0 129.5 -41.5t43.5 -112.5q0 -22 -6 -67l-31 -216q-3 -21 -3 -35
q0 -20 6.5 -28t22.5 -8q7 0 23 4h2q2 0 5 -9l3 -13l1 -4q0 -3 -2.5 -4.5t-7.5 -2.5q-17 -5 -34 -5q-28 0 -42.5 17.5t-14.5 47.5q0 6 2 26q-29 -42 -78.5 -69.5t-113.5 -27.5q-74 0 -119.5 39.5zM293.5 46.5q43.5 22.5 72 62.5t35.5 93l7 54h-159q-175 0 -175 -118
q0 -52 33.5 -83t91.5 -31q51 0 94.5 22.5zM247.5 593q-20.5 20 -20.5 50q0 38 28.5 65.5t68.5 27.5q35 0 55 -19.5t20 -50.5q0 -39 -28 -66t-69 -27q-34 0 -54.5 20zM348 618.5q16 17.5 16 43.5q0 22 -11 34t-32 12q-27 0 -43 -18t-16 -44q0 -21 11 -33t32 -12q27 0 43 17.5
zM303 767l65 95q4 6 8.5 7.5t15.5 1.5h10q14 0 17 -1.5t-1 -6.5l-86 -100q-4 -4 -16 -4h-5q-13 0 -8 8z" />
    <glyph glyph-name="atilde" unicode="&#xe3;" horiz-adv-x="547" 
d="M501 526q2 -2 1 -9l-17 -118l-26 -183q-16 -115 -24 -211q0 -3 -4 -4t-9 -1h-13q-7 0 -8.5 2t-1.5 8q0 41 1 63q-28 -39 -73 -61t-104 -22q-87 0 -133 53.5t-46 151.5q0 91 33 170t93.5 126t138.5 47q48 0 86.5 -22t59.5 -60l15 63q1 6 3.5 7.5t8.5 1.5h11q6 0 8 -2z
M447 407q-23 47 -59.5 72t-80.5 25q-66 0 -116 -43t-77 -113t-27 -148q0 -85 37.5 -130.5t100.5 -45.5q81 0 134 51q29 29 43 70t26 126zM357 626q-14 5 -33 15q-17 9 -30.5 14t-29.5 5q-14 0 -26 -6t-33 -23q-4 -4 -8 2l-7 9q-3 4 -2 5.5t4 4.5q13 15 35 26t46 11
q19 0 34.5 -5t32.5 -15t30 -14.5t29 -4.5q14 0 26 6t33 23q4 4 8 -2l7 -9q3 -4 2 -5.5t-4 -4.5q-13 -15 -35 -26t-46 -11q-19 0 -33 5z" />
    <glyph glyph-name="atilde.ss01" horiz-adv-x="559" 
d="M75.5 29.5q-45.5 39.5 -45.5 105.5q0 79 60.5 117t160.5 38h162l4 26q6 47 6 67q0 55 -31.5 87.5t-99.5 32.5q-44 0 -82 -7.5t-86 -25.5q-3 -1 -7 -1t-10 11l-2 5q-2 8 -2 9q0 5 8 9q88 35 179 35q86 0 129.5 -41.5t43.5 -112.5q0 -22 -6 -67l-31 -216q-3 -21 -3 -35
q0 -20 6.5 -28t22.5 -8q7 0 23 4h2q2 0 5 -9l3 -13l1 -4q0 -3 -2.5 -4.5t-7.5 -2.5q-17 -5 -34 -5q-28 0 -42.5 17.5t-14.5 47.5q0 6 2 26q-29 -42 -78.5 -69.5t-113.5 -27.5q-74 0 -119.5 39.5zM293.5 46.5q43.5 22.5 72 62.5t35.5 93l7 54h-159q-175 0 -175 -118
q0 -52 33.5 -83t91.5 -31q51 0 94.5 22.5zM338 626q-14 5 -33 15q-17 9 -30.5 14t-29.5 5q-14 0 -26 -6t-33 -23q-4 -4 -8 2l-7 9q-3 4 -2 5.5t4 4.5q13 15 35 26t46 11q19 0 34.5 -5t32.5 -15t30 -14.5t29 -4.5q14 0 26 6t33 23q4 4 8 -2l7 -9q3 -4 2 -5.5t-4 -4.5
q-13 -15 -35 -26t-46 -11q-19 0 -33 5z" />
    <glyph glyph-name="ae" unicode="&#xe6;" horiz-adv-x="844" 
d="M766 481.5q40 -56.5 40 -149.5q0 -38 -6 -66q-2 -7 -4.5 -9.5t-10.5 -2.5l-357 -1q-4 -25 -4 -58q0 -89 40.5 -130t119.5 -41q66 0 134 34q1 1 3 1q4 0 5 -8l4 -15q1 -4 0.5 -5.5t-3.5 -3.5q-35 -18 -71.5 -27.5t-80.5 -9.5q-140 0 -178 109q-80 -109 -206 -109
q-70 0 -116 39t-46 106q0 86 60.5 135t160.5 49q80 0 145 -32q12 60 12 98q0 62 -34 90t-104 28q-58 0 -138 -26q-6 -2 -7 -2q-5 0 -6 12l-1 10v6q0 4 1 5.5t5 3.5q83 26 151 26q74 0 119 -28.5t50 -90.5q70 119 202 119q81 0 121 -56.5zM765 336q0 73 -29.5 120.5
t-92.5 47.5q-82 0 -136.5 -61t-73.5 -157l329 2q3 24 3 48zM388 133q-5 33 -5 65q0 15 2 33t3 25q-73 31 -144 31q-75 0 -123.5 -39t-48.5 -108q0 -56 33.5 -86t88.5 -30q114 0 194 109z" />
    <glyph glyph-name="aeacute" unicode="&#x1fd;" horiz-adv-x="844" 
d="M766 481.5q40 -56.5 40 -149.5q0 -38 -6 -66q-2 -7 -4.5 -9.5t-10.5 -2.5l-357 -1q-4 -25 -4 -58q0 -89 40.5 -130t119.5 -41q66 0 134 34q1 1 3 1q4 0 5 -8l4 -15q1 -4 0.5 -5.5t-3.5 -3.5q-35 -18 -71.5 -27.5t-80.5 -9.5q-140 0 -178 109q-80 -109 -206 -109
q-70 0 -116 39t-46 106q0 86 60.5 135t160.5 49q80 0 145 -32q12 60 12 98q0 62 -34 90t-104 28q-58 0 -138 -26q-6 -2 -7 -2q-5 0 -6 12l-1 10v6q0 4 1 5.5t5 3.5q83 26 151 26q74 0 119 -28.5t50 -90.5q70 119 202 119q81 0 121 -56.5zM765 336q0 73 -29.5 120.5
t-92.5 47.5q-82 0 -136.5 -61t-73.5 -157l329 2q3 24 3 48zM388 133q-5 33 -5 65q0 15 2 33t3 25q-73 31 -144 31q-75 0 -123.5 -39t-48.5 -108q0 -56 33.5 -86t88.5 -30q114 0 194 109zM456 590l65 95q4 6 8.5 7.5t15.5 1.5h10q14 0 17 -1.5t-1 -6.5l-86 -100q-4 -4 -16 -4
h-5q-13 0 -8 8z" />
    <glyph glyph-name="b" unicode="b" horiz-adv-x="558" 
d="M464 480.5q40 -57.5 40 -144.5q0 -97 -34 -175.5t-102 -124.5t-166 -46q-75 0 -137 27q-8 4 -11 7t-2 8l101 719q1 6 4.5 7.5t10.5 1.5h12q8 0 10.5 -2t1.5 -7l-42 -302q40 47 85 68t99 21q90 0 130 -57.5zM397 112q64 88 64 232q0 78 -34 119t-99 41q-42 0 -78 -17.5
t-60 -43.5q-18 -19 -29 -38.5t-21 -59.5t-20 -113l-26 -185q46 -23 108 -23q131 0 195 88z" />
    <glyph glyph-name="c" unicode="c" horiz-adv-x="465" 
d="M91.5 44.5q-47.5 54.5 -47.5 146.5q0 95 35 174.5t99.5 126t148.5 46.5q37 0 72.5 -10.5t61.5 -30.5q4 -3 4 -4.5t-2 -5.5l-12 -18q-4 -6 -11 -2q-54 37 -116 37q-71 0 -124.5 -42.5t-83 -113.5t-29.5 -153q0 -79 36.5 -125t113.5 -46q75 0 142 31q1 1 3 1q4 0 5 -8
l3 -15q1 -4 0.5 -6t-3.5 -3q-71 -34 -153 -34q-95 0 -142.5 54.5z" />
    <glyph glyph-name="cacute" unicode="&#x107;" horiz-adv-x="465" 
d="M91.5 44.5q-47.5 54.5 -47.5 146.5q0 95 35 174.5t99.5 126t148.5 46.5q37 0 72.5 -10.5t61.5 -30.5q4 -3 4 -4.5t-2 -5.5l-12 -18q-4 -6 -11 -2q-54 37 -116 37q-71 0 -124.5 -42.5t-83 -113.5t-29.5 -153q0 -79 36.5 -125t113.5 -46q75 0 142 31q1 1 3 1q4 0 5 -8
l3 -15q1 -4 0.5 -6t-3.5 -3q-71 -34 -153 -34q-95 0 -142.5 54.5zM295 590l65 95q4 6 8.5 7.5t15.5 1.5h10q14 0 17 -1.5t-1 -6.5l-86 -100q-4 -4 -16 -4h-5q-13 0 -8 8z" />
    <glyph glyph-name="cacute.loclPLK" horiz-adv-x="465" 
d="M91.5 44.5q-47.5 54.5 -47.5 146.5q0 95 35 174.5t99.5 126t148.5 46.5q37 0 72.5 -10.5t61.5 -30.5q4 -3 4 -4.5t-2 -5.5l-12 -18q-4 -6 -11 -2q-54 37 -116 37q-71 0 -124.5 -42.5t-83 -113.5t-29.5 -153q0 -79 36.5 -125t113.5 -46q75 0 142 31q1 1 3 1q4 0 5 -8
l3 -15q1 -4 0.5 -6t-3.5 -3q-71 -34 -153 -34q-95 0 -142.5 54.5zM311 588l31 96q2 7 5.5 8.5t14.5 1.5h12q13 0 15.5 -1t0.5 -6l-48 -98q-4 -7 -12 -7h-9q-12 0 -10 6z" />
    <glyph glyph-name="ccaron" unicode="&#x10d;" horiz-adv-x="465" 
d="M91.5 44.5q-47.5 54.5 -47.5 146.5q0 95 35 174.5t99.5 126t148.5 46.5q37 0 72.5 -10.5t61.5 -30.5q4 -3 4 -4.5t-2 -5.5l-12 -18q-4 -6 -11 -2q-54 37 -116 37q-71 0 -124.5 -42.5t-83 -113.5t-29.5 -153q0 -79 36.5 -125t113.5 -46q75 0 142 31q1 1 3 1q4 0 5 -8
l3 -15q1 -4 0.5 -6t-3.5 -3q-71 -34 -153 -34q-95 0 -142.5 54.5zM476 687q0 -2 -3 -5l-111 -95q-6 -6 -11.5 -8t-14.5 -2h-16q-9 0 -13 2t-9 8l-84 96q-3 3 -3 5q0 3 5 7l4 4q4 4 6.5 4t6.5 -3l100 -95l124 95q5 4 7 3.5t5 -4.5l4 -6q3 -4 3 -6z" />
    <glyph glyph-name="ccedilla" unicode="&#xe7;" horiz-adv-x="465" 
d="M465 492.5q0 -1.5 -2 -5.5l-12 -18q-4 -6 -11 -2q-54 37 -116 37q-71 0 -124.5 -42.5t-83 -113.5t-29.5 -153q0 -79 36.5 -125t113.5 -46q75 0 142 31q1 1 3 1q4 0 5 -8l3 -15q1 -4 0.5 -6t-3.5 -3q-71 -34 -153 -34h-2l-18 -66q12 3 29 3q34 0 53.5 -17t19.5 -46
q0 -40 -28 -67t-87 -27q-17 0 -35.5 4t-26.5 8q-4 3 -2 9l3 7q2 5 3.5 7.5t3.5 1.5q28 -10 57 -10q33 0 53.5 13.5t20.5 44.5q0 20 -15 31t-39 11q-29 0 -55 -8l30 103q-77 10 -116 63t-39 136q0 95 35 174.5t99.5 126t148.5 46.5q37 0 72.5 -10.5t61.5 -30.5q4 -3 4 -4.5z
" />
    <glyph glyph-name="ccircumflex" unicode="&#x109;" horiz-adv-x="465" 
d="M91.5 44.5q-47.5 54.5 -47.5 146.5q0 95 35 174.5t99.5 126t148.5 46.5q37 0 72.5 -10.5t61.5 -30.5q4 -3 4 -4.5t-2 -5.5l-12 -18q-4 -6 -11 -2q-54 37 -116 37q-71 0 -124.5 -42.5t-83 -113.5t-29.5 -153q0 -79 36.5 -125t113.5 -46q75 0 142 31q1 1 3 1q4 0 5 -8
l3 -15q1 -4 0.5 -6t-3.5 -3q-71 -34 -153 -34q-95 0 -142.5 54.5zM476 602q1 -1 1 -3l-5 -7l-4 -4q-4 -4 -6.5 -4t-6.5 3l-98 95l-126 -95q-5 -4 -7 -3.5t-5 4.5l-5 6q-4 4 -3.5 6t3.5 5l112 95q6 6 11.5 8t14.5 2h16q9 0 13 -2t9 -8l84 -96z" />
    <glyph glyph-name="cdotaccent" unicode="&#x10b;" horiz-adv-x="465" 
d="M91.5 44.5q-47.5 54.5 -47.5 146.5q0 95 35 174.5t99.5 126t148.5 46.5q37 0 72.5 -10.5t61.5 -30.5q4 -3 4 -4.5t-2 -5.5l-12 -18q-4 -6 -11 -2q-54 37 -116 37q-71 0 -124.5 -42.5t-83 -113.5t-29.5 -153q0 -79 36.5 -125t113.5 -46q75 0 142 31q1 1 3 1q4 0 5 -8
l3 -15q1 -4 0.5 -6t-3.5 -3q-71 -34 -153 -34q-95 0 -142.5 54.5zM314.5 614q-9.5 9 -9.5 24q0 18 13.5 31.5t30.5 13.5q13 0 23 -9.5t10 -23.5q0 -20 -13 -32.5t-31 -12.5q-14 0 -23.5 9z" />
    <glyph glyph-name="d" unicode="d" horiz-adv-x="569" 
d="M440 112q-4 -40 -4 -47q0 -18 7.5 -25t28.5 -7q5 0 6 -1.5t0 -8.5l-1 -11q0 -5 -1 -7.5t-4 -3.5q-12 -2 -21 -2q-28 0 -41 16t-13 43q0 11 1 17q-28 -41 -73.5 -63t-101.5 -22q-88 0 -136 54.5t-48 153.5q0 92 35.5 170t99.5 124t146 46q39 0 74 -11.5t60 -34.5l37 259
q1 6 4.5 7.5t10.5 1.5h12q8 0 10.5 -2t1.5 -7zM449 453q-51 51 -130 51q-70 0 -124 -42t-83.5 -111.5t-29.5 -148.5q0 -86 40 -132t107 -46q34 0 67 12.5t59 37.5q20 19 31 39t19.5 55t17.5 101z" />
    <glyph glyph-name="eth" unicode="&#xf0;" horiz-adv-x="547" 
d="M490 355q0 -94 -29 -177t-90.5 -135.5t-153.5 -52.5q-54 0 -96 25t-65.5 72t-23.5 109q0 86 35.5 160t99 118t144.5 44q33 0 66 -10.5t60 -33.5q-35 129 -154 211l-152 -80q-5 -2 -7 -2t-4 4l-7 11q-3 5 -2.5 7.5t5.5 4.5l139 73q-48 29 -108 51q-4 1 -4.5 3t1.5 7l6 13
q1 4 2.5 4.5t5.5 -1.5q77 -24 132 -59l124 65q6 3 7.5 3t3.5 -5l6 -13q2 -4 1.5 -6t-4.5 -4l-110 -58q172 -121 172 -348zM349 69.5q52 45.5 77 122t25 169.5q0 37 -4 65q-32 29 -67.5 43.5t-78.5 14.5q-65 0 -116.5 -39.5t-80.5 -104t-29 -135.5q0 -83 40 -132t103 -49
q79 0 131 45.5z" />
    <glyph glyph-name="dcaron" unicode="&#x10f;" horiz-adv-x="651" 
d="M440 112q-4 -40 -4 -47q0 -18 7.5 -25t28.5 -7q5 0 6 -1.5t0 -8.5l-1 -11q0 -5 -1 -7.5t-4 -3.5q-12 -2 -21 -2q-28 0 -41 16t-13 43q0 11 1 17q-28 -41 -73.5 -63t-101.5 -22q-88 0 -136 54.5t-48 153.5q0 92 35.5 170t99.5 124t146 46q39 0 74 -11.5t60 -34.5l37 259
q1 6 4.5 7.5t10.5 1.5h12q8 0 10.5 -2t1.5 -7zM449 453q-51 51 -130 51q-70 0 -124 -42t-83.5 -111.5t-29.5 -148.5q0 -86 40 -132t107 -46q34 0 67 12.5t59 37.5q20 19 31 39t19.5 55t17.5 101zM572.5 525.5q-2.5 -0.5 -5.5 3.5l-4 5q-3 4 -2.5 5.5t1.5 2.5l2 2
q21 15 43 41t22 48q0 11 -3 18t-9 16q-10 14 -10 27q0 17 11 26.5t25 9.5q18 0 27.5 -12t9.5 -33q0 -40 -29.5 -85t-71.5 -72q-4 -2 -6.5 -2.5z" />
    <glyph glyph-name="dcroat" unicode="&#x111;" horiz-adv-x="568" 
d="M570 656q1 -2 0 -7l-2 -13q-1 -8 -8 -8h-47l-73 -516q-4 -40 -4 -47q0 -18 7.5 -25t28.5 -7q5 0 6 -1.5t0 -8.5l-1 -11q0 -5 -1 -7.5t-4 -3.5q-12 -2 -21 -2q-28 0 -41 16t-13 43q0 11 1 17q-28 -41 -73.5 -63t-101.5 -22q-88 0 -136 54.5t-48 153.5q0 92 35.5 170
t99.5 124t146 46q39 0 74 -11.5t60 -34.5l20 136h-167q-6 0 -7 2t0 7l2 14q1 7 8 7h168l13 93q1 6 4.5 7.5t10.5 1.5h12q8 0 10.5 -2t1.5 -7l-13 -93h46q6 0 7 -2zM449 453q-51 51 -130 51q-70 0 -124 -42t-83.5 -111.5t-29.5 -148.5q0 -86 40 -132t107 -46q34 0 67 12.5
t59 37.5q20 19 31 39t19.5 55t17.5 101z" />
    <glyph glyph-name="e" unicode="e" horiz-adv-x="524" 
d="M444.5 481.5q42.5 -56.5 42.5 -149.5q0 -30 -5 -62q-1 -10 -4.5 -13t-11.5 -3l-376 -1q-4 -25 -4 -58q0 -83 43.5 -127t125.5 -44q71 0 144 34q1 1 3 1q4 0 5 -8l4 -15q1 -4 0.5 -5.5t-3.5 -3.5q-37 -18 -76 -27.5t-86 -9.5q-99 0 -151 54.5t-52 153.5q0 89 34 167
t96 125.5t143 47.5q86 0 128.5 -56.5zM446 336q0 73 -32 120.5t-100 47.5q-86 0 -142.5 -61t-76.5 -157l348 2q3 24 3 48z" />
    <glyph glyph-name="eacute" unicode="&#xe9;" horiz-adv-x="524" 
d="M444.5 481.5q42.5 -56.5 42.5 -149.5q0 -30 -5 -62q-1 -10 -4.5 -13t-11.5 -3l-376 -1q-4 -25 -4 -58q0 -83 43.5 -127t125.5 -44q71 0 144 34q1 1 3 1q4 0 5 -8l4 -15q1 -4 0.5 -5.5t-3.5 -3.5q-37 -18 -76 -27.5t-86 -9.5q-99 0 -151 54.5t-52 153.5q0 89 34 167
t96 125.5t143 47.5q86 0 128.5 -56.5zM446 336q0 73 -32 120.5t-100 47.5q-86 0 -142.5 -61t-76.5 -157l348 2q3 24 3 48zM279 590l65 95q4 6 8.5 7.5t15.5 1.5h10q14 0 17 -1.5t-1 -6.5l-86 -100q-4 -4 -16 -4h-5q-13 0 -8 8z" />
    <glyph glyph-name="ebreve" unicode="&#x115;" horiz-adv-x="524" 
d="M444.5 481.5q42.5 -56.5 42.5 -149.5q0 -30 -5 -62q-1 -10 -4.5 -13t-11.5 -3l-376 -1q-4 -25 -4 -58q0 -83 43.5 -127t125.5 -44q71 0 144 34q1 1 3 1q4 0 5 -8l4 -15q1 -4 0.5 -5.5t-3.5 -3.5q-37 -18 -76 -27.5t-86 -9.5q-99 0 -151 54.5t-52 153.5q0 89 34 167
t96 125.5t143 47.5q86 0 128.5 -56.5zM446 336q0 73 -32 120.5t-100 47.5q-86 0 -142.5 -61t-76.5 -157l348 2q3 24 3 48zM225.5 617q-33.5 28 -28.5 68q1 5 3.5 6t8.5 1h10q7 0 9 -1t2 -5q-1 -32 24.5 -50.5t61.5 -18.5q84 0 102 69q1 4 3 5t9 1h11q11 0 10 -6
q-6 -44 -43 -70.5t-93 -26.5t-89.5 28z" />
    <glyph glyph-name="ecaron" unicode="&#x11b;" horiz-adv-x="524" 
d="M444.5 481.5q42.5 -56.5 42.5 -149.5q0 -30 -5 -62q-1 -10 -4.5 -13t-11.5 -3l-376 -1q-4 -25 -4 -58q0 -83 43.5 -127t125.5 -44q71 0 144 34q1 1 3 1q4 0 5 -8l4 -15q1 -4 0.5 -5.5t-3.5 -3.5q-37 -18 -76 -27.5t-86 -9.5q-99 0 -151 54.5t-52 153.5q0 89 34 167
t96 125.5t143 47.5q86 0 128.5 -56.5zM446 336q0 73 -32 120.5t-100 47.5q-86 0 -142.5 -61t-76.5 -157l348 2q3 24 3 48zM460 687q0 -2 -3 -5l-111 -95q-6 -6 -11.5 -8t-14.5 -2h-16q-9 0 -13 2t-9 8l-84 96q-3 3 -3 5q0 3 5 7l4 4q4 4 6.5 4t6.5 -3l100 -95l124 95
q5 4 7 3.5t5 -4.5l4 -6q3 -4 3 -6z" />
    <glyph glyph-name="ecircumflex" unicode="&#xea;" horiz-adv-x="524" 
d="M444.5 481.5q42.5 -56.5 42.5 -149.5q0 -30 -5 -62q-1 -10 -4.5 -13t-11.5 -3l-376 -1q-4 -25 -4 -58q0 -83 43.5 -127t125.5 -44q71 0 144 34q1 1 3 1q4 0 5 -8l4 -15q1 -4 0.5 -5.5t-3.5 -3.5q-37 -18 -76 -27.5t-86 -9.5q-99 0 -151 54.5t-52 153.5q0 89 34 167
t96 125.5t143 47.5q86 0 128.5 -56.5zM446 336q0 73 -32 120.5t-100 47.5q-86 0 -142.5 -61t-76.5 -157l348 2q3 24 3 48zM460 602q1 -1 1 -3l-5 -7l-4 -4q-4 -4 -6.5 -4t-6.5 3l-98 95l-126 -95q-5 -4 -7 -3.5t-5 4.5l-5 6q-4 4 -3.5 6t3.5 5l112 95q6 6 11.5 8t14.5 2h16
q9 0 13 -2t9 -8l84 -96z" />
    <glyph glyph-name="edieresis" unicode="&#xeb;" horiz-adv-x="524" 
d="M444.5 481.5q42.5 -56.5 42.5 -149.5q0 -30 -5 -62q-1 -10 -4.5 -13t-11.5 -3l-376 -1q-4 -25 -4 -58q0 -83 43.5 -127t125.5 -44q71 0 144 34q1 1 3 1q4 0 5 -8l4 -15q1 -4 0.5 -5.5t-3.5 -3.5q-37 -18 -76 -27.5t-86 -9.5q-99 0 -151 54.5t-52 153.5q0 89 34 167
t96 125.5t143 47.5q86 0 128.5 -56.5zM446 336q0 73 -32 120.5t-100 47.5q-86 0 -142.5 -61t-76.5 -157l348 2q3 24 3 48zM203.5 614q-9.5 9 -9.5 24q0 18 13.5 31.5t30.5 13.5q13 0 23 -9.5t10 -23.5q0 -20 -13 -32.5t-31 -12.5q-14 0 -23.5 9zM394.5 614q-9.5 9 -9.5 24
q0 18 13.5 31.5t30.5 13.5q13 0 23 -9.5t10 -23.5q0 -20 -13 -32.5t-31 -12.5q-14 0 -23.5 9z" />
    <glyph glyph-name="edotaccent" unicode="&#x117;" horiz-adv-x="524" 
d="M444.5 481.5q42.5 -56.5 42.5 -149.5q0 -30 -5 -62q-1 -10 -4.5 -13t-11.5 -3l-376 -1q-4 -25 -4 -58q0 -83 43.5 -127t125.5 -44q71 0 144 34q1 1 3 1q4 0 5 -8l4 -15q1 -4 0.5 -5.5t-3.5 -3.5q-37 -18 -76 -27.5t-86 -9.5q-99 0 -151 54.5t-52 153.5q0 89 34 167
t96 125.5t143 47.5q86 0 128.5 -56.5zM446 336q0 73 -32 120.5t-100 47.5q-86 0 -142.5 -61t-76.5 -157l348 2q3 24 3 48zM298.5 614q-9.5 9 -9.5 24q0 18 13.5 31.5t30.5 13.5q13 0 23 -9.5t10 -23.5q0 -20 -13 -32.5t-31 -12.5q-14 0 -23.5 9z" />
    <glyph glyph-name="egrave" unicode="&#xe8;" horiz-adv-x="524" 
d="M444.5 481.5q42.5 -56.5 42.5 -149.5q0 -30 -5 -62q-1 -10 -4.5 -13t-11.5 -3l-376 -1q-4 -25 -4 -58q0 -83 43.5 -127t125.5 -44q71 0 144 34q1 1 3 1q4 0 5 -8l4 -15q1 -4 0.5 -5.5t-3.5 -3.5q-37 -18 -76 -27.5t-86 -9.5q-99 0 -151 54.5t-52 153.5q0 89 34 167
t96 125.5t143 47.5q86 0 128.5 -56.5zM446 336q0 73 -32 120.5t-100 47.5q-86 0 -142.5 -61t-76.5 -157l348 2q3 24 3 48zM322 588l-56 98q-1 1 -1 3q0 3 5.5 4t16.5 1h4q16 0 21 -1.5t7 -7.5l36 -97v-2q0 -4 -12 -4h-6q-11 0 -15 6z" />
    <glyph glyph-name="emacron" unicode="&#x113;" horiz-adv-x="524" 
d="M444.5 481.5q42.5 -56.5 42.5 -149.5q0 -30 -5 -62q-1 -10 -4.5 -13t-11.5 -3l-376 -1q-4 -25 -4 -58q0 -83 43.5 -127t125.5 -44q71 0 144 34q1 1 3 1q4 0 5 -8l4 -15q1 -4 0.5 -5.5t-3.5 -3.5q-37 -18 -76 -27.5t-86 -9.5q-99 0 -151 54.5t-52 153.5q0 89 34 167
t96 125.5t143 47.5q86 0 128.5 -56.5zM446 336q0 73 -32 120.5t-100 47.5q-86 0 -142.5 -61t-76.5 -157l348 2q3 24 3 48zM197 633q-1 2 0 8l2 14q1 8 8 8h248q6 0 7 -2t0 -8l-2 -14q-1 -8 -8 -8h-248q-6 0 -7 2z" />
    <glyph glyph-name="eogonek" unicode="&#x119;" horiz-adv-x="524" 
d="M444.5 481.5q42.5 -56.5 42.5 -149.5q0 -38 -6 -66q-2 -7 -4.5 -9.5t-10.5 -2.5l-376 -1q-4 -25 -4 -58q0 -83 43.5 -127t125.5 -44q71 0 144 34q1 1 3 1q4 0 5 -8l4 -15q0 -1 1 -4t-3 -5q-62 -34 -98.5 -80t-36.5 -97q0 -48 45 -48q11 0 25 3.5t21 6.5l4 1q2 0 1 -8
l-1 -6q-1 -5 -3 -8t-10 -6q-21 -10 -53 -10q-34 0 -52.5 19.5t-18.5 54.5q0 39 25.5 78t70.5 72q-37 -9 -82 -9q-99 0 -151 54.5t-52 153.5q0 89 34 167t96 125.5t143 47.5q86 0 128.5 -56.5zM446 336q0 73 -32 120.5t-100 47.5q-86 0 -142.5 -61t-76.5 -157l348 2
q3 24 3 48z" />
    <glyph glyph-name="f" unicode="f" horiz-adv-x="313" 
d="M443.5 767.5q0.5 -1.5 -1.5 -5.5l-9 -17q-4 -6 -10 -3q-30 13 -67 13q-73 0 -108 -45t-50 -151l-4 -31h124q6 0 7 -2t0 -8l-2 -16q-1 -4 -2.5 -5.5t-5.5 -1.5h-126l-100 -723q-1 -6 -4 -7.5t-11 -1.5h-11q-13 0 -12 9l100 723h-64q-6 0 -7 1.5t0 7.5l2 16q1 8 8 8h66
l6 43q16 112 63.5 164t136.5 52q39 0 77 -16q4 -2 4.5 -3.5z" />
    <glyph glyph-name="g" unicode="g" horiz-adv-x="565" 
d="M514.5 526q2.5 -2 1.5 -8l-10 -80q-11 -108 -23 -188l-19 -137q-12 -83 -21.5 -129t-25 -86t-42.5 -72q-31 -36 -82.5 -56t-108.5 -20q-65 0 -119 26q-3 2 -3.5 4t1.5 6l8 16q2 4 4 5t6 0q51 -23 105 -23q110 0 163 65q27 33 41 77.5t26 124.5l3 18q-35 -34 -80 -51.5
t-94 -17.5q-92 0 -139.5 58t-47.5 147q0 85 34 162t95 124t140 47q50 0 88.5 -21t53.5 -62l7 67q1 4 4 5t13 1h10q9 0 11.5 -2zM457 368q0 29 -8 55q-13 36 -42.5 58.5t-80.5 22.5q-67 0 -118 -43.5t-78 -113t-27 -143.5q0 -78 39.5 -123.5t107.5 -45.5q49 0 94 20.5
t81 59.5l22 153q10 74 10 100z" />
    <glyph glyph-name="gbreve" unicode="&#x11f;" horiz-adv-x="565" 
d="M514.5 526q2.5 -2 1.5 -8l-10 -80q-11 -108 -23 -188l-19 -137q-12 -83 -21.5 -129t-25 -86t-42.5 -72q-31 -36 -82.5 -56t-108.5 -20q-65 0 -119 26q-3 2 -3.5 4t1.5 6l8 16q2 4 4 5t6 0q51 -23 105 -23q110 0 163 65q27 33 41 77.5t26 124.5l3 18q-35 -34 -80 -51.5
t-94 -17.5q-92 0 -139.5 58t-47.5 147q0 85 34 162t95 124t140 47q50 0 88.5 -21t53.5 -62l7 67q1 4 4 5t13 1h10q9 0 11.5 -2zM457 368q0 29 -8 55q-13 36 -42.5 58.5t-80.5 22.5q-67 0 -118 -43.5t-78 -113t-27 -143.5q0 -78 39.5 -123.5t107.5 -45.5q49 0 94 20.5
t81 59.5l22 153q10 74 10 100zM240.5 617q-33.5 28 -28.5 68q1 5 3.5 6t8.5 1h10q7 0 9 -1t2 -5q-1 -32 24.5 -50.5t61.5 -18.5q84 0 102 69q1 4 3 5t9 1h11q11 0 10 -6q-6 -44 -43 -70.5t-93 -26.5t-89.5 28z" />
    <glyph glyph-name="gcircumflex" unicode="&#x11d;" horiz-adv-x="565" 
d="M514.5 526q2.5 -2 1.5 -8l-10 -80q-11 -108 -23 -188l-19 -137q-12 -83 -21.5 -129t-25 -86t-42.5 -72q-31 -36 -82.5 -56t-108.5 -20q-65 0 -119 26q-3 2 -3.5 4t1.5 6l8 16q2 4 4 5t6 0q51 -23 105 -23q110 0 163 65q27 33 41 77.5t26 124.5l3 18q-35 -34 -80 -51.5
t-94 -17.5q-92 0 -139.5 58t-47.5 147q0 85 34 162t95 124t140 47q50 0 88.5 -21t53.5 -62l7 67q1 4 4 5t13 1h10q9 0 11.5 -2zM457 368q0 29 -8 55q-13 36 -42.5 58.5t-80.5 22.5q-67 0 -118 -43.5t-78 -113t-27 -143.5q0 -78 39.5 -123.5t107.5 -45.5q49 0 94 20.5
t81 59.5l22 153q10 74 10 100zM475 602q1 -1 1 -3l-5 -7l-4 -4q-4 -4 -6.5 -4t-6.5 3l-98 95l-126 -95q-5 -4 -7 -3.5t-5 4.5l-5 6q-4 4 -3.5 6t3.5 5l112 95q6 6 11.5 8t14.5 2h16q9 0 13 -2t9 -8l84 -96z" />
    <glyph glyph-name="gcommaaccent" unicode="&#x123;" horiz-adv-x="565" 
d="M309.5 606q-9.5 12 -9.5 33q0 40 29.5 85t71.5 72q4 3 6.5 3t5.5 -4l4 -5q3 -4 2.5 -5.5t-1.5 -2.5l-2 -2q-21 -15 -43 -41t-22 -48q0 -11 3 -18t9 -16q10 -14 10 -27q0 -17 -11 -26.5t-25 -9.5q-18 0 -27.5 12zM514.5 526q2.5 -2 1.5 -8l-10 -80q-11 -108 -23 -188
l-19 -137q-12 -83 -21.5 -129t-25 -86t-42.5 -72q-31 -36 -82.5 -56t-108.5 -20q-65 0 -119 26q-3 2 -3.5 4t1.5 6l8 16q2 4 4 5t6 0q51 -23 105 -23q110 0 163 65q27 33 41 77.5t26 124.5l3 18q-35 -34 -80 -51.5t-94 -17.5q-92 0 -139.5 58t-47.5 147q0 85 34 162t95 124
t140 47q50 0 88.5 -21t53.5 -62l7 67q1 4 4 5t13 1h10q9 0 11.5 -2zM457 368q0 29 -8 55q-13 36 -42.5 58.5t-80.5 22.5q-67 0 -118 -43.5t-78 -113t-27 -143.5q0 -78 39.5 -123.5t107.5 -45.5q49 0 94 20.5t81 59.5l22 153q10 74 10 100z" />
    <glyph glyph-name="gdotaccent" unicode="&#x121;" horiz-adv-x="565" 
d="M514.5 526q2.5 -2 1.5 -8l-10 -80q-11 -108 -23 -188l-19 -137q-12 -83 -21.5 -129t-25 -86t-42.5 -72q-31 -36 -82.5 -56t-108.5 -20q-65 0 -119 26q-3 2 -3.5 4t1.5 6l8 16q2 4 4 5t6 0q51 -23 105 -23q110 0 163 65q27 33 41 77.5t26 124.5l3 18q-35 -34 -80 -51.5
t-94 -17.5q-92 0 -139.5 58t-47.5 147q0 85 34 162t95 124t140 47q50 0 88.5 -21t53.5 -62l7 67q1 4 4 5t13 1h10q9 0 11.5 -2zM457 368q0 29 -8 55q-13 36 -42.5 58.5t-80.5 22.5q-67 0 -118 -43.5t-78 -113t-27 -143.5q0 -78 39.5 -123.5t107.5 -45.5q49 0 94 20.5
t81 59.5l22 153q10 74 10 100zM313.5 614q-9.5 9 -9.5 24q0 18 13.5 31.5t30.5 13.5q13 0 23 -9.5t10 -23.5q0 -20 -13 -32.5t-31 -12.5q-14 0 -23.5 9z" />
    <glyph glyph-name="h" unicode="h" horiz-adv-x="569" 
d="M494.5 450q10.5 -27 10.5 -58q0 -45 -6 -86l-42 -297q-1 -6 -4 -7.5t-11 -1.5h-12q-13 0 -12 9l36 257q12 84 12 112q0 58 -32 90q-35 35 -96 35q-97 0 -153 -59q-33 -34 -46.5 -84.5t-30.5 -171.5l-25 -179q-1 -6 -4 -7.5t-11 -1.5h-12q-13 0 -12 9l104 742q1 6 4.5 7.5
t10.5 1.5h12q8 0 10.5 -2t1.5 -7l-42 -305q70 92 196 92q75 0 123 -43q20 -18 30.5 -45z" />
    <glyph glyph-name="hbar" unicode="&#x127;" horiz-adv-x="566" 
d="M494.5 450q10.5 -27 10.5 -58q0 -45 -6 -86l-42 -297q-1 -6 -4 -7.5t-11 -1.5h-12q-13 0 -12 9l36 257q12 84 12 112q0 58 -32 90q-35 35 -96 35q-97 0 -153 -59q-33 -34 -46.5 -84.5t-30.5 -171.5l-25 -179q-1 -6 -4 -7.5t-11 -1.5h-12q-13 0 -12 9l87 620h-56
q-6 0 -7 1.5t0 7.5l2 13q1 8 8 8h57l13 92q1 6 4.5 7.5t10.5 1.5h12q8 0 10.5 -2t1.5 -7l-13 -92h156q6 0 7 -2t0 -8l-2 -13q-1 -7 -8 -7h-157l-25 -183q70 92 196 92q75 0 123 -43q20 -18 30.5 -45z" />
    <glyph glyph-name="hcircumflex" unicode="&#x125;" horiz-adv-x="569" 
d="M494.5 450q10.5 -27 10.5 -58q0 -45 -6 -86l-42 -297q-1 -6 -4 -7.5t-11 -1.5h-12q-13 0 -12 9l36 257q12 84 12 112q0 58 -32 90q-35 35 -96 35q-97 0 -153 -59q-33 -34 -46.5 -84.5t-30.5 -171.5l-25 -179q-1 -6 -4 -7.5t-11 -1.5h-12q-13 0 -12 9l104 742q1 6 4.5 7.5
t10.5 1.5h12q8 0 10.5 -2t1.5 -7l-42 -305q70 92 196 92q75 0 123 -43q20 -18 30.5 -45zM300 772q0 -2 -5 -7l-4 -4q-4 -4 -6.5 -4t-6.5 3l-99 94l-127 -91q-5 -4 -7 -3.5t-5 4.5l-4 5q-4 4 -3.5 6t3.5 5l112 92q6 6 11.5 8t14.5 2h16q9 0 13 -2t9 -8l85 -95q3 -3 3 -5z" />
    <glyph glyph-name="i" unicode="i" horiz-adv-x="203" 
d="M127.5 669.5q-9.5 9.5 -9.5 25.5q0 19 13 31t29 12q15 0 24.5 -10.5t9.5 -26.5q0 -19 -12.5 -30t-28.5 -11t-25.5 9.5zM41 9l71 510q1 6 4.5 7.5t10.5 1.5h12q13 0 12 -9l-71 -510q-1 -6 -4 -7.5t-11 -1.5h-12q-13 0 -12 9z" />
    <glyph glyph-name="dotlessi" unicode="&#x131;" horiz-adv-x="205" 
d="M41 9l71 510q1 6 4.5 7.5t10.5 1.5h12q13 0 12 -9l-71 -510q-1 -6 -4 -7.5t-11 -1.5h-12q-13 0 -12 9z" />
    <glyph glyph-name="iacute" unicode="&#xed;" horiz-adv-x="205" 
d="M41 9l71 510q1 6 4.5 7.5t10.5 1.5h12q13 0 12 -9l-71 -510q-1 -6 -4 -7.5t-11 -1.5h-12q-13 0 -12 9zM99 590l65 95q4 6 8.5 7.5t15.5 1.5h10q14 0 17 -1.5t-1 -6.5l-86 -100q-4 -4 -16 -4h-5q-13 0 -8 8z" />
    <glyph glyph-name="iacute_j.loclNLD" horiz-adv-x="435" 
d="M41 9l71 510q1 6 4.5 7.5t10.5 1.5h12q13 0 12 -9l-71 -510q-1 -6 -4 -7.5t-11 -1.5h-12q-13 0 -12 9zM99 590l65 95q4 6 8.5 7.5t15.5 1.5h10q14 0 17 -1.5t-1 -6.5l-86 -100q-4 -4 -16 -4h-5q-13 0 -8 8zM67 -242q-1 1 -4 2t-3 3t3 10l3 8q3 8 5 9.5t9 -0.5
q18 -6 40 -6q69 0 104.5 46.5t51.5 159.5l74 529q1 6 4.5 7.5t10.5 1.5h12q13 0 12 -9l-74 -533q-18 -129 -66.5 -182.5t-129.5 -53.5q-32 0 -52 8zM338 590l65 95q4 6 8.5 7.5t15.5 1.5h10q14 0 17 -1.5t-1 -6.5l-86 -100q-4 -4 -16 -4h-5q-13 0 -8 8z" />
    <glyph glyph-name="ibreve" unicode="&#x12d;" horiz-adv-x="205" 
d="M41 9l71 510q1 6 4.5 7.5t10.5 1.5h12q13 0 12 -9l-71 -510q-1 -6 -4 -7.5t-11 -1.5h-12q-13 0 -12 9zM45.5 617q-33.5 28 -28.5 68q1 5 3.5 6t8.5 1h10q7 0 9 -1t2 -5q-1 -32 24.5 -50.5t61.5 -18.5q84 0 102 69q1 4 3 5t9 1h11q11 0 10 -6q-6 -44 -43 -70.5t-93 -26.5
t-89.5 28z" />
    <glyph glyph-name="icircumflex" unicode="&#xee;" horiz-adv-x="205" 
d="M41 9l71 510q1 6 4.5 7.5t10.5 1.5h12q13 0 12 -9l-71 -510q-1 -6 -4 -7.5t-11 -1.5h-12q-13 0 -12 9zM280 602q1 -1 1 -3l-5 -7l-4 -4q-4 -4 -6.5 -4t-6.5 3l-98 95l-126 -95q-5 -4 -7 -3.5t-5 4.5l-5 6q-4 4 -3.5 6t3.5 5l112 95q6 6 11.5 8t14.5 2h16q9 0 13 -2t9 -8
l84 -96z" />
    <glyph glyph-name="idieresis" unicode="&#xef;" horiz-adv-x="205" 
d="M41 9l71 510q1 6 4.5 7.5t10.5 1.5h12q13 0 12 -9l-71 -510q-1 -6 -4 -7.5t-11 -1.5h-12q-13 0 -12 9zM23.5 614q-9.5 9 -9.5 24q0 18 13.5 31.5t30.5 13.5q13 0 23 -9.5t10 -23.5q0 -20 -13 -32.5t-31 -12.5q-14 0 -23.5 9zM214.5 614q-9.5 9 -9.5 24q0 18 13.5 31.5
t30.5 13.5q13 0 23 -9.5t10 -23.5q0 -20 -13 -32.5t-31 -12.5q-14 0 -23.5 9z" />
    <glyph glyph-name="i.loclTRK" horiz-adv-x="205" 
d="M41 9l71 510q1 6 4.5 7.5t10.5 1.5h12q13 0 12 -9l-71 -510q-1 -6 -4 -7.5t-11 -1.5h-12q-13 0 -12 9zM118.5 614q-9.5 9 -9.5 24q0 18 13.5 31.5t30.5 13.5q13 0 23 -9.5t10 -23.5q0 -20 -13 -32.5t-31 -12.5q-14 0 -23.5 9z" />
    <glyph glyph-name="igrave" unicode="&#xec;" horiz-adv-x="205" 
d="M41 9l71 510q1 6 4.5 7.5t10.5 1.5h12q13 0 12 -9l-71 -510q-1 -6 -4 -7.5t-11 -1.5h-12q-13 0 -12 9zM142 588l-56 98q-1 1 -1 3q0 3 5.5 4t16.5 1h4q16 0 21 -1.5t7 -7.5l36 -97v-2q0 -4 -12 -4h-6q-11 0 -15 6z" />
    <glyph glyph-name="ij" unicode="&#x133;" horiz-adv-x="428" 
d="M127.5 669.5q-9.5 9.5 -9.5 25.5q0 19 13 31t29 12q15 0 24.5 -10.5t9.5 -26.5q0 -19 -12.5 -30t-28.5 -11t-25.5 9.5zM41 9l71 510q1 6 4.5 7.5t10.5 1.5h12q13 0 12 -9l-71 -510q-1 -6 -4 -7.5t-11 -1.5h-12q-13 0 -12 9zM352.5 669.5q-9.5 9.5 -9.5 25.5q0 19 13 31
t29 12q15 0 24.5 -10.5t9.5 -26.5q0 -19 -12.5 -30t-28.5 -11t-25.5 9.5zM54 -242q-1 1 -4 2t-3 3t3 10l3 8q3 8 5 9.5t9 -0.5q18 -6 40 -6q69 0 104.5 46.5t51.5 159.5l74 529q1 6 4.5 7.5t10.5 1.5h12q13 0 12 -9l-74 -533q-18 -129 -66.5 -182.5t-129.5 -53.5
q-32 0 -52 8z" />
    <glyph glyph-name="imacron" unicode="&#x12b;" horiz-adv-x="205" 
d="M41 9l71 510q1 6 4.5 7.5t10.5 1.5h12q13 0 12 -9l-71 -510q-1 -6 -4 -7.5t-11 -1.5h-12q-13 0 -12 9zM17 633q-1 2 0 8l2 14q1 8 8 8h248q6 0 7 -2t0 -8l-2 -14q-1 -8 -8 -8h-248q-6 0 -7 2z" />
    <glyph glyph-name="iogonek" unicode="&#x12f;" horiz-adv-x="203" 
d="M187.5 747.5q9.5 -10.5 9.5 -26.5q0 -19 -12.5 -30t-28.5 -11t-25.5 9.5t-9.5 25.5q0 19 13 31t29 12q15 0 24.5 -10.5zM151 519l-71 -507q-1 -8 -5 -13t-12 -12q-34 -34 -52 -65t-18 -69q0 -51 45 -51q11 0 25 3.5t21 6.5l4 1q2 0 1 -8l-1 -6q-1 -5 -3 -8t-10 -6
q-21 -10 -53 -10q-34 0 -52.5 19.5t-18.5 56.5q0 33 25 73.5t64 75.5l72 519q1 6 4.5 7.5t10.5 1.5h12q13 0 12 -9z" />
    <glyph glyph-name="itilde" unicode="&#x129;" horiz-adv-x="205" 
d="M41 9l71 510q1 6 4.5 7.5t10.5 1.5h12q13 0 12 -9l-71 -510q-1 -6 -4 -7.5t-11 -1.5h-12q-13 0 -12 9zM175 626q-14 5 -33 15q-17 9 -30.5 14t-29.5 5q-14 0 -26 -6t-33 -23q-4 -4 -8 2l-7 9q-3 4 -2 5.5t4 4.5q13 15 35 26t46 11q19 0 34.5 -5t32.5 -15t30 -14.5
t29 -4.5q14 0 26 6t33 23q4 4 8 -2l7 -9q3 -4 2 -5.5t-4 -4.5q-13 -15 -35 -26t-46 -11q-19 0 -33 5z" />
    <glyph glyph-name="j" unicode="j" horiz-adv-x="235" 
d="M159.5 669.5q-9.5 9.5 -9.5 25.5q0 19 13 31t29 12q15 0 24.5 -10.5t9.5 -26.5q0 -19 -12.5 -30t-28.5 -11t-25.5 9.5zM-139 -242q-1 1 -4 2t-3 3t3 10l3 8q3 8 5 9.5t9 -0.5q18 -6 40 -6q69 0 104.5 46.5t51.5 159.5l74 529q1 6 4.5 7.5t10.5 1.5h12q13 0 12 -9
l-74 -533q-18 -129 -66.5 -182.5t-129.5 -53.5q-32 0 -52 8z" />
    <glyph glyph-name="uni0237" unicode="&#x237;" horiz-adv-x="230" 
d="M-138 -242q-1 1 -4 2t-3 3t3 10l3 8q3 8 5 9.5t9 -0.5q18 -6 40 -6q69 0 104.5 46.5t51.5 159.5l74 529q1 6 4.5 7.5t10.5 1.5h12q13 0 12 -9l-74 -533q-18 -129 -66.5 -182.5t-129.5 -53.5q-32 0 -52 8z" />
    <glyph glyph-name="jcircumflex" unicode="&#x135;" horiz-adv-x="230" 
d="M-138 -242q-1 1 -4 2t-3 3t3 10l3 8q3 8 5 9.5t9 -0.5q18 -6 40 -6q69 0 104.5 46.5t51.5 159.5l74 529q1 6 4.5 7.5t10.5 1.5h12q13 0 12 -9l-74 -533q-18 -129 -66.5 -182.5t-129.5 -53.5q-32 0 -52 8zM314 602q1 -1 1 -3l-5 -7l-4 -4q-4 -4 -6.5 -4t-6.5 3l-98 95
l-126 -95q-5 -4 -7 -3.5t-5 4.5l-5 6q-4 4 -3.5 6t3.5 5l112 95q6 6 11.5 8t14.5 2h16q9 0 13 -2t9 -8l84 -96z" />
    <glyph glyph-name="k" unicode="k" horiz-adv-x="470" 
d="M356.5 422.5q-41.5 -42.5 -98.5 -93.5l134 -319l2 -6q0 -4 -15 -4h-10q-10 0 -13.5 2t-5.5 8l-123 292l-110 -86l-29 -207q-1 -6 -4 -7.5t-11 -1.5h-12q-13 0 -12 9l104 742q1 6 4.5 7.5t10.5 1.5h12q8 0 10.5 -2t1.5 -7l-69 -489l79 62q86 68 202 197q4 5 7.5 6t14.5 1
h14q5 0 8.5 -0.5t3.5 -2.5l-5 -7q-49 -53 -90.5 -95.5z" />
    <glyph glyph-name="kcommaaccent" unicode="&#x137;" horiz-adv-x="470" 
d="M356.5 422.5q-41.5 -42.5 -98.5 -93.5l134 -319l2 -6q0 -4 -15 -4h-10q-10 0 -13.5 2t-5.5 8l-123 292l-110 -86l-29 -207q-1 -6 -4 -7.5t-11 -1.5h-12q-13 0 -12 9l104 742q1 6 4.5 7.5t10.5 1.5h12q8 0 10.5 -2t1.5 -7l-69 -489l79 62q86 68 202 197q4 5 7.5 6t14.5 1
h14q5 0 8.5 -0.5t3.5 -2.5l-5 -7q-49 -53 -90.5 -95.5zM142.5 -255.5q-2.5 -0.5 -5.5 3.5l-4 5q-3 4 -2.5 5.5t1.5 2.5l2 2q21 15 43 41t22 48q0 11 -3 18t-9 16q-10 14 -10 27q0 17 11 26.5t25 9.5q18 0 27.5 -12t9.5 -33q0 -40 -29.5 -85t-71.5 -72q-4 -2 -6.5 -2.5z" />
    <glyph glyph-name="kgreenlandic" unicode="&#x138;" horiz-adv-x="452" 
d="M340.5 422.5q-41.5 -42.5 -98.5 -93.5l134 -319l2 -6q0 -4 -15 -4h-10q-10 0 -13.5 2t-5.5 8l-123 292l-111 -87l-28 -206q-1 -6 -4 -7.5t-11 -1.5h-12q-13 0 -12 9l70 510q1 6 4.5 7.5t10.5 1.5h12q8 0 10.5 -2t1.5 -7l-35 -258l79 63q86 68 202 197q4 5 7.5 6t14.5 1
h14q5 0 8.5 -0.5t3.5 -2.5l-5 -7q-49 -53 -90.5 -95.5z" />
    <glyph glyph-name="l" unicode="l" horiz-adv-x="231" 
d="M73 14q-14 18 -14 47q0 15 6 67l50 359q23 163 34 266q1 5 3.5 6t12.5 1h9q8 0 10.5 -2t1.5 -7q-9 -84 -37 -290l-50 -360q-3 -21 -3 -35q0 -20 6.5 -28t22.5 -8q9 0 23 4h2q2 0 5 -9l3 -13l1 -4q0 -3 -2.5 -4.5t-7.5 -2.5q-15 -5 -34 -5q-28 0 -42 18z" />
    <glyph glyph-name="lacute" unicode="&#x13a;" horiz-adv-x="231" 
d="M73 14q-14 18 -14 47q0 15 6 67l50 359q23 163 34 266q1 5 3.5 6t12.5 1h9q8 0 10.5 -2t1.5 -7q-9 -84 -37 -290l-50 -360q-3 -21 -3 -35q0 -20 6.5 -28t22.5 -8q9 0 23 4h2q2 0 5 -9l3 -13l1 -4q0 -3 -2.5 -4.5t-7.5 -2.5q-15 -5 -34 -5q-28 0 -42 18zM125 806l65 95
q4 6 8.5 7.5t15.5 1.5h10q14 0 17 -1.5t-1 -6.5l-86 -100q-4 -4 -16 -4h-5q-13 0 -8 8z" />
    <glyph glyph-name="lcaron" unicode="&#x13e;" horiz-adv-x="286" 
d="M73 14q-14 18 -14 47q0 15 6 67l50 359q23 163 34 266q1 5 3.5 6t12.5 1h9q8 0 10.5 -2t1.5 -7q-9 -84 -37 -290l-50 -360q-3 -21 -3 -35q0 -20 6.5 -28t22.5 -8q9 0 23 4h2q2 0 5 -9l3 -13l1 -4q0 -3 -2.5 -4.5t-7.5 -2.5q-15 -5 -34 -5q-28 0 -42 18zM207.5 525.5
q-2.5 -0.5 -5.5 3.5l-4 5q-3 4 -2.5 5.5t1.5 2.5l2 2q21 15 43 41t22 48q0 11 -3 18t-9 16q-10 14 -10 27q0 17 11 26.5t25 9.5q18 0 27.5 -12t9.5 -33q0 -40 -29.5 -85t-71.5 -72q-4 -2 -6.5 -2.5z" />
    <glyph glyph-name="lcommaaccent" unicode="&#x13c;" horiz-adv-x="231" 
d="M73 14q-14 18 -14 47q0 15 6 67l50 359q23 163 34 266q1 5 3.5 6t12.5 1h9q8 0 10.5 -2t1.5 -7q-9 -84 -37 -290l-50 -360q-3 -21 -3 -35q0 -20 6.5 -28t22.5 -8q9 0 23 4h2q2 0 5 -9l3 -13l1 -4q0 -3 -2.5 -4.5t-7.5 -2.5q-15 -5 -34 -5q-28 0 -42 18zM-0.5 -255.5
q-2.5 -0.5 -5.5 3.5l-4 5q-3 4 -2.5 5.5t1.5 2.5l2 2q21 15 43 41t22 48q0 11 -3 18t-9 16q-10 14 -10 27q0 17 11 26.5t25 9.5q18 0 27.5 -12t9.5 -33q0 -40 -29.5 -85t-71.5 -72q-4 -2 -6.5 -2.5z" />
    <glyph glyph-name="ldot" unicode="&#x140;" horiz-adv-x="247" 
d="M73 14q-14 18 -14 47q0 15 6 67l50 359q23 163 34 266q1 5 3.5 6t12.5 1h9q8 0 10.5 -2t1.5 -7q-9 -84 -37 -290l-50 -360q-3 -21 -3 -35q0 -20 6.5 -28t22.5 -8q9 0 23 4h2q2 0 5 -9l3 -13l1 -4q0 -3 -2.5 -4.5t-7.5 -2.5q-15 -5 -34 -5q-28 0 -42 18zM183.5 320
q-9.5 9 -9.5 24q0 18 13.5 31.5t30.5 13.5q13 0 23 -9.5t10 -23.5q0 -20 -13 -32.5t-31 -12.5q-14 0 -23.5 9z" />
    <glyph glyph-name="lslash" unicode="&#x142;" horiz-adv-x="240" 
d="M217 471q3 0 2 -7l-3 -20q-1 -6 -3 -8t-3 -2l-67 -54l-39 -279q-3 -21 -3 -35q0 -20 6.5 -28t22.5 -8q9 0 23 4h2q2 0 5 -9l3 -13l1 -4q0 -3 -2.5 -4.5t-7.5 -2.5q-15 -5 -34 -5q-28 0 -42 18t-14 47q0 15 6 67l30 218l-58 -47q-7 -6 -10 -6t-2 7l3 20q1 6 3 8t3 2l67 54
l14 103q23 163 34 266q1 5 3.5 6t12.5 1h9q8 0 10.5 -2t1.5 -7q-9 -84 -37 -290l-6 -43l59 47q7 6 10 6z" />
    <glyph glyph-name="m" unicode="m" horiz-adv-x="919" 
d="M855 388q0 -41 -6 -82l-42 -297q-1 -6 -4 -7.5t-11 -1.5h-11q-13 0 -12 9l36 257q11 77 11 112q0 33 -7 55t-22 37q-31 34 -96 34q-87 0 -144 -60q-30 -32 -42.5 -73t-27.5 -138l-32 -224q-1 -6 -4 -7.5t-11 -1.5h-11q-13 0 -12 9l37 257q10 73 10 103q0 68 -29 100
q-32 35 -93 35q-47 0 -82.5 -15t-64.5 -45q-32 -34 -46 -85t-31 -171l-25 -179q-1 -6 -4 -7.5t-11 -1.5h-11q-13 0 -12 9l58 417q2 9 3 17t2 15l10 64q1 4 4.5 5t12.5 1h7q10 0 12.5 -2t1.5 -8l-10 -71q67 91 190 91q77 0 119 -42q29 -29 35 -72q68 114 206 114
q74 0 120 -41q39 -36 39 -109z" />
    <glyph glyph-name="n" unicode="n" horiz-adv-x="570" 
d="M45 9l58 417q2 9 3 17t2 15l10 64q1 4 4.5 5t12.5 1h8q10 0 12.5 -2t1.5 -8l-10 -71q69 91 195 91q75 0 123 -43q41 -38 41 -107q0 -41 -6 -82l-42 -297q-1 -6 -4 -7.5t-11 -1.5h-12q-13 0 -12 9l36 257q12 84 12 112q0 58 -32 90q-36 36 -97 36q-95 0 -152 -60
q-33 -34 -46.5 -84.5t-30.5 -171.5l-25 -179q-1 -6 -4 -7.5t-11 -1.5h-12q-13 0 -12 9z" />
    <glyph glyph-name="nacute" unicode="&#x144;" horiz-adv-x="570" 
d="M45 9l58 417q2 9 3 17t2 15l10 64q1 4 4.5 5t12.5 1h8q10 0 12.5 -2t1.5 -8l-10 -71q69 91 195 91q75 0 123 -43q41 -38 41 -107q0 -41 -6 -82l-42 -297q-1 -6 -4 -7.5t-11 -1.5h-12q-13 0 -12 9l36 257q12 84 12 112q0 58 -32 90q-36 36 -97 36q-95 0 -152 -60
q-33 -34 -46.5 -84.5t-30.5 -171.5l-25 -179q-1 -6 -4 -7.5t-11 -1.5h-12q-13 0 -12 9zM313 590l65 95q4 6 8.5 7.5t15.5 1.5h10q14 0 17 -1.5t-1 -6.5l-86 -100q-4 -4 -16 -4h-5q-13 0 -8 8z" />
    <glyph glyph-name="nacute.loclPLK" horiz-adv-x="570" 
d="M45 9l58 417q2 9 3 17t2 15l10 64q1 4 4.5 5t12.5 1h8q10 0 12.5 -2t1.5 -8l-10 -71q69 91 195 91q75 0 123 -43q41 -38 41 -107q0 -41 -6 -82l-42 -297q-1 -6 -4 -7.5t-11 -1.5h-12q-13 0 -12 9l36 257q12 84 12 112q0 58 -32 90q-36 36 -97 36q-95 0 -152 -60
q-33 -34 -46.5 -84.5t-30.5 -171.5l-25 -179q-1 -6 -4 -7.5t-11 -1.5h-12q-13 0 -12 9zM329 588l31 96q2 7 5.5 8.5t14.5 1.5h12q13 0 15.5 -1t0.5 -6l-48 -98q-4 -7 -12 -7h-9q-12 0 -10 6z" />
    <glyph glyph-name="napostrophe" unicode="&#x149;" horiz-adv-x="593" 
d="M70 9l58 417q2 9 3 17t2 15l10 64q1 4 4.5 5t12.5 1h8q10 0 12.5 -2t1.5 -8l-10 -71q69 91 195 91q75 0 123 -43q41 -38 41 -107q0 -41 -6 -82l-42 -297q-1 -6 -4 -7.5t-11 -1.5h-12q-13 0 -12 9l36 257q12 84 12 112q0 58 -32 90q-36 36 -97 36q-95 0 -152 -60
q-33 -34 -46.5 -84.5t-30.5 -171.5l-25 -179q-1 -6 -4 -7.5t-11 -1.5h-12q-13 0 -12 9zM12 498q-2 3 -1.5 4.5t3.5 3.5q42 30 63 57.5t21 58.5q0 13 -3 21.5t-10 20.5q-10 16 -10 28q0 17 11 28t27 11q18 0 27.5 -12t9.5 -36q0 -47 -29 -96t-94 -96q-4 -3 -6 -3.5t-4 3.5z
" />
    <glyph glyph-name="ncaron" unicode="&#x148;" horiz-adv-x="570" 
d="M45 9l58 417q2 9 3 17t2 15l10 64q1 4 4.5 5t12.5 1h8q10 0 12.5 -2t1.5 -8l-10 -71q69 91 195 91q75 0 123 -43q41 -38 41 -107q0 -41 -6 -82l-42 -297q-1 -6 -4 -7.5t-11 -1.5h-12q-13 0 -12 9l36 257q12 84 12 112q0 58 -32 90q-36 36 -97 36q-95 0 -152 -60
q-33 -34 -46.5 -84.5t-30.5 -171.5l-25 -179q-1 -6 -4 -7.5t-11 -1.5h-12q-13 0 -12 9zM494 687q0 -2 -3 -5l-111 -95q-6 -6 -11.5 -8t-14.5 -2h-16q-9 0 -13 2t-9 8l-84 96q-3 3 -3 5q0 3 5 7l4 4q4 4 6.5 4t6.5 -3l100 -95l124 95q5 4 7 3.5t5 -4.5l4 -6q3 -4 3 -6z" />
    <glyph glyph-name="ncommaaccent" unicode="&#x146;" horiz-adv-x="570" 
d="M45 9l58 417q2 9 3 17t2 15l10 64q1 4 4.5 5t12.5 1h8q10 0 12.5 -2t1.5 -8l-10 -71q69 91 195 91q75 0 123 -43q41 -38 41 -107q0 -41 -6 -82l-42 -297q-1 -6 -4 -7.5t-11 -1.5h-12q-13 0 -12 9l36 257q12 84 12 112q0 58 -32 90q-36 36 -97 36q-95 0 -152 -60
q-33 -34 -46.5 -84.5t-30.5 -171.5l-25 -179q-1 -6 -4 -7.5t-11 -1.5h-12q-13 0 -12 9zM178.5 -255.5q-2.5 -0.5 -5.5 3.5l-4 5q-3 4 -2.5 5.5t1.5 2.5l2 2q21 15 43 41t22 48q0 11 -3 18t-9 16q-10 14 -10 27q0 17 11 26.5t25 9.5q18 0 27.5 -12t9.5 -33q0 -40 -29.5 -85
t-71.5 -72q-4 -2 -6.5 -2.5z" />
    <glyph glyph-name="eng" unicode="&#x14b;" horiz-adv-x="570" 
d="M214 -192q-1 1 -4 2t-3 3t3 10l3 8q3 8 5 9.5t9 -0.5q18 -6 40 -6q47 0 77 18.5t48.5 63t30.5 124.5l32 226q12 84 12 112q0 58 -32 90q-36 36 -97 36q-95 0 -152 -60q-33 -34 -46.5 -84.5t-30.5 -171.5l-25 -179q-1 -6 -4 -7.5t-11 -1.5h-12q-13 0 -12 9l58 417
q2 9 3 17t2 15l10 64q1 4 4.5 5t12.5 1h8q10 0 12.5 -2t1.5 -8l-10 -71q69 91 195 91q75 0 123 -43q41 -38 41 -107q0 -41 -6 -82l-38 -270q-18 -129 -66 -182.5t-130 -53.5q-32 0 -52 8z" />
    <glyph glyph-name="ntilde" unicode="&#xf1;" horiz-adv-x="570" 
d="M45 9l58 417q2 9 3 17t2 15l10 64q1 4 4.5 5t12.5 1h8q10 0 12.5 -2t1.5 -8l-10 -71q69 91 195 91q75 0 123 -43q41 -38 41 -107q0 -41 -6 -82l-42 -297q-1 -6 -4 -7.5t-11 -1.5h-12q-13 0 -12 9l36 257q12 84 12 112q0 58 -32 90q-36 36 -97 36q-95 0 -152 -60
q-33 -34 -46.5 -84.5t-30.5 -171.5l-25 -179q-1 -6 -4 -7.5t-11 -1.5h-12q-13 0 -12 9zM389 626q-14 5 -33 15q-17 9 -30.5 14t-29.5 5q-14 0 -26 -6t-33 -23q-4 -4 -8 2l-7 9q-3 4 -2 5.5t4 4.5q13 15 35 26t46 11q19 0 34.5 -5t32.5 -15t30 -14.5t29 -4.5q14 0 26 6t33 23
q4 4 8 -2l7 -9q3 -4 2 -5.5t-4 -4.5q-13 -15 -35 -26t-46 -11q-19 0 -33 5z" />
    <glyph glyph-name="o" unicode="o" horiz-adv-x="552" 
d="M44 194q0 80 31.5 159.5t96.5 132t159 52.5q93 0 135 -53.5t42 -147.5q0 -81 -32 -161.5t-96.5 -133t-157.5 -52.5q-178 0 -178 204zM354 71.5q55 47.5 83 119.5t28 146q0 71 -31.5 119t-101.5 48q-80 0 -135 -47t-82.5 -119t-27.5 -145q0 -72 31.5 -120.5t102.5 -48.5
q78 0 133 47.5z" />
    <glyph glyph-name="oacute" unicode="&#xf3;" horiz-adv-x="552" 
d="M44 194q0 80 31.5 159.5t96.5 132t159 52.5q93 0 135 -53.5t42 -147.5q0 -81 -32 -161.5t-96.5 -133t-157.5 -52.5q-178 0 -178 204zM354 71.5q55 47.5 83 119.5t28 146q0 71 -31.5 119t-101.5 48q-80 0 -135 -47t-82.5 -119t-27.5 -145q0 -72 31.5 -120.5t102.5 -48.5
q78 0 133 47.5zM290 590l65 95q4 6 8.5 7.5t15.5 1.5h10q14 0 17 -1.5t-1 -6.5l-86 -100q-4 -4 -16 -4h-5q-13 0 -8 8z" />
    <glyph glyph-name="oacute.loclPLK" horiz-adv-x="552" 
d="M44 194q0 80 31.5 159.5t96.5 132t159 52.5q93 0 135 -53.5t42 -147.5q0 -81 -32 -161.5t-96.5 -133t-157.5 -52.5q-178 0 -178 204zM354 71.5q55 47.5 83 119.5t28 146q0 71 -31.5 119t-101.5 48q-80 0 -135 -47t-82.5 -119t-27.5 -145q0 -72 31.5 -120.5t102.5 -48.5
q78 0 133 47.5zM306 588l31 96q2 7 5.5 8.5t14.5 1.5h12q13 0 15.5 -1t0.5 -6l-48 -98q-4 -7 -12 -7h-9q-12 0 -10 6z" />
    <glyph glyph-name="obreve" unicode="&#x14f;" horiz-adv-x="552" 
d="M44 194q0 80 31.5 159.5t96.5 132t159 52.5q93 0 135 -53.5t42 -147.5q0 -81 -32 -161.5t-96.5 -133t-157.5 -52.5q-178 0 -178 204zM354 71.5q55 47.5 83 119.5t28 146q0 71 -31.5 119t-101.5 48q-80 0 -135 -47t-82.5 -119t-27.5 -145q0 -72 31.5 -120.5t102.5 -48.5
q78 0 133 47.5zM236.5 617q-33.5 28 -28.5 68q1 5 3.5 6t8.5 1h10q7 0 9 -1t2 -5q-1 -32 24.5 -50.5t61.5 -18.5q84 0 102 69q1 4 3 5t9 1h11q11 0 10 -6q-6 -44 -43 -70.5t-93 -26.5t-89.5 28z" />
    <glyph glyph-name="ocircumflex" unicode="&#xf4;" horiz-adv-x="552" 
d="M44 194q0 80 31.5 159.5t96.5 132t159 52.5q93 0 135 -53.5t42 -147.5q0 -81 -32 -161.5t-96.5 -133t-157.5 -52.5q-178 0 -178 204zM354 71.5q55 47.5 83 119.5t28 146q0 71 -31.5 119t-101.5 48q-80 0 -135 -47t-82.5 -119t-27.5 -145q0 -72 31.5 -120.5t102.5 -48.5
q78 0 133 47.5zM471 602q1 -1 1 -3l-5 -7l-4 -4q-4 -4 -6.5 -4t-6.5 3l-98 95l-126 -95q-5 -4 -7 -3.5t-5 4.5l-5 6q-4 4 -3.5 6t3.5 5l112 95q6 6 11.5 8t14.5 2h16q9 0 13 -2t9 -8l84 -96z" />
    <glyph glyph-name="odieresis" unicode="&#xf6;" horiz-adv-x="552" 
d="M44 194q0 80 31.5 159.5t96.5 132t159 52.5q93 0 135 -53.5t42 -147.5q0 -81 -32 -161.5t-96.5 -133t-157.5 -52.5q-178 0 -178 204zM354 71.5q55 47.5 83 119.5t28 146q0 71 -31.5 119t-101.5 48q-80 0 -135 -47t-82.5 -119t-27.5 -145q0 -72 31.5 -120.5t102.5 -48.5
q78 0 133 47.5zM214.5 614q-9.5 9 -9.5 24q0 18 13.5 31.5t30.5 13.5q13 0 23 -9.5t10 -23.5q0 -20 -13 -32.5t-31 -12.5q-14 0 -23.5 9zM405.5 614q-9.5 9 -9.5 24q0 18 13.5 31.5t30.5 13.5q13 0 23 -9.5t10 -23.5q0 -20 -13 -32.5t-31 -12.5q-14 0 -23.5 9z" />
    <glyph glyph-name="ograve" unicode="&#xf2;" horiz-adv-x="552" 
d="M44 194q0 80 31.5 159.5t96.5 132t159 52.5q93 0 135 -53.5t42 -147.5q0 -81 -32 -161.5t-96.5 -133t-157.5 -52.5q-178 0 -178 204zM354 71.5q55 47.5 83 119.5t28 146q0 71 -31.5 119t-101.5 48q-80 0 -135 -47t-82.5 -119t-27.5 -145q0 -72 31.5 -120.5t102.5 -48.5
q78 0 133 47.5zM333 588l-56 98q-1 1 -1 3q0 3 5.5 4t16.5 1h4q16 0 21 -1.5t7 -7.5l36 -97v-2q0 -4 -12 -4h-6q-11 0 -15 6z" />
    <glyph glyph-name="ohungarumlaut" unicode="&#x151;" horiz-adv-x="552" 
d="M44 194q0 80 31.5 159.5t96.5 132t159 52.5q93 0 135 -53.5t42 -147.5q0 -81 -32 -161.5t-96.5 -133t-157.5 -52.5q-178 0 -178 204zM354 71.5q55 47.5 83 119.5t28 146q0 71 -31.5 119t-101.5 48q-80 0 -135 -47t-82.5 -119t-27.5 -145q0 -72 31.5 -120.5t102.5 -48.5
q78 0 133 47.5zM235.5 583q-2.5 1 0.5 5l69 97q4 6 9 7.5t21 1.5h4q16 0 19.5 -1.5t-0.5 -6.5l-90 -100q-4 -4 -16 -4h-6q-8 0 -10.5 1zM376.5 583q-2.5 1 0.5 5l69 97q4 6 9 7.5t21 1.5h4q16 0 19.5 -1.5t-0.5 -6.5l-90 -100q-4 -4 -16 -4h-6q-8 0 -10.5 1z" />
    <glyph glyph-name="omacron" unicode="&#x14d;" horiz-adv-x="552" 
d="M44 194q0 80 31.5 159.5t96.5 132t159 52.5q93 0 135 -53.5t42 -147.5q0 -81 -32 -161.5t-96.5 -133t-157.5 -52.5q-178 0 -178 204zM354 71.5q55 47.5 83 119.5t28 146q0 71 -31.5 119t-101.5 48q-80 0 -135 -47t-82.5 -119t-27.5 -145q0 -72 31.5 -120.5t102.5 -48.5
q78 0 133 47.5zM208 633q-1 2 0 8l2 14q1 8 8 8h248q6 0 7 -2t0 -8l-2 -14q-1 -8 -8 -8h-248q-6 0 -7 2z" />
    <glyph glyph-name="oslash" unicode="&#xf8;" horiz-adv-x="552" 
d="M530 518q0 -2 -6 -8l-43 -48q27 -47 27 -125q0 -81 -32 -161.5t-96.5 -133t-157.5 -52.5q-84 0 -128 46l-39 -43q-5 -5 -7 -5q-5 0 -14 8l-4 4q-9 8 -9 11q0 2 6 8l44 48q-27 48 -27 127q0 80 31.5 159.5t96.5 132t159 52.5q82 0 126 -44l39 42q5 5 7 5q5 0 14 -8l4 -4
q9 -7 9 -11zM102 102l327 360q-35 42 -97 42q-80 0 -135 -47t-82.5 -119t-27.5 -145q0 -54 15 -91zM449 427l-327 -360q35 -43 99 -43q78 0 133 47.5t83 119.5t28 146q0 51 -16 90z" />
    <glyph glyph-name="oslashacute" unicode="&#x1ff;" horiz-adv-x="552" 
d="M530 518q0 -2 -6 -8l-43 -48q27 -47 27 -125q0 -81 -32 -161.5t-96.5 -133t-157.5 -52.5q-84 0 -128 46l-39 -43q-5 -5 -7 -5q-5 0 -14 8l-4 4q-9 8 -9 11q0 2 6 8l44 48q-27 48 -27 127q0 80 31.5 159.5t96.5 132t159 52.5q82 0 126 -44l39 42q5 5 7 5q5 0 14 -8l4 -4
q9 -7 9 -11zM102 102l327 360q-35 42 -97 42q-80 0 -135 -47t-82.5 -119t-27.5 -145q0 -54 15 -91zM449 427l-327 -360q35 -43 99 -43q78 0 133 47.5t83 119.5t28 146q0 51 -16 90zM310 590l65 95q4 6 8.5 7.5t15.5 1.5h10q14 0 17 -1.5t-1 -6.5l-86 -100q-4 -4 -16 -4h-5
q-13 0 -8 8z" />
    <glyph glyph-name="otilde" unicode="&#xf5;" horiz-adv-x="552" 
d="M44 194q0 80 31.5 159.5t96.5 132t159 52.5q93 0 135 -53.5t42 -147.5q0 -81 -32 -161.5t-96.5 -133t-157.5 -52.5q-178 0 -178 204zM354 71.5q55 47.5 83 119.5t28 146q0 71 -31.5 119t-101.5 48q-80 0 -135 -47t-82.5 -119t-27.5 -145q0 -72 31.5 -120.5t102.5 -48.5
q78 0 133 47.5zM366 626q-14 5 -33 15q-17 9 -30.5 14t-29.5 5q-14 0 -26 -6t-33 -23q-4 -4 -8 2l-7 9q-3 4 -2 5.5t4 4.5q13 15 35 26t46 11q19 0 34.5 -5t32.5 -15t30 -14.5t29 -4.5q14 0 26 6t33 23q4 4 8 -2l7 -9q3 -4 2 -5.5t-4 -4.5q-13 -15 -35 -26t-46 -11
q-19 0 -33 5z" />
    <glyph glyph-name="oe" unicode="&#x153;" horiz-adv-x="889" 
d="M812 481.5q40 -56.5 40 -149.5q0 -38 -6 -66q-2 -7 -4.5 -9.5t-10.5 -2.5l-356 -1q-3 -28 -3 -58q0 -83 40.5 -127t117.5 -44q37 0 67.5 8.5t68.5 25.5q1 1 3 1q4 0 5 -8l4 -15q1 -4 0.5 -5.5t-3.5 -3.5q-39 -19 -74.5 -28t-79.5 -9q-78 0 -125 37.5t-61 107.5
q-36 -67 -91.5 -106t-131.5 -39q-168 0 -168 204q0 80 30.5 159.5t93.5 132t153 52.5q65 0 105.5 -36.5t52.5 -100.5q35 63 89.5 100t122.5 37q81 0 121 -56.5zM339 70.5q53 46.5 79.5 119t26.5 147.5q0 68 -32.5 117.5t-93.5 49.5q-74 0 -127 -47t-79 -119t-26 -145
q0 -72 29 -120.5t95 -48.5q75 0 128 46.5zM811 336q0 73 -29.5 120.5t-92.5 47.5q-82 0 -136 -61t-72 -157l327 2q3 24 3 48z" />
    <glyph glyph-name="p" unicode="p" horiz-adv-x="541" 
d="M460 488.5q44 -49.5 44 -146.5q0 -93 -34 -174t-96 -129.5t-144 -48.5q-84 0 -138 52l-38 -270q-1 -6 -4 -7.5t-11 -1.5h-12q-13 0 -12 9l80 570q12 89 27 180q1 4 5 5t10 1h9q8 0 11.5 -2t2.5 -7q-3 -35 -8 -70q33 46 80.5 67.5t101.5 21.5q82 0 126 -49.5zM355.5 68.5
q51.5 44.5 78.5 117.5t27 155q0 163 -134 163q-43 0 -79 -17.5t-60 -43.5q-18 -19 -29 -38.5t-21 -59.5t-20 -113l-21 -148q54 -60 137 -60q70 0 121.5 44.5z" />
    <glyph glyph-name="thorn" unicode="&#xfe;" horiz-adv-x="541" 
d="M454 488.5q44 -49.5 44 -146.5q0 -93 -34 -174t-96 -129.5t-144 -48.5q-84 0 -138 52l-38 -270q-1 -6 -4 -7.5t-11 -1.5h-12q-13 0 -12 9l138 979q1 6 4.5 7.5t10.5 1.5h12q8 0 10.5 -2t1.5 -7l-42 -303q71 90 184 90q82 0 126 -49.5zM349.5 68.5q51.5 44.5 78.5 117.5
t27 155q0 163 -134 163q-43 0 -79 -17.5t-60 -43.5q-18 -19 -29 -38.5t-21 -59.5t-20 -113l-21 -148q54 -60 137 -60q70 0 121.5 44.5z" />
    <glyph glyph-name="q" unicode="q" horiz-adv-x="557" 
d="M504 504q3 -3 2 -8l-63 -448q-27 -193 -35 -277q-1 -6 -3.5 -7t-10.5 -1h-11q-14 0 -13 11q11 104 42 319q-64 -103 -187 -103q-94 0 -133.5 57t-39.5 145q0 97 37 176t106.5 124.5t162.5 45.5q77 0 135 -27q8 -4 11 -7zM445 338l20 140q-47 26 -117 26
q-77 0 -134.5 -42.5t-88 -114t-30.5 -155.5q0 -78 34 -123t97 -45q84 0 143 67q32 36 47 89q14 51 29 158z" />
    <glyph glyph-name="r" unicode="r" horiz-adv-x="326" 
d="M46 9l58 417q6 40 12 94q1 6 3.5 7t11.5 1h11q8 0 10.5 -1.5t1.5 -7.5l-16 -117q30 61 79.5 95.5t100.5 34.5q15 0 18.5 -2t2.5 -8l-3 -19q-1 -5 -3 -6t-9 -1q-66 0 -121 -52q-41 -38 -60 -93t-34 -163l-24 -179q-1 -6 -4 -7.5t-11 -1.5h-12q-13 0 -12 9z" />
    <glyph glyph-name="racute" unicode="&#x155;" horiz-adv-x="326" 
d="M46 9l58 417q6 40 12 94q1 6 3.5 7t11.5 1h11q8 0 10.5 -1.5t1.5 -7.5l-16 -117q30 61 79.5 95.5t100.5 34.5q15 0 18.5 -2t2.5 -8l-3 -19q-1 -5 -3 -6t-9 -1q-66 0 -121 -52q-41 -38 -60 -93t-34 -163l-24 -179q-1 -6 -4 -7.5t-11 -1.5h-12q-13 0 -12 9zM211 590l65 95
q4 6 8.5 7.5t15.5 1.5h10q14 0 17 -1.5t-1 -6.5l-86 -100q-4 -4 -16 -4h-5q-13 0 -8 8z" />
    <glyph glyph-name="rcaron" unicode="&#x159;" horiz-adv-x="326" 
d="M46 9l58 417q6 40 12 94q1 6 3.5 7t11.5 1h11q8 0 10.5 -1.5t1.5 -7.5l-16 -117q30 61 79.5 95.5t100.5 34.5q15 0 18.5 -2t2.5 -8l-3 -19q-1 -5 -3 -6t-9 -1q-66 0 -121 -52q-41 -38 -60 -93t-34 -163l-24 -179q-1 -6 -4 -7.5t-11 -1.5h-12q-13 0 -12 9zM392 687
q0 -2 -3 -5l-111 -95q-6 -6 -11.5 -8t-14.5 -2h-16q-9 0 -13 2t-9 8l-84 96q-3 3 -3 5q0 3 5 7l4 4q4 4 6.5 4t6.5 -3l100 -95l124 95q5 4 7 3.5t5 -4.5l4 -6q3 -4 3 -6z" />
    <glyph glyph-name="rcommaaccent" unicode="&#x157;" horiz-adv-x="326" 
d="M46 9l58 417q6 40 12 94q1 6 3.5 7t11.5 1h11q8 0 10.5 -1.5t1.5 -7.5l-16 -117q30 61 79.5 95.5t100.5 34.5q15 0 18.5 -2t2.5 -8l-3 -19q-1 -5 -3 -6t-9 -1q-66 0 -121 -52q-41 -38 -60 -93t-34 -163l-24 -179q-1 -6 -4 -7.5t-11 -1.5h-12q-13 0 -12 9zM-17.5 -255.5
q-2.5 -0.5 -5.5 3.5l-4 5q-3 4 -2.5 5.5t1.5 2.5l2 2q21 15 43 41t22 48q0 11 -3 18t-9 16q-10 14 -10 27q0 17 11 26.5t25 9.5q18 0 27.5 -12t9.5 -33q0 -40 -29.5 -85t-71.5 -72q-4 -2 -6.5 -2.5z" />
    <glyph glyph-name="s" unicode="s" horiz-adv-x="430" 
d="M23 31q-5 4 -5 6q0 4 4 9l6 9q2 4 4 6t4 2q3 0 8 -3q34 -21 64 -29.5t65 -8.5q69 0 111.5 31t42.5 89q0 43 -27 67.5t-95 45.5q-70 22 -103.5 52.5t-33.5 85.5q0 70 49.5 107.5t127.5 37.5q85 0 148 -50q5 -3 5 -6q0 -2 -5 -7l-10 -11q-5 -5 -9 -5q-1 0 -7 4
q-55 42 -131 42q-57 0 -93 -29.5t-36 -79.5q0 -44 28 -66.5t88 -41.5q71 -23 107 -53.5t36 -89.5q0 -70 -53 -112.5t-142 -42.5q-80 0 -148 41z" />
    <glyph glyph-name="sacute" unicode="&#x15b;" horiz-adv-x="430" 
d="M23 31q-5 4 -5 6q0 4 4 9l6 9q2 4 4 6t4 2q3 0 8 -3q34 -21 64 -29.5t65 -8.5q69 0 111.5 31t42.5 89q0 43 -27 67.5t-95 45.5q-70 22 -103.5 52.5t-33.5 85.5q0 70 49.5 107.5t127.5 37.5q85 0 148 -50q5 -3 5 -6q0 -2 -5 -7l-10 -11q-5 -5 -9 -5q-1 0 -7 4
q-55 42 -131 42q-57 0 -93 -29.5t-36 -79.5q0 -44 28 -66.5t88 -41.5q71 -23 107 -53.5t36 -89.5q0 -70 -53 -112.5t-142 -42.5q-80 0 -148 41zM215 590l65 95q4 6 8.5 7.5t15.5 1.5h10q14 0 17 -1.5t-1 -6.5l-86 -100q-4 -4 -16 -4h-5q-13 0 -8 8z" />
    <glyph glyph-name="sacute.loclPLK" horiz-adv-x="430" 
d="M23 31q-5 4 -5 6q0 4 4 9l6 9q2 4 4 6t4 2q3 0 8 -3q34 -21 64 -29.5t65 -8.5q69 0 111.5 31t42.5 89q0 43 -27 67.5t-95 45.5q-70 22 -103.5 52.5t-33.5 85.5q0 70 49.5 107.5t127.5 37.5q85 0 148 -50q5 -3 5 -6q0 -2 -5 -7l-10 -11q-5 -5 -9 -5q-1 0 -7 4
q-55 42 -131 42q-57 0 -93 -29.5t-36 -79.5q0 -44 28 -66.5t88 -41.5q71 -23 107 -53.5t36 -89.5q0 -70 -53 -112.5t-142 -42.5q-80 0 -148 41zM231 588l31 96q2 7 5.5 8.5t14.5 1.5h12q13 0 15.5 -1t0.5 -6l-48 -98q-4 -7 -12 -7h-9q-12 0 -10 6z" />
    <glyph glyph-name="scaron" unicode="&#x161;" horiz-adv-x="430" 
d="M23 31q-5 4 -5 6q0 4 4 9l6 9q2 4 4 6t4 2q3 0 8 -3q34 -21 64 -29.5t65 -8.5q69 0 111.5 31t42.5 89q0 43 -27 67.5t-95 45.5q-70 22 -103.5 52.5t-33.5 85.5q0 70 49.5 107.5t127.5 37.5q85 0 148 -50q5 -3 5 -6q0 -2 -5 -7l-10 -11q-5 -5 -9 -5q-1 0 -7 4
q-55 42 -131 42q-57 0 -93 -29.5t-36 -79.5q0 -44 28 -66.5t88 -41.5q71 -23 107 -53.5t36 -89.5q0 -70 -53 -112.5t-142 -42.5q-80 0 -148 41zM396 687q0 -2 -3 -5l-111 -95q-6 -6 -11.5 -8t-14.5 -2h-16q-9 0 -13 2t-9 8l-84 96q-3 3 -3 5q0 3 5 7l4 4q4 4 6.5 4t6.5 -3
l100 -95l124 95q5 4 7 3.5t5 -4.5l4 -6q3 -4 3 -6z" />
    <glyph glyph-name="scedilla" unicode="&#x15f;" horiz-adv-x="430" 
d="M398 482q0 -2 -5 -7l-10 -11q-5 -5 -9 -5q-1 0 -7 4q-55 42 -131 42q-57 0 -93 -29.5t-36 -79.5q0 -44 28 -66.5t88 -41.5q71 -23 107 -53.5t36 -89.5q0 -65 -46.5 -106.5t-124.5 -47.5l-18 -67q12 3 29 3q34 0 53.5 -17t19.5 -46q0 -40 -28 -67t-87 -27q-17 0 -35.5 4
t-26.5 8q-4 3 -2 9l3 7q2 5 3.5 7.5t3.5 1.5q28 -10 57 -10q33 0 53.5 13.5t20.5 44.5q0 20 -15 31t-39 11q-29 0 -55 -8l30 101q-75 2 -139 41q-5 4 -5 6q0 4 4 9l6 9q2 4 4 6t4 2q3 0 8 -3q34 -21 64 -29.5t65 -8.5q69 0 111.5 31t42.5 89q0 43 -27 67.5t-95 45.5
q-70 22 -103.5 52.5t-33.5 85.5q0 70 49.5 107.5t127.5 37.5q85 0 148 -50q5 -3 5 -6z" />
    <glyph glyph-name="scircumflex" unicode="&#x15d;" horiz-adv-x="430" 
d="M23 31q-5 4 -5 6q0 4 4 9l6 9q2 4 4 6t4 2q3 0 8 -3q34 -21 64 -29.5t65 -8.5q69 0 111.5 31t42.5 89q0 43 -27 67.5t-95 45.5q-70 22 -103.5 52.5t-33.5 85.5q0 70 49.5 107.5t127.5 37.5q85 0 148 -50q5 -3 5 -6q0 -2 -5 -7l-10 -11q-5 -5 -9 -5q-1 0 -7 4
q-55 42 -131 42q-57 0 -93 -29.5t-36 -79.5q0 -44 28 -66.5t88 -41.5q71 -23 107 -53.5t36 -89.5q0 -70 -53 -112.5t-142 -42.5q-80 0 -148 41zM396 602q1 -1 1 -3l-5 -7l-4 -4q-4 -4 -6.5 -4t-6.5 3l-98 95l-126 -95q-5 -4 -7 -3.5t-5 4.5l-5 6q-4 4 -3.5 6t3.5 5l112 95
q6 6 11.5 8t14.5 2h16q9 0 13 -2t9 -8l84 -96z" />
    <glyph glyph-name="scommaaccent" unicode="&#x219;" horiz-adv-x="430" 
d="M23 31q-5 4 -5 6q0 4 4 9l6 9q2 4 4 6t4 2q3 0 8 -3q34 -21 64 -29.5t65 -8.5q69 0 111.5 31t42.5 89q0 43 -27 67.5t-95 45.5q-70 22 -103.5 52.5t-33.5 85.5q0 70 49.5 107.5t127.5 37.5q85 0 148 -50q5 -3 5 -6q0 -2 -5 -7l-10 -11q-5 -5 -9 -5q-1 0 -7 4
q-55 42 -131 42q-57 0 -93 -29.5t-36 -79.5q0 -44 28 -66.5t88 -41.5q71 -23 107 -53.5t36 -89.5q0 -70 -53 -112.5t-142 -42.5q-80 0 -148 41zM107.5 -255.5q-2.5 -0.5 -5.5 3.5l-4 5q-3 4 -2.5 5.5t1.5 2.5l2 2q21 15 43 41t22 48q0 11 -3 18t-9 16q-10 14 -10 27
q0 17 11 26.5t25 9.5q18 0 27.5 -12t9.5 -33q0 -40 -29.5 -85t-71.5 -72q-4 -2 -6.5 -2.5z" />
    <glyph glyph-name="germandbls" unicode="&#xdf;" horiz-adv-x="559" 
d="M181 17q-7 4 -7 7t3 9l7 13q3 7 7 7q2 0 8 -3q54 -26 105 -26q65 0 107.5 38t42.5 97q0 47 -23 76t-69 57q-52 31 -74 55.5t-22 57.5q0 29 17 61t47 69q34 40 49.5 73t15.5 65q0 35 -23.5 58t-69.5 23q-70 0 -106.5 -46t-48.5 -132l-80 -567q-1 -6 -4 -7.5t-11 -1.5h-12
q-13 0 -12 9l80 568q14 100 65 155.5t138 55.5q53 0 89 -29.5t36 -82.5q0 -39 -20.5 -78t-59.5 -84q-25 -31 -38.5 -54.5t-13.5 -47.5q0 -28 19.5 -47t58.5 -41q59 -35 86 -71.5t27 -92.5q0 -48 -25.5 -87t-70 -61t-101.5 -22q-58 0 -117 27z" />
    <glyph glyph-name="longs" unicode="&#x17f;" horiz-adv-x="296" 
d="M423 768q0 -2 -2 -7l-7 -14q-2 -4 -3.5 -5.5t-4.5 -0.5q-33 14 -70 14q-73 0 -108 -45t-50 -151l-109 -787q-1 -6 -4 -7.5t-11 -1.5h-11q-13 0 -12 9l101 725h-65q-6 0 -7 2t0 8l2 14q1 8 8 8h66l6 42q16 112 63.5 164t136.5 52q42 0 77 -16q4 -1 4 -3z" />
    <glyph glyph-name="t" unicode="t" horiz-adv-x="342" 
d="M329 526q1 -2 0 -8l-2 -14q-1 -6 -2.5 -7.5t-5.5 -1.5h-143l-48 -339q-6 -46 -6 -60q0 -24 8 -42q16 -30 70 -30q39 0 75 13q1 1 3 1q4 0 5 -8l3 -13q1 -4 0.5 -6t-3.5 -3q-42 -17 -92 -17q-34 0 -60 12t-37 34q-11 24 -11 55q0 21 5 54l50 349h-92q-6 0 -6 6l1 11
q0 4 1.5 6t4.5 2l23 4q35 6 50 14.5t24 28t20 67.5l6 27q1 5 10 5h11q4 0 6 -1t2 -3l-19 -134h142q6 0 7 -2z" />
    <glyph glyph-name="tbar" unicode="&#x167;" horiz-adv-x="342" 
d="M329 526q1 -2 0 -8l-2 -14q-1 -6 -2.5 -7.5t-5.5 -1.5h-143l-28 -198h110q6 0 7 -2t0 -8l-2 -14q-1 -8 -8 -8h-112l-15 -109q-6 -46 -6 -60q0 -24 8 -42q16 -30 70 -30q39 0 75 13q1 1 3 1q4 0 5 -8l3 -13q1 -4 0.5 -6t-3.5 -3q-42 -17 -92 -17q-34 0 -60 12t-37 34
q-11 24 -11 55q0 21 5 54l17 119h-63q-6 0 -7 2t0 8l2 14q1 8 8 8h64l29 198h-92q-6 0 -6 6l1 11q0 4 1.5 6t4.5 2l23 4q35 6 50 14.5t24 28t20 67.5l6 27q1 5 10 5h11q4 0 6 -1t2 -3l-19 -134h142q6 0 7 -2z" />
    <glyph glyph-name="tcaron" unicode="&#x165;" horiz-adv-x="342" 
d="M329 526q1 -2 0 -8l-2 -14q-1 -6 -2.5 -7.5t-5.5 -1.5h-143l-48 -339q-6 -46 -6 -60q0 -24 8 -42q16 -30 70 -30q39 0 75 13q1 1 3 1q4 0 5 -8l3 -13q1 -4 0.5 -6t-3.5 -3q-42 -17 -92 -17q-34 0 -60 12t-37 34q-11 24 -11 55q0 21 5 54l50 349h-92q-6 0 -6 6l1 11
q0 4 1.5 6t4.5 2l23 4q35 6 50 14.5t24 28t20 67.5l6 27q1 5 10 5h11q4 0 6 -1t2 -3l-19 -134h142q6 0 7 -2zM249.5 602.5q-2.5 -0.5 -5.5 3.5l-4 5q-3 4 -2.5 5.5t1.5 2.5l2 2q21 15 43 41t22 48q0 11 -3 18t-9 16q-10 14 -10 27q0 17 11 26.5t25 9.5q18 0 27.5 -12
t9.5 -33q0 -40 -29.5 -85t-71.5 -72q-4 -2 -6.5 -2.5z" />
    <glyph glyph-name="uni0163" unicode="&#x163;" horiz-adv-x="342" 
d="M329 526q1 -2 0 -8l-2 -14q-1 -6 -2.5 -7.5t-5.5 -1.5h-143l-48 -339q-6 -46 -6 -60q0 -24 8 -42q16 -30 70 -30q39 0 75 13q1 1 3 1q4 0 5 -8l3 -13q1 -4 0.5 -6t-3.5 -3q-42 -17 -92 -17q-34 0 -60 12t-37 34q-11 24 -11 55q0 21 5 54l50 349h-92q-6 0 -6 6l1 11
q0 4 1.5 6t4.5 2l23 4q35 6 50 14.5t24 28t20 67.5l6 27q1 5 10 5h11q4 0 6 -1t2 -3l-19 -134h142q6 0 7 -2zM101.5 -255.5q-2.5 -0.5 -5.5 3.5l-4 5q-3 4 -2.5 5.5t1.5 2.5l2 2q21 15 43 41t22 48q0 11 -3 18t-9 16q-10 14 -10 27q0 17 11 26.5t25 9.5q18 0 27.5 -12
t9.5 -33q0 -40 -29.5 -85t-71.5 -72q-4 -2 -6.5 -2.5z" />
    <glyph glyph-name="uni021B" unicode="&#x21b;" horiz-adv-x="342" 
d="M329 526q1 -2 0 -8l-2 -14q-1 -6 -2.5 -7.5t-5.5 -1.5h-143l-48 -339q-6 -46 -6 -60q0 -24 8 -42q16 -30 70 -30q39 0 75 13q1 1 3 1q4 0 5 -8l3 -13q1 -4 0.5 -6t-3.5 -3q-42 -17 -92 -17q-34 0 -60 12t-37 34q-11 24 -11 55q0 21 5 54l50 349h-92q-6 0 -6 6l1 11
q0 4 1.5 6t4.5 2l23 4q35 6 50 14.5t24 28t20 67.5l6 27q1 5 10 5h11q4 0 6 -1t2 -3l-19 -134h142q6 0 7 -2zM101.5 -255.5q-2.5 -0.5 -5.5 3.5l-4 5q-3 4 -2.5 5.5t1.5 2.5l2 2q21 15 43 41t22 48q0 11 -3 18t-9 16q-10 14 -10 27q0 17 11 26.5t25 9.5q18 0 27.5 -12
t9.5 -33q0 -40 -29.5 -85t-71.5 -72q-4 -2 -6.5 -2.5z" />
    <glyph glyph-name="u" unicode="u" horiz-adv-x="566" 
d="M103.5 27.5q-41.5 37.5 -41.5 106.5q0 47 6 88l42 297q1 6 4.5 7.5t10.5 1.5h12q13 0 12 -9l-36 -257q-12 -84 -12 -118q0 -58 31.5 -89t93.5 -31q96 0 151 60q23 25 35.5 54.5t21 72.5t20.5 129l25 179q1 6 4.5 7.5t10.5 1.5h12q13 0 12 -9l-58 -417q-2 -9 -3 -17
t-2 -15l-10 -64q-1 -4 -4.5 -5t-12.5 -1h-8q-10 0 -12.5 2t-1.5 8l10 71q-67 -91 -194 -91q-77 0 -118.5 37.5z" />
    <glyph glyph-name="uacute" unicode="&#xfa;" horiz-adv-x="566" 
d="M103.5 27.5q-41.5 37.5 -41.5 106.5q0 47 6 88l42 297q1 6 4.5 7.5t10.5 1.5h12q13 0 12 -9l-36 -257q-12 -84 -12 -118q0 -58 31.5 -89t93.5 -31q96 0 151 60q23 25 35.5 54.5t21 72.5t20.5 129l25 179q1 6 4.5 7.5t10.5 1.5h12q13 0 12 -9l-58 -417q-2 -9 -3 -17
t-2 -15l-10 -64q-1 -4 -4.5 -5t-12.5 -1h-8q-10 0 -12.5 2t-1.5 8l10 71q-67 -91 -194 -91q-77 0 -118.5 37.5zM281 590l65 95q4 6 8.5 7.5t15.5 1.5h10q14 0 17 -1.5t-1 -6.5l-86 -100q-4 -4 -16 -4h-5q-13 0 -8 8z" />
    <glyph glyph-name="ubreve" unicode="&#x16d;" horiz-adv-x="566" 
d="M103.5 27.5q-41.5 37.5 -41.5 106.5q0 47 6 88l42 297q1 6 4.5 7.5t10.5 1.5h12q13 0 12 -9l-36 -257q-12 -84 -12 -118q0 -58 31.5 -89t93.5 -31q96 0 151 60q23 25 35.5 54.5t21 72.5t20.5 129l25 179q1 6 4.5 7.5t10.5 1.5h12q13 0 12 -9l-58 -417q-2 -9 -3 -17
t-2 -15l-10 -64q-1 -4 -4.5 -5t-12.5 -1h-8q-10 0 -12.5 2t-1.5 8l10 71q-67 -91 -194 -91q-77 0 -118.5 37.5zM227.5 617q-33.5 28 -28.5 68q1 5 3.5 6t8.5 1h10q7 0 9 -1t2 -5q-1 -32 24.5 -50.5t61.5 -18.5q84 0 102 69q1 4 3 5t9 1h11q11 0 10 -6q-6 -44 -43 -70.5
t-93 -26.5t-89.5 28z" />
    <glyph glyph-name="ucircumflex" unicode="&#xfb;" horiz-adv-x="566" 
d="M103.5 27.5q-41.5 37.5 -41.5 106.5q0 47 6 88l42 297q1 6 4.5 7.5t10.5 1.5h12q13 0 12 -9l-36 -257q-12 -84 -12 -118q0 -58 31.5 -89t93.5 -31q96 0 151 60q23 25 35.5 54.5t21 72.5t20.5 129l25 179q1 6 4.5 7.5t10.5 1.5h12q13 0 12 -9l-58 -417q-2 -9 -3 -17
t-2 -15l-10 -64q-1 -4 -4.5 -5t-12.5 -1h-8q-10 0 -12.5 2t-1.5 8l10 71q-67 -91 -194 -91q-77 0 -118.5 37.5zM462 602q1 -1 1 -3l-5 -7l-4 -4q-4 -4 -6.5 -4t-6.5 3l-98 95l-126 -95q-5 -4 -7 -3.5t-5 4.5l-5 6q-4 4 -3.5 6t3.5 5l112 95q6 6 11.5 8t14.5 2h16q9 0 13 -2
t9 -8l84 -96z" />
    <glyph glyph-name="udieresis" unicode="&#xfc;" horiz-adv-x="566" 
d="M103.5 27.5q-41.5 37.5 -41.5 106.5q0 47 6 88l42 297q1 6 4.5 7.5t10.5 1.5h12q13 0 12 -9l-36 -257q-12 -84 -12 -118q0 -58 31.5 -89t93.5 -31q96 0 151 60q23 25 35.5 54.5t21 72.5t20.5 129l25 179q1 6 4.5 7.5t10.5 1.5h12q13 0 12 -9l-58 -417q-2 -9 -3 -17
t-2 -15l-10 -64q-1 -4 -4.5 -5t-12.5 -1h-8q-10 0 -12.5 2t-1.5 8l10 71q-67 -91 -194 -91q-77 0 -118.5 37.5zM205.5 614q-9.5 9 -9.5 24q0 18 13.5 31.5t30.5 13.5q13 0 23 -9.5t10 -23.5q0 -20 -13 -32.5t-31 -12.5q-14 0 -23.5 9zM396.5 614q-9.5 9 -9.5 24
q0 18 13.5 31.5t30.5 13.5q13 0 23 -9.5t10 -23.5q0 -20 -13 -32.5t-31 -12.5q-14 0 -23.5 9z" />
    <glyph glyph-name="ugrave" unicode="&#xf9;" horiz-adv-x="566" 
d="M103.5 27.5q-41.5 37.5 -41.5 106.5q0 47 6 88l42 297q1 6 4.5 7.5t10.5 1.5h12q13 0 12 -9l-36 -257q-12 -84 -12 -118q0 -58 31.5 -89t93.5 -31q96 0 151 60q23 25 35.5 54.5t21 72.5t20.5 129l25 179q1 6 4.5 7.5t10.5 1.5h12q13 0 12 -9l-58 -417q-2 -9 -3 -17
t-2 -15l-10 -64q-1 -4 -4.5 -5t-12.5 -1h-8q-10 0 -12.5 2t-1.5 8l10 71q-67 -91 -194 -91q-77 0 -118.5 37.5zM324 588l-56 98q-1 1 -1 3q0 3 5.5 4t16.5 1h4q16 0 21 -1.5t7 -7.5l36 -97v-2q0 -4 -12 -4h-6q-11 0 -15 6z" />
    <glyph glyph-name="uhungarumlaut" unicode="&#x171;" horiz-adv-x="566" 
d="M103.5 27.5q-41.5 37.5 -41.5 106.5q0 47 6 88l42 297q1 6 4.5 7.5t10.5 1.5h12q13 0 12 -9l-36 -257q-12 -84 -12 -118q0 -58 31.5 -89t93.5 -31q96 0 151 60q23 25 35.5 54.5t21 72.5t20.5 129l25 179q1 6 4.5 7.5t10.5 1.5h12q13 0 12 -9l-58 -417q-2 -9 -3 -17
t-2 -15l-10 -64q-1 -4 -4.5 -5t-12.5 -1h-8q-10 0 -12.5 2t-1.5 8l10 71q-67 -91 -194 -91q-77 0 -118.5 37.5zM226.5 583q-2.5 1 0.5 5l69 97q4 6 9 7.5t21 1.5h4q16 0 19.5 -1.5t-0.5 -6.5l-90 -100q-4 -4 -16 -4h-6q-8 0 -10.5 1zM367.5 583q-2.5 1 0.5 5l69 97
q4 6 9 7.5t21 1.5h4q16 0 19.5 -1.5t-0.5 -6.5l-90 -100q-4 -4 -16 -4h-6q-8 0 -10.5 1z" />
    <glyph glyph-name="umacron" unicode="&#x16b;" horiz-adv-x="566" 
d="M103.5 27.5q-41.5 37.5 -41.5 106.5q0 47 6 88l42 297q1 6 4.5 7.5t10.5 1.5h12q13 0 12 -9l-36 -257q-12 -84 -12 -118q0 -58 31.5 -89t93.5 -31q96 0 151 60q23 25 35.5 54.5t21 72.5t20.5 129l25 179q1 6 4.5 7.5t10.5 1.5h12q13 0 12 -9l-58 -417q-2 -9 -3 -17
t-2 -15l-10 -64q-1 -4 -4.5 -5t-12.5 -1h-8q-10 0 -12.5 2t-1.5 8l10 71q-67 -91 -194 -91q-77 0 -118.5 37.5zM199 633q-1 2 0 8l2 14q1 8 8 8h248q6 0 7 -2t0 -8l-2 -14q-1 -8 -8 -8h-248q-6 0 -7 2z" />
    <glyph glyph-name="uogonek" unicode="&#x173;" horiz-adv-x="566" 
d="M518 519l-58 -417l-14 -92q-1 -7 -16 -14q-50 -24 -81.5 -64t-31.5 -84q0 -21 11 -33.5t34 -12.5q11 0 25 3.5t21 6.5l4 1q2 0 1 -8l-1 -6q-1 -5 -3 -8t-10 -6q-21 -10 -53 -10q-33 0 -52 18.5t-19 50.5q0 43 35.5 88.5t96.5 74.5l9 74q-67 -91 -194 -91
q-77 0 -118.5 37.5t-41.5 106.5q0 47 6 88l42 297q1 6 4.5 7.5t10.5 1.5h12q13 0 12 -9l-36 -257q-12 -84 -12 -118q0 -58 31.5 -89t93.5 -31q96 0 151 60q23 25 35.5 54.5t21 72.5t20.5 129l25 179q1 6 4.5 7.5t10.5 1.5h12q13 0 12 -9z" />
    <glyph glyph-name="uring" unicode="&#x16f;" horiz-adv-x="566" 
d="M103.5 27.5q-41.5 37.5 -41.5 106.5q0 47 6 88l42 297q1 6 4.5 7.5t10.5 1.5h12q13 0 12 -9l-36 -257q-12 -84 -12 -118q0 -58 31.5 -89t93.5 -31q96 0 151 60q23 25 35.5 54.5t21 72.5t20.5 129l25 179q1 6 4.5 7.5t10.5 1.5h12q13 0 12 -9l-58 -417q-2 -9 -3 -17
t-2 -15l-10 -64q-1 -4 -4.5 -5t-12.5 -1h-8q-10 0 -12.5 2t-1.5 8l10 71q-67 -91 -194 -91q-77 0 -118.5 37.5zM266.5 593q-20.5 20 -20.5 50q0 38 28.5 65.5t68.5 27.5q35 0 55 -19.5t20 -50.5q0 -39 -28 -66t-69 -27q-34 0 -54.5 20zM367 618.5q16 17.5 16 43.5
q0 22 -11 34t-32 12q-27 0 -43 -18t-16 -44q0 -21 11 -33t32 -12q27 0 43 17.5z" />
    <glyph glyph-name="utilde" unicode="&#x169;" horiz-adv-x="566" 
d="M103.5 27.5q-41.5 37.5 -41.5 106.5q0 47 6 88l42 297q1 6 4.5 7.5t10.5 1.5h12q13 0 12 -9l-36 -257q-12 -84 -12 -118q0 -58 31.5 -89t93.5 -31q96 0 151 60q23 25 35.5 54.5t21 72.5t20.5 129l25 179q1 6 4.5 7.5t10.5 1.5h12q13 0 12 -9l-58 -417q-2 -9 -3 -17
t-2 -15l-10 -64q-1 -4 -4.5 -5t-12.5 -1h-8q-10 0 -12.5 2t-1.5 8l10 71q-67 -91 -194 -91q-77 0 -118.5 37.5zM357 626q-14 5 -33 15q-17 9 -30.5 14t-29.5 5q-14 0 -26 -6t-33 -23q-4 -4 -8 2l-7 9q-3 4 -2 5.5t4 4.5q13 15 35 26t46 11q19 0 34.5 -5t32.5 -15t30 -14.5
t29 -4.5q14 0 26 6t33 23q4 4 8 -2l7 -9q3 -4 2 -5.5t-4 -4.5q-13 -15 -35 -26t-46 -11q-19 0 -33 5z" />
    <glyph glyph-name="v" unicode="v" horiz-adv-x="468" 
d="M470 523q0 -3 -3 -9q-139 -321 -243 -500q-6 -9 -10.5 -11.5t-13.5 -2.5h-13q-14 0 -18.5 4t-6.5 16l-110 498l-1 5q0 3 3 4t9 1h14q8 0 10.5 -2t4.5 -9l66 -302l6 -26q7 -33 15.5 -71t17.5 -85q74 133 124.5 241.5t105.5 246.5q2 5 5.5 6t12.5 1h13q12 0 12 -5z" />
    <glyph glyph-name="w" unicode="w" horiz-adv-x="761" 
d="M754 527q3 -1 3 -5l-2 -8q-69 -179 -109.5 -273t-102.5 -219q-6 -13 -12 -17.5t-20 -4.5h-8q-12 0 -15 4t-6 16l-44 264l-15 98q-3 15 -18 110q-13 -31 -44 -105q-12 -31 -44 -106l-112 -259q-5 -13 -11.5 -17.5t-19.5 -4.5h-8q-20 0 -23 20l-82 499v2q0 4 3 5.5t10 1.5
h11q10 0 12 -1.5t4 -9.5l40 -247q10 -63 27 -173l9 -60l101 238l104 245q2 5 6 6.5t18 1.5h10q12 0 15.5 -2t4.5 -7l47 -285q7 -46 24 -143l9 -51q71 150 112 247t89 233q2 5 5 6.5t13 1.5h9q7 0 10 -1z" />
    <glyph glyph-name="wacute" unicode="&#x1e83;" horiz-adv-x="761" 
d="M754 527q3 -1 3 -5l-2 -8q-69 -179 -109.5 -273t-102.5 -219q-6 -13 -12 -17.5t-20 -4.5h-8q-12 0 -15 4t-6 16l-44 264l-15 98q-3 15 -18 110q-13 -31 -44 -105q-12 -31 -44 -106l-112 -259q-5 -13 -11.5 -17.5t-19.5 -4.5h-8q-20 0 -23 20l-82 499v2q0 4 3 5.5t10 1.5
h11q10 0 12 -1.5t4 -9.5l40 -247q10 -63 27 -173l9 -60l101 238l104 245q2 5 6 6.5t18 1.5h10q12 0 15.5 -2t4.5 -7l47 -285q7 -46 24 -143l9 -51q71 150 112 247t89 233q2 5 5 6.5t13 1.5h9q7 0 10 -1zM377 590l65 95q4 6 8.5 7.5t15.5 1.5h10q14 0 17 -1.5t-1 -6.5
l-86 -100q-4 -4 -16 -4h-5q-13 0 -8 8z" />
    <glyph glyph-name="wcircumflex" unicode="&#x175;" horiz-adv-x="761" 
d="M754 527q3 -1 3 -5l-2 -8q-69 -179 -109.5 -273t-102.5 -219q-6 -13 -12 -17.5t-20 -4.5h-8q-12 0 -15 4t-6 16l-44 264l-15 98q-3 15 -18 110q-13 -31 -44 -105q-12 -31 -44 -106l-112 -259q-5 -13 -11.5 -17.5t-19.5 -4.5h-8q-20 0 -23 20l-82 499v2q0 4 3 5.5t10 1.5
h11q10 0 12 -1.5t4 -9.5l40 -247q10 -63 27 -173l9 -60l101 238l104 245q2 5 6 6.5t18 1.5h10q12 0 15.5 -2t4.5 -7l47 -285q7 -46 24 -143l9 -51q71 150 112 247t89 233q2 5 5 6.5t13 1.5h9q7 0 10 -1zM558 602q1 -1 1 -3l-5 -7l-4 -4q-4 -4 -6.5 -4t-6.5 3l-98 95
l-126 -95q-5 -4 -7 -3.5t-5 4.5l-5 6q-4 4 -3.5 6t3.5 5l112 95q6 6 11.5 8t14.5 2h16q9 0 13 -2t9 -8l84 -96z" />
    <glyph glyph-name="wdieresis" unicode="&#x1e85;" horiz-adv-x="761" 
d="M754 527q3 -1 3 -5l-2 -8q-69 -179 -109.5 -273t-102.5 -219q-6 -13 -12 -17.5t-20 -4.5h-8q-12 0 -15 4t-6 16l-44 264l-15 98q-3 15 -18 110q-13 -31 -44 -105q-12 -31 -44 -106l-112 -259q-5 -13 -11.5 -17.5t-19.5 -4.5h-8q-20 0 -23 20l-82 499v2q0 4 3 5.5t10 1.5
h11q10 0 12 -1.5t4 -9.5l40 -247q10 -63 27 -173l9 -60l101 238l104 245q2 5 6 6.5t18 1.5h10q12 0 15.5 -2t4.5 -7l47 -285q7 -46 24 -143l9 -51q71 150 112 247t89 233q2 5 5 6.5t13 1.5h9q7 0 10 -1zM301.5 614q-9.5 9 -9.5 24q0 18 13.5 31.5t30.5 13.5q13 0 23 -9.5
t10 -23.5q0 -20 -13 -32.5t-31 -12.5q-14 0 -23.5 9zM492.5 614q-9.5 9 -9.5 24q0 18 13.5 31.5t30.5 13.5q13 0 23 -9.5t10 -23.5q0 -20 -13 -32.5t-31 -12.5q-14 0 -23.5 9z" />
    <glyph glyph-name="wgrave" unicode="&#x1e81;" horiz-adv-x="761" 
d="M754 527q3 -1 3 -5l-2 -8q-69 -179 -109.5 -273t-102.5 -219q-6 -13 -12 -17.5t-20 -4.5h-8q-12 0 -15 4t-6 16l-44 264l-15 98q-3 15 -18 110q-13 -31 -44 -105q-12 -31 -44 -106l-112 -259q-5 -13 -11.5 -17.5t-19.5 -4.5h-8q-20 0 -23 20l-82 499v2q0 4 3 5.5t10 1.5
h11q10 0 12 -1.5t4 -9.5l40 -247q10 -63 27 -173l9 -60l101 238l104 245q2 5 6 6.5t18 1.5h10q12 0 15.5 -2t4.5 -7l47 -285q7 -46 24 -143l9 -51q71 150 112 247t89 233q2 5 5 6.5t13 1.5h9q7 0 10 -1zM420 588l-56 98q-1 1 -1 3q0 3 5.5 4t16.5 1h4q16 0 21 -1.5t7 -7.5
l36 -97v-2q0 -4 -12 -4h-6q-11 0 -15 6z" />
    <glyph glyph-name="x" unicode="x" horiz-adv-x="481" 
d="M296 313l-27 -33q21 -39 29 -57l105 -213q2 -4 2 -6q0 -4 -11 -4h-17q-7 0 -9.5 2t-6.5 9l-90 178l-30 58q-19 -22 -42 -54l-141 -185q-4 -6 -7.5 -7t-11.5 -1h-17q-11 0 -11 4t4 9l207 265l-28 59l-84 181q-1 2 -1 5q0 5 11 5h17q7 0 10 -2t6 -9l70 -150q22 -49 27 -60
q27 33 47 62l110 152q4 6 8 7t12 1h20q12 0 5 -10z" />
    <glyph glyph-name="y" unicode="y" horiz-adv-x="486" 
d="M501.5 526.5q1.5 -1.5 -1.5 -9.5l-278 -550q-53 -105 -110.5 -160.5t-135.5 -55.5q-15 0 -30.5 3t-23.5 7q-7 3 -7 6q0 2 3 8l5 11q4 8 6 9t7 -1q20 -9 45 -9q59 0 108 45t101 148l-133 538l-1 6q0 4 3.5 5t9.5 1h17q9 0 10.5 -1.5t3.5 -7.5l67 -276l16 -66l35 -146
l98 201l144 286q3 7 6 8.5t12 1.5h13q9 0 10.5 -1.5z" />
    <glyph glyph-name="yacute" unicode="&#xfd;" horiz-adv-x="486" 
d="M501.5 526.5q1.5 -1.5 -1.5 -9.5l-278 -550q-53 -105 -110.5 -160.5t-135.5 -55.5q-15 0 -30.5 3t-23.5 7q-7 3 -7 6q0 2 3 8l5 11q4 8 6 9t7 -1q20 -9 45 -9q59 0 108 45t101 148l-133 538l-1 6q0 4 3.5 5t9.5 1h17q9 0 10.5 -1.5t3.5 -7.5l67 -276l16 -66l35 -146
l98 201l144 286q3 7 6 8.5t12 1.5h13q9 0 10.5 -1.5zM246 590l65 95q4 6 8.5 7.5t15.5 1.5h10q14 0 17 -1.5t-1 -6.5l-86 -100q-4 -4 -16 -4h-5q-13 0 -8 8z" />
    <glyph glyph-name="ycircumflex" unicode="&#x177;" horiz-adv-x="486" 
d="M501.5 526.5q1.5 -1.5 -1.5 -9.5l-278 -550q-53 -105 -110.5 -160.5t-135.5 -55.5q-15 0 -30.5 3t-23.5 7q-7 3 -7 6q0 2 3 8l5 11q4 8 6 9t7 -1q20 -9 45 -9q59 0 108 45t101 148l-133 538l-1 6q0 4 3.5 5t9.5 1h17q9 0 10.5 -1.5t3.5 -7.5l67 -276l16 -66l35 -146
l98 201l144 286q3 7 6 8.5t12 1.5h13q9 0 10.5 -1.5zM427 602q1 -1 1 -3l-5 -7l-4 -4q-4 -4 -6.5 -4t-6.5 3l-98 95l-126 -95q-5 -4 -7 -3.5t-5 4.5l-5 6q-4 4 -3.5 6t3.5 5l112 95q6 6 11.5 8t14.5 2h16q9 0 13 -2t9 -8l84 -96z" />
    <glyph glyph-name="ydieresis" unicode="&#xff;" horiz-adv-x="486" 
d="M501.5 526.5q1.5 -1.5 -1.5 -9.5l-278 -550q-53 -105 -110.5 -160.5t-135.5 -55.5q-15 0 -30.5 3t-23.5 7q-7 3 -7 6q0 2 3 8l5 11q4 8 6 9t7 -1q20 -9 45 -9q59 0 108 45t101 148l-133 538l-1 6q0 4 3.5 5t9.5 1h17q9 0 10.5 -1.5t3.5 -7.5l67 -276l16 -66l35 -146
l98 201l144 286q3 7 6 8.5t12 1.5h13q9 0 10.5 -1.5zM170.5 614q-9.5 9 -9.5 24q0 18 13.5 31.5t30.5 13.5q13 0 23 -9.5t10 -23.5q0 -20 -13 -32.5t-31 -12.5q-14 0 -23.5 9zM361.5 614q-9.5 9 -9.5 24q0 18 13.5 31.5t30.5 13.5q13 0 23 -9.5t10 -23.5q0 -20 -13 -32.5
t-31 -12.5q-14 0 -23.5 9z" />
    <glyph glyph-name="ygrave" unicode="&#x1ef3;" horiz-adv-x="486" 
d="M501.5 526.5q1.5 -1.5 -1.5 -9.5l-278 -550q-53 -105 -110.5 -160.5t-135.5 -55.5q-15 0 -30.5 3t-23.5 7q-7 3 -7 6q0 2 3 8l5 11q4 8 6 9t7 -1q20 -9 45 -9q59 0 108 45t101 148l-133 538l-1 6q0 4 3.5 5t9.5 1h17q9 0 10.5 -1.5t3.5 -7.5l67 -276l16 -66l35 -146
l98 201l144 286q3 7 6 8.5t12 1.5h13q9 0 10.5 -1.5zM289 588l-56 98q-1 1 -1 3q0 3 5.5 4t16.5 1h4q16 0 21 -1.5t7 -7.5l36 -97v-2q0 -4 -12 -4h-6q-11 0 -15 6z" />
    <glyph glyph-name="z" unicode="z" horiz-adv-x="436" 
d="M414.5 526q1.5 -2 0.5 -9l-1 -9q-1 -10 -9 -20l-348 -453h295q6 0 7 -2t0 -9l-2 -15q-1 -9 -8 -9h-335q-5 0 -6.5 2t-0.5 9l1 9q1 10 9 20l347 453h-270q-6 0 -7 2t0 9l2 15q1 9 8 9h311q5 0 6.5 -2z" />
    <glyph glyph-name="zacute" unicode="&#x17a;" horiz-adv-x="436" 
d="M414.5 526q1.5 -2 0.5 -9l-1 -9q-1 -10 -9 -20l-348 -453h295q6 0 7 -2t0 -9l-2 -15q-1 -9 -8 -9h-335q-5 0 -6.5 2t-0.5 9l1 9q1 10 9 20l347 453h-270q-6 0 -7 2t0 9l2 15q1 9 8 9h311q5 0 6.5 -2zM220 590l65 95q4 6 8.5 7.5t15.5 1.5h10q14 0 17 -1.5t-1 -6.5
l-86 -100q-4 -4 -16 -4h-5q-13 0 -8 8z" />
    <glyph glyph-name="zacute.loclPLK" horiz-adv-x="436" 
d="M414.5 526q1.5 -2 0.5 -9l-1 -9q-1 -10 -9 -20l-348 -453h295q6 0 7 -2t0 -9l-2 -15q-1 -9 -8 -9h-335q-5 0 -6.5 2t-0.5 9l1 9q1 10 9 20l347 453h-270q-6 0 -7 2t0 9l2 15q1 9 8 9h311q5 0 6.5 -2zM236 588l31 96q2 7 5.5 8.5t14.5 1.5h12q13 0 15.5 -1t0.5 -6l-48 -98
q-4 -7 -12 -7h-9q-12 0 -10 6z" />
    <glyph glyph-name="zcaron" unicode="&#x17e;" horiz-adv-x="436" 
d="M414.5 526q1.5 -2 0.5 -9l-1 -9q-1 -10 -9 -20l-348 -453h295q6 0 7 -2t0 -9l-2 -15q-1 -9 -8 -9h-335q-5 0 -6.5 2t-0.5 9l1 9q1 10 9 20l347 453h-270q-6 0 -7 2t0 9l2 15q1 9 8 9h311q5 0 6.5 -2zM401 687q0 -2 -3 -5l-111 -95q-6 -6 -11.5 -8t-14.5 -2h-16
q-9 0 -13 2t-9 8l-84 96q-3 3 -3 5q0 3 5 7l4 4q4 4 6.5 4t6.5 -3l100 -95l124 95q5 4 7 3.5t5 -4.5l4 -6q3 -4 3 -6z" />
    <glyph glyph-name="zdotaccent" unicode="&#x17c;" horiz-adv-x="436" 
d="M414.5 526q1.5 -2 0.5 -9l-1 -9q-1 -10 -9 -20l-348 -453h295q6 0 7 -2t0 -9l-2 -15q-1 -9 -8 -9h-335q-5 0 -6.5 2t-0.5 9l1 9q1 10 9 20l347 453h-270q-6 0 -7 2t0 9l2 15q1 9 8 9h311q5 0 6.5 -2zM239.5 614q-9.5 9 -9.5 24q0 18 13.5 31.5t30.5 13.5q13 0 23 -9.5
t10 -23.5q0 -20 -13 -32.5t-31 -12.5q-14 0 -23.5 9z" />
    <glyph glyph-name="a.sc" horiz-adv-x="570" 
d="M503 4q0 -4 -15 -4h-6q-10 0 -14.5 1t-5.5 5l-39 154h-310l-83 -155q-2 -3 -7 -4t-12 -1h-8q-10 0 -12.5 1.5t-0.5 6.5l309 565q3 6 8 7.5t17 1.5h8q11 0 15 -2t6 -9l150 -565v-2zM416 189l-92 362l-195 -362h287z" />
    <glyph glyph-name="a.ss01.sc" horiz-adv-x="570" 
d="M503 4q0 -4 -15 -4h-6q-10 0 -14.5 1t-5.5 5l-39 154h-310l-83 -155q-2 -3 -7 -4t-12 -1h-8q-10 0 -12.5 1.5t-0.5 6.5l309 565q3 6 8 7.5t17 1.5h8q11 0 15 -2t6 -9l150 -565v-2zM416 189l-92 362l-195 -362h287z" />
    <glyph glyph-name="aacute.sc" horiz-adv-x="570" 
d="M503 4q0 -4 -15 -4h-6q-10 0 -14.5 1t-5.5 5l-39 154h-310l-83 -155q-2 -3 -7 -4t-12 -1h-8q-10 0 -12.5 1.5t-0.5 6.5l309 565q3 6 8 7.5t17 1.5h8q11 0 15 -2t6 -9l150 -565v-2zM416 189l-92 362l-195 -362h287zM304 648l65 95q4 6 8.5 7.5t15.5 1.5h10q14 0 17 -1.5
t-1 -6.5l-86 -100q-4 -4 -16 -4h-5q-13 0 -8 8z" />
    <glyph glyph-name="aacute.ss01.sc" horiz-adv-x="570" 
d="M503 4q0 -4 -15 -4h-6q-10 0 -14.5 1t-5.5 5l-39 154h-310l-83 -155q-2 -3 -7 -4t-12 -1h-8q-10 0 -12.5 1.5t-0.5 6.5l309 565q3 6 8 7.5t17 1.5h8q11 0 15 -2t6 -9l150 -565v-2zM416 189l-92 362l-195 -362h287zM304 648l65 95q4 6 8.5 7.5t15.5 1.5h10q14 0 17 -1.5
t-1 -6.5l-86 -100q-4 -4 -16 -4h-5q-13 0 -8 8z" />
    <glyph glyph-name="abreve.sc" horiz-adv-x="570" 
d="M503 4q0 -4 -15 -4h-6q-10 0 -14.5 1t-5.5 5l-39 154h-310l-83 -155q-2 -3 -7 -4t-12 -1h-8q-10 0 -12.5 1.5t-0.5 6.5l309 565q3 6 8 7.5t17 1.5h8q11 0 15 -2t6 -9l150 -565v-2zM416 189l-92 362l-195 -362h287zM244.5 675q-33.5 28 -28.5 68q1 5 3.5 6t8.5 1h10
q7 0 9 -1t2 -5q-1 -32 24.5 -50.5t61.5 -18.5q84 0 102 69q1 4 3 5t9 1h11q11 0 10 -6q-6 -44 -43 -70.5t-93 -26.5t-89.5 28z" />
    <glyph glyph-name="abreve.ss01.sc" horiz-adv-x="570" 
d="M503 4q0 -4 -15 -4h-6q-10 0 -14.5 1t-5.5 5l-39 154h-310l-83 -155q-2 -3 -7 -4t-12 -1h-8q-10 0 -12.5 1.5t-0.5 6.5l309 565q3 6 8 7.5t17 1.5h8q11 0 15 -2t6 -9l150 -565v-2zM416 189l-92 362l-195 -362h287zM244.5 675q-33.5 28 -28.5 68q1 5 3.5 6t8.5 1h10
q7 0 9 -1t2 -5q-1 -32 24.5 -50.5t61.5 -18.5q84 0 102 69q1 4 3 5t9 1h11q11 0 10 -6q-6 -44 -43 -70.5t-93 -26.5t-89.5 28z" />
    <glyph glyph-name="uni01CE.sc" horiz-adv-x="570" 
d="M503 4q0 -4 -15 -4h-6q-10 0 -14.5 1t-5.5 5l-39 154h-310l-83 -155q-2 -3 -7 -4t-12 -1h-8q-10 0 -12.5 1.5t-0.5 6.5l309 565q3 6 8 7.5t17 1.5h8q11 0 15 -2t6 -9l150 -565v-2zM416 189l-92 362l-195 -362h287zM475 745q0 -2 -3 -5l-111 -95q-6 -6 -11.5 -8t-14.5 -2
h-16q-9 0 -13 2t-9 8l-84 96l-2 2t-1 3t5 7l4 4q4 4 6.5 4t6.5 -3l100 -95l124 95q5 4 7 3.5t5 -4.5l4 -6q3 -4 3 -6z" />
    <glyph glyph-name="uni01CE.ss01.sc" horiz-adv-x="570" 
d="M503 4q0 -4 -15 -4h-6q-10 0 -14.5 1t-5.5 5l-39 154h-310l-83 -155q-2 -3 -7 -4t-12 -1h-8q-10 0 -12.5 1.5t-0.5 6.5l309 565q3 6 8 7.5t17 1.5h8q11 0 15 -2t6 -9l150 -565v-2zM416 189l-92 362l-195 -362h287zM475 745q0 -2 -3 -5l-111 -95q-6 -6 -11.5 -8t-14.5 -2
h-16q-9 0 -13 2t-9 8l-84 96l-2 2t-1 3t5 7l4 4q4 4 6.5 4t6.5 -3l100 -95l124 95q5 4 7 3.5t5 -4.5l4 -6q3 -4 3 -6z" />
    <glyph glyph-name="acircumflex.sc" horiz-adv-x="570" 
d="M503 4q0 -4 -15 -4h-6q-10 0 -14.5 1t-5.5 5l-39 154h-310l-83 -155q-2 -3 -7 -4t-12 -1h-8q-10 0 -12.5 1.5t-0.5 6.5l309 565q3 6 8 7.5t17 1.5h8q11 0 15 -2t6 -9l150 -565v-2zM416 189l-92 362l-195 -362h287zM477 657q0 -2 -5 -7l-4 -4q-4 -4 -6.5 -4t-6.5 3l-98 95
l-126 -95q-5 -4 -7 -3.5t-5 4.5l-5 6q-4 4 -3.5 6t3.5 5l112 95q6 6 11.5 8t14.5 2h16q9 0 13 -2t9 -8l84 -96q3 -3 3 -5z" />
    <glyph glyph-name="acircumflex.ss01.sc" horiz-adv-x="570" 
d="M503 4q0 -4 -15 -4h-6q-10 0 -14.5 1t-5.5 5l-39 154h-310l-83 -155q-2 -3 -7 -4t-12 -1h-8q-10 0 -12.5 1.5t-0.5 6.5l309 565q3 6 8 7.5t17 1.5h8q11 0 15 -2t6 -9l150 -565v-2zM416 189l-92 362l-195 -362h287zM477 657q0 -2 -5 -7l-4 -4q-4 -4 -6.5 -4t-6.5 3l-98 95
l-126 -95q-5 -4 -7 -3.5t-5 4.5l-5 6q-4 4 -3.5 6t3.5 5l112 95q6 6 11.5 8t14.5 2h16q9 0 13 -2t9 -8l84 -96q3 -3 3 -5z" />
    <glyph glyph-name="adieresis.sc" horiz-adv-x="570" 
d="M503 4q0 -4 -15 -4h-6q-10 0 -14.5 1t-5.5 5l-39 154h-310l-83 -155q-2 -3 -7 -4t-12 -1h-8q-10 0 -12.5 1.5t-0.5 6.5l309 565q3 6 8 7.5t17 1.5h8q11 0 15 -2t6 -9l150 -565v-2zM416 189l-92 362l-195 -362h287zM218.5 672q-9.5 9 -9.5 24q0 18 13.5 31.5t30.5 13.5
q13 0 23 -9.5t10 -23.5q0 -20 -13 -32.5t-31 -12.5q-14 0 -23.5 9zM409.5 672q-9.5 9 -9.5 24q0 18 13.5 31.5t30.5 13.5q13 0 23 -9.5t10 -23.5q0 -20 -13 -32.5t-31 -12.5q-14 0 -23.5 9z" />
    <glyph glyph-name="adieresis.ss01.sc" horiz-adv-x="570" 
d="M503 4q0 -4 -15 -4h-6q-10 0 -14.5 1t-5.5 5l-39 154h-310l-83 -155q-2 -3 -7 -4t-12 -1h-8q-10 0 -12.5 1.5t-0.5 6.5l309 565q3 6 8 7.5t17 1.5h8q11 0 15 -2t6 -9l150 -565v-2zM416 189l-92 362l-195 -362h287zM218.5 672q-9.5 9 -9.5 24q0 18 13.5 31.5t30.5 13.5
q13 0 23 -9.5t10 -23.5q0 -20 -13 -32.5t-31 -12.5q-14 0 -23.5 9zM409.5 672q-9.5 9 -9.5 24q0 18 13.5 31.5t30.5 13.5q13 0 23 -9.5t10 -23.5q0 -20 -13 -32.5t-31 -12.5q-14 0 -23.5 9z" />
    <glyph glyph-name="agrave.sc" horiz-adv-x="570" 
d="M503 4q0 -4 -15 -4h-6q-10 0 -14.5 1t-5.5 5l-39 154h-310l-83 -155q-2 -3 -7 -4t-12 -1h-8q-10 0 -12.5 1.5t-0.5 6.5l309 565q3 6 8 7.5t17 1.5h8q11 0 15 -2t6 -9l150 -565v-2zM416 189l-92 362l-195 -362h287zM324 646l-56 98q-1 1 -1 3q0 3 5.5 4t16.5 1h4
q16 0 21 -1.5t7 -7.5l36 -97l1 -2q-1 -4 -13 -4h-6q-11 0 -15 6z" />
    <glyph glyph-name="agrave.ss01.sc" horiz-adv-x="570" 
d="M503 4q0 -4 -15 -4h-6q-10 0 -14.5 1t-5.5 5l-39 154h-310l-83 -155q-2 -3 -7 -4t-12 -1h-8q-10 0 -12.5 1.5t-0.5 6.5l309 565q3 6 8 7.5t17 1.5h8q11 0 15 -2t6 -9l150 -565v-2zM416 189l-92 362l-195 -362h287zM324 646l-56 98q-1 1 -1 3q0 3 5.5 4t16.5 1h4
q16 0 21 -1.5t7 -7.5l36 -97l1 -2q-1 -4 -13 -4h-6q-11 0 -15 6z" />
    <glyph glyph-name="amacron.sc" horiz-adv-x="570" 
d="M503 4q0 -4 -15 -4h-6q-10 0 -14.5 1t-5.5 5l-39 154h-310l-83 -155q-2 -3 -7 -4t-12 -1h-8q-10 0 -12.5 1.5t-0.5 6.5l309 565q3 6 8 7.5t17 1.5h8q11 0 15 -2t6 -9l150 -565v-2zM416 189l-92 362l-195 -362h287zM211 691q-1 2 0 8l2 14q1 8 8 8h248q6 0 7 -2t0 -8
l-2 -14q-1 -8 -8 -8h-248q-6 0 -7 2z" />
    <glyph glyph-name="amacron.ss01.sc" horiz-adv-x="570" 
d="M503 4q0 -4 -15 -4h-6q-10 0 -14.5 1t-5.5 5l-39 154h-310l-83 -155q-2 -3 -7 -4t-12 -1h-8q-10 0 -12.5 1.5t-0.5 6.5l309 565q3 6 8 7.5t17 1.5h8q11 0 15 -2t6 -9l150 -565v-2zM416 189l-92 362l-195 -362h287zM211 691q-1 2 0 8l2 14q1 8 8 8h248q6 0 7 -2t0 -8
l-2 -14q-1 -8 -8 -8h-248q-6 0 -7 2z" />
    <glyph glyph-name="aogonek.sc" horiz-adv-x="570" 
d="M503 6q0 -3 -2.5 -5.5t-8.5 -4.5q-50 -25 -81 -64.5t-31 -85.5q0 -19 11.5 -30.5t33.5 -11.5q13 0 26.5 3t20.5 7l4 1q3 0 2 -8l-1 -7q-1 -6 -3 -9t-9 -6q-25 -11 -55 -11q-35 0 -54.5 19t-19.5 51q0 43 35 87.5t91 73.5l-39 155h-310l-83 -155q-2 -3 -7 -4t-12 -1h-8
q-10 0 -12.5 1.5t-0.5 6.5l309 565q3 6 8 7.5t17 1.5h8q11 0 15 -2t6 -9l150 -563v-2zM416 189l-92 362l-195 -362h287z" />
    <glyph glyph-name="aogonek.ss01.sc" horiz-adv-x="570" 
d="M503 6q0 -3 -2.5 -5.5t-8.5 -4.5q-50 -25 -81 -64.5t-31 -85.5q0 -19 11.5 -30.5t33.5 -11.5q13 0 26.5 3t20.5 7l4 1q3 0 2 -8l-1 -7q-1 -6 -3 -9t-9 -6q-25 -11 -55 -11q-35 0 -54.5 19t-19.5 51q0 43 35 87.5t91 73.5l-39 155h-310l-83 -155q-2 -3 -7 -4t-12 -1h-8
q-10 0 -12.5 1.5t-0.5 6.5l309 565q3 6 8 7.5t17 1.5h8q11 0 15 -2t6 -9l150 -563v-2zM416 189l-92 362l-195 -362h287z" />
    <glyph glyph-name="aring.sc" horiz-adv-x="570" 
d="M503 4q0 -4 -15 -4h-6q-10 0 -14.5 1t-5.5 5l-39 154h-310l-83 -155q-2 -3 -7 -4t-12 -1h-8q-10 0 -12.5 1.5t-0.5 6.5l307 562q-22 7 -34 24t-12 40q0 39 29 67t68 28q35 0 55 -19.5t20 -50.5t-20 -55.5t-49 -33.5l149 -564v-2zM297 605.5q11 -11.5 32 -11.5q27 0 43 18
t16 45q0 20 -11.5 32t-32.5 12q-27 0 -42.5 -18.5t-15.5 -46.5q0 -19 11 -30.5zM416 189l-92 362l-195 -362h287z" />
    <glyph glyph-name="aring.ss01.sc" horiz-adv-x="570" 
d="M503 4q0 -4 -15 -4h-6q-10 0 -14.5 1t-5.5 5l-39 154h-310l-83 -155q-2 -3 -7 -4t-12 -1h-8q-10 0 -12.5 1.5t-0.5 6.5l307 562q-22 7 -34 24t-12 40q0 39 29 67t68 28q35 0 55 -19.5t20 -50.5t-20 -55.5t-49 -33.5l149 -564v-2zM297 605.5q11 -11.5 32 -11.5q27 0 43 18
t16 45q0 20 -11.5 32t-32.5 12q-27 0 -42.5 -18.5t-15.5 -46.5q0 -19 11 -30.5zM416 189l-92 362l-195 -362h287z" />
    <glyph glyph-name="aringacute.sc" horiz-adv-x="570" 
d="M503 4q0 -4 -15 -4h-6q-10 0 -14.5 1t-5.5 5l-39 154h-310l-83 -155q-2 -3 -7 -4t-12 -1h-8q-10 0 -12.5 1.5t-0.5 6.5l307 562q-22 7 -34 24t-12 40q0 39 29 67t68 28q35 0 55 -19.5t20 -50.5t-20 -55.5t-49 -33.5l149 -564v-2zM297 605.5q11 -11.5 32 -11.5q27 0 43 18
t16 45q0 20 -11.5 32t-32.5 12q-27 0 -42.5 -18.5t-15.5 -46.5q0 -19 11 -30.5zM416 189l-92 362l-195 -362h287zM325 782l65 95q4 6 8.5 7.5t15.5 1.5h10q14 0 17 -1.5t-1 -6.5l-86 -100q-4 -4 -16 -4h-5q-13 0 -8 8z" />
    <glyph glyph-name="aringacute.ss01.sc" horiz-adv-x="570" 
d="M503 4q0 -4 -15 -4h-6q-10 0 -14.5 1t-5.5 5l-39 154h-310l-83 -155q-2 -3 -7 -4t-12 -1h-8q-10 0 -12.5 1.5t-0.5 6.5l307 562q-22 7 -34 24t-12 40q0 39 29 67t68 28q35 0 55 -19.5t20 -50.5t-20 -55.5t-49 -33.5l149 -564v-2zM297 605.5q11 -11.5 32 -11.5q27 0 43 18
t16 45q0 20 -11.5 32t-32.5 12q-27 0 -42.5 -18.5t-15.5 -46.5q0 -19 11 -30.5zM416 189l-92 362l-195 -362h287zM325 782l65 95q4 6 8.5 7.5t15.5 1.5h10q14 0 17 -1.5t-1 -6.5l-86 -100q-4 -4 -16 -4h-5q-13 0 -8 8z" />
    <glyph glyph-name="atilde.sc" horiz-adv-x="570" 
d="M503 4q0 -4 -15 -4h-6q-10 0 -14.5 1t-5.5 5l-39 154h-310l-83 -155q-2 -3 -7 -4t-12 -1h-8q-10 0 -12.5 1.5t-0.5 6.5l309 565q3 6 8 7.5t17 1.5h8q11 0 15 -2t6 -9l150 -565v-2zM416 189l-92 362l-195 -362h287zM370 684q-14 5 -33 15q-17 9 -30.5 14t-29.5 5
q-14 0 -26 -6t-33 -23q-4 -4 -8 2l-7 9q-3 4 -2 5.5t4 4.5q13 15 35 26t46 11q20 0 35 -5t32 -15t30 -14.5t29 -4.5q14 0 26 6t33 23q4 4 8 -2l7 -9q3 -4 2 -5.5t-4 -4.5q-13 -15 -35 -26t-46 -11q-19 0 -33 5z" />
    <glyph glyph-name="atilde.ss01.sc" horiz-adv-x="570" 
d="M503 4q0 -4 -15 -4h-6q-10 0 -14.5 1t-5.5 5l-39 154h-310l-83 -155q-2 -3 -7 -4t-12 -1h-8q-10 0 -12.5 1.5t-0.5 6.5l309 565q3 6 8 7.5t17 1.5h8q11 0 15 -2t6 -9l150 -565v-2zM416 189l-92 362l-195 -362h287zM370 684q-14 5 -33 15q-17 9 -30.5 14t-29.5 5
q-14 0 -26 -6t-33 -23q-4 -4 -8 2l-7 9q-3 4 -2 5.5t4 4.5q13 15 35 26t46 11q20 0 35 -5t32 -15t30 -14.5t29 -4.5q14 0 26 6t33 23q4 4 8 -2l7 -9q3 -4 2 -5.5t-4 -4.5q-13 -15 -35 -26t-46 -11q-19 0 -33 5z" />
    <glyph glyph-name="ae.sc" horiz-adv-x="815" 
d="M792 580q1 -2 0 -11l-1 -6q-1 -7 -2.5 -9t-5.5 -2h-307l-34 -242h260q5 0 6 -2t0 -11l-1 -6q-1 -7 -2.5 -9t-5.5 -2h-261l-35 -250h311q5 0 6 -2t0 -11l-1 -6q-1 -7 -2.5 -9t-5.5 -2h-351l24 168h-243l-126 -162q-3 -4 -7 -5t-11 -1h-13q-8 0 -10 1.5t2 6.5l443 566
q4 5 7.5 6.5t13.5 1.5h346q5 0 6 -2zM437 547l-271 -348h222z" />
    <glyph glyph-name="aeacute.sc" horiz-adv-x="815" 
d="M792 580q1 -2 0 -11l-1 -6q-1 -7 -2.5 -9t-5.5 -2h-307l-34 -242h260q5 0 6 -2t0 -11l-1 -6q-1 -7 -2.5 -9t-5.5 -2h-261l-35 -250h311q5 0 6 -2t0 -11l-1 -6q-1 -7 -2.5 -9t-5.5 -2h-351l24 168h-243l-126 -162q-3 -4 -7 -5t-11 -1h-13q-8 0 -10 1.5t2 6.5l443 566
q4 5 7.5 6.5t13.5 1.5h346q5 0 6 -2zM437 547l-271 -348h222zM497 648l65 95q4 6 8.5 7.5t15.5 1.5h10q14 0 17 -1.5t-1 -6.5l-86 -100q-4 -4 -16 -4h-5q-13 0 -8 8z" />
    <glyph glyph-name="b.sc" horiz-adv-x="522" 
d="M434 261.5q34 -33.5 34 -81.5q0 -87 -69 -133.5t-184 -46.5h-177l82 582h166q89 0 137.5 -29.5t48.5 -92.5q0 -55 -36.5 -100t-90.5 -57q55 -8 89 -41.5zM121 314h119q88 0 139 38t51 105q0 54 -40 74.5t-113 20.5h-122zM368 66.5q57 36.5 57 112.5q0 107 -184 107h-124
l-36 -256h125q105 0 162 36.5z" />
    <glyph glyph-name="c.sc" horiz-adv-x="528" 
d="M109.5 55q-60.5 63 -60.5 172q0 99 38.5 181.5t112.5 132t178 49.5q79 0 134 -30q6 -3 6.5 -4.5t-2.5 -6.5l-8 -13q-3 -5 -5 -5t-8 2q-53 26 -116 26q-93 0 -158 -44.5t-97.5 -118.5t-32.5 -164q0 -103 52 -156t154 -53q70 0 130 22q8 3 10 2.5t3 -6.5l2 -12v-5
q0 -6 -6 -8q-66 -24 -153 -24q-113 0 -173.5 63z" />
    <glyph glyph-name="cacute.loclPLK.sc" horiz-adv-x="528" 
d="M109.5 55q-60.5 63 -60.5 172q0 99 38.5 181.5t112.5 132t178 49.5q79 0 134 -30q6 -3 6.5 -4.5t-2.5 -6.5l-8 -13q-3 -5 -5 -5t-8 2q-53 26 -116 26q-93 0 -158 -44.5t-97.5 -118.5t-32.5 -164q0 -103 52 -156t154 -53q70 0 130 22q8 3 10 2.5t3 -6.5l2 -12v-5
q0 -6 -6 -8q-66 -24 -153 -24q-113 0 -173.5 63zM350 649l31 96q2 7 5.5 8.5t14.5 1.5h12q13 0 15.5 -1t0.5 -6l-48 -98q-3 -7 -12 -7h-9q-11 0 -10 6z" />
    <glyph glyph-name="cacute.sc" horiz-adv-x="528" 
d="M109.5 55q-60.5 63 -60.5 172q0 99 38.5 181.5t112.5 132t178 49.5q79 0 134 -30q6 -3 6.5 -4.5t-2.5 -6.5l-8 -13q-3 -5 -5 -5t-8 2q-53 26 -116 26q-93 0 -158 -44.5t-97.5 -118.5t-32.5 -164q0 -103 52 -156t154 -53q70 0 130 22q8 3 10 2.5t3 -6.5l2 -12v-5
q0 -6 -6 -8q-66 -24 -153 -24q-113 0 -173.5 63zM352 648l65 95q4 6 8.5 7.5t15.5 1.5h10q14 0 17 -1.5t-1 -6.5l-86 -100q-4 -4 -16 -4h-5q-13 0 -8 8z" />
    <glyph glyph-name="ccaron.sc" horiz-adv-x="528" 
d="M109.5 55q-60.5 63 -60.5 172q0 99 38.5 181.5t112.5 132t178 49.5q79 0 134 -30q6 -3 6.5 -4.5t-2.5 -6.5l-8 -13q-3 -5 -5 -5t-8 2q-53 26 -116 26q-93 0 -158 -44.5t-97.5 -118.5t-32.5 -164q0 -103 52 -156t154 -53q70 0 130 22q8 3 10 2.5t3 -6.5l2 -12v-5
q0 -6 -6 -8q-66 -24 -153 -24q-113 0 -173.5 63zM523 745q0 -2 -3 -5l-111 -95q-6 -6 -11.5 -8t-14.5 -2h-16q-9 0 -13 2t-9 8l-84 96l-2 2t-1 3t5 7l4 4q4 4 6.5 4t6.5 -3l100 -95l124 95q5 4 7 3.5t5 -4.5l4 -6q3 -4 3 -6z" />
    <glyph glyph-name="ccedilla.sc" horiz-adv-x="528" 
d="M518.5 555.5q0.5 -1.5 -2.5 -6.5l-8 -13q-3 -5 -5 -5t-8 2q-53 26 -116 26q-93 0 -158 -44.5t-97.5 -118.5t-32.5 -164q0 -103 52 -156t154 -53q70 0 130 22q8 3 10 2.5t3 -6.5l2 -12v-5q0 -6 -6 -8q-60 -22 -140 -24l-16 -58q12 3 29 3q34 0 53.5 -17t19.5 -46
q0 -40 -28 -67t-87 -27q-17 0 -35.5 4t-26.5 8q-4 3 -2 9l3 7q2 5 3.5 7.5t3.5 1.5q28 -10 57 -10q33 0 53.5 13.5t20.5 44.5q0 20 -15 31t-39 11q-29 0 -55 -8l28 94q-103 5 -158.5 67.5t-55.5 166.5q0 99 38.5 181.5t112.5 132t178 49.5q79 0 134 -30q6 -3 6.5 -4.5z" />
    <glyph glyph-name="ccircumflex.sc" horiz-adv-x="528" 
d="M109.5 55q-60.5 63 -60.5 172q0 99 38.5 181.5t112.5 132t178 49.5q79 0 134 -30q6 -3 6.5 -4.5t-2.5 -6.5l-8 -13q-3 -5 -5 -5t-8 2q-53 26 -116 26q-93 0 -158 -44.5t-97.5 -118.5t-32.5 -164q0 -103 52 -156t154 -53q70 0 130 22q8 3 10 2.5t3 -6.5l2 -12v-5
q0 -6 -6 -8q-66 -24 -153 -24q-113 0 -173.5 63zM525 657q0 -2 -5 -7l-4 -4q-4 -4 -6.5 -4t-6.5 3l-98 95l-126 -95q-5 -4 -7 -3.5t-5 4.5l-5 6q-4 4 -3.5 6t3.5 5l112 95q6 6 11.5 8t14.5 2h16q9 0 13 -2t9 -8l84 -96q3 -3 3 -5z" />
    <glyph glyph-name="cdotaccent.sc" horiz-adv-x="528" 
d="M109.5 55q-60.5 63 -60.5 172q0 99 38.5 181.5t112.5 132t178 49.5q79 0 134 -30q6 -3 6.5 -4.5t-2.5 -6.5l-8 -13q-3 -5 -5 -5t-8 2q-53 26 -116 26q-93 0 -158 -44.5t-97.5 -118.5t-32.5 -164q0 -103 52 -156t154 -53q70 0 130 22q8 3 10 2.5t3 -6.5l2 -12v-5
q0 -6 -6 -8q-66 -24 -153 -24q-113 0 -173.5 63zM361.5 672q-9.5 9 -9.5 24q0 18 13.5 31.5t30.5 13.5q13 0 23 -9.5t10 -23.5q0 -20 -13 -32.5t-31 -12.5q-14 0 -23.5 9z" />
    <glyph glyph-name="d.sc" horiz-adv-x="594" 
d="M120 582h139q141 0 216.5 -57t75.5 -175q0 -89 -27.5 -157.5t-82.5 -114.5q-94 -78 -261 -78h-142zM163 29q91 0 150.5 19t103.5 57q46 40 69 102.5t23 140.5q0 107 -66.5 155.5t-197.5 48.5h-90l-74 -523h82z" />
    <glyph glyph-name="eth.sc" horiz-adv-x="594" 
d="M475.5 525q75.5 -57 75.5 -175q0 -89 -27.5 -157.5t-82.5 -114.5q-94 -78 -261 -78h-142l39 280h-44q-5 0 -6 2t0 10l1 6q1 7 2.5 8.5t5.5 1.5h45l39 274h139q141 0 216.5 -57zM486 207.5q23 62.5 23 140.5q0 107 -66.5 155.5t-197.5 48.5h-90l-35 -244h161q5 0 6 -2
t0 -10l-1 -6q-1 -7 -2.5 -8.5t-5.5 -1.5h-161l-36 -251h82q91 0 150.5 19t103.5 57q46 40 69 102.5z" />
    <glyph glyph-name="dcaron.sc" horiz-adv-x="594" 
d="M120 582h139q141 0 216.5 -57t75.5 -175q0 -89 -27.5 -157.5t-82.5 -114.5q-94 -78 -261 -78h-142zM163 29q91 0 150.5 19t103.5 57q46 40 69 102.5t23 140.5q0 107 -66.5 155.5t-197.5 48.5h-90l-74 -523h82zM467 745q0 -2 -3 -5l-111 -95q-6 -6 -11.5 -8t-14.5 -2h-16
q-9 0 -13 2t-9 8l-84 96l-2 2t-1 3t5 7l4 4q4 4 6.5 4t6.5 -3l100 -95l124 95q5 4 7 3.5t5 -4.5l4 -6q3 -4 3 -6z" />
    <glyph glyph-name="dcroat.sc" horiz-adv-x="594" 
d="M475.5 525q75.5 -57 75.5 -175q0 -89 -27.5 -157.5t-82.5 -114.5q-94 -78 -261 -78h-142l39 280h-44q-5 0 -6 2t0 10l1 6q1 7 2.5 8.5t5.5 1.5h45l39 274h139q141 0 216.5 -57zM486 207.5q23 62.5 23 140.5q0 107 -66.5 155.5t-197.5 48.5h-90l-35 -244h161q5 0 6 -2
t0 -10l-1 -6q-1 -7 -2.5 -8.5t-5.5 -1.5h-161l-36 -251h82q91 0 150.5 19t103.5 57q46 40 69 102.5z" />
    <glyph glyph-name="e.sc" horiz-adv-x="494" 
d="M471 580q1 -2 0 -11l-1 -6q-1 -7 -2.5 -9t-5.5 -2h-307l-34 -242h260q5 0 6 -2t0 -11l-1 -6q-1 -7 -2.5 -9t-5.5 -2h-261l-35 -250h311q5 0 6 -2t0 -11l-1 -6q-1 -7 -2.5 -9t-5.5 -2h-351l81 582h345q5 0 6 -2z" />
    <glyph glyph-name="eacute.sc" horiz-adv-x="494" 
d="M471 580q1 -2 0 -11l-1 -6q-1 -7 -2.5 -9t-5.5 -2h-307l-34 -242h260q5 0 6 -2t0 -11l-1 -6q-1 -7 -2.5 -9t-5.5 -2h-261l-35 -250h311q5 0 6 -2t0 -11l-1 -6q-1 -7 -2.5 -9t-5.5 -2h-351l81 582h345q5 0 6 -2zM278 648l65 95q4 6 8.5 7.5t15.5 1.5h10q14 0 17 -1.5
t-1 -6.5l-86 -100q-4 -4 -16 -4h-5q-13 0 -8 8z" />
    <glyph glyph-name="ebreve.sc" horiz-adv-x="494" 
d="M471 580q1 -2 0 -11l-1 -6q-1 -7 -2.5 -9t-5.5 -2h-307l-34 -242h260q5 0 6 -2t0 -11l-1 -6q-1 -7 -2.5 -9t-5.5 -2h-261l-35 -250h311q5 0 6 -2t0 -11l-1 -6q-1 -7 -2.5 -9t-5.5 -2h-351l81 582h345q5 0 6 -2zM218.5 675q-33.5 28 -28.5 68q1 5 3.5 6t8.5 1h10q7 0 9 -1
t2 -5q-1 -32 24.5 -50.5t61.5 -18.5q84 0 102 69q1 4 3 5t9 1h11q11 0 10 -6q-6 -44 -43 -70.5t-93 -26.5t-89.5 28z" />
    <glyph glyph-name="ecaron.sc" horiz-adv-x="494" 
d="M471 580q1 -2 0 -11l-1 -6q-1 -7 -2.5 -9t-5.5 -2h-307l-34 -242h260q5 0 6 -2t0 -11l-1 -6q-1 -7 -2.5 -9t-5.5 -2h-261l-35 -250h311q5 0 6 -2t0 -11l-1 -6q-1 -7 -2.5 -9t-5.5 -2h-351l81 582h345q5 0 6 -2zM449 745q0 -2 -3 -5l-111 -95q-6 -6 -11.5 -8t-14.5 -2h-16
q-9 0 -13 2t-9 8l-84 96l-2 2t-1 3t5 7l4 4q4 4 6.5 4t6.5 -3l100 -95l124 95q5 4 7 3.5t5 -4.5l4 -6q3 -4 3 -6z" />
    <glyph glyph-name="ecircumflex.sc" horiz-adv-x="494" 
d="M471 580q1 -2 0 -11l-1 -6q-1 -7 -2.5 -9t-5.5 -2h-307l-34 -242h260q5 0 6 -2t0 -11l-1 -6q-1 -7 -2.5 -9t-5.5 -2h-261l-35 -250h311q5 0 6 -2t0 -11l-1 -6q-1 -7 -2.5 -9t-5.5 -2h-351l81 582h345q5 0 6 -2zM451 657q0 -2 -5 -7l-4 -4q-4 -4 -6.5 -4t-6.5 3l-98 95
l-126 -95q-5 -4 -7 -3.5t-5 4.5l-5 6q-4 4 -3.5 6t3.5 5l112 95q6 6 11.5 8t14.5 2h16q9 0 13 -2t9 -8l84 -96q3 -3 3 -5z" />
    <glyph glyph-name="edieresis.sc" horiz-adv-x="494" 
d="M471 580q1 -2 0 -11l-1 -6q-1 -7 -2.5 -9t-5.5 -2h-307l-34 -242h260q5 0 6 -2t0 -11l-1 -6q-1 -7 -2.5 -9t-5.5 -2h-261l-35 -250h311q5 0 6 -2t0 -11l-1 -6q-1 -7 -2.5 -9t-5.5 -2h-351l81 582h345q5 0 6 -2zM192.5 672q-9.5 9 -9.5 24q0 18 13.5 31.5t30.5 13.5
q13 0 23 -9.5t10 -23.5q0 -20 -13 -32.5t-31 -12.5q-14 0 -23.5 9zM383.5 672q-9.5 9 -9.5 24q0 18 13.5 31.5t30.5 13.5q13 0 23 -9.5t10 -23.5q0 -20 -13 -32.5t-31 -12.5q-14 0 -23.5 9z" />
    <glyph glyph-name="edotaccent.sc" horiz-adv-x="494" 
d="M471 580q1 -2 0 -11l-1 -6q-1 -7 -2.5 -9t-5.5 -2h-307l-34 -242h260q5 0 6 -2t0 -11l-1 -6q-1 -7 -2.5 -9t-5.5 -2h-261l-35 -250h311q5 0 6 -2t0 -11l-1 -6q-1 -7 -2.5 -9t-5.5 -2h-351l81 582h345q5 0 6 -2zM287.5 672q-9.5 9 -9.5 24q0 18 13.5 31.5t30.5 13.5
q13 0 23 -9.5t10 -23.5q0 -20 -13 -32.5t-31 -12.5q-14 0 -23.5 9z" />
    <glyph glyph-name="egrave.sc" horiz-adv-x="494" 
d="M471 580q1 -2 0 -11l-1 -6q-1 -7 -2.5 -9t-5.5 -2h-307l-34 -242h260q5 0 6 -2t0 -11l-1 -6q-1 -7 -2.5 -9t-5.5 -2h-261l-35 -250h311q5 0 6 -2t0 -11l-1 -6q-1 -7 -2.5 -9t-5.5 -2h-351l81 582h345q5 0 6 -2zM298 646l-56 98q-1 1 -1 3q0 3 5.5 4t16.5 1h4
q16 0 21 -1.5t7 -7.5l36 -97l1 -2q-1 -4 -13 -4h-6q-11 0 -15 6z" />
    <glyph glyph-name="emacron.sc" horiz-adv-x="494" 
d="M471 580q1 -2 0 -11l-1 -6q-1 -7 -2.5 -9t-5.5 -2h-307l-34 -242h260q5 0 6 -2t0 -11l-1 -6q-1 -7 -2.5 -9t-5.5 -2h-261l-35 -250h311q5 0 6 -2t0 -11l-1 -6q-1 -7 -2.5 -9t-5.5 -2h-351l81 582h345q5 0 6 -2zM185 691q-1 2 0 8l2 14q1 8 8 8h248q6 0 7 -2t0 -8l-2 -14
q-1 -8 -8 -8h-248q-6 0 -7 2z" />
    <glyph glyph-name="eogonek.sc" horiz-adv-x="494" 
d="M471 580q1 -2 0 -11l-1 -6q-1 -7 -2.5 -9t-5.5 -2h-307l-34 -242h260q5 0 6 -2t0 -11l-1 -6q-1 -7 -2.5 -9t-5.5 -2h-261l-35 -250h311q5 0 6 -2t0 -11l-1 -6q-1 -8 -11 -13q-54 -28 -85.5 -67.5t-31.5 -86.5q0 -18 11.5 -29.5t33.5 -11.5q13 0 26.5 3t20.5 7l4 1
q3 0 2 -8l-1 -7q-1 -6 -3 -8.5t-9 -6.5q-22 -11 -55 -11q-35 0 -54.5 19t-19.5 50q0 44 34 86t94 72h-315l81 582h345q5 0 6 -2z" />
    <glyph glyph-name="f.sc" horiz-adv-x="451" 
d="M454 580q1 -2 0 -11l-1 -6q-1 -7 -2.5 -9t-5.5 -2h-290l-34 -242h243q5 0 6 -2t0 -11l-1 -6q-1 -7 -2.5 -9t-5.5 -2h-244l-39 -274q-1 -4 -3.5 -5t-12.5 -1h-8q-10 0 -13 1.5t-2 6.5l81 574h328q5 0 6 -2z" />
    <glyph glyph-name="f_f.liga.sc" horiz-adv-x="902" 
d="M454 580q1 -2 0 -11l-1 -6q-1 -7 -2.5 -9t-5.5 -2h-290l-34 -242h243q5 0 6 -2t0 -11l-1 -6q-1 -7 -2.5 -9t-5.5 -2h-244l-39 -274q-1 -4 -3.5 -5t-12.5 -1h-8q-10 0 -13 1.5t-2 6.5l81 574h328q5 0 6 -2zM905 580q1 -2 0 -11l-1 -6q-1 -7 -2.5 -9t-5.5 -2h-290l-34 -242
h243q5 0 6 -2t0 -11l-1 -6q-1 -7 -2.5 -9t-5.5 -2h-244l-39 -274q-1 -4 -3.5 -5t-12.5 -1h-8q-10 0 -13 1.5t-2 6.5l81 574h328q5 0 6 -2z" />
    <glyph glyph-name="f_f_i.liga.sc" horiz-adv-x="1096" 
d="M454 580q1 -2 0 -11l-1 -6q-1 -7 -2.5 -9t-5.5 -2h-290l-34 -242h243q5 0 6 -2t0 -11l-1 -6q-1 -7 -2.5 -9t-5.5 -2h-244l-39 -274q-1 -4 -3.5 -5t-12.5 -1h-8q-10 0 -13 1.5t-2 6.5l81 574h328q5 0 6 -2zM905 580q1 -2 0 -11l-1 -6q-1 -7 -2.5 -9t-5.5 -2h-290l-34 -242
h243q5 0 6 -2t0 -11l-1 -6q-1 -7 -2.5 -9t-5.5 -2h-244l-39 -274q-1 -4 -3.5 -5t-12.5 -1h-8q-10 0 -13 1.5t-2 6.5l81 574h328q5 0 6 -2zM943 2q-3 2 -2 7l80 566q1 4 4 5.5t11 1.5h8q11 0 14 -1.5t2 -6.5l-80 -568q-1 -4 -5 -5t-11 -1h-9q-9 0 -12 2z" />
    <glyph glyph-name="f_f_l.liga.sc" horiz-adv-x="1341" 
d="M454 580q1 -2 0 -11l-1 -6q-1 -7 -2.5 -9t-5.5 -2h-290l-34 -242h243q5 0 6 -2t0 -11l-1 -6q-1 -7 -2.5 -9t-5.5 -2h-244l-39 -274q-1 -4 -3.5 -5t-12.5 -1h-8q-10 0 -13 1.5t-2 6.5l81 574h328q5 0 6 -2zM905 580q1 -2 0 -11l-1 -6q-1 -7 -2.5 -9t-5.5 -2h-290l-34 -242
h243q5 0 6 -2t0 -11l-1 -6q-1 -7 -2.5 -9t-5.5 -2h-244l-39 -274q-1 -4 -3.5 -5t-12.5 -1h-8q-10 0 -13 1.5t-2 6.5l81 574h328q5 0 6 -2zM943.5 2q-3.5 2 -2.5 7l80 566q1 4 4 5.5t12 1.5h8q10 0 13 -1.5t2 -6.5l-77 -544h287q5 0 6 -2t0 -11l-1 -6q-1 -7 -2.5 -9t-5.5 -2
h-310q-10 0 -13.5 2z" />
    <glyph glyph-name="fi.sc" horiz-adv-x="645" 
d="M454 580q1 -2 0 -11l-1 -6q-1 -7 -2.5 -9t-5.5 -2h-290l-34 -242h243q5 0 6 -2t0 -11l-1 -6q-1 -7 -2.5 -9t-5.5 -2h-244l-39 -274q-1 -4 -3.5 -5t-12.5 -1h-8q-10 0 -13 1.5t-2 6.5l81 574h328q5 0 6 -2zM492 2q-3 2 -2 7l80 566q1 4 4 5.5t11 1.5h8q11 0 14 -1.5
t2 -6.5l-80 -568q-1 -4 -5 -5t-11 -1h-9q-9 0 -12 2z" />
    <glyph glyph-name="fl.sc" horiz-adv-x="890" 
d="M454 580q1 -2 0 -11l-1 -6q-1 -7 -2.5 -9t-5.5 -2h-290l-34 -242h243q5 0 6 -2t0 -11l-1 -6q-1 -7 -2.5 -9t-5.5 -2h-244l-39 -274q-1 -4 -3.5 -5t-12.5 -1h-8q-10 0 -13 1.5t-2 6.5l81 574h328q5 0 6 -2zM492.5 2q-3.5 2 -2.5 7l80 566q1 4 4 5.5t12 1.5h8q10 0 13 -1.5
t2 -6.5l-77 -544h287q5 0 6 -2t0 -11l-1 -6q-1 -7 -2.5 -9t-5.5 -2h-310q-10 0 -13.5 2z" />
    <glyph glyph-name="g.sc" horiz-adv-x="593" 
d="M115.5 56q-65.5 64 -65.5 175q0 98 40.5 180t116.5 130.5t176 48.5q90 0 158 -41q5 -3 5 -4.5t-2 -6.5l-7 -11q-4 -5 -6.5 -5.5t-7.5 2.5q-34 19 -68 27t-76 8q-112 0 -186 -69q-49 -45 -75 -112.5t-26 -145.5q0 -103 58 -156.5t167 -53.5q74 0 144 25l31 219h-169
q-5 0 -6 2t0 7l2 12q1 8 7 8h206l-37 -266q-42 -19 -90.5 -28t-95.5 -9q-128 0 -193.5 64z" />
    <glyph glyph-name="gbreve.sc" horiz-adv-x="593" 
d="M115.5 56q-65.5 64 -65.5 175q0 98 40.5 180t116.5 130.5t176 48.5q90 0 158 -41q5 -3 5 -4.5t-2 -6.5l-7 -11q-4 -5 -6.5 -5.5t-7.5 2.5q-34 19 -68 27t-76 8q-112 0 -186 -69q-49 -45 -75 -112.5t-26 -145.5q0 -103 58 -156.5t167 -53.5q74 0 144 25l31 219h-169
q-5 0 -6 2t0 7l2 12q1 8 7 8h206l-37 -266q-42 -19 -90.5 -28t-95.5 -9q-128 0 -193.5 64zM296.5 675q-33.5 28 -28.5 68q1 5 3.5 6t8.5 1h10q7 0 9 -1t2 -5q-1 -32 24.5 -50.5t61.5 -18.5q84 0 102 69q1 4 3 5t9 1h11q11 0 10 -6q-6 -44 -43 -70.5t-93 -26.5t-89.5 28z" />
    <glyph glyph-name="gcircumflex.sc" horiz-adv-x="593" 
d="M115.5 56q-65.5 64 -65.5 175q0 98 40.5 180t116.5 130.5t176 48.5q90 0 158 -41q5 -3 5 -4.5t-2 -6.5l-7 -11q-4 -5 -6.5 -5.5t-7.5 2.5q-34 19 -68 27t-76 8q-112 0 -186 -69q-49 -45 -75 -112.5t-26 -145.5q0 -103 58 -156.5t167 -53.5q74 0 144 25l31 219h-169
q-5 0 -6 2t0 7l2 12q1 8 7 8h206l-37 -266q-42 -19 -90.5 -28t-95.5 -9q-128 0 -193.5 64zM529 657q0 -2 -5 -7l-4 -4q-4 -4 -6.5 -4t-6.5 3l-98 95l-126 -95q-5 -4 -7 -3.5t-5 4.5l-5 6q-4 4 -3.5 6t3.5 5l112 95q6 6 11.5 8t14.5 2h16q9 0 13 -2t9 -8l84 -96q3 -3 3 -5z
" />
    <glyph glyph-name="gcommaaccent.sc" horiz-adv-x="593" 
d="M115.5 56q-65.5 64 -65.5 175q0 98 40.5 180t116.5 130.5t176 48.5q90 0 158 -41q5 -3 5 -4.5t-2 -6.5l-7 -11q-4 -5 -6.5 -5.5t-7.5 2.5q-34 19 -68 27t-76 8q-112 0 -186 -69q-49 -45 -75 -112.5t-26 -145.5q0 -103 58 -156.5t167 -53.5q74 0 144 25l31 219h-169
q-5 0 -6 2t0 7l2 12q1 8 7 8h206l-37 -266q-42 -19 -90.5 -28t-95.5 -9q-128 0 -193.5 64zM224.5 -255.5q-2.5 -0.5 -5.5 3.5l-4 5q-3 4 -2.5 5.5t1.5 2.5l2 2q21 15 43 41t22 48q0 11 -3 18t-9 16q-10 14 -10 27q0 17 11 26.5t25 9.5q18 0 27.5 -12t9.5 -33
q0 -40 -29.5 -85t-71.5 -72q-4 -2 -6.5 -2.5z" />
    <glyph glyph-name="gdotaccent.sc" horiz-adv-x="593" 
d="M115.5 56q-65.5 64 -65.5 175q0 98 40.5 180t116.5 130.5t176 48.5q90 0 158 -41q5 -3 5 -4.5t-2 -6.5l-7 -11q-4 -5 -6.5 -5.5t-7.5 2.5q-34 19 -68 27t-76 8q-112 0 -186 -69q-49 -45 -75 -112.5t-26 -145.5q0 -103 58 -156.5t167 -53.5q74 0 144 25l31 219h-169
q-5 0 -6 2t0 7l2 12q1 8 7 8h206l-37 -266q-42 -19 -90.5 -28t-95.5 -9q-128 0 -193.5 64zM365.5 672q-9.5 9 -9.5 24q0 18 13.5 31.5t30.5 13.5q13 0 23 -9.5t10 -23.5q0 -20 -13 -32.5t-31 -12.5q-14 0 -23.5 9z" />
    <glyph glyph-name="h.sc" horiz-adv-x="594" 
d="M556 580.5q3 -1.5 2 -6.5l-80 -568q-1 -4 -5 -5t-11 -1h-9q-9 0 -12 2t-2 7l38 271h-360l-39 -274q-1 -4 -5 -5t-11 -1h-9q-9 0 -12 2t-2 7l80 566q1 4 4 5.5t11 1.5h8q11 0 14 -1.5t2 -6.5l-37 -264h361l37 265q1 4 4 5.5t11 1.5h8q11 0 14 -1.5z" />
    <glyph glyph-name="hbar.sc" horiz-adv-x="594" 
d="M595 469q1 -2 0 -10l-1 -6q-1 -7 -2.5 -8.5t-5.5 -1.5h-47l-62 -437q-1 -4 -5 -5t-11 -1h-9q-9 0 -12 2t-2 7l38 271h-360l-39 -274q-1 -4 -5 -5t-11 -1h-9q-9 0 -12 2t-2 7l61 434h-37q-5 0 -6 2t0 10l1 6q1 7 2.5 8.5t5.5 1.5h38l15 104q1 4 4 5.5t11 1.5h8
q11 0 14 -1.5t2 -6.5l-15 -103h361l15 104q1 4 4 5.5t11 1.5h8q11 0 14 -1.5t2 -6.5l-15 -103h47q5 0 6 -2zM499 443h-360l-19 -133h361z" />
    <glyph glyph-name="hcircumflex.sc" horiz-adv-x="594" 
d="M556 580.5q3 -1.5 2 -6.5l-80 -568q-1 -4 -5 -5t-11 -1h-9q-9 0 -12 2t-2 7l38 271h-360l-39 -274q-1 -4 -5 -5t-11 -1h-9q-9 0 -12 2t-2 7l80 566q1 4 4 5.5t11 1.5h8q11 0 14 -1.5t2 -6.5l-37 -264h361l37 265q1 4 4 5.5t11 1.5h8q11 0 14 -1.5zM489 657q0 -2 -5 -7
l-4 -4q-4 -4 -6.5 -4t-6.5 3l-98 95l-126 -95q-5 -4 -7 -3.5t-5 4.5l-5 6q-4 4 -3.5 6t3.5 5l112 95q6 6 11.5 8t14.5 2h16q9 0 13 -2t9 -8l84 -96q3 -3 3 -5z" />
    <glyph glyph-name="i.sc" horiz-adv-x="194" 
d="M41 2q-3 2 -2 7l80 566q1 4 4 5.5t11 1.5h8q11 0 14 -1.5t2 -6.5l-80 -568q-1 -4 -5 -5t-11 -1h-9q-9 0 -12 2z" />
    <glyph glyph-name="dotlessi.sc" horiz-adv-x="194" 
d="M41 2q-3 2 -2 7l80 566q1 4 4 5.5t11 1.5h8q11 0 14 -1.5t2 -6.5l-80 -568q-1 -4 -5 -5t-11 -1h-9q-9 0 -12 2z" />
    <glyph glyph-name="iacute.sc" horiz-adv-x="194" 
d="M41 2q-3 2 -2 7l80 566q1 4 4 5.5t11 1.5h8q11 0 14 -1.5t2 -6.5l-80 -568q-1 -4 -5 -5t-11 -1h-9q-9 0 -12 2zM117 648l65 95q4 6 8.5 7.5t15.5 1.5h10q14 0 17 -1.5t-1 -6.5l-86 -100q-4 -4 -16 -4h-5q-13 0 -8 8z" />
    <glyph glyph-name="iacute_j.loclNLD.sc" horiz-adv-x="566" 
d="M41 2q-3 2 -2 7l80 566q1 4 4 5.5t11 1.5h8q11 0 14 -1.5t2 -6.5l-80 -568q-1 -4 -5 -5t-11 -1h-9q-9 0 -12 2zM117 648l65 95q4 6 8.5 7.5t15.5 1.5h10q14 0 17 -1.5t-1 -6.5l-86 -100q-4 -4 -16 -4h-5q-13 0 -8 8zM181 26q-5 3 -5 5q0 1 5 9l5 9q4 6 5.5 6.5t6.5 -1.5
q54 -31 106 -31q65 0 94.5 35t39.5 105l58 412q1 4 4 5.5t11 1.5h8q11 0 14 -1.5t2 -6.5l-59 -415q-12 -84 -52 -125.5t-118 -41.5q-70 0 -125 34zM484 648l65 95q4 6 8.5 7.5t15.5 1.5h10q14 0 17 -1.5t-1 -6.5l-86 -100q-4 -4 -16 -4h-5q-13 0 -8 8z" />
    <glyph glyph-name="ibreve.sc" horiz-adv-x="194" 
d="M41 2q-3 2 -2 7l80 566q1 4 4 5.5t11 1.5h8q11 0 14 -1.5t2 -6.5l-80 -568q-1 -4 -5 -5t-11 -1h-9q-9 0 -12 2zM57.5 675q-33.5 28 -28.5 68q1 5 3.5 6t8.5 1h10q7 0 9 -1t2 -5q-1 -32 24.5 -50.5t61.5 -18.5q84 0 102 69q1 4 3 5t9 1h11q11 0 10 -6q-6 -44 -43 -70.5
t-93 -26.5t-89.5 28z" />
    <glyph glyph-name="icircumflex.sc" horiz-adv-x="194" 
d="M41 2q-3 2 -2 7l80 566q1 4 4 5.5t11 1.5h8q11 0 14 -1.5t2 -6.5l-80 -568q-1 -4 -5 -5t-11 -1h-9q-9 0 -12 2zM290 657q0 -2 -5 -7l-4 -4q-4 -4 -6.5 -4t-6.5 3l-98 95l-126 -95q-5 -4 -7 -3.5t-5 4.5l-5 6q-4 4 -3.5 6t3.5 5l112 95q6 6 11.5 8t14.5 2h16q9 0 13 -2
t9 -8l84 -96q3 -3 3 -5z" />
    <glyph glyph-name="idieresis.sc" horiz-adv-x="194" 
d="M41 2q-3 2 -2 7l80 566q1 4 4 5.5t11 1.5h8q11 0 14 -1.5t2 -6.5l-80 -568q-1 -4 -5 -5t-11 -1h-9q-9 0 -12 2zM31.5 672q-9.5 9 -9.5 24q0 18 13.5 31.5t30.5 13.5q13 0 23 -9.5t10 -23.5q0 -20 -13 -32.5t-31 -12.5q-14 0 -23.5 9zM222.5 672q-9.5 9 -9.5 24
q0 18 13.5 31.5t30.5 13.5q13 0 23 -9.5t10 -23.5q0 -20 -13 -32.5t-31 -12.5q-14 0 -23.5 9z" />
    <glyph glyph-name="i.sc.loclTRK" horiz-adv-x="194" 
d="M41 2q-3 2 -2 7l80 566q1 4 4 5.5t11 1.5h8q11 0 14 -1.5t2 -6.5l-80 -568q-1 -4 -5 -5t-11 -1h-9q-9 0 -12 2zM126.5 672q-9.5 9 -9.5 24q0 18 13.5 31.5t30.5 13.5q13 0 23 -9.5t10 -23.5q0 -20 -13 -32.5t-31 -12.5q-14 0 -23.5 9z" />
    <glyph glyph-name="igrave.sc" horiz-adv-x="194" 
d="M41 2q-3 2 -2 7l80 566q1 4 4 5.5t11 1.5h8q11 0 14 -1.5t2 -6.5l-80 -568q-1 -4 -5 -5t-11 -1h-9q-9 0 -12 2zM137 646l-56 98q-1 1 -1 3q0 3 5.5 4t16.5 1h4q16 0 21 -1.5t7 -7.5l36 -97l1 -2q-1 -4 -13 -4h-6q-11 0 -15 6z" />
    <glyph glyph-name="ij.sc" horiz-adv-x="566" 
d="M41 2q-3 2 -2 7l80 566q1 4 4 5.5t11 1.5h8q11 0 14 -1.5t2 -6.5l-80 -568q-1 -4 -5 -5t-11 -1h-9q-9 0 -12 2zM181 26q-5 3 -5 5q0 1 5 9l5 9q4 6 5.5 6.5t6.5 -1.5q54 -31 106 -31q65 0 94.5 35t39.5 105l58 412q1 4 4 5.5t11 1.5h8q11 0 14 -1.5t2 -6.5l-59 -415
q-12 -84 -52 -125.5t-118 -41.5q-70 0 -125 34z" />
    <glyph glyph-name="imacron.sc" horiz-adv-x="194" 
d="M41 2q-3 2 -2 7l80 566q1 4 4 5.5t11 1.5h8q11 0 14 -1.5t2 -6.5l-80 -568q-1 -4 -5 -5t-11 -1h-9q-9 0 -12 2zM24 691q-1 2 0 8l2 14q1 8 8 8h248q6 0 7 -2t0 -8l-2 -14q-1 -8 -8 -8h-248q-6 0 -7 2z" />
    <glyph glyph-name="iogonek.sc" horiz-adv-x="194" 
d="M156 580.5q3 -1.5 2 -6.5l-79 -563q-1 -5 -3 -7.5t-9 -6.5q-52 -29 -83.5 -68t-31.5 -85q0 -18 11.5 -29.5t33.5 -11.5q13 0 26.5 3t20.5 7l4 1q3 0 2 -8l-1 -7q-1 -6 -3 -8.5t-9 -6.5q-22 -11 -55 -11q-35 0 -54.5 19t-19.5 50q0 45 35.5 90.5t94.5 72.5l81 570
q1 4 4 5.5t11 1.5h8q11 0 14 -1.5z" />
    <glyph glyph-name="itilde.sc" horiz-adv-x="194" 
d="M41 2q-3 2 -2 7l80 566q1 4 4 5.5t11 1.5h8q11 0 14 -1.5t2 -6.5l-80 -568q-1 -4 -5 -5t-11 -1h-9q-9 0 -12 2zM183 684q-14 5 -33 15q-17 9 -30.5 14t-29.5 5q-14 0 -26 -6t-33 -23q-4 -4 -8 2l-7 9q-3 4 -2 5.5t4 4.5q13 15 35 26t46 11q20 0 35 -5t32 -15t30 -14.5
t29 -4.5q14 0 26 6t33 23q4 4 8 -2l7 -9q3 -4 2 -5.5t-4 -4.5q-13 -15 -35 -26t-46 -11q-19 0 -33 5z" />
    <glyph glyph-name="j.sc" horiz-adv-x="372" 
d="M-13 26q-5 3 -5 5q0 1 5 9l5 9q4 6 5.5 6.5t6.5 -1.5q54 -31 106 -31q65 0 94.5 35t39.5 105l58 412q1 4 4 5.5t11 1.5h8q11 0 14 -1.5t2 -6.5l-59 -415q-12 -84 -52 -125.5t-118 -41.5q-70 0 -125 34z" />
    <glyph glyph-name="uni0237.sc" horiz-adv-x="372" 
d="M-13 26q-5 3 -5 5q0 1 5 9l5 9q4 6 5.5 6.5t6.5 -1.5q54 -31 106 -31q65 0 94.5 35t39.5 105l58 412q1 4 4 5.5t11 1.5h8q11 0 14 -1.5t2 -6.5l-59 -415q-12 -84 -52 -125.5t-118 -41.5q-70 0 -125 34z" />
    <glyph glyph-name="jcircumflex.sc" horiz-adv-x="372" 
d="M-13 26q-5 3 -5 5q0 1 5 9l5 9q4 6 5.5 6.5t6.5 -1.5q54 -31 106 -31q65 0 94.5 35t39.5 105l58 412q1 4 4 5.5t11 1.5h8q11 0 14 -1.5t2 -6.5l-59 -415q-12 -84 -52 -125.5t-118 -41.5q-70 0 -125 34zM463 657q0 -2 -5 -7l-4 -4q-4 -4 -6.5 -4t-6.5 3l-98 95l-126 -95
q-5 -4 -7 -3.5t-5 4.5l-5 6q-4 4 -3.5 6t3.5 5l112 95q6 6 11.5 8t14.5 2h16q9 0 13 -2t9 -8l84 -96q3 -3 3 -5z" />
    <glyph glyph-name="k.sc" horiz-adv-x="514" 
d="M405 466q-60 -61 -138 -125l183 -332l2 -6q0 -2 -3.5 -2.5t-8.5 -0.5h-14q-11 0 -14 1t-5 5l-169 311l-131 -108l-29 -203q-1 -4 -5 -5t-11 -1h-9q-9 0 -12 2t-2 7l80 566q1 4 4 5.5t11 1.5h8q11 0 14 -1.5t2 -6.5l-45 -319l140 115q129 106 206 207q2 4 6.5 4.5
t11.5 0.5h13q7 0 8.5 -2.5t-1.5 -7.5q-32 -45 -92 -106z" />
    <glyph glyph-name="kcommaaccent.sc" horiz-adv-x="514" 
d="M405 466q-60 -61 -138 -125l183 -332l2 -6q0 -2 -3.5 -2.5t-8.5 -0.5h-14q-11 0 -14 1t-5 5l-169 311l-131 -108l-29 -203q-1 -4 -5 -5t-11 -1h-9q-9 0 -12 2t-2 7l80 566q1 4 4 5.5t11 1.5h8q11 0 14 -1.5t2 -6.5l-45 -319l140 115q129 106 206 207q2 4 6.5 4.5
t11.5 0.5h13q7 0 8.5 -2.5t-1.5 -7.5q-32 -45 -92 -106zM156.5 -255.5q-2.5 -0.5 -5.5 3.5l-4 5q-3 4 -2.5 5.5t1.5 2.5l2 2q21 15 43 41t22 48q0 11 -3 18t-9 16q-10 14 -10 27q0 17 11 26.5t25 9.5q18 0 27.5 -12t9.5 -33q0 -40 -29.5 -85t-71.5 -72q-4 -2 -6.5 -2.5z" />
    <glyph glyph-name="l.sc" horiz-adv-x="439" 
d="M41.5 2q-3.5 2 -2.5 7l80 566q1 4 4 5.5t12 1.5h8q10 0 13 -1.5t2 -6.5l-77 -544h287q5 0 6 -2t0 -11l-1 -6q-1 -7 -2.5 -9t-5.5 -2h-310q-10 0 -13.5 2z" />
    <glyph glyph-name="lacute.sc" horiz-adv-x="439" 
d="M41.5 2q-3.5 2 -2.5 7l80 566q1 4 4 5.5t12 1.5h8q10 0 13 -1.5t2 -6.5l-77 -544h287q5 0 6 -2t0 -11l-1 -6q-1 -7 -2.5 -9t-5.5 -2h-310q-10 0 -13.5 2zM136 648l65 95q4 6 8.5 7.5t15.5 1.5h10q14 0 17 -1.5t-1 -6.5l-86 -100q-4 -4 -16 -4h-5q-13 0 -8 8z" />
    <glyph glyph-name="lcaron.sc" horiz-adv-x="439" 
d="M41.5 2q-3.5 2 -2.5 7l80 566q1 4 4 5.5t12 1.5h8q10 0 13 -1.5t2 -6.5l-77 -544h287q5 0 6 -2t0 -11l-1 -6q-1 -7 -2.5 -9t-5.5 -2h-310q-10 0 -13.5 2zM268.5 387.5q-2.5 -0.5 -5.5 3.5l-4 5q-3 4 -2.5 5.5t1.5 2.5l2 2q21 15 43 41t22 48q0 11 -3 18t-9 16
q-10 14 -10 27q0 17 11 26.5t25 9.5q18 0 27.5 -12t9.5 -33q0 -40 -29.5 -85t-71.5 -72q-4 -2 -6.5 -2.5z" />
    <glyph glyph-name="lcommaaccent.sc" horiz-adv-x="439" 
d="M41.5 2q-3.5 2 -2.5 7l80 566q1 4 4 5.5t12 1.5h8q10 0 13 -1.5t2 -6.5l-77 -544h287q5 0 6 -2t0 -11l-1 -6q-1 -7 -2.5 -9t-5.5 -2h-310q-10 0 -13.5 2zM127.5 -255.5q-2.5 -0.5 -5.5 3.5l-4 5q-3 4 -2.5 5.5t1.5 2.5l2 2q21 15 43 41t22 48q0 11 -3 18t-9 16
q-10 14 -10 27q0 17 11 26.5t25 9.5q18 0 27.5 -12t9.5 -33q0 -40 -29.5 -85t-71.5 -72q-4 -2 -6.5 -2.5z" />
    <glyph glyph-name="ldot.sc" horiz-adv-x="439" 
d="M41.5 2q-3.5 2 -2.5 7l80 566q1 4 4 5.5t12 1.5h8q10 0 13 -1.5t2 -6.5l-77 -544h287q5 0 6 -2t0 -11l-1 -6q-1 -7 -2.5 -9t-5.5 -2h-310q-10 0 -13.5 2zM282.5 276q-9.5 9 -9.5 24q0 18 13.5 31.5t30.5 13.5q13 0 23 -9.5t10 -23.5q0 -20 -13 -32.5t-31 -12.5
q-14 0 -23.5 9z" />
    <glyph glyph-name="lslash.sc" horiz-adv-x="445" 
d="M380 28q1 -2 0 -11l-1 -6q-1 -7 -2.5 -9t-5.5 -2h-310q-10 0 -13.5 2t-2.5 7l30 212l-55 -41q-7 -5 -6 3l3 22q0 1 1 4.5t4 6.5l58 43l45 316q1 4 4 5.5t12 1.5h8q10 0 13 -1.5t2 -6.5l-40 -283l118 87q4 3 5.5 2t0.5 -6l-3 -21q-1 -6 -5 -9l-121 -90l-32 -224h287
q5 0 6 -2z" />
    <glyph glyph-name="m.sc" horiz-adv-x="685" 
d="M41 1q-3 1 -2 5l81 569q1 5 4 6t15 1h7q10 0 12.5 -1t4.5 -5l115 -300q20 -55 23 -64l24 -65l36 56l45 69l192 304q2 4 6 5t16 1h8q15 0 18.5 -1t2.5 -6l-81 -570q-1 -4 -4.5 -4.5t-11.5 -0.5h-6q-10 0 -13 1t-2 5l56 395l19 126l-77 -121l-192 -296q-2 -3 -5 -4t-8 -1
h-7q-6 0 -9.5 0.5t-4.5 4.5l-112 296l-9 24q-8 20 -16.5 43t-18.5 49q-5 -48 -16 -122l-56 -395q-1 -4 -4.5 -4.5t-11.5 -0.5h-5q-10 0 -13 1z" />
    <glyph glyph-name="n.sc" horiz-adv-x="622" 
d="M41 1.5q-3 1.5 -2 6.5l80 567q1 4 4.5 5.5t14.5 1.5h7q11 0 15 -1.5t7 -5.5l216 -367l13 -23q39 -66 80 -138l74 528q1 4 4 5.5t12 1.5h6q9 0 12 -1.5t2 -6.5l-80 -568q-1 -4 -4 -5t-14 -1h-7q-11 0 -15 1t-7 6l-214 364l-97 167q-14 -110 -22 -165l-50 -367q-1 -4 -5 -5
t-12 -1h-6q-9 0 -12 1.5z" />
    <glyph glyph-name="nacute.loclPLK.sc" horiz-adv-x="622" 
d="M41 1.5q-3 1.5 -2 6.5l80 567q1 4 4.5 5.5t14.5 1.5h7q11 0 15 -1.5t7 -5.5l216 -367l13 -23q39 -66 80 -138l74 528q1 4 4 5.5t12 1.5h6q9 0 12 -1.5t2 -6.5l-80 -568q-1 -4 -4 -5t-14 -1h-7q-11 0 -15 1t-7 6l-214 364l-97 167q-14 -110 -22 -165l-50 -367q-1 -4 -5 -5
t-12 -1h-6q-9 0 -12 1.5zM338 649l31 96q2 7 5.5 8.5t14.5 1.5h12q13 0 15.5 -1t0.5 -6l-48 -98q-3 -7 -12 -7h-9q-11 0 -10 6z" />
    <glyph glyph-name="nacute.sc" horiz-adv-x="622" 
d="M41 1.5q-3 1.5 -2 6.5l80 567q1 4 4.5 5.5t14.5 1.5h7q11 0 15 -1.5t7 -5.5l216 -367l13 -23q39 -66 80 -138l74 528q1 4 4 5.5t12 1.5h6q9 0 12 -1.5t2 -6.5l-80 -568q-1 -4 -4 -5t-14 -1h-7q-11 0 -15 1t-7 6l-214 364l-97 167q-14 -110 -22 -165l-50 -367q-1 -4 -5 -5
t-12 -1h-6q-9 0 -12 1.5zM340 648l65 95q4 6 8.5 7.5t15.5 1.5h10q14 0 17 -1.5t-1 -6.5l-86 -100q-4 -4 -16 -4h-5q-13 0 -8 8z" />
    <glyph glyph-name="ncaron.sc" horiz-adv-x="622" 
d="M41 1.5q-3 1.5 -2 6.5l80 567q1 4 4.5 5.5t14.5 1.5h7q11 0 15 -1.5t7 -5.5l216 -367l13 -23q39 -66 80 -138l74 528q1 4 4 5.5t12 1.5h6q9 0 12 -1.5t2 -6.5l-80 -568q-1 -4 -4 -5t-14 -1h-7q-11 0 -15 1t-7 6l-214 364l-97 167q-14 -110 -22 -165l-50 -367q-1 -4 -5 -5
t-12 -1h-6q-9 0 -12 1.5zM511 745q0 -2 -3 -5l-111 -95q-6 -6 -11.5 -8t-14.5 -2h-16q-9 0 -13 2t-9 8l-84 96l-2 2t-1 3t5 7l4 4q4 4 6.5 4t6.5 -3l100 -95l124 95q5 4 7 3.5t5 -4.5l4 -6q3 -4 3 -6z" />
    <glyph glyph-name="ncommaaccent.sc" horiz-adv-x="622" 
d="M41 1.5q-3 1.5 -2 6.5l80 567q1 4 4.5 5.5t14.5 1.5h7q11 0 15 -1.5t7 -5.5l216 -367l13 -23q39 -66 80 -138l74 528q1 4 4 5.5t12 1.5h6q9 0 12 -1.5t2 -6.5l-80 -568q-1 -4 -4 -5t-14 -1h-7q-11 0 -15 1t-7 6l-214 364l-97 167q-14 -110 -22 -165l-50 -367q-1 -4 -5 -5
t-12 -1h-6q-9 0 -12 1.5zM200.5 -255.5q-2.5 -0.5 -5.5 3.5l-4 5q-3 4 -2.5 5.5t1.5 2.5l2 2q21 15 43 41t22 48q0 11 -3 18t-9 16q-10 14 -10 27q0 17 11 26.5t25 9.5q18 0 27.5 -12t9.5 -33q0 -40 -29.5 -85t-71.5 -72q-4 -2 -6.5 -2.5z" />
    <glyph glyph-name="eng.sc" horiz-adv-x="623" 
d="M584 580.5q3 -1.5 2 -6.5l-77 -554q-14 -101 -57 -140.5t-108 -39.5q-13 0 -27.5 2.5t-21.5 4.5q-4 1 -5 3t1 7l4 13q2 6 4 7t6 0q21 -6 37 -6q54 0 83 28.5t43 91.5l-223 380l-97 167q-14 -110 -22 -165l-50 -367q-1 -4 -5 -5t-12 -1h-6q-9 0 -12 1.5t-2 6.5l80 567
q1 4 4.5 5.5t14.5 1.5h7q11 0 15 -1.5t7 -5.5l216 -367l13 -23q39 -66 80 -138l74 528q1 4 4 5.5t12 1.5h6q9 0 12 -1.5z" />
    <glyph glyph-name="ntilde.sc" horiz-adv-x="622" 
d="M41 1.5q-3 1.5 -2 6.5l80 567q1 4 4.5 5.5t14.5 1.5h7q11 0 15 -1.5t7 -5.5l216 -367l13 -23q39 -66 80 -138l74 528q1 4 4 5.5t12 1.5h6q9 0 12 -1.5t2 -6.5l-80 -568q-1 -4 -4 -5t-14 -1h-7q-11 0 -15 1t-7 6l-214 364l-97 167q-14 -110 -22 -165l-50 -367q-1 -4 -5 -5
t-12 -1h-6q-9 0 -12 1.5zM406 684q-14 5 -33 15q-17 9 -30.5 14t-29.5 5q-14 0 -26 -6t-33 -23q-4 -4 -8 2l-7 9q-3 4 -2 5.5t4 4.5q13 15 35 26t46 11q20 0 35 -5t32 -15t30 -14.5t29 -4.5q14 0 26 6t33 23q4 4 8 -2l7 -9q3 -4 2 -5.5t-4 -4.5q-13 -15 -35 -26t-46 -11
q-19 0 -33 5z" />
    <glyph glyph-name="o.sc" horiz-adv-x="647" 
d="M106 51.5q-57 59.5 -57 173.5q0 101 40 184t115.5 132t177.5 49q109 0 166 -59.5t57 -173.5q0 -101 -40 -184t-115.5 -132t-177.5 -49q-109 0 -166 59.5zM431.5 69q64.5 46 98 122.5t33.5 165.5q0 202 -187 202q-89 0 -153.5 -46t-98 -122.5t-33.5 -165.5
q0 -202 187 -202q89 0 153.5 46z" />
    <glyph glyph-name="oacute.loclPLK.sc" horiz-adv-x="647" 
d="M106 51.5q-57 59.5 -57 173.5q0 101 40 184t115.5 132t177.5 49q109 0 166 -59.5t57 -173.5q0 -101 -40 -184t-115.5 -132t-177.5 -49q-109 0 -166 59.5zM431.5 69q64.5 46 98 122.5t33.5 165.5q0 202 -187 202q-89 0 -153.5 -46t-98 -122.5t-33.5 -165.5
q0 -202 187 -202q89 0 153.5 46zM355 649l31 96q2 7 5.5 8.5t14.5 1.5h12q13 0 15.5 -1t0.5 -6l-48 -98q-3 -7 -12 -7h-9q-11 0 -10 6z" />
    <glyph glyph-name="oacute.sc" horiz-adv-x="647" 
d="M106 51.5q-57 59.5 -57 173.5q0 101 40 184t115.5 132t177.5 49q109 0 166 -59.5t57 -173.5q0 -101 -40 -184t-115.5 -132t-177.5 -49q-109 0 -166 59.5zM431.5 69q64.5 46 98 122.5t33.5 165.5q0 202 -187 202q-89 0 -153.5 -46t-98 -122.5t-33.5 -165.5
q0 -202 187 -202q89 0 153.5 46zM357 648l65 95q4 6 8.5 7.5t15.5 1.5h10q14 0 17 -1.5t-1 -6.5l-86 -100q-4 -4 -16 -4h-5q-13 0 -8 8z" />
    <glyph glyph-name="obreve.sc" horiz-adv-x="647" 
d="M106 51.5q-57 59.5 -57 173.5q0 101 40 184t115.5 132t177.5 49q109 0 166 -59.5t57 -173.5q0 -101 -40 -184t-115.5 -132t-177.5 -49q-109 0 -166 59.5zM431.5 69q64.5 46 98 122.5t33.5 165.5q0 202 -187 202q-89 0 -153.5 -46t-98 -122.5t-33.5 -165.5
q0 -202 187 -202q89 0 153.5 46zM297.5 675q-33.5 28 -28.5 68q1 5 3.5 6t8.5 1h10q7 0 9 -1t2 -5q-1 -32 24.5 -50.5t61.5 -18.5q84 0 102 69q1 4 3 5t9 1h11q11 0 10 -6q-6 -44 -43 -70.5t-93 -26.5t-89.5 28z" />
    <glyph glyph-name="ocircumflex.sc" horiz-adv-x="647" 
d="M106 51.5q-57 59.5 -57 173.5q0 101 40 184t115.5 132t177.5 49q109 0 166 -59.5t57 -173.5q0 -101 -40 -184t-115.5 -132t-177.5 -49q-109 0 -166 59.5zM431.5 69q64.5 46 98 122.5t33.5 165.5q0 202 -187 202q-89 0 -153.5 -46t-98 -122.5t-33.5 -165.5
q0 -202 187 -202q89 0 153.5 46zM530 657q0 -2 -5 -7l-4 -4q-4 -4 -6.5 -4t-6.5 3l-98 95l-126 -95q-5 -4 -7 -3.5t-5 4.5l-5 6q-4 4 -3.5 6t3.5 5l112 95q6 6 11.5 8t14.5 2h16q9 0 13 -2t9 -8l84 -96q3 -3 3 -5z" />
    <glyph glyph-name="odieresis.sc" horiz-adv-x="647" 
d="M106 51.5q-57 59.5 -57 173.5q0 101 40 184t115.5 132t177.5 49q109 0 166 -59.5t57 -173.5q0 -101 -40 -184t-115.5 -132t-177.5 -49q-109 0 -166 59.5zM431.5 69q64.5 46 98 122.5t33.5 165.5q0 202 -187 202q-89 0 -153.5 -46t-98 -122.5t-33.5 -165.5
q0 -202 187 -202q89 0 153.5 46zM271.5 672q-9.5 9 -9.5 24q0 18 13.5 31.5t30.5 13.5q13 0 23 -9.5t10 -23.5q0 -20 -13 -32.5t-31 -12.5q-14 0 -23.5 9zM462.5 672q-9.5 9 -9.5 24q0 18 13.5 31.5t30.5 13.5q13 0 23 -9.5t10 -23.5q0 -20 -13 -32.5t-31 -12.5
q-14 0 -23.5 9z" />
    <glyph glyph-name="ograve.sc" horiz-adv-x="647" 
d="M106 51.5q-57 59.5 -57 173.5q0 101 40 184t115.5 132t177.5 49q109 0 166 -59.5t57 -173.5q0 -101 -40 -184t-115.5 -132t-177.5 -49q-109 0 -166 59.5zM431.5 69q64.5 46 98 122.5t33.5 165.5q0 202 -187 202q-89 0 -153.5 -46t-98 -122.5t-33.5 -165.5
q0 -202 187 -202q89 0 153.5 46zM377 646l-56 98q-1 1 -1 3q0 3 5.5 4t16.5 1h4q16 0 21 -1.5t7 -7.5l36 -97l1 -2q-1 -4 -13 -4h-6q-11 0 -15 6z" />
    <glyph glyph-name="ohungarumlaut.sc" horiz-adv-x="647" 
d="M106 51.5q-57 59.5 -57 173.5q0 101 40 184t115.5 132t177.5 49q109 0 166 -59.5t57 -173.5q0 -101 -40 -184t-115.5 -132t-177.5 -49q-109 0 -166 59.5zM431.5 69q64.5 46 98 122.5t33.5 165.5q0 202 -187 202q-89 0 -153.5 -46t-98 -122.5t-33.5 -165.5
q0 -202 187 -202q89 0 153.5 46zM272.5 641q-2.5 1 0.5 5l69 97q4 6 9 7.5t21 1.5h4q16 0 19.5 -1.5t-0.5 -6.5l-90 -100q-4 -4 -16 -4h-6q-8 0 -10.5 1zM413.5 641q-2.5 1 0.5 5l69 97q4 6 9 7.5t21 1.5h4q16 0 19.5 -1.5t-0.5 -6.5l-90 -100q-4 -4 -16 -4h-6q-8 0 -10.5 1
z" />
    <glyph glyph-name="omacron.sc" horiz-adv-x="647" 
d="M106 51.5q-57 59.5 -57 173.5q0 101 40 184t115.5 132t177.5 49q109 0 166 -59.5t57 -173.5q0 -101 -40 -184t-115.5 -132t-177.5 -49q-109 0 -166 59.5zM431.5 69q64.5 46 98 122.5t33.5 165.5q0 202 -187 202q-89 0 -153.5 -46t-98 -122.5t-33.5 -165.5
q0 -202 187 -202q89 0 153.5 46zM264 691q-1 2 0 8l2 14q1 8 8 8h248q6 0 7 -2t0 -8l-2 -14q-1 -8 -8 -8h-248q-6 0 -7 2z" />
    <glyph glyph-name="oslash.sc" horiz-adv-x="647" 
d="M642 579q1 -2 -3 -6l-69 -69q36 -55 36 -147q0 -101 -40 -184t-115.5 -132t-177.5 -49q-107 0 -164 57l-70 -70q-2 -1 -3.5 -2.5t-2.5 -1.5q-3 0 -10 7l-6 6q-6 6 -6.5 8t3.5 6l74 73q-38 58 -38 150q0 101 40 184t115.5 132t177.5 49q109 0 166 -59l65 65q3 3 6 3t10 -7
l5 -5q6 -6 7 -8zM117 104l404 400q-46 55 -144 55q-89 0 -153.5 -46t-98 -122.5t-33.5 -165.5q0 -75 25 -121zM540 475l-403 -399q47 -53 142 -53q89 0 153.5 46t98 122.5t33.5 165.5q0 72 -24 118z" />
    <glyph glyph-name="oslashacute.sc" horiz-adv-x="647" 
d="M642 579q1 -2 -3 -6l-69 -69q36 -55 36 -147q0 -101 -40 -184t-115.5 -132t-177.5 -49q-107 0 -164 57l-70 -70q-2 -1 -3.5 -2.5t-2.5 -1.5q-3 0 -10 7l-6 6q-6 6 -6.5 8t3.5 6l74 73q-38 58 -38 150q0 101 40 184t115.5 132t177.5 49q109 0 166 -59l65 65q3 3 6 3t10 -7
l5 -5q6 -6 7 -8zM117 104l404 400q-46 55 -144 55q-89 0 -153.5 -46t-98 -122.5t-33.5 -165.5q0 -75 25 -121zM540 475l-403 -399q47 -53 142 -53q89 0 153.5 46t98 122.5t33.5 165.5q0 72 -24 118zM343 648l65 95q4 6 8.5 7.5t15.5 1.5h10q14 0 17 -1.5t-1 -6.5l-86 -100
q-4 -4 -16 -4h-5q-13 0 -8 8z" />
    <glyph glyph-name="otilde.sc" horiz-adv-x="647" 
d="M106 51.5q-57 59.5 -57 173.5q0 101 40 184t115.5 132t177.5 49q109 0 166 -59.5t57 -173.5q0 -101 -40 -184t-115.5 -132t-177.5 -49q-109 0 -166 59.5zM431.5 69q64.5 46 98 122.5t33.5 165.5q0 202 -187 202q-89 0 -153.5 -46t-98 -122.5t-33.5 -165.5
q0 -202 187 -202q89 0 153.5 46zM423 684q-14 5 -33 15q-17 9 -30.5 14t-29.5 5q-14 0 -26 -6t-33 -23q-4 -4 -8 2l-7 9q-3 4 -2 5.5t4 4.5q13 15 35 26t46 11q20 0 35 -5t32 -15t30 -14.5t29 -4.5q14 0 26 6t33 23q4 4 8 -2l7 -9q3 -4 2 -5.5t-4 -4.5q-13 -15 -35 -26
t-46 -11q-19 0 -33 5z" />
    <glyph glyph-name="oe.sc" horiz-adv-x="876" 
d="M853 580q1 -2 0 -11l-1 -6q-1 -7 -2.5 -9t-5.5 -2h-307l-34 -242h260q5 0 6 -2t0 -11l-1 -6q-1 -7 -2.5 -9t-5.5 -2h-261l-35 -250h311q5 0 6 -2t0 -11l-1 -6q-1 -7 -2.5 -9t-5.5 -2h-349q-56 -8 -126 -8q-120 0 -183.5 64t-63.5 180q0 88 36 169t113 133t194 52
q46 0 110 -8h344q5 0 6 -2zM498 551q-50 8 -103 8q-104 0 -172 -46t-100 -121t-31 -163q0 -96 54 -152t163 -56q59 0 116 8z" />
    <glyph glyph-name="p.sc" horiz-adv-x="474" 
d="M418 547.5q57 -34.5 57 -113.5q0 -95 -64.5 -148.5t-181.5 -53.5q-50 0 -118 11l-33 -237q-1 -4 -3.5 -5t-12.5 -1h-8q-10 0 -13 1.5t-2 6.5l81 574h132q109 0 166 -34.5zM382 306q51 43 51 126q0 67 -49.5 93.5t-145.5 26.5h-83l-39 -277q60 -12 114 -12q101 0 152 43z
" />
    <glyph glyph-name="thorn.sc" horiz-adv-x="480" 
d="M404.5 428.5q52.5 -35.5 52.5 -102.5q0 -53 -29 -93.5t-84.5 -62.5t-130.5 -22q-44 0 -114 10l-21 -152q-1 -4 -5 -5t-11 -1h-9q-9 0 -12 2t-2 7l80 566q1 4 4 5.5t11 1.5h8q11 0 14 -1.5t2 -6.5l-17 -119q55 9 113 9q98 0 150.5 -35.5zM362.5 216q52.5 38 52.5 109
q0 111 -165 111q-58 0 -113 -10l-33 -237q60 -11 105 -11q101 0 153.5 38z" />
    <glyph glyph-name="q.sc" horiz-adv-x="647" 
d="M305 -22q-10 9 -16.5 11.5t-18.5 2.5q-108 0 -164.5 60t-56.5 174q0 101 40 184t115.5 131.5t177.5 48.5q109 0 166 -59.5t57 -173.5q0 -91 -32.5 -168.5t-95 -128.5t-148.5 -63q21 -15 45 -36l72 -63q2 -2 2 -3q0 -3 -6 -9l-8 -9q-4 -4 -6.5 -4.5t-7.5 3.5zM431.5 69
q64.5 46 98 122.5t33.5 165.5q0 202 -187 202q-89 0 -153.5 -46t-98 -122.5t-33.5 -165.5q0 -202 187 -202q89 0 153.5 46z" />
    <glyph glyph-name="r.sc" horiz-adv-x="522" 
d="M435 7q1 -1 1 -3q0 -4 -17 -4h-6q-10 0 -14 1t-6 5l-82 166q-19 38 -32.5 54t-34.5 22t-65 6h-66l-35 -248q-1 -4 -5 -5t-12 -1h-7q-10 0 -13 1.5t-2 6.5l81 574h139q123 0 177 -40q41 -32 41 -93q0 -80 -47.5 -128t-137.5 -63q14 -9 26 -25.5t30 -51.5zM380.5 324.5
q54.5 41.5 54.5 123.5q0 57 -42.5 80.5t-135.5 23.5h-103l-37 -269h111q98 0 152.5 41.5z" />
    <glyph glyph-name="racute.sc" horiz-adv-x="522" 
d="M435 7q1 -1 1 -3q0 -4 -17 -4h-6q-10 0 -14 1t-6 5l-82 166q-19 38 -32.5 54t-34.5 22t-65 6h-66l-35 -248q-1 -4 -5 -5t-12 -1h-7q-10 0 -13 1.5t-2 6.5l81 574h139q123 0 177 -40q41 -32 41 -93q0 -80 -47.5 -128t-137.5 -63q14 -9 26 -25.5t30 -51.5zM380.5 324.5
q54.5 41.5 54.5 123.5q0 57 -42.5 80.5t-135.5 23.5h-103l-37 -269h111q98 0 152.5 41.5zM280 648l65 95q4 6 8.5 7.5t15.5 1.5h10q14 0 17 -1.5t-1 -6.5l-86 -100q-4 -4 -16 -4h-5q-13 0 -8 8z" />
    <glyph glyph-name="rcaron.sc" horiz-adv-x="522" 
d="M435 7q1 -1 1 -3q0 -4 -17 -4h-6q-10 0 -14 1t-6 5l-82 166q-19 38 -32.5 54t-34.5 22t-65 6h-66l-35 -248q-1 -4 -5 -5t-12 -1h-7q-10 0 -13 1.5t-2 6.5l81 574h139q123 0 177 -40q41 -32 41 -93q0 -80 -47.5 -128t-137.5 -63q14 -9 26 -25.5t30 -51.5zM380.5 324.5
q54.5 41.5 54.5 123.5q0 57 -42.5 80.5t-135.5 23.5h-103l-37 -269h111q98 0 152.5 41.5zM451 745q0 -2 -3 -5l-111 -95q-6 -6 -11.5 -8t-14.5 -2h-16q-9 0 -13 2t-9 8l-84 96l-2 2t-1 3t5 7l4 4q4 4 6.5 4t6.5 -3l100 -95l124 95q5 4 7 3.5t5 -4.5l4 -6q3 -4 3 -6z" />
    <glyph glyph-name="rcommaaccent.sc" horiz-adv-x="522" 
d="M435 7q1 -1 1 -3q0 -4 -17 -4h-6q-10 0 -14 1t-6 5l-82 166q-19 38 -32.5 54t-34.5 22t-65 6h-66l-35 -248q-1 -4 -5 -5t-12 -1h-7q-10 0 -13 1.5t-2 6.5l81 574h139q123 0 177 -40q41 -32 41 -93q0 -80 -47.5 -128t-137.5 -63q14 -9 26 -25.5t30 -51.5zM380.5 324.5
q54.5 41.5 54.5 123.5q0 57 -42.5 80.5t-135.5 23.5h-103l-37 -269h111q98 0 152.5 41.5zM160.5 -255.5q-2.5 -0.5 -5.5 3.5l-4 5q-3 4 -2.5 5.5t1.5 2.5l2 2q21 15 43 41t22 48q0 11 -3 18t-9 16q-10 14 -10 27q0 17 11 26.5t25 9.5q18 0 27.5 -12t9.5 -33q0 -40 -29.5 -85
t-71.5 -72q-4 -2 -6.5 -2.5z" />
    <glyph glyph-name="s.sc" horiz-adv-x="475" 
d="M14 34q-5 3 -5 6q0 2 4 9l5 9q3 6 5.5 7t7.5 -2q35 -19 76.5 -30t84.5 -11q74 0 125.5 34t51.5 92q0 45 -36 76.5t-114 66.5q-69 31 -100.5 65.5t-31.5 84.5q0 67 50.5 108t139.5 41t151 -36q4 -3 4 -4q0 -4 -4 -9l-6 -9q-3 -5 -6 -5.5t-7 1.5q-31 16 -60.5 24t-76.5 8
q-64 0 -105 -31t-41 -83q0 -44 26 -71.5t98 -60.5q57 -27 88 -45.5t50.5 -46.5t19.5 -69q0 -72 -58.5 -116.5t-161.5 -44.5q-99 0 -174 42z" />
    <glyph glyph-name="sacute.loclPLK.sc" horiz-adv-x="475" 
d="M14 34q-5 3 -5 6q0 2 4 9l5 9q3 6 5.5 7t7.5 -2q35 -19 76.5 -30t84.5 -11q74 0 125.5 34t51.5 92q0 45 -36 76.5t-114 66.5q-69 31 -100.5 65.5t-31.5 84.5q0 67 50.5 108t139.5 41t151 -36q4 -3 4 -4q0 -4 -4 -9l-6 -9q-3 -5 -6 -5.5t-7 1.5q-31 16 -60.5 24t-76.5 8
q-64 0 -105 -31t-41 -83q0 -44 26 -71.5t98 -60.5q57 -27 88 -45.5t50.5 -46.5t19.5 -69q0 -72 -58.5 -116.5t-161.5 -44.5q-99 0 -174 42zM255 649l31 96q2 7 5.5 8.5t14.5 1.5h12q13 0 15.5 -1t0.5 -6l-48 -98q-3 -7 -12 -7h-9q-11 0 -10 6z" />
    <glyph glyph-name="sacute.sc" horiz-adv-x="475" 
d="M14 34q-5 3 -5 6q0 2 4 9l5 9q3 6 5.5 7t7.5 -2q35 -19 76.5 -30t84.5 -11q74 0 125.5 34t51.5 92q0 45 -36 76.5t-114 66.5q-69 31 -100.5 65.5t-31.5 84.5q0 67 50.5 108t139.5 41t151 -36q4 -3 4 -4q0 -4 -4 -9l-6 -9q-3 -5 -6 -5.5t-7 1.5q-31 16 -60.5 24t-76.5 8
q-64 0 -105 -31t-41 -83q0 -44 26 -71.5t98 -60.5q57 -27 88 -45.5t50.5 -46.5t19.5 -69q0 -72 -58.5 -116.5t-161.5 -44.5q-99 0 -174 42zM257 648l65 95q4 6 8.5 7.5t15.5 1.5h10q14 0 17 -1.5t-1 -6.5l-86 -100q-4 -4 -16 -4h-5q-13 0 -8 8z" />
    <glyph glyph-name="scaron.sc" horiz-adv-x="475" 
d="M14 34q-5 3 -5 6q0 2 4 9l5 9q3 6 5.5 7t7.5 -2q35 -19 76.5 -30t84.5 -11q74 0 125.5 34t51.5 92q0 45 -36 76.5t-114 66.5q-69 31 -100.5 65.5t-31.5 84.5q0 67 50.5 108t139.5 41t151 -36q4 -3 4 -4q0 -4 -4 -9l-6 -9q-3 -5 -6 -5.5t-7 1.5q-31 16 -60.5 24t-76.5 8
q-64 0 -105 -31t-41 -83q0 -44 26 -71.5t98 -60.5q57 -27 88 -45.5t50.5 -46.5t19.5 -69q0 -72 -58.5 -116.5t-161.5 -44.5q-99 0 -174 42zM428 745q0 -2 -3 -5l-111 -95q-6 -6 -11.5 -8t-14.5 -2h-16q-9 0 -13 2t-9 8l-84 96l-2 2t-1 3t5 7l4 4q4 4 6.5 4t6.5 -3l100 -95
l124 95q5 4 7 3.5t5 -4.5l4 -6q3 -4 3 -6z" />
    <glyph glyph-name="scedilla.sc" horiz-adv-x="475" 
d="M432 550q0 -4 -4 -9l-6 -9q-3 -5 -6 -5.5t-7 1.5q-31 16 -60.5 24t-76.5 8q-64 0 -105 -31t-41 -83q0 -44 26 -71.5t98 -60.5q57 -27 88 -45.5t50.5 -46.5t19.5 -69q0 -70 -54.5 -113.5t-150.5 -47.5l-16 -58q12 3 29 3q34 0 53.5 -17t19.5 -46q0 -40 -28 -67t-87 -27
q-17 0 -35.5 4t-26.5 8q-4 3 -2 9l3 7q2 5 3.5 7.5t3.5 1.5q28 -10 57 -10q33 0 53.5 13.5t20.5 44.5q0 20 -15 31t-39 11q-29 0 -55 -8l28 93q-88 5 -156 42q-5 3 -5 6q0 2 4 9l5 9q3 6 5.5 7t7.5 -2q35 -19 76.5 -30t84.5 -11q74 0 125.5 34t51.5 92q0 45 -36 76.5
t-114 66.5q-69 31 -100.5 65.5t-31.5 84.5q0 67 50.5 108t139.5 41t151 -36q4 -3 4 -4z" />
    <glyph glyph-name="scircumflex.sc" horiz-adv-x="475" 
d="M14 34q-5 3 -5 6q0 2 4 9l5 9q3 6 5.5 7t7.5 -2q35 -19 76.5 -30t84.5 -11q74 0 125.5 34t51.5 92q0 45 -36 76.5t-114 66.5q-69 31 -100.5 65.5t-31.5 84.5q0 67 50.5 108t139.5 41t151 -36q4 -3 4 -4q0 -4 -4 -9l-6 -9q-3 -5 -6 -5.5t-7 1.5q-31 16 -60.5 24t-76.5 8
q-64 0 -105 -31t-41 -83q0 -44 26 -71.5t98 -60.5q57 -27 88 -45.5t50.5 -46.5t19.5 -69q0 -72 -58.5 -116.5t-161.5 -44.5q-99 0 -174 42zM430 657q0 -2 -5 -7l-4 -4q-4 -4 -6.5 -4t-6.5 3l-98 95l-126 -95q-5 -4 -7 -3.5t-5 4.5l-5 6q-4 4 -3.5 6t3.5 5l112 95q6 6 11.5 8
t14.5 2h16q9 0 13 -2t9 -8l84 -96q3 -3 3 -5z" />
    <glyph glyph-name="scommaaccent.sc" horiz-adv-x="475" 
d="M14 34q-5 3 -5 6q0 2 4 9l5 9q3 6 5.5 7t7.5 -2q35 -19 76.5 -30t84.5 -11q74 0 125.5 34t51.5 92q0 45 -36 76.5t-114 66.5q-69 31 -100.5 65.5t-31.5 84.5q0 67 50.5 108t139.5 41t151 -36q4 -3 4 -4q0 -4 -4 -9l-6 -9q-3 -5 -6 -5.5t-7 1.5q-31 16 -60.5 24t-76.5 8
q-64 0 -105 -31t-41 -83q0 -44 26 -71.5t98 -60.5q57 -27 88 -45.5t50.5 -46.5t19.5 -69q0 -72 -58.5 -116.5t-161.5 -44.5q-99 0 -174 42zM127.5 -245.5q-2.5 -0.5 -5.5 3.5l-4 5q-3 4 -2.5 5.5t1.5 2.5l2 2q21 15 43 41t22 48q0 11 -3 18t-9 16q-10 14 -10 27
q0 17 11 26.5t25 9.5q18 0 27.5 -12t9.5 -33q0 -40 -29.5 -85t-71.5 -72q-4 -2 -6.5 -2.5z" />
    <glyph glyph-name="germandbls.sc" horiz-adv-x="950" 
d="M14 34q-5 3 -5 6q0 2 4 9l5 9q3 6 5.5 7t7.5 -2q35 -19 76.5 -30t84.5 -11q74 0 125.5 34t51.5 92q0 45 -36 76.5t-114 66.5q-69 31 -100.5 65.5t-31.5 84.5q0 67 50.5 108t139.5 41t151 -36q4 -3 4 -4q0 -4 -4 -9l-6 -9q-3 -5 -6 -5.5t-7 1.5q-31 16 -60.5 24t-76.5 8
q-64 0 -105 -31t-41 -83q0 -44 26 -71.5t98 -60.5q57 -27 88 -45.5t50.5 -46.5t19.5 -69q0 -72 -58.5 -116.5t-161.5 -44.5q-99 0 -174 42zM489 34q-5 3 -5 6q0 2 4 9l5 9q3 6 5.5 7t7.5 -2q35 -19 76.5 -30t84.5 -11q74 0 125.5 34t51.5 92q0 45 -36 76.5t-114 66.5
q-69 31 -100.5 65.5t-31.5 84.5q0 67 50.5 108t139.5 41t151 -36q4 -3 4 -4q0 -4 -4 -9l-6 -9q-3 -5 -6 -5.5t-7 1.5q-31 16 -60.5 24t-76.5 8q-64 0 -105 -31t-41 -83q0 -44 26 -71.5t98 -60.5q57 -27 88 -45.5t50.5 -46.5t19.5 -69q0 -72 -58.5 -116.5t-161.5 -44.5
q-99 0 -174 42z" />
    <glyph glyph-name="t.sc" horiz-adv-x="473" 
d="M494 580q1 -2 0 -11l-1 -6q-1 -7 -2.5 -9t-5.5 -2h-188l-77 -546q-1 -4 -5 -5t-11 -1h-9q-9 0 -12 2t-2 7l77 543h-198q-5 0 -6 2t0 11l1 6q1 7 2.5 9t5.5 2h425q5 0 6 -2z" />
    <glyph glyph-name="tbar.sc" horiz-adv-x="473" 
d="M494 580q1 -2 0 -11l-1 -6q-1 -7 -2.5 -9t-5.5 -2h-188l-34 -244h108q5 0 6 -2t0 -10l-1 -6q-1 -7 -2.5 -8.5t-5.5 -1.5h-109l-39 -274q-1 -4 -5 -5t-11 -1h-9q-9 0 -12 2t-2 7l38 271h-106q-5 0 -6 2t0 10l1 6q1 7 2.5 8.5t5.5 1.5h107l35 244h-198q-5 0 -6 2t0 11l1 6
q1 7 2.5 9t5.5 2h425q5 0 6 -2z" />
    <glyph glyph-name="tcaron.sc" horiz-adv-x="473" 
d="M494 580q1 -2 0 -11l-1 -6q-1 -7 -2.5 -9t-5.5 -2h-188l-77 -546q-1 -4 -5 -5t-11 -1h-9q-9 0 -12 2t-2 7l77 543h-198q-5 0 -6 2t0 11l1 6q1 7 2.5 9t5.5 2h425q5 0 6 -2zM427 745q0 -2 -3 -5l-111 -95q-6 -6 -11.5 -8t-14.5 -2h-16q-9 0 -13 2t-9 8l-84 96l-2 2t-1 3
t5 7l4 4q4 4 6.5 4t6.5 -3l100 -95l124 95q5 4 7 3.5t5 -4.5l4 -6q3 -4 3 -6z" />
    </font>
</defs>
</svg>
