<?xml version="1.0" standalone="no"?>
<!DOCTYPE svg PUBLIC "-//W3C//DTD SVG 1.1//EN" "http://www.w3.org/Graphics/SVG/1.1/DTD/svg11.dtd" >
<svg xmlns="http://www.w3.org/2000/svg">
<metadata>
Copyright (c) 2016 by Fontsmith Ltd. All rights reserved. This font may not be altered in any way without prior permission of Fontsmith Ltd.
</metadata>
<defs>
<font id="TIMSansWeb-MediumItalic" horiz-adv-x="344" >
  <font-face 
    font-family="TIM Sans Web Medium"
    font-weight="500"
    font-style="italic"
    font-stretch="normal"
    units-per-em="1000"
    panose-1="0 0 6 0 0 0 0 0 0 0"
    ascent="750"
    descent="-250"
    x-height="528"
    cap-height="720"
    bbox="-338 -305 2799 1102"
    underline-thickness="86"
    underline-position="-28"
    slope="-8"
    unicode-range="U+000D-FB02"
  />
<missing-glyph horiz-adv-x="694" 
d="M90 720h514v-720h-514v720zM522 669h-350l176 -263zM316 360l-174 262v-524zM553 622l-175 -262l175 -262v524zM522 52l-174 262l-176 -262h350z" />
    <glyph glyph-name="f_f.liga" unicode="ff" horiz-adv-x="675" 
d="M41.5 -223.5q-8.5 2.5 -7.5 10.5l90 650h-71q-5 0 -7 2.5t-2 9.5q0 10 3 31l1 7q4 26 7.5 33.5t10.5 7.5h71l4 29q14 105 69.5 161t147.5 56q50 0 102 -19q8 -3 8 -11q0 -5 -8 -29l-5 -16q-7 -23 -12 -29t-13 -4q-36 12 -66 12q-51 0 -76 -31t-34 -92l-4 -27h203l4 29
q14 105 69.5 161t147.5 56q50 0 102 -19q8 -3 8 -11q0 -5 -8 -29l-5 -16q-7 -23 -12 -29t-13 -4q-36 12 -66 12q-51 0 -76 -31t-34 -92l-4 -27h113q6 0 8 -2.5t2 -10.5q0 -9 -3 -30l-1 -7q-4 -26 -7.5 -33.5t-10.5 -7.5h-114l-90 -650q-2 -7 -12 -10t-43 -3h-6
q-36 0 -44.5 2.5t-7.5 10.5l90 650h-203l-90 -650q-2 -7 -12 -10t-43 -3h-6q-36 0 -44.5 2.5z" />
    <glyph glyph-name="f_f_i.liga" unicode="ffi" horiz-adv-x="917" 
d="M41.5 -223.5q-8.5 2.5 -7.5 10.5l90 650h-71q-5 0 -7 2.5t-2 9.5q0 10 3 31l1 7q4 26 7.5 33.5t10.5 7.5h71l4 29q14 105 69.5 161t147.5 56q50 0 102 -19q8 -3 8 -11q0 -5 -8 -29l-5 -16q-7 -23 -12 -29t-13 -4q-36 12 -66 12q-51 0 -76 -31t-34 -92l-4 -27h204l3 22
q15 108 83 164t173 56q89 0 167 -39q7 -3 7 -9q0 -7 -10 -30l-8 -19q-12 -29 -21 -29q-3 0 -8 3q-61 28 -124 28t-99.5 -29t-46.5 -91l-4 -27h113q6 0 8 -2.5t2 -10.5q0 -9 -3 -30l-1 -7q-4 -26 -7.5 -33.5t-10.5 -7.5h-114l-90 -650q-2 -7 -12 -10t-42 -3h-6q-36 0 -45 3
t-8 10l90 650h-203l-90 -650q-2 -7 -12 -10t-43 -3h-6q-36 0 -44.5 2.5zM705 2.5q-9 2.5 -8 10.5l71 502q1 8 11 10.5t43 2.5h6q36 0 44.5 -2.5t7.5 -10.5l-70 -502q-2 -7 -12 -10t-43 -3h-5q-36 0 -45 2.5z" />
    <glyph glyph-name="f_f_l.liga" unicode="ffl" horiz-adv-x="941" 
d="M41.5 -223.5q-8.5 2.5 -7.5 10.5l90 650h-71q-5 0 -7 2.5t-2 9.5q0 10 3 31l1 7q4 26 7.5 33.5t10.5 7.5h71l4 29q14 105 69.5 161t147.5 56q50 0 102 -19q8 -3 8 -11q0 -5 -8 -29l-5 -16q-7 -23 -12 -29t-13 -4q-36 12 -66 12q-51 0 -76 -31t-34 -92l-4 -27h205l3 22
q15 110 85.5 165t177.5 55q49 0 94.5 -11.5t74.5 -28.5q9 -5 12 -11t3 -16q0 -18 -9 -87t-21 -159l-46 -332l-2 -16q0 -12 5.5 -16.5t20.5 -4.5h17q5 1 7 -1.5t2 -9.5l-2 -21l-2 -12q-2 -21 -4.5 -27t-9.5 -9q-25 -11 -59 -11q-89 0 -89 88q0 25 7 72l46 322q16 119 23 183
q-34 14 -76 14q-60 0 -96 -30t-47 -94l-4 -24h115q5 0 7 -2.5t2 -10.5q0 -10 -3 -31l-1 -7q-4 -26 -7.5 -33t-10.5 -7h-114l-90 -650q-1 -8 -11.5 -10.5t-44.5 -2.5h-5q-25 0 -36.5 1.5t-14 4t-1.5 7.5l90 650h-204l-90 -650q-2 -7 -12 -10t-43 -3h-6q-36 0 -44.5 2.5z" />
    <glyph glyph-name="fi" unicode="fi" horiz-adv-x="601" 
d="M42 -223q-9 3 -8 10l90 650h-70q-6 0 -8 2.5t-2 10.5q0 9 3 30l1 7q4 26 7.5 33.5t11.5 7.5h71l3 22q15 108 83 164t173 56q89 0 167 -39q7 -3 7 -9q0 -7 -10 -30l-8 -19q-12 -29 -21 -29q-4 0 -8 3q-61 28 -124 28t-99.5 -29t-46.5 -91l-4 -27h113q6 0 8 -2.5t2 -10.5
q0 -9 -3 -30l-1 -7q-4 -26 -7.5 -33.5t-10.5 -7.5h-114l-90 -650q-2 -7 -12 -10t-42 -3h-6q-36 0 -45 3zM389 2.5q-9 2.5 -8 10.5l71 502q1 8 11 10.5t43 2.5h6q36 0 44.5 -2.5t7.5 -10.5l-70 -502q-2 -7 -12 -10t-43 -3h-5q-36 0 -45 2.5z" />
    <glyph glyph-name="fl" unicode="fl" horiz-adv-x="624" 
d="M49.5 -224.5q-11.5 1.5 -14 4t-1.5 7.5l90 650h-71q-5 0 -7 2.5t-2 9.5q0 9 3 30l1 7q4 27 7.5 34.5t10.5 7.5h72l3 22q15 110 85.5 165t177.5 55q49 0 94.5 -11.5t74.5 -28.5q9 -5 12 -11t3 -16q0 -18 -9 -87t-21 -159l-46 -332l-2 -16q0 -12 5.5 -16.5t20.5 -4.5h17
q5 1 7 -1.5t2 -9.5l-2 -21l-2 -12q-2 -21 -4.5 -27t-9.5 -9q-25 -11 -59 -11q-89 0 -89 88q0 25 7 72l46 322q16 119 23 183q-34 14 -76 14q-60 0 -96 -30t-47 -94l-4 -24h115q5 0 7 -2.5t2 -10.5q0 -10 -3 -31l-1 -7q-4 -26 -7.5 -33t-10.5 -7h-114l-90 -650
q-1 -8 -11.5 -10.5t-44.5 -2.5h-5q-25 0 -36.5 1.5z" />
    <glyph glyph-name=".notdef" horiz-adv-x="694" 
d="M90 720h514v-720h-514v720zM522 669h-350l176 -263zM316 360l-174 262v-524zM553 622l-175 -262l175 -262v524zM522 52l-174 262l-176 -262h350z" />
    <glyph glyph-name=".null" horiz-adv-x="0" 
 />
    <glyph glyph-name="nonmarkingreturn" unicode="&#xd;" horiz-adv-x="248" 
 />
    <glyph glyph-name="space" unicode=" " horiz-adv-x="248" 
 />
    <glyph glyph-name="A" unicode="A" horiz-adv-x="695" 
d="M-12.5 1q-12.5 1 -15 4t1.5 10l354 690q5 10 14.5 12.5t46.5 2.5h9q21 0 34 -1t16.5 -4t5.5 -10l171 -689q2 -10 -7 -13t-46 -3h-9q-38 0 -48.5 2.5t-12.5 12.5l-39 171h-282l-85 -171q-5 -9 -16.5 -12t-48.5 -3h-11q-20 0 -32.5 1zM441 280l-17 84q-36 168 -47 233
q-12 -26 -32 -68t-34 -71l-49 -103l-36 -75h215z" />
    <glyph glyph-name="Aacute" unicode="&#xc1;" horiz-adv-x="695" 
d="M-12.5 1q-12.5 1 -15 4t1.5 10l354 690q5 10 14.5 12.5t46.5 2.5h9q21 0 34 -1t16.5 -4t5.5 -10l171 -689q2 -10 -7 -13t-46 -3h-9q-38 0 -48.5 2.5t-12.5 12.5l-39 171h-282l-85 -171q-5 -9 -16.5 -12t-48.5 -3h-11q-20 0 -32.5 1zM441 280l-17 84q-36 168 -47 233
q-12 -26 -32 -68t-34 -71l-49 -103l-36 -75h215zM335 788q-5 3 0 10l110 148q5 7 13.5 9.5t32.5 2.5h37q21 0 26.5 -3.5t-0.5 -10.5l-136 -150q-6 -5 -13 -7t-24 -2h-25q-16 0 -21 3z" />
    <glyph glyph-name="Abreve" unicode="&#x102;" horiz-adv-x="695" 
d="M-12.5 1q-12.5 1 -15 4t1.5 10l354 690q5 10 14.5 12.5t46.5 2.5h9q21 0 34 -1t16.5 -4t5.5 -10l171 -689q2 -10 -7 -13t-46 -3h-9q-38 0 -48.5 2.5t-12.5 12.5l-39 171h-282l-85 -171q-5 -9 -16.5 -12t-48.5 -3h-11q-20 0 -32.5 1zM441 280l-17 84q-36 168 -47 233
q-12 -26 -32 -68t-34 -71l-49 -103l-36 -75h215zM316 819.5q-34 23.5 -42 64.5q-5 15 -5 38q1 12 7 15t23 3h22q18 0 23 -2t5 -9q0 -28 15.5 -44.5t43.5 -16.5q29 0 47.5 15t27.5 46q2 7 7 9t23 2h15q21 0 28 -2.5t6 -10.5q-12 -62 -55 -96.5t-107 -34.5q-50 0 -84 23.5z
" />
    <glyph glyph-name="uni01CD" unicode="&#x1cd;" horiz-adv-x="695" 
d="M-12.5 1q-12.5 1 -15 4t1.5 10l354 690q5 10 14.5 12.5t46.5 2.5h9q21 0 34 -1t16.5 -4t5.5 -10l171 -689q2 -10 -7 -13t-46 -3h-9q-38 0 -48.5 2.5t-12.5 12.5l-39 171h-282l-85 -171q-5 -9 -16.5 -12t-48.5 -3h-11q-20 0 -32.5 1zM441 280l-17 84q-36 168 -47 233
q-12 -26 -32 -68t-34 -71l-49 -103l-36 -75h215zM357 790.5q-10 2.5 -17 11.5l-76 98q-3 3 -3 6q0 7 17 23l8 8q17 16 25 16q3 0 7 -4l89 -89l117 91q4 3 8 3t9 -4t11 -11l9 -10q11 -13 11 -19q0 -5 -6 -10l-104 -98q-9 -8 -20 -11t-34 -3h-17q-24 0 -34 2.5z" />
    <glyph glyph-name="Acircumflex" unicode="&#xc2;" horiz-adv-x="695" 
d="M-12.5 1q-12.5 1 -15 4t1.5 10l354 690q5 10 14.5 12.5t46.5 2.5h9q21 0 34 -1t16.5 -4t5.5 -10l171 -689q2 -10 -7 -13t-46 -3h-9q-38 0 -48.5 2.5t-12.5 12.5l-39 171h-282l-85 -171q-5 -9 -16.5 -12t-48.5 -3h-11q-20 0 -32.5 1zM441 280l-17 84q-36 168 -47 233
q-12 -26 -32 -68t-34 -71l-49 -103l-36 -75h215zM297 787q-3 0 -8 4t-12 11l-9 11q-11 13 -11 18q0 6 6 10l104 98q9 8 20 11t34 3h18q23 0 33 -3t17 -11l76 -98q2 -2 2 -6q0 -7 -16 -22l-8 -8q-17 -16 -24 -16q-3 0 -7 4l-89 89l-118 -92q-5 -3 -8 -3z" />
    <glyph glyph-name="Adieresis" unicode="&#xc4;" horiz-adv-x="695" 
d="M-12.5 1q-12.5 1 -15 4t1.5 10l354 690q5 10 14.5 12.5t46.5 2.5h9q21 0 34 -1t16.5 -4t5.5 -10l171 -689q2 -10 -7 -13t-46 -3h-9q-38 0 -48.5 2.5t-12.5 12.5l-39 171h-282l-85 -171q-5 -9 -16.5 -12t-48.5 -3h-11q-20 0 -32.5 1zM441 280l-17 84q-36 168 -47 233
q-12 -26 -32 -68t-34 -71l-49 -103l-36 -75h215zM262.5 817.5q-16.5 16.5 -16.5 40.5q0 27 19 48t49 21q27 0 43.5 -16.5t16.5 -40.5q0 -27 -19 -48t-50 -21q-26 0 -42.5 16.5zM471.5 817.5q-16.5 16.5 -16.5 40.5q0 27 19 48t49 21q27 0 43.5 -16.5t16.5 -40.5
q0 -27 -19 -48t-50 -21q-26 0 -42.5 16.5z" />
    <glyph glyph-name="Agrave" unicode="&#xc0;" horiz-adv-x="695" 
d="M-12.5 1q-12.5 1 -15 4t1.5 10l354 690q5 10 14.5 12.5t46.5 2.5h9q21 0 34 -1t16.5 -4t5.5 -10l171 -689q2 -10 -7 -13t-46 -3h-9q-38 0 -48.5 2.5t-12.5 12.5l-39 171h-282l-85 -171q-5 -9 -16.5 -12t-48.5 -3h-11q-20 0 -32.5 1zM441 280l-17 84q-36 168 -47 233
q-12 -26 -32 -68t-34 -71l-49 -103l-36 -75h215zM386.5 787q-6.5 2 -10.5 7l-94 150q-5 7 1.5 10.5t27.5 3.5h32q24 0 32.5 -2.5t10.5 -9.5l71 -149l1 -4q0 -8 -25 -8h-22q-18 0 -24.5 2z" />
    <glyph glyph-name="Amacron" unicode="&#x100;" horiz-adv-x="695" 
d="M-12.5 1q-12.5 1 -15 4t1.5 10l354 690q5 10 14.5 12.5t46.5 2.5h9q21 0 34 -1t16.5 -4t5.5 -10l171 -689q2 -10 -7 -13t-46 -3h-9q-38 0 -48.5 2.5t-12.5 12.5l-39 171h-282l-85 -171q-5 -9 -16.5 -12t-48.5 -3h-11q-20 0 -32.5 1zM441 280l-17 84q-36 168 -47 233
q-12 -26 -32 -68t-34 -71l-49 -103l-36 -75h215zM272.5 828.5q-1.5 2.5 -1.5 9.5q0 14 2 24l2 11q3 21 6.5 28.5t10.5 7.5h260q5 0 6.5 -2.5t1.5 -9.5q0 -14 -2 -24l-1 -11q-3 -20 -6.5 -28t-10.5 -8h-261q-5 0 -6.5 2.5z" />
    <glyph glyph-name="Aogonek" unicode="&#x104;" horiz-adv-x="695" 
d="M431.5 -212q-27.5 25 -27.5 69q0 43 28 84t71 66l-40 179h-282l-85 -171q-5 -9 -16.5 -12t-48.5 -3h-11q-20 0 -32.5 1t-15 4t1.5 10l354 690q5 10 14.5 12.5t46.5 2.5h9q21 0 34 -1t16.5 -4t5.5 -10l170 -683q1 -3 1 -8q0 -9 -15 -12q-50 -12 -84 -45t-34 -75
q0 -21 11 -32.5t31 -11.5q15 0 42 9q2 1 5 1q7 0 11 -22l2 -11q2 -9 2 -20t-8 -15q-16 -8 -38.5 -12.5t-43.5 -4.5q-47 0 -74.5 25zM441 280l-17 84q-36 168 -47 233q-12 -26 -32 -68t-34 -71l-49 -103l-36 -75h215z" />
    <glyph glyph-name="Aring" unicode="&#xc5;" horiz-adv-x="695" 
d="M-12.5 1q-12.5 1 -15 4t1.5 10l358 698q-16 12 -25.5 31t-9.5 40q0 30 15.5 56.5t41.5 42.5t57 16q42 0 70 -26.5t29 -64.5q0 -30 -15.5 -56t-41.5 -43l172 -693q2 -10 -7 -13t-46 -3h-9q-38 0 -48.5 2.5t-12.5 12.5l-39 171h-282l-85 -171q-5 -9 -16.5 -12t-48.5 -3h-11
q-20 0 -32.5 1zM432.5 766q13.5 14 13.5 35q-1 17 -12 27t-29 10t-30.5 -13.5t-12.5 -35.5q0 -16 11.5 -26.5t28.5 -10.5t30.5 14zM441 280l-18 84l-19 94l-28 139q-22 -50 -74 -158l-40 -84l-36 -75h215z" />
    <glyph glyph-name="Aringacute" unicode="&#x1fa;" horiz-adv-x="695" 
d="M345 932q-5 3 0 10l110 148q5 7 13.5 9.5t32.5 2.5h37q21 0 26.5 -3.5t-0.5 -10.5l-136 -150q-6 -5 -13 -7t-24 -2h-25q-16 0 -21 3zM-12.5 1q-12.5 1 -15 4t1.5 10l358 698q-16 12 -25.5 31t-9.5 40q0 30 15.5 56.5t41.5 42.5t57 16q42 0 70 -26.5t29 -64.5
q0 -30 -15.5 -56t-41.5 -43l172 -693q2 -10 -7 -13t-46 -3h-9q-38 0 -48.5 2.5t-12.5 12.5l-39 171h-282l-85 -171q-5 -9 -16.5 -12t-48.5 -3h-11q-20 0 -32.5 1zM432.5 766q13.5 14 13.5 35q-1 17 -12 27t-29 10t-30.5 -13.5t-12.5 -35.5q0 -16 11.5 -26.5t28.5 -10.5
t30.5 14zM441 280l-18 84l-19 94l-28 139q-22 -50 -74 -158l-40 -84l-36 -75h215z" />
    <glyph glyph-name="Atilde" unicode="&#xc3;" horiz-adv-x="695" 
d="M-12.5 1q-12.5 1 -15 4t1.5 10l354 690q5 10 14.5 12.5t46.5 2.5h9q21 0 34 -1t16.5 -4t5.5 -10l171 -689q2 -10 -7 -13t-46 -3h-9q-38 0 -48.5 2.5t-12.5 12.5l-39 171h-282l-85 -171q-5 -9 -16.5 -12t-48.5 -3h-11q-20 0 -32.5 1zM441 280l-17 84q-36 168 -47 233
q-12 -26 -32 -68t-34 -71l-49 -103l-36 -75h215zM430 818q-15 6 -32 16q-11 6 -22.5 11t-22.5 5q-30 0 -60 -29q-3 -3 -7 -3q-6 0 -22 16l-4 4q-13 14 -13 21q0 5 5 10q51 61 113 61q19 0 32.5 -5.5t32.5 -15.5q16 -9 25.5 -13t20.5 -4q33 0 62 29q3 3 6 3q7 0 22 -15l5 -5
q13 -14 13 -21q0 -4 -5 -11q-24 -27 -53.5 -43.5t-61.5 -16.5q-19 0 -34 6z" />
    <glyph glyph-name="AE" unicode="&#xc6;" horiz-adv-x="999" 
d="M-28.5 4q-8.5 4 -1.5 12l522 690q7 9 14.5 11.5t26.5 2.5h445q7 0 9.5 -3t2.5 -13q0 -16 -2 -29l-1 -7q-4 -30 -8 -38t-13 -8h-312l-28 -209h264q7 0 9 -2.5t2 -12.5q0 -16 -2 -30l-1 -8q-4 -30 -7.5 -37.5t-13.5 -7.5h-264l-30 -217h315q6 0 8.5 -2.5t2.5 -11.5
q0 -10 -3 -31l-1 -8q-4 -30 -7.5 -37.5t-12.5 -7.5h-396q-25 0 -32.5 1.5t-6.5 8.5l24 172h-247l-122 -167q-7 -9 -20 -12t-44 -3h-27q-34 0 -42.5 4zM486 275l45 325q-89 -127 -135 -188l-100 -137h190z" />
    <glyph glyph-name="AEacute" unicode="&#x1fc;" horiz-adv-x="999" 
d="M-28.5 4q-8.5 4 -1.5 12l522 690q7 9 14.5 11.5t26.5 2.5h445q7 0 9.5 -3t2.5 -13q0 -16 -2 -29l-1 -7q-4 -30 -8 -38t-13 -8h-312l-28 -209h264q7 0 9 -2.5t2 -12.5q0 -16 -2 -30l-1 -8q-4 -30 -7.5 -37.5t-13.5 -7.5h-264l-30 -217h315q6 0 8.5 -2.5t2.5 -11.5
q0 -10 -3 -31l-1 -8q-4 -30 -7.5 -37.5t-12.5 -7.5h-396q-25 0 -32.5 1.5t-6.5 8.5l24 172h-247l-122 -167q-7 -9 -20 -12t-44 -3h-27q-34 0 -42.5 4zM486 275l45 325q-89 -127 -135 -188l-100 -137h190zM585 788q-5 3 0 10l110 148q5 7 13.5 9.5t32.5 2.5h37
q21 0 26.5 -3.5t-0.5 -10.5l-136 -150q-6 -5 -13 -7t-24 -2h-25q-16 0 -21 3z" />
    <glyph glyph-name="B" unicode="B" horiz-adv-x="632" 
d="M42.5 2q-8.5 2 -7.5 8l96 700q1 6 8.5 8t30.5 2h149q258 0 258 -165q0 -61 -39 -109.5t-95 -66.5q59 -14 93.5 -56t34.5 -101q0 -110 -90.5 -166t-234.5 -56h-171q-24 0 -32.5 2zM290 416q76 0 119.5 30.5t43.5 89.5q0 49 -37.5 68t-104.5 19h-73l-28 -207h80zM262 96
q185 0 185 126q0 58 -42.5 80t-118.5 22h-88l-31 -228h95z" />
    <glyph glyph-name="C" unicode="C" horiz-adv-x="615" 
d="M111.5 66q-71.5 76 -71.5 213q0 107 43 211t131.5 172t215.5 68q122 0 192 -52q7 -4 7 -11q0 -8 -16 -33l-13 -20q-13 -19 -20 -23.5t-14 -0.5q-65 38 -144 38q-88 0 -146 -52t-85 -130t-27 -157q0 -100 45.5 -148t140.5 -48q35 0 76 9t75 24q9 4 13.5 -1t11.5 -25l6 -20
q6 -18 6 -26q0 -10 -12 -16q-46 -22 -101.5 -35t-108.5 -13q-133 0 -204.5 76z" />
    <glyph glyph-name="Cacute" unicode="&#x106;" horiz-adv-x="615" 
d="M111.5 66q-71.5 76 -71.5 213q0 107 43 211t131.5 172t215.5 68q122 0 192 -52q7 -4 7 -11q0 -8 -16 -33l-13 -20q-13 -19 -20 -23.5t-14 -0.5q-65 38 -144 38q-88 0 -146 -52t-85 -130t-27 -157q0 -100 45.5 -148t140.5 -48q35 0 76 9t75 24q9 4 13.5 -1t11.5 -25l6 -20
q6 -18 6 -26q0 -10 -12 -16q-46 -22 -101.5 -35t-108.5 -13q-133 0 -204.5 76zM372 788q-5 3 0 10l110 148q5 7 13.5 9.5t32.5 2.5h37q21 0 26.5 -3.5t-0.5 -10.5l-136 -150q-6 -5 -13 -7t-24 -2h-25q-16 0 -21 3z" />
    <glyph glyph-name="Cacute.loclPLK" horiz-adv-x="615" 
d="M111.5 66q-71.5 76 -71.5 213q0 107 43 211t131.5 172t215.5 68q122 0 192 -52q7 -4 7 -11q0 -8 -16 -33l-13 -20q-13 -19 -20 -23.5t-14 -0.5q-65 38 -144 38q-88 0 -146 -52t-85 -130t-27 -157q0 -100 45.5 -148t140.5 -48q35 0 76 9t75 24q9 4 13.5 -1t11.5 -25l6 -20
q6 -18 6 -26q0 -10 -12 -16q-46 -22 -101.5 -35t-108.5 -13q-133 0 -204.5 76zM385.5 788q-5.5 3 -2.5 10l62 148q3 8 10.5 10t31.5 2h34q23 0 29.5 -3t1.5 -11l-85 -149q-4 -6 -10.5 -8t-24.5 -2h-24q-17 0 -22.5 3z" />
    <glyph glyph-name="Ccaron" unicode="&#x10c;" horiz-adv-x="615" 
d="M111.5 66q-71.5 76 -71.5 213q0 107 43 211t131.5 172t215.5 68q122 0 192 -52q7 -4 7 -11q0 -8 -16 -33l-13 -20q-13 -19 -20 -23.5t-14 -0.5q-65 38 -144 38q-88 0 -146 -52t-85 -130t-27 -157q0 -100 45.5 -148t140.5 -48q35 0 76 9t75 24q9 4 13.5 -1t11.5 -25l6 -20
q6 -18 6 -26q0 -10 -12 -16q-46 -22 -101.5 -35t-108.5 -13q-133 0 -204.5 76zM394 790.5q-10 2.5 -17 11.5l-76 98q-3 3 -3 6q0 7 17 23l8 8q17 16 25 16q3 0 7 -4l89 -89l117 91q4 3 8 3t9 -4t11 -11l9 -10q11 -13 11 -19q0 -5 -6 -10l-104 -98q-9 -8 -20 -11t-34 -3h-17
q-24 0 -34 2.5z" />
    <glyph glyph-name="Ccedilla" unicode="&#xc7;" horiz-adv-x="615" 
d="M629 667q0 -8 -16 -33l-13 -20q-13 -19 -20 -23.5t-14 -0.5q-65 38 -144 38q-88 0 -146 -52t-85 -130t-27 -157q0 -100 45.5 -148t140.5 -48q35 0 76 9t75 24q9 4 13.5 -1t11.5 -25l6 -20q6 -18 6 -26q0 -10 -12 -16q-44 -21 -96.5 -34t-102.5 -14l-10 -36l28 -2
q32 -5 50 -25.5t19 -53.5q0 -49 -38.5 -79.5t-96.5 -30.5q-43 0 -72 13q-6 1 -6 7q0 5 6 23l4 10q5 16 8.5 19.5t11.5 1.5q26 -7 48 -7t36 9t14 28q2 31 -46 31q-29 0 -56 -4l28 101q-104 16 -159.5 90t-55.5 194q0 107 43 211t131.5 172t215.5 68q122 0 192 -52q7 -4 7 -11
z" />
    <glyph glyph-name="Ccircumflex" unicode="&#x108;" horiz-adv-x="615" 
d="M111.5 66q-71.5 76 -71.5 213q0 107 43 211t131.5 172t215.5 68q122 0 192 -52q7 -4 7 -11q0 -8 -16 -33l-13 -20q-13 -19 -20 -23.5t-14 -0.5q-65 38 -144 38q-88 0 -146 -52t-85 -130t-27 -157q0 -100 45.5 -148t140.5 -48q35 0 76 9t75 24q9 4 13.5 -1t11.5 -25l6 -20
q6 -18 6 -26q0 -10 -12 -16q-46 -22 -101.5 -35t-108.5 -13q-133 0 -204.5 76zM334 787q-3 0 -8 4t-12 11l-9 11q-11 13 -11 18q0 6 6 10l104 98q9 8 20 11t34 3h18q23 0 33 -3t17 -11l76 -98q2 -2 2 -6q0 -7 -16 -22l-8 -8q-17 -16 -24 -16q-3 0 -7 4l-89 89l-118 -92
q-5 -3 -8 -3z" />
    <glyph glyph-name="Cdotaccent" unicode="&#x10a;" horiz-adv-x="615" 
d="M111.5 66q-71.5 76 -71.5 213q0 107 43 211t131.5 172t215.5 68q122 0 192 -52q7 -4 7 -11q0 -8 -16 -33l-13 -20q-13 -19 -20 -23.5t-14 -0.5q-65 38 -144 38q-88 0 -146 -52t-85 -130t-27 -157q0 -100 45.5 -148t140.5 -48q35 0 76 9t75 24q9 4 13.5 -1t11.5 -25l6 -20
q6 -18 6 -26q0 -10 -12 -16q-46 -22 -101.5 -35t-108.5 -13q-133 0 -204.5 76zM403 820q-17 17 -17 42q0 27 20 48.5t50 21.5q27 0 43.5 -16.5t16.5 -42.5t-19.5 -48t-49.5 -22q-27 0 -44 17z" />
    <glyph glyph-name="D" unicode="D" horiz-adv-x="703" 
d="M41 1.5q-8 1.5 -7 8.5l96 700q1 6 10 8t34 2h147q105 0 172.5 -22.5t109.5 -70.5q31 -37 47.5 -91t16.5 -108q0 -112 -39 -205t-109 -149q-49 -39 -117 -56.5t-172 -17.5h-155q-26 0 -34 1.5zM238 97q64 0 113 11.5t85 39.5q53 42 80 112t27 156q0 79 -25 124t-76 64
t-133 19h-71l-71 -526h71z" />
    <glyph glyph-name="Eth" unicode="&#xd0;" horiz-adv-x="714" 
d="M661.5 536q16.5 -54 16.5 -108q0 -112 -39 -205t-109 -149q-49 -39 -117 -56.5t-172 -17.5h-155q-26 0 -34 1.5t-7 8.5l42 308h-62q-5 0 -6.5 2.5t-1.5 10.5l2 29l1 9q4 26 7.5 33.5t10.5 7.5h62l41 300q1 6 9.5 8t34.5 2h147q105 0 172.5 -22.5t109.5 -70.5
q31 -37 47.5 -91zM527 260q27 70 27 156q0 79 -25 124t-76 64t-133 19h-71l-29 -213h115q5 0 7 -2.5t2 -10.5q0 -9 -3 -29l-1 -8q-4 -27 -7.5 -34.5t-10.5 -7.5h-114l-30 -221h71q64 0 113 11.5t85 39.5q53 42 80 112z" />
    <glyph glyph-name="Dcaron" unicode="&#x10e;" horiz-adv-x="703" 
d="M41 1.5q-8 1.5 -7 8.5l96 700q1 6 10 8t34 2h147q105 0 172.5 -22.5t109.5 -70.5q31 -37 47.5 -91t16.5 -108q0 -112 -39 -205t-109 -149q-49 -39 -117 -56.5t-172 -17.5h-155q-26 0 -34 1.5zM238 97q64 0 113 11.5t85 39.5q53 42 80 112t27 156q0 79 -25 124t-76 64
t-133 19h-71l-71 -526h71zM371 790.5q-10 2.5 -17 11.5l-76 98q-3 3 -3 6q0 7 17 23l8 8q17 16 25 16q3 0 7 -4l89 -89l117 91q4 3 8 3t9 -4t11 -11l9 -10q11 -13 11 -19q0 -5 -6 -10l-104 -98q-9 -8 -20 -11t-34 -3h-17q-24 0 -34 2.5z" />
    <glyph glyph-name="Dcroat" unicode="&#x110;" horiz-adv-x="714" 
d="M661.5 536q16.5 -54 16.5 -108q0 -112 -39 -205t-109 -149q-49 -39 -117 -56.5t-172 -17.5h-155q-26 0 -34 1.5t-7 8.5l42 308h-62q-5 0 -6.5 2.5t-1.5 10.5l2 29l1 9q4 26 7.5 33.5t10.5 7.5h62l41 300q1 6 9.5 8t34.5 2h147q105 0 172.5 -22.5t109.5 -70.5
q31 -37 47.5 -91zM527 260q27 70 27 156q0 79 -25 124t-76 64t-133 19h-71l-29 -213h115q5 0 7 -2.5t2 -10.5q0 -9 -3 -29l-1 -8q-4 -27 -7.5 -34.5t-10.5 -7.5h-114l-30 -221h71q64 0 113 11.5t85 39.5q53 42 80 112z" />
    <glyph glyph-name="E" unicode="E" horiz-adv-x="584" 
d="M41.5 1.5q-7.5 1.5 -6.5 8.5l96 700q1 7 8.5 8.5t33.5 1.5h390q7 0 9.5 -2.5t2.5 -12.5q0 -16 -2 -29l-1 -8q-4 -29 -8 -37.5t-13 -8.5h-312l-28 -209h264q6 0 8.5 -3t2.5 -13q0 -16 -2 -29l-1 -7q-4 -29 -8 -37.5t-13 -8.5h-264l-30 -217h315q6 0 8.5 -2.5t2.5 -11.5
q0 -10 -3 -31l-1 -7q-4 -30 -7.5 -38t-12.5 -8h-396q-25 0 -32.5 1.5z" />
    <glyph glyph-name="Eacute" unicode="&#xc9;" horiz-adv-x="584" 
d="M41.5 1.5q-7.5 1.5 -6.5 8.5l96 700q1 7 8.5 8.5t33.5 1.5h390q7 0 9.5 -2.5t2.5 -12.5q0 -16 -2 -29l-1 -8q-4 -29 -8 -37.5t-13 -8.5h-312l-28 -209h264q6 0 8.5 -3t2.5 -13q0 -16 -2 -29l-1 -7q-4 -29 -8 -37.5t-13 -8.5h-264l-30 -217h315q6 0 8.5 -2.5t2.5 -11.5
q0 -10 -3 -31l-1 -7q-4 -30 -7.5 -38t-12.5 -8h-396q-25 0 -32.5 1.5zM300 788q-5 3 0 10l110 148q5 7 13.5 9.5t32.5 2.5h37q21 0 26.5 -3.5t-0.5 -10.5l-136 -150q-6 -5 -13 -7t-24 -2h-25q-16 0 -21 3z" />
    <glyph glyph-name="Ebreve" unicode="&#x114;" horiz-adv-x="584" 
d="M41.5 1.5q-7.5 1.5 -6.5 8.5l96 700q1 7 8.5 8.5t33.5 1.5h390q7 0 9.5 -2.5t2.5 -12.5q0 -16 -2 -29l-1 -8q-4 -29 -8 -37.5t-13 -8.5h-312l-28 -209h264q6 0 8.5 -3t2.5 -13q0 -16 -2 -29l-1 -7q-4 -29 -8 -37.5t-13 -8.5h-264l-30 -217h315q6 0 8.5 -2.5t2.5 -11.5
q0 -10 -3 -31l-1 -7q-4 -30 -7.5 -38t-12.5 -8h-396q-25 0 -32.5 1.5zM281 819.5q-34 23.5 -42 64.5q-5 15 -5 38q1 12 7 15t23 3h22q18 0 23 -2t5 -9q0 -28 15.5 -44.5t43.5 -16.5q29 0 47.5 15t27.5 46q2 7 7 9t23 2h15q21 0 28 -2.5t6 -10.5q-12 -62 -55 -96.5
t-107 -34.5q-50 0 -84 23.5z" />
    <glyph glyph-name="Ecaron" unicode="&#x11a;" horiz-adv-x="584" 
d="M41.5 1.5q-7.5 1.5 -6.5 8.5l96 700q1 7 8.5 8.5t33.5 1.5h390q7 0 9.5 -2.5t2.5 -12.5q0 -16 -2 -29l-1 -8q-4 -29 -8 -37.5t-13 -8.5h-312l-28 -209h264q6 0 8.5 -3t2.5 -13q0 -16 -2 -29l-1 -7q-4 -29 -8 -37.5t-13 -8.5h-264l-30 -217h315q6 0 8.5 -2.5t2.5 -11.5
q0 -10 -3 -31l-1 -7q-4 -30 -7.5 -38t-12.5 -8h-396q-25 0 -32.5 1.5zM322 790.5q-10 2.5 -17 11.5l-76 98q-3 3 -3 6q0 7 17 23l8 8q17 16 25 16q3 0 7 -4l89 -89l117 91q4 3 8 3t9 -4t11 -11l9 -10q11 -13 11 -19q0 -5 -6 -10l-104 -98q-9 -8 -20 -11t-34 -3h-17
q-24 0 -34 2.5z" />
    <glyph glyph-name="Ecircumflex" unicode="&#xca;" horiz-adv-x="584" 
d="M41.5 1.5q-7.5 1.5 -6.5 8.5l96 700q1 7 8.5 8.5t33.5 1.5h390q7 0 9.5 -2.5t2.5 -12.5q0 -16 -2 -29l-1 -8q-4 -29 -8 -37.5t-13 -8.5h-312l-28 -209h264q6 0 8.5 -3t2.5 -13q0 -16 -2 -29l-1 -7q-4 -29 -8 -37.5t-13 -8.5h-264l-30 -217h315q6 0 8.5 -2.5t2.5 -11.5
q0 -10 -3 -31l-1 -7q-4 -30 -7.5 -38t-12.5 -8h-396q-25 0 -32.5 1.5zM262 787q-3 0 -8 4t-12 11l-9 11q-11 13 -11 18q0 6 6 10l104 98q9 8 20 11t34 3h18q23 0 33 -3t17 -11l76 -98q2 -2 2 -6q0 -7 -16 -22l-8 -8q-17 -16 -24 -16q-3 0 -7 4l-89 89l-118 -92q-5 -3 -8 -3z
" />
    <glyph glyph-name="Edieresis" unicode="&#xcb;" horiz-adv-x="584" 
d="M41.5 1.5q-7.5 1.5 -6.5 8.5l96 700q1 7 8.5 8.5t33.5 1.5h390q7 0 9.5 -2.5t2.5 -12.5q0 -16 -2 -29l-1 -8q-4 -29 -8 -37.5t-13 -8.5h-312l-28 -209h264q6 0 8.5 -3t2.5 -13q0 -16 -2 -29l-1 -7q-4 -29 -8 -37.5t-13 -8.5h-264l-30 -217h315q6 0 8.5 -2.5t2.5 -11.5
q0 -10 -3 -31l-1 -7q-4 -30 -7.5 -38t-12.5 -8h-396q-25 0 -32.5 1.5zM227.5 817.5q-16.5 16.5 -16.5 40.5q0 27 19 48t49 21q27 0 43.5 -16.5t16.5 -40.5q0 -27 -19 -48t-50 -21q-26 0 -42.5 16.5zM436.5 817.5q-16.5 16.5 -16.5 40.5q0 27 19 48t49 21q27 0 43.5 -16.5
t16.5 -40.5q0 -27 -19 -48t-50 -21q-26 0 -42.5 16.5z" />
    <glyph glyph-name="Edotaccent" unicode="&#x116;" horiz-adv-x="584" 
d="M41.5 1.5q-7.5 1.5 -6.5 8.5l96 700q1 7 8.5 8.5t33.5 1.5h390q7 0 9.5 -2.5t2.5 -12.5q0 -16 -2 -29l-1 -8q-4 -29 -8 -37.5t-13 -8.5h-312l-28 -209h264q6 0 8.5 -3t2.5 -13q0 -16 -2 -29l-1 -7q-4 -29 -8 -37.5t-13 -8.5h-264l-30 -217h315q6 0 8.5 -2.5t2.5 -11.5
q0 -10 -3 -31l-1 -7q-4 -30 -7.5 -38t-12.5 -8h-396q-25 0 -32.5 1.5zM331 820q-17 17 -17 42q0 27 20 48.5t50 21.5q27 0 43.5 -16.5t16.5 -42.5t-19.5 -48t-49.5 -22q-27 0 -44 17z" />
    <glyph glyph-name="Egrave" unicode="&#xc8;" horiz-adv-x="584" 
d="M41.5 1.5q-7.5 1.5 -6.5 8.5l96 700q1 7 8.5 8.5t33.5 1.5h390q7 0 9.5 -2.5t2.5 -12.5q0 -16 -2 -29l-1 -8q-4 -29 -8 -37.5t-13 -8.5h-312l-28 -209h264q6 0 8.5 -3t2.5 -13q0 -16 -2 -29l-1 -7q-4 -29 -8 -37.5t-13 -8.5h-264l-30 -217h315q6 0 8.5 -2.5t2.5 -11.5
q0 -10 -3 -31l-1 -7q-4 -30 -7.5 -38t-12.5 -8h-396q-25 0 -32.5 1.5zM351.5 787q-6.5 2 -10.5 7l-94 150q-5 7 1.5 10.5t27.5 3.5h32q24 0 32.5 -2.5t10.5 -9.5l71 -149l1 -4q0 -8 -25 -8h-22q-18 0 -24.5 2z" />
    <glyph glyph-name="Emacron" unicode="&#x112;" horiz-adv-x="584" 
d="M41.5 1.5q-7.5 1.5 -6.5 8.5l96 700q1 7 8.5 8.5t33.5 1.5h390q7 0 9.5 -2.5t2.5 -12.5q0 -16 -2 -29l-1 -8q-4 -29 -8 -37.5t-13 -8.5h-312l-28 -209h264q6 0 8.5 -3t2.5 -13q0 -16 -2 -29l-1 -7q-4 -29 -8 -37.5t-13 -8.5h-264l-30 -217h315q6 0 8.5 -2.5t2.5 -11.5
q0 -10 -3 -31l-1 -7q-4 -30 -7.5 -38t-12.5 -8h-396q-25 0 -32.5 1.5zM237.5 828.5q-1.5 2.5 -1.5 9.5q0 14 2 24l2 11q3 21 6.5 28.5t10.5 7.5h260q5 0 6.5 -2.5t1.5 -9.5q0 -14 -2 -24l-1 -11q-3 -20 -6.5 -28t-10.5 -8h-261q-5 0 -6.5 2.5z" />
    <glyph glyph-name="Eogonek" unicode="&#x118;" horiz-adv-x="584" 
d="M293.5 -212q-28.5 25 -28.5 71q0 43 26.5 80.5t69.5 60.5h-287q-25 0 -32.5 1.5t-6.5 8.5l96 700q1 7 8.5 8.5t33.5 1.5h390q7 0 9.5 -2.5t2.5 -12.5q0 -16 -2 -29l-1 -8q-4 -29 -8 -37.5t-13 -8.5h-312l-28 -209h264q7 0 9 -2.5t2 -13.5q0 -16 -2 -29l-1 -7
q-4 -32 -7.5 -39t-13.5 -7h-264l-30 -217h315q6 0 8.5 -2.5t2.5 -10.5q0 -9 -3 -32l-1 -7q-3 -25 -6.5 -33.5t-14.5 -12.5q-51 -20 -83.5 -50t-32.5 -67q0 -22 11 -33.5t30 -11.5q14 0 43 9l4 1q4 0 6.5 -4.5t5.5 -17.5l3 -13q4 -13 4 -20q0 -8 -11 -13q-15 -8 -37.5 -12.5
t-42.5 -4.5q-47 0 -75.5 25z" />
    <glyph glyph-name="F" unicode="F" horiz-adv-x="554" 
d="M54 1q-13 1 -16 3t-2 8l95 698q1 7 8.5 8.5t32.5 1.5h393q7 0 9.5 -2.5t2.5 -11.5t-3 -30l-1 -9q-4 -29 -7.5 -37t-12.5 -8h-314l-28 -209h265q6 0 8 -2.5t2 -10.5l-2 -31l-1 -7q-4 -30 -7.5 -38.5t-11.5 -8.5h-266l-42 -303q-1 -8 -11 -10t-47 -2h-10q-21 0 -34 1z" />
    <glyph glyph-name="G" unicode="G" horiz-adv-x="694" 
d="M114 63.5q-74 73.5 -74 212.5q0 117 44.5 220.5t135 168.5t221.5 65q129 0 218 -63q5 -4 5 -10q0 -8 -18 -37l-9 -13q-12 -19 -20 -24t-14 -1q-41 24 -81 35t-88 11q-92 0 -153 -50t-89 -127t-28 -161q0 -199 194 -199q29 0 61 5t54 12l27 189h-139q-6 0 -8.5 3.5
t-2.5 13.5q0 9 3 30l2 10q4 27 8 34t12 7h219q25 0 31.5 -2.5t5.5 -10.5l-46 -321q-2 -12 -5.5 -16.5t-10.5 -8.5q-47 -21 -111.5 -33.5t-126.5 -12.5q-143 0 -217 73.5z" />
    <glyph glyph-name="Gbreve" unicode="&#x11e;" horiz-adv-x="694" 
d="M114 63.5q-74 73.5 -74 212.5q0 117 44.5 220.5t135 168.5t221.5 65q129 0 218 -63q5 -4 5 -10q0 -8 -18 -37l-9 -13q-12 -19 -20 -24t-14 -1q-41 24 -81 35t-88 11q-92 0 -153 -50t-89 -127t-28 -161q0 -199 194 -199q29 0 61 5t54 12l27 189h-139q-6 0 -8.5 3.5
t-2.5 13.5q0 9 3 30l2 10q4 27 8 34t12 7h219q25 0 31.5 -2.5t5.5 -10.5l-46 -321q-2 -12 -5.5 -16.5t-10.5 -8.5q-47 -21 -111.5 -33.5t-126.5 -12.5q-143 0 -217 73.5zM362 819.5q-34 23.5 -42 64.5q-5 15 -5 38q1 12 7 15t23 3h22q18 0 23 -2t5 -9q0 -28 15.5 -44.5
t43.5 -16.5q29 0 47.5 15t27.5 46q2 7 7 9t23 2h15q21 0 28 -2.5t6 -10.5q-12 -62 -55 -96.5t-107 -34.5q-50 0 -84 23.5z" />
    <glyph glyph-name="Gcircumflex" unicode="&#x11c;" horiz-adv-x="694" 
d="M114 63.5q-74 73.5 -74 212.5q0 117 44.5 220.5t135 168.5t221.5 65q129 0 218 -63q5 -4 5 -10q0 -8 -18 -37l-9 -13q-12 -19 -20 -24t-14 -1q-41 24 -81 35t-88 11q-92 0 -153 -50t-89 -127t-28 -161q0 -199 194 -199q29 0 61 5t54 12l27 189h-139q-6 0 -8.5 3.5
t-2.5 13.5q0 9 3 30l2 10q4 27 8 34t12 7h219q25 0 31.5 -2.5t5.5 -10.5l-46 -321q-2 -12 -5.5 -16.5t-10.5 -8.5q-47 -21 -111.5 -33.5t-126.5 -12.5q-143 0 -217 73.5zM343 787q-3 0 -8 4t-12 11l-9 11q-11 13 -11 18q0 6 6 10l104 98q9 8 20 11t34 3h18q23 0 33 -3
t17 -11l76 -98q2 -2 2 -6q0 -7 -16 -22l-8 -8q-17 -16 -24 -16q-3 0 -7 4l-89 89l-118 -92q-5 -3 -8 -3z" />
    <glyph glyph-name="Gcommaaccent" unicode="&#x122;" horiz-adv-x="694" 
d="M114 63.5q-74 73.5 -74 212.5q0 117 44.5 220.5t135 168.5t221.5 65q129 0 218 -63q5 -4 5 -10q0 -8 -18 -37l-9 -13q-12 -19 -20 -24t-14 -1q-41 24 -81 35t-88 11q-92 0 -153 -50t-89 -127t-28 -161q0 -199 194 -199q29 0 61 5t54 12l27 189h-139q-6 0 -8.5 3.5
t-2.5 13.5q0 9 3 30l2 10q4 27 8 34t12 7h219q25 0 31.5 -2.5t5.5 -10.5l-46 -321q-2 -12 -5.5 -16.5t-10.5 -8.5q-47 -21 -111.5 -33.5t-126.5 -12.5q-143 0 -217 73.5zM251 -305q-5 0 -11 7l-8 10q-5 7 -6 9.5t3 6.5q59 57 59 96q0 9 -3 15t-9 16q-12 18 -12 34
q0 23 17 38.5t42 15.5t38.5 -16.5t13.5 -43.5q0 -47 -35 -98t-83 -88q-4 -2 -6 -2z" />
    <glyph glyph-name="Gdotaccent" unicode="&#x120;" horiz-adv-x="694" 
d="M114 63.5q-74 73.5 -74 212.5q0 117 44.5 220.5t135 168.5t221.5 65q129 0 218 -63q5 -4 5 -10q0 -8 -18 -37l-9 -13q-12 -19 -20 -24t-14 -1q-41 24 -81 35t-88 11q-92 0 -153 -50t-89 -127t-28 -161q0 -199 194 -199q29 0 61 5t54 12l27 189h-139q-6 0 -8.5 3.5
t-2.5 13.5q0 9 3 30l2 10q4 27 8 34t12 7h219q25 0 31.5 -2.5t5.5 -10.5l-46 -321q-2 -12 -5.5 -16.5t-10.5 -8.5q-47 -21 -111.5 -33.5t-126.5 -12.5q-143 0 -217 73.5zM412 820q-17 17 -17 42q0 27 20 48.5t50 21.5q27 0 43.5 -16.5t16.5 -42.5t-19.5 -48t-49.5 -22
q-27 0 -44 17z" />
    <glyph glyph-name="H" unicode="H" horiz-adv-x="716" 
d="M52.5 1q-12.5 1 -15.5 3.5t-2 8.5l95 694q1 7 4.5 9.5t17 3t34.5 0.5h10q37 0 46 -2t8 -11l-40 -294h317l40 294q1 7 4.5 9.5t17 3t34.5 0.5h11q37 0 45.5 -2t7.5 -11l-95 -694q-1 -9 -10.5 -11t-46.5 -2h-12q-21 0 -33.5 1t-15.5 3.5t-2 8.5l42 302h-317l-42 -302
q-1 -9 -10.5 -11t-47.5 -2h-11q-21 0 -33.5 1z" />
    <glyph glyph-name="Hbar" unicode="&#x126;" horiz-adv-x="728" 
d="M747 615.5q2 -2.5 2 -10.5t-3 -28l-1 -6q-4 -27 -7.5 -34.5t-11.5 -7.5h-57l-71 -516q-1 -9 -10.5 -11t-46.5 -2h-12q-21 0 -33.5 1t-15.5 3.5t-2 8.5l42 302h-317l-42 -302q-1 -9 -10.5 -11t-47.5 -2h-11q-21 0 -33.5 1t-15.5 3.5t-2 8.5l71 516h-63q-5 0 -7 3t-2 11
q0 9 3 28l1 6q4 26 8 33.5t11 7.5h61l12 89q1 7 4.5 9.5t17 3t34.5 0.5h10q37 0 46 -2t8 -11l-12 -89h317l12 89q1 7 4.5 9.5t17 3t34.5 0.5h11q37 0 45.5 -2t7.5 -11l-12 -89h59q5 0 7 -2.5zM549 529h-317l-16 -116h317z" />
    <glyph glyph-name="Hcircumflex" unicode="&#x124;" horiz-adv-x="716" 
d="M52.5 1q-12.5 1 -15.5 3.5t-2 8.5l95 694q1 7 4.5 9.5t17 3t34.5 0.5h10q37 0 46 -2t8 -11l-40 -294h317l40 294q1 7 4.5 9.5t17 3t34.5 0.5h11q37 0 45.5 -2t7.5 -11l-95 -694q-1 -9 -10.5 -11t-46.5 -2h-12q-21 0 -33.5 1t-15.5 3.5t-2 8.5l42 302h-317l-42 -302
q-1 -9 -10.5 -11t-47.5 -2h-11q-21 0 -33.5 1zM311 787q-3 0 -8 4t-12 11l-9 11q-11 13 -11 18q0 6 6 10l104 98q9 8 20 11t34 3h18q23 0 33 -3t17 -11l76 -98q2 -2 2 -6q0 -7 -16 -22l-8 -8q-17 -16 -24 -16q-3 0 -7 4l-89 89l-118 -92q-5 -3 -8 -3z" />
    <glyph glyph-name="I" unicode="I" horiz-adv-x="286" 
d="M55.5 1q-12.5 1 -15.5 3.5t-2 8.5l95 694q1 6 4.5 8.5t17 3.5t34.5 1h10q36 0 46 -2.5t8 -10.5l-95 -694q-2 -8 -11.5 -10.5t-46.5 -2.5h-11q-21 0 -33.5 1z" />
    <glyph glyph-name="IJ" unicode="&#x132;" horiz-adv-x="739" 
d="M55.5 1q-12.5 1 -15.5 3.5t-2 8.5l95 694q1 6 4.5 8.5t17 3.5t34.5 1h10q36 0 46 -2.5t8 -10.5l-95 -694q-2 -8 -11.5 -10.5t-46.5 -2.5h-11q-21 0 -33.5 1zM344.5 -1.5q-35.5 8.5 -62.5 23.5q-6 3 -6 11q0 9 9 33l6 16q7 18 11.5 25t10.5 7q4 0 11 -3q21 -9 45.5 -14.5
t44.5 -5.5q41 0 65.5 18t38 54.5t22.5 100.5l61 443q1 8 12 10.5t45 2.5h10q32 0 43 -2.5t10 -10.5l-66 -480q-9 -65 -27 -108t-48 -72q-29 -29 -71.5 -43t-91.5 -14q-37 0 -72.5 8.5z" />
    <glyph glyph-name="Iacute" unicode="&#xcd;" horiz-adv-x="286" 
d="M55.5 1q-12.5 1 -15.5 3.5t-2 8.5l95 694q1 6 4.5 8.5t17 3.5t34.5 1h10q36 0 46 -2.5t8 -10.5l-95 -694q-2 -8 -11.5 -10.5t-46.5 -2.5h-11q-21 0 -33.5 1zM136 788q-5 3 0 10l110 148q5 7 13.5 9.5t32.5 2.5h37q21 0 26.5 -3.5t-0.5 -10.5l-136 -150q-6 -5 -13 -7
t-24 -2h-25q-16 0 -21 3z" />
    <glyph glyph-name="Iacute_J.loclNLD" horiz-adv-x="739" 
d="M55.5 1q-12.5 1 -15.5 3.5t-2 8.5l95 694q1 6 4.5 8.5t17 3.5t34.5 1h10q36 0 46 -2.5t8 -10.5l-95 -694q-2 -8 -11.5 -10.5t-46.5 -2.5h-11q-21 0 -33.5 1zM136 788q-5 3 0 10l110 148q5 7 13.5 9.5t32.5 2.5h37q21 0 26.5 -3.5t-0.5 -10.5l-136 -150q-6 -5 -13 -7
t-24 -2h-25q-16 0 -21 3zM344.5 -1.5q-35.5 8.5 -62.5 23.5q-6 3 -6 11q0 9 9 33l6 16q7 18 11.5 25t10.5 7q4 0 11 -3q21 -9 45.5 -14.5t44.5 -5.5q41 0 65.5 18t38 54.5t22.5 100.5l61 443q1 8 12 10.5t45 2.5h10q32 0 43 -2.5t10 -10.5l-66 -480q-9 -65 -27 -108t-48 -72
q-29 -29 -71.5 -43t-91.5 -14q-37 0 -72.5 8.5zM599 788q-5 3 0 10l110 148q5 7 13.5 9.5t32.5 2.5h37q21 0 26.5 -3.5t-0.5 -10.5l-136 -150q-6 -5 -13 -7t-24 -2h-25q-16 0 -21 3z" />
    <glyph glyph-name="Ibreve" unicode="&#x12c;" horiz-adv-x="286" 
d="M55.5 1q-12.5 1 -15.5 3.5t-2 8.5l95 694q1 6 4.5 8.5t17 3.5t34.5 1h10q36 0 46 -2.5t8 -10.5l-95 -694q-2 -8 -11.5 -10.5t-46.5 -2.5h-11q-21 0 -33.5 1zM117 819.5q-34 23.5 -42 64.5q-5 15 -5 38q1 12 7 15t23 3h22q18 0 23 -2t5 -9q0 -28 15.5 -44.5t43.5 -16.5
q29 0 47.5 15t27.5 46q2 7 7 9t23 2h15q21 0 28 -2.5t6 -10.5q-12 -62 -55 -96.5t-107 -34.5q-50 0 -84 23.5z" />
    <glyph glyph-name="Icircumflex" unicode="&#xce;" horiz-adv-x="286" 
d="M55.5 1q-12.5 1 -15.5 3.5t-2 8.5l95 694q1 6 4.5 8.5t17 3.5t34.5 1h10q36 0 46 -2.5t8 -10.5l-95 -694q-2 -8 -11.5 -10.5t-46.5 -2.5h-11q-21 0 -33.5 1zM98 787q-3 0 -8 4t-12 11l-9 11q-11 13 -11 18q0 6 6 10l104 98q9 8 20 11t34 3h18q23 0 33 -3t17 -11l76 -98
q2 -2 2 -6q0 -7 -16 -22l-8 -8q-17 -16 -24 -16q-3 0 -7 4l-89 89l-118 -92q-5 -3 -8 -3z" />
    <glyph glyph-name="Idieresis" unicode="&#xcf;" horiz-adv-x="286" 
d="M55.5 1q-12.5 1 -15.5 3.5t-2 8.5l95 694q1 6 4.5 8.5t17 3.5t34.5 1h10q36 0 46 -2.5t8 -10.5l-95 -694q-2 -8 -11.5 -10.5t-46.5 -2.5h-11q-21 0 -33.5 1zM63.5 817.5q-16.5 16.5 -16.5 40.5q0 27 19 48t49 21q27 0 43.5 -16.5t16.5 -40.5q0 -27 -19 -48t-50 -21
q-26 0 -42.5 16.5zM272.5 817.5q-16.5 16.5 -16.5 40.5q0 27 19 48t49 21q27 0 43.5 -16.5t16.5 -40.5q0 -27 -19 -48t-50 -21q-26 0 -42.5 16.5z" />
    <glyph glyph-name="Idotaccent" unicode="&#x130;" horiz-adv-x="286" 
d="M55.5 1q-12.5 1 -15.5 3.5t-2 8.5l95 694q1 6 4.5 8.5t17 3.5t34.5 1h10q36 0 46 -2.5t8 -10.5l-95 -694q-2 -8 -11.5 -10.5t-46.5 -2.5h-11q-21 0 -33.5 1zM167 820q-17 17 -17 42q0 27 20 48.5t50 21.5q27 0 43.5 -16.5t16.5 -42.5t-19.5 -48t-49.5 -22q-27 0 -44 17z
" />
    <glyph glyph-name="Igrave" unicode="&#xcc;" horiz-adv-x="286" 
d="M55.5 1q-12.5 1 -15.5 3.5t-2 8.5l95 694q1 6 4.5 8.5t17 3.5t34.5 1h10q36 0 46 -2.5t8 -10.5l-95 -694q-2 -8 -11.5 -10.5t-46.5 -2.5h-11q-21 0 -33.5 1zM187.5 787q-6.5 2 -10.5 7l-94 150q-5 7 1.5 10.5t27.5 3.5h32q24 0 32.5 -2.5t10.5 -9.5l71 -149l1 -4
q0 -8 -25 -8h-22q-18 0 -24.5 2z" />
    <glyph glyph-name="Imacron" unicode="&#x12a;" horiz-adv-x="286" 
d="M55.5 1q-12.5 1 -15.5 3.5t-2 8.5l95 694q1 6 4.5 8.5t17 3.5t34.5 1h10q36 0 46 -2.5t8 -10.5l-95 -694q-2 -8 -11.5 -10.5t-46.5 -2.5h-11q-21 0 -33.5 1zM73.5 828.5q-1.5 2.5 -1.5 9.5q0 14 2 24l2 11q3 21 6.5 28.5t10.5 7.5h260q5 0 6.5 -2.5t1.5 -9.5
q0 -14 -2 -24l-1 -11q-3 -20 -6.5 -28t-10.5 -8h-261q-5 0 -6.5 2.5z" />
    <glyph glyph-name="Iogonek" unicode="&#x12e;" horiz-adv-x="286" 
d="M-29 -212q-28 25 -28 70q0 41 26.5 78t67.5 64l96 707q1 6 4.5 8.5t17 3.5t34.5 1h10q36 0 45.5 -2.5t8.5 -10.5l-93 -681q-1 -9 -8 -15.5t-27 -17.5q-94 -52 -94 -117q0 -18 10 -28t29 -10q22 0 45 9l4 1q8 0 11 -22l3 -14q2 -14 2 -17q0 -11 -9 -15q-15 -8 -37.5 -12.5
t-42.5 -4.5q-47 0 -75 25z" />
    <glyph glyph-name="Itilde" unicode="&#x128;" horiz-adv-x="286" 
d="M55.5 1q-12.5 1 -15.5 3.5t-2 8.5l95 694q1 6 4.5 8.5t17 3.5t34.5 1h10q36 0 46 -2.5t8 -10.5l-95 -694q-2 -8 -11.5 -10.5t-46.5 -2.5h-11q-21 0 -33.5 1zM231 818q-15 6 -32 16q-11 6 -22.5 11t-22.5 5q-30 0 -60 -29q-3 -3 -7 -3q-6 0 -22 16l-4 4q-13 14 -13 21
q0 5 5 10q51 61 113 61q19 0 32.5 -5.5t32.5 -15.5q16 -9 25.5 -13t20.5 -4q33 0 62 29q3 3 6 3q7 0 22 -15l5 -5q13 -14 13 -21q0 -4 -5 -11q-24 -27 -53.5 -43.5t-61.5 -16.5q-19 0 -34 6z" />
    <glyph glyph-name="J" unicode="J" horiz-adv-x="453" 
d="M58.5 -1.5q-35.5 8.5 -62.5 23.5q-6 3 -6 11q0 9 9 33l6 16q7 18 11.5 25t10.5 7q4 0 11 -3q21 -9 45.5 -14.5t44.5 -5.5q41 0 65.5 18t38 54.5t22.5 100.5l61 443q1 8 12 10.5t45 2.5h10q32 0 43 -2.5t10 -10.5l-66 -480q-9 -65 -27 -108t-48 -72q-29 -29 -71.5 -43
t-91.5 -14q-37 0 -72.5 8.5z" />
    <glyph glyph-name="Jcircumflex" unicode="&#x134;" horiz-adv-x="453" 
d="M58.5 -1.5q-35.5 8.5 -62.5 23.5q-6 3 -6 11q0 9 9 33l6 16q7 18 11.5 25t10.5 7q4 0 11 -3q21 -9 45.5 -14.5t44.5 -5.5q41 0 65.5 18t38 54.5t22.5 100.5l61 443q1 8 12 10.5t45 2.5h10q32 0 43 -2.5t10 -10.5l-66 -480q-9 -65 -27 -108t-48 -72q-29 -29 -71.5 -43
t-91.5 -14q-37 0 -72.5 8.5zM275 787q-3 0 -8 4t-12 11l-9 11q-11 13 -11 18q0 6 6 10l104 98q9 8 20 11t34 3h18q23 0 33 -3t17 -11l76 -98q2 -2 2 -6q0 -7 -16 -22l-8 -8q-17 -16 -24 -16q-3 0 -7 4l-89 89l-118 -92q-5 -3 -8 -3z" />
    <glyph glyph-name="K" unicode="K" horiz-adv-x="642" 
d="M42 2.5q-9 2.5 -7 10.5l95 694q1 9 10.5 11t45.5 2h10q35 0 45 -2.5t9 -10.5l-43 -312l68 61q158 141 247 252q7 8 17 10t43 2h17q34 0 44 -3.5t4 -12.5q-93 -130 -276 -292h-1l199 -396q4 -10 -4.5 -13t-40.5 -3h-25q-38 0 -47 2t-14 11l-159 324l-89 -76l-35 -248
q-2 -8 -12.5 -10.5t-44.5 -2.5h-11q-36 0 -45 2.5z" />
    <glyph glyph-name="Kcommaaccent" unicode="&#x136;" horiz-adv-x="642" 
d="M42 2.5q-9 2.5 -7 10.5l95 694q1 9 10.5 11t45.5 2h10q35 0 45 -2.5t9 -10.5l-43 -312l68 61q158 141 247 252q7 8 17 10t43 2h17q34 0 44 -3.5t4 -12.5q-93 -130 -276 -292h-1l199 -396q4 -10 -4.5 -13t-40.5 -3h-25q-38 0 -47 2t-14 11l-159 324l-89 -76l-35 -248
q-2 -8 -12.5 -10.5t-44.5 -2.5h-11q-36 0 -45 2.5zM209 -305q-5 0 -11 7l-8 10q-5 7 -6 9.5t3 6.5q59 57 59 96q0 9 -3 15t-9 16q-12 18 -12 34q0 23 17 38.5t42 15.5t38.5 -16.5t13.5 -43.5q0 -47 -35 -98t-83 -88q-4 -2 -6 -2z" />
    <glyph glyph-name="L" unicode="L" horiz-adv-x="536" 
d="M39 2.5q-6 2.5 -4 11.5l95 693q1 9 10 11t45 2h11q36 0 45.5 -2.5t8.5 -10.5l-83 -609h293q4 0 6 -3t2 -11t-3 -31l-1 -7q-4 -29 -7.5 -37.5t-10.5 -8.5h-377q-24 0 -30 2.5z" />
    <glyph glyph-name="Lacute" unicode="&#x139;" horiz-adv-x="536" 
d="M39 2.5q-6 2.5 -4 11.5l95 693q1 9 10 11t45 2h11q36 0 45.5 -2.5t8.5 -10.5l-83 -609h293q4 0 6 -3t2 -11t-3 -31l-1 -7q-4 -29 -7.5 -37.5t-10.5 -8.5h-377q-24 0 -30 2.5zM151 774q-5 3 0 10l110 148q5 7 13.5 9.5t32.5 2.5h37q21 0 26.5 -3.5t-0.5 -10.5l-136 -150
q-6 -5 -13 -7t-24 -2h-25q-16 0 -21 3z" />
    <glyph glyph-name="Lcaron" unicode="&#x13d;" horiz-adv-x="535" 
d="M39 2.5q-6 2.5 -4 11.5l95 693q1 9 10 11t45 2h11q36 0 45.5 -2.5t8.5 -10.5l-83 -609h293q4 0 6 -3t2 -11t-3 -31l-1 -7q-4 -29 -7.5 -37.5t-10.5 -8.5h-377q-24 0 -30 2.5zM316 482q-5 0 -11 7l-8 10q-5 7 -6 9.5t3 6.5q59 57 59 96q0 9 -3 15t-9 16q-12 18 -12 34
q0 23 17 38.5t42 15.5t38.5 -16.5t13.5 -43.5q0 -47 -35 -98t-83 -88q-4 -2 -6 -2z" />
    <glyph glyph-name="Lcommaaccent" unicode="&#x13b;" horiz-adv-x="536" 
d="M39 2.5q-6 2.5 -4 11.5l95 693q1 9 10 11t45 2h11q36 0 45.5 -2.5t8.5 -10.5l-83 -609h293q4 0 6 -3t2 -11t-3 -31l-1 -7q-4 -29 -7.5 -37.5t-10.5 -8.5h-377q-24 0 -30 2.5zM168 -305q-5 0 -11 7l-8 10q-5 7 -6 9.5t3 6.5q59 57 59 96q0 9 -3 15t-9 16q-12 18 -12 34
q0 23 17 38.5t42 15.5t38.5 -16.5t13.5 -43.5q0 -47 -35 -98t-83 -88q-4 -2 -6 -2z" />
    <glyph glyph-name="Ldot" unicode="&#x13f;" horiz-adv-x="535" 
d="M39 2.5q-6 2.5 -4 11.5l95 693q1 9 10 11t45 2h11q36 0 45.5 -2.5t8.5 -10.5l-83 -609h293q4 0 6 -3t2 -11t-3 -31l-1 -7q-4 -29 -7.5 -37.5t-10.5 -8.5h-377q-24 0 -30 2.5zM346 344q-17 17 -17 41q0 28 20 49.5t50 21.5q27 0 43.5 -16.5t16.5 -42.5t-19.5 -48
t-49.5 -22q-27 0 -44 17z" />
    <glyph glyph-name="Lslash" unicode="&#x141;" horiz-adv-x="544" 
d="M475 95q2 -3 2 -11t-3 -31l-1 -7q-4 -29 -7.5 -37.5t-10.5 -8.5h-377q-24 0 -30 2.5t-4 11.5l36 262l-71 -40q-10 -7 -10 11l2 22l3 21q4 26 7.5 34t10.5 12l72 41l45 330q1 9 10 11t45 2h11q36 0 45.5 -2.5t8.5 -10.5l-35 -255l132 76q13 7 13 -10q0 -4 -2 -22l-3 -22
q-4 -25 -7 -33t-11 -13l-136 -77l-34 -253h293q4 0 6 -3z" />
    <glyph glyph-name="M" unicode="M" horiz-adv-x="853" 
d="M52 1q-13 1 -16 3t-3 9l97 693q2 8 13 11t46 3h27q35 0 46 -3t14 -12l79 -236q30 -90 66 -211q19 33 51.5 88t51.5 88l21 35l141 236q6 9 18 12t49 3h21q34 0 44 -3t8 -11l-97 -693q-1 -9 -10.5 -11t-46.5 -2h-8q-21 0 -34 1t-16 3.5t-2 8.5l42 294l32 212l-13 -23
q-54 -100 -103 -180l-112 -181q-5 -8 -13 -10t-41 -2h-9q-33 0 -41.5 2t-11.5 10l-61 181q-43 127 -63 205q-3 -50 -25 -206l-42 -302q-1 -9 -11 -11t-47 -2h-6q-22 0 -35 1z" />
    <glyph glyph-name="N" unicode="N" horiz-adv-x="735" 
d="M51.5 1q-12.5 1 -15 3.5t-1.5 8.5l94 694q2 8 10 10.5t39 2.5h6q35 0 44 -2.5t14 -11.5l193 -343q52 -94 91 -176q11 96 18 141q2 26 8 67l44 312q1 9 9.5 11t43.5 2h7q34 0 43 -2.5t7 -10.5l-95 -694q-2 -8 -10 -10.5t-41 -2.5h-7q-33 0 -42 2.5t-14 11.5l-178 319
q-60 108 -105 212q-10 -110 -27 -231l-42 -301q-2 -8 -10.5 -10.5t-42.5 -2.5h-7q-21 0 -33.5 1z" />
    <glyph glyph-name="Nacute" unicode="&#x143;" horiz-adv-x="735" 
d="M51.5 1q-12.5 1 -15 3.5t-1.5 8.5l94 694q2 8 10 10.5t39 2.5h6q35 0 44 -2.5t14 -11.5l193 -343q52 -94 91 -176q11 96 18 141q2 26 8 67l44 312q1 9 9.5 11t43.5 2h7q34 0 43 -2.5t7 -10.5l-95 -694q-2 -8 -10 -10.5t-41 -2.5h-7q-33 0 -42 2.5t-14 11.5l-178 319
q-60 108 -105 212q-10 -110 -27 -231l-42 -301q-2 -8 -10.5 -10.5t-42.5 -2.5h-7q-21 0 -33.5 1zM369 788q-5 3 0 10l110 148q5 7 13.5 9.5t32.5 2.5h37q21 0 26.5 -3.5t-0.5 -10.5l-136 -150q-6 -5 -13 -7t-24 -2h-25q-16 0 -21 3z" />
    <glyph glyph-name="Nacute.loclPLK" horiz-adv-x="735" 
d="M51.5 1q-12.5 1 -15 3.5t-1.5 8.5l94 694q2 8 10 10.5t39 2.5h6q35 0 44 -2.5t14 -11.5l193 -343q52 -94 91 -176q11 96 18 141q2 26 8 67l44 312q1 9 9.5 11t43.5 2h7q34 0 43 -2.5t7 -10.5l-95 -694q-2 -8 -10 -10.5t-41 -2.5h-7q-33 0 -42 2.5t-14 11.5l-178 319
q-60 108 -105 212q-10 -110 -27 -231l-42 -301q-2 -8 -10.5 -10.5t-42.5 -2.5h-7q-21 0 -33.5 1zM382.5 788q-5.5 3 -2.5 10l62 148q3 8 10.5 10t31.5 2h34q23 0 29.5 -3t1.5 -11l-85 -149q-4 -6 -10.5 -8t-24.5 -2h-24q-17 0 -22.5 3z" />
    <glyph glyph-name="Ncaron" unicode="&#x147;" horiz-adv-x="735" 
d="M51.5 1q-12.5 1 -15 3.5t-1.5 8.5l94 694q2 8 10 10.5t39 2.5h6q35 0 44 -2.5t14 -11.5l193 -343q52 -94 91 -176q11 96 18 141q2 26 8 67l44 312q1 9 9.5 11t43.5 2h7q34 0 43 -2.5t7 -10.5l-95 -694q-2 -8 -10 -10.5t-41 -2.5h-7q-33 0 -42 2.5t-14 11.5l-178 319
q-60 108 -105 212q-10 -110 -27 -231l-42 -301q-2 -8 -10.5 -10.5t-42.5 -2.5h-7q-21 0 -33.5 1zM391 790.5q-10 2.5 -17 11.5l-76 98q-3 3 -3 6q0 7 17 23l8 8q17 16 25 16q3 0 7 -4l89 -89l117 91q4 3 8 3t9 -4t11 -11l9 -10q11 -13 11 -19q0 -5 -6 -10l-104 -98
q-9 -8 -20 -11t-34 -3h-17q-24 0 -34 2.5z" />
    <glyph glyph-name="Ncommaaccent" unicode="&#x145;" horiz-adv-x="735" 
d="M51.5 1q-12.5 1 -15 3.5t-1.5 8.5l94 694q2 8 10 10.5t39 2.5h6q35 0 44 -2.5t14 -11.5l193 -343q52 -94 91 -176q11 96 18 141q2 26 8 67l44 312q1 9 9.5 11t43.5 2h7q34 0 43 -2.5t7 -10.5l-95 -694q-2 -8 -10 -10.5t-41 -2.5h-7q-33 0 -42 2.5t-14 11.5l-178 319
q-60 108 -105 212q-10 -110 -27 -231l-42 -301q-2 -8 -10.5 -10.5t-42.5 -2.5h-7q-21 0 -33.5 1zM243 -305q-5 0 -11 7l-8 10q-5 7 -6 9.5t3 6.5q59 57 59 96q0 9 -3 15t-9 16q-12 18 -12 34q0 23 17 38.5t42 15.5t38.5 -16.5t13.5 -43.5q0 -47 -35 -98t-83 -88q-4 -2 -6 -2
z" />
    <glyph glyph-name="Eng" unicode="&#x14a;" horiz-adv-x="735" 
d="M318 -171q-7 3 -7 12q0 7 6 31l4 14q6 22 10 27t14 3q30 -7 50 -7q42 0 67 23.5t35 77.5l-179 323q-65 116 -106 212q-10 -110 -27 -231l-42 -301q-1 -8 -9.5 -10.5t-42.5 -2.5h-7q-21 0 -33.5 1t-15.5 3.5t-2 8.5l94 694q2 8 10 10.5t39 2.5h6q35 0 44 -2.5t14 -11.5
l193 -343q55 -96 91 -176q9 81 27 208l43 312q1 9 9.5 11t43.5 2h7q34 0 43 -2.5t7 -10.5l-90 -659q-15 -121 -63.5 -178t-146.5 -57q-47 0 -86 16z" />
    <glyph glyph-name="Ntilde" unicode="&#xd1;" horiz-adv-x="735" 
d="M51.5 1q-12.5 1 -15 3.5t-1.5 8.5l94 694q2 8 10 10.5t39 2.5h6q35 0 44 -2.5t14 -11.5l193 -343q52 -94 91 -176q11 96 18 141q2 26 8 67l44 312q1 9 9.5 11t43.5 2h7q34 0 43 -2.5t7 -10.5l-95 -694q-2 -8 -10 -10.5t-41 -2.5h-7q-33 0 -42 2.5t-14 11.5l-178 319
q-60 108 -105 212q-10 -110 -27 -231l-42 -301q-2 -8 -10.5 -10.5t-42.5 -2.5h-7q-21 0 -33.5 1zM464 818q-15 6 -32 16q-11 6 -22.5 11t-22.5 5q-30 0 -60 -29q-3 -3 -7 -3q-6 0 -22 16l-4 4q-13 14 -13 21q0 5 5 10q51 61 113 61q19 0 32.5 -5.5t32.5 -15.5
q16 -9 25.5 -13t20.5 -4q33 0 62 29q3 3 6 3q7 0 22 -15l5 -5q13 -14 13 -21q0 -4 -5 -11q-24 -27 -53.5 -43.5t-61.5 -16.5q-19 0 -34 6z" />
    <glyph glyph-name="O" unicode="O" horiz-adv-x="741" 
d="M113.5 65.5q-73.5 75.5 -73.5 207.5q0 118 44 222.5t132.5 169.5t216.5 65q131 0 205.5 -74.5t74.5 -205.5q0 -119 -44.5 -224t-134 -170.5t-218.5 -65.5t-202.5 75.5zM470 139q58 47 88.5 126t30.5 172q0 91 -45 141t-127 50q-78 0 -135 -47.5t-87.5 -127t-30.5 -172.5
q0 -90 44.5 -139.5t126.5 -49.5q77 0 135 47z" />
    <glyph glyph-name="Oacute" unicode="&#xd3;" horiz-adv-x="741" 
d="M113.5 65.5q-73.5 75.5 -73.5 207.5q0 118 44 222.5t132.5 169.5t216.5 65q131 0 205.5 -74.5t74.5 -205.5q0 -119 -44.5 -224t-134 -170.5t-218.5 -65.5t-202.5 75.5zM470 139q58 47 88.5 126t30.5 172q0 91 -45 141t-127 50q-78 0 -135 -47.5t-87.5 -127t-30.5 -172.5
q0 -90 44.5 -139.5t126.5 -49.5q77 0 135 47zM383 788q-5 3 0 10l110 148q5 7 13.5 9.5t32.5 2.5h37q21 0 26.5 -3.5t-0.5 -10.5l-136 -150q-6 -5 -13 -7t-24 -2h-25q-16 0 -21 3z" />
    <glyph glyph-name="Oacute.loclPLK" horiz-adv-x="741" 
d="M113.5 65.5q-73.5 75.5 -73.5 207.5q0 118 44 222.5t132.5 169.5t216.5 65q131 0 205.5 -74.5t74.5 -205.5q0 -119 -44.5 -224t-134 -170.5t-218.5 -65.5t-202.5 75.5zM470 139q58 47 88.5 126t30.5 172q0 91 -45 141t-127 50q-78 0 -135 -47.5t-87.5 -127t-30.5 -172.5
q0 -90 44.5 -139.5t126.5 -49.5q77 0 135 47zM396.5 788q-5.5 3 -2.5 10l62 148q3 8 10.5 10t31.5 2h34q23 0 29.5 -3t1.5 -11l-85 -149q-4 -6 -10.5 -8t-24.5 -2h-24q-17 0 -22.5 3z" />
    <glyph glyph-name="Obreve" unicode="&#x14e;" horiz-adv-x="741" 
d="M113.5 65.5q-73.5 75.5 -73.5 207.5q0 118 44 222.5t132.5 169.5t216.5 65q131 0 205.5 -74.5t74.5 -205.5q0 -119 -44.5 -224t-134 -170.5t-218.5 -65.5t-202.5 75.5zM470 139q58 47 88.5 126t30.5 172q0 91 -45 141t-127 50q-78 0 -135 -47.5t-87.5 -127t-30.5 -172.5
q0 -90 44.5 -139.5t126.5 -49.5q77 0 135 47zM364 819.5q-34 23.5 -42 64.5q-5 15 -5 38q1 12 7 15t23 3h22q18 0 23 -2t5 -9q0 -28 15.5 -44.5t43.5 -16.5q29 0 47.5 15t27.5 46q2 7 7 9t23 2h15q21 0 28 -2.5t6 -10.5q-12 -62 -55 -96.5t-107 -34.5q-50 0 -84 23.5z" />
    <glyph glyph-name="Ocircumflex" unicode="&#xd4;" horiz-adv-x="741" 
d="M113.5 65.5q-73.5 75.5 -73.5 207.5q0 118 44 222.5t132.5 169.5t216.5 65q131 0 205.5 -74.5t74.5 -205.5q0 -119 -44.5 -224t-134 -170.5t-218.5 -65.5t-202.5 75.5zM470 139q58 47 88.5 126t30.5 172q0 91 -45 141t-127 50q-78 0 -135 -47.5t-87.5 -127t-30.5 -172.5
q0 -90 44.5 -139.5t126.5 -49.5q77 0 135 47zM345 787q-3 0 -8 4t-12 11l-9 11q-11 13 -11 18q0 6 6 10l104 98q9 8 20 11t34 3h18q23 0 33 -3t17 -11l76 -98q2 -2 2 -6q0 -7 -16 -22l-8 -8q-17 -16 -24 -16q-3 0 -7 4l-89 89l-118 -92q-5 -3 -8 -3z" />
    <glyph glyph-name="Odieresis" unicode="&#xd6;" horiz-adv-x="741" 
d="M113.5 65.5q-73.5 75.5 -73.5 207.5q0 118 44 222.5t132.5 169.5t216.5 65q131 0 205.5 -74.5t74.5 -205.5q0 -119 -44.5 -224t-134 -170.5t-218.5 -65.5t-202.5 75.5zM470 139q58 47 88.5 126t30.5 172q0 91 -45 141t-127 50q-78 0 -135 -47.5t-87.5 -127t-30.5 -172.5
q0 -90 44.5 -139.5t126.5 -49.5q77 0 135 47zM310.5 817.5q-16.5 16.5 -16.5 40.5q0 27 19 48t49 21q27 0 43.5 -16.5t16.5 -40.5q0 -27 -19 -48t-50 -21q-26 0 -42.5 16.5zM519.5 817.5q-16.5 16.5 -16.5 40.5q0 27 19 48t49 21q27 0 43.5 -16.5t16.5 -40.5q0 -27 -19 -48
t-50 -21q-26 0 -42.5 16.5z" />
    <glyph glyph-name="Ograve" unicode="&#xd2;" horiz-adv-x="741" 
d="M113.5 65.5q-73.5 75.5 -73.5 207.5q0 118 44 222.5t132.5 169.5t216.5 65q131 0 205.5 -74.5t74.5 -205.5q0 -119 -44.5 -224t-134 -170.5t-218.5 -65.5t-202.5 75.5zM470 139q58 47 88.5 126t30.5 172q0 91 -45 141t-127 50q-78 0 -135 -47.5t-87.5 -127t-30.5 -172.5
q0 -90 44.5 -139.5t126.5 -49.5q77 0 135 47zM434.5 787q-6.5 2 -10.5 7l-94 150q-5 7 1.5 10.5t27.5 3.5h32q24 0 32.5 -2.5t10.5 -9.5l71 -149l1 -4q0 -8 -25 -8h-22q-18 0 -24.5 2z" />
    <glyph glyph-name="Ohungarumlaut" unicode="&#x150;" horiz-adv-x="741" 
d="M113.5 65.5q-73.5 75.5 -73.5 207.5q0 118 44 222.5t132.5 169.5t216.5 65q131 0 205.5 -74.5t74.5 -205.5q0 -119 -44.5 -224t-134 -170.5t-218.5 -65.5t-202.5 75.5zM470 139q58 47 88.5 126t30.5 172q0 91 -45 141t-127 50q-78 0 -135 -47.5t-87.5 -127t-30.5 -172.5
q0 -90 44.5 -139.5t126.5 -49.5q77 0 135 47zM285.5 792.5q-4.5 2.5 -0.5 9.5l104 144q5 7 13 9.5t30 2.5h35q21 0 26 -3.5t-1 -10.5l-126 -145q-5 -6 -12 -7.5t-24 -1.5h-25q-15 0 -19.5 2.5zM468 792.5q-5 2.5 0 9.5l103 144q5 7 13.5 9.5t30.5 2.5h35q20 0 25.5 -3.5
t-0.5 -10.5l-126 -145q-5 -6 -12 -7.5t-24 -1.5h-25q-15 0 -20 2.5z" />
    <glyph glyph-name="Omacron" unicode="&#x14c;" horiz-adv-x="741" 
d="M113.5 65.5q-73.5 75.5 -73.5 207.5q0 118 44 222.5t132.5 169.5t216.5 65q131 0 205.5 -74.5t74.5 -205.5q0 -119 -44.5 -224t-134 -170.5t-218.5 -65.5t-202.5 75.5zM470 139q58 47 88.5 126t30.5 172q0 91 -45 141t-127 50q-78 0 -135 -47.5t-87.5 -127t-30.5 -172.5
q0 -90 44.5 -139.5t126.5 -49.5q77 0 135 47zM320.5 828.5q-1.5 2.5 -1.5 9.5q0 14 2 24l2 11q3 21 6.5 28.5t10.5 7.5h260q5 0 6.5 -2.5t1.5 -9.5q0 -14 -2 -24l-1 -11q-3 -20 -6.5 -28t-10.5 -8h-261q-5 0 -6.5 2.5z" />
    <glyph glyph-name="Oslash" unicode="&#xd8;" horiz-adv-x="741" 
d="M713 450q0 -119 -44.5 -224t-134 -170.5t-218.5 -65.5q-81 0 -141 31l-49 -68q-7 -10 -13 -10q-10 0 -27 13l-12 8q-24 16 -24 24q0 3 3 8l55 76q-33 36 -50.5 87t-17.5 114q0 118 44 222.5t132.5 169.5t216.5 65q75 0 133 -26l46 63q7 10 14 10q9 0 26 -13l12 -8
q23 -14 23 -24q0 -3 -3 -8l-48 -66q77 -75 77 -208zM185 178l314 433q-36 17 -82 17q-78 0 -135 -47.5t-87.5 -127t-30.5 -172.5q0 -61 21 -103zM470 139q58 47 88.5 126t30.5 172q0 70 -28 117l-318 -440q39 -22 92 -22q77 0 135 47z" />
    <glyph glyph-name="Oslashacute" unicode="&#x1fe;" horiz-adv-x="741" 
d="M713 450q0 -119 -44.5 -224t-134 -170.5t-218.5 -65.5q-81 0 -141 31l-49 -68q-7 -10 -13 -10q-10 0 -27 13l-12 8q-24 16 -24 24q0 3 3 8l55 76q-33 36 -50.5 87t-17.5 114q0 118 44 222.5t132.5 169.5t216.5 65q75 0 133 -26l46 63q7 10 14 10q9 0 26 -13l12 -8
q23 -14 23 -24q0 -3 -3 -8l-48 -66q77 -75 77 -208zM185 178l314 433q-36 17 -82 17q-78 0 -135 -47.5t-87.5 -127t-30.5 -172.5q0 -61 21 -103zM470 139q58 47 88.5 126t30.5 172q0 70 -28 117l-318 -440q39 -22 92 -22q77 0 135 47zM376 788q-5 3 0 10l110 148
q5 7 13.5 9.5t32.5 2.5h37q21 0 26.5 -3.5t-0.5 -10.5l-136 -150q-6 -5 -13 -7t-24 -2h-25q-16 0 -21 3z" />
    <glyph glyph-name="Otilde" unicode="&#xd5;" horiz-adv-x="741" 
d="M113.5 65.5q-73.5 75.5 -73.5 207.5q0 118 44 222.5t132.5 169.5t216.5 65q131 0 205.5 -74.5t74.5 -205.5q0 -119 -44.5 -224t-134 -170.5t-218.5 -65.5t-202.5 75.5zM470 139q58 47 88.5 126t30.5 172q0 91 -45 141t-127 50q-78 0 -135 -47.5t-87.5 -127t-30.5 -172.5
q0 -90 44.5 -139.5t126.5 -49.5q77 0 135 47zM478 818q-15 6 -32 16q-11 6 -22.5 11t-22.5 5q-30 0 -60 -29q-3 -3 -7 -3q-6 0 -22 16l-4 4q-13 14 -13 21q0 5 5 10q51 61 113 61q19 0 32.5 -5.5t32.5 -15.5q16 -9 25.5 -13t20.5 -4q33 0 62 29q3 3 6 3q7 0 22 -15l5 -5
q13 -14 13 -21q0 -4 -5 -11q-24 -27 -53.5 -43.5t-61.5 -16.5q-19 0 -34 6z" />
    <glyph glyph-name="OE" unicode="&#x152;" horiz-adv-x="1013" 
d="M116 68.5q-75 78.5 -75 215.5q0 96 30 180t85 144q108 122 284 122q32 0 79 -5q12 -1 38.5 -3t44.5 -2h390q7 0 9.5 -2.5t2.5 -12.5q0 -16 -2 -29l-1 -8q-4 -29 -8 -37.5t-13 -8.5h-312l-28 -209h264q7 0 9 -2.5t2 -12.5q0 -16 -2 -29l-1 -8q-4 -30 -8 -38t-13 -8h-264
l-30 -217h315q6 0 8.5 -2.5t2.5 -11.5q0 -10 -3 -31l-1 -7q-4 -30 -7.5 -38t-12.5 -8h-386q-27 0 -58 -2t-42 -3q-50 -5 -88 -5q-134 0 -209 78.5zM476 97l71 521q-75 11 -112 11q-59 0 -108 -23.5t-85 -67.5q-36 -45 -56.5 -107t-20.5 -134q0 -95 43 -147q47 -59 149 -59
q33 0 119 6z" />
    <glyph glyph-name="P" unicode="P" horiz-adv-x="590" 
d="M52.5 1q-12.5 1 -15.5 3.5t-2 8.5l96 697q1 6 9.5 8t32.5 2h121q141 0 214.5 -42t73.5 -154q0 -82 -38 -141t-106 -90t-156 -31q-57 0 -92 5l-35 -254q-1 -9 -11 -11t-47 -2h-11q-21 0 -33.5 1zM412 398.5q46 40.5 46 114.5q0 63 -39 86.5t-119 23.5h-61l-36 -260
q38 -5 80 -5q83 0 129 40.5z" />
    <glyph glyph-name="Thorn" unicode="&#xde;" horiz-adv-x="602" 
d="M52.5 1q-12.5 1 -15.5 3.5t-2 8.5l95 694q1 9 10 11t45 2h11q36 0 46 -2.5t8 -10.5l-17 -126h45q93 0 155.5 -16.5t97.5 -59.5t35 -120q0 -82 -38 -141t-106 -90t-156 -31q-61 0 -96 5l-15 -115q-1 -9 -11 -11t-47 -2h-11q-21 0 -33.5 1zM397 260.5q46 41.5 46 117.5
q0 60 -41.5 83t-116.5 23h-65l-37 -260q38 -5 84 -5q84 0 130 41.5z" />
    <glyph glyph-name="Q" unicode="Q" horiz-adv-x="741" 
d="M350 -45q-20 22 -31.5 28t-36.5 8q-114 11 -178 85t-64 197q0 118 44 222.5t132.5 169.5t216.5 65q131 0 205.5 -74.5t74.5 -205.5q0 -97 -30 -186.5t-90.5 -157t-148.5 -96.5q27 -15 52 -44l70 -73q5 -5 5 -10q0 -9 -27 -33l-16 -14q-28 -24 -40 -24q-7 0 -12 6z
M470 139q58 47 88.5 126t30.5 172q0 91 -45 141t-127 50q-78 0 -135 -47.5t-87.5 -127t-30.5 -172.5q0 -90 44.5 -139.5t126.5 -49.5q77 0 135 47z" />
    <glyph glyph-name="R" unicode="R" horiz-adv-x="633" 
d="M556 18q5 -10 -4.5 -14t-39.5 -4h-28q-33 0 -42.5 2.5t-14.5 11.5l-98 204q-14 30 -25 43.5t-27.5 18.5t-48.5 5h-36l-37 -272q-1 -9 -11 -11t-46 -2h-11q-36 0 -45 2.5t-7 10.5l96 697q4 7 11 8.5t31 1.5h134q99 0 154 -15.5t88 -53.5q17 -21 27.5 -52t10.5 -66
q0 -83 -47 -143.5t-135 -89.5q19 -19 40 -61zM416 417q47 37 47 105q0 42 -17 64t-49.5 29.5t-86.5 7.5h-71l-34 -243h81q83 0 130 37z" />
    <glyph glyph-name="Racute" unicode="&#x154;" horiz-adv-x="633" 
d="M556 18q5 -10 -4.5 -14t-39.5 -4h-28q-33 0 -42.5 2.5t-14.5 11.5l-98 204q-14 30 -25 43.5t-27.5 18.5t-48.5 5h-36l-37 -272q-1 -9 -11 -11t-46 -2h-11q-36 0 -45 2.5t-7 10.5l96 697q4 7 11 8.5t31 1.5h134q99 0 154 -15.5t88 -53.5q17 -21 27.5 -52t10.5 -66
q0 -83 -47 -143.5t-135 -89.5q19 -19 40 -61zM416 417q47 37 47 105q0 42 -17 64t-49.5 29.5t-86.5 7.5h-71l-34 -243h81q83 0 130 37zM305 788q-5 3 0 10l110 148q5 7 13.5 9.5t32.5 2.5h37q21 0 26.5 -3.5t-0.5 -10.5l-136 -150q-6 -5 -13 -7t-24 -2h-25q-16 0 -21 3z" />
    <glyph glyph-name="Rcaron" unicode="&#x158;" horiz-adv-x="633" 
d="M556 18q5 -10 -4.5 -14t-39.5 -4h-28q-33 0 -42.5 2.5t-14.5 11.5l-98 204q-14 30 -25 43.5t-27.5 18.5t-48.5 5h-36l-37 -272q-1 -9 -11 -11t-46 -2h-11q-36 0 -45 2.5t-7 10.5l96 697q4 7 11 8.5t31 1.5h134q99 0 154 -15.5t88 -53.5q17 -21 27.5 -52t10.5 -66
q0 -83 -47 -143.5t-135 -89.5q19 -19 40 -61zM416 417q47 37 47 105q0 42 -17 64t-49.5 29.5t-86.5 7.5h-71l-34 -243h81q83 0 130 37zM327 790.5q-10 2.5 -17 11.5l-76 98q-3 3 -3 6q0 7 17 23l8 8q17 16 25 16q3 0 7 -4l89 -89l117 91q4 3 8 3t9 -4t11 -11l9 -10
q11 -13 11 -19q0 -5 -6 -10l-104 -98q-9 -8 -20 -11t-34 -3h-17q-24 0 -34 2.5z" />
    <glyph glyph-name="Rcommaaccent" unicode="&#x156;" horiz-adv-x="633" 
d="M556 18q5 -10 -4.5 -14t-39.5 -4h-28q-33 0 -42.5 2.5t-14.5 11.5l-98 204q-14 30 -25 43.5t-27.5 18.5t-48.5 5h-36l-37 -272q-1 -9 -11 -11t-46 -2h-11q-36 0 -45 2.5t-7 10.5l96 697q4 7 11 8.5t31 1.5h134q99 0 154 -15.5t88 -53.5q17 -21 27.5 -52t10.5 -66
q0 -83 -47 -143.5t-135 -89.5q19 -19 40 -61zM416 417q47 37 47 105q0 42 -17 64t-49.5 29.5t-86.5 7.5h-71l-34 -243h81q83 0 130 37zM213 -305q-5 0 -11 7l-8 10q-5 7 -6 9.5t3 6.5q59 57 59 96q0 9 -3 15t-9 16q-12 18 -12 34q0 23 17 38.5t42 15.5t38.5 -16.5
t13.5 -43.5q0 -47 -35 -98t-83 -88q-4 -2 -6 -2z" />
    <glyph glyph-name="S" unicode="S" horiz-adv-x="572" 
d="M108.5 6q-56.5 16 -95.5 46q-6 5 -6 11q0 9 16 35l10 18q17 28 28 28q2 0 10 -4q37 -23 79 -36t84 -13q66 0 111 29t45 82q0 36 -28.5 62t-99.5 61q-79 39 -119 81.5t-40 110.5q0 59 34.5 108t94.5 77t133 28q53 0 100.5 -13t81.5 -37q7 -4 7 -11q0 -9 -15 -34l-8 -13
q-14 -23 -20.5 -28.5t-14.5 -0.5q-33 19 -65.5 28.5t-71.5 9.5q-57 0 -95.5 -28.5t-38.5 -73.5q0 -32 25 -54.5t93 -58.5q58 -30 91.5 -53.5t54 -58.5t20.5 -86q0 -67 -35 -119t-98.5 -80.5t-145.5 -28.5q-65 0 -121.5 16z" />
    <glyph glyph-name="Sacute" unicode="&#x15a;" horiz-adv-x="572" 
d="M108.5 6q-56.5 16 -95.5 46q-6 5 -6 11q0 9 16 35l10 18q17 28 28 28q2 0 10 -4q37 -23 79 -36t84 -13q66 0 111 29t45 82q0 36 -28.5 62t-99.5 61q-79 39 -119 81.5t-40 110.5q0 59 34.5 108t94.5 77t133 28q53 0 100.5 -13t81.5 -37q7 -4 7 -11q0 -9 -15 -34l-8 -13
q-14 -23 -20.5 -28.5t-14.5 -0.5q-33 19 -65.5 28.5t-71.5 9.5q-57 0 -95.5 -28.5t-38.5 -73.5q0 -32 25 -54.5t93 -58.5q58 -30 91.5 -53.5t54 -58.5t20.5 -86q0 -67 -35 -119t-98.5 -80.5t-145.5 -28.5q-65 0 -121.5 16zM314 788q-5 3 0 10l110 148q5 7 13.5 9.5t32.5 2.5
h37q21 0 26.5 -3.5t-0.5 -10.5l-136 -150q-6 -5 -13 -7t-24 -2h-25q-16 0 -21 3z" />
    <glyph glyph-name="Sacute.loclPLK" horiz-adv-x="572" 
d="M108.5 6q-56.5 16 -95.5 46q-6 5 -6 11q0 9 16 35l10 18q17 28 28 28q2 0 10 -4q37 -23 79 -36t84 -13q66 0 111 29t45 82q0 36 -28.5 62t-99.5 61q-79 39 -119 81.5t-40 110.5q0 59 34.5 108t94.5 77t133 28q53 0 100.5 -13t81.5 -37q7 -4 7 -11q0 -9 -15 -34l-8 -13
q-14 -23 -20.5 -28.5t-14.5 -0.5q-33 19 -65.5 28.5t-71.5 9.5q-57 0 -95.5 -28.5t-38.5 -73.5q0 -32 25 -54.5t93 -58.5q58 -30 91.5 -53.5t54 -58.5t20.5 -86q0 -67 -35 -119t-98.5 -80.5t-145.5 -28.5q-65 0 -121.5 16zM327.5 788q-5.5 3 -2.5 10l62 148q3 8 10.5 10
t31.5 2h34q23 0 29.5 -3t1.5 -11l-85 -149q-4 -6 -10.5 -8t-24.5 -2h-24q-17 0 -22.5 3z" />
    <glyph glyph-name="Scaron" unicode="&#x160;" horiz-adv-x="572" 
d="M108.5 6q-56.5 16 -95.5 46q-6 5 -6 11q0 9 16 35l10 18q17 28 28 28q2 0 10 -4q37 -23 79 -36t84 -13q66 0 111 29t45 82q0 36 -28.5 62t-99.5 61q-79 39 -119 81.5t-40 110.5q0 59 34.5 108t94.5 77t133 28q53 0 100.5 -13t81.5 -37q7 -4 7 -11q0 -9 -15 -34l-8 -13
q-14 -23 -20.5 -28.5t-14.5 -0.5q-33 19 -65.5 28.5t-71.5 9.5q-57 0 -95.5 -28.5t-38.5 -73.5q0 -32 25 -54.5t93 -58.5q58 -30 91.5 -53.5t54 -58.5t20.5 -86q0 -67 -35 -119t-98.5 -80.5t-145.5 -28.5q-65 0 -121.5 16zM336 790.5q-10 2.5 -17 11.5l-76 98q-3 3 -3 6
q0 7 17 23l8 8q17 16 25 16q3 0 7 -4l89 -89l117 91q4 3 8 3t9 -4t11 -11l9 -10q11 -13 11 -19q0 -5 -6 -10l-104 -98q-9 -8 -20 -11t-34 -3h-17q-24 0 -34 2.5z" />
    <glyph glyph-name="Scedilla" unicode="&#x15e;" horiz-adv-x="572" 
d="M554 669q0 -9 -15 -34l-8 -13q-14 -23 -20.5 -28.5t-14.5 -0.5q-33 19 -65.5 28.5t-71.5 9.5q-57 0 -95.5 -28.5t-38.5 -73.5q0 -32 25 -54.5t93 -58.5q58 -30 91.5 -53.5t54 -58.5t20.5 -86q0 -66 -34 -117.5t-95 -80.5t-141 -30l-10 -36l28 -2q32 -5 50 -25.5t19 -53.5
q0 -49 -38.5 -79.5t-96.5 -30.5q-43 0 -72 13q-6 1 -6 7q0 5 6 23l4 10q5 16 8.5 19.5t11.5 1.5q26 -7 48 -7t36 9t14 28q2 31 -46 31q-29 0 -56 -4l28 100q-95 12 -154 58q-6 5 -6 11q0 9 16 35l10 18q17 28 28 28q2 0 10 -4q37 -23 79 -36t84 -13q66 0 111 29t45 82
q0 36 -28.5 62t-99.5 61q-79 39 -119 81.5t-40 110.5q0 59 34.5 108t94.5 77t133 28q53 0 100.5 -13t81.5 -37q7 -4 7 -11z" />
    <glyph glyph-name="Scircumflex" unicode="&#x15c;" horiz-adv-x="572" 
d="M108.5 6q-56.5 16 -95.5 46q-6 5 -6 11q0 9 16 35l10 18q17 28 28 28q2 0 10 -4q37 -23 79 -36t84 -13q66 0 111 29t45 82q0 36 -28.5 62t-99.5 61q-79 39 -119 81.5t-40 110.5q0 59 34.5 108t94.5 77t133 28q53 0 100.5 -13t81.5 -37q7 -4 7 -11q0 -9 -15 -34l-8 -13
q-14 -23 -20.5 -28.5t-14.5 -0.5q-33 19 -65.5 28.5t-71.5 9.5q-57 0 -95.5 -28.5t-38.5 -73.5q0 -32 25 -54.5t93 -58.5q58 -30 91.5 -53.5t54 -58.5t20.5 -86q0 -67 -35 -119t-98.5 -80.5t-145.5 -28.5q-65 0 -121.5 16zM276 787q-3 0 -8 4t-12 11l-9 11q-11 13 -11 18
q0 6 6 10l104 98q9 8 20 11t34 3h18q23 0 33 -3t17 -11l76 -98q2 -2 2 -6q0 -7 -16 -22l-8 -8q-17 -16 -24 -16q-3 0 -7 4l-89 89l-118 -92q-5 -3 -8 -3z" />
    <glyph glyph-name="Scommaaccent" unicode="&#x218;" horiz-adv-x="572" 
d="M108.5 6q-56.5 16 -95.5 46q-6 5 -6 11q0 9 16 35l10 18q17 28 28 28q2 0 10 -4q37 -23 79 -36t84 -13q66 0 111 29t45 82q0 36 -28.5 62t-99.5 61q-79 39 -119 81.5t-40 110.5q0 59 34.5 108t94.5 77t133 28q53 0 100.5 -13t81.5 -37q7 -4 7 -11q0 -9 -15 -34l-8 -13
q-14 -23 -20.5 -28.5t-14.5 -0.5q-33 19 -65.5 28.5t-71.5 9.5q-57 0 -95.5 -28.5t-38.5 -73.5q0 -32 25 -54.5t93 -58.5q58 -30 91.5 -53.5t54 -58.5t20.5 -86q0 -67 -35 -119t-98.5 -80.5t-145.5 -28.5q-65 0 -121.5 16zM163 -305q-5 0 -11 7l-8 10q-5 7 -6 9.5t3 6.5
q59 57 59 96q0 9 -3 15t-9 16q-12 18 -12 34q0 23 17 38.5t42 15.5t38.5 -16.5t13.5 -43.5q0 -47 -35 -98t-83 -88q-4 -2 -6 -2z" />
    <glyph glyph-name="T" unicode="T" horiz-adv-x="571" 
d="M188 2.5q-9 2.5 -7 10.5l83 609h-191q-5 0 -7.5 4t-2.5 14q0 16 2 28l1 8q4 29 7.5 36.5t12.5 7.5h501q7 0 9 -2.5t2 -13.5q0 -16 -2 -29l-1 -7q-4 -30 -8 -38t-12 -8h-191l-83 -609q-2 -8 -12 -10.5t-46 -2.5h-11q-35 0 -44 2.5z" />
    <glyph glyph-name="Tbar" unicode="&#x166;" horiz-adv-x="571" 
d="M596 717.5q2 -2.5 2 -13.5q0 -16 -2 -29l-1 -7q-4 -30 -8 -38t-12 -8h-191l-29 -215h110q6 0 8 -2.5t2 -11.5t-3 -27l-1 -6q-4 -27 -8 -34.5t-11 -7.5h-109l-42 -305q-2 -8 -12 -10.5t-46 -2.5h-11q-35 0 -44 2.5t-7 10.5l42 305h-110q-6 0 -8 2.5t-2 11.5t3 28l1 6
q4 26 8 33.5t11 7.5h109l29 215h-191q-5 0 -7.5 4t-2.5 14q0 16 2 28l1 8q4 29 7.5 36.5t12.5 7.5h501q7 0 9 -2.5z" />
    <glyph glyph-name="Tcaron" unicode="&#x164;" horiz-adv-x="571" 
d="M188 2.5q-9 2.5 -7 10.5l83 609h-191q-5 0 -7.5 4t-2.5 14q0 16 2 28l1 8q4 29 7.5 36.5t12.5 7.5h501q7 0 9 -2.5t2 -13.5q0 -16 -2 -29l-1 -7q-4 -30 -8 -38t-12 -8h-191l-83 -609q-2 -8 -12 -10.5t-46 -2.5h-11q-35 0 -44 2.5zM308 790.5q-10 2.5 -17 11.5l-76 98
q-3 3 -3 6q0 7 17 23l8 8q17 16 25 16q3 0 7 -4l89 -89l117 91q4 3 8 3t9 -4t11 -11l9 -10q11 -13 11 -19q0 -5 -6 -10l-104 -98q-9 -8 -20 -11t-34 -3h-17q-24 0 -34 2.5z" />
    <glyph glyph-name="uni0162" unicode="&#x162;" horiz-adv-x="571" 
d="M188 2.5q-9 2.5 -7 10.5l83 609h-191q-5 0 -7.5 4t-2.5 14q0 16 2 28l1 8q4 29 7.5 36.5t12.5 7.5h501q7 0 9 -2.5t2 -13.5q0 -16 -2 -29l-1 -7q-4 -30 -8 -38t-12 -8h-191l-83 -609q-2 -8 -12 -10.5t-46 -2.5h-11q-35 0 -44 2.5zM155 -305q-5 0 -11 7l-8 10q-5 7 -6 9.5
t3 6.5q59 57 59 96q0 9 -3 15t-9 16q-12 18 -12 34q0 23 17 38.5t42 15.5t38.5 -16.5t13.5 -43.5q0 -47 -35 -98t-83 -88q-4 -2 -6 -2z" />
    <glyph glyph-name="uni021A" unicode="&#x21a;" horiz-adv-x="571" 
d="M188 2.5q-9 2.5 -7 10.5l83 609h-191q-5 0 -7.5 4t-2.5 14q0 16 2 28l1 8q4 29 7.5 36.5t12.5 7.5h501q7 0 9 -2.5t2 -13.5q0 -16 -2 -29l-1 -7q-4 -30 -8 -38t-12 -8h-191l-83 -609q-2 -8 -12 -10.5t-46 -2.5h-11q-35 0 -44 2.5zM155 -305q-5 0 -11 7l-8 10q-5 7 -6 9.5
t3 6.5q59 57 59 96q0 9 -3 15t-9 16q-12 18 -12 34q0 23 17 38.5t42 15.5t38.5 -16.5t13.5 -43.5q0 -47 -35 -98t-83 -88q-4 -2 -6 -2z" />
    <glyph glyph-name="U" unicode="U" horiz-adv-x="671" 
d="M172.5 8.5q-51.5 18.5 -79.5 53.5q-19 25 -28.5 55.5t-9.5 72.5q0 39 12 123l55 394q1 8 11 10.5t44 2.5h10q33 0 44.5 -2.5t10.5 -10.5l-54 -390l-3 -22q-9 -74 -9 -91q0 -55 32 -84t95 -29q70 0 113 40q24 21 37.5 55t21.5 87l60 434q1 8 12 10.5t46 2.5h8
q32 0 43 -2.5t10 -10.5l-58 -423q-16 -116 -57 -180.5t-102 -89t-146 -24.5q-67 0 -118.5 18.5z" />
    <glyph glyph-name="Uacute" unicode="&#xda;" horiz-adv-x="671" 
d="M172.5 8.5q-51.5 18.5 -79.5 53.5q-19 25 -28.5 55.5t-9.5 72.5q0 39 12 123l55 394q1 8 11 10.5t44 2.5h10q33 0 44.5 -2.5t10.5 -10.5l-54 -390l-3 -22q-9 -74 -9 -91q0 -55 32 -84t95 -29q70 0 113 40q24 21 37.5 55t21.5 87l60 434q1 8 12 10.5t46 2.5h8
q32 0 43 -2.5t10 -10.5l-58 -423q-16 -116 -57 -180.5t-102 -89t-146 -24.5q-67 0 -118.5 18.5zM333 788q-5 3 0 10l110 148q5 7 13.5 9.5t32.5 2.5h37q21 0 26.5 -3.5t-0.5 -10.5l-136 -150q-6 -5 -13 -7t-24 -2h-25q-16 0 -21 3z" />
    <glyph glyph-name="Ubreve" unicode="&#x16c;" horiz-adv-x="671" 
d="M172.5 8.5q-51.5 18.5 -79.5 53.5q-19 25 -28.5 55.5t-9.5 72.5q0 39 12 123l55 394q1 8 11 10.5t44 2.5h10q33 0 44.5 -2.5t10.5 -10.5l-54 -390l-3 -22q-9 -74 -9 -91q0 -55 32 -84t95 -29q70 0 113 40q24 21 37.5 55t21.5 87l60 434q1 8 12 10.5t46 2.5h8
q32 0 43 -2.5t10 -10.5l-58 -423q-16 -116 -57 -180.5t-102 -89t-146 -24.5q-67 0 -118.5 18.5zM314 819.5q-34 23.5 -42 64.5q-5 15 -5 38q1 12 7 15t23 3h22q18 0 23 -2t5 -9q0 -28 15.5 -44.5t43.5 -16.5q29 0 47.5 15t27.5 46q2 7 7 9t23 2h15q21 0 28 -2.5t6 -10.5
q-12 -62 -55 -96.5t-107 -34.5q-50 0 -84 23.5z" />
    <glyph glyph-name="Ucircumflex" unicode="&#xdb;" horiz-adv-x="671" 
d="M172.5 8.5q-51.5 18.5 -79.5 53.5q-19 25 -28.5 55.5t-9.5 72.5q0 39 12 123l55 394q1 8 11 10.5t44 2.5h10q33 0 44.5 -2.5t10.5 -10.5l-54 -390l-3 -22q-9 -74 -9 -91q0 -55 32 -84t95 -29q70 0 113 40q24 21 37.5 55t21.5 87l60 434q1 8 12 10.5t46 2.5h8
q32 0 43 -2.5t10 -10.5l-58 -423q-16 -116 -57 -180.5t-102 -89t-146 -24.5q-67 0 -118.5 18.5zM295 787q-3 0 -8 4t-12 11l-9 11q-11 13 -11 18q0 6 6 10l104 98q9 8 20 11t34 3h18q23 0 33 -3t17 -11l76 -98q2 -2 2 -6q0 -7 -16 -22l-8 -8q-17 -16 -24 -16q-3 0 -7 4
l-89 89l-118 -92q-5 -3 -8 -3z" />
    <glyph glyph-name="Udieresis" unicode="&#xdc;" horiz-adv-x="671" 
d="M172.5 8.5q-51.5 18.5 -79.5 53.5q-19 25 -28.5 55.5t-9.5 72.5q0 39 12 123l55 394q1 8 11 10.5t44 2.5h10q33 0 44.5 -2.5t10.5 -10.5l-54 -390l-3 -22q-9 -74 -9 -91q0 -55 32 -84t95 -29q70 0 113 40q24 21 37.5 55t21.5 87l60 434q1 8 12 10.5t46 2.5h8
q32 0 43 -2.5t10 -10.5l-58 -423q-16 -116 -57 -180.5t-102 -89t-146 -24.5q-67 0 -118.5 18.5zM260.5 817.5q-16.5 16.5 -16.5 40.5q0 27 19 48t49 21q27 0 43.5 -16.5t16.5 -40.5q0 -27 -19 -48t-50 -21q-26 0 -42.5 16.5zM469.5 817.5q-16.5 16.5 -16.5 40.5q0 27 19 48
t49 21q27 0 43.5 -16.5t16.5 -40.5q0 -27 -19 -48t-50 -21q-26 0 -42.5 16.5z" />
    <glyph glyph-name="Ugrave" unicode="&#xd9;" horiz-adv-x="671" 
d="M172.5 8.5q-51.5 18.5 -79.5 53.5q-19 25 -28.5 55.5t-9.5 72.5q0 39 12 123l55 394q1 8 11 10.5t44 2.5h10q33 0 44.5 -2.5t10.5 -10.5l-54 -390l-3 -22q-9 -74 -9 -91q0 -55 32 -84t95 -29q70 0 113 40q24 21 37.5 55t21.5 87l60 434q1 8 12 10.5t46 2.5h8
q32 0 43 -2.5t10 -10.5l-58 -423q-16 -116 -57 -180.5t-102 -89t-146 -24.5q-67 0 -118.5 18.5zM384.5 787q-6.5 2 -10.5 7l-94 150q-5 7 1.5 10.5t27.5 3.5h32q24 0 32.5 -2.5t10.5 -9.5l71 -149l1 -4q0 -8 -25 -8h-22q-18 0 -24.5 2z" />
    <glyph glyph-name="Uhungarumlaut" unicode="&#x170;" horiz-adv-x="671" 
d="M172.5 8.5q-51.5 18.5 -79.5 53.5q-19 25 -28.5 55.5t-9.5 72.5q0 39 12 123l55 394q1 8 11 10.5t44 2.5h10q33 0 44.5 -2.5t10.5 -10.5l-54 -390l-3 -22q-9 -74 -9 -91q0 -55 32 -84t95 -29q70 0 113 40q24 21 37.5 55t21.5 87l60 434q1 8 12 10.5t46 2.5h8
q32 0 43 -2.5t10 -10.5l-58 -423q-16 -116 -57 -180.5t-102 -89t-146 -24.5q-67 0 -118.5 18.5zM235.5 792.5q-4.5 2.5 -0.5 9.5l104 144q5 7 13 9.5t30 2.5h35q21 0 26 -3.5t-1 -10.5l-126 -145q-5 -6 -12 -7.5t-24 -1.5h-25q-15 0 -19.5 2.5zM418 792.5q-5 2.5 0 9.5
l103 144q5 7 13.5 9.5t30.5 2.5h35q20 0 25.5 -3.5t-0.5 -10.5l-126 -145q-5 -6 -12 -7.5t-24 -1.5h-25q-15 0 -20 2.5z" />
    <glyph glyph-name="Umacron" unicode="&#x16a;" horiz-adv-x="671" 
d="M172.5 8.5q-51.5 18.5 -79.5 53.5q-19 25 -28.5 55.5t-9.5 72.5q0 39 12 123l55 394q1 8 11 10.5t44 2.5h10q33 0 44.5 -2.5t10.5 -10.5l-54 -390l-3 -22q-9 -74 -9 -91q0 -55 32 -84t95 -29q70 0 113 40q24 21 37.5 55t21.5 87l60 434q1 8 12 10.5t46 2.5h8
q32 0 43 -2.5t10 -10.5l-58 -423q-16 -116 -57 -180.5t-102 -89t-146 -24.5q-67 0 -118.5 18.5zM270.5 828.5q-1.5 2.5 -1.5 9.5q0 14 2 24l2 11q3 21 6.5 28.5t10.5 7.5h260q5 0 6.5 -2.5t1.5 -9.5q0 -14 -2 -24l-1 -11q-3 -20 -6.5 -28t-10.5 -8h-261q-5 0 -6.5 2.5z" />
    <glyph glyph-name="Uogonek" unicode="&#x172;" horiz-adv-x="671" 
d="M242 -211q-28 26 -28 70q0 38 23.5 71t62.5 60q-150 0 -207 72q-19 25 -28.5 55.5t-9.5 72.5q0 39 12 123l55 394q1 8 11 10.5t44 2.5h10q33 0 44.5 -2.5t10.5 -10.5l-54 -390l-3 -22q-9 -74 -9 -91q0 -55 32 -84t95 -29q70 0 113 40q24 21 37.5 55t21.5 87l60 434
q1 8 12 10.5t46 2.5h8q32 0 43 -2.5t10 -10.5l-58 -423q-12 -81 -35.5 -134t-62.5 -89q-22 -20 -70 -48q-24 -15 -48.5 -32t-40.5 -32q-36 -34 -36 -71q0 -19 10 -29.5t29 -10.5q21 0 44 9l4 1q4 0 6.5 -4.5t5.5 -17.5l3 -14l2 -16q0 -12 -9 -16q-16 -8 -38 -12.5t-42 -4.5
q-48 0 -76 26z" />
    <glyph glyph-name="Uring" unicode="&#x16e;" horiz-adv-x="671" 
d="M172.5 8.5q-51.5 18.5 -79.5 53.5q-19 25 -28.5 55.5t-9.5 72.5q0 39 12 123l55 394q1 8 11 10.5t44 2.5h10q33 0 44.5 -2.5t10.5 -10.5l-54 -390l-3 -22q-9 -74 -9 -91q0 -55 32 -84t95 -29q70 0 113 40q24 21 37.5 55t21.5 87l60 434q1 8 12 10.5t46 2.5h8
q32 0 43 -2.5t10 -10.5l-58 -423q-16 -116 -57 -180.5t-102 -89t-146 -24.5q-67 0 -118.5 18.5zM336.5 813q-27.5 26 -27.5 65q0 30 15.5 57t42.5 43t58 16q42 0 69.5 -26t27.5 -65q0 -30 -16 -56.5t-43 -43t-58 -16.5q-41 0 -68.5 26zM443 861q14 14 14 35q0 17 -10.5 27
t-29.5 10q-18 0 -31 -13.5t-13 -34.5q0 -17 11 -27.5t28 -10.5t31 14z" />
    <glyph glyph-name="Utilde" unicode="&#x168;" horiz-adv-x="671" 
d="M172.5 8.5q-51.5 18.5 -79.5 53.5q-19 25 -28.5 55.5t-9.5 72.5q0 39 12 123l55 394q1 8 11 10.5t44 2.5h10q33 0 44.5 -2.5t10.5 -10.5l-54 -390l-3 -22q-9 -74 -9 -91q0 -55 32 -84t95 -29q70 0 113 40q24 21 37.5 55t21.5 87l60 434q1 8 12 10.5t46 2.5h8
q32 0 43 -2.5t10 -10.5l-58 -423q-16 -116 -57 -180.5t-102 -89t-146 -24.5q-67 0 -118.5 18.5zM428 818q-15 6 -32 16q-11 6 -22.5 11t-22.5 5q-30 0 -60 -29q-3 -3 -7 -3q-6 0 -22 16l-4 4q-13 14 -13 21q0 5 5 10q51 61 113 61q19 0 32.5 -5.5t32.5 -15.5q16 -9 25.5 -13
t20.5 -4q33 0 62 29q3 3 6 3q7 0 22 -15l5 -5q13 -14 13 -21q0 -4 -5 -11q-24 -27 -53.5 -43.5t-61.5 -16.5q-19 0 -34 6z" />
    <glyph glyph-name="V" unicode="V" horiz-adv-x="676" 
d="M246 1q-14 1 -18 4.5t-6 11.5l-136 687q-2 7 1 10.5t16 4.5t34 1h13q38 0 47.5 -3t11.5 -12l66 -374q26 -151 35 -225q60 143 107 241l172 358q3 7 7 10t16.5 4t33.5 1h10q35 0 45.5 -3t6.5 -12l-337 -686q-6 -12 -18.5 -15.5t-53.5 -3.5h-6q-33 0 -47 1z" />
    <glyph glyph-name="W" unicode="W" horiz-adv-x="1029" 
d="M219.5 1q-14.5 1 -18 4t-4.5 11l-101 688q-1 8 2 11t16.5 4t36.5 1h11q36 0 46 -3t11 -12l45 -370q15 -124 20 -221q52 155 85 237l147 354q3 8 7.5 10.5t17.5 3.5t34 1h12q35 0 44 -2.5t10 -12.5l43 -378q14 -126 17 -205q43 114 82 208l159 375q3 7 7 10t17 4t35 1h10
q34 0 44 -3t6 -12l-304 -689q-4 -10 -16 -13t-51 -3h-11q-25 0 -41 1t-20.5 4.5t-5.5 10.5l-36 297q-16 131 -20 237q-48 -136 -92 -241l-122 -293q-5 -11 -16.5 -13.5t-51.5 -2.5h-17q-23 0 -37.5 1z" />
    <glyph glyph-name="Wacute" unicode="&#x1e82;" horiz-adv-x="1029" 
d="M219.5 1q-14.5 1 -18 4t-4.5 11l-101 688q-1 8 2 11t16.5 4t36.5 1h11q36 0 46 -3t11 -12l45 -370q15 -124 20 -221q52 155 85 237l147 354q3 8 7.5 10.5t17.5 3.5t34 1h12q35 0 44 -2.5t10 -12.5l43 -378q14 -126 17 -205q43 114 82 208l159 375q3 7 7 10t17 4t35 1h10
q34 0 44 -3t6 -12l-304 -689q-4 -10 -16 -13t-51 -3h-11q-25 0 -41 1t-20.5 4.5t-5.5 10.5l-36 297q-16 131 -20 237q-48 -136 -92 -241l-122 -293q-5 -11 -16.5 -13.5t-51.5 -2.5h-17q-23 0 -37.5 1zM522 788q-5 3 0 10l110 148q5 7 13.5 9.5t32.5 2.5h37q21 0 26.5 -3.5
t-0.5 -10.5l-136 -150q-6 -5 -13 -7t-24 -2h-25q-16 0 -21 3z" />
    <glyph glyph-name="Wcircumflex" unicode="&#x174;" horiz-adv-x="1029" 
d="M219.5 1q-14.5 1 -18 4t-4.5 11l-101 688q-1 8 2 11t16.5 4t36.5 1h11q36 0 46 -3t11 -12l45 -370q15 -124 20 -221q52 155 85 237l147 354q3 8 7.5 10.5t17.5 3.5t34 1h12q35 0 44 -2.5t10 -12.5l43 -378q14 -126 17 -205q43 114 82 208l159 375q3 7 7 10t17 4t35 1h10
q34 0 44 -3t6 -12l-304 -689q-4 -10 -16 -13t-51 -3h-11q-25 0 -41 1t-20.5 4.5t-5.5 10.5l-36 297q-16 131 -20 237q-48 -136 -92 -241l-122 -293q-5 -11 -16.5 -13.5t-51.5 -2.5h-17q-23 0 -37.5 1zM484 787q-3 0 -8 4t-12 11l-9 11q-11 13 -11 18q0 6 6 10l104 98
q9 8 20 11t34 3h18q23 0 33 -3t17 -11l76 -98q2 -2 2 -6q0 -7 -16 -22l-8 -8q-17 -16 -24 -16q-3 0 -7 4l-89 89l-118 -92q-5 -3 -8 -3z" />
    <glyph glyph-name="Wdieresis" unicode="&#x1e84;" horiz-adv-x="1029" 
d="M219.5 1q-14.5 1 -18 4t-4.5 11l-101 688q-1 8 2 11t16.5 4t36.5 1h11q36 0 46 -3t11 -12l45 -370q15 -124 20 -221q52 155 85 237l147 354q3 8 7.5 10.5t17.5 3.5t34 1h12q35 0 44 -2.5t10 -12.5l43 -378q14 -126 17 -205q43 114 82 208l159 375q3 7 7 10t17 4t35 1h10
q34 0 44 -3t6 -12l-304 -689q-4 -10 -16 -13t-51 -3h-11q-25 0 -41 1t-20.5 4.5t-5.5 10.5l-36 297q-16 131 -20 237q-48 -136 -92 -241l-122 -293q-5 -11 -16.5 -13.5t-51.5 -2.5h-17q-23 0 -37.5 1zM449.5 817.5q-16.5 16.5 -16.5 40.5q0 27 19 48t49 21q27 0 43.5 -16.5
t16.5 -40.5q0 -27 -19 -48t-50 -21q-26 0 -42.5 16.5zM658.5 817.5q-16.5 16.5 -16.5 40.5q0 27 19 48t49 21q27 0 43.5 -16.5t16.5 -40.5q0 -27 -19 -48t-50 -21q-26 0 -42.5 16.5z" />
    <glyph glyph-name="Wgrave" unicode="&#x1e80;" horiz-adv-x="1029" 
d="M219.5 1q-14.5 1 -18 4t-4.5 11l-101 688q-1 8 2 11t16.5 4t36.5 1h11q36 0 46 -3t11 -12l45 -370q15 -124 20 -221q52 155 85 237l147 354q3 8 7.5 10.5t17.5 3.5t34 1h12q35 0 44 -2.5t10 -12.5l43 -378q14 -126 17 -205q43 114 82 208l159 375q3 7 7 10t17 4t35 1h10
q34 0 44 -3t6 -12l-304 -689q-4 -10 -16 -13t-51 -3h-11q-25 0 -41 1t-20.5 4.5t-5.5 10.5l-36 297q-16 131 -20 237q-48 -136 -92 -241l-122 -293q-5 -11 -16.5 -13.5t-51.5 -2.5h-17q-23 0 -37.5 1zM573.5 787q-6.5 2 -10.5 7l-94 150q-5 7 1.5 10.5t27.5 3.5h32
q24 0 32.5 -2.5t10.5 -9.5l71 -149l1 -4q0 -8 -25 -8h-22q-18 0 -24.5 2z" />
    <glyph glyph-name="X" unicode="X" horiz-adv-x="635" 
d="M-23.5 2q-8.5 2 -8.5 6t3 8l205 255q24 30 86 106q-30 62 -54 109l-107 219q-4 9 4.5 12t41.5 3h31q33 0 42 -2t13 -10l63 -130q30 -63 52 -115q53 73 74 100l110 145q7 8 15 10t42 2h37q21 0 29.5 -2t8.5 -6q0 -3 -3 -8l-177 -221q-62 -78 -94 -115q20 -36 52 -102
l123 -251q4 -10 -5 -12.5t-41 -2.5h-30q-34 0 -43 2t-13 10l-78 164q-31 66 -50 111q-19 -26 -78 -104l-127 -171q-7 -8 -16 -10t-44 -2h-35q-20 0 -28.5 2z" />
    <glyph glyph-name="Y" unicode="Y" horiz-adv-x="611" 
d="M205 2.5q-9 2.5 -7 10.5l39 266l-160 426q-4 10 6 12.5t46 2.5h16q35 0 46 -2.5t14 -11.5l71 -201q31 -89 41 -128q42 71 87 140l125 190q5 9 14.5 11t43.5 2h22q32 0 41 -3.5t3 -11.5l-296 -427l-37 -265q-2 -8 -12 -10.5t-46 -2.5h-11q-37 0 -46 2.5z" />
    <glyph glyph-name="Yacute" unicode="&#xdd;" horiz-adv-x="611" 
d="M205 2.5q-9 2.5 -7 10.5l39 266l-160 426q-4 10 6 12.5t46 2.5h16q35 0 46 -2.5t14 -11.5l71 -201q31 -89 41 -128q42 71 87 140l125 190q5 9 14.5 11t43.5 2h22q32 0 41 -3.5t3 -11.5l-296 -427l-37 -265q-2 -8 -12 -10.5t-46 -2.5h-11q-37 0 -46 2.5zM304 788
q-5 3 0 10l110 148q5 7 13.5 9.5t32.5 2.5h37q21 0 26.5 -3.5t-0.5 -10.5l-136 -150q-6 -5 -13 -7t-24 -2h-25q-16 0 -21 3z" />
    <glyph glyph-name="Ycircumflex" unicode="&#x176;" horiz-adv-x="611" 
d="M205 2.5q-9 2.5 -7 10.5l39 266l-160 426q-4 10 6 12.5t46 2.5h16q35 0 46 -2.5t14 -11.5l71 -201q31 -89 41 -128q42 71 87 140l125 190q5 9 14.5 11t43.5 2h22q32 0 41 -3.5t3 -11.5l-296 -427l-37 -265q-2 -8 -12 -10.5t-46 -2.5h-11q-37 0 -46 2.5zM266 787
q-3 0 -8 4t-12 11l-9 11q-11 13 -11 18q0 6 6 10l104 98q9 8 20 11t34 3h18q23 0 33 -3t17 -11l76 -98q2 -2 2 -6q0 -7 -16 -22l-8 -8q-17 -16 -24 -16q-3 0 -7 4l-89 89l-118 -92q-5 -3 -8 -3z" />
    <glyph glyph-name="Ydieresis" unicode="&#x178;" horiz-adv-x="611" 
d="M205 2.5q-9 2.5 -7 10.5l39 266l-160 426q-4 10 6 12.5t46 2.5h16q35 0 46 -2.5t14 -11.5l71 -201q31 -89 41 -128q42 71 87 140l125 190q5 9 14.5 11t43.5 2h22q32 0 41 -3.5t3 -11.5l-296 -427l-37 -265q-2 -8 -12 -10.5t-46 -2.5h-11q-37 0 -46 2.5zM231.5 817.5
q-16.5 16.5 -16.5 40.5q0 27 19 48t49 21q27 0 43.5 -16.5t16.5 -40.5q0 -27 -19 -48t-50 -21q-26 0 -42.5 16.5zM440.5 817.5q-16.5 16.5 -16.5 40.5q0 27 19 48t49 21q27 0 43.5 -16.5t16.5 -40.5q0 -27 -19 -48t-50 -21q-26 0 -42.5 16.5z" />
    <glyph glyph-name="Ygrave" unicode="&#x1ef2;" horiz-adv-x="611" 
d="M205 2.5q-9 2.5 -7 10.5l39 266l-160 426q-4 10 6 12.5t46 2.5h16q35 0 46 -2.5t14 -11.5l71 -201q31 -89 41 -128q42 71 87 140l125 190q5 9 14.5 11t43.5 2h22q32 0 41 -3.5t3 -11.5l-296 -427l-37 -265q-2 -8 -12 -10.5t-46 -2.5h-11q-37 0 -46 2.5zM355.5 787
q-6.5 2 -10.5 7l-94 150q-5 7 1.5 10.5t27.5 3.5h32q24 0 32.5 -2.5t10.5 -9.5l71 -149l1 -4q0 -8 -25 -8h-22q-18 0 -24.5 2z" />
    <glyph glyph-name="Z" unicode="Z" horiz-adv-x="588" 
d="M-1 2.5q-6 2.5 -4 11.5l6 42q3 20 9.5 33t20.5 31l410 503h-321q-6 0 -8 2.5t-2 11.5q0 10 3 32l1 7q2 19 5 29.5t6 12.5t9 2h431q24 0 30 -2.5t4 -11.5l-6 -40q-2 -17 -9 -31t-22 -33l-409 -505h348q6 0 8.5 -1.5t2.5 -9.5q0 -11 -4 -34l-1 -7q-4 -30 -7.5 -37.5
t-12.5 -7.5h-460q-22 0 -28 2.5z" />
    <glyph glyph-name="Zacute" unicode="&#x179;" horiz-adv-x="588" 
d="M-1 2.5q-6 2.5 -4 11.5l6 42q3 20 9.5 33t20.5 31l410 503h-321q-6 0 -8 2.5t-2 11.5q0 10 3 32l1 7q2 19 5 29.5t6 12.5t9 2h431q24 0 30 -2.5t4 -11.5l-6 -40q-2 -17 -9 -31t-22 -33l-409 -505h348q6 0 8.5 -1.5t2.5 -9.5q0 -11 -4 -34l-1 -7q-4 -30 -7.5 -37.5
t-12.5 -7.5h-460q-22 0 -28 2.5zM295 788q-5 3 0 10l110 148q5 7 13.5 9.5t32.5 2.5h37q21 0 26.5 -3.5t-0.5 -10.5l-136 -150q-6 -5 -13 -7t-24 -2h-25q-16 0 -21 3z" />
    <glyph glyph-name="Zacute.loclPLK" horiz-adv-x="588" 
d="M-1 2.5q-6 2.5 -4 11.5l6 42q3 20 9.5 33t20.5 31l410 503h-321q-6 0 -8 2.5t-2 11.5q0 10 3 32l1 7q2 19 5 29.5t6 12.5t9 2h431q24 0 30 -2.5t4 -11.5l-6 -40q-2 -17 -9 -31t-22 -33l-409 -505h348q6 0 8.5 -1.5t2.5 -9.5q0 -11 -4 -34l-1 -7q-4 -30 -7.5 -37.5
t-12.5 -7.5h-460q-22 0 -28 2.5zM308.5 788q-5.5 3 -2.5 10l62 148q3 8 10.5 10t31.5 2h34q23 0 29.5 -3t1.5 -11l-85 -149q-4 -6 -10.5 -8t-24.5 -2h-24q-17 0 -22.5 3z" />
    <glyph glyph-name="Zcaron" unicode="&#x17d;" horiz-adv-x="588" 
d="M-1 2.5q-6 2.5 -4 11.5l6 42q3 20 9.5 33t20.5 31l410 503h-321q-6 0 -8 2.5t-2 11.5q0 10 3 32l1 7q2 19 5 29.5t6 12.5t9 2h431q24 0 30 -2.5t4 -11.5l-6 -40q-2 -17 -9 -31t-22 -33l-409 -505h348q6 0 8.5 -1.5t2.5 -9.5q0 -11 -4 -34l-1 -7q-4 -30 -7.5 -37.5
t-12.5 -7.5h-460q-22 0 -28 2.5zM317 790.5q-10 2.5 -17 11.5l-76 98q-3 3 -3 6q0 7 17 23l8 8q17 16 25 16q3 0 7 -4l89 -89l117 91q4 3 8 3t9 -4t11 -11l9 -10q11 -13 11 -19q0 -5 -6 -10l-104 -98q-9 -8 -20 -11t-34 -3h-17q-24 0 -34 2.5z" />
    <glyph glyph-name="Zdotaccent" unicode="&#x17b;" horiz-adv-x="588" 
d="M-1 2.5q-6 2.5 -4 11.5l6 42q3 20 9.5 33t20.5 31l410 503h-321q-6 0 -8 2.5t-2 11.5q0 10 3 32l1 7q2 19 5 29.5t6 12.5t9 2h431q24 0 30 -2.5t4 -11.5l-6 -40q-2 -17 -9 -31t-22 -33l-409 -505h348q6 0 8.5 -1.5t2.5 -9.5q0 -11 -4 -34l-1 -7q-4 -30 -7.5 -37.5
t-12.5 -7.5h-460q-22 0 -28 2.5zM326 820q-17 17 -17 42q0 27 20 48.5t50 21.5q27 0 43.5 -16.5t16.5 -42.5t-19.5 -48t-49.5 -22q-27 0 -44 17z" />
    <glyph glyph-name="a" unicode="a" horiz-adv-x="561" 
d="M83 46.5q-49 56.5 -49 151.5q0 91 33 169t92 124.5t133 46.5q42 0 74.5 -16t52.5 -43l11 37q2 7 11 9.5t39 2.5h6q29 0 37.5 -2.5t6.5 -10.5q-19 -113 -29 -192l-12 -90q-16 -111 -23 -219q-1 -9 -9 -11.5t-40 -2.5h-4q-36 0 -44 7q-3 6 -4 19t-1 31q-26 -33 -63 -50
t-79 -17q-90 0 -139 56.5zM297.5 96q22.5 8 37.5 23q16 16 25 41.5t17 75.5l21 153q-15 23 -39.5 36t-53.5 13q-51 0 -85.5 -35.5t-51 -88t-16.5 -105.5q0 -58 25 -89.5t72 -31.5q26 0 48.5 8z" />
    <glyph glyph-name="a.ss01" horiz-adv-x="576" 
d="M101 11q-39 21 -59.5 57t-20.5 79q0 73 55.5 116.5t162.5 43.5h136l3 23q2 18 2 26q0 42 -24.5 63.5t-70.5 21.5q-61 0 -150 -33q-8 -2 -10 -2q-7 0 -12 7t-14 28l-4 10q-8 19 -8 29q0 11 12 17q43 20 94.5 30.5t103.5 10.5q98 0 147.5 -44.5t49.5 -126.5q0 -20 -3 -41
l-28 -201l-2 -16q0 -12 5.5 -16.5t20.5 -4.5h17q10 2 10 -13q0 -3 -2 -19l-2 -12q-4 -22 -6 -27.5t-9 -8.5q-25 -11 -59 -11q-75 0 -86 60q-29 -32 -70.5 -49.5t-87.5 -17.5q-52 0 -91 21zM316.5 121q37.5 37 46.5 103h-124q-101 0 -101 -68q0 -29 21 -50.5t62 -21.5
q58 0 95.5 37z" />
    <glyph glyph-name="aacute" unicode="&#xe1;" horiz-adv-x="561" 
d="M83 46.5q-49 56.5 -49 151.5q0 91 33 169t92 124.5t133 46.5q42 0 74.5 -16t52.5 -43l11 37q2 7 11 9.5t39 2.5h6q29 0 37.5 -2.5t6.5 -10.5q-19 -113 -29 -192l-12 -90q-16 -111 -23 -219q-1 -9 -9 -11.5t-40 -2.5h-4q-36 0 -44 7q-3 6 -4 19t-1 31q-26 -33 -63 -50
t-79 -17q-90 0 -139 56.5zM297.5 96q22.5 8 37.5 23q16 16 25 41.5t17 75.5l21 153q-15 23 -39.5 36t-53.5 13q-51 0 -85.5 -35.5t-51 -88t-16.5 -105.5q0 -58 25 -89.5t72 -31.5q26 0 48.5 8zM244 596q-5 3 0 10l111 148q5 7 13.5 9.5t31.5 2.5h38q21 0 26.5 -3.5
t-0.5 -10.5l-137 -150q-5 -5 -12 -7t-24 -2h-26q-16 0 -21 3z" />
    <glyph glyph-name="aacute.ss01" horiz-adv-x="576" 
d="M101 11q-39 21 -59.5 57t-20.5 79q0 73 55.5 116.5t162.5 43.5h136l3 23q2 18 2 26q0 42 -24.5 63.5t-70.5 21.5q-61 0 -150 -33q-8 -2 -10 -2q-7 0 -12 7t-14 28l-4 10q-8 19 -8 29q0 11 12 17q43 20 94.5 30.5t103.5 10.5q98 0 147.5 -44.5t49.5 -126.5q0 -20 -3 -41
l-28 -201l-2 -16q0 -12 5.5 -16.5t20.5 -4.5h17q10 2 10 -13q0 -3 -2 -19l-2 -12q-4 -22 -6 -27.5t-9 -8.5q-25 -11 -59 -11q-75 0 -86 60q-29 -32 -70.5 -49.5t-87.5 -17.5q-52 0 -91 21zM316.5 121q37.5 37 46.5 103h-124q-101 0 -101 -68q0 -29 21 -50.5t62 -21.5
q58 0 95.5 37zM235 596q-5 3 0 10l111 148q5 7 13.5 9.5t31.5 2.5h38q21 0 26.5 -3.5t-0.5 -10.5l-137 -150q-5 -5 -12 -7t-24 -2h-26q-16 0 -21 3z" />
    <glyph glyph-name="abreve" unicode="&#x103;" horiz-adv-x="561" 
d="M83 46.5q-49 56.5 -49 151.5q0 91 33 169t92 124.5t133 46.5q42 0 74.5 -16t52.5 -43l11 37q2 7 11 9.5t39 2.5h6q29 0 37.5 -2.5t6.5 -10.5q-19 -113 -29 -192l-12 -90q-16 -111 -23 -219q-1 -9 -9 -11.5t-40 -2.5h-4q-36 0 -44 7q-3 6 -4 19t-1 31q-26 -33 -63 -50
t-79 -17q-90 0 -139 56.5zM297.5 96q22.5 8 37.5 23q16 16 25 41.5t17 75.5l21 153q-15 23 -39.5 36t-53.5 13q-51 0 -85.5 -35.5t-51 -88t-16.5 -105.5q0 -58 25 -89.5t72 -31.5q26 0 48.5 8zM232 630q-35 27 -40 74l-1 25q1 12 7 15t23 3h22q18 0 23 -2.5t5 -8.5
q0 -28 15.5 -44.5t43.5 -16.5q29 0 47.5 15t27.5 46q2 7 7 9t23 2h15q21 0 28 -2.5t6 -10.5q-12 -62 -55 -96.5t-107 -34.5q-55 0 -90 27z" />
    <glyph glyph-name="abreve.ss01" horiz-adv-x="576" 
d="M101 11q-39 21 -59.5 57t-20.5 79q0 73 55.5 116.5t162.5 43.5h136l3 23q2 18 2 26q0 42 -24.5 63.5t-70.5 21.5q-61 0 -150 -33q-8 -2 -10 -2q-7 0 -12 7t-14 28l-4 10q-8 19 -8 29q0 11 12 17q43 20 94.5 30.5t103.5 10.5q98 0 147.5 -44.5t49.5 -126.5q0 -20 -3 -41
l-28 -201l-2 -16q0 -12 5.5 -16.5t20.5 -4.5h17q10 2 10 -13q0 -3 -2 -19l-2 -12q-4 -22 -6 -27.5t-9 -8.5q-25 -11 -59 -11q-75 0 -86 60q-29 -32 -70.5 -49.5t-87.5 -17.5q-52 0 -91 21zM316.5 121q37.5 37 46.5 103h-124q-101 0 -101 -68q0 -29 21 -50.5t62 -21.5
q58 0 95.5 37zM223 630q-35 27 -40 74l-1 25q1 12 7 15t23 3h22q18 0 23 -2.5t5 -8.5q0 -28 15.5 -44.5t43.5 -16.5q29 0 47.5 15t27.5 46q2 7 7 9t23 2h15q21 0 28 -2.5t6 -10.5q-12 -62 -55 -96.5t-107 -34.5q-55 0 -90 27z" />
    <glyph glyph-name="uni01CE" unicode="&#x1ce;" horiz-adv-x="561" 
d="M83 46.5q-49 56.5 -49 151.5q0 91 33 169t92 124.5t133 46.5q42 0 74.5 -16t52.5 -43l11 37q2 7 11 9.5t39 2.5h6q29 0 37.5 -2.5t6.5 -10.5q-19 -113 -29 -192l-12 -90q-16 -111 -23 -219q-1 -9 -9 -11.5t-40 -2.5h-4q-36 0 -44 7q-3 6 -4 19t-1 31q-26 -33 -63 -50
t-79 -17q-90 0 -139 56.5zM297.5 96q22.5 8 37.5 23q16 16 25 41.5t17 75.5l21 153q-15 23 -39.5 36t-53.5 13q-51 0 -85.5 -35.5t-51 -88t-16.5 -105.5q0 -58 25 -89.5t72 -31.5q26 0 48.5 8zM281.5 594q-10.5 3 -17.5 11l-76 98q-3 3 -3 7q0 8 17 22l8 9q17 16 25 16
q3 0 7 -4l89 -90l117 92q5 3 8 3q4 0 9 -4t11 -11l9 -11q11 -13 11 -19q0 -4 -6 -10l-104 -98q-9 -8 -20 -11t-34 -3h-17q-23 0 -33.5 3z" />
    <glyph glyph-name="uni01CE.ss01" horiz-adv-x="576" 
d="M101 11q-39 21 -59.5 57t-20.5 79q0 73 55.5 116.5t162.5 43.5h136l3 23q2 18 2 26q0 42 -24.5 63.5t-70.5 21.5q-61 0 -150 -33q-8 -2 -10 -2q-7 0 -12 7t-14 28l-4 10q-8 19 -8 29q0 11 12 17q43 20 94.5 30.5t103.5 10.5q98 0 147.5 -44.5t49.5 -126.5q0 -20 -3 -41
l-28 -201l-2 -16q0 -12 5.5 -16.5t20.5 -4.5h17q10 2 10 -13q0 -3 -2 -19l-2 -12q-4 -22 -6 -27.5t-9 -8.5q-25 -11 -59 -11q-75 0 -86 60q-29 -32 -70.5 -49.5t-87.5 -17.5q-52 0 -91 21zM316.5 121q37.5 37 46.5 103h-124q-101 0 -101 -68q0 -29 21 -50.5t62 -21.5
q58 0 95.5 37zM272.5 594q-10.5 3 -17.5 11l-76 98q-3 3 -3 7q0 8 17 22l8 9q17 16 25 16q3 0 7 -4l89 -90l117 92q5 3 8 3q4 0 9 -4t11 -11l9 -11q11 -13 11 -19q0 -4 -6 -10l-104 -98q-9 -8 -20 -11t-34 -3h-17q-23 0 -33.5 3z" />
    <glyph glyph-name="acircumflex" unicode="&#xe2;" horiz-adv-x="561" 
d="M83 46.5q-49 56.5 -49 151.5q0 91 33 169t92 124.5t133 46.5q42 0 74.5 -16t52.5 -43l11 37q2 7 11 9.5t39 2.5h6q29 0 37.5 -2.5t6.5 -10.5q-19 -113 -29 -192l-12 -90q-16 -111 -23 -219q-1 -9 -9 -11.5t-40 -2.5h-4q-36 0 -44 7q-3 6 -4 19t-1 31q-26 -33 -63 -50
t-79 -17q-90 0 -139 56.5zM297.5 96q22.5 8 37.5 23q16 16 25 41.5t17 75.5l21 153q-15 23 -39.5 36t-53.5 13q-51 0 -85.5 -35.5t-51 -88t-16.5 -105.5q0 -58 25 -89.5t72 -31.5q26 0 48.5 8zM216 595q-3 0 -8 4t-12 11l-9 11q-11 13 -11 18q0 6 6 10l104 98q9 8 20 11
t34 3h18q23 0 33 -3t17 -11l76 -98q2 -2 2 -6q0 -7 -16 -22l-8 -8q-17 -16 -24 -16q-3 0 -7 4l-89 89l-118 -92q-5 -3 -8 -3z" />
    <glyph glyph-name="acircumflex.ss01" horiz-adv-x="576" 
d="M101 11q-39 21 -59.5 57t-20.5 79q0 73 55.5 116.5t162.5 43.5h136l3 23q2 18 2 26q0 42 -24.5 63.5t-70.5 21.5q-61 0 -150 -33q-8 -2 -10 -2q-7 0 -12 7t-14 28l-4 10q-8 19 -8 29q0 11 12 17q43 20 94.5 30.5t103.5 10.5q98 0 147.5 -44.5t49.5 -126.5q0 -20 -3 -41
l-28 -201l-2 -16q0 -12 5.5 -16.5t20.5 -4.5h17q10 2 10 -13q0 -3 -2 -19l-2 -12q-4 -22 -6 -27.5t-9 -8.5q-25 -11 -59 -11q-75 0 -86 60q-29 -32 -70.5 -49.5t-87.5 -17.5q-52 0 -91 21zM316.5 121q37.5 37 46.5 103h-124q-101 0 -101 -68q0 -29 21 -50.5t62 -21.5
q58 0 95.5 37zM207 595q-3 0 -8 4t-12 11l-9 11q-11 13 -11 18q0 6 6 10l104 98q9 8 20 11t34 3h18q23 0 33 -3t17 -11l76 -98q2 -2 2 -6q0 -7 -16 -22l-8 -8q-17 -16 -24 -16q-3 0 -7 4l-89 89l-118 -92q-5 -3 -8 -3z" />
    <glyph glyph-name="adieresis" unicode="&#xe4;" horiz-adv-x="561" 
d="M83 46.5q-49 56.5 -49 151.5q0 91 33 169t92 124.5t133 46.5q42 0 74.5 -16t52.5 -43l11 37q2 7 11 9.5t39 2.5h6q29 0 37.5 -2.5t6.5 -10.5q-19 -113 -29 -192l-12 -90q-16 -111 -23 -219q-1 -9 -9 -11.5t-40 -2.5h-4q-36 0 -44 7q-3 6 -4 19t-1 31q-26 -33 -63 -50
t-79 -17q-90 0 -139 56.5zM297.5 96q22.5 8 37.5 23q16 16 25 41.5t17 75.5l21 153q-15 23 -39.5 36t-53.5 13q-51 0 -85.5 -35.5t-51 -88t-16.5 -105.5q0 -58 25 -89.5t72 -31.5q26 0 48.5 8zM178.5 625.5q-16.5 16.5 -16.5 40.5q0 27 19 48t49 21q27 0 43.5 -16.5
t16.5 -40.5q0 -27 -19 -48t-50 -21q-26 0 -42.5 16.5zM387.5 625.5q-16.5 16.5 -16.5 40.5q0 27 19 48t49 21q27 0 43.5 -16.5t16.5 -40.5q0 -27 -19 -48t-50 -21q-26 0 -42.5 16.5z" />
    <glyph glyph-name="adieresis.ss01" horiz-adv-x="576" 
d="M101 11q-39 21 -59.5 57t-20.5 79q0 73 55.5 116.5t162.5 43.5h136l3 23q2 18 2 26q0 42 -24.5 63.5t-70.5 21.5q-61 0 -150 -33q-8 -2 -10 -2q-7 0 -12 7t-14 28l-4 10q-8 19 -8 29q0 11 12 17q43 20 94.5 30.5t103.5 10.5q98 0 147.5 -44.5t49.5 -126.5q0 -20 -3 -41
l-28 -201l-2 -16q0 -12 5.5 -16.5t20.5 -4.5h17q10 2 10 -13q0 -3 -2 -19l-2 -12q-4 -22 -6 -27.5t-9 -8.5q-25 -11 -59 -11q-75 0 -86 60q-29 -32 -70.5 -49.5t-87.5 -17.5q-52 0 -91 21zM316.5 121q37.5 37 46.5 103h-124q-101 0 -101 -68q0 -29 21 -50.5t62 -21.5
q58 0 95.5 37zM169.5 625.5q-16.5 16.5 -16.5 40.5q0 27 19 48t49 21q27 0 43.5 -16.5t16.5 -40.5q0 -27 -19 -48t-50 -21q-26 0 -42.5 16.5zM378.5 625.5q-16.5 16.5 -16.5 40.5q0 27 19 48t49 21q27 0 43.5 -16.5t16.5 -40.5q0 -27 -19 -48t-50 -21q-26 0 -42.5 16.5z" />
    <glyph glyph-name="agrave" unicode="&#xe0;" horiz-adv-x="561" 
d="M83 46.5q-49 56.5 -49 151.5q0 91 33 169t92 124.5t133 46.5q42 0 74.5 -16t52.5 -43l11 37q2 7 11 9.5t39 2.5h6q29 0 37.5 -2.5t6.5 -10.5q-19 -113 -29 -192l-12 -90q-16 -111 -23 -219q-1 -9 -9 -11.5t-40 -2.5h-4q-36 0 -44 7q-3 6 -4 19t-1 31q-26 -33 -63 -50
t-79 -17q-90 0 -139 56.5zM297.5 96q22.5 8 37.5 23q16 16 25 41.5t17 75.5l21 153q-15 23 -39.5 36t-53.5 13q-51 0 -85.5 -35.5t-51 -88t-16.5 -105.5q0 -58 25 -89.5t72 -31.5q26 0 48.5 8zM305 595q-7 2 -10 7l-95 150q-4 7 2 10.5t27 3.5h32q24 0 32.5 -2.5t11.5 -9.5
l71 -149q1 -1 1 -4q0 -8 -26 -8h-22q-17 0 -24 2z" />
    <glyph glyph-name="agrave.ss01" horiz-adv-x="576" 
d="M101 11q-39 21 -59.5 57t-20.5 79q0 73 55.5 116.5t162.5 43.5h136l3 23q2 18 2 26q0 42 -24.5 63.5t-70.5 21.5q-61 0 -150 -33q-8 -2 -10 -2q-7 0 -12 7t-14 28l-4 10q-8 19 -8 29q0 11 12 17q43 20 94.5 30.5t103.5 10.5q98 0 147.5 -44.5t49.5 -126.5q0 -20 -3 -41
l-28 -201l-2 -16q0 -12 5.5 -16.5t20.5 -4.5h17q10 2 10 -13q0 -3 -2 -19l-2 -12q-4 -22 -6 -27.5t-9 -8.5q-25 -11 -59 -11q-75 0 -86 60q-29 -32 -70.5 -49.5t-87.5 -17.5q-52 0 -91 21zM316.5 121q37.5 37 46.5 103h-124q-101 0 -101 -68q0 -29 21 -50.5t62 -21.5
q58 0 95.5 37zM296 595q-7 2 -10 7l-95 150q-4 7 2 10.5t27 3.5h32q24 0 32.5 -2.5t11.5 -9.5l71 -149q1 -1 1 -4q0 -8 -26 -8h-22q-17 0 -24 2z" />
    <glyph glyph-name="amacron" unicode="&#x101;" horiz-adv-x="561" 
d="M83 46.5q-49 56.5 -49 151.5q0 91 33 169t92 124.5t133 46.5q42 0 74.5 -16t52.5 -43l11 37q2 7 11 9.5t39 2.5h6q29 0 37.5 -2.5t6.5 -10.5q-19 -113 -29 -192l-12 -90q-16 -111 -23 -219q-1 -9 -9 -11.5t-40 -2.5h-4q-36 0 -44 7q-3 6 -4 19t-1 31q-26 -33 -63 -50
t-79 -17q-90 0 -139 56.5zM297.5 96q22.5 8 37.5 23q16 16 25 41.5t17 75.5l21 153q-15 23 -39.5 36t-53.5 13q-51 0 -85.5 -35.5t-51 -88t-16.5 -105.5q0 -58 25 -89.5t72 -31.5q26 0 48.5 8zM187.5 639.5q-1.5 2.5 -1.5 9.5q0 14 2 24l2 11q3 21 6.5 28t10.5 7h260
q5 0 6.5 -2.5t1.5 -9.5q0 -13 -2 -24l-1 -11q-3 -20 -6.5 -27.5t-10.5 -7.5h-261q-5 0 -6.5 2.5z" />
    <glyph glyph-name="amacron.ss01" horiz-adv-x="576" 
d="M101 11q-39 21 -59.5 57t-20.5 79q0 73 55.5 116.5t162.5 43.5h136l3 23q2 18 2 26q0 42 -24.5 63.5t-70.5 21.5q-61 0 -150 -33q-8 -2 -10 -2q-7 0 -12 7t-14 28l-4 10q-8 19 -8 29q0 11 12 17q43 20 94.5 30.5t103.5 10.5q98 0 147.5 -44.5t49.5 -126.5q0 -20 -3 -41
l-28 -201l-2 -16q0 -12 5.5 -16.5t20.5 -4.5h17q10 2 10 -13q0 -3 -2 -19l-2 -12q-4 -22 -6 -27.5t-9 -8.5q-25 -11 -59 -11q-75 0 -86 60q-29 -32 -70.5 -49.5t-87.5 -17.5q-52 0 -91 21zM316.5 121q37.5 37 46.5 103h-124q-101 0 -101 -68q0 -29 21 -50.5t62 -21.5
q58 0 95.5 37zM178.5 639.5q-1.5 2.5 -1.5 9.5q0 14 2 24l2 11q3 21 6.5 28t10.5 7h260q5 0 6.5 -2.5t1.5 -9.5q0 -13 -2 -24l-1 -11q-3 -20 -6.5 -27.5t-10.5 -7.5h-261q-5 0 -6.5 2.5z" />
    <glyph glyph-name="aogonek" unicode="&#x105;" horiz-adv-x="561" 
d="M287 -212q-28 25 -28 67q0 43 31 82.5t78 66.5q-5 35 -4 53q-26 -33 -63 -50t-79 -17q-90 0 -139 56.5t-49 151.5q0 91 33 169t92 124.5t133 46.5q42 0 74.5 -16t52.5 -43l11 37q2 7 11 9.5t39 2.5h6q29 0 37.5 -2.5t6.5 -10.5q-19 -113 -29 -192l-12 -90
q-15 -110 -22 -210q-1 -9 -5.5 -14t-16.5 -12q-23 -16 -39 -31q-58 -48 -58 -91q0 -18 10.5 -27.5t28.5 -9.5q21 0 44 9l4 1q4 0 7 -5t5 -17l2 -14q3 -12 3 -18q0 -10 -10 -14q-15 -8 -38 -12.5t-43 -4.5q-46 0 -74 25zM297.5 96q22.5 8 37.5 23q16 16 25 41.5t17 75.5
l21 153q-15 23 -39.5 36t-53.5 13q-51 0 -85.5 -35.5t-51 -88t-16.5 -105.5q0 -58 25 -89.5t72 -31.5q26 0 48.5 8z" />
    <glyph glyph-name="aogonek.ss01" horiz-adv-x="576" 
d="M325 -212q-28 25 -28 67t29.5 80.5t74.5 65.5q-43 11 -51 56q-29 -32 -70.5 -49.5t-87.5 -17.5q-52 0 -91 21t-59.5 57t-20.5 79q0 73 55.5 116.5t162.5 43.5h136l3 23q2 18 2 26q0 42 -24.5 63.5t-70.5 21.5q-61 0 -150 -33q-8 -2 -10 -2q-7 0 -12 7t-14 28l-4 10
q-8 19 -8 29q0 11 12 17q43 20 94.5 30.5t103.5 10.5q98 0 147.5 -44.5t49.5 -126.5q0 -20 -3 -41l-28 -201l-2 -16q0 -12 5.5 -16.5t20.5 -4.5h17q11 2 11 -13q0 -7 -3 -19l-7 -33q-2 -8 -7 -13t-16 -13q-3 -3 -14.5 -11t-23.5 -20q-58 -48 -58 -91q0 -18 10.5 -27.5
t28.5 -9.5q21 0 44 9l4 1q4 0 7 -5t5 -17l2 -14q3 -12 3 -18q0 -10 -10 -14q-15 -8 -38 -12.5t-43 -4.5q-46 0 -74 25zM316.5 121q37.5 37 46.5 103h-124q-101 0 -101 -68q0 -29 21 -50.5t62 -21.5q58 0 95.5 37z" />
    <glyph glyph-name="aring" unicode="&#xe5;" horiz-adv-x="561" 
d="M83 46.5q-49 56.5 -49 151.5q0 91 33 169t92 124.5t133 46.5q42 0 74.5 -16t52.5 -43l11 37q2 7 11 9.5t39 2.5h6q29 0 37.5 -2.5t6.5 -10.5q-19 -113 -29 -192l-12 -90q-16 -111 -23 -219q-1 -9 -9 -11.5t-40 -2.5h-4q-36 0 -44 7q-3 6 -4 19t-1 31q-26 -33 -63 -50
t-79 -17q-90 0 -139 56.5zM297.5 96q22.5 8 37.5 23q16 16 25 41.5t17 75.5l21 153q-15 23 -39.5 36t-53.5 13q-51 0 -85.5 -35.5t-51 -88t-16.5 -105.5q0 -58 25 -89.5t72 -31.5q26 0 48.5 8zM254.5 613q-27.5 26 -27.5 65q0 30 15.5 57t42.5 43t58 16q42 0 69.5 -26
t27.5 -65q0 -30 -16 -56.5t-43 -43t-58 -16.5q-41 0 -68.5 26zM361 661q14 14 14 35q0 17 -10.5 27t-29.5 10q-18 0 -31 -13.5t-13 -34.5q0 -17 11 -27.5t28 -10.5t31 14z" />
    <glyph glyph-name="aring.ss01" horiz-adv-x="576" 
d="M101 11q-39 21 -59.5 57t-20.5 79q0 73 55.5 116.5t162.5 43.5h136l3 23q2 18 2 26q0 42 -24.5 63.5t-70.5 21.5q-61 0 -150 -33q-8 -2 -10 -2q-7 0 -12 7t-14 28l-4 10q-8 19 -8 29q0 11 12 17q43 20 94.5 30.5t103.5 10.5q98 0 147.5 -44.5t49.5 -126.5q0 -20 -3 -41
l-28 -201l-2 -16q0 -12 5.5 -16.5t20.5 -4.5h17q10 2 10 -13q0 -3 -2 -19l-2 -12q-4 -22 -6 -27.5t-9 -8.5q-25 -11 -59 -11q-75 0 -86 60q-29 -32 -70.5 -49.5t-87.5 -17.5q-52 0 -91 21zM316.5 121q37.5 37 46.5 103h-124q-101 0 -101 -68q0 -29 21 -50.5t62 -21.5
q58 0 95.5 37zM245.5 613q-27.5 26 -27.5 65q0 30 15.5 57t42.5 43t58 16q42 0 69.5 -26t27.5 -65q0 -30 -16 -56.5t-43 -43t-58 -16.5q-41 0 -68.5 26zM352 661q14 14 14 35q0 17 -10.5 27t-29.5 10q-18 0 -31 -13.5t-13 -34.5q0 -17 11 -27.5t28 -10.5t31 14z" />
    <glyph glyph-name="aringacute" unicode="&#x1fb;" horiz-adv-x="561" 
d="M256 822q-5 3 0 10l111 148q5 7 13.5 9.5t31.5 2.5h38q21 0 26.5 -3.5t-0.5 -10.5l-137 -150q-5 -5 -12 -7t-24 -2h-26q-16 0 -21 3zM83 46.5q-49 56.5 -49 151.5q0 91 33 169t92 124.5t133 46.5q42 0 74.5 -16t52.5 -43l11 37q2 7 11 9.5t39 2.5h6q29 0 37.5 -2.5
t6.5 -10.5q-19 -113 -29 -192l-12 -90q-16 -111 -23 -219q-1 -9 -9 -11.5t-40 -2.5h-4q-36 0 -44 7q-3 6 -4 19t-1 31q-26 -33 -63 -50t-79 -17q-90 0 -139 56.5zM297.5 96q22.5 8 37.5 23q16 16 25 41.5t17 75.5l21 153q-15 23 -39.5 36t-53.5 13q-51 0 -85.5 -35.5
t-51 -88t-16.5 -105.5q0 -58 25 -89.5t72 -31.5q26 0 48.5 8zM250.5 606q-27.5 26 -27.5 65q0 30 15.5 57t42.5 43t58 16q42 0 69.5 -26t27.5 -65q0 -30 -16 -56.5t-43 -43t-58 -16.5q-41 0 -68.5 26zM357 654q14 14 14 35q0 17 -10.5 27t-29.5 10q-18 0 -31 -13.5
t-13 -34.5q0 -17 11 -27.5t28 -10.5t31 14z" />
    <glyph glyph-name="aringacute.ss01" horiz-adv-x="576" 
d="M101 11q-39 21 -59.5 57t-20.5 79q0 73 55.5 116.5t162.5 43.5h136l3 23q2 18 2 26q0 42 -24.5 63.5t-70.5 21.5q-61 0 -150 -33q-8 -2 -10 -2q-7 0 -12 7t-14 28l-4 10q-8 19 -8 29q0 11 12 17q43 20 94.5 30.5t103.5 10.5q98 0 147.5 -44.5t49.5 -126.5q0 -20 -3 -41
l-28 -201l-2 -16q0 -12 5.5 -16.5t20.5 -4.5h17q10 2 10 -13q0 -3 -2 -19l-2 -12q-4 -22 -6 -27.5t-9 -8.5q-25 -11 -59 -11q-75 0 -86 60q-29 -32 -70.5 -49.5t-87.5 -17.5q-52 0 -91 21zM316.5 121q37.5 37 46.5 103h-124q-101 0 -101 -68q0 -29 21 -50.5t62 -21.5
q58 0 95.5 37zM245.5 613q-27.5 26 -27.5 65q0 30 15.5 57t42.5 43t58 16q42 0 69.5 -26t27.5 -65q0 -30 -16 -56.5t-43 -43t-58 -16.5q-41 0 -68.5 26zM352 661q14 14 14 35q0 17 -10.5 27t-29.5 10q-18 0 -31 -13.5t-13 -34.5q0 -17 11 -27.5t28 -10.5t31 14zM251 822
q-5 3 0 10l111 148q5 7 13.5 9.5t31.5 2.5h38q21 0 26.5 -3.5t-0.5 -10.5l-137 -150q-5 -5 -12 -7t-24 -2h-26q-16 0 -21 3z" />
    <glyph glyph-name="atilde" unicode="&#xe3;" horiz-adv-x="561" 
d="M83 46.5q-49 56.5 -49 151.5q0 91 33 169t92 124.5t133 46.5q42 0 74.5 -16t52.5 -43l11 37q2 7 11 9.5t39 2.5h6q29 0 37.5 -2.5t6.5 -10.5q-19 -113 -29 -192l-12 -90q-16 -111 -23 -219q-1 -9 -9 -11.5t-40 -2.5h-4q-36 0 -44 7q-3 6 -4 19t-1 31q-26 -33 -63 -50
t-79 -17q-90 0 -139 56.5zM297.5 96q22.5 8 37.5 23q16 16 25 41.5t17 75.5l21 153q-15 23 -39.5 36t-53.5 13q-51 0 -85.5 -35.5t-51 -88t-16.5 -105.5q0 -58 25 -89.5t72 -31.5q26 0 48.5 8zM346 626q-15 6 -32 16q-11 6 -22.5 11t-22.5 5q-30 0 -60 -29q-3 -3 -7 -3
q-6 0 -22 16l-4 4q-13 14 -13 21q0 5 5 10q51 61 113 61q19 0 32.5 -5.5t32.5 -15.5q16 -9 25.5 -13t20.5 -4q33 0 62 29q3 3 6 3q7 0 22 -15l5 -5q13 -14 13 -21q0 -4 -5 -11q-24 -27 -53.5 -43.5t-61.5 -16.5q-19 0 -34 6z" />
    <glyph glyph-name="atilde.ss01" horiz-adv-x="576" 
d="M101 11q-39 21 -59.5 57t-20.5 79q0 73 55.5 116.5t162.5 43.5h136l3 23q2 18 2 26q0 42 -24.5 63.5t-70.5 21.5q-61 0 -150 -33q-8 -2 -10 -2q-7 0 -12 7t-14 28l-4 10q-8 19 -8 29q0 11 12 17q43 20 94.5 30.5t103.5 10.5q98 0 147.5 -44.5t49.5 -126.5q0 -20 -3 -41
l-28 -201l-2 -16q0 -12 5.5 -16.5t20.5 -4.5h17q10 2 10 -13q0 -3 -2 -19l-2 -12q-4 -22 -6 -27.5t-9 -8.5q-25 -11 -59 -11q-75 0 -86 60q-29 -32 -70.5 -49.5t-87.5 -17.5q-52 0 -91 21zM316.5 121q37.5 37 46.5 103h-124q-101 0 -101 -68q0 -29 21 -50.5t62 -21.5
q58 0 95.5 37zM337 626q-15 6 -32 16q-11 6 -22.5 11t-22.5 5q-30 0 -60 -29q-3 -3 -7 -3q-6 0 -22 16l-4 4q-13 14 -13 21q0 5 5 10q51 61 113 61q19 0 32.5 -5.5t32.5 -15.5q16 -9 25.5 -13t20.5 -4q33 0 62 29q3 3 6 3q7 0 22 -15l5 -5q13 -14 13 -21q0 -4 -5 -11
q-24 -27 -53.5 -43.5t-61.5 -16.5q-19 0 -34 6z" />
    <glyph glyph-name="ae" unicode="&#xe6;" horiz-adv-x="853" 
d="M73 32q-49 42 -49 111q0 91 65 138.5t167 47.5q58 0 107 -19q6 34 6 56q0 39 -24.5 58t-74.5 19q-61 0 -134 -30q-8 -4 -13 1.5t-11 25.5l-6 16q-5 16 -5 26q0 5 1.5 7.5t5.5 4.5q42 21 91 32.5t93 11.5q61 0 103.5 -18t59.5 -52q33 33 76 51.5t92 18.5q91 0 140.5 -57.5
t49.5 -152.5q0 -56 -13 -87q-4 -10 -8.5 -13t-12.5 -3h-311q-1 -25 7 -50q17 -85 115 -85q69 0 137 31q9 3 14 -1.5t10 -22.5l7 -23q6 -18 6 -25q0 -9 -9 -14q-82 -45 -191 -45q-60 0 -107 21t-70 59q-80 -80 -190 -80q-75 0 -124 42zM701 308q0 23 -1 33q-2 46 -24.5 72.5
t-63.5 26.5q-46 0 -81.5 -34.5t-51.5 -97.5h222zM355 144q-5 21 -5 53q0 18 1 28q-41 19 -95 19q-50 0 -84 -22.5t-34 -67.5q0 -32 23 -50t64 -18q75 0 130 58z" />
    <glyph glyph-name="aeacute" unicode="&#x1fd;" horiz-adv-x="853" 
d="M73 32q-49 42 -49 111q0 91 65 138.5t167 47.5q58 0 107 -19q6 34 6 56q0 39 -24.5 58t-74.5 19q-61 0 -134 -30q-8 -4 -13 1.5t-11 25.5l-6 16q-5 16 -5 26q0 5 1.5 7.5t5.5 4.5q42 21 91 32.5t93 11.5q61 0 103.5 -18t59.5 -52q33 33 76 51.5t92 18.5q91 0 140.5 -57.5
t49.5 -152.5q0 -56 -13 -87q-4 -10 -8.5 -13t-12.5 -3h-311q-1 -25 7 -50q17 -85 115 -85q69 0 137 31q9 3 14 -1.5t10 -22.5l7 -23q6 -18 6 -25q0 -9 -9 -14q-82 -45 -191 -45q-60 0 -107 21t-70 59q-80 -80 -190 -80q-75 0 -124 42zM701 308q0 23 -1 33q-2 46 -24.5 72.5
t-63.5 26.5q-46 0 -81.5 -34.5t-51.5 -97.5h222zM355 144q-5 21 -5 53q0 18 1 28q-41 19 -95 19q-50 0 -84 -22.5t-34 -67.5q0 -32 23 -50t64 -18q75 0 130 58zM402 596q-5 3 0 10l111 148q5 7 13.5 9.5t31.5 2.5h38q21 0 26.5 -3.5t-0.5 -10.5l-137 -150q-5 -5 -12 -7
t-24 -2h-26q-16 0 -21 3z" />
    <glyph glyph-name="b" unicode="b" horiz-adv-x="560" 
d="M130 0q-49 10 -81 26q-7 4 -10 8t-3 11l1 10l97 692q2 8 10.5 10.5t44.5 2.5h7q34 0 43.5 -2.5t7.5 -10.5l-37 -262q25 25 59 39t70 14q89 0 137.5 -57t48.5 -149q0 -98 -34.5 -175.5t-101.5 -122t-160 -44.5q-50 0 -99 10zM332.5 119.5q37.5 32.5 56 86.5t18.5 116
q0 58 -25.5 87.5t-71.5 29.5q-25 0 -48 -8.5t-38 -23.5q-18 -20 -27 -50t-17 -89l-23 -167q15 -6 38 -10t46 -4q54 0 91.5 32.5z" />
    <glyph glyph-name="c" unicode="c" horiz-adv-x="488" 
d="M93.5 49.5q-57.5 59.5 -57.5 163.5q0 85 34.5 159.5t98.5 120t149 45.5q96 0 163 -52q5 -5 5 -10t-5 -14t-11 -19l-9 -15q-20 -35 -35 -25q-30 18 -56 26t-55 8q-50 0 -86.5 -31.5t-55.5 -81t-19 -102.5q0 -62 29 -97t88 -35q60 0 117 29q4 3 9 3q4 0 8 -6.5t10 -24.5
l4 -15q6 -19 6 -27q0 -6 -2 -9t-7 -6q-35 -21 -78 -32.5t-87 -11.5q-100 0 -157.5 59.5z" />
    <glyph glyph-name="cacute" unicode="&#x107;" horiz-adv-x="488" 
d="M93.5 49.5q-57.5 59.5 -57.5 163.5q0 85 34.5 159.5t98.5 120t149 45.5q96 0 163 -52q5 -5 5 -10t-5 -14t-11 -19l-9 -15q-20 -35 -35 -25q-30 18 -56 26t-55 8q-50 0 -86.5 -31.5t-55.5 -81t-19 -102.5q0 -62 29 -97t88 -35q60 0 117 29q4 3 9 3q4 0 8 -6.5t10 -24.5
l4 -15q6 -19 6 -27q0 -6 -2 -9t-7 -6q-35 -21 -78 -32.5t-87 -11.5q-100 0 -157.5 59.5zM250 596q-5 3 0 10l111 148q5 7 13.5 9.5t31.5 2.5h38q21 0 26.5 -3.5t-0.5 -10.5l-137 -150q-5 -5 -12 -7t-24 -2h-26q-16 0 -21 3z" />
    <glyph glyph-name="cacute.loclPLK" horiz-adv-x="488" 
d="M93.5 49.5q-57.5 59.5 -57.5 163.5q0 85 34.5 159.5t98.5 120t149 45.5q96 0 163 -52q5 -5 5 -10t-5 -14t-11 -19l-9 -15q-20 -35 -35 -25q-30 18 -56 26t-55 8q-50 0 -86.5 -31.5t-55.5 -81t-19 -102.5q0 -62 29 -97t88 -35q60 0 117 29q4 3 9 3q4 0 8 -6.5t10 -24.5
l4 -15q6 -19 6 -27q0 -6 -2 -9t-7 -6q-35 -21 -78 -32.5t-87 -11.5q-100 0 -157.5 59.5zM287.5 596q-5.5 3 -2.5 10l62 148q3 8 10.5 10t31.5 2h34q23 0 29.5 -3t1.5 -11l-85 -149q-4 -6 -10.5 -8t-24.5 -2h-24q-17 0 -22.5 3z" />
    <glyph glyph-name="ccaron" unicode="&#x10d;" horiz-adv-x="488" 
d="M93.5 49.5q-57.5 59.5 -57.5 163.5q0 85 34.5 159.5t98.5 120t149 45.5q96 0 163 -52q5 -5 5 -10t-5 -14t-11 -19l-9 -15q-20 -35 -35 -25q-30 18 -56 26t-55 8q-50 0 -86.5 -31.5t-55.5 -81t-19 -102.5q0 -62 29 -97t88 -35q60 0 117 29q4 3 9 3q4 0 8 -6.5t10 -24.5
l4 -15q6 -19 6 -27q0 -6 -2 -9t-7 -6q-35 -21 -78 -32.5t-87 -11.5q-100 0 -157.5 59.5zM287.5 594q-10.5 3 -17.5 11l-76 98q-3 3 -3 7q0 8 17 22l8 9q17 16 25 16q3 0 7 -4l89 -90l117 92q5 3 8 3q4 0 9 -4t11 -11l9 -11q11 -13 11 -19q0 -4 -6 -10l-104 -98
q-9 -8 -20 -11t-34 -3h-17q-23 0 -33.5 3z" />
    <glyph glyph-name="ccedilla" unicode="&#xe7;" horiz-adv-x="488" 
d="M486 476q0 -5 -5 -14t-11 -19l-9 -15q-20 -35 -35 -25q-30 18 -56 26t-55 8q-50 0 -86.5 -31.5t-55.5 -81t-19 -102.5q0 -62 29 -97t88 -35q60 0 117 29q4 3 9 3q4 0 8 -6.5t10 -24.5l4 -15q6 -19 6 -27q0 -6 -2 -9t-7 -6q-34 -21 -76.5 -32.5t-85.5 -11.5l-10 -36l28 -2
q32 -5 50 -25.5t19 -53.5q0 -49 -38.5 -79.5t-96.5 -30.5q-43 0 -72 13q-6 1 -6 7q0 5 6 23l4 10q5 16 8.5 19.5t11.5 1.5q26 -7 48 -7t36 9t14 28q2 31 -46 31q-29 0 -56 -4l30 104q-70 18 -109 74t-39 141t34.5 159.5t98.5 120t149 45.5q96 0 163 -52q5 -5 5 -10z" />
    <glyph glyph-name="ccircumflex" unicode="&#x109;" horiz-adv-x="488" 
d="M93.5 49.5q-57.5 59.5 -57.5 163.5q0 85 34.5 159.5t98.5 120t149 45.5q96 0 163 -52q5 -5 5 -10t-5 -14t-11 -19l-9 -15q-20 -35 -35 -25q-30 18 -56 26t-55 8q-50 0 -86.5 -31.5t-55.5 -81t-19 -102.5q0 -62 29 -97t88 -35q60 0 117 29q4 3 9 3q4 0 8 -6.5t10 -24.5
l4 -15q6 -19 6 -27q0 -6 -2 -9t-7 -6q-35 -21 -78 -32.5t-87 -11.5q-100 0 -157.5 59.5zM222 595q-3 0 -8 4t-12 11l-9 11q-11 13 -11 18q0 6 6 10l104 98q9 8 20 11t34 3h18q23 0 33 -3t17 -11l76 -98q2 -2 2 -6q0 -7 -16 -22l-8 -8q-17 -16 -24 -16q-3 0 -7 4l-89 89
l-118 -92q-5 -3 -8 -3z" />
    <glyph glyph-name="cdotaccent" unicode="&#x10b;" horiz-adv-x="488" 
d="M93.5 49.5q-57.5 59.5 -57.5 163.5q0 85 34.5 159.5t98.5 120t149 45.5q96 0 163 -52q5 -5 5 -10t-5 -14t-11 -19l-9 -15q-20 -35 -35 -25q-30 18 -56 26t-55 8q-50 0 -86.5 -31.5t-55.5 -81t-19 -102.5q0 -62 29 -97t88 -35q60 0 117 29q4 3 9 3q4 0 8 -6.5t10 -24.5
l4 -15q6 -19 6 -27q0 -6 -2 -9t-7 -6q-35 -21 -78 -32.5t-87 -11.5q-100 0 -157.5 59.5zM289 634q-17 17 -17 41q0 28 20 49.5t50 21.5q27 0 43.5 -16.5t16.5 -42.5t-19.5 -48t-49.5 -22q-27 0 -44 17z" />
    <glyph glyph-name="d" unicode="d" horiz-adv-x="577" 
d="M83.5 45q-49.5 55 -49.5 152q0 94 33 172t93.5 123.5t139.5 45.5q32 0 62.5 -11.5t51.5 -30.5l35 251q2 8 11.5 10.5t42.5 2.5h6q36 0 45 -3t8 -10l-86 -617l-2 -20q0 -13 6 -18t21 -5h5q5 0 6.5 -1.5t1.5 -7.5q0 -12 -2 -24l-1 -12q-3 -21 -5.5 -27t-9.5 -9
q-23 -10 -54 -10q-63 0 -78 58q-24 -30 -61.5 -47t-78.5 -17q-91 0 -140.5 55zM297 96q24 8 40 23q16 16 24.5 41t16.5 76l23 164q-40 38 -96 38q-52 0 -86.5 -35t-50.5 -88t-16 -107q0 -59 25 -89.5t70 -30.5q26 0 50 8z" />
    <glyph glyph-name="eth" unicode="&#xf0;" horiz-adv-x="566" 
d="M87 47.5q-56 57.5 -56 155.5q0 78 31.5 148t91.5 113.5t141 43.5q57 0 103 -29q-19 60 -62 108l-117 -39l-4 -1q-4 0 -6.5 4.5t-5.5 17.5l-3 12q-3 12 -3 18q0 8 8 11l88 30q-33 29 -73 53q-5 3 -5 7q0 9 19 32l13 16q10 12 15.5 16.5t10.5 4.5l8 -2q73 -37 127 -93
l119 39q2 1 5 1q6 0 12 -21l3 -13q3 -10 3 -17q0 -8 -8 -11l-93 -31q80 -103 80 -242q0 -102 -32 -190.5t-98 -143.5t-164 -55q-92 0 -148 57.5zM361.5 155q39.5 68 46.5 162q5 32 3 59q-53 39 -106 39q-47 0 -82.5 -29.5t-54.5 -78t-19 -101.5q0 -57 25.5 -88t74.5 -31
q73 0 112.5 68z" />
    <glyph glyph-name="dcaron" unicode="&#x10f;" horiz-adv-x="663" 
d="M83.5 45q-49.5 55 -49.5 152q0 94 33 172t93.5 123.5t139.5 45.5q32 0 62.5 -11.5t51.5 -30.5l35 251q2 8 11.5 10.5t42.5 2.5h6q36 0 45 -3t8 -10l-86 -617l-2 -20q0 -13 6 -18t21 -5h5q5 0 6.5 -1.5t1.5 -7.5q0 -12 -2 -24l-1 -12q-3 -21 -5.5 -27t-9.5 -9
q-23 -10 -54 -10q-63 0 -78 58q-24 -30 -61.5 -47t-78.5 -17q-91 0 -140.5 55zM297 96q24 8 40 23q16 16 24.5 41t16.5 76l23 164q-40 38 -96 38q-52 0 -86.5 -35t-50.5 -88t-16 -107q0 -59 25 -89.5t70 -30.5q26 0 50 8zM600 482q-5 0 -11 7l-8 10q-5 7 -6 9.5t3 6.5
q59 57 59 96q0 9 -3 15t-9 16q-12 18 -12 34q0 23 17 38.5t42 15.5t38.5 -16.5t13.5 -43.5q0 -47 -35 -98t-83 -88q-4 -2 -6 -2z" />
    <glyph glyph-name="dcroat" unicode="&#x111;" horiz-adv-x="577" 
d="M83.5 45q-49.5 55 -49.5 152q0 94 33 172t93.5 123.5t139.5 45.5q32 0 62.5 -11.5t51.5 -30.5l15 108h-161q-6 0 -8 2.5t-2 10.5t3 26l1 6q4 25 7.5 31.5t12.5 6.5h159l8 60q2 8 11.5 10.5t42.5 2.5h6q36 0 45 -3t8 -10l-8 -60h58q11 0 11 -14q0 -8 -3 -25l-1 -6
q-4 -25 -8 -31.5t-12 -6.5h-57l-66 -474l-2 -20q0 -13 6 -18t22 -5h4q5 0 6.5 -1.5t1.5 -7.5q0 -12 -2 -24l-1 -12q-3 -21 -5.5 -27t-9.5 -9q-23 -10 -54 -10q-33 0 -52.5 16t-25.5 42q-24 -30 -61.5 -47t-78.5 -17q-91 0 -140.5 55zM297 96q24 8 40 23q16 16 24.5 41
t16.5 76l23 164q-40 38 -96 38q-52 0 -86.5 -35t-50.5 -88t-16 -107q0 -59 25 -89.5t70 -30.5q26 0 50 8z" />
    <glyph glyph-name="e" unicode="e" horiz-adv-x="545" 
d="M94 48.5q-58 58.5 -58 161.5q0 90 34.5 165t97 119t142.5 44q93 0 144 -58t51 -152q0 -56 -13 -87q-3 -9 -7.5 -12.5t-13.5 -3.5h-316q0 -25 4 -42q8 -46 39 -69.5t84 -23.5q68 0 138 31q8 3 12.5 -1.5t10.5 -22.5l7 -23q6 -18 6 -25q0 -8 -9 -13q-39 -22 -89.5 -34
t-102.5 -12q-103 0 -161 58.5zM394 308q0 20 -1 30q-3 47 -27 74.5t-69 27.5t-79.5 -33.5t-51.5 -98.5h228z" />
    <glyph glyph-name="eacute" unicode="&#xe9;" horiz-adv-x="545" 
d="M94 48.5q-58 58.5 -58 161.5q0 90 34.5 165t97 119t142.5 44q93 0 144 -58t51 -152q0 -56 -13 -87q-3 -9 -7.5 -12.5t-13.5 -3.5h-316q0 -25 4 -42q8 -46 39 -69.5t84 -23.5q68 0 138 31q8 3 12.5 -1.5t10.5 -22.5l7 -23q6 -18 6 -25q0 -8 -9 -13q-39 -22 -89.5 -34
t-102.5 -12q-103 0 -161 58.5zM394 308q0 20 -1 30q-3 47 -27 74.5t-69 27.5t-79.5 -33.5t-51.5 -98.5h228zM245 596q-5 3 0 10l111 148q5 7 13.5 9.5t31.5 2.5h38q21 0 26.5 -3.5t-0.5 -10.5l-137 -150q-5 -5 -12 -7t-24 -2h-26q-16 0 -21 3z" />
    <glyph glyph-name="ebreve" unicode="&#x115;" horiz-adv-x="545" 
d="M94 48.5q-58 58.5 -58 161.5q0 90 34.5 165t97 119t142.5 44q93 0 144 -58t51 -152q0 -56 -13 -87q-3 -9 -7.5 -12.5t-13.5 -3.5h-316q0 -25 4 -42q8 -46 39 -69.5t84 -23.5q68 0 138 31q8 3 12.5 -1.5t10.5 -22.5l7 -23q6 -18 6 -25q0 -8 -9 -13q-39 -22 -89.5 -34
t-102.5 -12q-103 0 -161 58.5zM394 308q0 20 -1 30q-3 47 -27 74.5t-69 27.5t-79.5 -33.5t-51.5 -98.5h228zM233 630q-35 27 -40 74l-1 25q1 12 7 15t23 3h22q18 0 23 -2.5t5 -8.5q0 -28 15.5 -44.5t43.5 -16.5q29 0 47.5 15t27.5 46q2 7 7 9t23 2h15q21 0 28 -2.5t6 -10.5
q-12 -62 -55 -96.5t-107 -34.5q-55 0 -90 27z" />
    <glyph glyph-name="ecaron" unicode="&#x11b;" horiz-adv-x="545" 
d="M94 48.5q-58 58.5 -58 161.5q0 90 34.5 165t97 119t142.5 44q93 0 144 -58t51 -152q0 -56 -13 -87q-3 -9 -7.5 -12.5t-13.5 -3.5h-316q0 -25 4 -42q8 -46 39 -69.5t84 -23.5q68 0 138 31q8 3 12.5 -1.5t10.5 -22.5l7 -23q6 -18 6 -25q0 -8 -9 -13q-39 -22 -89.5 -34
t-102.5 -12q-103 0 -161 58.5zM394 308q0 20 -1 30q-3 47 -27 74.5t-69 27.5t-79.5 -33.5t-51.5 -98.5h228zM282.5 594q-10.5 3 -17.5 11l-76 98q-3 3 -3 7q0 8 17 22l8 9q17 16 25 16q3 0 7 -4l89 -90l117 92q5 3 8 3q4 0 9 -4t11 -11l9 -11q11 -13 11 -19q0 -4 -6 -10
l-104 -98q-9 -8 -20 -11t-34 -3h-17q-23 0 -33.5 3z" />
    <glyph glyph-name="ecircumflex" unicode="&#xea;" horiz-adv-x="545" 
d="M94 48.5q-58 58.5 -58 161.5q0 90 34.5 165t97 119t142.5 44q93 0 144 -58t51 -152q0 -56 -13 -87q-3 -9 -7.5 -12.5t-13.5 -3.5h-316q0 -25 4 -42q8 -46 39 -69.5t84 -23.5q68 0 138 31q8 3 12.5 -1.5t10.5 -22.5l7 -23q6 -18 6 -25q0 -8 -9 -13q-39 -22 -89.5 -34
t-102.5 -12q-103 0 -161 58.5zM394 308q0 20 -1 30q-3 47 -27 74.5t-69 27.5t-79.5 -33.5t-51.5 -98.5h228zM217 595q-3 0 -8 4t-12 11l-9 11q-11 13 -11 18q0 6 6 10l104 98q9 8 20 11t34 3h18q23 0 33 -3t17 -11l76 -98q2 -2 2 -6q0 -7 -16 -22l-8 -8q-17 -16 -24 -16
q-3 0 -7 4l-89 89l-118 -92q-5 -3 -8 -3z" />
    <glyph glyph-name="edieresis" unicode="&#xeb;" horiz-adv-x="545" 
d="M94 48.5q-58 58.5 -58 161.5q0 90 34.5 165t97 119t142.5 44q93 0 144 -58t51 -152q0 -56 -13 -87q-3 -9 -7.5 -12.5t-13.5 -3.5h-316q0 -25 4 -42q8 -46 39 -69.5t84 -23.5q68 0 138 31q8 3 12.5 -1.5t10.5 -22.5l7 -23q6 -18 6 -25q0 -8 -9 -13q-39 -22 -89.5 -34
t-102.5 -12q-103 0 -161 58.5zM394 308q0 20 -1 30q-3 47 -27 74.5t-69 27.5t-79.5 -33.5t-51.5 -98.5h228zM179.5 625.5q-16.5 16.5 -16.5 40.5q0 27 19 48t49 21q27 0 43.5 -16.5t16.5 -40.5q0 -27 -19 -48t-50 -21q-26 0 -42.5 16.5zM388.5 625.5q-16.5 16.5 -16.5 40.5
q0 27 19 48t49 21q27 0 43.5 -16.5t16.5 -40.5q0 -27 -19 -48t-50 -21q-26 0 -42.5 16.5z" />
    <glyph glyph-name="edotaccent" unicode="&#x117;" horiz-adv-x="545" 
d="M94 48.5q-58 58.5 -58 161.5q0 90 34.5 165t97 119t142.5 44q93 0 144 -58t51 -152q0 -56 -13 -87q-3 -9 -7.5 -12.5t-13.5 -3.5h-316q0 -25 4 -42q8 -46 39 -69.5t84 -23.5q68 0 138 31q8 3 12.5 -1.5t10.5 -22.5l7 -23q6 -18 6 -25q0 -8 -9 -13q-39 -22 -89.5 -34
t-102.5 -12q-103 0 -161 58.5zM394 308q0 20 -1 30q-3 47 -27 74.5t-69 27.5t-79.5 -33.5t-51.5 -98.5h228zM284 634q-17 17 -17 41q0 28 20 49.5t50 21.5q27 0 43.5 -16.5t16.5 -42.5t-19.5 -48t-49.5 -22q-27 0 -44 17z" />
    <glyph glyph-name="egrave" unicode="&#xe8;" horiz-adv-x="545" 
d="M94 48.5q-58 58.5 -58 161.5q0 90 34.5 165t97 119t142.5 44q93 0 144 -58t51 -152q0 -56 -13 -87q-3 -9 -7.5 -12.5t-13.5 -3.5h-316q0 -25 4 -42q8 -46 39 -69.5t84 -23.5q68 0 138 31q8 3 12.5 -1.5t10.5 -22.5l7 -23q6 -18 6 -25q0 -8 -9 -13q-39 -22 -89.5 -34
t-102.5 -12q-103 0 -161 58.5zM394 308q0 20 -1 30q-3 47 -27 74.5t-69 27.5t-79.5 -33.5t-51.5 -98.5h228zM306 595q-7 2 -10 7l-95 150q-4 7 2 10.5t27 3.5h32q24 0 32.5 -2.5t11.5 -9.5l71 -149q1 -1 1 -4q0 -8 -26 -8h-22q-17 0 -24 2z" />
    <glyph glyph-name="emacron" unicode="&#x113;" horiz-adv-x="545" 
d="M94 48.5q-58 58.5 -58 161.5q0 90 34.5 165t97 119t142.5 44q93 0 144 -58t51 -152q0 -56 -13 -87q-3 -9 -7.5 -12.5t-13.5 -3.5h-316q0 -25 4 -42q8 -46 39 -69.5t84 -23.5q68 0 138 31q8 3 12.5 -1.5t10.5 -22.5l7 -23q6 -18 6 -25q0 -8 -9 -13q-39 -22 -89.5 -34
t-102.5 -12q-103 0 -161 58.5zM394 308q0 20 -1 30q-3 47 -27 74.5t-69 27.5t-79.5 -33.5t-51.5 -98.5h228zM188.5 639.5q-1.5 2.5 -1.5 9.5q0 14 2 24l2 11q3 21 6.5 28t10.5 7h260q5 0 6.5 -2.5t1.5 -9.5q0 -13 -2 -24l-1 -11q-3 -20 -6.5 -27.5t-10.5 -7.5h-261
q-5 0 -6.5 2.5z" />
    <glyph glyph-name="eogonek" unicode="&#x119;" horiz-adv-x="545" 
d="M256 -210q-29 27 -29 72q0 36 19.5 71t52.5 60q-22 -3 -45 -3q-103 0 -160.5 58t-57.5 162q0 90 34.5 165t97 119t142.5 44q93 0 144 -58t51 -152q0 -56 -13 -87q-3 -9 -7.5 -12.5t-13.5 -3.5h-316q0 -25 4 -42q8 -46 39 -69.5t84 -23.5q68 0 138 31q8 3 12.5 -1.5
t10.5 -22.5l7 -23q5 -17 5 -23t-2 -9t-8 -6q-51 -28 -84 -61q-46 -46 -46 -94q0 -19 10.5 -31t30.5 -12t43 9l4 1q8 0 11 -22l3 -14q2 -14 2 -17q0 -11 -9 -15q-16 -7 -38.5 -12t-40.5 -5q-46 0 -75 27zM394 308q0 20 -1 30q-3 47 -27 74.5t-69 27.5t-79.5 -33.5
t-51.5 -98.5h228z" />
    <glyph glyph-name="f" unicode="f" horiz-adv-x="359" 
d="M41.5 -223.5q-8.5 2.5 -7.5 10.5l90 650h-71q-5 0 -7 2.5t-2 9.5q0 10 3 31l1 7q4 26 7.5 33.5t10.5 7.5h71l4 29q14 105 69.5 161t147.5 56q50 0 102 -19q8 -3 8 -11q0 -5 -8 -29l-5 -16q-7 -23 -12 -29t-13 -4q-36 12 -66 12q-51 0 -76 -31t-34 -92l-4 -27h113
q6 0 8 -2.5t2 -10.5q0 -9 -3 -30l-1 -7q-4 -26 -7.5 -33.5t-10.5 -7.5h-114l-90 -650q-2 -7 -12 -10t-43 -3h-6q-36 0 -44.5 2.5z" />
    <glyph glyph-name="g" unicode="g" horiz-adv-x="562" 
d="M119.5 -227.5q-44.5 9.5 -76.5 25.5q-6 3 -6 10t11 35l5 13q9 21 15 27.5t15 2.5q58 -24 118 -24q62 0 96.5 34t48.5 106l9 43q-28 -25 -64 -38.5t-74 -13.5q-84 0 -132.5 56.5t-48.5 149.5q0 92 33.5 169.5t92.5 123.5t133 46q39 0 73.5 -16.5t54.5 -43.5q5 27 11 38
q3 7 11 9.5t29 2.5h12q23 0 32 -4t9 -15q0 -29 -8 -89.5t-10 -77.5l-7 -49l-31 -219q-9 -63 -20.5 -108t-28.5 -81q-62 -122 -217 -122q-41 0 -85.5 9.5zM317 106.5q31 15.5 51 39.5l25 175q3 18 3 32q0 29 -10 46q-10 19 -30.5 29t-46.5 10q-50 0 -85 -33t-52.5 -85
t-17.5 -111q0 -58 27 -88t75 -30q30 0 61 15.5z" />
    <glyph glyph-name="gbreve" unicode="&#x11f;" horiz-adv-x="562" 
d="M119.5 -227.5q-44.5 9.5 -76.5 25.5q-6 3 -6 10t11 35l5 13q9 21 15 27.5t15 2.5q58 -24 118 -24q62 0 96.5 34t48.5 106l9 43q-28 -25 -64 -38.5t-74 -13.5q-84 0 -132.5 56.5t-48.5 149.5q0 92 33.5 169.5t92.5 123.5t133 46q39 0 73.5 -16.5t54.5 -43.5q5 27 11 38
q3 7 11 9.5t29 2.5h12q23 0 32 -4t9 -15q0 -29 -8 -89.5t-10 -77.5l-7 -49l-31 -219q-9 -63 -20.5 -108t-28.5 -81q-62 -122 -217 -122q-41 0 -85.5 9.5zM317 106.5q31 15.5 51 39.5l25 175q3 18 3 32q0 29 -10 46q-10 19 -30.5 29t-46.5 10q-50 0 -85 -33t-52.5 -85
t-17.5 -111q0 -58 27 -88t75 -30q30 0 61 15.5zM242 630q-35 27 -40 74l-1 25q1 12 7 15t23 3h22q18 0 23 -2.5t5 -8.5q0 -28 15.5 -44.5t43.5 -16.5q29 0 47.5 15t27.5 46q2 7 7 9t23 2h15q21 0 28 -2.5t6 -10.5q-12 -62 -55 -96.5t-107 -34.5q-55 0 -90 27z" />
    <glyph glyph-name="gcircumflex" unicode="&#x11d;" horiz-adv-x="562" 
d="M119.5 -227.5q-44.5 9.5 -76.5 25.5q-6 3 -6 10t11 35l5 13q9 21 15 27.5t15 2.5q58 -24 118 -24q62 0 96.5 34t48.5 106l9 43q-28 -25 -64 -38.5t-74 -13.5q-84 0 -132.5 56.5t-48.5 149.5q0 92 33.5 169.5t92.5 123.5t133 46q39 0 73.5 -16.5t54.5 -43.5q5 27 11 38
q3 7 11 9.5t29 2.5h12q23 0 32 -4t9 -15q0 -29 -8 -89.5t-10 -77.5l-7 -49l-31 -219q-9 -63 -20.5 -108t-28.5 -81q-62 -122 -217 -122q-41 0 -85.5 9.5zM317 106.5q31 15.5 51 39.5l25 175q3 18 3 32q0 29 -10 46q-10 19 -30.5 29t-46.5 10q-50 0 -85 -33t-52.5 -85
t-17.5 -111q0 -58 27 -88t75 -30q30 0 61 15.5zM226 595q-3 0 -8 4t-12 11l-9 11q-11 13 -11 18q0 6 6 10l104 98q9 8 20 11t34 3h18q23 0 33 -3t17 -11l76 -98q2 -2 2 -6q0 -7 -16 -22l-8 -8q-17 -16 -24 -16q-3 0 -7 4l-89 89l-118 -92q-5 -3 -8 -3z" />
    <glyph glyph-name="gcommaaccent" unicode="&#x123;" horiz-adv-x="562" 
d="M281.5 606.5q-13.5 16.5 -13.5 43.5q0 47 35 98t83 88q4 2 6 2q5 0 11 -7l8 -10q5 -6 6 -9t-3 -7q-59 -57 -59 -96q0 -12 5 -20.5t6 -10.5q12 -18 12 -34q0 -23 -16.5 -38.5t-41.5 -15.5t-38.5 16.5zM119.5 -227.5q-44.5 9.5 -76.5 25.5q-6 3 -6 10t11 35l5 13
q9 21 15 27.5t15 2.5q58 -24 118 -24q62 0 96.5 34t48.5 106q6 17 9 43q-28 -25 -64 -38.5t-74 -13.5q-84 0 -132.5 56.5t-48.5 149.5q0 92 33.5 169.5t92.5 123.5t133 46q39 0 73.5 -16.5t54.5 -43.5q5 27 11 38q3 7 11 9.5t29 2.5h12q23 0 32 -4t9 -15q0 -29 -8 -89.5
t-10 -77.5l-7 -49l-31 -219q-9 -63 -20.5 -108t-28.5 -81q-62 -122 -217 -122q-41 0 -85.5 9.5zM317 106.5q31 15.5 51 39.5l24 175q3 20 3 35q0 25 -9 43q-10 19 -30.5 29t-46.5 10q-50 0 -85 -33t-52.5 -85t-17.5 -111q0 -58 27 -88t75 -30q30 0 61 15.5z" />
    <glyph glyph-name="gdotaccent" unicode="&#x121;" horiz-adv-x="562" 
d="M119.5 -227.5q-44.5 9.5 -76.5 25.5q-6 3 -6 10t11 35l5 13q9 21 15 27.5t15 2.5q58 -24 118 -24q62 0 96.5 34t48.5 106l9 43q-28 -25 -64 -38.5t-74 -13.5q-84 0 -132.5 56.5t-48.5 149.5q0 92 33.5 169.5t92.5 123.5t133 46q39 0 73.5 -16.5t54.5 -43.5q5 27 11 38
q3 7 11 9.5t29 2.5h12q23 0 32 -4t9 -15q0 -29 -8 -89.5t-10 -77.5l-7 -49l-31 -219q-9 -63 -20.5 -108t-28.5 -81q-62 -122 -217 -122q-41 0 -85.5 9.5zM317 106.5q31 15.5 51 39.5l25 175q3 18 3 32q0 29 -10 46q-10 19 -30.5 29t-46.5 10q-50 0 -85 -33t-52.5 -85
t-17.5 -111q0 -58 27 -88t75 -30q30 0 61 15.5zM293 634q-17 17 -17 41q0 28 20 49.5t50 21.5q27 0 43.5 -16.5t16.5 -42.5t-19.5 -48t-49.5 -22q-27 0 -44 17z" />
    <glyph glyph-name="h" unicode="h" horiz-adv-x="573" 
d="M52 1.5q-11 1.5 -14 4t-2 8.5l103 733q1 8 10.5 10.5t43.5 2.5h6q35 0 44.5 -3t8.5 -10l-39 -271q30 29 69.5 45.5t82.5 16.5q42 0 75 -14t54 -40q30 -39 30 -99q0 -35 -8 -86l-39 -285q-2 -8 -12 -11t-43 -3h-6q-35 0 -44 3t-8 11l37 270q7 49 7 74q0 35 -15 51
q-21 25 -73 25t-88 -29q-19 -17 -29 -47t-22 -117l-32 -227q-2 -8 -12 -11t-43 -3h-6q-25 0 -36 1.5z" />
    <glyph glyph-name="hbar" unicode="&#x127;" horiz-adv-x="573" 
d="M52 1.5q-11 1.5 -14 4t-2 8.5l82 590h-58q-6 0 -8 2.5t-2 10.5t3 26l1 6q4 25 7.5 31.5t12.5 6.5h56l9 60q1 8 10.5 10.5t43.5 2.5h6q35 0 44.5 -3t8.5 -10l-9 -60h161q11 0 11 -14q0 -8 -3 -25l-1 -6q-4 -25 -8 -31.5t-12 -6.5h-160l-17 -128q30 29 69 45.5t82 16.5
q81 0 124 -48q35 -40 35 -105q0 -35 -8 -86l-39 -285q-2 -8 -12 -11t-43 -3h-6q-35 0 -44 3t-8 11l37 270q7 49 7 74q0 35 -16 52q-20 24 -72 24t-88 -29q-18 -16 -28.5 -47.5t-22.5 -116.5l-32 -227q-2 -8 -12 -11t-43 -3h-6q-25 0 -36 1.5z" />
    <glyph glyph-name="hcircumflex" unicode="&#x125;" horiz-adv-x="573" 
d="M52 1.5q-11 1.5 -14 4t-2 8.5l103 733q1 8 10.5 10.5t43.5 2.5h6q35 0 44.5 -3t8.5 -10l-39 -271q30 29 69.5 45.5t82.5 16.5q42 0 75 -14t54 -40q30 -39 30 -99q0 -35 -8 -86l-39 -285q-2 -8 -12 -11t-43 -3h-6q-35 0 -44 3t-8 11l37 270q7 49 7 74q0 35 -15 51
q-21 25 -73 25t-88 -29q-19 -17 -29 -47t-22 -117l-32 -227q-2 -8 -12 -11t-43 -3h-6q-25 0 -36 1.5zM85 765q-3 0 -8 4t-12 11l-9 11q-11 13 -11 18q0 6 6 10l104 98q9 8 20 11t34 3h18q23 0 33 -3t17 -11l76 -98q2 -2 2 -6q0 -7 -16 -22l-8 -8q-17 -16 -24 -16q-3 0 -7 4
l-89 89l-118 -92q-5 -3 -8 -3z" />
    <glyph glyph-name="i" unicode="i" horiz-adv-x="256" 
d="M132 641q-19 19 -19 48q0 31 22.5 56t56.5 25q30 0 49 -19t19 -47q0 -31 -22 -56.5t-57 -25.5q-30 0 -49 19zM44 2.5q-9 2.5 -8 10.5l71 502q1 8 11 10.5t43 2.5h6q36 0 44.5 -2.5t7.5 -10.5l-70 -502q-2 -7 -12 -10t-43 -3h-5q-36 0 -45 2.5z" />
    <glyph glyph-name="dotlessi" unicode="&#x131;" horiz-adv-x="256" 
d="M44 2.5q-9 2.5 -8 10.5l71 502q1 8 11 10.5t43 2.5h6q36 0 44.5 -2.5t7.5 -10.5l-70 -502q-2 -7 -12 -10t-43 -3h-5q-36 0 -45 2.5z" />
    <glyph glyph-name="iacute" unicode="&#xed;" horiz-adv-x="256" 
d="M44 2.5q-9 2.5 -8 10.5l71 502q1 8 11 10.5t43 2.5h6q36 0 44.5 -2.5t7.5 -10.5l-70 -502q-2 -7 -12 -10t-43 -3h-5q-36 0 -45 2.5zM98 596q-5 3 0 10l111 148q5 7 13.5 9.5t31.5 2.5h38q21 0 26.5 -3.5t-0.5 -10.5l-137 -150q-5 -5 -12 -7t-24 -2h-26q-16 0 -21 3z" />
    <glyph glyph-name="iacute_j.loclNLD" horiz-adv-x="518" 
d="M44 2.5q-9 2.5 -8 10.5l71 502q1 8 11 10.5t43 2.5h6q36 0 44.5 -2.5t7.5 -10.5l-70 -502q-2 -7 -12 -10t-43 -3h-5q-36 0 -45 2.5zM98 596q-5 3 0 10l111 148q5 7 13.5 9.5t31.5 2.5h38q21 0 26.5 -3.5t-0.5 -10.5l-137 -150q-5 -5 -12 -7t-24 -2h-26q-16 0 -21 3z
M113 -221q-4 2 -5.5 4t-1.5 7q0 10 7 31l4 14q6 22 10.5 27.5t14.5 3.5q30 -7 50 -7q48 0 73 30.5t35 103.5l73 522q1 8 11 10.5t43 2.5h6q36 0 45 -2.5t8 -10.5l-73 -517q-10 -67 -26.5 -110.5t-43.5 -71.5q-53 -53 -144 -53q-47 0 -86 16zM365 596q-5 3 0 10l111 148
q5 7 13.5 9.5t31.5 2.5h38q21 0 26.5 -3.5t-0.5 -10.5l-137 -150q-5 -5 -12 -7t-24 -2h-26q-16 0 -21 3z" />
    <glyph glyph-name="ibreve" unicode="&#x12d;" horiz-adv-x="256" 
d="M44 2.5q-9 2.5 -8 10.5l71 502q1 8 11 10.5t43 2.5h6q36 0 44.5 -2.5t7.5 -10.5l-70 -502q-2 -7 -12 -10t-43 -3h-5q-36 0 -45 2.5zM86 630q-35 27 -40 74l-1 25q1 12 7 15t23 3h22q18 0 23 -2.5t5 -8.5q0 -28 15.5 -44.5t43.5 -16.5q29 0 47.5 15t27.5 46q2 7 7 9t23 2
h15q21 0 28 -2.5t6 -10.5q-12 -62 -55 -96.5t-107 -34.5q-55 0 -90 27z" />
    <glyph glyph-name="icircumflex" unicode="&#xee;" horiz-adv-x="256" 
d="M44 2.5q-9 2.5 -8 10.5l71 502q1 8 11 10.5t43 2.5h6q36 0 44.5 -2.5t7.5 -10.5l-70 -502q-2 -7 -12 -10t-43 -3h-5q-36 0 -45 2.5zM70 595q-3 0 -8 4t-12 11l-9 11q-11 13 -11 18q0 6 6 10l104 98q9 8 20 11t34 3h18q23 0 33 -3t17 -11l76 -98q2 -2 2 -6q0 -7 -16 -22
l-8 -8q-17 -16 -24 -16q-3 0 -7 4l-89 89l-118 -92q-5 -3 -8 -3z" />
    <glyph glyph-name="idieresis" unicode="&#xef;" horiz-adv-x="256" 
d="M44 2.5q-9 2.5 -8 10.5l71 502q1 8 11 10.5t43 2.5h6q36 0 44.5 -2.5t7.5 -10.5l-70 -502q-2 -7 -12 -10t-43 -3h-5q-36 0 -45 2.5zM32.5 625.5q-16.5 16.5 -16.5 40.5q0 27 19 48t49 21q27 0 43.5 -16.5t16.5 -40.5q0 -27 -19 -48t-50 -21q-26 0 -42.5 16.5z
M241.5 625.5q-16.5 16.5 -16.5 40.5q0 27 19 48t49 21q27 0 43.5 -16.5t16.5 -40.5q0 -27 -19 -48t-50 -21q-26 0 -42.5 16.5z" />
    <glyph glyph-name="i.loclTRK" horiz-adv-x="256" 
d="M44 2.5q-9 2.5 -8 10.5l71 502q1 8 11 10.5t43 2.5h6q36 0 44.5 -2.5t7.5 -10.5l-70 -502q-2 -7 -12 -10t-43 -3h-5q-36 0 -45 2.5zM137 634q-17 17 -17 41q0 28 20 49.5t50 21.5q27 0 43.5 -16.5t16.5 -42.5t-19.5 -48t-49.5 -22q-27 0 -44 17z" />
    <glyph glyph-name="igrave" unicode="&#xec;" horiz-adv-x="256" 
d="M44 2.5q-9 2.5 -8 10.5l71 502q1 8 11 10.5t43 2.5h6q36 0 44.5 -2.5t7.5 -10.5l-70 -502q-2 -7 -12 -10t-43 -3h-5q-36 0 -45 2.5zM159 595q-7 2 -10 7l-95 150q-4 7 2 10.5t27 3.5h32q24 0 32.5 -2.5t11.5 -9.5l71 -149q1 -1 1 -4q0 -8 -26 -8h-22q-17 0 -24 2z" />
    <glyph glyph-name="ij" unicode="&#x133;" horiz-adv-x="583" 
d="M132 641q-19 19 -19 48q0 31 22.5 56t56.5 25q30 0 49 -19t19 -47q0 -31 -22 -56.5t-57 -25.5q-30 0 -49 19zM44 2.5q-9 2.5 -8 10.5l71 502q1 8 11 10.5t43 2.5h6q36 0 44.5 -2.5t7.5 -10.5l-70 -502q-2 -7 -12 -10t-43 -3h-5q-36 0 -45 2.5zM464 641q-19 19 -19 48
q0 31 22.5 56t56.5 25q30 0 49 -19t19 -47q0 -31 -22 -56.5t-57 -25.5q-30 0 -49 19zM178 -221q-4 2 -5.5 4t-1.5 7q0 10 7 31l4 14q6 22 10.5 27.5t14.5 3.5q30 -7 50 -7q48 0 73 30.5t35 103.5l73 522q1 8 11 10.5t43 2.5h6q36 0 45 -2.5t8 -10.5l-73 -517
q-10 -67 -26.5 -110.5t-43.5 -71.5q-53 -53 -144 -53q-47 0 -86 16z" />
    <glyph glyph-name="imacron" unicode="&#x12b;" horiz-adv-x="256" 
d="M44 2.5q-9 2.5 -8 10.5l71 502q1 8 11 10.5t43 2.5h6q36 0 44.5 -2.5t7.5 -10.5l-70 -502q-2 -7 -12 -10t-43 -3h-5q-36 0 -45 2.5zM41.5 639.5q-1.5 2.5 -1.5 9.5q0 14 2 24l2 11q3 21 6.5 28t10.5 7h260q5 0 6.5 -2.5t1.5 -9.5q0 -13 -2 -24l-1 -11q-3 -20 -6.5 -27.5
t-10.5 -7.5h-261q-5 0 -6.5 2.5z" />
    <glyph glyph-name="iogonek" unicode="&#x12f;" horiz-adv-x="256" 
d="M132 641q-19 19 -19 48q0 31 22.5 56t56.5 25q30 0 49 -19t19 -47q0 -31 -22 -56.5t-57 -25.5q-30 0 -49 19zM-32 -212q-28 25 -28 70q0 41 26.5 78t67.5 64l73 515q1 8 11 10.5t43 2.5h6q36 0 44.5 -2.5t7.5 -10.5l-69 -492q-1 -9 -7.5 -15.5t-20.5 -14.5
q-94 -52 -94 -117q0 -18 10 -28t29 -10q22 0 45 9l4 1q8 0 11 -22l3 -14q2 -14 2 -17q0 -11 -9 -15q-15 -8 -37.5 -12.5t-42.5 -4.5q-47 0 -75 25z" />
    <glyph glyph-name="itilde" unicode="&#x129;" horiz-adv-x="256" 
d="M44 2.5q-9 2.5 -8 10.5l71 502q1 8 11 10.5t43 2.5h6q36 0 44.5 -2.5t7.5 -10.5l-70 -502q-2 -7 -12 -10t-43 -3h-5q-36 0 -45 2.5zM200 626q-15 6 -32 16q-11 6 -22.5 11t-22.5 5q-30 0 -60 -29q-3 -3 -7 -3q-6 0 -22 16l-4 4q-13 14 -13 21q0 5 5 10q51 61 113 61
q19 0 32.5 -5.5t32.5 -15.5q16 -9 25.5 -13t20.5 -4q33 0 62 29q3 3 6 3q7 0 22 -15l5 -5q13 -14 13 -21q0 -4 -5 -11q-24 -27 -53.5 -43.5t-61.5 -16.5q-19 0 -34 6z" />
    <glyph glyph-name="j" unicode="j" horiz-adv-x="262" 
d="M143 641q-19 19 -19 48q0 31 22.5 56t56.5 25q30 0 49 -19t19 -47q0 -31 -22 -56.5t-57 -25.5q-30 0 -49 19zM-143 -221q-4 2 -5.5 4t-1.5 7q0 10 7 31l4 14q6 22 10.5 27.5t14.5 3.5q30 -7 50 -7q48 0 73 30.5t35 103.5l73 522q1 8 11 10.5t43 2.5h6q36 0 45 -2.5
t8 -10.5l-73 -517q-10 -67 -26.5 -110.5t-43.5 -71.5q-53 -53 -144 -53q-47 0 -86 16z" />
    <glyph glyph-name="uni0237" unicode="&#x237;" horiz-adv-x="262" 
d="M-143 -221q-4 2 -5.5 4t-1.5 7q0 10 7 31l4 14q6 22 10.5 27.5t14.5 3.5q30 -7 50 -7q48 0 73 30.5t35 103.5l73 522q1 8 11 10.5t43 2.5h6q36 0 45 -2.5t8 -10.5l-73 -517q-10 -67 -26.5 -110.5t-43.5 -71.5q-53 -53 -144 -53q-47 0 -86 16z" />
    <glyph glyph-name="jcircumflex" unicode="&#x135;" horiz-adv-x="262" 
d="M-143 -221q-4 2 -5.5 4t-1.5 7q0 10 7 31l4 14q6 22 10.5 27.5t14.5 3.5q30 -7 50 -7q48 0 73 30.5t35 103.5l73 522q1 8 11 10.5t43 2.5h6q36 0 45 -2.5t8 -10.5l-73 -517q-10 -67 -26.5 -110.5t-43.5 -71.5q-53 -53 -144 -53q-47 0 -86 16zM81 595q-3 0 -8 4t-12 11
l-9 11q-11 13 -11 18q0 6 6 10l104 98q9 8 20 11t34 3h18q23 0 33 -3t17 -11l76 -98q2 -2 2 -6q0 -7 -16 -22l-8 -8q-17 -16 -24 -16q-3 0 -7 4l-89 89l-118 -92q-5 -3 -8 -3z" />
    <glyph glyph-name="k" unicode="k" horiz-adv-x="504" 
d="M303 298l153 -279q5 -10 -5 -14.5t-45 -4.5h-11q-38 0 -48 2.5t-15 11.5l-116 218q-12 -9 -22.5 -16t-18.5 -13l-26 -190q-1 -8 -11 -10.5t-44 -2.5h-6q-36 0 -44.5 2.5t-7.5 10.5l103 734q1 8 11 10.5t43 2.5h6q36 0 45 -3t8 -10l-60 -427l49 42q83 74 150 154
q6 8 15.5 10t39.5 2h22q28 0 36 -3.5t2 -11.5q-81 -116 -203 -215z" />
    <glyph glyph-name="kcommaaccent" unicode="&#x137;" horiz-adv-x="504" 
d="M303 298l153 -279q5 -10 -5 -14.5t-45 -4.5h-11q-38 0 -48 2.5t-15 11.5l-116 218q-12 -9 -22.5 -16t-18.5 -13l-26 -190q-1 -8 -11 -10.5t-44 -2.5h-6q-36 0 -44.5 2.5t-7.5 10.5l103 734q1 8 11 10.5t43 2.5h6q36 0 45 -3t8 -10l-60 -427l49 42q83 74 150 154
q6 8 15.5 10t39.5 2h22q28 0 36 -3.5t2 -11.5q-81 -116 -203 -215zM167 -305q-5 0 -11 7l-8 10q-5 7 -6 9.5t3 6.5q59 57 59 96q0 9 -3 15t-9 16q-12 18 -12 34q0 23 17 38.5t42 15.5t38.5 -16.5t13.5 -43.5q0 -47 -35 -98t-83 -88q-4 -2 -6 -2z" />
    <glyph glyph-name="kgreenlandic" unicode="&#x138;" horiz-adv-x="504" 
d="M303 298l153 -279q5 -10 -5 -14.5t-45 -4.5h-11q-38 0 -48 2.5t-15 11.5l-116 218q-12 -9 -22.5 -16t-18.5 -13l-26 -190q-1 -8 -11 -10.5t-44 -2.5h-6q-36 0 -44.5 2.5t-7.5 10.5l70 502q1 8 11 10.5t43 2.5h6q36 0 45 -3t8 -10l-27 -195l49 42q83 74 150 154
q6 8 15.5 10t39.5 2h22q28 0 36 -3.5t2 -11.5q-81 -116 -203 -215z" />
    <glyph glyph-name="l" unicode="l" horiz-adv-x="272" 
d="M44 85q0 25 7 72l46 322q23 173 31 269q1 8 10 10t43 2h7q34 0 43 -3t9 -13q-2 -54 -34 -287l-46 -332l-2 -16q0 -12 5.5 -16.5t20.5 -4.5h17q5 0 7 -2t2 -9q0 -11 -2 -21l-2 -12q-4 -21 -6.5 -27.5t-7.5 -8.5q-25 -11 -59 -11q-89 0 -89 88z" />
    <glyph glyph-name="lacute" unicode="&#x13a;" horiz-adv-x="272" 
d="M44 85q0 25 7 72l46 322q23 173 31 269q1 8 10 10t43 2h7q34 0 43 -3t9 -13q-2 -54 -34 -287l-46 -332l-2 -16q0 -12 5.5 -16.5t20.5 -4.5h17q5 0 7 -2t2 -9q0 -11 -2 -21l-2 -12q-4 -21 -6.5 -27.5t-7.5 -8.5q-25 -11 -59 -11q-89 0 -89 88zM140 800q-5 3 0 10l110 148
q5 7 13.5 9.5t32.5 2.5h37q21 0 26.5 -3.5t-0.5 -10.5l-136 -150q-6 -5 -13 -7t-24 -2h-25q-16 0 -21 3z" />
    <glyph glyph-name="lcaron" unicode="&#x13e;" horiz-adv-x="349" 
d="M44 85q0 25 7 72l46 322q23 173 31 269q1 8 10 10t43 2h7q34 0 43 -3t9 -13q-2 -54 -34 -287l-46 -332l-2 -16q0 -12 5.5 -16.5t20.5 -4.5h17q5 0 7 -2t2 -9q0 -11 -2 -21l-2 -12q-4 -21 -6.5 -27.5t-7.5 -8.5q-25 -11 -59 -11q-89 0 -89 88zM286 482q-5 0 -11 7l-8 10
q-5 7 -6 9.5t3 6.5q59 57 59 96q0 9 -3 15t-9 16q-12 18 -12 34q0 23 17 38.5t42 15.5t38.5 -16.5t13.5 -43.5q0 -47 -35 -98t-83 -88q-4 -2 -6 -2z" />
    <glyph glyph-name="lcommaaccent" unicode="&#x13c;" horiz-adv-x="272" 
d="M44 85q0 25 7 72l46 322q23 173 31 269q1 8 10 10t43 2h7q34 0 43 -3t9 -13q-2 -54 -34 -287l-46 -332l-2 -16q0 -12 5.5 -16.5t20.5 -4.5h17q5 0 7 -2t2 -9q0 -11 -2 -21l-2 -12q-4 -21 -6.5 -27.5t-7.5 -8.5q-25 -11 -59 -11q-89 0 -89 88zM30 -305q-5 0 -11 7l-8 10
q-5 7 -6 9.5t3 6.5q59 57 59 96q0 9 -3 15t-9 16q-12 18 -12 34q0 23 17 38.5t42 15.5t38.5 -16.5t13.5 -43.5q0 -47 -35 -98t-83 -88q-4 -2 -6 -2z" />
    <glyph glyph-name="ldot" unicode="&#x140;" horiz-adv-x="382" 
d="M44 85q0 25 7 72l46 322q23 173 31 269q1 8 10 10t43 2h7q34 0 43 -3t9 -13q-2 -54 -34 -287l-46 -332l-2 -16q0 -12 5.5 -16.5t20.5 -4.5h17q5 0 7 -2t2 -9q0 -11 -2 -21l-2 -12q-4 -21 -6.5 -27.5t-7.5 -8.5q-25 -11 -59 -11q-89 0 -89 88zM274 319q-17 17 -17 41
q0 28 20 49.5t50 21.5q27 0 43.5 -16.5t16.5 -42.5t-19.5 -48t-49.5 -22q-27 0 -44 17z" />
    <glyph glyph-name="lslash" unicode="&#x142;" horiz-adv-x="336" 
d="M80 85q0 25 7 72l19 134l-78 -44q-7 -4 -10 -0.5t-3 15.5t1 20l3 21q2 21 6 29.5t12 12.5l84 47l12 87q23 173 31 269q1 8 10 10t43 2h7q34 0 43 -3t9 -13q-2 -44 -33 -283l87 49q13 7 13 -11q0 -5 -2 -23l-3 -21q-3 -22 -7 -31t-11 -14l-92 -51l-32 -234l-2 -16
q0 -12 5.5 -16.5t20.5 -4.5h17q5 1 7 -1.5t2 -9.5l-2 -21l-2 -12q-2 -21 -4.5 -27t-9.5 -9q-25 -11 -59 -11q-89 0 -89 88z" />
    <glyph glyph-name="m" unicode="m" horiz-adv-x="879" 
d="M44.5 3q-9.5 3 -8.5 10l43 308q18 133 22 192q1 9 9.5 12t40.5 3h6q23 0 33 -2t13 -9q4 -9 2 -48q31 33 70.5 51t83.5 18q53 0 89.5 -22.5t52.5 -62.5q35 42 79.5 63.5t93.5 21.5q40 0 71.5 -13t51.5 -36q33 -39 33 -103q0 -36 -8 -87l-39 -286q-2 -8 -12 -10.5t-42 -2.5
h-7q-34 0 -43.5 3t-8.5 10l38 271q2 14 2 20q5 33 5 54q0 40 -20 58t-64 18q-32 0 -56.5 -13t-37.5 -38q-13 -13 -21 -37.5t-15 -81.5l-35 -251q-2 -8 -11.5 -10.5t-42.5 -2.5h-6q-35 0 -44.5 3t-8.5 10l38 271q7 47 7 74q0 76 -84 76q-31 0 -56 -13t-38 -38
q-13 -16 -22.5 -47t-17.5 -95l-31 -228q-1 -8 -11.5 -10.5t-43.5 -2.5h-5q-35 0 -44.5 3z" />
    <glyph glyph-name="n" unicode="n" horiz-adv-x="573" 
d="M52 1.5q-11 1.5 -14 4t-2 8.5l43 307q18 128 22 192q1 9 9.5 12t40.5 3h9q22 0 30.5 -1.5t11.5 -8.5q2 -6 2.5 -18t0.5 -32q31 32 73 51t87 19q79 0 122 -46q37 -42 37 -107q0 -35 -8 -91l-39 -280q-2 -8 -12 -11t-43 -3h-6q-25 0 -36 1.5t-14 4t-2 8.5l38 270q7 49 7 75
q0 34 -16 51q-22 24 -73 24q-26 0 -48.5 -7.5t-37.5 -19.5q-21 -18 -31 -49t-22 -117l-32 -227q-2 -8 -12 -11t-43 -3h-6q-25 0 -36 1.5z" />
    <glyph glyph-name="nacute" unicode="&#x144;" horiz-adv-x="573" 
d="M52 1.5q-11 1.5 -14 4t-2 8.5l43 307q18 128 22 192q1 9 9.5 12t40.5 3h9q22 0 30.5 -1.5t11.5 -8.5q2 -6 2.5 -18t0.5 -32q31 32 73 51t87 19q79 0 122 -46q37 -42 37 -107q0 -35 -8 -91l-39 -280q-2 -8 -12 -11t-43 -3h-6q-25 0 -36 1.5t-14 4t-2 8.5l38 270q7 49 7 75
q0 34 -16 51q-22 24 -73 24q-26 0 -48.5 -7.5t-37.5 -19.5q-21 -18 -31 -49t-22 -117l-32 -227q-2 -8 -12 -11t-43 -3h-6q-25 0 -36 1.5zM277 596q-5 3 0 10l111 148q5 7 13.5 9.5t31.5 2.5h38q21 0 26.5 -3.5t-0.5 -10.5l-137 -150q-5 -5 -12 -7t-24 -2h-26q-16 0 -21 3z
" />
    <glyph glyph-name="nacute.loclPLK" horiz-adv-x="573" 
d="M52 1.5q-11 1.5 -14 4t-2 8.5l43 307q18 128 22 192q1 9 9.5 12t40.5 3h9q22 0 30.5 -1.5t11.5 -8.5q2 -6 2.5 -18t0.5 -32q31 32 73 51t87 19q79 0 122 -46q37 -42 37 -107q0 -35 -8 -91l-39 -280q-2 -8 -12 -11t-43 -3h-6q-25 0 -36 1.5t-14 4t-2 8.5l38 270q7 49 7 75
q0 34 -16 51q-22 24 -73 24q-26 0 -48.5 -7.5t-37.5 -19.5q-21 -18 -31 -49t-22 -117l-32 -227q-2 -8 -12 -11t-43 -3h-6q-25 0 -36 1.5zM314.5 596q-5.5 3 -2.5 10l62 148q3 8 10.5 10t31.5 2h34q23 0 29.5 -3t1.5 -11l-85 -149q-4 -6 -10.5 -8t-24.5 -2h-24q-17 0 -22.5 3
z" />
    <glyph glyph-name="napostrophe" unicode="&#x149;" horiz-adv-x="670" 
d="M151 1.5q-11 1.5 -14 4t-2 8.5l43 307q18 128 22 192q1 9 9.5 12t40.5 3h9q22 0 30.5 -1.5t11.5 -8.5q2 -6 2.5 -18t0.5 -32q31 32 73 51t87 19q79 0 122 -46q37 -42 37 -107q0 -35 -8 -91l-39 -280q-2 -8 -12 -11t-43 -3h-6q-25 0 -36 1.5t-14 4t-2 8.5l38 270
q7 49 7 75q0 34 -16 51q-22 24 -73 24q-26 0 -48.5 -7.5t-37.5 -19.5q-21 -18 -31 -49t-22 -117l-32 -227q-2 -8 -12 -11t-43 -3h-6q-25 0 -36 1.5zM37 405q-5 0 -14 9l-10 12q-6 8 -7 12t3 8q34 34 55.5 64.5t21.5 62.5q0 20 -17 41q-9 13 -13 22t-4 22q0 32 21 52t54 20
q35 0 53 -21t18 -58q0 -62 -45.5 -128t-108.5 -115q-3 -3 -7 -3z" />
    <glyph glyph-name="ncaron" unicode="&#x148;" horiz-adv-x="573" 
d="M52 1.5q-11 1.5 -14 4t-2 8.5l43 307q18 128 22 192q1 9 9.5 12t40.5 3h9q22 0 30.5 -1.5t11.5 -8.5q2 -6 2.5 -18t0.5 -32q31 32 73 51t87 19q79 0 122 -46q37 -42 37 -107q0 -35 -8 -91l-39 -280q-2 -8 -12 -11t-43 -3h-6q-25 0 -36 1.5t-14 4t-2 8.5l38 270q7 49 7 75
q0 34 -16 51q-22 24 -73 24q-26 0 -48.5 -7.5t-37.5 -19.5q-21 -18 -31 -49t-22 -117l-32 -227q-2 -8 -12 -11t-43 -3h-6q-25 0 -36 1.5zM314.5 594q-10.5 3 -17.5 11l-76 98q-3 3 -3 7q0 8 17 22l8 9q17 16 25 16q3 0 7 -4l89 -90l117 92q5 3 8 3q4 0 9 -4t11 -11l9 -11
q11 -13 11 -19q0 -4 -6 -10l-104 -98q-9 -8 -20 -11t-34 -3h-17q-23 0 -33.5 3z" />
    <glyph glyph-name="ncommaaccent" unicode="&#x146;" horiz-adv-x="573" 
d="M52 1.5q-11 1.5 -14 4t-2 8.5l43 307q18 128 22 192q1 9 9.5 12t40.5 3h9q22 0 30.5 -1.5t11.5 -8.5q2 -6 2.5 -18t0.5 -32q31 32 73 51t87 19q79 0 122 -46q37 -42 37 -107q0 -35 -8 -91l-39 -280q-2 -8 -12 -11t-43 -3h-6q-25 0 -36 1.5t-14 4t-2 8.5l38 270q7 49 7 75
q0 34 -16 51q-22 24 -73 24q-26 0 -48.5 -7.5t-37.5 -19.5q-21 -18 -31 -49t-22 -117l-32 -227q-2 -8 -12 -11t-43 -3h-6q-25 0 -36 1.5zM175 -305q-5 0 -11 7l-8 10q-5 7 -6 9.5t3 6.5q59 57 59 96q0 9 -3 15t-9 16q-12 18 -12 34q0 23 17 38.5t42 15.5t38.5 -16.5
t13.5 -43.5q0 -47 -35 -98t-83 -88q-4 -2 -6 -2z" />
    <glyph glyph-name="eng" unicode="&#x14b;" horiz-adv-x="572" 
d="M221.5 -182.5q-23.5 4.5 -40.5 11.5q-7 3 -7 12t7 30l4 14q6 22 10.5 27.5t14.5 3.5q32 -7 50 -7q48 0 73 30.5t35 103.5l33 241q8 56 8 75q0 35 -18 53q-22 22 -71 22q-52 0 -88 -29q-18 -16 -29 -48t-22 -116l-32 -227q-2 -8 -12 -11t-43 -3h-6q-25 0 -36 1.5t-14 4
t-2 8.5l43 307q18 128 22 192q1 9 9.5 12t40.5 3h6q36 0 44 -7q3 -6 3.5 -19t0.5 -34q31 32 73 51t87 19q79 0 122 -46q37 -42 37 -107q0 -35 -8 -86l-35 -251q-17 -121 -66.5 -178t-147.5 -57q-22 0 -45.5 4.5z" />
    <glyph glyph-name="ntilde" unicode="&#xf1;" horiz-adv-x="573" 
d="M52 1.5q-11 1.5 -14 4t-2 8.5l43 307q18 128 22 192q1 9 9.5 12t40.5 3h9q22 0 30.5 -1.5t11.5 -8.5q2 -6 2.5 -18t0.5 -32q31 32 73 51t87 19q79 0 122 -46q37 -42 37 -107q0 -35 -8 -91l-39 -280q-2 -8 -12 -11t-43 -3h-6q-25 0 -36 1.5t-14 4t-2 8.5l38 270q7 49 7 75
q0 34 -16 51q-22 24 -73 24q-26 0 -48.5 -7.5t-37.5 -19.5q-21 -18 -31 -49t-22 -117l-32 -227q-2 -8 -12 -11t-43 -3h-6q-25 0 -36 1.5zM379 626q-15 6 -32 16q-11 6 -22.5 11t-22.5 5q-30 0 -60 -29q-3 -3 -7 -3q-6 0 -22 16l-4 4q-13 14 -13 21q0 5 5 10q51 61 113 61
q19 0 32.5 -5.5t32.5 -15.5q16 -9 25.5 -13t20.5 -4q33 0 62 29q3 3 6 3q7 0 22 -15l5 -5q13 -14 13 -21q0 -4 -5 -11q-24 -27 -53.5 -43.5t-61.5 -16.5q-19 0 -34 6z" />
    <glyph glyph-name="o" unicode="o" horiz-adv-x="560" 
d="M88.5 44q-53.5 54 -53.5 156q0 96 33.5 173t97 121t152.5 44q102 0 155.5 -54.5t53.5 -156.5q0 -96 -32.5 -172.5t-96.5 -120.5t-154 -44q-102 0 -155.5 54zM341.5 121.5q33.5 31.5 50.5 82.5t17 110t-25 91.5t-79 32.5q-49 0 -83 -32t-51.5 -83t-17.5 -109
q0 -59 26 -91.5t80 -32.5q49 0 82.5 31.5z" />
    <glyph glyph-name="oacute" unicode="&#xf3;" horiz-adv-x="560" 
d="M88.5 44q-53.5 54 -53.5 156q0 96 33.5 173t97 121t152.5 44q102 0 155.5 -54.5t53.5 -156.5q0 -96 -32.5 -172.5t-96.5 -120.5t-154 -44q-102 0 -155.5 54zM341.5 121.5q33.5 31.5 50.5 82.5t17 110t-25 91.5t-79 32.5q-49 0 -83 -32t-51.5 -83t-17.5 -109
q0 -59 26 -91.5t80 -32.5q49 0 82.5 31.5zM254 596q-5 3 0 10l111 148q5 7 13.5 9.5t31.5 2.5h38q21 0 26.5 -3.5t-0.5 -10.5l-137 -150q-5 -5 -12 -7t-24 -2h-26q-16 0 -21 3z" />
    <glyph glyph-name="oacute.loclPLK" horiz-adv-x="560" 
d="M88.5 44q-53.5 54 -53.5 156q0 96 33.5 173t97 121t152.5 44q102 0 155.5 -54.5t53.5 -156.5q0 -96 -32.5 -172.5t-96.5 -120.5t-154 -44q-102 0 -155.5 54zM341.5 121.5q33.5 31.5 50.5 82.5t17 110t-25 91.5t-79 32.5q-49 0 -83 -32t-51.5 -83t-17.5 -109
q0 -59 26 -91.5t80 -32.5q49 0 82.5 31.5zM291.5 596q-5.5 3 -2.5 10l62 148q3 8 10.5 10t31.5 2h34q23 0 29.5 -3t1.5 -11l-85 -149q-4 -6 -10.5 -8t-24.5 -2h-24q-17 0 -22.5 3z" />
    <glyph glyph-name="obreve" unicode="&#x14f;" horiz-adv-x="560" 
d="M88.5 44q-53.5 54 -53.5 156q0 96 33.5 173t97 121t152.5 44q102 0 155.5 -54.5t53.5 -156.5q0 -96 -32.5 -172.5t-96.5 -120.5t-154 -44q-102 0 -155.5 54zM341.5 121.5q33.5 31.5 50.5 82.5t17 110t-25 91.5t-79 32.5q-49 0 -83 -32t-51.5 -83t-17.5 -109
q0 -59 26 -91.5t80 -32.5q49 0 82.5 31.5zM242 630q-35 27 -40 74l-1 25q1 12 7 15t23 3h22q18 0 23 -2.5t5 -8.5q0 -28 15.5 -44.5t43.5 -16.5q29 0 47.5 15t27.5 46q2 7 7 9t23 2h15q21 0 28 -2.5t6 -10.5q-12 -62 -55 -96.5t-107 -34.5q-55 0 -90 27z" />
    <glyph glyph-name="ocircumflex" unicode="&#xf4;" horiz-adv-x="560" 
d="M88.5 44q-53.5 54 -53.5 156q0 96 33.5 173t97 121t152.5 44q102 0 155.5 -54.5t53.5 -156.5q0 -96 -32.5 -172.5t-96.5 -120.5t-154 -44q-102 0 -155.5 54zM341.5 121.5q33.5 31.5 50.5 82.5t17 110t-25 91.5t-79 32.5q-49 0 -83 -32t-51.5 -83t-17.5 -109
q0 -59 26 -91.5t80 -32.5q49 0 82.5 31.5zM226 595q-3 0 -8 4t-12 11l-9 11q-11 13 -11 18q0 6 6 10l104 98q9 8 20 11t34 3h18q23 0 33 -3t17 -11l76 -98q2 -2 2 -6q0 -7 -16 -22l-8 -8q-17 -16 -24 -16q-3 0 -7 4l-89 89l-118 -92q-5 -3 -8 -3z" />
    <glyph glyph-name="odieresis" unicode="&#xf6;" horiz-adv-x="560" 
d="M88.5 44q-53.5 54 -53.5 156q0 96 33.5 173t97 121t152.5 44q102 0 155.5 -54.5t53.5 -156.5q0 -96 -32.5 -172.5t-96.5 -120.5t-154 -44q-102 0 -155.5 54zM341.5 121.5q33.5 31.5 50.5 82.5t17 110t-25 91.5t-79 32.5q-49 0 -83 -32t-51.5 -83t-17.5 -109
q0 -59 26 -91.5t80 -32.5q49 0 82.5 31.5zM188.5 625.5q-16.5 16.5 -16.5 40.5q0 27 19 48t49 21q27 0 43.5 -16.5t16.5 -40.5q0 -27 -19 -48t-50 -21q-26 0 -42.5 16.5zM397.5 625.5q-16.5 16.5 -16.5 40.5q0 27 19 48t49 21q27 0 43.5 -16.5t16.5 -40.5q0 -27 -19 -48
t-50 -21q-26 0 -42.5 16.5z" />
    <glyph glyph-name="ograve" unicode="&#xf2;" horiz-adv-x="560" 
d="M88.5 44q-53.5 54 -53.5 156q0 96 33.5 173t97 121t152.5 44q102 0 155.5 -54.5t53.5 -156.5q0 -96 -32.5 -172.5t-96.5 -120.5t-154 -44q-102 0 -155.5 54zM341.5 121.5q33.5 31.5 50.5 82.5t17 110t-25 91.5t-79 32.5q-49 0 -83 -32t-51.5 -83t-17.5 -109
q0 -59 26 -91.5t80 -32.5q49 0 82.5 31.5zM315 595q-7 2 -10 7l-95 150q-4 7 2 10.5t27 3.5h32q24 0 32.5 -2.5t11.5 -9.5l71 -149q1 -1 1 -4q0 -8 -26 -8h-22q-17 0 -24 2z" />
    <glyph glyph-name="ohungarumlaut" unicode="&#x151;" horiz-adv-x="560" 
d="M88.5 44q-53.5 54 -53.5 156q0 96 33.5 173t97 121t152.5 44q102 0 155.5 -54.5t53.5 -156.5q0 -96 -32.5 -172.5t-96.5 -120.5t-154 -44q-102 0 -155.5 54zM341.5 121.5q33.5 31.5 50.5 82.5t17 110t-25 91.5t-79 32.5q-49 0 -83 -32t-51.5 -83t-17.5 -109
q0 -59 26 -91.5t80 -32.5q49 0 82.5 31.5zM172.5 600.5q-4.5 2.5 -0.5 9.5l104 144q5 7 13 9.5t30 2.5h35q21 0 26 -3.5t-1 -10.5l-126 -145q-5 -6 -12 -7.5t-24 -1.5h-25q-15 0 -19.5 2.5zM356 600.5q-5 2.5 0 9.5l103 144q5 7 13.5 9.5t30.5 2.5h35q20 0 25.5 -3.5
t-0.5 -10.5l-126 -145q-5 -6 -12 -7.5t-24 -1.5h-25q-15 0 -20 2.5z" />
    <glyph glyph-name="omacron" unicode="&#x14d;" horiz-adv-x="560" 
d="M88.5 44q-53.5 54 -53.5 156q0 96 33.5 173t97 121t152.5 44q102 0 155.5 -54.5t53.5 -156.5q0 -96 -32.5 -172.5t-96.5 -120.5t-154 -44q-102 0 -155.5 54zM341.5 121.5q33.5 31.5 50.5 82.5t17 110t-25 91.5t-79 32.5q-49 0 -83 -32t-51.5 -83t-17.5 -109
q0 -59 26 -91.5t80 -32.5q49 0 82.5 31.5zM197.5 639.5q-1.5 2.5 -1.5 9.5q0 14 2 24l2 11q3 21 6.5 28t10.5 7h260q5 0 6.5 -2.5t1.5 -9.5q0 -13 -2 -24l-1 -11q-3 -20 -6.5 -27.5t-10.5 -7.5h-261q-5 0 -6.5 2.5z" />
    <glyph glyph-name="oslash" unicode="&#xf8;" horiz-adv-x="560" 
d="M530 552.5q5 -5.5 5 -10.5q0 -3 -3 -8l-47 -64q42 -52 42 -143q0 -96 -32.5 -172.5t-96.5 -120.5t-154 -44q-59 0 -101 18l-44 -59q-6 -9 -13 -9q-9 0 -28 13l-9 6q-13 9 -18 14.5t-5 9.5q0 3 3 8l48 65q-42 53 -42 144q0 96 33.5 173t97 121t152.5 44q58 0 102 -18
l42 57q6 9 13 9q9 0 28 -13l9 -6q13 -9 18 -14.5zM158 166l195 263q-21 9 -48 9q-49 0 -83 -32t-51.5 -83t-17.5 -109q0 -25 5 -48zM404 361l-194 -262q21 -9 49 -9q49 0 82.5 31.5t50.5 82.5t17 110q0 24 -5 47z" />
    <glyph glyph-name="oslashacute" unicode="&#x1ff;" horiz-adv-x="560" 
d="M530 552.5q5 -5.5 5 -10.5q0 -3 -3 -8l-47 -64q42 -52 42 -143q0 -96 -32.5 -172.5t-96.5 -120.5t-154 -44q-59 0 -101 18l-44 -59q-6 -9 -13 -9q-9 0 -28 13l-9 6q-13 9 -18 14.5t-5 9.5q0 3 3 8l48 65q-42 53 -42 144q0 96 33.5 173t97 121t152.5 44q58 0 102 -18
l42 57q6 9 13 9q9 0 28 -13l9 -6q13 -9 18 -14.5zM158 166l195 263q-21 9 -48 9q-49 0 -83 -32t-51.5 -83t-17.5 -109q0 -25 5 -48zM404 361l-194 -262q21 -9 49 -9q49 0 82.5 31.5t50.5 82.5t17 110q0 24 -5 47zM258 596q-5 3 0 10l111 148q5 7 13.5 9.5t31.5 2.5h38
q21 0 26.5 -3.5t-0.5 -10.5l-137 -150q-5 -5 -12 -7t-24 -2h-26q-16 0 -21 3z" />
    <glyph glyph-name="otilde" unicode="&#xf5;" horiz-adv-x="560" 
d="M88.5 44q-53.5 54 -53.5 156q0 96 33.5 173t97 121t152.5 44q102 0 155.5 -54.5t53.5 -156.5q0 -96 -32.5 -172.5t-96.5 -120.5t-154 -44q-102 0 -155.5 54zM341.5 121.5q33.5 31.5 50.5 82.5t17 110t-25 91.5t-79 32.5q-49 0 -83 -32t-51.5 -83t-17.5 -109
q0 -59 26 -91.5t80 -32.5q49 0 82.5 31.5zM356 626q-15 6 -32 16q-11 6 -22.5 11t-22.5 5q-30 0 -60 -29q-3 -3 -7 -3q-6 0 -22 16l-4 4q-13 14 -13 21q0 5 5 10q51 61 113 61q19 0 32.5 -5.5t32.5 -15.5q16 -9 25.5 -13t20.5 -4q33 0 62 29q3 3 6 3q7 0 22 -15l5 -5
q13 -14 13 -21q0 -4 -5 -11q-24 -27 -53.5 -43.5t-61.5 -16.5q-19 0 -34 6z" />
    <glyph glyph-name="oe" unicode="&#x153;" horiz-adv-x="899" 
d="M88.5 44.5q-53.5 54.5 -53.5 155.5q0 95 32.5 172t95.5 121.5t151 44.5q58 0 102 -21t70 -62q35 40 82 61.5t101 21.5q91 0 140.5 -58t49.5 -152q0 -56 -13 -87q-4 -10 -8.5 -13t-13.5 -3h-311q0 -19 3 -36q12 -99 120 -99q67 0 137 31q9 3 14 -1.5t10 -22.5l6 -23
q6 -18 6 -26t-9 -13q-40 -22 -89 -33.5t-101 -11.5q-61 0 -106.5 23t-69.5 63q-73 -86 -192 -86q-100 0 -153.5 54.5zM747 308q0 21 -1 31q-3 46 -25 73.5t-63 27.5q-46 0 -81.5 -34.5t-51.5 -97.5h222zM365 156q38 66 38 159q0 58 -24.5 90.5t-77.5 32.5q-48 0 -81.5 -32
t-50 -84t-16.5 -110q0 -122 103 -122q71 0 109 66z" />
    <glyph glyph-name="p" unicode="p" horiz-adv-x="563" 
d="M18.5 -223.5q-8.5 2.5 -7.5 10.5l71 511q18 116 26 215q1 9 9.5 12t40.5 3h10q25 0 32.5 -2t9.5 -9q3 -13 3 -42q28 30 66 46.5t79 16.5q84 0 132 -54.5t48 -151.5q0 -93 -32 -171.5t-90 -124.5t-133 -46q-37 0 -70 11.5t-55 31.5l-34 -246q-2 -8 -12 -10.5t-43 -2.5h-6
q-36 0 -44.5 2.5zM355 125.5q34 35.5 49.5 88.5t15.5 108q0 59 -26 88.5t-73 29.5q-57 0 -88 -33q-15 -16 -24 -42t-16 -79l-21 -158q17 -17 42.5 -27.5t54.5 -10.5q52 0 86 35.5z" />
    <glyph glyph-name="thorn" unicode="&#xfe;" horiz-adv-x="558" 
d="M13.5 -223.5q-8.5 2.5 -7.5 10.5l135 963q1 6 4.5 8.5t16 3.5t34.5 1h6q34 0 43.5 -3t7.5 -11l-38 -267q28 27 63.5 41.5t73.5 14.5q85 0 133 -54.5t48 -151.5q0 -93 -32 -171.5t-90 -124.5t-133 -46q-37 0 -70 11.5t-55 31.5l-34 -246q-2 -8 -12 -10.5t-43 -2.5h-6
q-36 0 -44.5 2.5zM350 125.5q34 35.5 49.5 88.5t15.5 108q0 59 -26 88.5t-73 29.5q-56 0 -88 -33q-15 -16 -24 -42t-16 -79l-21 -158q17 -17 42.5 -27.5t54.5 -10.5q52 0 86 35.5z" />
    <glyph glyph-name="q" unicode="q" horiz-adv-x="557" 
d="M332 -223q-9 3 -9 12q2 47 9 121t17 137q-27 -28 -62.5 -42.5t-75.5 -14.5q-84 0 -130.5 56.5t-46.5 149.5q1 96 37.5 174t105.5 123t162 45q49 0 93 -10t77 -28q9 -5 11.5 -10t1.5 -18l-58 -414q-25 -182 -28 -273q0 -7 -10 -9t-45 -2h-6q-34 0 -43 3zM295.5 96.5
q22.5 8.5 38.5 24.5q17 17 26.5 45t17.5 88l25 174q-31 13 -71 13q-57 0 -98 -33.5t-61.5 -87.5t-20.5 -115q0 -58 25 -87.5t72 -29.5q24 0 46.5 8.5z" />
    <glyph glyph-name="r" unicode="r" horiz-adv-x="370" 
d="M44 2.5q-9 2.5 -8 10.5l41 298q19 127 24 202q1 9 9.5 12t41.5 3h5q25 0 34.5 -2t12.5 -7t3 -18q0 -59 -7 -91q32 62 71.5 94.5t82.5 32.5q20 0 26.5 -5t6.5 -21l-2 -23l-1 -7q-4 -29 -8.5 -38t-12.5 -10q-73 -4 -124 -65q-29 -34 -45 -85t-27 -135l-18 -135
q-1 -8 -11 -10.5t-44 -2.5h-5q-36 0 -45 2.5z" />
    <glyph glyph-name="racute" unicode="&#x155;" horiz-adv-x="370" 
d="M44 2.5q-9 2.5 -8 10.5l41 298q19 127 24 202q1 9 9.5 12t41.5 3h5q25 0 34.5 -2t12.5 -7t3 -18q0 -59 -7 -91q32 62 71.5 94.5t82.5 32.5q20 0 26.5 -5t6.5 -21l-2 -23l-1 -7q-4 -29 -8.5 -38t-12.5 -10q-73 -4 -124 -65q-29 -34 -45 -85t-27 -135l-18 -135
q-1 -8 -11 -10.5t-44 -2.5h-5q-36 0 -45 2.5zM190 596q-5 3 0 10l111 148q5 7 13.5 9.5t31.5 2.5h38q21 0 26.5 -3.5t-0.5 -10.5l-137 -150q-5 -5 -12 -7t-24 -2h-26q-16 0 -21 3z" />
    <glyph glyph-name="rcaron" unicode="&#x159;" horiz-adv-x="370" 
d="M44 2.5q-9 2.5 -8 10.5l41 298q19 127 24 202q1 9 9.5 12t41.5 3h5q25 0 34.5 -2t12.5 -7t3 -18q0 -59 -7 -91q32 62 71.5 94.5t82.5 32.5q20 0 26.5 -5t6.5 -21l-2 -23l-1 -7q-4 -29 -8.5 -38t-12.5 -10q-73 -4 -124 -65q-29 -34 -45 -85t-27 -135l-18 -135
q-1 -8 -11 -10.5t-44 -2.5h-5q-36 0 -45 2.5zM227.5 594q-10.5 3 -17.5 11l-76 98q-3 3 -3 7q0 8 17 22l8 9q17 16 25 16q3 0 7 -4l89 -90l117 92q5 3 8 3q4 0 9 -4t11 -11l9 -11q11 -13 11 -19q0 -4 -6 -10l-104 -98q-9 -8 -20 -11t-34 -3h-17q-23 0 -33.5 3z" />
    <glyph glyph-name="rcommaaccent" unicode="&#x157;" horiz-adv-x="370" 
d="M44 2.5q-9 2.5 -8 10.5l41 298q19 127 24 202q1 9 9.5 12t41.5 3h5q25 0 34.5 -2t12.5 -7t3 -18q0 -59 -7 -91q32 62 71.5 94.5t82.5 32.5q20 0 26.5 -5t6.5 -21l-2 -23l-1 -7q-4 -29 -8.5 -38t-12.5 -10q-73 -4 -124 -65q-29 -34 -45 -85t-27 -135l-18 -135
q-1 -8 -11 -10.5t-44 -2.5h-5q-36 0 -45 2.5zM3 -305q-5 0 -11 7l-8 10q-5 7 -6 9.5t3 6.5q59 57 59 96q0 9 -3 15t-9 16q-12 18 -12 34q0 23 17 38.5t42 15.5t38.5 -16.5t13.5 -43.5q0 -47 -35 -98t-83 -88q-4 -2 -6 -2z" />
    <glyph glyph-name="s" unicode="s" horiz-adv-x="459" 
d="M90.5 6q-49.5 16 -78.5 39q-4 4 -4 7q0 5 5 13.5t12 19.5l9 14q10 15 16 21.5t11 6.5q4 0 8 -3q28 -18 61.5 -29.5t65.5 -11.5q46 0 74.5 18.5t28.5 52.5q0 24 -20.5 36t-67.5 26q-44 13 -74 28.5t-50 44t-20 73.5q0 50 27 90.5t75.5 63t110.5 22.5q46 0 88.5 -14
t68.5 -37q4 -3 4 -9q0 -10 -18 -34l-7 -11q-19 -26 -29 -26q-4 0 -8 3q-27 18 -52 26.5t-58 8.5q-38 0 -63.5 -17.5t-25.5 -49.5q0 -26 20.5 -38t66.5 -25q45 -13 74.5 -27.5t49 -42.5t19.5 -73q0 -55 -28.5 -96t-78.5 -63.5t-112 -22.5q-51 0 -100.5 16z" />
    <glyph glyph-name="sacute" unicode="&#x15b;" horiz-adv-x="459" 
d="M90.5 6q-49.5 16 -78.5 39q-4 4 -4 7q0 5 5 13.5t12 19.5l9 14q10 15 16 21.5t11 6.5q4 0 8 -3q28 -18 61.5 -29.5t65.5 -11.5q46 0 74.5 18.5t28.5 52.5q0 24 -20.5 36t-67.5 26q-44 13 -74 28.5t-50 44t-20 73.5q0 50 27 90.5t75.5 63t110.5 22.5q46 0 88.5 -14
t68.5 -37q4 -3 4 -9q0 -10 -18 -34l-7 -11q-19 -26 -29 -26q-4 0 -8 3q-27 18 -52 26.5t-58 8.5q-38 0 -63.5 -17.5t-25.5 -49.5q0 -26 20.5 -38t66.5 -25q45 -13 74.5 -27.5t49 -42.5t19.5 -73q0 -55 -28.5 -96t-78.5 -63.5t-112 -22.5q-51 0 -100.5 16zM208 596q-5 3 0 10
l111 148q5 7 13.5 9.5t31.5 2.5h38q21 0 26.5 -3.5t-0.5 -10.5l-137 -150q-5 -5 -12 -7t-24 -2h-26q-16 0 -21 3z" />
    <glyph glyph-name="sacute.loclPLK" horiz-adv-x="459" 
d="M90.5 6q-49.5 16 -78.5 39q-4 4 -4 7q0 5 5 13.5t12 19.5l9 14q10 15 16 21.5t11 6.5q4 0 8 -3q28 -18 61.5 -29.5t65.5 -11.5q46 0 74.5 18.5t28.5 52.5q0 24 -20.5 36t-67.5 26q-44 13 -74 28.5t-50 44t-20 73.5q0 50 27 90.5t75.5 63t110.5 22.5q46 0 88.5 -14
t68.5 -37q4 -3 4 -9q0 -10 -18 -34l-7 -11q-19 -26 -29 -26q-4 0 -8 3q-27 18 -52 26.5t-58 8.5q-38 0 -63.5 -17.5t-25.5 -49.5q0 -26 20.5 -38t66.5 -25q45 -13 74.5 -27.5t49 -42.5t19.5 -73q0 -55 -28.5 -96t-78.5 -63.5t-112 -22.5q-51 0 -100.5 16zM245.5 596
q-5.5 3 -2.5 10l62 148q3 8 10.5 10t31.5 2h34q23 0 29.5 -3t1.5 -11l-85 -149q-4 -6 -10.5 -8t-24.5 -2h-24q-17 0 -22.5 3z" />
    <glyph glyph-name="scaron" unicode="&#x161;" horiz-adv-x="459" 
d="M90.5 6q-49.5 16 -78.5 39q-4 4 -4 7q0 5 5 13.5t12 19.5l9 14q10 15 16 21.5t11 6.5q4 0 8 -3q28 -18 61.5 -29.5t65.5 -11.5q46 0 74.5 18.5t28.5 52.5q0 24 -20.5 36t-67.5 26q-44 13 -74 28.5t-50 44t-20 73.5q0 50 27 90.5t75.5 63t110.5 22.5q46 0 88.5 -14
t68.5 -37q4 -3 4 -9q0 -10 -18 -34l-7 -11q-19 -26 -29 -26q-4 0 -8 3q-27 18 -52 26.5t-58 8.5q-38 0 -63.5 -17.5t-25.5 -49.5q0 -26 20.5 -38t66.5 -25q45 -13 74.5 -27.5t49 -42.5t19.5 -73q0 -55 -28.5 -96t-78.5 -63.5t-112 -22.5q-51 0 -100.5 16zM245.5 594
q-10.5 3 -17.5 11l-76 98q-3 3 -3 7q0 8 17 22l8 9q17 16 25 16q3 0 7 -4l89 -90l117 92q5 3 8 3q4 0 9 -4t11 -11l9 -11q11 -13 11 -19q0 -4 -6 -10l-104 -98q-9 -8 -20 -11t-34 -3h-17q-23 0 -33.5 3z" />
    <glyph glyph-name="scedilla" unicode="&#x15f;" horiz-adv-x="459" 
d="M441 478q0 -10 -18 -34l-7 -11q-19 -26 -29 -26q-4 0 -8 3q-27 18 -52 26.5t-58 8.5q-38 0 -63.5 -17.5t-25.5 -49.5q0 -26 20.5 -38t66.5 -25q45 -13 74.5 -27.5t49 -42.5t19.5 -73q0 -76 -52.5 -124.5t-136.5 -56.5l-10 -37l28 -2q32 -5 50 -25.5t19 -53.5
q0 -49 -38.5 -79.5t-96.5 -30.5q-43 0 -72 13q-6 1 -6 7q0 5 6 23l4 10q5 16 8.5 19.5t11.5 1.5q26 -7 48 -7t36 9t14 28q2 31 -46 31q-29 0 -56 -4l28 99q-40 5 -76.5 19.5t-60.5 32.5q-4 4 -4 7q0 5 5 13.5t12 19.5l9 14q10 15 16 21.5t11 6.5q4 0 8 -3q28 -18 61.5 -29.5
t65.5 -11.5q46 0 74.5 18.5t28.5 52.5q0 24 -20.5 36t-67.5 26q-44 13 -74 28.5t-50 44t-20 73.5q0 50 27 90.5t75.5 63t110.5 22.5q46 0 88.5 -14t68.5 -37q4 -3 4 -9z" />
    <glyph glyph-name="scircumflex" unicode="&#x15d;" horiz-adv-x="459" 
d="M90.5 6q-49.5 16 -78.5 39q-4 4 -4 7q0 5 5 13.5t12 19.5l9 14q10 15 16 21.5t11 6.5q4 0 8 -3q28 -18 61.5 -29.5t65.5 -11.5q46 0 74.5 18.5t28.5 52.5q0 24 -20.5 36t-67.5 26q-44 13 -74 28.5t-50 44t-20 73.5q0 50 27 90.5t75.5 63t110.5 22.5q46 0 88.5 -14
t68.5 -37q4 -3 4 -9q0 -10 -18 -34l-7 -11q-19 -26 -29 -26q-4 0 -8 3q-27 18 -52 26.5t-58 8.5q-38 0 -63.5 -17.5t-25.5 -49.5q0 -26 20.5 -38t66.5 -25q45 -13 74.5 -27.5t49 -42.5t19.5 -73q0 -55 -28.5 -96t-78.5 -63.5t-112 -22.5q-51 0 -100.5 16zM180 595q-3 0 -8 4
t-12 11l-9 11q-11 13 -11 18q0 6 6 10l104 98q9 8 20 11t34 3h18q23 0 33 -3t17 -11l76 -98q2 -2 2 -6q0 -7 -16 -22l-8 -8q-17 -16 -24 -16q-3 0 -7 4l-89 89l-118 -92q-5 -3 -8 -3z" />
    <glyph glyph-name="scommaaccent" unicode="&#x219;" horiz-adv-x="459" 
d="M90.5 6q-49.5 16 -78.5 39q-4 4 -4 7q0 5 5 13.5t12 19.5l9 14q10 15 16 21.5t11 6.5q4 0 8 -3q28 -18 61.5 -29.5t65.5 -11.5q46 0 74.5 18.5t28.5 52.5q0 24 -20.5 36t-67.5 26q-44 13 -74 28.5t-50 44t-20 73.5q0 50 27 90.5t75.5 63t110.5 22.5q46 0 88.5 -14
t68.5 -37q4 -3 4 -9q0 -10 -18 -34l-7 -11q-19 -26 -29 -26q-4 0 -8 3q-27 18 -52 26.5t-58 8.5q-38 0 -63.5 -17.5t-25.5 -49.5q0 -26 20.5 -38t66.5 -25q45 -13 74.5 -27.5t49 -42.5t19.5 -73q0 -55 -28.5 -96t-78.5 -63.5t-112 -22.5q-51 0 -100.5 16zM115 -305
q-5 0 -11 7l-8 10q-5 7 -6 9.5t3 6.5q59 57 59 96q0 9 -3 15t-9 16q-12 18 -12 34q0 23 17 38.5t42 15.5t38.5 -16.5t13.5 -43.5q0 -47 -35 -98t-83 -88q-4 -2 -6 -2z" />
    <glyph glyph-name="germandbls" unicode="&#xdf;" horiz-adv-x="658" 
d="M304.5 4.5q-44.5 14.5 -73.5 38.5q-4 3 -4 8q0 11 14 33l9 14q12 20 19.5 25t14.5 0q58 -39 117 -39q44 0 71.5 20t27.5 54q0 24 -18 37.5t-58 30.5q-57 23 -89 51t-32 79q0 46 24 78t69 68q36 28 54.5 51.5t18.5 55.5q0 31 -24 49.5t-68 18.5q-69 0 -105.5 -46
t-49.5 -135l-67 -483q-2 -7 -12 -10t-42 -3h-6q-36 0 -45 3t-7 10l68 488q19 134 86 201.5t186 67.5q56 0 102 -18.5t72.5 -51.5t26.5 -77q0 -46 -23.5 -81.5t-64.5 -68.5q-6 -5 -29.5 -23t-35.5 -35.5t-12 -34.5q0 -19 17 -31.5t56 -28.5q58 -24 89 -53t31 -84t-28 -99
t-76.5 -69t-108.5 -25q-50 0 -94.5 14.5z" />
    <glyph glyph-name="longs" unicode="&#x17f;" horiz-adv-x="359" 
d="M41.5 -223.5q-8.5 2.5 -7.5 10.5l90 650h-71q-5 0 -7 2.5t-2 9.5q0 10 3 31l1 7q4 26 7.5 33.5t10.5 7.5h71l4 29q14 105 69.5 161t147.5 56q50 0 102 -19q8 -3 8 -11q0 -5 -8 -29l-5 -16q-7 -23 -12 -29t-13 -4q-36 12 -66 12q-51 0 -76 -31t-34 -92l-107 -768
q-2 -7 -12 -10t-43 -3h-6q-36 0 -44.5 2.5z" />
    <glyph glyph-name="t" unicode="t" horiz-adv-x="388" 
d="M117.5 18.5q-36.5 28.5 -36.5 81.5q0 23 12 113l31 224h-84q-9 0 -9 14q0 3 2 19l1 7q2 17 5.5 24t10.5 9q45 12 70 29.5t39.5 45.5t26.5 77q2 7 9 8.5t30 1.5h8q23 0 29.5 -2.5t5.5 -9.5l-18 -132h117q5 0 7 -2.5t2 -9.5q0 -9 -3 -30l-1 -7q-4 -26 -7.5 -34t-9.5 -8
h-118l-33 -236q-8 -56 -8 -72q0 -22 12.5 -32.5t41.5 -10.5q34 0 65 11q8 3 11.5 -3.5t6.5 -28.5l1 -7q2 -12 2 -26q0 -12 -8 -17q-22 -12 -53 -18.5t-59 -6.5q-62 0 -98.5 28.5z" />
    <glyph glyph-name="tbar" unicode="&#x167;" horiz-adv-x="388" 
d="M374 525.5q2 -2.5 2 -9.5q0 -9 -3 -30l-1 -7q-4 -26 -7.5 -34t-9.5 -8h-118l-17 -123h93q11 0 11 -14q0 -8 -3 -25l-1 -6q-4 -25 -8 -31.5t-12 -6.5h-92l-4 -30q-8 -56 -8 -72q0 -22 12.5 -32.5t41.5 -10.5q34 0 65 11q8 3 11.5 -3.5t6.5 -28.5l1 -7q2 -12 2 -26
q0 -12 -8 -17q-22 -12 -53 -18.5t-59 -6.5q-62 0 -98.5 28.5t-36.5 81.5q0 23 12 113l2 18h-51q-6 0 -8.5 2.5t-2.5 9.5q0 9 3 27l1 6q4 25 8 31.5t12 6.5h50l17 123h-84q-9 0 -9 14q0 3 2 19l1 7q2 17 5.5 24t10.5 9q45 12 70 29.5t39.5 45.5t26.5 77q2 7 9 8.5t30 1.5h8
q23 0 29.5 -2.5t5.5 -9.5l-18 -132h117q5 0 7 -2.5z" />
    <glyph glyph-name="tcaron" unicode="&#x165;" horiz-adv-x="388" 
d="M117.5 18.5q-36.5 28.5 -36.5 81.5q0 23 12 113l31 224h-84q-9 0 -9 14q0 3 2 19l1 7q2 17 5.5 24t10.5 9q45 12 70 29.5t39.5 45.5t26.5 77q2 7 9 8.5t30 1.5h8q23 0 29.5 -2.5t5.5 -9.5l-18 -132h117q5 0 7 -2.5t2 -9.5q0 -9 -3 -30l-1 -7q-4 -26 -7.5 -34t-9.5 -8
h-118l-33 -236q-8 -56 -8 -72q0 -22 12.5 -32.5t41.5 -10.5q34 0 65 11q8 3 11.5 -3.5t6.5 -28.5l1 -7q2 -12 2 -26q0 -12 -8 -17q-22 -12 -53 -18.5t-59 -6.5q-62 0 -98.5 28.5zM329 583q-5 0 -11 7l-8 10q-5 7 -6 9.5t3 6.5q59 57 59 96q0 9 -3 15t-9 16q-12 18 -12 34
q0 23 17 38.5t42 15.5t38.5 -16.5t13.5 -43.5q0 -47 -35 -98t-83 -88q-4 -2 -6 -2z" />
    <glyph glyph-name="uni0163" unicode="&#x163;" horiz-adv-x="388" 
d="M117.5 18.5q-36.5 28.5 -36.5 81.5q0 23 12 113l31 224h-84q-9 0 -9 14q0 3 2 19l1 7q2 17 5.5 24t10.5 9q45 12 70 29.5t39.5 45.5t26.5 77q2 7 9 8.5t30 1.5h8q23 0 29.5 -2.5t5.5 -9.5l-18 -132h117q5 0 7 -2.5t2 -9.5q0 -9 -3 -30l-1 -7q-4 -26 -7.5 -34t-9.5 -8
h-118l-33 -236q-8 -56 -8 -72q0 -22 12.5 -32.5t41.5 -10.5q34 0 65 11q8 3 11.5 -3.5t6.5 -28.5l1 -7q2 -12 2 -26q0 -12 -8 -17q-22 -12 -53 -18.5t-59 -6.5q-62 0 -98.5 28.5zM118 -305q-5 0 -11 7l-8 10q-5 7 -6 9.5t3 6.5q59 57 59 96q0 9 -3 15t-9 16q-12 18 -12 34
q0 23 17 38.5t42 15.5t38.5 -16.5t13.5 -43.5q0 -47 -35 -98t-83 -88q-4 -2 -6 -2z" />
    <glyph glyph-name="uni021B" unicode="&#x21b;" horiz-adv-x="388" 
d="M117.5 18.5q-36.5 28.5 -36.5 81.5q0 23 12 113l31 224h-84q-9 0 -9 14q0 3 2 19l1 7q2 17 5.5 24t10.5 9q45 12 70 29.5t39.5 45.5t26.5 77q2 7 9 8.5t30 1.5h8q23 0 29.5 -2.5t5.5 -9.5l-18 -132h117q5 0 7 -2.5t2 -9.5q0 -9 -3 -30l-1 -7q-4 -26 -7.5 -34t-9.5 -8
h-118l-33 -236q-8 -56 -8 -72q0 -22 12.5 -32.5t41.5 -10.5q34 0 65 11q8 3 11.5 -3.5t6.5 -28.5l1 -7q2 -12 2 -26q0 -12 -8 -17q-22 -12 -53 -18.5t-59 -6.5q-62 0 -98.5 28.5zM118 -305q-5 0 -11 7l-8 10q-5 7 -6 9.5t3 6.5q59 57 59 96q0 9 -3 15t-9 16q-12 18 -12 34
q0 23 17 38.5t42 15.5t38.5 -16.5t13.5 -43.5q0 -47 -35 -98t-83 -88q-4 -2 -6 -2z" />
    <glyph glyph-name="u" unicode="u" horiz-adv-x="567" 
d="M88.5 30.5q-41.5 40.5 -41.5 111.5q0 34 8 87l39 286q2 7 11.5 10t42.5 3h6q36 0 45 -2.5t8 -10.5l-37 -271q-8 -48 -8 -78q0 -38 21.5 -55.5t65.5 -17.5q51 0 85 27q20 16 31 46t22 105l34 244q1 7 11 10t43 3h6q36 0 45 -3t8 -10l-42 -298q-18 -138 -23 -201
q-1 -10 -9.5 -13t-39.5 -3h-6q-22 0 -30.5 1.5t-12.5 5.5q-6 7 -6 27l1 28q-30 -33 -72 -52.5t-87 -19.5q-77 0 -118.5 40.5z" />
    <glyph glyph-name="uacute" unicode="&#xfa;" horiz-adv-x="567" 
d="M88.5 30.5q-41.5 40.5 -41.5 111.5q0 34 8 87l39 286q2 7 11.5 10t42.5 3h6q36 0 45 -2.5t8 -10.5l-37 -271q-8 -48 -8 -78q0 -38 21.5 -55.5t65.5 -17.5q51 0 85 27q20 16 31 46t22 105l34 244q1 7 11 10t43 3h6q36 0 45 -3t8 -10l-42 -298q-18 -138 -23 -201
q-1 -10 -9.5 -13t-39.5 -3h-6q-22 0 -30.5 1.5t-12.5 5.5q-6 7 -6 27l1 28q-30 -33 -72 -52.5t-87 -19.5q-77 0 -118.5 40.5zM249 596q-5 3 0 10l111 148q5 7 13.5 9.5t31.5 2.5h38q21 0 26.5 -3.5t-0.5 -10.5l-137 -150q-5 -5 -12 -7t-24 -2h-26q-16 0 -21 3z" />
    <glyph glyph-name="ubreve" unicode="&#x16d;" horiz-adv-x="567" 
d="M88.5 30.5q-41.5 40.5 -41.5 111.5q0 34 8 87l39 286q2 7 11.5 10t42.5 3h6q36 0 45 -2.5t8 -10.5l-37 -271q-8 -48 -8 -78q0 -38 21.5 -55.5t65.5 -17.5q51 0 85 27q20 16 31 46t22 105l34 244q1 7 11 10t43 3h6q36 0 45 -3t8 -10l-42 -298q-18 -138 -23 -201
q-1 -10 -9.5 -13t-39.5 -3h-6q-22 0 -30.5 1.5t-12.5 5.5q-6 7 -6 27l1 28q-30 -33 -72 -52.5t-87 -19.5q-77 0 -118.5 40.5zM237 630q-35 27 -40 74l-1 25q1 12 7 15t23 3h22q18 0 23 -2.5t5 -8.5q0 -28 15.5 -44.5t43.5 -16.5q29 0 47.5 15t27.5 46q2 7 7 9t23 2h15
q21 0 28 -2.5t6 -10.5q-12 -62 -55 -96.5t-107 -34.5q-55 0 -90 27z" />
    <glyph glyph-name="ucircumflex" unicode="&#xfb;" horiz-adv-x="567" 
d="M88.5 30.5q-41.5 40.5 -41.5 111.5q0 34 8 87l39 286q2 7 11.5 10t42.5 3h6q36 0 45 -2.5t8 -10.5l-37 -271q-8 -48 -8 -78q0 -38 21.5 -55.5t65.5 -17.5q51 0 85 27q20 16 31 46t22 105l34 244q1 7 11 10t43 3h6q36 0 45 -3t8 -10l-42 -298q-18 -138 -23 -201
q-1 -10 -9.5 -13t-39.5 -3h-6q-22 0 -30.5 1.5t-12.5 5.5q-6 7 -6 27l1 28q-30 -33 -72 -52.5t-87 -19.5q-77 0 -118.5 40.5zM221 595q-3 0 -8 4t-12 11l-9 11q-11 13 -11 18q0 6 6 10l104 98q9 8 20 11t34 3h18q23 0 33 -3t17 -11l76 -98q2 -2 2 -6q0 -7 -16 -22l-8 -8
q-17 -16 -24 -16q-3 0 -7 4l-89 89l-118 -92q-5 -3 -8 -3z" />
    <glyph glyph-name="udieresis" unicode="&#xfc;" horiz-adv-x="567" 
d="M88.5 30.5q-41.5 40.5 -41.5 111.5q0 34 8 87l39 286q2 7 11.5 10t42.5 3h6q36 0 45 -2.5t8 -10.5l-37 -271q-8 -48 -8 -78q0 -38 21.5 -55.5t65.5 -17.5q51 0 85 27q20 16 31 46t22 105l34 244q1 7 11 10t43 3h6q36 0 45 -3t8 -10l-42 -298q-18 -138 -23 -201
q-1 -10 -9.5 -13t-39.5 -3h-6q-22 0 -30.5 1.5t-12.5 5.5q-6 7 -6 27l1 28q-30 -33 -72 -52.5t-87 -19.5q-77 0 -118.5 40.5zM183.5 625.5q-16.5 16.5 -16.5 40.5q0 27 19 48t49 21q27 0 43.5 -16.5t16.5 -40.5q0 -27 -19 -48t-50 -21q-26 0 -42.5 16.5zM392.5 625.5
q-16.5 16.5 -16.5 40.5q0 27 19 48t49 21q27 0 43.5 -16.5t16.5 -40.5q0 -27 -19 -48t-50 -21q-26 0 -42.5 16.5z" />
    <glyph glyph-name="ugrave" unicode="&#xf9;" horiz-adv-x="567" 
d="M88.5 30.5q-41.5 40.5 -41.5 111.5q0 34 8 87l39 286q2 7 11.5 10t42.5 3h6q36 0 45 -2.5t8 -10.5l-37 -271q-8 -48 -8 -78q0 -38 21.5 -55.5t65.5 -17.5q51 0 85 27q20 16 31 46t22 105l34 244q1 7 11 10t43 3h6q36 0 45 -3t8 -10l-42 -298q-18 -138 -23 -201
q-1 -10 -9.5 -13t-39.5 -3h-6q-22 0 -30.5 1.5t-12.5 5.5q-6 7 -6 27l1 28q-30 -33 -72 -52.5t-87 -19.5q-77 0 -118.5 40.5zM310 595q-7 2 -10 7l-95 150q-4 7 2 10.5t27 3.5h32q24 0 32.5 -2.5t11.5 -9.5l71 -149q1 -1 1 -4q0 -8 -26 -8h-22q-17 0 -24 2z" />
    <glyph glyph-name="uhungarumlaut" unicode="&#x171;" horiz-adv-x="567" 
d="M88.5 30.5q-41.5 40.5 -41.5 111.5q0 34 8 87l39 286q2 7 11.5 10t42.5 3h6q36 0 45 -2.5t8 -10.5l-37 -271q-8 -48 -8 -78q0 -38 21.5 -55.5t65.5 -17.5q51 0 85 27q20 16 31 46t22 105l34 244q1 7 11 10t43 3h6q36 0 45 -3t8 -10l-42 -298q-18 -138 -23 -201
q-1 -10 -9.5 -13t-39.5 -3h-6q-22 0 -30.5 1.5t-12.5 5.5q-6 7 -6 27l1 28q-30 -33 -72 -52.5t-87 -19.5q-77 0 -118.5 40.5zM167.5 600.5q-4.5 2.5 -0.5 9.5l104 144q5 7 13 9.5t30 2.5h35q21 0 26 -3.5t-1 -10.5l-126 -145q-5 -6 -12 -7.5t-24 -1.5h-25q-15 0 -19.5 2.5z
M351 600.5q-5 2.5 0 9.5l103 144q5 7 13.5 9.5t30.5 2.5h35q20 0 25.5 -3.5t-0.5 -10.5l-126 -145q-5 -6 -12 -7.5t-24 -1.5h-25q-15 0 -20 2.5z" />
    <glyph glyph-name="umacron" unicode="&#x16b;" horiz-adv-x="567" 
d="M88.5 30.5q-41.5 40.5 -41.5 111.5q0 34 8 87l39 286q2 7 11.5 10t42.5 3h6q36 0 45 -2.5t8 -10.5l-37 -271q-8 -48 -8 -78q0 -38 21.5 -55.5t65.5 -17.5q51 0 85 27q20 16 31 46t22 105l34 244q1 7 11 10t43 3h6q36 0 45 -3t8 -10l-42 -298q-18 -138 -23 -201
q-1 -10 -9.5 -13t-39.5 -3h-6q-22 0 -30.5 1.5t-12.5 5.5q-6 7 -6 27l1 28q-30 -33 -72 -52.5t-87 -19.5q-77 0 -118.5 40.5zM192.5 639.5q-1.5 2.5 -1.5 9.5q0 14 2 24l2 11q3 21 6.5 28t10.5 7h260q5 0 6.5 -2.5t1.5 -9.5q0 -13 -2 -24l-1 -11q-3 -20 -6.5 -27.5
t-10.5 -7.5h-261q-5 0 -6.5 2.5z" />
    <glyph glyph-name="uogonek" unicode="&#x173;" horiz-adv-x="567" 
d="M290 -212q-28 25 -28 67q0 43 30.5 82.5t77.5 65.5q-5 40 -4 59q-30 -33 -72 -52.5t-87 -19.5q-77 0 -118.5 40.5t-41.5 111.5q0 34 8 87l39 286q2 7 11.5 10t42.5 3h6q36 0 45 -2.5t8 -10.5l-37 -271q-8 -48 -8 -78q0 -38 21.5 -55.5t65.5 -17.5q51 0 85 27q19 16 30 46
t22 105l35 244q1 7 11 10t43 3h6q36 0 45 -3t8 -10l-42 -298q-12 -91 -22 -194q-1 -8 -5.5 -12.5t-15.5 -11.5q-26 -18 -40 -33q-59 -49 -59 -91q0 -18 10.5 -27.5t29.5 -9.5q21 0 44 9l4 1q4 0 7 -5t5 -17l2 -14q2 -16 2 -18q0 -10 -9 -14q-15 -8 -38 -12.5t-43 -4.5
q-46 0 -74 25z" />
    <glyph glyph-name="uring" unicode="&#x16f;" horiz-adv-x="567" 
d="M88.5 30.5q-41.5 40.5 -41.5 111.5q0 34 8 87l39 286q2 7 11.5 10t42.5 3h6q36 0 45 -2.5t8 -10.5l-37 -271q-8 -48 -8 -78q0 -38 21.5 -55.5t65.5 -17.5q51 0 85 27q20 16 31 46t22 105l34 244q1 7 11 10t43 3h6q36 0 45 -3t8 -10l-42 -298q-18 -138 -23 -201
q-1 -10 -9.5 -13t-39.5 -3h-6q-22 0 -30.5 1.5t-12.5 5.5q-6 7 -6 27l1 28q-30 -33 -72 -52.5t-87 -19.5q-77 0 -118.5 40.5zM259.5 613q-27.5 26 -27.5 65q0 30 15.5 57t42.5 43t58 16q42 0 69.5 -26t27.5 -65q0 -30 -16 -56.5t-43 -43t-58 -16.5q-41 0 -68.5 26zM366 661
q14 14 14 35q0 17 -10.5 27t-29.5 10q-18 0 -31 -13.5t-13 -34.5q0 -17 11 -27.5t28 -10.5t31 14z" />
    <glyph glyph-name="utilde" unicode="&#x169;" horiz-adv-x="567" 
d="M88.5 30.5q-41.5 40.5 -41.5 111.5q0 34 8 87l39 286q2 7 11.5 10t42.5 3h6q36 0 45 -2.5t8 -10.5l-37 -271q-8 -48 -8 -78q0 -38 21.5 -55.5t65.5 -17.5q51 0 85 27q20 16 31 46t22 105l34 244q1 7 11 10t43 3h6q36 0 45 -3t8 -10l-42 -298q-18 -138 -23 -201
q-1 -10 -9.5 -13t-39.5 -3h-6q-22 0 -30.5 1.5t-12.5 5.5q-6 7 -6 27l1 28q-30 -33 -72 -52.5t-87 -19.5q-77 0 -118.5 40.5zM351 626q-15 6 -32 16q-11 6 -22.5 11t-22.5 5q-30 0 -60 -29q-3 -3 -7 -3q-6 0 -22 16l-4 4q-13 14 -13 21q0 5 5 10q51 61 113 61
q19 0 32.5 -5.5t32.5 -15.5q16 -9 25.5 -13t20.5 -4q33 0 62 29q3 3 6 3q7 0 22 -15l5 -5q13 -14 13 -21q0 -4 -5 -11q-24 -27 -53.5 -43.5t-61.5 -16.5q-19 0 -34 6z" />
    <glyph glyph-name="v" unicode="v" horiz-adv-x="504" 
d="M165.5 3q-10.5 3 -12.5 11l-106 498q-1 7 2 10t14 4.5t37 1.5h9q32 0 42.5 -3t12.5 -11l41 -229q17 -97 27 -174q45 84 95 198.5t83 204.5q3 9 11.5 11.5t42.5 2.5h11q33 0 42.5 -3t6.5 -11q-42 -118 -112.5 -258t-135.5 -243q-4 -7 -15 -10t-44 -3h-8q-33 0 -43.5 3z
" />
    <glyph glyph-name="w" unicode="w" horiz-adv-x="774" 
d="M139.5 2.5q-11.5 2.5 -12.5 11.5l-74 497q-1 8 1.5 11t13.5 4.5t36 1.5h6q34 0 43.5 -3t10.5 -12l25 -203q16 -131 17 -206q27 79 77 204l83 206q4 9 14 11.5t43 2.5h9q31 0 41 -2.5t11 -10.5l25 -211q15 -127 19 -198q92 211 153 407q3 10 12 12.5t45 2.5h7q31 0 39 -3
t5 -11q-84 -262 -207 -498q-5 -10 -17.5 -13t-48.5 -3h-8q-39 0 -50 3t-12 11l-22 186q-9 79 -17 200q-34 -112 -72 -201l-77 -184q-4 -9 -16.5 -12t-48.5 -3h-7q-35 0 -46.5 2.5z" />
    <glyph glyph-name="wacute" unicode="&#x1e83;" horiz-adv-x="774" 
d="M139.5 2.5q-11.5 2.5 -12.5 11.5l-74 497q-1 8 1.5 11t13.5 4.5t36 1.5h6q34 0 43.5 -3t10.5 -12l25 -203q16 -131 17 -206q27 79 77 204l83 206q4 9 14 11.5t43 2.5h9q31 0 41 -2.5t11 -10.5l25 -211q15 -127 19 -198q92 211 153 407q3 10 12 12.5t45 2.5h7q31 0 39 -3
t5 -11q-84 -262 -207 -498q-5 -10 -17.5 -13t-48.5 -3h-8q-39 0 -50 3t-12 11l-22 186q-9 79 -17 200q-34 -112 -72 -201l-77 -184q-4 -9 -16.5 -12t-48.5 -3h-7q-35 0 -46.5 2.5zM359 596q-5 3 0 10l111 148q5 7 13.5 9.5t31.5 2.5h38q21 0 26.5 -3.5t-0.5 -10.5l-137 -150
q-5 -5 -12 -7t-24 -2h-26q-16 0 -21 3z" />
    <glyph glyph-name="wcircumflex" unicode="&#x175;" horiz-adv-x="774" 
d="M139.5 2.5q-11.5 2.5 -12.5 11.5l-74 497q-1 8 1.5 11t13.5 4.5t36 1.5h6q34 0 43.5 -3t10.5 -12l25 -203q16 -131 17 -206q27 79 77 204l83 206q4 9 14 11.5t43 2.5h9q31 0 41 -2.5t11 -10.5l25 -211q15 -127 19 -198q92 211 153 407q3 10 12 12.5t45 2.5h7q31 0 39 -3
t5 -11q-84 -262 -207 -498q-5 -10 -17.5 -13t-48.5 -3h-8q-39 0 -50 3t-12 11l-22 186q-9 79 -17 200q-34 -112 -72 -201l-77 -184q-4 -9 -16.5 -12t-48.5 -3h-7q-35 0 -46.5 2.5zM331 595q-3 0 -8 4t-12 11l-9 11q-11 13 -11 18q0 6 6 10l104 98q9 8 20 11t34 3h18
q23 0 33 -3t17 -11l76 -98q2 -2 2 -6q0 -7 -16 -22l-8 -8q-17 -16 -24 -16q-3 0 -7 4l-89 89l-118 -92q-5 -3 -8 -3z" />
    <glyph glyph-name="wdieresis" unicode="&#x1e85;" horiz-adv-x="774" 
d="M139.5 2.5q-11.5 2.5 -12.5 11.5l-74 497q-1 8 1.5 11t13.5 4.5t36 1.5h6q34 0 43.5 -3t10.5 -12l25 -203q16 -131 17 -206q27 79 77 204l83 206q4 9 14 11.5t43 2.5h9q31 0 41 -2.5t11 -10.5l25 -211q15 -127 19 -198q92 211 153 407q3 10 12 12.5t45 2.5h7q31 0 39 -3
t5 -11q-84 -262 -207 -498q-5 -10 -17.5 -13t-48.5 -3h-8q-39 0 -50 3t-12 11l-22 186q-9 79 -17 200q-34 -112 -72 -201l-77 -184q-4 -9 -16.5 -12t-48.5 -3h-7q-35 0 -46.5 2.5zM293.5 625.5q-16.5 16.5 -16.5 40.5q0 27 19 48t49 21q27 0 43.5 -16.5t16.5 -40.5
q0 -27 -19 -48t-50 -21q-26 0 -42.5 16.5zM502.5 625.5q-16.5 16.5 -16.5 40.5q0 27 19 48t49 21q27 0 43.5 -16.5t16.5 -40.5q0 -27 -19 -48t-50 -21q-26 0 -42.5 16.5z" />
    <glyph glyph-name="wgrave" unicode="&#x1e81;" horiz-adv-x="774" 
d="M139.5 2.5q-11.5 2.5 -12.5 11.5l-74 497q-1 8 1.5 11t13.5 4.5t36 1.5h6q34 0 43.5 -3t10.5 -12l25 -203q16 -131 17 -206q27 79 77 204l83 206q4 9 14 11.5t43 2.5h9q31 0 41 -2.5t11 -10.5l25 -211q15 -127 19 -198q92 211 153 407q3 10 12 12.5t45 2.5h7q31 0 39 -3
t5 -11q-84 -262 -207 -498q-5 -10 -17.5 -13t-48.5 -3h-8q-39 0 -50 3t-12 11l-22 186q-9 79 -17 200q-34 -112 -72 -201l-77 -184q-4 -9 -16.5 -12t-48.5 -3h-7q-35 0 -46.5 2.5zM420 595q-7 2 -10 7l-95 150q-4 7 2 10.5t27 3.5h32q24 0 32.5 -2.5t11.5 -9.5l71 -149
q1 -1 1 -4q0 -8 -26 -8h-22q-17 0 -24 2z" />
    <glyph glyph-name="x" unicode="x" horiz-adv-x="496" 
d="M-11 4q-8 4 -2 13l134 169q44 57 70 88l-45 89l-77 148q-5 9 4 13t45 4h12q36 0 48.5 -3t16.5 -11l33 -71q19 -39 38 -83l59 84l51 70q6 9 16 11.5t42 2.5h21q31 0 39 -4t2 -13l-109 -139q-49 -64 -76 -96q19 -32 47 -88l85 -168q3 -4 3 -8q0 -6 -11.5 -9t-39.5 -3h-13
q-35 0 -46 3t-16 12l-41 87l-21 43q-16 30 -22 44l-64 -90l-64 -85q-6 -9 -17 -11.5t-43 -2.5h-20q-31 0 -39 4z" />
    <glyph glyph-name="y" unicode="y" horiz-adv-x="490" 
d="M-48 -230.5q-26 5.5 -41 13.5q-7 3 -7 11t8 30l6 16q8 19 12.5 24.5t12.5 4.5q30 -9 60 -9q49 0 87.5 30t71.5 103l-114 519q-2 10 7 13t45 3h11q34 0 44 -3t12 -12l37 -212l8 -48q16 -86 20 -141l12 31q59 140 65 154l97 218q4 9 14.5 11t42.5 2h10q30 0 39 -4t5 -12
l-240 -520q-56 -122 -126 -179q-61 -49 -148 -49q-25 0 -51 5.5z" />
    <glyph glyph-name="yacute" unicode="&#xfd;" horiz-adv-x="490" 
d="M-48 -230.5q-26 5.5 -41 13.5q-7 3 -7 11t8 30l6 16q8 19 12.5 24.5t12.5 4.5q30 -9 60 -9q49 0 87.5 30t71.5 103l-114 519q-2 10 7 13t45 3h11q34 0 44 -3t12 -12l37 -212l8 -48q16 -86 20 -141l12 31q59 140 65 154l97 218q4 9 14.5 11t42.5 2h10q30 0 39 -4t5 -12
l-240 -520q-56 -122 -126 -179q-61 -49 -148 -49q-25 0 -51 5.5zM216 596q-5 3 0 10l111 148q5 7 13.5 9.5t31.5 2.5h38q21 0 26.5 -3.5t-0.5 -10.5l-137 -150q-5 -5 -12 -7t-24 -2h-26q-16 0 -21 3z" />
    <glyph glyph-name="ycircumflex" unicode="&#x177;" horiz-adv-x="490" 
d="M-48 -230.5q-26 5.5 -41 13.5q-7 3 -7 11t8 30l6 16q8 19 12.5 24.5t12.5 4.5q30 -9 60 -9q49 0 87.5 30t71.5 103l-114 519q-2 10 7 13t45 3h11q34 0 44 -3t12 -12l37 -212l8 -48q16 -86 20 -141l12 31q59 140 65 154l97 218q4 9 14.5 11t42.5 2h10q30 0 39 -4t5 -12
l-240 -520q-56 -122 -126 -179q-61 -49 -148 -49q-25 0 -51 5.5zM188 595q-3 0 -8 4t-12 11l-9 11q-11 13 -11 18q0 6 6 10l104 98q9 8 20 11t34 3h18q23 0 33 -3t17 -11l76 -98q2 -2 2 -6q0 -7 -16 -22l-8 -8q-17 -16 -24 -16q-3 0 -7 4l-89 89l-118 -92q-5 -3 -8 -3z" />
    <glyph glyph-name="ydieresis" unicode="&#xff;" horiz-adv-x="490" 
d="M-48 -230.5q-26 5.5 -41 13.5q-7 3 -7 11t8 30l6 16q8 19 12.5 24.5t12.5 4.5q30 -9 60 -9q49 0 87.5 30t71.5 103l-114 519q-2 10 7 13t45 3h11q34 0 44 -3t12 -12l37 -212l8 -48q16 -86 20 -141l12 31q59 140 65 154l97 218q4 9 14.5 11t42.5 2h10q30 0 39 -4t5 -12
l-240 -520q-56 -122 -126 -179q-61 -49 -148 -49q-25 0 -51 5.5zM150.5 625.5q-16.5 16.5 -16.5 40.5q0 27 19 48t49 21q27 0 43.5 -16.5t16.5 -40.5q0 -27 -19 -48t-50 -21q-26 0 -42.5 16.5zM359.5 625.5q-16.5 16.5 -16.5 40.5q0 27 19 48t49 21q27 0 43.5 -16.5
t16.5 -40.5q0 -27 -19 -48t-50 -21q-26 0 -42.5 16.5z" />
    <glyph glyph-name="ygrave" unicode="&#x1ef3;" horiz-adv-x="490" 
d="M-48 -230.5q-26 5.5 -41 13.5q-7 3 -7 11t8 30l6 16q8 19 12.5 24.5t12.5 4.5q30 -9 60 -9q49 0 87.5 30t71.5 103l-114 519q-2 10 7 13t45 3h11q34 0 44 -3t12 -12l37 -212l8 -48q16 -86 20 -141l12 31q59 140 65 154l97 218q4 9 14.5 11t42.5 2h10q30 0 39 -4t5 -12
l-240 -520q-56 -122 -126 -179q-61 -49 -148 -49q-25 0 -51 5.5zM277 595q-7 2 -10 7l-95 150q-4 7 2 10.5t27 3.5h32q24 0 32.5 -2.5t11.5 -9.5l71 -149q1 -1 1 -4q0 -8 -26 -8h-22q-17 0 -24 2z" />
    <glyph glyph-name="z" unicode="z" horiz-adv-x="462" 
d="M8 3.5q-5 3.5 -3 12.5l3 27q2 14 6 23t13 20l277 352h-216q-9 0 -9 14q0 10 3 29l1 6q4 27 7.5 34t10.5 7h331q17 0 22 -3t3 -13l-3 -27q-2 -15 -6 -23.5t-13 -20.5l-277 -351h237q5 0 7 -2.5t2 -10.5q0 -9 -3 -30l-1 -6q-4 -27 -7.5 -34t-10.5 -7h-353q-16 0 -21 3.5z
" />
    <glyph glyph-name="zacute" unicode="&#x17a;" horiz-adv-x="462" 
d="M8 3.5q-5 3.5 -3 12.5l3 27q2 14 6 23t13 20l277 352h-216q-9 0 -9 14q0 10 3 29l1 6q4 27 7.5 34t10.5 7h331q17 0 22 -3t3 -13l-3 -27q-2 -15 -6 -23.5t-13 -20.5l-277 -351h237q5 0 7 -2.5t2 -10.5q0 -9 -3 -30l-1 -6q-4 -27 -7.5 -34t-10.5 -7h-353q-16 0 -21 3.5z
M205 596q-5 3 0 10l111 148q5 7 13.5 9.5t31.5 2.5h38q21 0 26.5 -3.5t-0.5 -10.5l-137 -150q-5 -5 -12 -7t-24 -2h-26q-16 0 -21 3z" />
    <glyph glyph-name="zacute.loclPLK" horiz-adv-x="462" 
d="M8 3.5q-5 3.5 -3 12.5l3 27q2 14 6 23t13 20l277 352h-216q-9 0 -9 14q0 10 3 29l1 6q4 27 7.5 34t10.5 7h331q17 0 22 -3t3 -13l-3 -27q-2 -15 -6 -23.5t-13 -20.5l-277 -351h237q5 0 7 -2.5t2 -10.5q0 -9 -3 -30l-1 -6q-4 -27 -7.5 -34t-10.5 -7h-353q-16 0 -21 3.5z
M242.5 596q-5.5 3 -2.5 10l62 148q3 8 10.5 10t31.5 2h34q23 0 29.5 -3t1.5 -11l-85 -149q-4 -6 -10.5 -8t-24.5 -2h-24q-17 0 -22.5 3z" />
    <glyph glyph-name="zcaron" unicode="&#x17e;" horiz-adv-x="462" 
d="M8 3.5q-5 3.5 -3 12.5l3 27q2 14 6 23t13 20l277 352h-216q-9 0 -9 14q0 10 3 29l1 6q4 27 7.5 34t10.5 7h331q17 0 22 -3t3 -13l-3 -27q-2 -15 -6 -23.5t-13 -20.5l-277 -351h237q5 0 7 -2.5t2 -10.5q0 -9 -3 -30l-1 -6q-4 -27 -7.5 -34t-10.5 -7h-353q-16 0 -21 3.5z
M242.5 594q-10.5 3 -17.5 11l-76 98q-3 3 -3 7q0 8 17 22l8 9q17 16 25 16q3 0 7 -4l89 -90l117 92q5 3 8 3q4 0 9 -4t11 -11l9 -11q11 -13 11 -19q0 -4 -6 -10l-104 -98q-9 -8 -20 -11t-34 -3h-17q-23 0 -33.5 3z" />
    <glyph glyph-name="zdotaccent" unicode="&#x17c;" horiz-adv-x="462" 
d="M8 3.5q-5 3.5 -3 12.5l3 27q2 14 6 23t13 20l277 352h-216q-9 0 -9 14q0 10 3 29l1 6q4 27 7.5 34t10.5 7h331q17 0 22 -3t3 -13l-3 -27q-2 -15 -6 -23.5t-13 -20.5l-277 -351h237q5 0 7 -2.5t2 -10.5q0 -9 -3 -30l-1 -6q-4 -27 -7.5 -34t-10.5 -7h-353q-16 0 -21 3.5z
M244 634q-17 17 -17 41q0 28 20 49.5t50 21.5q27 0 43.5 -16.5t16.5 -42.5t-19.5 -48t-49.5 -22q-27 0 -44 17z" />
    <glyph glyph-name="a.sc" horiz-adv-x="611" 
d="M543 3.5q-10 -3.5 -44 -3.5h-8q-36 0 -45.5 2.5t-11.5 12.5l-31 133h-242l-67 -133q-5 -10 -15.5 -12.5t-44.5 -2.5h-8q-26 0 -36.5 2t-10.5 8q0 4 3 8l297 549q4 8 8.5 11t16.5 3.5t32 0.5h9q33 0 41.5 -2.5t11.5 -12.5l152 -548q3 -12 -7 -15.5zM384 233l-56 244
l-124 -244h180z" />
    <glyph glyph-name="a.ss01.sc" horiz-adv-x="611" 
d="M543 3.5q-10 -3.5 -44 -3.5h-8q-36 0 -45.5 2.5t-11.5 12.5l-31 133h-242l-67 -133q-5 -10 -15.5 -12.5t-44.5 -2.5h-8q-26 0 -36.5 2t-10.5 8q0 4 3 8l297 549q4 8 8.5 11t16.5 3.5t32 0.5h9q33 0 41.5 -2.5t11.5 -12.5l152 -548q3 -12 -7 -15.5zM384 233l-56 244
l-124 -244h180z" />
    <glyph glyph-name="aacute.sc" horiz-adv-x="611" 
d="M543 3.5q-10 -3.5 -44 -3.5h-8q-36 0 -45.5 2.5t-11.5 12.5l-31 133h-242l-67 -133q-5 -10 -15.5 -12.5t-44.5 -2.5h-8q-26 0 -36.5 2t-10.5 8q0 4 3 8l297 549q4 8 8.5 11t16.5 3.5t32 0.5h9q33 0 41.5 -2.5t11.5 -12.5l152 -548q3 -12 -7 -15.5zM384 233l-56 244
l-124 -244h180zM295 643q-5 3 0 10l111 148q5 7 13.5 9.5t31.5 2.5h38q21 0 26.5 -3.5t-0.5 -10.5l-137 -150q-5 -5 -12 -7t-24 -2h-26q-16 0 -21 3z" />
    <glyph glyph-name="aacute.ss01.sc" horiz-adv-x="611" 
d="M543 3.5q-10 -3.5 -44 -3.5h-8q-36 0 -45.5 2.5t-11.5 12.5l-31 133h-242l-67 -133q-5 -10 -15.5 -12.5t-44.5 -2.5h-8q-26 0 -36.5 2t-10.5 8q0 4 3 8l297 549q4 8 8.5 11t16.5 3.5t32 0.5h9q33 0 41.5 -2.5t11.5 -12.5l152 -548q3 -12 -7 -15.5zM384 233l-56 244
l-124 -244h180zM297 643q-5 3 0 10l111 148q5 7 13.5 9.5t31.5 2.5h38q21 0 26.5 -3.5t-0.5 -10.5l-137 -150q-5 -5 -12 -7t-24 -2h-26q-16 0 -21 3z" />
    <glyph glyph-name="abreve.sc" horiz-adv-x="611" 
d="M543 3.5q-10 -3.5 -44 -3.5h-8q-36 0 -45.5 2.5t-11.5 12.5l-31 133h-242l-67 -133q-5 -10 -15.5 -12.5t-44.5 -2.5h-8q-26 0 -36.5 2t-10.5 8q0 4 3 8l297 549q4 8 8.5 11t16.5 3.5t32 0.5h9q33 0 41.5 -2.5t11.5 -12.5l152 -548q3 -12 -7 -15.5zM384 233l-56 244
l-124 -244h180zM259 677q-35 27 -40 74l-1 25q1 12 7 15t23 3h22q18 0 23 -2.5t5 -8.5q0 -28 15.5 -44.5t43.5 -16.5q29 0 47.5 15t27.5 46q2 7 7 9t23 2h15q21 0 28 -2.5t6 -10.5q-12 -62 -55 -96.5t-107 -34.5q-55 0 -90 27z" />
    <glyph glyph-name="abreve.ss01.sc" horiz-adv-x="611" 
d="M543 3.5q-10 -3.5 -44 -3.5h-8q-36 0 -45.5 2.5t-11.5 12.5l-31 133h-242l-67 -133q-5 -10 -15.5 -12.5t-44.5 -2.5h-8q-26 0 -36.5 2t-10.5 8q0 4 3 8l297 549q4 8 8.5 11t16.5 3.5t32 0.5h9q33 0 41.5 -2.5t11.5 -12.5l152 -548q3 -12 -7 -15.5zM384 233l-56 244
l-124 -244h180zM261 677q-35 27 -40 74l-1 25q1 12 7 15t23 3h22q18 0 23 -2.5t5 -8.5q0 -28 15.5 -44.5t43.5 -16.5q29 0 47.5 15t27.5 46q2 7 7 9t23 2h15q21 0 28 -2.5t6 -10.5q-12 -62 -55 -96.5t-107 -34.5q-55 0 -90 27z" />
    <glyph glyph-name="uni01CE.sc" horiz-adv-x="611" 
d="M543 3.5q-10 -3.5 -44 -3.5h-8q-36 0 -45.5 2.5t-11.5 12.5l-31 133h-242l-67 -133q-5 -10 -15.5 -12.5t-44.5 -2.5h-8q-26 0 -36.5 2t-10.5 8q0 4 3 8l297 549q4 8 8.5 11t16.5 3.5t32 0.5h9q33 0 41.5 -2.5t11.5 -12.5l152 -548q3 -12 -7 -15.5zM384 233l-56 244
l-124 -244h180zM305.5 641q-10.5 3 -17.5 11l-76 98q-3 3 -3 7q0 8 17 22l8 9q17 16 25 16q3 0 7 -4l89 -90l117 92q4 3 8 3t9 -4t11 -11l9 -11q11 -13 11 -19q0 -4 -6 -10l-104 -98q-9 -8 -20 -11t-34 -3h-17q-23 0 -33.5 3z" />
    <glyph glyph-name="uni01CE.ss01.sc" horiz-adv-x="611" 
d="M543 3.5q-10 -3.5 -44 -3.5h-8q-36 0 -45.5 2.5t-11.5 12.5l-31 133h-242l-67 -133q-5 -10 -15.5 -12.5t-44.5 -2.5h-8q-26 0 -36.5 2t-10.5 8q0 4 3 8l297 549q4 8 8.5 11t16.5 3.5t32 0.5h9q33 0 41.5 -2.5t11.5 -12.5l152 -548q3 -12 -7 -15.5zM384 233l-56 244
l-124 -244h180zM307.5 641q-10.5 3 -17.5 11l-76 98q-3 3 -3 7q0 8 17 22l8 9q17 16 25 16q3 0 7 -4l89 -90l117 92q4 3 8 3t9 -4t11 -11l9 -11q11 -13 11 -19q0 -4 -6 -10l-104 -98q-9 -8 -20 -11t-34 -3h-17q-23 0 -33.5 3z" />
    <glyph glyph-name="acircumflex.sc" horiz-adv-x="611" 
d="M543 3.5q-10 -3.5 -44 -3.5h-8q-36 0 -45.5 2.5t-11.5 12.5l-31 133h-242l-67 -133q-5 -10 -15.5 -12.5t-44.5 -2.5h-8q-26 0 -36.5 2t-10.5 8q0 4 3 8l297 549q4 8 8.5 11t16.5 3.5t32 0.5h9q33 0 41.5 -2.5t11.5 -12.5l152 -548q3 -12 -7 -15.5zM384 233l-56 244
l-124 -244h180zM240 642q-3 0 -8 4t-12 11l-9 11q-11 13 -11 18q0 6 6 10l104 98q9 8 20 11t34 3h18q23 0 33 -3t17 -11l76 -98q2 -2 2 -6q0 -7 -16 -22l-8 -8q-17 -16 -24 -16q-3 0 -7 4l-89 89l-118 -92q-5 -3 -8 -3z" />
    <glyph glyph-name="acircumflex.ss01.sc" horiz-adv-x="611" 
d="M543 3.5q-10 -3.5 -44 -3.5h-8q-36 0 -45.5 2.5t-11.5 12.5l-31 133h-242l-67 -133q-5 -10 -15.5 -12.5t-44.5 -2.5h-8q-26 0 -36.5 2t-10.5 8q0 4 3 8l297 549q4 8 8.5 11t16.5 3.5t32 0.5h9q33 0 41.5 -2.5t11.5 -12.5l152 -548q3 -12 -7 -15.5zM384 233l-56 244
l-124 -244h180zM242 642q-3 0 -8 4t-12 11l-9 11q-11 13 -11 18q0 6 6 10l104 98q9 8 20 11t34 3h18q23 0 33 -3t17 -11l76 -98q2 -2 2 -6q0 -7 -16 -22l-8 -8q-17 -16 -24 -16q-3 0 -7 4l-89 89l-118 -92q-5 -3 -8 -3z" />
    <glyph glyph-name="adieresis.sc" horiz-adv-x="611" 
d="M543 3.5q-10 -3.5 -44 -3.5h-8q-36 0 -45.5 2.5t-11.5 12.5l-31 133h-242l-67 -133q-5 -10 -15.5 -12.5t-44.5 -2.5h-8q-26 0 -36.5 2t-10.5 8q0 4 3 8l297 549q4 8 8.5 11t16.5 3.5t32 0.5h9q33 0 41.5 -2.5t11.5 -12.5l152 -548q3 -12 -7 -15.5zM384 233l-56 244
l-124 -244h180zM204.5 672.5q-16.5 16.5 -16.5 40.5q0 27 19 48t49 21q27 0 43.5 -16.5t16.5 -40.5q0 -27 -19 -48t-50 -21q-26 0 -42.5 16.5zM413.5 672.5q-16.5 16.5 -16.5 40.5q0 27 19 48t49 21q27 0 43.5 -16.5t16.5 -40.5q0 -27 -19 -48t-50 -21q-26 0 -42.5 16.5z
" />
    <glyph glyph-name="adieresis.ss01.sc" horiz-adv-x="611" 
d="M543 3.5q-10 -3.5 -44 -3.5h-8q-36 0 -45.5 2.5t-11.5 12.5l-31 133h-242l-67 -133q-5 -10 -15.5 -12.5t-44.5 -2.5h-8q-26 0 -36.5 2t-10.5 8q0 4 3 8l297 549q4 8 8.5 11t16.5 3.5t32 0.5h9q33 0 41.5 -2.5t11.5 -12.5l152 -548q3 -12 -7 -15.5zM384 233l-56 244
l-124 -244h180zM206.5 672.5q-16.5 16.5 -16.5 40.5q0 27 19 48t49 21q27 0 43.5 -16.5t16.5 -40.5q0 -27 -19 -48t-50 -21q-26 0 -42.5 16.5zM415.5 672.5q-16.5 16.5 -16.5 40.5q0 27 19 48t49 21q27 0 43.5 -16.5t16.5 -40.5q0 -27 -19 -48t-50 -21q-26 0 -42.5 16.5z
" />
    <glyph glyph-name="agrave.sc" horiz-adv-x="611" 
d="M543 3.5q-10 -3.5 -44 -3.5h-8q-36 0 -45.5 2.5t-11.5 12.5l-31 133h-242l-67 -133q-5 -10 -15.5 -12.5t-44.5 -2.5h-8q-26 0 -36.5 2t-10.5 8q0 4 3 8l297 549q4 8 8.5 11t16.5 3.5t32 0.5h9q33 0 41.5 -2.5t11.5 -12.5l152 -548q3 -12 -7 -15.5zM384 233l-56 244
l-124 -244h180zM323 642q-7 2 -10 7l-95 150q-4 7 2 10.5t27 3.5h32q24 0 32.5 -2.5t11.5 -9.5l71 -149q1 -1 1 -4q0 -8 -26 -8h-22q-17 0 -24 2z" />
    <glyph glyph-name="agrave.ss01.sc" horiz-adv-x="611" 
d="M543 3.5q-10 -3.5 -44 -3.5h-8q-36 0 -45.5 2.5t-11.5 12.5l-31 133h-242l-67 -133q-5 -10 -15.5 -12.5t-44.5 -2.5h-8q-26 0 -36.5 2t-10.5 8q0 4 3 8l297 549q4 8 8.5 11t16.5 3.5t32 0.5h9q33 0 41.5 -2.5t11.5 -12.5l152 -548q3 -12 -7 -15.5zM384 233l-56 244
l-124 -244h180zM325 642q-7 2 -10 7l-95 150q-4 7 2 10.5t27 3.5h32q24 0 32.5 -2.5t11.5 -9.5l71 -149q1 -1 1 -4q0 -8 -26 -8h-22q-17 0 -24 2z" />
    <glyph glyph-name="amacron.sc" horiz-adv-x="611" 
d="M543 3.5q-10 -3.5 -44 -3.5h-8q-36 0 -45.5 2.5t-11.5 12.5l-31 133h-242l-67 -133q-5 -10 -15.5 -12.5t-44.5 -2.5h-8q-26 0 -36.5 2t-10.5 8q0 4 3 8l297 549q4 8 8.5 11t16.5 3.5t32 0.5h9q33 0 41.5 -2.5t11.5 -12.5l152 -548q3 -12 -7 -15.5zM384 233l-56 244
l-124 -244h180zM223 686.5q-2 2.5 -2 9.5q0 14 2 24l2 11q3 21 6.5 28t10.5 7h260q5 0 6.5 -2.5t1.5 -9.5q0 -13 -2 -24l-1 -11q-3 -20 -6.5 -27.5t-10.5 -7.5h-261q-4 0 -6 2.5z" />
    <glyph glyph-name="amacron.ss01.sc" horiz-adv-x="611" 
d="M543 3.5q-10 -3.5 -44 -3.5h-8q-36 0 -45.5 2.5t-11.5 12.5l-31 133h-242l-67 -133q-5 -10 -15.5 -12.5t-44.5 -2.5h-8q-26 0 -36.5 2t-10.5 8q0 4 3 8l297 549q4 8 8.5 11t16.5 3.5t32 0.5h9q33 0 41.5 -2.5t11.5 -12.5l152 -548q3 -12 -7 -15.5zM384 233l-56 244
l-124 -244h180zM225 686.5q-2 2.5 -2 9.5q0 14 2 24l2 11q3 21 6.5 28t10.5 7h260q5 0 6.5 -2.5t1.5 -9.5q0 -13 -2 -24l-1 -11q-3 -20 -6.5 -27.5t-10.5 -7.5h-261q-4 0 -6 2.5z" />
    <glyph glyph-name="aogonek.sc" horiz-adv-x="611" 
d="M433 -125q0 -18 10.5 -27.5t28.5 -9.5q22 0 45 9q1 1 4 1t5.5 -6t4.5 -16l4 -16q3 -11 3 -17q0 -9 -10 -13q-16 -8 -38.5 -12.5t-43.5 -4.5q-46 0 -73.5 24t-27.5 68q0 43 26 79.5t68 61.5l-35 152h-243l-67 -133q-5 -10 -15.5 -12.5t-44.5 -2.5h-8q-26 0 -36.5 2
t-10.5 8q0 4 3 8l297 549q4 8 8.5 11t16.5 3.5t32 0.5h9q33 0 41.5 -2.5t11.5 -12.5l152 -548q1 -2 1 -5q0 -4 -3 -6.5t-7 -4.5t-6 -4q-102 -63 -102 -124zM384 233l-56 244l-124 -244h180z" />
    <glyph glyph-name="aogonek.ss01.sc" horiz-adv-x="611" 
d="M433 -125q0 -18 10.5 -27.5t28.5 -9.5q22 0 45 9q1 1 4 1t5.5 -6t4.5 -16l4 -16q3 -11 3 -17q0 -9 -10 -13q-16 -8 -38.5 -12.5t-43.5 -4.5q-46 0 -73.5 24t-27.5 68q0 43 26 79.5t68 61.5l-35 152h-243l-67 -133q-5 -10 -15.5 -12.5t-44.5 -2.5h-8q-26 0 -36.5 2
t-10.5 8q0 4 3 8l297 549q4 8 8.5 11t16.5 3.5t32 0.5h9q33 0 41.5 -2.5t11.5 -12.5l152 -548q1 -2 1 -5q0 -4 -3 -6.5t-7 -4.5t-6 -4q-102 -63 -102 -124zM384 233l-56 244l-124 -244h180z" />
    <glyph glyph-name="aring.sc" horiz-adv-x="611" 
d="M543 3.5q-10 -3.5 -44 -3.5h-8q-36 0 -45.5 2.5t-11.5 12.5l-31 133h-242l-67 -133q-5 -10 -15.5 -12.5t-44.5 -2.5h-8q-26 0 -36.5 2t-10.5 8q0 4 3 8l302 558q-18 12 -28 31t-10 42q0 30 15.5 57t42.5 43t58 16q42 0 69.5 -26t27.5 -65q0 -30 -17.5 -58t-44.5 -43
l153 -554q3 -12 -7 -15.5zM323 690.5q-13 -13.5 -13 -34.5q0 -17 11 -27.5t28 -10.5t31 14t14 35q0 17 -10.5 27t-29.5 10q-18 0 -31 -13.5zM384 233l-56 244l-124 -244h180z" />
    <glyph glyph-name="aring.ss01.sc" horiz-adv-x="611" 
d="M543 3.5q-10 -3.5 -44 -3.5h-8q-36 0 -45.5 2.5t-11.5 12.5l-31 133h-242l-67 -133q-5 -10 -15.5 -12.5t-44.5 -2.5h-8q-26 0 -36.5 2t-10.5 8q0 4 3 8l302 558q-18 12 -28 31t-10 42q0 30 15.5 57t42.5 43t58 16q42 0 69.5 -26t27.5 -65q0 -30 -17.5 -58t-44.5 -43
l153 -554q3 -12 -7 -15.5zM323 690.5q-13 -13.5 -13 -34.5q0 -17 11 -27.5t28 -10.5t31 14t14 35q0 17 -10.5 27t-29.5 10q-18 0 -31 -13.5zM384 233l-56 244l-124 -244h180z" />
    <glyph glyph-name="aringacute.sc" horiz-adv-x="611" 
d="M543 3.5q-10 -3.5 -44 -3.5h-8q-36 0 -45.5 2.5t-11.5 12.5l-31 133h-242l-67 -133q-5 -10 -15.5 -12.5t-44.5 -2.5h-8q-26 0 -36.5 2t-10.5 8q0 4 3 8l302 558q-18 12 -28 31t-10 42q0 30 15.5 57t42.5 43t58 16q42 0 69.5 -26t27.5 -65q0 -30 -17.5 -58t-44.5 -43
l153 -554q3 -12 -7 -15.5zM323 690.5q-13 -13.5 -13 -34.5q0 -17 11 -27.5t28 -10.5t31 14t14 35q0 17 -10.5 27t-29.5 10q-18 0 -31 -13.5zM384 233l-56 244l-124 -244h180zM284 793q-5 3 0 10l110 148q5 7 13.5 9.5t32.5 2.5h37q21 0 26.5 -3.5t-0.5 -10.5l-136 -150
q-6 -5 -13 -7t-24 -2h-25q-16 0 -21 3z" />
    <glyph glyph-name="aringacute.ss01.sc" horiz-adv-x="611" 
d="M543 3.5q-10 -3.5 -44 -3.5h-8q-36 0 -45.5 2.5t-11.5 12.5l-31 133h-242l-67 -133q-5 -10 -15.5 -12.5t-44.5 -2.5h-8q-26 0 -36.5 2t-10.5 8q0 4 3 8l302 558q-18 12 -28 31t-10 42q0 30 15.5 57t42.5 43t58 16q42 0 69.5 -26t27.5 -65q0 -30 -17.5 -58t-44.5 -43
l153 -554q3 -12 -7 -15.5zM323 690.5q-13 -13.5 -13 -34.5q0 -17 11 -27.5t28 -10.5t31 14t14 35q0 17 -10.5 27t-29.5 10q-18 0 -31 -13.5zM384 233l-56 244l-124 -244h180zM284 793q-5 3 0 10l110 148q5 7 13.5 9.5t32.5 2.5h37q21 0 26.5 -3.5t-0.5 -10.5l-136 -150
q-6 -5 -13 -7t-24 -2h-25q-16 0 -21 3z" />
    <glyph glyph-name="atilde.sc" horiz-adv-x="611" 
d="M543 3.5q-10 -3.5 -44 -3.5h-8q-36 0 -45.5 2.5t-11.5 12.5l-31 133h-242l-67 -133q-5 -10 -15.5 -12.5t-44.5 -2.5h-8q-26 0 -36.5 2t-10.5 8q0 4 3 8l297 549q4 8 8.5 11t16.5 3.5t32 0.5h9q33 0 41.5 -2.5t11.5 -12.5l152 -548q3 -12 -7 -15.5zM384 233l-56 244
l-124 -244h180zM380 673q-15 6 -32 16q-11 6 -22.5 11t-22.5 5q-30 0 -60 -29q-3 -3 -7 -3q-6 0 -22 16l-4 4q-13 14 -13 21q0 5 5 10q51 61 113 61q19 0 32.5 -5.5t32.5 -15.5q16 -9 25.5 -13t20.5 -4q33 0 62 29q3 3 6 3q7 0 22 -15l5 -5q13 -14 13 -21q0 -4 -5 -11
q-24 -27 -53.5 -43.5t-61.5 -16.5q-19 0 -34 6z" />
    <glyph glyph-name="atilde.ss01.sc" horiz-adv-x="611" 
d="M543 3.5q-10 -3.5 -44 -3.5h-8q-36 0 -45.5 2.5t-11.5 12.5l-31 133h-242l-67 -133q-5 -10 -15.5 -12.5t-44.5 -2.5h-8q-26 0 -36.5 2t-10.5 8q0 4 3 8l297 549q4 8 8.5 11t16.5 3.5t32 0.5h9q33 0 41.5 -2.5t11.5 -12.5l152 -548q3 -12 -7 -15.5zM384 233l-56 244
l-124 -244h180zM382 673q-15 6 -32 16q-11 6 -22.5 11t-22.5 5q-30 0 -60 -29q-3 -3 -7 -3q-6 0 -22 16l-4 4q-13 14 -13 21q0 5 5 10q51 61 113 61q19 0 32.5 -5.5t32.5 -15.5q16 -9 25.5 -13t20.5 -4q33 0 62 29q3 3 6 3q7 0 22 -15l5 -5q13 -14 13 -21q0 -4 -5 -11
q-24 -27 -53.5 -43.5t-61.5 -16.5q-19 0 -34 6z" />
    <glyph glyph-name="ae.sc" horiz-adv-x="885" 
d="M860 579.5q2 -2.5 2 -10.5t-3 -28l-1 -8q-4 -25 -7.5 -32.5t-9.5 -7.5h-265l-21 -155h225q4 0 6 -2t2 -9q0 -8 -3 -29l-1 -7q-4 -28 -6.5 -35t-9.5 -7h-226l-22 -160h269q4 0 6 -2.5t2 -10.5q0 -15 -2 -27l-1 -7q-4 -27 -7.5 -34.5t-8.5 -7.5h-343h-12q-18 0 -23 2t-4 10
l19 132h-214l-103 -131q-7 -8 -18.5 -10.5t-42.5 -2.5h-26q-30 0 -37.5 3.5t-0.5 11.5l448 555q7 7 15 9.5t31 2.5h386q5 0 7 -2.5zM462 478l-198 -253h162z" />
    <glyph glyph-name="aeacute.sc" horiz-adv-x="885" 
d="M860 579.5q2 -2.5 2 -10.5t-3 -28l-1 -8q-4 -25 -7.5 -32.5t-9.5 -7.5h-265l-21 -155h225q4 0 6 -2t2 -9q0 -8 -3 -29l-1 -7q-4 -28 -6.5 -35t-9.5 -7h-226l-22 -160h269q4 0 6 -2.5t2 -10.5q0 -15 -2 -27l-1 -7q-4 -27 -7.5 -34.5t-8.5 -7.5h-343h-12q-18 0 -23 2t-4 10
l19 132h-214l-103 -131q-7 -8 -18.5 -10.5t-42.5 -2.5h-26q-30 0 -37.5 3.5t-0.5 11.5l448 555q7 7 15 9.5t31 2.5h386q5 0 7 -2.5zM462 478l-198 -253h162zM544 643q-5 3 0 10l111 148q5 7 13.5 9.5t31.5 2.5h38q21 0 26.5 -3.5t-0.5 -10.5l-137 -150q-5 -5 -12 -7t-24 -2
h-26q-16 0 -21 3z" />
    <glyph glyph-name="b.sc" horiz-adv-x="551" 
d="M466.5 262.5q26.5 -32.5 26.5 -83.5q0 -81 -71 -130t-218 -49h-135h-12q-18 0 -23 2t-4 10l78 557q1 9 7.5 11t32.5 2h118q118 0 174 -31.5t56 -102.5q0 -47 -27.5 -83.5t-80.5 -56.5q52 -13 78.5 -45.5zM343 363.5q36 22.5 36 66.5q0 35 -26.5 49t-89.5 14h-53l-21 -152
h54q64 0 100 22.5zM376 181q0 76 -133 76h-66l-24 -169h69q154 0 154 93z" />
    <glyph glyph-name="c.sc" horiz-adv-x="545" 
d="M151.5 22q-56.5 32 -86 89t-29.5 130q0 85 36.5 165.5t112 133t186.5 52.5q91 0 164 -48q6 -4 6 -10t-14 -29l-12 -19q-14 -22 -24 -22q-4 0 -12 4q-60 31 -116 31q-71 0 -118 -38t-68.5 -95.5t-21.5 -116.5q0 -80 41.5 -122.5t119.5 -42.5q60 0 120 28l8 2q5 0 9 -5.5
t9 -20.5l6 -16q7 -17 7 -25q0 -5 -2 -8t-8 -6q-40 -21 -86.5 -32t-91.5 -11q-79 0 -135.5 32z" />
    <glyph glyph-name="cacute.loclPLK.sc" horiz-adv-x="545" 
d="M151.5 22q-56.5 32 -86 89t-29.5 130q0 85 36.5 165.5t112 133t186.5 52.5q91 0 164 -48q6 -4 6 -10t-14 -29l-12 -19q-14 -22 -24 -22q-4 0 -12 4q-60 31 -116 31q-71 0 -118 -38t-68.5 -95.5t-21.5 -116.5q0 -80 41.5 -122.5t119.5 -42.5q60 0 120 28l8 2q5 0 9 -5.5
t9 -20.5l6 -16q7 -17 7 -25q0 -5 -2 -8t-8 -6q-40 -21 -86.5 -32t-91.5 -11q-79 0 -135.5 32zM303.5 643q-5.5 3 -2.5 10l62 148q3 8 10.5 10t31.5 2h34q23 0 29.5 -3t1.5 -11l-85 -149q-4 -6 -10.5 -8t-24.5 -2h-24q-17 0 -22.5 3z" />
    <glyph glyph-name="cacute.sc" horiz-adv-x="545" 
d="M151.5 22q-56.5 32 -86 89t-29.5 130q0 85 36.5 165.5t112 133t186.5 52.5q91 0 164 -48q6 -4 6 -10t-14 -29l-12 -19q-14 -22 -24 -22q-4 0 -12 4q-60 31 -116 31q-71 0 -118 -38t-68.5 -95.5t-21.5 -116.5q0 -80 41.5 -122.5t119.5 -42.5q60 0 120 28l8 2q5 0 9 -5.5
t9 -20.5l6 -16q7 -17 7 -25q0 -5 -2 -8t-8 -6q-40 -21 -86.5 -32t-91.5 -11q-79 0 -135.5 32zM316 643q-5 3 0 10l111 148q5 7 13.5 9.5t31.5 2.5h38q21 0 26.5 -3.5t-0.5 -10.5l-137 -150q-5 -5 -12 -7t-24 -2h-26q-16 0 -21 3z" />
    <glyph glyph-name="ccaron.sc" horiz-adv-x="545" 
d="M151.5 22q-56.5 32 -86 89t-29.5 130q0 85 36.5 165.5t112 133t186.5 52.5q91 0 164 -48q6 -4 6 -10t-14 -29l-12 -19q-14 -22 -24 -22q-4 0 -12 4q-60 31 -116 31q-71 0 -118 -38t-68.5 -95.5t-21.5 -116.5q0 -80 41.5 -122.5t119.5 -42.5q60 0 120 28l8 2q5 0 9 -5.5
t9 -20.5l6 -16q7 -17 7 -25q0 -5 -2 -8t-8 -6q-40 -21 -86.5 -32t-91.5 -11q-79 0 -135.5 32zM326.5 641q-10.5 3 -17.5 11l-76 98q-3 3 -3 7q0 8 17 22l8 9q17 16 25 16q3 0 7 -4l89 -90l117 92q4 3 8 3t9 -4t11 -11l9 -11q11 -13 11 -19q0 -4 -6 -10l-104 -98
q-9 -8 -20 -11t-34 -3h-17q-23 0 -33.5 3z" />
    <glyph glyph-name="ccedilla.sc" horiz-adv-x="545" 
d="M541 534q0 -6 -14 -29l-12 -19q-14 -22 -24 -22q-4 0 -12 4q-60 31 -116 31q-71 0 -118 -38t-68.5 -95.5t-21.5 -116.5q0 -80 41.5 -122.5t119.5 -42.5q60 0 120 28l8 2q5 0 9 -5.5t9 -20.5l6 -16q7 -17 7 -25q0 -5 -2 -8t-8 -6q-68 -36 -152 -42l-10 -37l28 -2
q32 -5 50 -25.5t19 -53.5q0 -49 -38.5 -79.5t-96.5 -30.5q-43 0 -72 13q-6 1 -6 7q0 5 6 23l4 10q5 16 8.5 19.5t11.5 1.5q26 -7 48 -7t36 9t14 28q2 31 -46 31q-29 0 -56 -4l28 99q-98 13 -151.5 80.5t-53.5 167.5q0 85 36.5 165.5t112 133t186.5 52.5q91 0 164 -48
q6 -4 6 -10z" />
    <glyph glyph-name="ccircumflex.sc" horiz-adv-x="545" 
d="M151.5 22q-56.5 32 -86 89t-29.5 130q0 85 36.5 165.5t112 133t186.5 52.5q91 0 164 -48q6 -4 6 -10t-14 -29l-12 -19q-14 -22 -24 -22q-4 0 -12 4q-60 31 -116 31q-71 0 -118 -38t-68.5 -95.5t-21.5 -116.5q0 -80 41.5 -122.5t119.5 -42.5q60 0 120 28l8 2q5 0 9 -5.5
t9 -20.5l6 -16q7 -17 7 -25q0 -5 -2 -8t-8 -6q-40 -21 -86.5 -32t-91.5 -11q-79 0 -135.5 32zM261 642q-3 0 -8 4t-12 11l-9 11q-11 13 -11 18q0 6 6 10l104 98q9 8 20 11t34 3h18q23 0 33 -3t17 -11l76 -98q2 -2 2 -6q0 -7 -16 -22l-8 -8q-17 -16 -24 -16q-3 0 -7 4l-89 89
l-118 -92q-5 -3 -8 -3z" />
    <glyph glyph-name="cdotaccent.sc" horiz-adv-x="545" 
d="M151.5 22q-56.5 32 -86 89t-29.5 130q0 85 36.5 165.5t112 133t186.5 52.5q91 0 164 -48q6 -4 6 -10t-14 -29l-12 -19q-14 -22 -24 -22q-4 0 -12 4q-60 31 -116 31q-71 0 -118 -38t-68.5 -95.5t-21.5 -116.5q0 -80 41.5 -122.5t119.5 -42.5q60 0 120 28l8 2q5 0 9 -5.5
t9 -20.5l6 -16q7 -17 7 -25q0 -5 -2 -8t-8 -6q-40 -21 -86.5 -32t-91.5 -11q-79 0 -135.5 32zM339 681q-17 17 -17 41q0 28 20 49.5t50 21.5q27 0 43.5 -16.5t16.5 -42.5t-19.5 -48t-49.5 -22q-27 0 -44 17z" />
    <glyph glyph-name="d.sc" horiz-adv-x="622" 
d="M57 0q-18 0 -23 2t-4 10l78 557q1 9 7.5 11t32.5 2h124q150 0 228.5 -60.5t78.5 -178.5q0 -89 -32 -162t-91 -117q-46 -34 -106.5 -49t-151.5 -15h-129h-12zM212 89q59 0 103 13t75 41q73 64 73 193q0 78 -45 117.5t-151 39.5h-56l-57 -404h58z" />
    <glyph glyph-name="eth.sc" horiz-adv-x="622" 
d="M500.5 521.5q78.5 -60.5 78.5 -178.5q0 -89 -32 -162t-91 -117q-46 -34 -106.5 -49t-151.5 -15h-129h-12q-18 0 -23 2t-4 10l34 241h-45q-4 0 -6 2t-2 9q0 8 3 26l1 7q4 26 6.5 32.5t9.5 6.5h44l33 233q1 9 7.5 11t32.5 2h124q150 0 228.5 -60.5zM463 336q0 78 -45 117.5
t-151 39.5h-56l-22 -157h102q4 0 6 -2t2 -9q0 -8 -3 -26l-1 -7q-4 -26 -6.5 -32.5t-9.5 -6.5h-102l-23 -164h58q59 0 103 13t75 41q73 64 73 193z" />
    <glyph glyph-name="dcaron.sc" horiz-adv-x="622" 
d="M57 0q-18 0 -23 2t-4 10l78 557q1 9 7.5 11t32.5 2h124q150 0 228.5 -60.5t78.5 -178.5q0 -89 -32 -162t-91 -117q-46 -34 -106.5 -49t-151.5 -15h-129h-12zM212 89q59 0 103 13t75 41q73 64 73 193q0 78 -45 117.5t-151 39.5h-56l-57 -404h58zM302.5 641
q-10.5 3 -17.5 11l-76 98q-3 3 -3 7q0 8 17 22l8 9q17 16 25 16q3 0 7 -4l89 -90l117 92q4 3 8 3t9 -4t11 -11l9 -11q11 -13 11 -19q0 -4 -6 -10l-104 -98q-9 -8 -20 -11t-34 -3h-17q-23 0 -33.5 3z" />
    <glyph glyph-name="dcroat.sc" horiz-adv-x="622" 
d="M500.5 521.5q78.5 -60.5 78.5 -178.5q0 -89 -32 -162t-91 -117q-46 -34 -106.5 -49t-151.5 -15h-129h-12q-18 0 -23 2t-4 10l34 241h-45q-4 0 -6 2t-2 9q0 8 3 26l1 7q4 26 6.5 32.5t9.5 6.5h44l33 233q1 9 7.5 11t32.5 2h124q150 0 228.5 -60.5zM463 336q0 78 -45 117.5
t-151 39.5h-56l-22 -157h102q4 0 6 -2t2 -9q0 -8 -3 -26l-1 -7q-4 -26 -6.5 -32.5t-9.5 -6.5h-102l-23 -164h58q59 0 103 13t75 41q73 64 73 193z" />
    <glyph glyph-name="e.sc" horiz-adv-x="519" 
d="M494 579.5q2 -2.5 2 -10.5t-3 -28l-1 -8q-4 -25 -7.5 -32.5t-9.5 -7.5h-265l-21 -155h225q4 0 6 -2t2 -9q0 -8 -3 -29l-1 -7q-4 -28 -6.5 -35t-9.5 -7h-226l-22 -160h269q4 0 6 -2.5t2 -10.5q0 -15 -2 -27l-1 -7q-4 -27 -7.5 -34.5t-8.5 -7.5h-343h-12q-18 0 -23 2t-4 10
l78 557q1 9 7.5 11t32.5 2h339q5 0 7 -2.5z" />
    <glyph glyph-name="eacute.sc" horiz-adv-x="519" 
d="M494 579.5q2 -2.5 2 -10.5t-3 -28l-1 -8q-4 -25 -7.5 -32.5t-9.5 -7.5h-265l-21 -155h225q4 0 6 -2t2 -9q0 -8 -3 -29l-1 -7q-4 -28 -6.5 -35t-9.5 -7h-226l-22 -160h269q4 0 6 -2.5t2 -10.5q0 -15 -2 -27l-1 -7q-4 -27 -7.5 -34.5t-8.5 -7.5h-343h-12q-18 0 -23 2t-4 10
l78 557q1 9 7.5 11t32.5 2h339q5 0 7 -2.5zM258 643q-5 3 0 10l111 148q5 7 13.5 9.5t31.5 2.5h38q21 0 26.5 -3.5t-0.5 -10.5l-137 -150q-5 -5 -12 -7t-24 -2h-26q-16 0 -21 3z" />
    <glyph glyph-name="ebreve.sc" horiz-adv-x="519" 
d="M494 579.5q2 -2.5 2 -10.5t-3 -28l-1 -8q-4 -25 -7.5 -32.5t-9.5 -7.5h-265l-21 -155h225q4 0 6 -2t2 -9q0 -8 -3 -29l-1 -7q-4 -28 -6.5 -35t-9.5 -7h-226l-22 -160h269q4 0 6 -2.5t2 -10.5q0 -15 -2 -27l-1 -7q-4 -27 -7.5 -34.5t-8.5 -7.5h-343h-12q-18 0 -23 2t-4 10
l78 557q1 9 7.5 11t32.5 2h339q5 0 7 -2.5zM222 677q-35 27 -40 74l-1 25q1 12 7 15t23 3h22q18 0 23 -2.5t5 -8.5q0 -28 15.5 -44.5t43.5 -16.5q29 0 47.5 15t27.5 46q2 7 7 9t23 2h15q21 0 28 -2.5t6 -10.5q-12 -62 -55 -96.5t-107 -34.5q-55 0 -90 27z" />
    <glyph glyph-name="ecaron.sc" horiz-adv-x="519" 
d="M494 579.5q2 -2.5 2 -10.5t-3 -28l-1 -8q-4 -25 -7.5 -32.5t-9.5 -7.5h-265l-21 -155h225q4 0 6 -2t2 -9q0 -8 -3 -29l-1 -7q-4 -28 -6.5 -35t-9.5 -7h-226l-22 -160h269q4 0 6 -2.5t2 -10.5q0 -15 -2 -27l-1 -7q-4 -27 -7.5 -34.5t-8.5 -7.5h-343h-12q-18 0 -23 2t-4 10
l78 557q1 9 7.5 11t32.5 2h339q5 0 7 -2.5zM268.5 641q-10.5 3 -17.5 11l-76 98q-3 3 -3 7q0 8 17 22l8 9q17 16 25 16q3 0 7 -4l89 -90l117 92q4 3 8 3t9 -4t11 -11l9 -11q11 -13 11 -19q0 -4 -6 -10l-104 -98q-9 -8 -20 -11t-34 -3h-17q-23 0 -33.5 3z" />
    <glyph glyph-name="ecircumflex.sc" horiz-adv-x="519" 
d="M494 579.5q2 -2.5 2 -10.5t-3 -28l-1 -8q-4 -25 -7.5 -32.5t-9.5 -7.5h-265l-21 -155h225q4 0 6 -2t2 -9q0 -8 -3 -29l-1 -7q-4 -28 -6.5 -35t-9.5 -7h-226l-22 -160h269q4 0 6 -2.5t2 -10.5q0 -15 -2 -27l-1 -7q-4 -27 -7.5 -34.5t-8.5 -7.5h-343h-12q-18 0 -23 2t-4 10
l78 557q1 9 7.5 11t32.5 2h339q5 0 7 -2.5zM203 642q-3 0 -8 4t-12 11l-9 11q-11 13 -11 18q0 6 6 10l104 98q9 8 20 11t34 3h18q23 0 33 -3t17 -11l76 -98q2 -2 2 -6q0 -7 -16 -22l-8 -8q-17 -16 -24 -16q-3 0 -7 4l-89 89l-118 -92q-5 -3 -8 -3z" />
    <glyph glyph-name="edieresis.sc" horiz-adv-x="519" 
d="M494 579.5q2 -2.5 2 -10.5t-3 -28l-1 -8q-4 -25 -7.5 -32.5t-9.5 -7.5h-265l-21 -155h225q4 0 6 -2t2 -9q0 -8 -3 -29l-1 -7q-4 -28 -6.5 -35t-9.5 -7h-226l-22 -160h269q4 0 6 -2.5t2 -10.5q0 -15 -2 -27l-1 -7q-4 -27 -7.5 -34.5t-8.5 -7.5h-343h-12q-18 0 -23 2t-4 10
l78 557q1 9 7.5 11t32.5 2h339q5 0 7 -2.5zM167.5 672.5q-16.5 16.5 -16.5 40.5q0 27 19 48t49 21q27 0 43.5 -16.5t16.5 -40.5q0 -27 -19 -48t-50 -21q-26 0 -42.5 16.5zM376.5 672.5q-16.5 16.5 -16.5 40.5q0 27 19 48t49 21q27 0 43.5 -16.5t16.5 -40.5q0 -27 -19 -48
t-50 -21q-26 0 -42.5 16.5z" />
    <glyph glyph-name="edotaccent.sc" horiz-adv-x="519" 
d="M494 579.5q2 -2.5 2 -10.5t-3 -28l-1 -8q-4 -25 -7.5 -32.5t-9.5 -7.5h-265l-21 -155h225q4 0 6 -2t2 -9q0 -8 -3 -29l-1 -7q-4 -28 -6.5 -35t-9.5 -7h-226l-22 -160h269q4 0 6 -2.5t2 -10.5q0 -15 -2 -27l-1 -7q-4 -27 -7.5 -34.5t-8.5 -7.5h-343h-12q-18 0 -23 2t-4 10
l78 557q1 9 7.5 11t32.5 2h339q5 0 7 -2.5zM281 681q-17 17 -17 41q0 28 20 49.5t50 21.5q27 0 43.5 -16.5t16.5 -42.5t-19.5 -48t-49.5 -22q-27 0 -44 17z" />
    <glyph glyph-name="egrave.sc" horiz-adv-x="519" 
d="M494 579.5q2 -2.5 2 -10.5t-3 -28l-1 -8q-4 -25 -7.5 -32.5t-9.5 -7.5h-265l-21 -155h225q4 0 6 -2t2 -9q0 -8 -3 -29l-1 -7q-4 -28 -6.5 -35t-9.5 -7h-226l-22 -160h269q4 0 6 -2.5t2 -10.5q0 -15 -2 -27l-1 -7q-4 -27 -7.5 -34.5t-8.5 -7.5h-343h-12q-18 0 -23 2t-4 10
l78 557q1 9 7.5 11t32.5 2h339q5 0 7 -2.5zM286 642q-7 2 -10 7l-95 150q-4 7 2 10.5t27 3.5h32q24 0 32.5 -2.5t11.5 -9.5l71 -149q1 -1 1 -4q0 -8 -26 -8h-22q-17 0 -24 2z" />
    <glyph glyph-name="emacron.sc" horiz-adv-x="519" 
d="M494 579.5q2 -2.5 2 -10.5t-3 -28l-1 -8q-4 -25 -7.5 -32.5t-9.5 -7.5h-265l-21 -155h225q4 0 6 -2t2 -9q0 -8 -3 -29l-1 -7q-4 -28 -6.5 -35t-9.5 -7h-226l-22 -160h269q4 0 6 -2.5t2 -10.5q0 -15 -2 -27l-1 -7q-4 -27 -7.5 -34.5t-8.5 -7.5h-343h-12q-18 0 -23 2t-4 10
l78 557q1 9 7.5 11t32.5 2h339q5 0 7 -2.5zM186 686.5q-2 2.5 -2 9.5q0 14 2 24l2 11q3 21 6.5 28t10.5 7h260q5 0 6.5 -2.5t1.5 -9.5q0 -13 -2 -24l-1 -11q-3 -20 -6.5 -27.5t-10.5 -7.5h-261q-4 0 -6 2.5z" />
    <glyph glyph-name="eogonek.sc" horiz-adv-x="519" 
d="M494 579.5q2 -2.5 2 -10.5t-3 -28l-1 -8q-4 -25 -7.5 -32.5t-9.5 -7.5h-265l-21 -155h225q4 0 6 -2t2 -9q0 -8 -3 -29l-1 -7q-4 -28 -6.5 -35t-9.5 -7h-226l-22 -160h269q4 0 6 -2.5t2 -10.5q0 -15 -2 -27l-1 -7q-4 -27 -7 -33t-13 -12q-42 -26 -69.5 -57.5t-27.5 -64.5
q0 -18 10.5 -27.5t28.5 -9.5q22 0 45 9q1 1 4 1t5.5 -6t4.5 -16l4 -16q3 -11 3 -17q0 -9 -10 -13q-16 -8 -38.5 -12.5t-43.5 -4.5q-46 0 -73.5 24t-27.5 68q0 45 28.5 83t72.5 62h-255h-12q-18 0 -23 2t-4 10l78 557q1 9 7.5 11t32.5 2h339q5 0 7 -2.5z" />
    <glyph glyph-name="f.sc" horiz-adv-x="484" 
d="M489 579.5q2 -2.5 2 -10.5t-3 -28l-1 -8q-4 -25 -7.5 -32.5t-9.5 -7.5h-260l-22 -155h219q4 0 6 -2t2 -9q0 -8 -3 -29l-1 -7q-4 -28 -6.5 -35t-9.5 -7h-219l-33 -234q-1 -10 -11 -12.5t-44 -2.5h-9q-20 0 -32.5 1t-15 4t-1.5 10l78 554q1 9 7.5 11t31.5 2h335q5 0 7 -2.5
z" />
    <glyph glyph-name="f_f.liga.sc" horiz-adv-x="968" 
d="M489 579.5q2 -2.5 2 -10.5t-3 -28l-1 -8q-4 -25 -7.5 -32.5t-9.5 -7.5h-260l-22 -155h219q4 0 6 -2t2 -9q0 -8 -3 -29l-1 -7q-4 -28 -6.5 -35t-9.5 -7h-219l-33 -234q-1 -10 -11 -12.5t-44 -2.5h-9q-20 0 -32.5 1t-15 4t-1.5 10l78 554q1 9 7.5 11t31.5 2h335q5 0 7 -2.5
zM973 579.5q2 -2.5 2 -10.5t-3 -28l-1 -8q-4 -25 -7.5 -32.5t-9.5 -7.5h-260l-22 -155h219q4 0 6 -2t2 -9q0 -8 -3 -29l-1 -7q-4 -28 -6.5 -35t-9.5 -7h-219l-33 -234q-1 -10 -11 -12.5t-44 -2.5h-9q-20 0 -32.5 1t-15 4t-1.5 10l78 554q1 9 7.5 11t31.5 2h335q5 0 7 -2.5z
" />
    <glyph glyph-name="f_f_i.liga.sc" horiz-adv-x="1216" 
d="M489 579.5q2 -2.5 2 -10.5t-3 -28l-1 -8q-4 -25 -7.5 -32.5t-9.5 -7.5h-260l-22 -155h219q4 0 6 -2t2 -9q0 -8 -3 -29l-1 -7q-4 -28 -6.5 -35t-9.5 -7h-219l-33 -234q-1 -10 -11 -12.5t-44 -2.5h-9q-20 0 -32.5 1t-15 4t-1.5 10l78 554q1 9 7.5 11t31.5 2h335q5 0 7 -2.5
zM973 579.5q2 -2.5 2 -10.5t-3 -28l-1 -8q-4 -25 -7.5 -32.5t-9.5 -7.5h-260l-22 -155h219q4 0 6 -2t2 -9q0 -8 -3 -29l-1 -7q-4 -28 -6.5 -35t-9.5 -7h-219l-33 -234q-1 -10 -11 -12.5t-44 -2.5h-9q-20 0 -32.5 1t-15 4t-1.5 10l78 554q1 9 7.5 11t31.5 2h335q5 0 7 -2.5z
M1004.5 2.5q-8.5 2.5 -6.5 12.5l77 551q1 8 4.5 11t15.5 4t31 1h11q34 0 43 -3t8 -13l-77 -551q-2 -10 -11 -12.5t-44 -2.5h-10q-33 0 -41.5 2.5z" />
    <glyph glyph-name="f_f_l.liga.sc" horiz-adv-x="1436" 
d="M489 579.5q2 -2.5 2 -10.5t-3 -28l-1 -8q-4 -25 -7.5 -32.5t-9.5 -7.5h-260l-22 -155h219q4 0 6 -2t2 -9q0 -8 -3 -29l-1 -7q-4 -28 -6.5 -35t-9.5 -7h-219l-33 -234q-1 -10 -11 -12.5t-44 -2.5h-9q-20 0 -32.5 1t-15 4t-1.5 10l78 554q1 9 7.5 11t31.5 2h335q5 0 7 -2.5
zM973 579.5q2 -2.5 2 -10.5t-3 -28l-1 -8q-4 -25 -7.5 -32.5t-9.5 -7.5h-260l-22 -155h219q4 0 6 -2t2 -9q0 -8 -3 -29l-1 -7q-4 -28 -6.5 -35t-9.5 -7h-219l-33 -234q-1 -10 -11 -12.5t-44 -2.5h-9q-20 0 -32.5 1t-15 4t-1.5 10l78 554q1 9 7.5 11t31.5 2h335q5 0 7 -2.5z
M1002.5 2q-5.5 2 -4.5 14l78 550q1 8 4.5 11t16 4t31.5 1h10q33 0 42 -3t8 -13l-67 -477h249q4 0 6 -2.5t2 -10.5q0 -15 -2 -27l-1 -7q-4 -27 -7.5 -34.5t-8.5 -7.5h-325q-26 0 -31.5 2z" />
    <glyph glyph-name="fi.sc" horiz-adv-x="732" 
d="M489 579.5q2 -2.5 2 -10.5t-3 -28l-1 -8q-4 -25 -7.5 -32.5t-9.5 -7.5h-260l-22 -155h219q4 0 6 -2t2 -9q0 -8 -3 -29l-1 -7q-4 -28 -6.5 -35t-9.5 -7h-219l-33 -234q-1 -10 -11 -12.5t-44 -2.5h-9q-20 0 -32.5 1t-15 4t-1.5 10l78 554q1 9 7.5 11t31.5 2h335q5 0 7 -2.5
zM520.5 2.5q-8.5 2.5 -6.5 12.5l77 551q1 8 4.5 11t15.5 4t31 1h11q34 0 43 -3t8 -13l-77 -551q-2 -10 -11 -12.5t-44 -2.5h-10q-33 0 -41.5 2.5z" />
    <glyph glyph-name="fl.sc" horiz-adv-x="952" 
d="M489 579.5q2 -2.5 2 -10.5t-3 -28l-1 -8q-4 -25 -7.5 -32.5t-9.5 -7.5h-260l-22 -155h219q4 0 6 -2t2 -9q0 -8 -3 -29l-1 -7q-4 -28 -6.5 -35t-9.5 -7h-219l-33 -234q-1 -10 -11 -12.5t-44 -2.5h-9q-20 0 -32.5 1t-15 4t-1.5 10l78 554q1 9 7.5 11t31.5 2h335q5 0 7 -2.5
zM518.5 2q-5.5 2 -4.5 14l78 550q1 8 4.5 11t16 4t31.5 1h10q33 0 42 -3t8 -13l-67 -477h249q4 0 6 -2.5t2 -10.5q0 -15 -2 -27l-1 -7q-4 -27 -7.5 -34.5t-8.5 -7.5h-325q-26 0 -31.5 2z" />
    <glyph glyph-name="g.sc" horiz-adv-x="622" 
d="M101.5 56.5q-65.5 66.5 -65.5 185.5q0 94 38 174t114 128t185 48q117 0 191 -53q7 -5 7 -10q0 -9 -15 -29l-14 -19q-9 -12 -14.5 -17t-10.5 -5q-6 0 -11 4q-66 36 -140 36q-47 0 -86 -17.5t-65 -48.5q-30 -33 -45.5 -80.5t-15.5 -102.5q1 -85 41 -126.5t121 -41.5
q25 0 50.5 4.5t43.5 10.5l19 139h-119q-8 0 -8 13q0 9 3 27l1 8q4 27 7 33.5t10 6.5h201q18 0 23.5 -2.5t4.5 -14.5l-35 -246q-2 -15 -6.5 -21.5t-17.5 -12.5q-33 -15 -90.5 -26t-107.5 -11q-128 0 -193.5 66.5z" />
    <glyph glyph-name="gbreve.sc" horiz-adv-x="622" 
d="M101.5 56.5q-65.5 66.5 -65.5 185.5q0 94 38 174t114 128t185 48q117 0 191 -53q7 -5 7 -10q0 -9 -15 -29l-14 -19q-9 -12 -14.5 -17t-10.5 -5q-6 0 -11 4q-66 36 -140 36q-47 0 -86 -17.5t-65 -48.5q-30 -33 -45.5 -80.5t-15.5 -102.5q1 -85 41 -126.5t121 -41.5
q25 0 50.5 4.5t43.5 10.5l19 139h-119q-8 0 -8 13q0 9 3 27l1 8q4 27 7 33.5t10 6.5h201q18 0 23.5 -2.5t4.5 -14.5l-35 -246q-2 -15 -6.5 -21.5t-17.5 -12.5q-33 -15 -90.5 -26t-107.5 -11q-128 0 -193.5 66.5zM286 677q-35 27 -40 74l-1 25q1 12 7 15t23 3h22
q18 0 23 -2.5t5 -8.5q0 -28 15.5 -44.5t43.5 -16.5q29 0 47.5 15t27.5 46q2 7 7 9t23 2h15q21 0 28 -2.5t6 -10.5q-12 -62 -55 -96.5t-107 -34.5q-55 0 -90 27z" />
    <glyph glyph-name="gcircumflex.sc" horiz-adv-x="622" 
d="M101.5 56.5q-65.5 66.5 -65.5 185.5q0 94 38 174t114 128t185 48q117 0 191 -53q7 -5 7 -10q0 -9 -15 -29l-14 -19q-9 -12 -14.5 -17t-10.5 -5q-6 0 -11 4q-66 36 -140 36q-47 0 -86 -17.5t-65 -48.5q-30 -33 -45.5 -80.5t-15.5 -102.5q1 -85 41 -126.5t121 -41.5
q25 0 50.5 4.5t43.5 10.5l19 139h-119q-8 0 -8 13q0 9 3 27l1 8q4 27 7 33.5t10 6.5h201q18 0 23.5 -2.5t4.5 -14.5l-35 -246q-2 -15 -6.5 -21.5t-17.5 -12.5q-33 -15 -90.5 -26t-107.5 -11q-128 0 -193.5 66.5zM267 642q-3 0 -8 4t-12 11l-9 11q-11 13 -11 18q0 6 6 10
l104 98q9 8 20 11t34 3h18q23 0 33 -3t17 -11l76 -98q2 -2 2 -6q0 -7 -16 -22l-8 -8q-17 -16 -24 -16q-3 0 -7 4l-89 89l-118 -92q-5 -3 -8 -3z" />
    <glyph glyph-name="gcommaaccent.sc" horiz-adv-x="622" 
d="M101.5 56.5q-65.5 66.5 -65.5 185.5q0 94 38 174t114 128t185 48q117 0 191 -53q7 -5 7 -10q0 -9 -15 -29l-14 -19q-9 -12 -14.5 -17t-10.5 -5q-6 0 -11 4q-66 36 -140 36q-47 0 -86 -17.5t-65 -48.5q-30 -33 -45.5 -80.5t-15.5 -102.5q1 -85 41 -126.5t121 -41.5
q25 0 50.5 4.5t43.5 10.5l19 139h-119q-8 0 -8 13q0 9 3 27l1 8q4 27 7 33.5t10 6.5h201q18 0 23.5 -2.5t4.5 -14.5l-35 -246q-2 -15 -6.5 -21.5t-17.5 -12.5q-33 -15 -90.5 -26t-107.5 -11q-128 0 -193.5 66.5zM235 -305q-5 0 -11 7l-8 10q-5 7 -6 9.5t3 6.5q59 57 59 96
q0 9 -3 15t-9 16q-12 18 -12 34q0 23 17 38.5t42 15.5t38.5 -16.5t13.5 -43.5q0 -47 -35 -98t-83 -88q-4 -2 -6 -2z" />
    <glyph glyph-name="gdotaccent.sc" horiz-adv-x="622" 
d="M101.5 56.5q-65.5 66.5 -65.5 185.5q0 94 38 174t114 128t185 48q117 0 191 -53q7 -5 7 -10q0 -9 -15 -29l-14 -19q-9 -12 -14.5 -17t-10.5 -5q-6 0 -11 4q-66 36 -140 36q-47 0 -86 -17.5t-65 -48.5q-30 -33 -45.5 -80.5t-15.5 -102.5q1 -85 41 -126.5t121 -41.5
q25 0 50.5 4.5t43.5 10.5l19 139h-119q-8 0 -8 13q0 9 3 27l1 8q4 27 7 33.5t10 6.5h201q18 0 23.5 -2.5t4.5 -14.5l-35 -246q-2 -15 -6.5 -21.5t-17.5 -12.5q-33 -15 -90.5 -26t-107.5 -11q-128 0 -193.5 66.5zM345 681q-17 17 -17 41q0 28 20 49.5t50 21.5
q27 0 43.5 -16.5t16.5 -42.5t-19.5 -48t-49.5 -22q-27 0 -44 17z" />
    <glyph glyph-name="h.sc" horiz-adv-x="619" 
d="M583 579q9 -3 8 -13l-77 -551q-2 -10 -11 -12.5t-44 -2.5h-10q-33 0 -41.5 2.5t-6.5 12.5l33 234h-258l-33 -234q-2 -10 -11 -12.5t-44 -2.5h-10q-33 0 -41.5 2.5t-6.5 12.5l77 551q1 8 4.5 11t15.5 4t31 1h11q34 0 43 -3t8 -13l-32 -228h258l32 228q1 8 4.5 11t15.5 4
t31 1h11q34 0 43 -3z" />
    <glyph glyph-name="hbar.sc" horiz-adv-x="619" 
d="M649 503q2 -2 2 -9q0 -8 -3 -26l-1 -7q-4 -26 -6.5 -32.5t-9.5 -6.5h-55l-57 -407q-2 -10 -11 -12.5t-44 -2.5h-10q-33 0 -41.5 2.5t-6.5 12.5l33 234h-258l-33 -234q-2 -10 -11 -12.5t-44 -2.5h-10q-33 0 -41.5 2.5t-6.5 12.5l57 407h-54q-4 0 -6 2t-2 9q0 8 3 26l1 7
q4 26 6.5 32.5t9.5 6.5h53l9 61q1 8 4.5 11t15.5 4t31 1h11q34 0 43 -3t8 -13l-9 -61h258l9 61q1 8 4.5 11t15.5 4t31 1h11q34 0 43 -3t8 -13l-9 -61h56q4 0 6 -2zM463 422h-258l-12 -84h258z" />
    <glyph glyph-name="hcircumflex.sc" horiz-adv-x="619" 
d="M583 579q9 -3 8 -13l-77 -551q-2 -10 -11 -12.5t-44 -2.5h-10q-33 0 -41.5 2.5t-6.5 12.5l33 234h-258l-33 -234q-2 -10 -11 -12.5t-44 -2.5h-10q-33 0 -41.5 2.5t-6.5 12.5l77 551q1 8 4.5 11t15.5 4t31 1h11q34 0 43 -3t8 -13l-32 -228h258l32 228q1 8 4.5 11t15.5 4
t31 1h11q34 0 43 -3zM246 642q-3 0 -8 4t-12 11l-9 11q-11 13 -11 18q0 6 6 10l104 98q9 8 20 11t34 3h18q23 0 33 -3t17 -11l76 -98q2 -2 2 -6q0 -7 -16 -22l-8 -8q-17 -16 -24 -16q-3 0 -7 4l-89 89l-118 -92q-5 -3 -8 -3z" />
    <glyph glyph-name="i.sc" horiz-adv-x="248" 
d="M36.5 2.5q-8.5 2.5 -6.5 12.5l77 551q1 8 4.5 11t15.5 4t31 1h11q34 0 43 -3t8 -13l-77 -551q-2 -10 -11 -12.5t-44 -2.5h-10q-33 0 -41.5 2.5z" />
    <glyph glyph-name="dotlessi.sc" horiz-adv-x="248" 
d="M36.5 2.5q-8.5 2.5 -6.5 12.5l77 551q1 8 4.5 11t15.5 4t31 1h11q34 0 43 -3t8 -13l-77 -551q-2 -10 -11 -12.5t-44 -2.5h-10q-33 0 -41.5 2.5z" />
    <glyph glyph-name="iacute.sc" horiz-adv-x="248" 
d="M36.5 2.5q-8.5 2.5 -6.5 12.5l77 551q1 8 4.5 11t15.5 4t31 1h11q34 0 43 -3t8 -13l-77 -551q-2 -10 -11 -12.5t-44 -2.5h-10q-33 0 -41.5 2.5zM115 643q-5 3 0 10l111 148q5 7 13.5 9.5t31.5 2.5h38q21 0 26.5 -3.5t-0.5 -10.5l-137 -150q-5 -5 -12 -7t-24 -2h-26
q-16 0 -21 3z" />
    <glyph glyph-name="iacute_j.loclNLD.sc" horiz-adv-x="674" 
d="M36.5 2.5q-8.5 2.5 -6.5 12.5l77 551q1 8 4.5 11t15.5 4t31 1h11q34 0 43 -3t8 -13l-77 -551q-2 -10 -11 -12.5t-44 -2.5h-10q-33 0 -41.5 2.5zM115 643q-5 3 0 10l111 148q5 7 13.5 9.5t31.5 2.5h38q21 0 26.5 -3.5t-0.5 -10.5l-137 -150q-5 -5 -12 -7t-24 -2h-26
q-16 0 -21 3zM242 18q-7 4 -7 11q0 8 9 27l8 18q9 20 14 25.5t14 1.5q47 -19 86 -19t61.5 15t33 43t17.5 75l49 351q1 10 10.5 13t43.5 3h9q33 0 43 -3t8 -13l-54 -379q-14 -101 -67 -149t-151 -48q-78 0 -127 28zM523 643q-5 3 0 10l111 148q5 7 13.5 9.5t31.5 2.5h38
q21 0 26.5 -3.5t-0.5 -10.5l-137 -150q-5 -5 -12 -7t-24 -2h-26q-16 0 -21 3z" />
    <glyph glyph-name="ibreve.sc" horiz-adv-x="248" 
d="M36.5 2.5q-8.5 2.5 -6.5 12.5l77 551q1 8 4.5 11t15.5 4t31 1h11q34 0 43 -3t8 -13l-77 -551q-2 -10 -11 -12.5t-44 -2.5h-10q-33 0 -41.5 2.5zM79 677q-35 27 -40 74l-1 25q1 12 7 15t23 3h22q18 0 23 -2.5t5 -8.5q0 -28 15.5 -44.5t43.5 -16.5q29 0 47.5 15t27.5 46
q2 7 7 9t23 2h15q21 0 28 -2.5t6 -10.5q-12 -62 -55 -96.5t-107 -34.5q-55 0 -90 27z" />
    <glyph glyph-name="icircumflex.sc" horiz-adv-x="248" 
d="M36.5 2.5q-8.5 2.5 -6.5 12.5l77 551q1 8 4.5 11t15.5 4t31 1h11q34 0 43 -3t8 -13l-77 -551q-2 -10 -11 -12.5t-44 -2.5h-10q-33 0 -41.5 2.5zM60 642q-3 0 -8 4t-12 11l-9 11q-11 13 -11 18q0 6 6 10l104 98q9 8 20 11t34 3h18q23 0 33 -3t17 -11l76 -98q2 -2 2 -6
q0 -7 -16 -22l-8 -8q-17 -16 -24 -16q-3 0 -7 4l-89 89l-118 -92q-5 -3 -8 -3z" />
    <glyph glyph-name="idieresis.sc" horiz-adv-x="248" 
d="M36.5 2.5q-8.5 2.5 -6.5 12.5l77 551q1 8 4.5 11t15.5 4t31 1h11q34 0 43 -3t8 -13l-77 -551q-2 -10 -11 -12.5t-44 -2.5h-10q-33 0 -41.5 2.5zM24.5 672.5q-16.5 16.5 -16.5 40.5q0 27 19 48t49 21q27 0 43.5 -16.5t16.5 -40.5q0 -27 -19 -48t-50 -21q-26 0 -42.5 16.5z
M233.5 672.5q-16.5 16.5 -16.5 40.5q0 27 19 48t49 21q27 0 43.5 -16.5t16.5 -40.5q0 -27 -19 -48t-50 -21q-26 0 -42.5 16.5z" />
    <glyph glyph-name="i.sc.loclTRK" horiz-adv-x="248" 
d="M36.5 2.5q-8.5 2.5 -6.5 12.5l77 551q1 8 4.5 11t15.5 4t31 1h11q34 0 43 -3t8 -13l-77 -551q-2 -10 -11 -12.5t-44 -2.5h-10q-33 0 -41.5 2.5zM138 681q-17 17 -17 41q0 28 20 49.5t50 21.5q27 0 43.5 -16.5t16.5 -42.5t-19.5 -48t-49.5 -22q-27 0 -44 17z" />
    <glyph glyph-name="igrave.sc" horiz-adv-x="248" 
d="M36.5 2.5q-8.5 2.5 -6.5 12.5l77 551q1 8 4.5 11t15.5 4t31 1h11q34 0 43 -3t8 -13l-77 -551q-2 -10 -11 -12.5t-44 -2.5h-10q-33 0 -41.5 2.5zM143 642q-7 2 -10 7l-95 150q-4 7 2 10.5t27 3.5h32q24 0 32.5 -2.5t11.5 -9.5l71 -149q1 -1 1 -4q0 -8 -26 -8h-22
q-17 0 -24 2z" />
    <glyph glyph-name="ij.sc" horiz-adv-x="674" 
d="M36.5 2.5q-8.5 2.5 -6.5 12.5l77 551q1 8 4.5 11t15.5 4t31 1h11q34 0 43 -3t8 -13l-77 -551q-2 -10 -11 -12.5t-44 -2.5h-10q-33 0 -41.5 2.5zM242 18q-7 4 -7 11q0 8 9 27l8 18q9 20 14 25.5t14 1.5q47 -19 86 -19t61.5 15t33 43t17.5 75l49 351q1 10 10.5 13t43.5 3h9
q33 0 43 -3t8 -13l-54 -379q-14 -101 -67 -149t-151 -48q-78 0 -127 28z" />
    <glyph glyph-name="imacron.sc" horiz-adv-x="248" 
d="M36.5 2.5q-8.5 2.5 -6.5 12.5l77 551q1 8 4.5 11t15.5 4t31 1h11q34 0 43 -3t8 -13l-77 -551q-2 -10 -11 -12.5t-44 -2.5h-10q-33 0 -41.5 2.5zM43 686.5q-2 2.5 -2 9.5q0 14 2 24l2 11q3 21 6.5 28t10.5 7h260q5 0 6.5 -2.5t1.5 -9.5q0 -13 -2 -24l-1 -11
q-3 -20 -6.5 -27.5t-10.5 -7.5h-261q-4 0 -6 2.5z" />
    <glyph glyph-name="iogonek.sc" horiz-adv-x="248" 
d="M212 579q9 -3 8 -13l-76 -543q-1 -9 -5 -14t-13 -10q-45 -25 -74 -57.5t-29 -66.5q0 -18 10.5 -27.5t28.5 -9.5q22 0 45 9q1 1 4 1t5.5 -6t4.5 -16l4 -16q3 -11 3 -17q0 -9 -10 -13q-16 -8 -38.5 -12.5t-43.5 -4.5q-46 0 -73.5 24t-27.5 68q0 42 25.5 78.5t66.5 60.5
l80 572q1 8 4.5 11t15.5 4t31 1h11q34 0 43 -3z" />
    <glyph glyph-name="itilde.sc" horiz-adv-x="248" 
d="M36.5 2.5q-8.5 2.5 -6.5 12.5l77 551q1 8 4.5 11t15.5 4t31 1h11q34 0 43 -3t8 -13l-77 -551q-2 -10 -11 -12.5t-44 -2.5h-10q-33 0 -41.5 2.5zM200 673q-15 6 -32 16q-11 6 -22.5 11t-22.5 5q-30 0 -60 -29q-3 -3 -7 -3q-6 0 -22 16l-4 4q-13 14 -13 21q0 5 5 10
q51 61 113 61q19 0 32.5 -5.5t32.5 -15.5q16 -9 25.5 -13t20.5 -4q33 0 62 29q3 3 6 3q7 0 22 -15l5 -5q13 -14 13 -21q0 -4 -5 -11q-24 -27 -53.5 -43.5t-61.5 -16.5q-19 0 -34 6z" />
    <glyph glyph-name="j.sc" horiz-adv-x="426" 
d="M-6 18q-7 4 -7 11q0 8 9 27l8 18q9 20 14 25.5t14 1.5q47 -19 86 -19t61.5 15t33 43t17.5 75l49 351q1 10 10.5 13t43.5 3h9q33 0 43 -3t8 -13l-54 -379q-14 -101 -67 -149t-151 -48q-78 0 -127 28z" />
    <glyph glyph-name="uni0237.sc" horiz-adv-x="426" 
d="M-6 18q-7 4 -7 11q0 8 9 27l8 18q9 20 14 25.5t14 1.5q47 -19 86 -19t61.5 15t33 43t17.5 75l49 351q1 10 10.5 13t43.5 3h9q33 0 43 -3t8 -13l-54 -379q-14 -101 -67 -149t-151 -48q-78 0 -127 28z" />
    <glyph glyph-name="jcircumflex.sc" horiz-adv-x="426" 
d="M-6 18q-7 4 -7 11q0 8 9 27l8 18q9 20 14 25.5t14 1.5q47 -19 86 -19t61.5 15t33 43t17.5 75l49 351q1 10 10.5 13t43.5 3h9q33 0 43 -3t8 -13l-54 -379q-14 -101 -67 -149t-151 -48q-78 0 -127 28zM220 642q-3 0 -8 4t-12 11l-9 11q-11 13 -11 18q0 6 6 10l104 98
q9 8 20 11t34 3h18q23 0 33 -3t17 -11l76 -98q2 -2 2 -6q0 -7 -16 -22l-8 -8q-17 -16 -24 -16q-3 0 -7 4l-89 89l-118 -92q-5 -3 -8 -3z" />
    <glyph glyph-name="k.sc" horiz-adv-x="570" 
d="M462 455q-59 -59 -137 -120l171 -315q3 -6 3 -9q0 -7 -10 -9t-35 -2h-23h-24.5t-24 2.5t-8.5 9.5l-137 254l-65 -47l-29 -204q-2 -10 -11 -12.5t-44 -2.5h-10q-33 0 -41.5 2.5t-6.5 12.5l77 551q1 8 4.5 11t15.5 4t31 1h11q34 0 43 -3t8 -13l-32 -230l53 42
q118 89 204 193q8 8 15 9.5t38 1.5h16q25 0 35 -2t10 -7q0 -3 -3 -8q-35 -51 -94 -110z" />
    <glyph glyph-name="kcommaaccent.sc" horiz-adv-x="570" 
d="M462 455q-59 -59 -137 -120l171 -315q3 -6 3 -9q0 -7 -10 -9t-35 -2h-23h-24.5t-24 2.5t-8.5 9.5l-137 254l-65 -47l-29 -204q-2 -10 -11 -12.5t-44 -2.5h-10q-33 0 -41.5 2.5t-6.5 12.5l77 551q1 8 4.5 11t15.5 4t31 1h11q34 0 43 -3t8 -13l-32 -230l53 42
q118 89 204 193q8 8 15 9.5t38 1.5h16q25 0 35 -2t10 -7q0 -3 -3 -8q-35 -51 -94 -110zM179 -305q-5 0 -11 7l-8 10q-5 7 -6 9.5t3 6.5q59 57 59 96q0 9 -3 15t-9 16q-12 18 -12 34q0 23 17 38.5t42 15.5t38.5 -16.5t13.5 -43.5q0 -47 -35 -98t-83 -88q-4 -2 -6 -2z" />
    </font>
</defs>
</svg>
