<?xml version="1.0" standalone="no"?>
<!DOCTYPE svg PUBLIC "-//W3C//DTD SVG 1.1//EN" "http://www.w3.org/Graphics/SVG/1.1/DTD/svg11.dtd" >
<svg xmlns="http://www.w3.org/2000/svg">
<metadata>
Copyright (c) 2016 by Fontsmith Ltd. All rights reserved. This font may not be altered in any way without prior permission of Fontsmith Ltd.
</metadata>
<defs>
<font id="TIMSansWeb-HeavyItalic" horiz-adv-x="351" >
  <font-face 
    font-family="TIM Sans Web Heavy"
    font-weight="900"
    font-style="italic"
    font-stretch="normal"
    units-per-em="1000"
    panose-1="0 0 10 0 0 0 0 0 0 0"
    ascent="750"
    descent="-250"
    x-height="528"
    cap-height="720"
    bbox="-356 -330 2799 1149"
    underline-thickness="119"
    underline-position="-22"
    slope="-8"
    unicode-range="U+000D-FB02"
  />
<missing-glyph horiz-adv-x="694" 
d="M90 720h514v-720h-514v720zM522 669h-350l176 -263zM316 360l-174 262v-524zM553 622l-175 -262l175 -262v524zM522 52l-174 262l-176 -262h350z" />
    <glyph glyph-name="f_f.liga" unicode="ff" horiz-adv-x="711" 
d="M34.5 -231q-15.5 2 -19 6.5t-1.5 13.5l88 626h-58q-9 0 -12.5 3t-3.5 14q0 3 4 37l1 7q4 26 6.5 36t7 13t13.5 3h57l4 23q19 110 79 166q59 53 155 53q32 0 63 -5.5t50 -13.5q7 -3 7 -12q0 -11 -12 -43l-6 -16q-13 -31 -18.5 -38.5t-15.5 -4.5q-32 8 -59 8
q-22 0 -35.5 -5.5t-24.5 -17.5q-18 -21 -26 -75l-2 -19h171l4 23q19 110 79 166q59 53 155 53q32 0 63 -5.5t50 -13.5q7 -3 7 -12q0 -11 -12 -43l-6 -16q-13 -31 -18.5 -38.5t-15.5 -4.5q-32 8 -59 8q-22 0 -35.5 -5.5t-24.5 -17.5q-18 -21 -26 -75l-2 -19h102q8 0 11.5 -3
t3.5 -14q0 -2 -4 -36l-1 -7q-4 -25 -7 -36t-7 -14t-12 -3h-102l-88 -626q-2 -9 -7.5 -13.5t-22 -6.5t-50.5 -2h-5q-37 0 -52.5 2t-19 6.5t-1.5 13.5l88 626h-172l-88 -626q-2 -9 -7.5 -13.5t-22 -6.5t-50.5 -2h-5q-37 0 -52.5 2z" />
    <glyph glyph-name="f_f_i.liga" unicode="ffi" horiz-adv-x="967" 
d="M34.5 -231q-15.5 2 -19 6.5t-1.5 13.5l88 626h-58q-9 0 -12.5 3t-3.5 14q0 3 4 37l1 7q4 26 6.5 36t7 13t13.5 3h57l4 23q19 110 79 166q59 53 155 53q32 0 63 -5.5t50 -13.5q7 -3 7 -12q0 -11 -12 -43l-6 -16q-13 -31 -18.5 -38.5t-15.5 -4.5q-32 8 -59 8
q-22 0 -35.5 -5.5t-24.5 -17.5q-18 -21 -26 -75l-2 -19h170l1 13q16 107 82 164q73 65 208 65q105 0 189 -42q8 -5 8 -10q0 -10 -17 -44l-9 -19q-11 -23 -18 -32t-14 -9q-2 0 -10 2q-65 29 -133 29q-60 0 -91 -28q-30 -28 -37 -89h99q8 0 11.5 -3t3.5 -14q0 -15 -4 -39
l-1 -7q-4 -27 -6.5 -37t-6 -11.5t-12.5 -1.5h-99l-88 -626q-2 -9 -7.5 -13.5t-22 -6.5t-50.5 -2h-5q-37 0 -53 2t-19.5 6.5t-1.5 13.5l88 626h-171l-88 -626q-2 -9 -7.5 -13.5t-22 -6.5t-50.5 -2h-5q-37 0 -52.5 2zM727 2q-16 2 -19.5 6.5t-1.5 13.5l68 484q1 9 6 13.5
t21.5 6.5t54.5 2h5q34 0 49.5 -2t19.5 -6.5t3 -13.5l-68 -484q-2 -9 -7.5 -13.5t-21.5 -6.5t-50 -2h-5q-38 0 -54 2z" />
    <glyph glyph-name="f_f_l.liga" unicode="ffl" horiz-adv-x="993" 
d="M34.5 -231q-15.5 2 -19 6.5t-1.5 13.5l88 626h-58q-9 0 -12.5 3t-3.5 14q0 3 4 37l1 7q4 26 6.5 36t7 13t13.5 3h57l4 23q19 110 79 166q59 53 155 53q32 0 63 -5.5t50 -13.5q7 -3 7 -12q0 -11 -12 -43l-6 -16q-13 -31 -18.5 -38.5t-15.5 -4.5q-32 8 -59 8
q-22 0 -35.5 -5.5t-24.5 -17.5q-18 -21 -26 -75l-2 -19h172l1 6q8 60 29.5 102.5t57.5 72.5q76 61 208 61q56 0 108 -13t81 -33q12 -8 17 -15.5t5 -22.5q0 -5 -2 -21q-5 -55 -27 -215l-42 -298l-2 -17q0 -10 4.5 -14.5t14.5 -4.5h14q7 0 10 -2.5t3 -11.5q0 -3 -4 -37l-1 -9
q-4 -28 -8.5 -37.5t-13.5 -13.5q-25 -10 -73 -10q-60 0 -86 31q-22 25 -22 70q0 21 7 67l43 308q13 99 19 164q-26 10 -61 10q-53 0 -81 -27q-17 -15 -27 -36.5t-14 -53.5h99q8 0 11.5 -3t3.5 -14q0 -15 -4 -39l-1 -7q-4 -27 -7 -37t-6 -11.5t-13 -1.5h-99l-87 -626
q-2 -9 -7 -13.5t-21.5 -6.5t-50.5 -2h-5q-37 0 -53 2t-19.5 6.5t-1.5 13.5l87 626h-172l-88 -626q-2 -9 -7.5 -13.5t-22 -6.5t-50.5 -2h-5q-37 0 -52.5 2z" />
    <glyph glyph-name="fi" unicode="fi" horiz-adv-x="638" 
d="M35 -231q-16 2 -19.5 6.5t-1.5 13.5l86 620h-61q-8 0 -11 3.5t-3 14.5q0 16 4 41l1 7q4 26 7 37t7 13.5t12 2.5h61l1 13q16 107 82 164q73 65 208 65q105 0 189 -42q8 -5 8 -10q0 -10 -17 -44l-9 -19q-11 -23 -18 -32t-14 -9q-2 0 -10 2q-65 29 -133 29q-60 0 -91 -28
q-30 -28 -37 -89h99q8 0 11.5 -3t3.5 -14q0 -15 -4 -39l-1 -7q-4 -27 -7 -38.5t-7.5 -14.5t-12.5 -3h-99l-86 -620q-2 -9 -7.5 -13.5t-22 -6.5t-50.5 -2h-5q-37 0 -53 2zM398 2q-16 2 -19.5 6.5t-1.5 13.5l68 484q1 9 6 13.5t21.5 6.5t54.5 2h5q34 0 49.5 -2t19.5 -6.5
t3 -13.5l-68 -484q-2 -9 -7.5 -13.5t-21.5 -6.5t-50 -2h-5q-38 0 -54 2z" />
    <glyph glyph-name="fl" unicode="fl" horiz-adv-x="662" 
d="M35 -231q-16 2 -19.5 6.5t-1.5 13.5l86 620h-61q-8 0 -11.5 3t-3.5 14q0 15 4 39l1 7q4 27 7 38.5t7.5 14.5t12.5 3h61l1 6q8 60 29.5 102.5t57.5 72.5q76 61 208 61q56 0 108 -13t81 -33q12 -8 17 -15.5t5 -22.5q0 -5 -2 -21q-5 -55 -27 -215l-42 -298l-2 -17
q0 -10 4.5 -14.5t14.5 -4.5h14q7 0 10 -2.5t3 -11.5q0 -3 -4 -37l-1 -9q-4 -28 -8.5 -37.5t-13.5 -13.5q-25 -10 -73 -10q-60 0 -86 31q-22 25 -22 70q0 21 7 67l43 308q13 99 19 164q-26 10 -61 10q-53 0 -81 -27q-17 -15 -27 -36.5t-14 -53.5h99q8 0 11.5 -3t3.5 -14
q0 -15 -4 -39l-1 -7q-4 -27 -7 -38.5t-7.5 -14.5t-12.5 -3h-99l-86 -620q-2 -9 -7 -13.5t-21.5 -6.5t-50.5 -2h-5q-37 0 -53 2z" />
    <glyph glyph-name=".notdef" horiz-adv-x="694" 
d="M90 720h514v-720h-514v720zM522 669h-350l176 -263zM316 360l-174 262v-524zM553 622l-175 -262l175 -262v524zM522 52l-174 262l-176 -262h350z" />
    <glyph glyph-name=".null" horiz-adv-x="0" 
 />
    <glyph glyph-name="nonmarkingreturn" unicode="&#xd;" horiz-adv-x="241" 
 />
    <glyph glyph-name="space" unicode=" " horiz-adv-x="241" 
 />
    <glyph glyph-name="A" unicode="A" horiz-adv-x="720" 
d="M-25 1.5q-13 1.5 -13 7.5q0 2 4 10l355 684q5 8 10.5 11.5t19 4.5t46.5 1h12q34 0 48 -1t18.5 -4.5t6.5 -11.5l175 -683q2 -9 -2.5 -13t-20.5 -5.5t-53 -1.5h-9q-37 0 -53.5 1t-23 5t-8.5 13l-38 160h-235l-79 -160q-4 -9 -11.5 -12.5t-24 -5t-53.5 -1.5h-17
q-41 0 -54 1.5zM420 308l-11 50q-25 118 -30 173q-14 -39 -64 -142l-23 -49l-14 -32h142z" />
    <glyph glyph-name="Aacute" unicode="&#xc1;" horiz-adv-x="720" 
d="M-25 1.5q-13 1.5 -13 7.5q0 2 4 10l355 684q5 8 10.5 11.5t19 4.5t46.5 1h12q34 0 48 -1t18.5 -4.5t6.5 -11.5l175 -683q2 -9 -2.5 -13t-20.5 -5.5t-53 -1.5h-9q-37 0 -53.5 1t-23 5t-8.5 13l-38 160h-235l-79 -160q-4 -9 -11.5 -12.5t-24 -5t-53.5 -1.5h-17
q-41 0 -54 1.5zM420 308l-11 50q-25 118 -30 173q-14 -39 -64 -142l-23 -49l-14 -32h142zM329 786.5q-9 2.5 -9 9.5t7 15l122 158q8 10 18 12.5t44 2.5h40q26 0 38 -3.5t12 -10.5q0 -6 -9 -15l-145 -157q-7 -8 -19 -11t-38 -3h-32q-20 0 -29 2.5z" />
    <glyph glyph-name="Abreve" unicode="&#x102;" horiz-adv-x="720" 
d="M-25 1.5q-13 1.5 -13 7.5q0 2 4 10l355 684q5 8 10.5 11.5t19 4.5t46.5 1h12q34 0 48 -1t18.5 -4.5t6.5 -11.5l175 -683q2 -9 -2.5 -13t-20.5 -5.5t-53 -1.5h-9q-37 0 -53.5 1t-23 5t-8.5 13l-38 160h-235l-79 -160q-4 -9 -11.5 -12.5t-24 -5t-53.5 -1.5h-17
q-41 0 -54 1.5zM420 308l-11 50q-25 118 -30 173q-14 -39 -64 -142l-23 -49l-14 -32h142zM302.5 808.5q-38.5 32.5 -38.5 89.5q0 16 1 23q1 14 11.5 17.5t44.5 3.5h14q29 0 38.5 -4t8.5 -14q-2 -23 8 -36t30 -13q21 0 34 12t19 37q2 10 12.5 14t40.5 4h14q34 0 43 -3.5
t6 -17.5q-13 -68 -60.5 -106.5t-117.5 -38.5t-108.5 32.5z" />
    <glyph glyph-name="uni01CD" unicode="&#x1cd;" horiz-adv-x="720" 
d="M-25 1.5q-13 1.5 -13 7.5q0 2 4 10l355 684q5 8 10.5 11.5t19 4.5t46.5 1h12q34 0 48 -1t18.5 -4.5t6.5 -11.5l175 -683q2 -9 -2.5 -13t-20.5 -5.5t-53 -1.5h-9q-37 0 -53.5 1t-23 5t-8.5 13l-38 160h-235l-79 -160q-4 -9 -11.5 -12.5t-24 -5t-53.5 -1.5h-17
q-41 0 -54 1.5zM420 308l-11 50q-25 118 -30 173q-14 -39 -64 -142l-23 -49l-14 -32h142zM361 785q-12 4 -23 17l-75 95q-4 6 -4 9q0 11 28 34l12 10q26 22 37 22q6 0 12 -6l78 -80l101 80q11 7 15 7q11 0 32 -25l8 -10q18 -22 18 -30q0 -5 -6 -11l-104 -95q-14 -13 -28 -17
t-45 -4h-12q-32 0 -44 4z" />
    <glyph glyph-name="Acircumflex" unicode="&#xc2;" horiz-adv-x="720" 
d="M-25 1.5q-13 1.5 -13 7.5q0 2 4 10l355 684q5 8 10.5 11.5t19 4.5t46.5 1h12q34 0 48 -1t18.5 -4.5t6.5 -11.5l175 -683q2 -9 -2.5 -13t-20.5 -5.5t-53 -1.5h-9q-37 0 -53.5 1t-23 5t-8.5 13l-38 160h-235l-79 -160q-4 -9 -11.5 -12.5t-24 -5t-53.5 -1.5h-17
q-41 0 -54 1.5zM420 308l-11 50q-25 118 -30 173q-14 -39 -64 -142l-23 -49l-14 -32h142zM319 786q-11 0 -32 25l-8 10q-18 23 -18 31q0 6 6 10l100 92q15 14 27.5 17.5t45.5 3.5h12q33 0 44.5 -3.5t22.5 -17.5l74 -92q4 -4 4 -10q0 -5 -6 -12t-20 -19l-12 -10
q-28 -24 -39 -24q-6 0 -12 6l-74 77l-102 -79q-8 -5 -13 -5z" />
    <glyph glyph-name="Adieresis" unicode="&#xc4;" horiz-adv-x="720" 
d="M-25 1.5q-13 1.5 -13 7.5q0 2 4 10l355 684q5 8 10.5 11.5t19 4.5t46.5 1h12q34 0 48 -1t18.5 -4.5t6.5 -11.5l175 -683q2 -9 -2.5 -13t-20.5 -5.5t-53 -1.5h-9q-37 0 -53.5 1t-23 5t-8.5 13l-38 160h-235l-79 -160q-4 -9 -11.5 -12.5t-24 -5t-53.5 -1.5h-17
q-41 0 -54 1.5zM420 308l-11 50q-25 118 -30 173q-14 -39 -64 -142l-23 -49l-14 -32h142zM257 808q-20 19 -20 49q0 38 28 66.5t69 28.5q32 0 52 -19.5t20 -49.5q0 -37 -28 -65.5t-67 -28.5q-34 0 -54 19zM470 808q-20 19 -20 49q0 38 28 66.5t69 28.5q32 0 52 -19.5
t20 -49.5q0 -37 -28 -65.5t-67 -28.5q-34 0 -54 19z" />
    <glyph glyph-name="Agrave" unicode="&#xc0;" horiz-adv-x="720" 
d="M-25 1.5q-13 1.5 -13 7.5q0 2 4 10l355 684q5 8 10.5 11.5t19 4.5t46.5 1h12q34 0 48 -1t18.5 -4.5t6.5 -11.5l175 -683q2 -9 -2.5 -13t-20.5 -5.5t-53 -1.5h-9q-37 0 -53.5 1t-23 5t-8.5 13l-38 160h-235l-79 -160q-4 -9 -11.5 -12.5t-24 -5t-53.5 -1.5h-17
q-41 0 -54 1.5zM420 308l-11 50q-25 118 -30 173q-14 -39 -64 -142l-23 -49l-14 -32h142zM395 787q-12 3 -16 11l-101 157q-4 7 -4 12q0 9 11.5 13t39.5 4h36q33 0 47 -5t19 -15l76 -153q3 -6 3 -12q0 -8 -10 -11.5t-32 -3.5h-32q-25 0 -37 3z" />
    <glyph glyph-name="Amacron" unicode="&#x100;" horiz-adv-x="720" 
d="M-25 1.5q-13 1.5 -13 7.5q0 2 4 10l355 684q5 8 10.5 11.5t19 4.5t46.5 1h12q34 0 48 -1t18.5 -4.5t6.5 -11.5l175 -683q2 -9 -2.5 -13t-20.5 -5.5t-53 -1.5h-9q-37 0 -53.5 1t-23 5t-8.5 13l-38 160h-235l-79 -160q-4 -9 -11.5 -12.5t-24 -5t-53.5 -1.5h-17
q-41 0 -54 1.5zM420 308l-11 50q-25 118 -30 173q-14 -39 -64 -142l-23 -49l-14 -32h142zM275.5 821q-2.5 3 -2.5 13q0 14 4 38l1 7q4 31 8 39.5t13 8.5h274q6 0 8.5 -3.5t2.5 -13.5t-3 -34l-1 -7q-5 -34 -9 -42.5t-13 -8.5h-274q-6 0 -8.5 3z" />
    <glyph glyph-name="Aogonek" unicode="&#x104;" horiz-adv-x="720" 
d="M416 -219q-30 27 -30 71q0 45 29 87.5t74 68.5l-40 171h-235l-79 -160q-4 -9 -11.5 -12.5t-24 -5t-53.5 -1.5h-17q-41 0 -54 1.5t-13 7.5q0 2 4 10l355 684q5 8 10.5 11.5t19 4.5t46.5 1h12q34 0 48 -1t18.5 -4.5t6.5 -11.5l173 -675q1 -4 1 -9q0 -9 -11 -12
q-58 -18 -96 -51t-38 -71q0 -13 7 -21t21 -8t41 9q8 2 12.5 -3t9.5 -28l2 -9q4 -17 4 -28q0 -7 -2.5 -11t-7.5 -7q-48 -25 -97 -25q-55 0 -85 27zM420 308l-11 50q-25 118 -30 173q-14 -39 -64 -142l-23 -49l-14 -32h142z" />
    <glyph glyph-name="Aring" unicode="&#xc5;" horiz-adv-x="720" 
d="M655 7q-5 -4 -21 -5.5t-53 -1.5h-9q-37 0 -53.5 1t-23 5t-8.5 13l-38 160h-235l-79 -160q-4 -9 -11.5 -12.5t-24 -5t-53.5 -1.5h-17q-41 0 -54 1.5t-13 7.5q0 2 4 10l360 694q-33 30 -33 75q0 34 18 64.5t49.5 49.5t70.5 19q47 0 76.5 -28t29.5 -74q0 -30 -15.5 -58.5
t-42.5 -46.5l178 -694q3 -9 -2 -13zM392.5 827q-10.5 -10 -10.5 -29q0 -12 7.5 -19.5t20.5 -7.5q14 0 25 10.5t11 26.5q0 13 -7.5 21t-21.5 8t-24.5 -10zM420 308l-11 50q-25 118 -30 173q-14 -39 -64 -142l-23 -49l-14 -32h142z" />
    <glyph glyph-name="Aringacute" unicode="&#x1fa;" horiz-adv-x="720" 
d="M329 951.5q-9 2.5 -9 9.5t7 15l122 158q8 10 18 12.5t44 2.5h40q26 0 38 -3.5t12 -10.5q0 -6 -9 -15l-145 -157q-7 -8 -19 -11t-38 -3h-32q-20 0 -29 2.5zM655 7q-5 -4 -21 -5.5t-53 -1.5h-9q-37 0 -53.5 1t-23 5t-8.5 13l-38 160h-235l-79 -160q-4 -9 -11.5 -12.5
t-24 -5t-53.5 -1.5h-17q-41 0 -54 1.5t-13 7.5q0 2 4 10l360 694q-33 30 -33 75q0 34 18 64.5t49.5 49.5t70.5 19q47 0 76.5 -28t29.5 -74q0 -30 -15.5 -58.5t-42.5 -46.5l178 -694q3 -9 -2 -13zM392.5 827q-10.5 -10 -10.5 -29q0 -12 7.5 -19.5t20.5 -7.5q14 0 25 10.5
t11 26.5q0 13 -7.5 21t-21.5 8t-24.5 -10zM420 308l-11 50q-25 118 -30 173q-14 -39 -64 -142l-23 -49l-14 -32h142z" />
    <glyph glyph-name="Atilde" unicode="&#xc3;" horiz-adv-x="720" 
d="M-25 1.5q-13 1.5 -13 7.5q0 2 4 10l355 684q5 8 10.5 11.5t19 4.5t46.5 1h12q34 0 48 -1t18.5 -4.5t6.5 -11.5l175 -683q2 -9 -2.5 -13t-20.5 -5.5t-53 -1.5h-9q-37 0 -53.5 1t-23 5t-8.5 13l-38 160h-235l-79 -160q-4 -9 -11.5 -12.5t-24 -5t-53.5 -1.5h-17
q-41 0 -54 1.5zM420 308l-11 50q-25 118 -30 173q-14 -39 -64 -142l-23 -49l-14 -32h142zM451.5 815q-15.5 5 -32.5 14q-16 9 -26 13t-24 4q-25 0 -55 -34q-5 -5 -10 -5q-11 0 -33 26l-5 6q-19 23 -19 30q0 6 6 12q27 32 57.5 50t60.5 18q21 0 34.5 -5t31.5 -14
q14 -8 24.5 -11.5t25.5 -3.5q29 0 64 32q6 4 8 4q10 0 31 -25l5 -6q17 -21 17 -32q0 -5 -5 -12q-24 -30 -54.5 -48t-62.5 -18q-23 0 -38.5 5z" />
    <glyph glyph-name="AE" unicode="&#xc6;" horiz-adv-x="1036" 
d="M-32 3.5q-15 3.5 -15 11.5q0 6 6 13l524 672q10 13 22.5 16.5t47.5 3.5h453q9 0 12 -3t3 -16t-3 -43l-1 -9q-4 -41 -10 -53t-18 -12h-283l-21 -152h240q8 0 11 -3t3 -14q0 -12 -3 -45l-1 -9q-4 -41 -10 -53t-18 -12h-241l-22 -160h285q9 0 12 -3.5t3 -17.5q0 -22 -2 -41
l-1 -9q-4 -41 -10 -53t-18 -12h-411q-30 0 -37.5 4t-5.5 16l21 150h-238l-112 -149q-10 -13 -26 -17t-61 -4h-25q-35 0 -50 3.5zM497 292l37 273q-57 -82 -110 -153l-90 -120h163z" />
    <glyph glyph-name="AEacute" unicode="&#x1fc;" horiz-adv-x="1036" 
d="M-32 3.5q-15 3.5 -15 11.5q0 6 6 13l524 672q10 13 22.5 16.5t47.5 3.5h453q9 0 12 -3t3 -16t-3 -43l-1 -9q-4 -41 -10 -53t-18 -12h-283l-21 -152h240q8 0 11 -3t3 -14q0 -12 -3 -45l-1 -9q-4 -41 -10 -53t-18 -12h-241l-22 -160h285q9 0 12 -3.5t3 -17.5q0 -22 -2 -41
l-1 -9q-4 -41 -10 -53t-18 -12h-411q-30 0 -37.5 4t-5.5 16l21 150h-238l-112 -149q-10 -13 -26 -17t-61 -4h-25q-35 0 -50 3.5zM497 292l37 273q-57 -82 -110 -153l-90 -120h163zM603 786.5q-9 2.5 -9 9.5t7 15l122 158q8 10 18 12.5t44 2.5h40q26 0 38 -3.5t12 -10.5
q0 -6 -9 -15l-145 -157q-7 -8 -19 -11t-38 -3h-32q-20 0 -29 2.5z" />
    <glyph glyph-name="B" unicode="B" horiz-adv-x="665" 
d="M32 3.5q-7 3.5 -5 16.5l94 680q2 14 10.5 17t39.5 3h154q133 0 206.5 -41t73.5 -135q0 -57 -38.5 -100t-89.5 -59q56 -20 88 -59t32 -95q0 -118 -92.5 -174.5t-243.5 -56.5h-194q-28 0 -35 3.5zM317 434q54 0 83.5 20.5t29.5 62.5q0 38 -29 53t-83 15h-43l-21 -151h63z
M290 134q68 0 102.5 23t34.5 76q0 39 -31.5 55.5t-99.5 16.5h-60l-24 -171h78z" />
    <glyph glyph-name="C" unicode="C" horiz-adv-x="628" 
d="M105.5 69q-77.5 79 -77.5 224q0 109 43 209t130 164t212 64q64 0 119.5 -16t92.5 -43q9 -6 9 -16q0 -11 -22 -48l-16 -26q-13 -21 -21 -29.5t-15 -8.5q-5 0 -13 5q-73 39 -144 39q-65 0 -110.5 -37.5t-68 -100t-22.5 -137.5q0 -93 38.5 -135t123.5 -42q67 0 145 33
q6 3 10 3q7 0 13 -8t13 -28l11 -29q10 -23 10 -35q0 -7 -4 -11.5t-15 -11.5q-46 -28 -104.5 -43t-120.5 -15q-139 0 -216.5 79z" />
    <glyph glyph-name="Cacute" unicode="&#x106;" horiz-adv-x="628" 
d="M105.5 69q-77.5 79 -77.5 224q0 109 43 209t130 164t212 64q64 0 119.5 -16t92.5 -43q9 -6 9 -16q0 -11 -22 -48l-16 -26q-13 -21 -21 -29.5t-15 -8.5q-5 0 -13 5q-73 39 -144 39q-65 0 -110.5 -37.5t-68 -100t-22.5 -137.5q0 -93 38.5 -135t123.5 -42q67 0 145 33
q6 3 10 3q7 0 13 -8t13 -28l11 -29q10 -23 10 -35q0 -7 -4 -11.5t-15 -11.5q-46 -28 -104.5 -43t-120.5 -15q-139 0 -216.5 79zM333 786.5q-9 2.5 -9 9.5t7 15l122 158q8 10 18 12.5t44 2.5h40q26 0 38 -3.5t12 -10.5q0 -6 -9 -15l-145 -157q-7 -8 -19 -11t-38 -3h-32
q-20 0 -29 2.5z" />
    <glyph glyph-name="Cacute.loclPLK" horiz-adv-x="628" 
d="M105.5 69q-77.5 79 -77.5 224q0 109 43 209t130 164t212 64q64 0 119.5 -16t92.5 -43q9 -6 9 -16q0 -11 -22 -48l-16 -26q-13 -21 -21 -29.5t-15 -8.5q-5 0 -13 5q-73 39 -144 39q-65 0 -110.5 -37.5t-68 -100t-22.5 -137.5q0 -93 38.5 -135t123.5 -42q67 0 145 33
q6 3 10 3q7 0 13 -8t13 -28l11 -29q10 -23 10 -35q0 -7 -4 -11.5t-15 -11.5q-46 -28 -104.5 -43t-120.5 -15q-139 0 -216.5 79zM360 787q-10 3 -10 11q0 3 4 13l68 155q5 11 16.5 14.5t42.5 3.5h43q27 0 37.5 -2.5t10.5 -9.5q0 -5 -7 -17l-90 -153q-7 -12 -16 -15t-35 -3
h-29q-25 0 -35 3z" />
    <glyph glyph-name="Ccaron" unicode="&#x10c;" horiz-adv-x="628" 
d="M105.5 69q-77.5 79 -77.5 224q0 109 43 209t130 164t212 64q64 0 119.5 -16t92.5 -43q9 -6 9 -16q0 -11 -22 -48l-16 -26q-13 -21 -21 -29.5t-15 -8.5q-5 0 -13 5q-73 39 -144 39q-65 0 -110.5 -37.5t-68 -100t-22.5 -137.5q0 -93 38.5 -135t123.5 -42q67 0 145 33
q6 3 10 3q7 0 13 -8t13 -28l11 -29q10 -23 10 -35q0 -7 -4 -11.5t-15 -11.5q-46 -28 -104.5 -43t-120.5 -15q-139 0 -216.5 79zM365 785q-12 4 -23 17l-75 95q-4 6 -4 9q0 11 28 34l12 10q26 22 37 22q6 0 12 -6l78 -80l101 80q11 7 15 7q11 0 32 -25l8 -10q18 -22 18 -30
q0 -5 -6 -11l-104 -95q-14 -13 -28 -17t-45 -4h-12q-32 0 -44 4z" />
    <glyph glyph-name="Ccedilla" unicode="&#xc7;" horiz-adv-x="628" 
d="M634 655q0 -11 -22 -48l-16 -26q-13 -21 -21 -29.5t-15 -8.5q-5 0 -13 5q-73 39 -144 39q-65 0 -110.5 -37.5t-68 -100t-22.5 -137.5q0 -93 38.5 -135t123.5 -42q67 0 145 33q6 3 10 3q7 0 13 -8t13 -28l11 -29q10 -23 10 -35q0 -7 -4 -11.5t-15 -11.5
q-39 -24 -89.5 -38.5t-104.5 -18.5l-7 -29h6q42 0 68 -19t26 -57q0 -62 -42.5 -95.5t-106.5 -33.5q-44 0 -81 14q-8 3 -8 10q0 8 9 29l5 11q10 21 14.5 25.5t13.5 2.5q23 -7 46 -7q37 0 37 30q0 12 -9.5 17t-27.5 5q-30 0 -59 -7l31 106q-114 15 -177 92.5t-63 207.5
q0 109 43 209t130 164t212 64q64 0 119.5 -16t92.5 -43q9 -6 9 -16z" />
    <glyph glyph-name="Ccircumflex" unicode="&#x108;" horiz-adv-x="628" 
d="M105.5 69q-77.5 79 -77.5 224q0 109 43 209t130 164t212 64q64 0 119.5 -16t92.5 -43q9 -6 9 -16q0 -11 -22 -48l-16 -26q-13 -21 -21 -29.5t-15 -8.5q-5 0 -13 5q-73 39 -144 39q-65 0 -110.5 -37.5t-68 -100t-22.5 -137.5q0 -93 38.5 -135t123.5 -42q67 0 145 33
q6 3 10 3q7 0 13 -8t13 -28l11 -29q10 -23 10 -35q0 -7 -4 -11.5t-15 -11.5q-46 -28 -104.5 -43t-120.5 -15q-139 0 -216.5 79zM323 786q-11 0 -32 25l-8 10q-18 23 -18 31q0 6 6 10l100 92q15 14 27.5 17.5t45.5 3.5h12q33 0 44.5 -3.5t22.5 -17.5l74 -92q4 -4 4 -10
q0 -5 -6 -12t-20 -19l-12 -10q-28 -24 -39 -24q-6 0 -12 6l-74 77l-102 -79q-8 -5 -13 -5z" />
    <glyph glyph-name="Cdotaccent" unicode="&#x10a;" horiz-adv-x="628" 
d="M105.5 69q-77.5 79 -77.5 224q0 109 43 209t130 164t212 64q64 0 119.5 -16t92.5 -43q9 -6 9 -16q0 -11 -22 -48l-16 -26q-13 -21 -21 -29.5t-15 -8.5q-5 0 -13 5q-73 39 -144 39q-65 0 -110.5 -37.5t-68 -100t-22.5 -137.5q0 -93 38.5 -135t123.5 -42q67 0 145 33
q6 3 10 3q7 0 13 -8t13 -28l11 -29q10 -23 10 -35q0 -7 -4 -11.5t-15 -11.5q-46 -28 -104.5 -43t-120.5 -15q-139 0 -216.5 79zM367 793.5q-20 20.5 -20 50.5q0 38 27.5 64.5t66.5 26.5q31 0 51 -20.5t20 -50.5q0 -39 -27 -65t-66 -26q-32 0 -52 20.5z" />
    <glyph glyph-name="D" unicode="D" horiz-adv-x="721" 
d="M686 441q0 -109 -36.5 -202.5t-113.5 -157.5q-51 -42 -122 -61.5t-169 -19.5h-165q-37 0 -46.5 4t-7.5 18l95 675q2 11 6.5 15.5t16 6t37.5 1.5h159q208 0 286 -92q60 -69 60 -187zM494 294q21 63 21 141q0 82 -44 116.5t-135 34.5h-64l-63 -452h61q112 0 163 54
q40 43 61 106z" />
    <glyph glyph-name="Eth" unicode="&#xd0;" horiz-adv-x="734" 
d="M699 441q0 -109 -36.5 -202.5t-113.5 -157.5q-51 -42 -122 -61.5t-169 -19.5h-165q-37 0 -46.5 4t-7.5 18l39 280h-44q-12 0 -17.5 5.5t-5.5 21.5q0 11 3 32l2 12q4 25 8 36t10 14t17 3h45l38 271q2 11 6.5 15.5t16 6t37.5 1.5h159q208 0 286 -92q60 -69 60 -187z
M507 294q21 63 21 141q0 82 -44 116.5t-135 34.5h-64l-22 -160h91q13 0 18.5 -4.5t5.5 -19.5t-4 -35l-2 -12q-4 -25 -8 -36t-10 -14t-17 -3h-92l-23 -168h61q112 0 163 54q40 43 61 106z" />
    <glyph glyph-name="Dcaron" unicode="&#x10e;" horiz-adv-x="721" 
d="M686 441q0 -109 -36.5 -202.5t-113.5 -157.5q-51 -42 -122 -61.5t-169 -19.5h-165q-37 0 -46.5 4t-7.5 18l95 675q2 11 6.5 15.5t16 6t37.5 1.5h159q208 0 286 -92q60 -69 60 -187zM494 294q21 63 21 141q0 82 -44 116.5t-135 34.5h-64l-63 -452h61q112 0 163 54
q40 43 61 106zM372 785q-12 4 -23 17l-75 95q-4 6 -4 9q0 11 28 34l12 10q26 22 37 22q6 0 12 -6l78 -80l101 80q11 7 15 7q11 0 32 -25l8 -10q18 -22 18 -30q0 -5 -6 -11l-104 -95q-14 -13 -28 -17t-45 -4h-12q-32 0 -44 4z" />
    <glyph glyph-name="Dcroat" unicode="&#x110;" horiz-adv-x="734" 
d="M699 441q0 -109 -36.5 -202.5t-113.5 -157.5q-51 -42 -122 -61.5t-169 -19.5h-165q-37 0 -46.5 4t-7.5 18l39 280h-44q-12 0 -17.5 5.5t-5.5 21.5q0 11 3 32l2 12q4 25 8 36t10 14t17 3h45l38 271q2 11 6.5 15.5t16 6t37.5 1.5h159q208 0 286 -92q60 -69 60 -187z
M507 294q21 63 21 141q0 82 -44 116.5t-135 34.5h-64l-22 -160h91q13 0 18.5 -4.5t5.5 -19.5t-4 -35l-2 -12q-4 -25 -8 -36t-10 -14t-17 -3h-92l-23 -168h61q112 0 163 54q40 43 61 106z" />
    <glyph glyph-name="E" unicode="E" horiz-adv-x="608" 
d="M32.5 4q-7.5 4 -5.5 16l94 680q2 13 10 16.5t39 3.5h408q9 0 12 -3t3 -16t-3 -43l-1 -9q-4 -41 -10 -53t-18 -12h-287l-21 -152h244q8 0 11 -3t3 -14q0 -12 -3 -45l-1 -9q-4 -41 -10 -53t-18 -12h-245l-22 -160h289q9 0 12 -3.5t3 -17.5q0 -22 -2 -41l-1 -9
q-4 -41 -10 -53t-18 -12h-415q-30 0 -37.5 4z" />
    <glyph glyph-name="Eacute" unicode="&#xc9;" horiz-adv-x="608" 
d="M32.5 4q-7.5 4 -5.5 16l94 680q2 13 10 16.5t39 3.5h408q9 0 12 -3t3 -16t-3 -43l-1 -9q-4 -41 -10 -53t-18 -12h-287l-21 -152h244q8 0 11 -3t3 -14q0 -12 -3 -45l-1 -9q-4 -41 -10 -53t-18 -12h-245l-22 -160h289q9 0 12 -3.5t3 -17.5q0 -22 -2 -41l-1 -9
q-4 -41 -10 -53t-18 -12h-415q-30 0 -37.5 4zM273 786.5q-9 2.5 -9 9.5t7 15l122 158q8 10 18 12.5t44 2.5h40q26 0 38 -3.5t12 -10.5q0 -6 -9 -15l-145 -157q-7 -8 -19 -11t-38 -3h-32q-20 0 -29 2.5z" />
    <glyph glyph-name="Ebreve" unicode="&#x114;" horiz-adv-x="608" 
d="M32.5 4q-7.5 4 -5.5 16l94 680q2 13 10 16.5t39 3.5h408q9 0 12 -3t3 -16t-3 -43l-1 -9q-4 -41 -10 -53t-18 -12h-287l-21 -152h244q8 0 11 -3t3 -14q0 -12 -3 -45l-1 -9q-4 -41 -10 -53t-18 -12h-245l-22 -160h289q9 0 12 -3.5t3 -17.5q0 -22 -2 -41l-1 -9
q-4 -41 -10 -53t-18 -12h-415q-30 0 -37.5 4zM246.5 808.5q-38.5 32.5 -38.5 89.5q0 16 1 23q1 14 11.5 17.5t44.5 3.5h14q29 0 38.5 -4t8.5 -14q-2 -23 8 -36t30 -13q21 0 34 12t19 37q2 10 12.5 14t40.5 4h14q34 0 43 -3.5t6 -17.5q-13 -68 -60.5 -106.5t-117.5 -38.5
t-108.5 32.5z" />
    <glyph glyph-name="Ecaron" unicode="&#x11a;" horiz-adv-x="608" 
d="M32.5 4q-7.5 4 -5.5 16l94 680q2 13 10 16.5t39 3.5h408q9 0 12 -3t3 -16t-3 -43l-1 -9q-4 -41 -10 -53t-18 -12h-287l-21 -152h244q8 0 11 -3t3 -14q0 -12 -3 -45l-1 -9q-4 -41 -10 -53t-18 -12h-245l-22 -160h289q9 0 12 -3.5t3 -17.5q0 -22 -2 -41l-1 -9
q-4 -41 -10 -53t-18 -12h-415q-30 0 -37.5 4zM305 785q-12 4 -23 17l-75 95q-4 6 -4 9q0 11 28 34l12 10q26 22 37 22q6 0 12 -6l78 -80l101 80q11 7 15 7q11 0 32 -25l8 -10q18 -22 18 -30q0 -5 -6 -11l-104 -95q-14 -13 -28 -17t-45 -4h-12q-32 0 -44 4z" />
    <glyph glyph-name="Ecircumflex" unicode="&#xca;" horiz-adv-x="608" 
d="M32.5 4q-7.5 4 -5.5 16l94 680q2 13 10 16.5t39 3.5h408q9 0 12 -3t3 -16t-3 -43l-1 -9q-4 -41 -10 -53t-18 -12h-287l-21 -152h244q8 0 11 -3t3 -14q0 -12 -3 -45l-1 -9q-4 -41 -10 -53t-18 -12h-245l-22 -160h289q9 0 12 -3.5t3 -17.5q0 -22 -2 -41l-1 -9
q-4 -41 -10 -53t-18 -12h-415q-30 0 -37.5 4zM263 786q-11 0 -32 25l-8 10q-18 23 -18 31q0 6 6 10l100 92q15 14 27.5 17.5t45.5 3.5h12q33 0 44.5 -3.5t22.5 -17.5l74 -92q4 -4 4 -10q0 -5 -6 -12t-20 -19l-12 -10q-28 -24 -39 -24q-6 0 -12 6l-74 77l-102 -79
q-8 -5 -13 -5z" />
    <glyph glyph-name="Edieresis" unicode="&#xcb;" horiz-adv-x="608" 
d="M32.5 4q-7.5 4 -5.5 16l94 680q2 13 10 16.5t39 3.5h408q9 0 12 -3t3 -16t-3 -43l-1 -9q-4 -41 -10 -53t-18 -12h-287l-21 -152h244q8 0 11 -3t3 -14q0 -12 -3 -45l-1 -9q-4 -41 -10 -53t-18 -12h-245l-22 -160h289q9 0 12 -3.5t3 -17.5q0 -22 -2 -41l-1 -9
q-4 -41 -10 -53t-18 -12h-415q-30 0 -37.5 4zM201 808q-20 19 -20 49q0 38 28 66.5t69 28.5q32 0 52 -19.5t20 -49.5q0 -37 -28 -65.5t-67 -28.5q-34 0 -54 19zM414 808q-20 19 -20 49q0 38 28 66.5t69 28.5q32 0 52 -19.5t20 -49.5q0 -37 -28 -65.5t-67 -28.5q-34 0 -54 19
z" />
    <glyph glyph-name="Edotaccent" unicode="&#x116;" horiz-adv-x="608" 
d="M32.5 4q-7.5 4 -5.5 16l94 680q2 13 10 16.5t39 3.5h408q9 0 12 -3t3 -16t-3 -43l-1 -9q-4 -41 -10 -53t-18 -12h-287l-21 -152h244q8 0 11 -3t3 -14q0 -12 -3 -45l-1 -9q-4 -41 -10 -53t-18 -12h-245l-22 -160h289q9 0 12 -3.5t3 -17.5q0 -22 -2 -41l-1 -9
q-4 -41 -10 -53t-18 -12h-415q-30 0 -37.5 4zM307 793.5q-20 20.5 -20 50.5q0 38 27.5 64.5t66.5 26.5q31 0 51 -20.5t20 -50.5q0 -39 -27 -65t-66 -26q-32 0 -52 20.5z" />
    <glyph glyph-name="Egrave" unicode="&#xc8;" horiz-adv-x="608" 
d="M32.5 4q-7.5 4 -5.5 16l94 680q2 13 10 16.5t39 3.5h408q9 0 12 -3t3 -16t-3 -43l-1 -9q-4 -41 -10 -53t-18 -12h-287l-21 -152h244q8 0 11 -3t3 -14q0 -12 -3 -45l-1 -9q-4 -41 -10 -53t-18 -12h-245l-22 -160h289q9 0 12 -3.5t3 -17.5q0 -22 -2 -41l-1 -9
q-4 -41 -10 -53t-18 -12h-415q-30 0 -37.5 4zM339 787q-12 3 -16 11l-101 157q-4 7 -4 12q0 9 11.5 13t39.5 4h36q33 0 47 -5t19 -15l76 -153q3 -6 3 -12q0 -8 -10 -11.5t-32 -3.5h-32q-25 0 -37 3z" />
    <glyph glyph-name="Emacron" unicode="&#x112;" horiz-adv-x="608" 
d="M32.5 4q-7.5 4 -5.5 16l94 680q2 13 10 16.5t39 3.5h408q9 0 12 -3t3 -16t-3 -43l-1 -9q-4 -41 -10 -53t-18 -12h-287l-21 -152h244q8 0 11 -3t3 -14q0 -12 -3 -45l-1 -9q-4 -41 -10 -53t-18 -12h-245l-22 -160h289q9 0 12 -3.5t3 -17.5q0 -22 -2 -41l-1 -9
q-4 -41 -10 -53t-18 -12h-415q-30 0 -37.5 4zM219.5 821q-2.5 3 -2.5 13q0 14 4 38l1 7q4 31 8 39.5t13 8.5h274q6 0 8.5 -3.5t2.5 -13.5t-3 -34l-1 -7q-5 -34 -9 -42.5t-13 -8.5h-274q-6 0 -8.5 3z" />
    <glyph glyph-name="Eogonek" unicode="&#x118;" horiz-adv-x="604" 
d="M268 -216.5q-30 29.5 -30 76.5q0 44 26 81t72 59h-266q-29 0 -37 4t-6 16l94 680q2 13 10 16.5t39 3.5h404q9 0 12 -3t3 -16t-3 -43l-1 -9q-4 -41 -10 -53t-18 -12h-283l-21 -152h240q8 0 11 -3t3 -14q0 -12 -3 -45l-1 -9q-4 -41 -10 -53t-18 -12h-241l-22 -160h285
q9 0 13 -4t4 -17q0 -16 -4 -41l-2 -12q-6 -36 -11 -46.5t-20 -14.5q-53 -15 -83.5 -44.5t-30.5 -66.5q0 -16 8.5 -25t22.5 -9q16 0 40 8q8 2 12 -3t9 -27l2 -9q3 -18 3 -28q0 -13 -9 -18q-48 -25 -98 -25q-55 0 -85 29.5z" />
    <glyph glyph-name="F" unicode="F" horiz-adv-x="586" 
d="M53 1q-18 1 -22 3.5t-3 9.5l93 686q2 13 9.5 16.5t39.5 3.5h422q9 0 13 -5t4 -18q0 -4 -4 -40l-1 -8q-5 -42 -10.5 -53.5t-17.5 -11.5h-302l-20 -152h256q8 0 10.5 -3.5t2.5 -15.5q0 -14 -3 -44l-1 -9q-3 -30 -6.5 -43.5t-8 -17t-12.5 -3.5h-258l-38 -282
q-2 -9 -16 -11.5t-64 -2.5h-14q-31 0 -49 1z" />
    <glyph glyph-name="G" unicode="G" horiz-adv-x="706" 
d="M107 64.5q-79 74.5 -79 219.5q0 122 46.5 223.5t136.5 162t215 60.5q74 0 130.5 -17t108.5 -52q10 -8 10 -15q0 -6 -6.5 -18t-22.5 -35l-13 -19q-13 -20 -21 -27.5t-15 -7.5q-4 0 -14 5q-83 43 -161 43t-127.5 -41.5t-71 -105t-21.5 -132.5q0 -89 40.5 -132.5
t123.5 -43.5q38 0 75 7l19 139h-102q-8 0 -12 5.5t-4 21.5q0 13 3 37l2 16q3 26 6.5 38t8 15t12.5 3h225q30 0 37.5 -3.5t6.5 -16.5l-45 -329q-2 -12 -5.5 -17.5t-13.5 -10.5q-37 -19 -105.5 -33t-135.5 -14q-152 0 -231 74.5z" />
    <glyph glyph-name="Gbreve" unicode="&#x11e;" horiz-adv-x="706" 
d="M107 64.5q-79 74.5 -79 219.5q0 122 46.5 223.5t136.5 162t215 60.5q74 0 130.5 -17t108.5 -52q10 -8 10 -15q0 -6 -6.5 -18t-22.5 -35l-13 -19q-13 -20 -21 -27.5t-15 -7.5q-4 0 -14 5q-83 43 -161 43t-127.5 -41.5t-71 -105t-21.5 -132.5q0 -89 40.5 -132.5
t123.5 -43.5q38 0 75 7l19 139h-102q-8 0 -12 5.5t-4 21.5q0 13 3 37l2 16q3 26 6.5 38t8 15t12.5 3h225q30 0 37.5 -3.5t6.5 -16.5l-45 -329q-2 -12 -5.5 -17.5t-13.5 -10.5q-37 -19 -105.5 -33t-135.5 -14q-152 0 -231 74.5zM329.5 808.5q-38.5 32.5 -38.5 89.5q0 16 1 23
q1 14 11.5 17.5t44.5 3.5h14q29 0 38.5 -4t8.5 -14q-2 -23 8 -36t30 -13q21 0 34 12t19 37q2 10 12.5 14t40.5 4h14q34 0 43 -3.5t6 -17.5q-13 -68 -60.5 -106.5t-117.5 -38.5t-108.5 32.5z" />
    <glyph glyph-name="Gcircumflex" unicode="&#x11c;" horiz-adv-x="706" 
d="M107 64.5q-79 74.5 -79 219.5q0 122 46.5 223.5t136.5 162t215 60.5q74 0 130.5 -17t108.5 -52q10 -8 10 -15q0 -6 -6.5 -18t-22.5 -35l-13 -19q-13 -20 -21 -27.5t-15 -7.5q-4 0 -14 5q-83 43 -161 43t-127.5 -41.5t-71 -105t-21.5 -132.5q0 -89 40.5 -132.5
t123.5 -43.5q38 0 75 7l19 139h-102q-8 0 -12 5.5t-4 21.5q0 13 3 37l2 16q3 26 6.5 38t8 15t12.5 3h225q30 0 37.5 -3.5t6.5 -16.5l-45 -329q-2 -12 -5.5 -17.5t-13.5 -10.5q-37 -19 -105.5 -33t-135.5 -14q-152 0 -231 74.5zM346 786q-11 0 -32 25l-8 10q-18 23 -18 31
q0 6 6 10l100 92q15 14 27.5 17.5t45.5 3.5h12q33 0 44.5 -3.5t22.5 -17.5l74 -92q4 -4 4 -10q0 -5 -6 -12t-20 -19l-12 -10q-28 -24 -39 -24q-6 0 -12 6l-74 77l-102 -79q-8 -5 -13 -5z" />
    <glyph glyph-name="Gcommaaccent" unicode="&#x122;" horiz-adv-x="706" 
d="M107 64.5q-79 74.5 -79 219.5q0 122 46.5 223.5t136.5 162t215 60.5q74 0 130.5 -17t108.5 -52q10 -8 10 -15q0 -6 -6.5 -18t-22.5 -35l-13 -19q-13 -20 -21 -27.5t-15 -7.5q-4 0 -14 5q-83 43 -161 43t-127.5 -41.5t-71 -105t-21.5 -132.5q0 -89 40.5 -132.5
t123.5 -43.5q38 0 75 7l19 139h-102q-8 0 -12 5.5t-4 21.5q0 13 3 37l2 16q3 26 6.5 38t8 15t12.5 3h225q30 0 37.5 -3.5t6.5 -16.5l-45 -329q-2 -12 -5.5 -17.5t-13.5 -10.5q-37 -19 -105.5 -33t-135.5 -14q-152 0 -231 74.5zM247 -330q-7 0 -18 13l-4 5q-11 14 -11 20
q0 4 5 9q56 56 56 96q0 11 -6 19.5t-7 10.5q-15 17 -15 35q0 30 24.5 51.5t56.5 21.5q31 0 48 -19t17 -51t-16.5 -68t-42.5 -69q-31 -37 -72 -68q-9 -6 -15 -6z" />
    <glyph glyph-name="Gdotaccent" unicode="&#x120;" horiz-adv-x="706" 
d="M107 64.5q-79 74.5 -79 219.5q0 122 46.5 223.5t136.5 162t215 60.5q74 0 130.5 -17t108.5 -52q10 -8 10 -15q0 -6 -6.5 -18t-22.5 -35l-13 -19q-13 -20 -21 -27.5t-15 -7.5q-4 0 -14 5q-83 43 -161 43t-127.5 -41.5t-71 -105t-21.5 -132.5q0 -89 40.5 -132.5
t123.5 -43.5q38 0 75 7l19 139h-102q-8 0 -12 5.5t-4 21.5q0 13 3 37l2 16q3 26 6.5 38t8 15t12.5 3h225q30 0 37.5 -3.5t6.5 -16.5l-45 -329q-2 -12 -5.5 -17.5t-13.5 -10.5q-37 -19 -105.5 -33t-135.5 -14q-152 0 -231 74.5zM390 793.5q-20 20.5 -20 50.5q0 38 27.5 64.5
t66.5 26.5q31 0 51 -20.5t20 -50.5q0 -39 -27 -65t-66 -26q-32 0 -52 20.5z" />
    <glyph glyph-name="H" unicode="H" horiz-adv-x="739" 
d="M52.5 1q-18.5 1 -22.5 4t-3 12l95 686q1 9 6 12.5t24 4t50 0.5h14q36 0 51 -1t20 -4.5t4 -11.5l-37 -271h251l37 271q1 9 6 12.5t24 4t50 0.5h13q36 0 51 -1t20 -4.5t4 -11.5l-94 -686q-2 -8 -7 -11.5t-24.5 -4.5t-49.5 -1h-15q-30 0 -48 1t-22 4t-3 12l39 279h-251
l-39 -279q-1 -8 -6.5 -11.5t-21 -4.5t-52.5 -1h-14q-31 0 -49.5 1z" />
    <glyph glyph-name="Hbar" unicode="&#x126;" horiz-adv-x="777" 
d="M811.5 630q5.5 -5 5.5 -21q0 -12 -3 -33l-2 -12q-4 -26 -8.5 -37t-9.5 -13.5t-17 -2.5h-75l-68 -494q-2 -8 -7 -11.5t-24.5 -4.5t-49.5 -1h-15q-30 0 -48 1t-22 4t-3 12l39 279h-251l-39 -279q-1 -8 -6.5 -11.5t-21 -4.5t-52.5 -1h-14q-31 0 -49.5 1t-22.5 4t-3 12
l68 494h-74q-12 0 -17.5 5t-5.5 21q0 12 3 33l2 12q6 35 12.5 44t22.5 9h75l9 68q1 9 6 12.5t24 4t50 0.5h14q36 0 51 -1t20 -4.5t4 -11.5l-9 -68h251l9 68q1 9 6 12.5t24 4t50 0.5h13q36 0 51 -1t20 -4.5t4 -11.5l-9 -68h75q12 0 17.5 -5zM534 511h-251l-11 -79h251z" />
    <glyph glyph-name="Hcircumflex" unicode="&#x124;" horiz-adv-x="739" 
d="M52.5 1q-18.5 1 -22.5 4t-3 12l95 686q1 9 6 12.5t24 4t50 0.5h14q36 0 51 -1t20 -4.5t4 -11.5l-37 -271h251l37 271q1 9 6 12.5t24 4t50 0.5h13q36 0 51 -1t20 -4.5t4 -11.5l-94 -686q-2 -8 -7 -11.5t-24.5 -4.5t-49.5 -1h-15q-30 0 -48 1t-22 4t-3 12l39 279h-251
l-39 -279q-1 -8 -6.5 -11.5t-21 -4.5t-52.5 -1h-14q-31 0 -49.5 1zM327 786q-11 0 -32 25l-8 10q-18 23 -18 31q0 6 6 10l100 92q15 14 27.5 17.5t45.5 3.5h12q33 0 44.5 -3.5t22.5 -17.5l74 -92q4 -4 4 -10q0 -5 -6 -12t-20 -19l-12 -10q-28 -24 -39 -24q-6 0 -12 6l-74 77
l-102 -79q-8 -5 -13 -5z" />
    <glyph glyph-name="I" unicode="I" horiz-adv-x="329" 
d="M52 1q-15 1 -19 4.5t-3 11.5l95 686q1 9 6 12t24 4t50 1h14q36 0 51.5 -1t20 -4.5t3.5 -11.5l-95 -686q-1 -8 -6.5 -11.5t-21 -4.5t-51.5 -1h-15q-38 0 -53 1z" />
    <glyph glyph-name="IJ" unicode="&#x132;" horiz-adv-x="805" 
d="M52 1q-15 1 -19 4.5t-3 11.5l95 686q1 9 6 12t24 4t50 1h14q36 0 51.5 -1t20 -4.5t3.5 -11.5l-95 -686q-1 -8 -6.5 -11.5t-21 -4.5t-51.5 -1h-15q-38 0 -53 1zM384.5 -4q-35.5 6 -55.5 17q-8 5 -8 17q0 14 9 44l6 21q9 27 15 37t17 10q2 0 10 -2q46 -8 69 -8
q35 0 57 17.5t36.5 56.5t24.5 108l54 389q2 11 16.5 14t62.5 3h12q47 0 62 -3.5t14 -13.5l-63 -446q-19 -143 -83 -204q-64 -63 -182 -63q-38 0 -73.5 6z" />
    <glyph glyph-name="Iacute" unicode="&#xcd;" horiz-adv-x="329" 
d="M52 1q-15 1 -19 4.5t-3 11.5l95 686q1 9 6 12t24 4t50 1h14q36 0 51.5 -1t20 -4.5t3.5 -11.5l-95 -686q-1 -8 -6.5 -11.5t-21 -4.5t-51.5 -1h-15q-38 0 -53 1zM132 786.5q-9 2.5 -9 9.5t7 15l122 158q8 10 18 12.5t44 2.5h40q26 0 38 -3.5t12 -10.5q0 -6 -9 -15
l-145 -157q-7 -8 -19 -11t-38 -3h-32q-20 0 -29 2.5z" />
    <glyph glyph-name="Iacute_J.loclNLD" horiz-adv-x="805" 
d="M52 1q-15 1 -19 4.5t-3 11.5l95 686q1 9 6 12t24 4t50 1h14q36 0 51.5 -1t20 -4.5t3.5 -11.5l-95 -686q-1 -8 -6.5 -11.5t-21 -4.5t-51.5 -1h-15q-38 0 -53 1zM132 786.5q-9 2.5 -9 9.5t7 15l122 158q8 10 18 12.5t44 2.5h40q26 0 38 -3.5t12 -10.5q0 -6 -9 -15
l-145 -157q-7 -8 -19 -11t-38 -3h-32q-20 0 -29 2.5zM384.5 -4q-35.5 6 -55.5 17q-8 5 -8 17q0 14 9 44l6 21q9 27 15 37t17 10q2 0 10 -2q46 -8 69 -8q35 0 57 17.5t36.5 56.5t24.5 108l54 389q2 11 16.5 14t62.5 3h12q47 0 62 -3.5t14 -13.5l-63 -446q-19 -143 -83 -204
q-64 -63 -182 -63q-38 0 -73.5 6zM617 786.5q-9 2.5 -9 9.5t7 15l122 158q8 10 18 12.5t44 2.5h40q26 0 38 -3.5t12 -10.5q0 -6 -9 -15l-145 -157q-7 -8 -19 -11t-38 -3h-32q-20 0 -29 2.5z" />
    <glyph glyph-name="Ibreve" unicode="&#x12c;" horiz-adv-x="329" 
d="M52 1q-15 1 -19 4.5t-3 11.5l95 686q1 9 6 12t24 4t50 1h14q36 0 51.5 -1t20 -4.5t3.5 -11.5l-95 -686q-1 -8 -6.5 -11.5t-21 -4.5t-51.5 -1h-15q-38 0 -53 1zM105.5 808.5q-38.5 32.5 -38.5 89.5q0 16 1 23q1 14 11.5 17.5t44.5 3.5h14q29 0 38.5 -4t8.5 -14
q-2 -23 8 -36t30 -13q21 0 34 12t19 37q2 10 12.5 14t40.5 4h14q34 0 43 -3.5t6 -17.5q-13 -68 -60.5 -106.5t-117.5 -38.5t-108.5 32.5z" />
    <glyph glyph-name="Icircumflex" unicode="&#xce;" horiz-adv-x="329" 
d="M52 1q-15 1 -19 4.5t-3 11.5l95 686q1 9 6 12t24 4t50 1h14q36 0 51.5 -1t20 -4.5t3.5 -11.5l-95 -686q-1 -8 -6.5 -11.5t-21 -4.5t-51.5 -1h-15q-38 0 -53 1zM122 786q-11 0 -32 25l-8 10q-18 23 -18 31q0 6 6 10l100 92q15 14 27.5 17.5t45.5 3.5h12q33 0 44.5 -3.5
t22.5 -17.5l74 -92q4 -4 4 -10q0 -5 -6 -12t-20 -19l-12 -10q-28 -24 -39 -24q-6 0 -12 6l-74 77l-102 -79q-8 -5 -13 -5z" />
    <glyph glyph-name="Idieresis" unicode="&#xcf;" horiz-adv-x="329" 
d="M52 1q-15 1 -19 4.5t-3 11.5l95 686q1 9 6 12t24 4t50 1h14q36 0 51.5 -1t20 -4.5t3.5 -11.5l-95 -686q-1 -8 -6.5 -11.5t-21 -4.5t-51.5 -1h-15q-38 0 -53 1zM60 808q-20 19 -20 49q0 38 28 66.5t69 28.5q32 0 52 -19.5t20 -49.5q0 -37 -28 -65.5t-67 -28.5
q-34 0 -54 19zM273 808q-20 19 -20 49q0 38 28 66.5t69 28.5q32 0 52 -19.5t20 -49.5q0 -37 -28 -65.5t-67 -28.5q-34 0 -54 19z" />
    <glyph glyph-name="Idotaccent" unicode="&#x130;" horiz-adv-x="329" 
d="M52 1q-15 1 -19 4.5t-3 11.5l95 686q1 9 6 12t24 4t50 1h14q36 0 51.5 -1t20 -4.5t3.5 -11.5l-95 -686q-1 -8 -6.5 -11.5t-21 -4.5t-51.5 -1h-15q-38 0 -53 1zM166 793.5q-20 20.5 -20 50.5q0 38 27.5 64.5t66.5 26.5q31 0 51 -20.5t20 -50.5q0 -39 -27 -65t-66 -26
q-32 0 -52 20.5z" />
    <glyph glyph-name="Igrave" unicode="&#xcc;" horiz-adv-x="329" 
d="M52 1q-15 1 -19 4.5t-3 11.5l95 686q1 9 6 12t24 4t50 1h14q36 0 51.5 -1t20 -4.5t3.5 -11.5l-95 -686q-1 -8 -6.5 -11.5t-21 -4.5t-51.5 -1h-15q-38 0 -53 1zM198 787q-12 3 -16 11l-101 157q-4 7 -4 12q0 9 11.5 13t39.5 4h36q33 0 47 -5t19 -15l76 -153q3 -6 3 -12
q0 -8 -10 -11.5t-32 -3.5h-32q-25 0 -37 3z" />
    <glyph glyph-name="Imacron" unicode="&#x12a;" horiz-adv-x="329" 
d="M52 1q-15 1 -19 4.5t-3 11.5l95 686q1 9 6 12t24 4t50 1h14q36 0 51.5 -1t20 -4.5t3.5 -11.5l-95 -686q-1 -8 -6.5 -11.5t-21 -4.5t-51.5 -1h-15q-38 0 -53 1zM78.5 821q-2.5 3 -2.5 13q0 14 4 38l1 7q4 31 8 39.5t13 8.5h274q6 0 8.5 -3.5t2.5 -13.5t-3 -34l-1 -7
q-5 -34 -9 -42.5t-13 -8.5h-274q-6 0 -8.5 3z" />
    <glyph glyph-name="Iogonek" unicode="&#x12e;" horiz-adv-x="329" 
d="M-23 -216.5q-30 29.5 -30 76.5q0 42 22.5 79t57.5 60l98 704q1 9 6 12t24 4t50 1h14q36 0 51.5 -1t20 -4.5t3.5 -11.5l-93 -675q-2 -16 -7.5 -23t-20.5 -12q-50 -16 -75.5 -41.5t-25.5 -58.5q0 -17 9 -27t25 -10q13 0 37 8q8 2 12 -3t9 -27l2 -9q3 -18 3 -28
q0 -13 -9 -18q-48 -25 -98 -25q-55 0 -85 29.5z" />
    <glyph glyph-name="Itilde" unicode="&#x128;" horiz-adv-x="329" 
d="M52 1q-15 1 -19 4.5t-3 11.5l95 686q1 9 6 12t24 4t50 1h14q36 0 51.5 -1t20 -4.5t3.5 -11.5l-95 -686q-1 -8 -6.5 -11.5t-21 -4.5t-51.5 -1h-15q-38 0 -53 1zM254.5 815q-15.5 5 -32.5 14q-16 9 -26 13t-24 4q-25 0 -55 -34q-5 -5 -10 -5q-11 0 -33 26l-5 6
q-19 23 -19 30q0 6 6 12q27 32 57.5 50t60.5 18q21 0 34.5 -5t31.5 -14q14 -8 24.5 -11.5t25.5 -3.5q29 0 64 32q6 4 8 4q10 0 31 -25l5 -6q17 -21 17 -32q0 -5 -5 -12q-24 -30 -54.5 -48t-62.5 -18q-23 0 -38.5 5z" />
    <glyph glyph-name="J" unicode="J" horiz-adv-x="476" 
d="M55.5 -4q-35.5 6 -55.5 17q-8 5 -8 17q0 14 9 44l6 21q9 27 15 37t17 10q2 0 10 -2q46 -8 69 -8q35 0 57 17.5t36.5 56.5t24.5 108l54 389q2 11 16.5 14t62.5 3h12q47 0 62 -3.5t14 -13.5l-63 -446q-19 -143 -83 -204q-64 -63 -182 -63q-38 0 -73.5 6z" />
    <glyph glyph-name="Jcircumflex" unicode="&#x134;" horiz-adv-x="476" 
d="M55.5 -4q-35.5 6 -55.5 17q-8 5 -8 17q0 14 9 44l6 21q9 27 15 37t17 10q2 0 10 -2q46 -8 69 -8q35 0 57 17.5t36.5 56.5t24.5 108l54 389q2 11 16.5 14t62.5 3h12q47 0 62 -3.5t14 -13.5l-63 -446q-19 -143 -83 -204q-64 -63 -182 -63q-38 0 -73.5 6zM278 786
q-11 0 -32 25l-8 10q-18 23 -18 31q0 6 6 10l100 92q15 14 27.5 17.5t45.5 3.5h12q33 0 44.5 -3.5t22.5 -17.5l74 -92q4 -4 4 -10q0 -5 -6 -12t-20 -19l-12 -10q-28 -24 -39 -24q-6 0 -12 6l-74 77l-102 -79q-8 -5 -13 -5z" />
    <glyph glyph-name="K" unicode="K" horiz-adv-x="672" 
d="M49.5 1q-15.5 1 -19.5 4.5t-3 11.5l95 686q1 8 6 11.5t24.5 4.5t49.5 1h15q35 0 50.5 -1t20 -4.5t3.5 -11.5l-35 -256l9 7q73 56 139 121.5t113 126.5q9 12 22 15t60 3h29q35 0 48.5 -2t13.5 -8q0 -4 -5 -11q-86 -130 -278 -290l194 -389q5 -11 -8 -15.5t-57 -4.5h-29
q-32 0 -51.5 1t-25.5 4t-9 10l-135 289l-55 -43l-34 -244q-1 -11 -16 -14t-63 -3h-15q-38 0 -53.5 1z" />
    <glyph glyph-name="Kcommaaccent" unicode="&#x136;" horiz-adv-x="672" 
d="M49.5 1q-15.5 1 -19.5 4.5t-3 11.5l95 686q1 8 6 11.5t24.5 4.5t49.5 1h15q35 0 50.5 -1t20 -4.5t3.5 -11.5l-35 -256l9 7q73 56 139 121.5t113 126.5q9 12 22 15t60 3h29q35 0 48.5 -2t13.5 -8q0 -4 -5 -11q-86 -130 -278 -290l194 -389q5 -11 -8 -15.5t-57 -4.5h-29
q-32 0 -51.5 1t-25.5 4t-9 10l-135 289l-55 -43l-34 -244q-1 -11 -16 -14t-63 -3h-15q-38 0 -53.5 1zM223 -330q-7 0 -18 13l-4 5q-11 14 -11 20q0 4 5 9q56 56 56 96q0 11 -6 19.5t-7 10.5q-15 17 -15 35q0 30 24.5 51.5t56.5 21.5q31 0 48 -19t17 -51t-16.5 -68t-42.5 -69
q-31 -37 -72 -68q-9 -6 -15 -6z" />
    <glyph glyph-name="L" unicode="L" horiz-adv-x="553" 
d="M32.5 3q-7.5 3 -5.5 13l95 687q1 8 6.5 11.5t24.5 4.5t49 1h15q35 0 50 -1t20 -4.5t4 -11.5l-78 -567h266q6 0 8.5 -3.5t2.5 -14.5q0 -17 -4 -45l-1 -8q-5 -39 -10 -52t-15 -13h-389q-31 0 -38.5 3z" />
    <glyph glyph-name="Lacute" unicode="&#x139;" horiz-adv-x="553" 
d="M32.5 3q-7.5 3 -5.5 13l95 687q1 8 6.5 11.5t24.5 4.5t49 1h15q35 0 50 -1t20 -4.5t4 -11.5l-78 -567h266q6 0 8.5 -3.5t2.5 -14.5q0 -17 -4 -45l-1 -8q-5 -39 -10 -52t-15 -13h-389q-31 0 -38.5 3zM141 759.5q-9 2.5 -9 9.5t7 15l122 158q8 10 18 12.5t44 2.5h40
q26 0 38 -3.5t12 -10.5q0 -6 -9 -15l-145 -157q-7 -8 -19 -11t-38 -3h-32q-20 0 -29 2.5z" />
    <glyph glyph-name="Lcaron" unicode="&#x13d;" horiz-adv-x="518" 
d="M32.5 3q-7.5 3 -5.5 13l95 687q1 8 6.5 11.5t24.5 4.5t49 1h15q35 0 50 -1t20 -4.5t4 -11.5l-78 -567h266q6 0 8.5 -3.5t2.5 -14.5q0 -17 -4 -45l-1 -8q-5 -39 -10 -52t-15 -13h-389q-31 0 -38.5 3zM368 449q-7 0 -18 13l-4 5q-11 14 -11 20q0 4 5 9q56 56 56 96
q0 11 -6 19.5t-7 10.5q-15 17 -15 35q0 30 24.5 51.5t56.5 21.5q31 0 48 -19t17 -51t-16.5 -68t-42.5 -69q-31 -37 -72 -68q-9 -6 -15 -6z" />
    <glyph glyph-name="Lcommaaccent" unicode="&#x13b;" horiz-adv-x="553" 
d="M32.5 3q-7.5 3 -5.5 13l95 687q1 8 6.5 11.5t24.5 4.5t49 1h15q35 0 50 -1t20 -4.5t4 -11.5l-78 -567h266q6 0 8.5 -3.5t2.5 -14.5q0 -17 -4 -45l-1 -8q-5 -39 -10 -52t-15 -13h-389q-31 0 -38.5 3zM173 -330q-7 0 -18 13l-4 5q-11 14 -11 20q0 4 5 9q56 56 56 96
q0 11 -6 19.5t-7 10.5q-15 17 -15 35q0 30 24.5 51.5t56.5 21.5q31 0 48 -19t17 -51t-16.5 -68t-42.5 -69q-31 -37 -72 -68q-9 -6 -15 -6z" />
    <glyph glyph-name="Ldot" unicode="&#x13f;" horiz-adv-x="518" 
d="M32.5 3q-7.5 3 -5.5 13l95 687q1 8 6.5 11.5t24.5 4.5t49 1h15q35 0 50 -1t20 -4.5t4 -11.5l-78 -567h266q6 0 8.5 -3.5t2.5 -14.5q0 -17 -4 -45l-1 -8q-5 -39 -10 -52t-15 -13h-389q-31 0 -38.5 3zM383 358.5q-20 20.5 -20 50.5q0 38 27.5 64.5t66.5 26.5q31 0 51 -20.5
t20 -50.5q0 -39 -27 -65t-66 -26q-32 0 -52 20.5z" />
    <glyph glyph-name="Lslash" unicode="&#x141;" horiz-adv-x="574" 
d="M508.5 132.5q2.5 -3.5 2.5 -14.5q0 -17 -4 -45l-1 -8q-5 -39 -10 -52t-15 -13h-389q-31 0 -38.5 3t-5.5 13l34 249l-57 -30q-12 -6 -20 -6q-6 0 -8.5 5t-2.5 16q0 12 3 33l4 26q4 30 9.5 42t16.5 17l75 39l41 296q1 8 6.5 11.5t24.5 4.5t49 1h15q35 0 50 -1t20 -4.5
t4 -11.5l-28 -201l102 53q8 4 14 4q9 0 9 -20l-2 -32l-3 -28q-4 -33 -8.5 -44t-18.5 -18l-112 -58l-31 -223h266q6 0 8.5 -3.5z" />
    <glyph glyph-name="M" unicode="M" horiz-adv-x="900" 
d="M48 1.5q-15 1.5 -18.5 5t-2.5 11.5l95 684q2 11 16.5 14.5t63.5 3.5h39q35 0 50 -1t21.5 -5t9.5 -13l49 -145q44 -133 77 -248q-3 -6 101 169l47 79l87 145q7 11 23.5 15t62.5 4h34q44 0 57 -3.5t12 -14.5l-95 -684q-1 -8 -7 -12t-22.5 -5t-53.5 -1h-9q-37 0 -52 1
t-18.5 4.5t-2.5 12.5l32 224q19 148 32 209q-44 -101 -129 -238l-50 -80q-7 -10 -19.5 -13t-55.5 -3h-8q-45 0 -58 3t-16 13l-26 80q-43 134 -67 234q-5 -72 -22 -189l-33 -240q-1 -8 -7.5 -12t-23 -5t-53.5 -1h-8q-37 0 -52 1.5z" />
    <glyph glyph-name="N" unicode="N" horiz-adv-x="749" 
d="M49 1q-15 1 -18.5 4.5t-2.5 11.5l94 686q1 8 4.5 11t15 4.5t39.5 1.5h5q31 0 44.5 -1.5t19 -5t10.5 -11.5l165 -266q61 -100 86 -153q3 71 20 187l35 233q1 8 6 11.5t23 4.5t47 1h7q35 0 49.5 -1t19 -4.5t2.5 -11.5l-94 -686q-1 -8 -4.5 -11t-16 -4.5t-41.5 -1.5h-7
q-39 0 -50 3.5t-18 14.5l-158 260q-26 42 -56 100.5t-36 80.5q0 -66 -22 -220l-33 -222q-1 -8 -5.5 -11.5t-19.5 -4.5t-50 -1h-7q-38 0 -53 1z" />
    <glyph glyph-name="Nacute" unicode="&#x143;" horiz-adv-x="749" 
d="M49 1q-15 1 -18.5 4.5t-2.5 11.5l94 686q1 8 4.5 11t15 4.5t39.5 1.5h5q31 0 44.5 -1.5t19 -5t10.5 -11.5l165 -266q61 -100 86 -153q3 71 20 187l35 233q1 8 6 11.5t23 4.5t47 1h7q35 0 49.5 -1t19 -4.5t2.5 -11.5l-94 -686q-1 -8 -4.5 -11t-16 -4.5t-41.5 -1.5h-7
q-39 0 -50 3.5t-18 14.5l-158 260q-26 42 -56 100.5t-36 80.5q0 -66 -22 -220l-33 -222q-1 -8 -5.5 -11.5t-19.5 -4.5t-50 -1h-7q-38 0 -53 1zM351 786.5q-9 2.5 -9 9.5t7 15l122 158q8 10 18 12.5t44 2.5h40q26 0 38 -3.5t12 -10.5q0 -6 -9 -15l-145 -157q-7 -8 -19 -11
t-38 -3h-32q-20 0 -29 2.5z" />
    <glyph glyph-name="Nacute.loclPLK" horiz-adv-x="749" 
d="M49 1q-15 1 -18.5 4.5t-2.5 11.5l94 686q1 8 4.5 11t15 4.5t39.5 1.5h5q31 0 44.5 -1.5t19 -5t10.5 -11.5l165 -266q61 -100 86 -153q3 71 20 187l35 233q1 8 6 11.5t23 4.5t47 1h7q35 0 49.5 -1t19 -4.5t2.5 -11.5l-94 -686q-1 -8 -4.5 -11t-16 -4.5t-41.5 -1.5h-7
q-39 0 -50 3.5t-18 14.5l-158 260q-26 42 -56 100.5t-36 80.5q0 -66 -22 -220l-33 -222q-1 -8 -5.5 -11.5t-19.5 -4.5t-50 -1h-7q-38 0 -53 1zM378 787q-10 3 -10 11q0 3 4 13l68 155q5 11 16.5 14.5t42.5 3.5h43q27 0 37.5 -2.5t10.5 -9.5q0 -5 -7 -17l-90 -153
q-7 -12 -16 -15t-35 -3h-29q-25 0 -35 3z" />
    <glyph glyph-name="Ncaron" unicode="&#x147;" horiz-adv-x="749" 
d="M49 1q-15 1 -18.5 4.5t-2.5 11.5l94 686q1 8 4.5 11t15 4.5t39.5 1.5h5q31 0 44.5 -1.5t19 -5t10.5 -11.5l165 -266q61 -100 86 -153q3 71 20 187l35 233q1 8 6 11.5t23 4.5t47 1h7q35 0 49.5 -1t19 -4.5t2.5 -11.5l-94 -686q-1 -8 -4.5 -11t-16 -4.5t-41.5 -1.5h-7
q-39 0 -50 3.5t-18 14.5l-158 260q-26 42 -56 100.5t-36 80.5q0 -66 -22 -220l-33 -222q-1 -8 -5.5 -11.5t-19.5 -4.5t-50 -1h-7q-38 0 -53 1zM383 785q-12 4 -23 17l-75 95q-4 6 -4 9q0 11 28 34l12 10q26 22 37 22q6 0 12 -6l78 -80l101 80q11 7 15 7q11 0 32 -25l8 -10
q18 -22 18 -30q0 -5 -6 -11l-104 -95q-14 -13 -28 -17t-45 -4h-12q-32 0 -44 4z" />
    <glyph glyph-name="Ncommaaccent" unicode="&#x145;" horiz-adv-x="749" 
d="M49 1q-15 1 -18.5 4.5t-2.5 11.5l94 686q1 8 4.5 11t15 4.5t39.5 1.5h5q31 0 44.5 -1.5t19 -5t10.5 -11.5l165 -266q61 -100 86 -153q3 71 20 187l35 233q1 8 6 11.5t23 4.5t47 1h7q35 0 49.5 -1t19 -4.5t2.5 -11.5l-94 -686q-1 -8 -4.5 -11t-16 -4.5t-41.5 -1.5h-7
q-39 0 -50 3.5t-18 14.5l-158 260q-26 42 -56 100.5t-36 80.5q0 -66 -22 -220l-33 -222q-1 -8 -5.5 -11.5t-19.5 -4.5t-50 -1h-7q-38 0 -53 1zM251 -330q-7 0 -18 13l-4 5q-11 14 -11 20q0 4 5 9q56 56 56 96q0 11 -6 19.5t-7 10.5q-15 17 -15 35q0 30 24.5 51.5t56.5 21.5
q31 0 48 -19t17 -51t-16.5 -68t-42.5 -69q-31 -37 -72 -68q-9 -6 -15 -6z" />
    <glyph glyph-name="Eng" unicode="&#x14a;" horiz-adv-x="748" 
d="M344.5 -177q-29.5 6 -43.5 13q-10 4 -10 14q0 9 12 39l6 16q11 28 16.5 37t14.5 9q6 0 9 -1q26 -7 50 -7q34 0 48 20q8 12 13 27t9 43l2 14l-140 231q-26 42 -56 100.5t-36 80.5q0 -66 -22 -220l-33 -222q-1 -8 -5.5 -11.5t-19.5 -4.5t-50 -1h-7q-38 0 -53 1t-18.5 4.5
t-2.5 11.5l94 686q1 8 4.5 11t15 4.5t39.5 1.5h5q31 0 44.5 -1.5t19 -5t10.5 -11.5l165 -266q61 -100 86 -153q3 71 20 187l35 233q1 8 6 11.5t23 4.5t47 1h7q35 0 49.5 -1t18.5 -4.5t3 -11.5l-89 -647q-18 -126 -76.5 -182.5t-152.5 -56.5q-28 0 -57.5 6z" />
    <glyph glyph-name="Ntilde" unicode="&#xd1;" horiz-adv-x="749" 
d="M49 1q-15 1 -18.5 4.5t-2.5 11.5l94 686q1 8 4.5 11t15 4.5t39.5 1.5h5q31 0 44.5 -1.5t19 -5t10.5 -11.5l165 -266q61 -100 86 -153q3 71 20 187l35 233q1 8 6 11.5t23 4.5t47 1h7q35 0 49.5 -1t19 -4.5t2.5 -11.5l-94 -686q-1 -8 -4.5 -11t-16 -4.5t-41.5 -1.5h-7
q-39 0 -50 3.5t-18 14.5l-158 260q-26 42 -56 100.5t-36 80.5q0 -66 -22 -220l-33 -222q-1 -8 -5.5 -11.5t-19.5 -4.5t-50 -1h-7q-38 0 -53 1zM473.5 815q-15.5 5 -32.5 14q-16 9 -26 13t-24 4q-25 0 -55 -34q-5 -5 -10 -5q-11 0 -33 26l-5 6q-19 23 -19 30q0 6 6 12
q27 32 57.5 50t60.5 18q21 0 34.5 -5t31.5 -14q14 -8 24.5 -11.5t25.5 -3.5q29 0 64 32q6 4 8 4q10 0 31 -25l5 -6q17 -21 17 -32q0 -5 -5 -12q-24 -30 -54.5 -48t-62.5 -18q-23 0 -38.5 5z" />
    <glyph glyph-name="O" unicode="O" horiz-adv-x="744" 
d="M167 26q-67 36 -103 103t-36 156q0 118 43 219.5t129.5 163.5t210.5 62q92 0 160.5 -37.5t105.5 -105.5t37 -158q0 -118 -43.5 -218t-131.5 -160.5t-215 -60.5q-90 0 -157 36zM442.5 165.5q44.5 33.5 71 98t26.5 154.5q0 77 -39 123.5t-107 46.5q-51 0 -95 -33
t-70.5 -97.5t-26.5 -153.5q0 -78 39 -125t105 -47q52 0 96.5 33.5z" />
    <glyph glyph-name="Oacute" unicode="&#xd3;" horiz-adv-x="744" 
d="M167 26q-67 36 -103 103t-36 156q0 118 43 219.5t129.5 163.5t210.5 62q92 0 160.5 -37.5t105.5 -105.5t37 -158q0 -118 -43.5 -218t-131.5 -160.5t-215 -60.5q-90 0 -157 36zM442.5 165.5q44.5 33.5 71 98t26.5 154.5q0 77 -39 123.5t-107 46.5q-51 0 -95 -33
t-70.5 -97.5t-26.5 -153.5q0 -78 39 -125t105 -47q52 0 96.5 33.5zM345 786.5q-9 2.5 -9 9.5t7 15l122 158q8 10 18 12.5t44 2.5h40q26 0 38 -3.5t12 -10.5q0 -6 -9 -15l-145 -157q-7 -8 -19 -11t-38 -3h-32q-20 0 -29 2.5z" />
    <glyph glyph-name="Oacute.loclPLK" horiz-adv-x="744" 
d="M167 26q-67 36 -103 103t-36 156q0 118 43 219.5t129.5 163.5t210.5 62q92 0 160.5 -37.5t105.5 -105.5t37 -158q0 -118 -43.5 -218t-131.5 -160.5t-215 -60.5q-90 0 -157 36zM442.5 165.5q44.5 33.5 71 98t26.5 154.5q0 77 -39 123.5t-107 46.5q-51 0 -95 -33
t-70.5 -97.5t-26.5 -153.5q0 -78 39 -125t105 -47q52 0 96.5 33.5zM372 787q-10 3 -10 11q0 3 4 13l68 155q5 11 16.5 14.5t42.5 3.5h43q27 0 37.5 -2.5t10.5 -9.5q0 -5 -7 -17l-90 -153q-7 -12 -16 -15t-35 -3h-29q-25 0 -35 3z" />
    <glyph glyph-name="Obreve" unicode="&#x14e;" horiz-adv-x="744" 
d="M167 26q-67 36 -103 103t-36 156q0 118 43 219.5t129.5 163.5t210.5 62q92 0 160.5 -37.5t105.5 -105.5t37 -158q0 -118 -43.5 -218t-131.5 -160.5t-215 -60.5q-90 0 -157 36zM442.5 165.5q44.5 33.5 71 98t26.5 154.5q0 77 -39 123.5t-107 46.5q-51 0 -95 -33
t-70.5 -97.5t-26.5 -153.5q0 -78 39 -125t105 -47q52 0 96.5 33.5zM318.5 808.5q-38.5 32.5 -38.5 89.5q0 16 1 23q1 14 11.5 17.5t44.5 3.5h14q29 0 38.5 -4t8.5 -14q-2 -23 8 -36t30 -13q21 0 34 12t19 37q2 10 12.5 14t40.5 4h14q34 0 43 -3.5t6 -17.5
q-13 -68 -60.5 -106.5t-117.5 -38.5t-108.5 32.5z" />
    <glyph glyph-name="Ocircumflex" unicode="&#xd4;" horiz-adv-x="744" 
d="M167 26q-67 36 -103 103t-36 156q0 118 43 219.5t129.5 163.5t210.5 62q92 0 160.5 -37.5t105.5 -105.5t37 -158q0 -118 -43.5 -218t-131.5 -160.5t-215 -60.5q-90 0 -157 36zM442.5 165.5q44.5 33.5 71 98t26.5 154.5q0 77 -39 123.5t-107 46.5q-51 0 -95 -33
t-70.5 -97.5t-26.5 -153.5q0 -78 39 -125t105 -47q52 0 96.5 33.5zM335 786q-11 0 -32 25l-8 10q-18 23 -18 31q0 6 6 10l100 92q15 14 27.5 17.5t45.5 3.5h12q33 0 44.5 -3.5t22.5 -17.5l74 -92q4 -4 4 -10q0 -5 -6 -12t-20 -19l-12 -10q-28 -24 -39 -24q-6 0 -12 6l-74 77
l-102 -79q-8 -5 -13 -5z" />
    <glyph glyph-name="Odieresis" unicode="&#xd6;" horiz-adv-x="744" 
d="M167 26q-67 36 -103 103t-36 156q0 118 43 219.5t129.5 163.5t210.5 62q92 0 160.5 -37.5t105.5 -105.5t37 -158q0 -118 -43.5 -218t-131.5 -160.5t-215 -60.5q-90 0 -157 36zM442.5 165.5q44.5 33.5 71 98t26.5 154.5q0 77 -39 123.5t-107 46.5q-51 0 -95 -33
t-70.5 -97.5t-26.5 -153.5q0 -78 39 -125t105 -47q52 0 96.5 33.5zM273 808q-20 19 -20 49q0 38 28 66.5t69 28.5q32 0 52 -19.5t20 -49.5q0 -37 -28 -65.5t-67 -28.5q-34 0 -54 19zM486 808q-20 19 -20 49q0 38 28 66.5t69 28.5q32 0 52 -19.5t20 -49.5q0 -37 -28 -65.5
t-67 -28.5q-34 0 -54 19z" />
    <glyph glyph-name="Ograve" unicode="&#xd2;" horiz-adv-x="744" 
d="M167 26q-67 36 -103 103t-36 156q0 118 43 219.5t129.5 163.5t210.5 62q92 0 160.5 -37.5t105.5 -105.5t37 -158q0 -118 -43.5 -218t-131.5 -160.5t-215 -60.5q-90 0 -157 36zM442.5 165.5q44.5 33.5 71 98t26.5 154.5q0 77 -39 123.5t-107 46.5q-51 0 -95 -33
t-70.5 -97.5t-26.5 -153.5q0 -78 39 -125t105 -47q52 0 96.5 33.5zM411 787q-12 3 -16 11l-101 157q-4 7 -4 12q0 9 11.5 13t39.5 4h36q33 0 47 -5t19 -15l76 -153q3 -6 3 -12q0 -8 -10 -11.5t-32 -3.5h-32q-25 0 -37 3z" />
    <glyph glyph-name="Ohungarumlaut" unicode="&#x150;" horiz-adv-x="744" 
d="M167 26q-67 36 -103 103t-36 156q0 118 43 219.5t129.5 163.5t210.5 62q92 0 160.5 -37.5t105.5 -105.5t37 -158q0 -118 -43.5 -218t-131.5 -160.5t-215 -60.5q-90 0 -157 36zM442.5 165.5q44.5 33.5 71 98t26.5 154.5q0 77 -39 123.5t-107 46.5q-51 0 -95 -33
t-70.5 -97.5t-26.5 -153.5q0 -78 39 -125t105 -47q52 0 96.5 33.5zM235 804q0 5 4 12l110 153q5 9 16 12t43 3h39q46 0 46 -11q0 -7 -9 -16l-132 -152q-8 -8 -18 -11t-32 -3h-31q-36 0 -36 13zM430 804q0 4 5 12l110 153q5 9 16.5 12t42.5 3h38q46 0 46 -12q0 -5 -8 -15
l-132 -152q-8 -8 -18 -11t-32 -3h-31q-37 0 -37 13z" />
    <glyph glyph-name="Omacron" unicode="&#x14c;" horiz-adv-x="744" 
d="M167 26q-67 36 -103 103t-36 156q0 118 43 219.5t129.5 163.5t210.5 62q92 0 160.5 -37.5t105.5 -105.5t37 -158q0 -118 -43.5 -218t-131.5 -160.5t-215 -60.5q-90 0 -157 36zM442.5 165.5q44.5 33.5 71 98t26.5 154.5q0 77 -39 123.5t-107 46.5q-51 0 -95 -33
t-70.5 -97.5t-26.5 -153.5q0 -78 39 -125t105 -47q52 0 96.5 33.5zM291.5 821q-2.5 3 -2.5 13q0 14 4 38l1 7q4 31 8 39.5t13 8.5h274q6 0 8.5 -3.5t2.5 -13.5t-3 -34l-1 -7q-5 -34 -9 -42.5t-13 -8.5h-274q-6 0 -8.5 3z" />
    <glyph glyph-name="Oslash" unicode="&#xd8;" horiz-adv-x="744" 
d="M691 556.5q23 -57.5 23 -127.5q0 -118 -43.5 -218t-131.5 -160.5t-215 -60.5q-73 0 -130 24l-48 -71q-7 -10 -15 -10t-29 12l-10 6q-30 18 -30 26q0 2 4 8l51 76q-43 39 -66 96t-23 128q0 118 43 219.5t129.5 163.5t210.5 62q79 0 139 -27l52 77q5 7 11 7q9 0 32 -15
l9 -6q22 -14 26.5 -19.5t0.5 -11.5l-55 -82q42 -39 65 -96.5zM220 213l242 359q-28 16 -68 16q-51 0 -95 -33t-70.5 -97.5t-26.5 -153.5q0 -52 18 -91zM442.5 165.5q44.5 33.5 71 98t26.5 154.5q0 50 -16 85l-241 -357q28 -14 63 -14q52 0 96.5 33.5z" />
    <glyph glyph-name="Oslashacute" unicode="&#x1fe;" horiz-adv-x="744" 
d="M691 556.5q23 -57.5 23 -127.5q0 -118 -43.5 -218t-131.5 -160.5t-215 -60.5q-73 0 -130 24l-48 -71q-7 -10 -15 -10t-29 12l-10 6q-30 18 -30 26q0 2 4 8l51 76q-43 39 -66 96t-23 128q0 118 43 219.5t129.5 163.5t210.5 62q79 0 139 -27l52 77q5 7 11 7q9 0 32 -15
l9 -6q22 -14 26.5 -19.5t0.5 -11.5l-55 -82q42 -39 65 -96.5zM220 213l242 359q-28 16 -68 16q-51 0 -95 -33t-70.5 -97.5t-26.5 -153.5q0 -52 18 -91zM442.5 165.5q44.5 33.5 71 98t26.5 154.5q0 50 -16 85l-241 -357q28 -14 63 -14q52 0 96.5 33.5zM333 786.5
q-9 2.5 -9 9.5t7 15l122 158q8 10 18 12.5t44 2.5h40q26 0 38 -3.5t12 -10.5q0 -6 -9 -15l-145 -157q-7 -8 -19 -11t-38 -3h-32q-20 0 -29 2.5z" />
    <glyph glyph-name="Otilde" unicode="&#xd5;" horiz-adv-x="744" 
d="M167 26q-67 36 -103 103t-36 156q0 118 43 219.5t129.5 163.5t210.5 62q92 0 160.5 -37.5t105.5 -105.5t37 -158q0 -118 -43.5 -218t-131.5 -160.5t-215 -60.5q-90 0 -157 36zM442.5 165.5q44.5 33.5 71 98t26.5 154.5q0 77 -39 123.5t-107 46.5q-51 0 -95 -33
t-70.5 -97.5t-26.5 -153.5q0 -78 39 -125t105 -47q52 0 96.5 33.5zM467.5 815q-15.5 5 -32.5 14q-16 9 -26 13t-24 4q-25 0 -55 -34q-5 -5 -10 -5q-11 0 -33 26l-5 6q-19 23 -19 30q0 6 6 12q27 32 57.5 50t60.5 18q21 0 34.5 -5t31.5 -14q14 -8 24.5 -11.5t25.5 -3.5
q29 0 64 32q6 4 8 4q10 0 31 -25l5 -6q17 -21 17 -32q0 -5 -5 -12q-24 -30 -54.5 -48t-62.5 -18q-23 0 -38.5 5z" />
    <glyph glyph-name="OE" unicode="&#x152;" horiz-adv-x="1037" 
d="M202.5 4q-50.5 14 -87.5 44q-89 71 -89 228q0 110 41 209.5t120 163.5q51 41 114 61t143 20q56 0 119 -5q14 -1 53 -3t78 -2h313q9 0 12 -3t3 -16t-3 -43l-1 -9q-4 -41 -10 -53t-18 -12h-283l-21 -152h240q8 0 11 -3t3 -14q0 -12 -3 -45l-1 -9q-4 -41 -10 -53t-18 -12
h-241l-22 -160h285q9 0 12 -3.5t3 -17.5q0 -22 -2 -41l-1 -9q-4 -41 -10 -53t-18 -12h-331q-32 0 -145 -5q-67 -5 -113 -5q-72 0 -122.5 14zM437 126l38 3l64 465q-60 4 -100 4q-108 0 -168 -73q-38 -45 -55.5 -108.5t-17.5 -128.5q0 -84 37 -125q19 -21 47 -31t72 -10
q23 0 83 4z" />
    <glyph glyph-name="P" unicode="P" horiz-adv-x="623" 
d="M49 1q-15 1 -19 4.5t-3 11.5l94 683q2 12 10 16t36 4h125q155 0 230.5 -48.5t75.5 -159.5q0 -83 -40.5 -143t-111 -91.5t-159.5 -31.5l-61 1l-31 -230q-1 -8 -6.5 -11.5t-24.5 -4.5t-49 -1h-14q-37 0 -52 1zM393 412q36 32 36 88q0 44 -26.5 64t-90.5 20h-39l-27 -202
q28 -2 49 -2q62 0 98 32z" />
    <glyph glyph-name="Thorn" unicode="&#xde;" horiz-adv-x="634" 
d="M50.5 1.5q-14.5 1.5 -19 5.5t-2.5 15l92 675q2 11 6.5 15.5t19 6t50.5 1.5h13q39 0 54.5 -1.5t20.5 -6t3 -15.5l-15 -106h37q144 0 214 -45t70 -149q0 -64 -24 -118t-69 -92q-80 -68 -232 -68q-42 0 -60 1l-14 -98q-1 -11 -6.5 -15t-21 -5.5t-53.5 -1.5h-13
q-36 0 -50.5 1.5zM386 279.5q37 32.5 37 98.5q-2 49 -34 66.5t-92 17.5h-41l-29 -214l52 -1q70 0 107 32.5z" />
    <glyph glyph-name="Q" unicode="Q" horiz-adv-x="744" 
d="M353 -63q-27 33 -43 42.5t-52 16.5q-107 18 -168.5 94.5t-61.5 194.5t43 219.5t129.5 163.5t210.5 62q92 0 160.5 -37.5t105.5 -105.5t37 -158q0 -138 -58.5 -249t-170.5 -159q25 -15 49 -42l62 -70q6 -6 6 -13q0 -9 -9 -19.5t-31 -29.5l-20 -17q-44 -37 -60 -37
q-8 0 -17 9zM442.5 165.5q44.5 33.5 71 98t26.5 154.5q0 77 -39 123.5t-107 46.5q-51 0 -95 -33t-70.5 -97.5t-26.5 -153.5q0 -78 39 -125t105 -47q52 0 96.5 33.5z" />
    <glyph glyph-name="R" unicode="R" horiz-adv-x="662" 
d="M596 22q6 -12 -6 -17t-51 -5h-43q-46 0 -59 3t-18 13l-102 206q-14 29 -25.5 36.5t-41.5 7.5h-20l-33 -249q-1 -8 -6.5 -11.5t-24 -4.5t-48.5 -1h-16q-38 0 -53 1t-19 4.5t-3 11.5l94 683q2 13 9.5 16.5t36.5 3.5h156q143 0 212.5 -47t69.5 -145q0 -78 -43 -139.5
t-118 -98.5q21 -19 43 -61zM398.5 429.5q36.5 29.5 36.5 78.5q0 43 -29 59t-86 16h-46l-26 -183h54q60 0 96.5 29.5z" />
    <glyph glyph-name="Racute" unicode="&#x154;" horiz-adv-x="662" 
d="M596 22q6 -12 -6 -17t-51 -5h-43q-46 0 -59 3t-18 13l-102 206q-14 29 -25.5 36.5t-41.5 7.5h-20l-33 -249q-1 -8 -6.5 -11.5t-24 -4.5t-48.5 -1h-16q-38 0 -53 1t-19 4.5t-3 11.5l94 683q2 13 9.5 16.5t36.5 3.5h156q143 0 212.5 -47t69.5 -145q0 -78 -43 -139.5
t-118 -98.5q21 -19 43 -61zM398.5 429.5q36.5 29.5 36.5 78.5q0 43 -29 59t-86 16h-46l-26 -183h54q60 0 96.5 29.5zM288 786.5q-9 2.5 -9 9.5t7 15l122 158q8 10 18 12.5t44 2.5h40q26 0 38 -3.5t12 -10.5q0 -6 -9 -15l-145 -157q-7 -8 -19 -11t-38 -3h-32q-20 0 -29 2.5z
" />
    <glyph glyph-name="Rcaron" unicode="&#x158;" horiz-adv-x="662" 
d="M596 22q6 -12 -6 -17t-51 -5h-43q-46 0 -59 3t-18 13l-102 206q-14 29 -25.5 36.5t-41.5 7.5h-20l-33 -249q-1 -8 -6.5 -11.5t-24 -4.5t-48.5 -1h-16q-38 0 -53 1t-19 4.5t-3 11.5l94 683q2 13 9.5 16.5t36.5 3.5h156q143 0 212.5 -47t69.5 -145q0 -78 -43 -139.5
t-118 -98.5q21 -19 43 -61zM398.5 429.5q36.5 29.5 36.5 78.5q0 43 -29 59t-86 16h-46l-26 -183h54q60 0 96.5 29.5zM320 785q-12 4 -23 17l-75 95q-4 6 -4 9q0 11 28 34l12 10q26 22 37 22q6 0 12 -6l78 -80l101 80q11 7 15 7q11 0 32 -25l8 -10q18 -22 18 -30q0 -5 -6 -11
l-104 -95q-14 -13 -28 -17t-45 -4h-12q-32 0 -44 4z" />
    <glyph glyph-name="Rcommaaccent" unicode="&#x156;" horiz-adv-x="662" 
d="M596 22q6 -12 -6 -17t-51 -5h-43q-46 0 -59 3t-18 13l-102 206q-14 29 -25.5 36.5t-41.5 7.5h-20l-33 -249q-1 -8 -6.5 -11.5t-24 -4.5t-48.5 -1h-16q-38 0 -53 1t-19 4.5t-3 11.5l94 683q2 13 9.5 16.5t36.5 3.5h156q143 0 212.5 -47t69.5 -145q0 -78 -43 -139.5
t-118 -98.5q21 -19 43 -61zM398.5 429.5q36.5 29.5 36.5 78.5q0 43 -29 59t-86 16h-46l-26 -183h54q60 0 96.5 29.5zM228 -330q-7 0 -18 13l-4 5q-11 14 -11 20q0 4 5 9q56 56 56 96q0 11 -6 19.5t-7 10.5q-15 17 -15 35q0 30 24.5 51.5t56.5 21.5q31 0 48 -19t17 -51
t-16.5 -68t-42.5 -69q-31 -37 -72 -68q-9 -6 -15 -6z" />
    <glyph glyph-name="S" unicode="S" horiz-adv-x="599" 
d="M109 8q-61 18 -98 48q-9 6 -9 15q0 7 5.5 19.5t14.5 28.5l17 29q12 21 19.5 29.5t16.5 8.5q5 0 15 -5q84 -48 159 -48q49 0 82 19.5t33 56.5q0 25 -21 44.5t-79 48.5q-55 28 -89.5 53.5t-54.5 61t-20 86.5q0 71 36 122.5t99.5 78t145.5 26.5q56 0 108 -14t84 -38
q9 -6 9 -16t-18 -46l-11 -21q-13 -24 -21 -34t-16 -10q-4 0 -12 4q-69 36 -129 36q-50 0 -77 -16.5t-27 -47.5q0 -22 20 -40.5t82 -51.5q50 -26 82 -50t54 -62.5t22 -93.5q0 -71 -37 -125t-103 -84t-150 -30q-71 0 -132 18z" />
    <glyph glyph-name="Sacute" unicode="&#x15a;" horiz-adv-x="599" 
d="M109 8q-61 18 -98 48q-9 6 -9 15q0 7 5.5 19.5t14.5 28.5l17 29q12 21 19.5 29.5t16.5 8.5q5 0 15 -5q84 -48 159 -48q49 0 82 19.5t33 56.5q0 25 -21 44.5t-79 48.5q-55 28 -89.5 53.5t-54.5 61t-20 86.5q0 71 36 122.5t99.5 78t145.5 26.5q56 0 108 -14t84 -38
q9 -6 9 -16t-18 -46l-11 -21q-13 -24 -21 -34t-16 -10q-4 0 -12 4q-69 36 -129 36q-50 0 -77 -16.5t-27 -47.5q0 -22 20 -40.5t82 -51.5q50 -26 82 -50t54 -62.5t22 -93.5q0 -71 -37 -125t-103 -84t-150 -30q-71 0 -132 18zM304 786.5q-9 2.5 -9 9.5t7 15l122 158
q8 10 18 12.5t44 2.5h40q26 0 38 -3.5t12 -10.5q0 -6 -9 -15l-145 -157q-7 -8 -19 -11t-38 -3h-32q-20 0 -29 2.5z" />
    <glyph glyph-name="Sacute.loclPLK" horiz-adv-x="599" 
d="M109 8q-61 18 -98 48q-9 6 -9 15q0 7 5.5 19.5t14.5 28.5l17 29q12 21 19.5 29.5t16.5 8.5q5 0 15 -5q84 -48 159 -48q49 0 82 19.5t33 56.5q0 25 -21 44.5t-79 48.5q-55 28 -89.5 53.5t-54.5 61t-20 86.5q0 71 36 122.5t99.5 78t145.5 26.5q56 0 108 -14t84 -38
q9 -6 9 -16t-18 -46l-11 -21q-13 -24 -21 -34t-16 -10q-4 0 -12 4q-69 36 -129 36q-50 0 -77 -16.5t-27 -47.5q0 -22 20 -40.5t82 -51.5q50 -26 82 -50t54 -62.5t22 -93.5q0 -71 -37 -125t-103 -84t-150 -30q-71 0 -132 18zM331 787q-10 3 -10 11q0 3 4 13l68 155
q5 11 16.5 14.5t42.5 3.5h43q27 0 37.5 -2.5t10.5 -9.5q0 -5 -7 -17l-90 -153q-7 -12 -16 -15t-35 -3h-29q-25 0 -35 3z" />
    <glyph glyph-name="Scaron" unicode="&#x160;" horiz-adv-x="599" 
d="M109 8q-61 18 -98 48q-9 6 -9 15q0 7 5.5 19.5t14.5 28.5l17 29q12 21 19.5 29.5t16.5 8.5q5 0 15 -5q84 -48 159 -48q49 0 82 19.5t33 56.5q0 25 -21 44.5t-79 48.5q-55 28 -89.5 53.5t-54.5 61t-20 86.5q0 71 36 122.5t99.5 78t145.5 26.5q56 0 108 -14t84 -38
q9 -6 9 -16t-18 -46l-11 -21q-13 -24 -21 -34t-16 -10q-4 0 -12 4q-69 36 -129 36q-50 0 -77 -16.5t-27 -47.5q0 -22 20 -40.5t82 -51.5q50 -26 82 -50t54 -62.5t22 -93.5q0 -71 -37 -125t-103 -84t-150 -30q-71 0 -132 18zM336 785q-12 4 -23 17l-75 95q-4 6 -4 9
q0 11 28 34l12 10q26 22 37 22q6 0 12 -6l78 -80l101 80q11 7 15 7q11 0 32 -25l8 -10q18 -22 18 -30q0 -5 -6 -11l-104 -95q-14 -13 -28 -17t-45 -4h-12q-32 0 -44 4z" />
    <glyph glyph-name="Scedilla" unicode="&#x15e;" horiz-adv-x="599" 
d="M582 662q0 -10 -18 -46l-11 -21q-13 -24 -21 -34t-16 -10q-4 0 -12 4q-69 36 -129 36q-50 0 -77 -16.5t-27 -47.5q0 -22 20 -40.5t82 -51.5q50 -26 82 -50t54 -62.5t22 -93.5q0 -65 -31.5 -116.5t-88 -82.5t-130.5 -38l-7 -30h6q42 0 68 -19t26 -57q0 -62 -42.5 -95.5
t-106.5 -33.5q-44 0 -81 14q-8 3 -8 10q0 8 9 29l5 11q10 21 14.5 25.5t13.5 2.5q23 -7 46 -7q37 0 37 30q0 12 -9.5 17t-27.5 5q-30 0 -59 -7l30 105q-57 5 -105 22t-79 42q-9 6 -9 15q0 7 5.5 19.5t14.5 28.5l17 29q12 21 19.5 29.5t16.5 8.5q5 0 15 -5q84 -48 159 -48
q49 0 82 19.5t33 56.5q0 25 -21 44.5t-79 48.5q-55 28 -89.5 53.5t-54.5 61t-20 86.5q0 71 36 122.5t99.5 78t145.5 26.5q56 0 108 -14t84 -38q9 -6 9 -16z" />
    <glyph glyph-name="Scircumflex" unicode="&#x15c;" horiz-adv-x="599" 
d="M109 8q-61 18 -98 48q-9 6 -9 15q0 7 5.5 19.5t14.5 28.5l17 29q12 21 19.5 29.5t16.5 8.5q5 0 15 -5q84 -48 159 -48q49 0 82 19.5t33 56.5q0 25 -21 44.5t-79 48.5q-55 28 -89.5 53.5t-54.5 61t-20 86.5q0 71 36 122.5t99.5 78t145.5 26.5q56 0 108 -14t84 -38
q9 -6 9 -16t-18 -46l-11 -21q-13 -24 -21 -34t-16 -10q-4 0 -12 4q-69 36 -129 36q-50 0 -77 -16.5t-27 -47.5q0 -22 20 -40.5t82 -51.5q50 -26 82 -50t54 -62.5t22 -93.5q0 -71 -37 -125t-103 -84t-150 -30q-71 0 -132 18zM294 786q-11 0 -32 25l-8 10q-18 23 -18 31
q0 6 6 10l100 92q15 14 27.5 17.5t45.5 3.5h12q33 0 44.5 -3.5t22.5 -17.5l74 -92q4 -4 4 -10q0 -5 -6 -12t-20 -19l-12 -10q-28 -24 -39 -24q-6 0 -12 6l-74 77l-102 -79q-8 -5 -13 -5z" />
    <glyph glyph-name="Scommaaccent" unicode="&#x218;" horiz-adv-x="599" 
d="M109 8q-61 18 -98 48q-9 6 -9 15q0 7 5.5 19.5t14.5 28.5l17 29q12 21 19.5 29.5t16.5 8.5q5 0 15 -5q84 -48 159 -48q49 0 82 19.5t33 56.5q0 25 -21 44.5t-79 48.5q-55 28 -89.5 53.5t-54.5 61t-20 86.5q0 71 36 122.5t99.5 78t145.5 26.5q56 0 108 -14t84 -38
q9 -6 9 -16t-18 -46l-11 -21q-13 -24 -21 -34t-16 -10q-4 0 -12 4q-69 36 -129 36q-50 0 -77 -16.5t-27 -47.5q0 -22 20 -40.5t82 -51.5q50 -26 82 -50t54 -62.5t22 -93.5q0 -71 -37 -125t-103 -84t-150 -30q-71 0 -132 18zM157 -330q-7 0 -18 13l-4 5q-11 14 -11 20
q0 4 5 9q56 56 56 96q0 11 -6 19.5t-7 10.5q-15 17 -15 35q0 30 24.5 51.5t56.5 21.5q31 0 48 -19t17 -51t-16.5 -68t-42.5 -69q-31 -37 -72 -68q-9 -6 -15 -6z" />
    <glyph glyph-name="T" unicode="T" horiz-adv-x="588" 
d="M182 1q-15 1 -19.5 4.5t-2.5 11.5l78 567h-164q-9 0 -12.5 4t-3.5 18q0 5 4 43l1 8q4 31 6.5 43.5t7 16t13.5 3.5h501q10 0 14 -4.5t4 -19.5q0 -12 -3 -38l-1 -8q-4 -31 -7.5 -44.5t-8 -17.5t-13.5 -4h-169l-78 -567q-1 -8 -6.5 -11t-22 -4.5t-53.5 -1.5h-13q-37 0 -52 1
z" />
    <glyph glyph-name="Tbar" unicode="&#x166;" horiz-adv-x="588" 
d="M605 715.5q4 -4.5 4 -19.5q0 -12 -3 -38l-1 -8q-4 -31 -7.5 -44.5t-8 -17.5t-13.5 -4h-169l-29 -209h85q12 0 17.5 -5.5t5.5 -21.5q0 -11 -3 -32l-2 -12q-4 -25 -8.5 -36t-10 -14t-16.5 -3h-85l-32 -234q-1 -8 -6.5 -11t-22 -4.5t-53.5 -1.5h-13q-37 0 -52 1t-19.5 4.5
t-2.5 11.5l32 234h-83q-12 0 -17.5 5.5t-5.5 21.5q0 11 3 32l2 12q6 34 12.5 43.5t22.5 9.5h83l29 209h-164q-9 0 -12.5 4t-3.5 18q0 5 4 43l1 8q4 31 6.5 43.5t7 16t13.5 3.5h501q10 0 14 -4.5z" />
    <glyph glyph-name="Tcaron" unicode="&#x164;" horiz-adv-x="588" 
d="M182 1q-15 1 -19.5 4.5t-2.5 11.5l78 567h-164q-9 0 -12.5 4t-3.5 18q0 5 4 43l1 8q4 31 6.5 43.5t7 16t13.5 3.5h501q10 0 14 -4.5t4 -19.5q0 -12 -3 -38l-1 -8q-4 -31 -7.5 -44.5t-8 -17.5t-13.5 -4h-169l-78 -567q-1 -8 -6.5 -11t-22 -4.5t-53.5 -1.5h-13q-37 0 -52 1
zM295 785q-12 4 -23 17l-75 95q-4 6 -4 9q0 11 28 34l12 10q26 22 37 22q6 0 12 -6l78 -80l101 80q11 7 15 7q11 0 32 -25l8 -10q18 -22 18 -30q0 -5 -6 -11l-104 -95q-14 -13 -28 -17t-45 -4h-12q-32 0 -44 4z" />
    <glyph glyph-name="uni0162" unicode="&#x162;" horiz-adv-x="588" 
d="M182 1q-15 1 -19.5 4.5t-2.5 11.5l78 567h-164q-9 0 -12.5 4t-3.5 18q0 5 4 43l1 8q4 31 6.5 43.5t7 16t13.5 3.5h501q10 0 14 -4.5t4 -19.5q0 -12 -3 -38l-1 -8q-4 -31 -7.5 -44.5t-8 -17.5t-13.5 -4h-169l-78 -567q-1 -8 -6.5 -11t-22 -4.5t-53.5 -1.5h-13q-37 0 -52 1
zM155 -330q-7 0 -18 13l-4 5q-11 14 -11 20q0 4 5 9q56 56 56 96q0 11 -6 19.5t-7 10.5q-15 17 -15 35q0 30 24.5 51.5t56.5 21.5q31 0 48 -19t17 -51t-16.5 -68t-42.5 -69q-31 -37 -72 -68q-9 -6 -15 -6z" />
    <glyph glyph-name="uni021A" unicode="&#x21a;" horiz-adv-x="588" 
d="M182 1q-15 1 -19.5 4.5t-2.5 11.5l78 567h-164q-9 0 -12.5 4t-3.5 18q0 5 4 43l1 8q4 31 6.5 43.5t7 16t13.5 3.5h501q10 0 14 -4.5t4 -19.5q0 -12 -3 -38l-1 -8q-4 -31 -7.5 -44.5t-8 -17.5t-13.5 -4h-169l-78 -567q-1 -8 -6.5 -11t-22 -4.5t-53.5 -1.5h-13q-37 0 -52 1
zM155 -330q-7 0 -18 13l-4 5q-11 14 -11 20q0 4 5 9q56 56 56 96q0 11 -6 19.5t-7 10.5q-15 17 -15 35q0 30 24.5 51.5t56.5 21.5q31 0 48 -19t17 -51t-16.5 -68t-42.5 -69q-31 -37 -72 -68q-9 -6 -15 -6z" />
    <glyph glyph-name="U" unicode="U" horiz-adv-x="737" 
d="M123.5 44.5q-66.5 54.5 -66.5 156.5q0 41 17 156l49 346q1 8 6.5 11.5t20.5 4.5t51 1h14q35 0 50.5 -1t20.5 -4.5t4 -11.5l-49 -346q-15 -108 -15 -139q0 -41 30 -63.5t84 -22.5q65 0 103.5 35.5t47.5 103.5l60 432q1 8 7 11.5t25 4.5t48 1h9q35 0 50 -1t20 -4.5t4 -11.5
l-56 -403q-19 -161 -101 -235.5t-244 -74.5q-123 0 -189.5 54.5z" />
    <glyph glyph-name="Uacute" unicode="&#xda;" horiz-adv-x="737" 
d="M123.5 44.5q-66.5 54.5 -66.5 156.5q0 41 17 156l49 346q1 8 6.5 11.5t20.5 4.5t51 1h14q35 0 50.5 -1t20.5 -4.5t4 -11.5l-49 -346q-15 -108 -15 -139q0 -41 30 -63.5t84 -22.5q65 0 103.5 35.5t47.5 103.5l60 432q1 8 7 11.5t25 4.5t48 1h9q35 0 50 -1t20 -4.5t4 -11.5
l-56 -403q-19 -161 -101 -235.5t-244 -74.5q-123 0 -189.5 54.5zM343 786.5q-9 2.5 -9 9.5t7 15l122 158q8 10 18 12.5t44 2.5h40q26 0 38 -3.5t12 -10.5q0 -6 -9 -15l-145 -157q-7 -8 -19 -11t-38 -3h-32q-20 0 -29 2.5z" />
    <glyph glyph-name="Ubreve" unicode="&#x16c;" horiz-adv-x="737" 
d="M123.5 44.5q-66.5 54.5 -66.5 156.5q0 41 17 156l49 346q1 8 6.5 11.5t20.5 4.5t51 1h14q35 0 50.5 -1t20.5 -4.5t4 -11.5l-49 -346q-15 -108 -15 -139q0 -41 30 -63.5t84 -22.5q65 0 103.5 35.5t47.5 103.5l60 432q1 8 7 11.5t25 4.5t48 1h9q35 0 50 -1t20 -4.5t4 -11.5
l-56 -403q-19 -161 -101 -235.5t-244 -74.5q-123 0 -189.5 54.5zM316.5 808.5q-38.5 32.5 -38.5 89.5q0 16 1 23q1 14 11.5 17.5t44.5 3.5h14q29 0 38.5 -4t8.5 -14q-2 -23 8 -36t30 -13q21 0 34 12t19 37q2 10 12.5 14t40.5 4h14q34 0 43 -3.5t6 -17.5
q-13 -68 -60.5 -106.5t-117.5 -38.5t-108.5 32.5z" />
    <glyph glyph-name="Ucircumflex" unicode="&#xdb;" horiz-adv-x="737" 
d="M123.5 44.5q-66.5 54.5 -66.5 156.5q0 41 17 156l49 346q1 8 6.5 11.5t20.5 4.5t51 1h14q35 0 50.5 -1t20.5 -4.5t4 -11.5l-49 -346q-15 -108 -15 -139q0 -41 30 -63.5t84 -22.5q65 0 103.5 35.5t47.5 103.5l60 432q1 8 7 11.5t25 4.5t48 1h9q35 0 50 -1t20 -4.5t4 -11.5
l-56 -403q-19 -161 -101 -235.5t-244 -74.5q-123 0 -189.5 54.5zM333 786q-11 0 -32 25l-8 10q-18 23 -18 31q0 6 6 10l100 92q15 14 27.5 17.5t45.5 3.5h12q33 0 44.5 -3.5t22.5 -17.5l74 -92q4 -4 4 -10q0 -5 -6 -12t-20 -19l-12 -10q-28 -24 -39 -24q-6 0 -12 6l-74 77
l-102 -79q-8 -5 -13 -5z" />
    <glyph glyph-name="Udieresis" unicode="&#xdc;" horiz-adv-x="737" 
d="M123.5 44.5q-66.5 54.5 -66.5 156.5q0 41 17 156l49 346q1 8 6.5 11.5t20.5 4.5t51 1h14q35 0 50.5 -1t20.5 -4.5t4 -11.5l-49 -346q-15 -108 -15 -139q0 -41 30 -63.5t84 -22.5q65 0 103.5 35.5t47.5 103.5l60 432q1 8 7 11.5t25 4.5t48 1h9q35 0 50 -1t20 -4.5t4 -11.5
l-56 -403q-19 -161 -101 -235.5t-244 -74.5q-123 0 -189.5 54.5zM271 808q-20 19 -20 49q0 38 28 66.5t69 28.5q32 0 52 -19.5t20 -49.5q0 -37 -28 -65.5t-67 -28.5q-34 0 -54 19zM484 808q-20 19 -20 49q0 38 28 66.5t69 28.5q32 0 52 -19.5t20 -49.5q0 -37 -28 -65.5
t-67 -28.5q-34 0 -54 19z" />
    <glyph glyph-name="Ugrave" unicode="&#xd9;" horiz-adv-x="737" 
d="M123.5 44.5q-66.5 54.5 -66.5 156.5q0 41 17 156l49 346q1 8 6.5 11.5t20.5 4.5t51 1h14q35 0 50.5 -1t20.5 -4.5t4 -11.5l-49 -346q-15 -108 -15 -139q0 -41 30 -63.5t84 -22.5q65 0 103.5 35.5t47.5 103.5l60 432q1 8 7 11.5t25 4.5t48 1h9q35 0 50 -1t20 -4.5t4 -11.5
l-56 -403q-19 -161 -101 -235.5t-244 -74.5q-123 0 -189.5 54.5zM409 787q-12 3 -16 11l-101 157q-4 7 -4 12q0 9 11.5 13t39.5 4h36q33 0 47 -5t19 -15l76 -153q3 -6 3 -12q0 -8 -10 -11.5t-32 -3.5h-32q-25 0 -37 3z" />
    <glyph glyph-name="Uhungarumlaut" unicode="&#x170;" horiz-adv-x="737" 
d="M123.5 44.5q-66.5 54.5 -66.5 156.5q0 41 17 156l49 346q1 8 6.5 11.5t20.5 4.5t51 1h14q35 0 50.5 -1t20.5 -4.5t4 -11.5l-49 -346q-15 -108 -15 -139q0 -41 30 -63.5t84 -22.5q65 0 103.5 35.5t47.5 103.5l60 432q1 8 7 11.5t25 4.5t48 1h9q35 0 50 -1t20 -4.5t4 -11.5
l-56 -403q-19 -161 -101 -235.5t-244 -74.5q-123 0 -189.5 54.5zM233 804q0 5 4 12l110 153q5 9 16 12t43 3h39q46 0 46 -11q0 -7 -9 -16l-132 -152q-8 -8 -18 -11t-32 -3h-31q-36 0 -36 13zM428 804q0 4 5 12l110 153q5 9 16.5 12t42.5 3h38q46 0 46 -12q0 -5 -8 -15
l-132 -152q-8 -8 -18 -11t-32 -3h-31q-37 0 -37 13z" />
    <glyph glyph-name="Umacron" unicode="&#x16a;" horiz-adv-x="737" 
d="M123.5 44.5q-66.5 54.5 -66.5 156.5q0 41 17 156l49 346q1 8 6.5 11.5t20.5 4.5t51 1h14q35 0 50.5 -1t20.5 -4.5t4 -11.5l-49 -346q-15 -108 -15 -139q0 -41 30 -63.5t84 -22.5q65 0 103.5 35.5t47.5 103.5l60 432q1 8 7 11.5t25 4.5t48 1h9q35 0 50 -1t20 -4.5t4 -11.5
l-56 -403q-19 -161 -101 -235.5t-244 -74.5q-123 0 -189.5 54.5zM289.5 821q-2.5 3 -2.5 13q0 14 4 38l1 7q4 31 8 39.5t13 8.5h274q6 0 8.5 -3.5t2.5 -13.5t-3 -34l-1 -7q-5 -34 -9 -42.5t-13 -8.5h-274q-6 0 -8.5 3z" />
    <glyph glyph-name="Uogonek" unicode="&#x172;" horiz-adv-x="737" 
d="M271.5 -219q-29.5 27 -29.5 71q0 38 23.5 74.5t65.5 63.5h-18q-123 0 -189.5 54.5t-66.5 156.5q0 41 17 156l49 346q1 8 6.5 11.5t20.5 4.5t51 1h14q35 0 50.5 -1t20.5 -4.5t4 -11.5l-49 -346q-15 -108 -15 -139q0 -41 30 -63.5t84 -22.5q65 0 103.5 35.5t47.5 103.5
l60 432q1 8 7 11.5t25 4.5t48 1h9q35 0 50 -1t20 -4.5t4 -11.5l-59 -423q-11 -79 -32.5 -129t-57.5 -86q-21 -20 -78 -54q-59 -37 -89.5 -63.5t-30.5 -58.5q0 -17 10 -25t25 -8t36 7q8 3 12 -2.5t9 -27.5l2 -9q4 -16 4 -28q0 -7 -2.5 -11t-7.5 -7q-21 -11 -47.5 -17.5
t-50.5 -6.5q-56 0 -85.5 27z" />
    <glyph glyph-name="Uring" unicode="&#x16e;" horiz-adv-x="737" 
d="M123.5 44.5q-66.5 54.5 -66.5 156.5q0 41 17 156l49 346q1 8 6.5 11.5t20.5 4.5t51 1h14q35 0 50.5 -1t20.5 -4.5t4 -11.5l-49 -346q-15 -108 -15 -139q0 -41 30 -63.5t84 -22.5q65 0 103.5 35.5t47.5 103.5l60 432q1 8 7 11.5t25 4.5t48 1h9q35 0 50 -1t20 -4.5t4 -11.5
l-56 -403q-19 -161 -101 -235.5t-244 -74.5q-123 0 -189.5 54.5zM350 783.5q-30 29.5 -30 71.5q0 34 18 64.5t49.5 49.5t70.5 19q47 0 76.5 -28t29.5 -74q0 -34 -19.5 -64.5t-51.5 -49t-68 -18.5q-45 0 -75 29.5zM462 848.5q11 10.5 11 26.5q0 13 -7.5 21t-21.5 8
q-15 0 -25 -10t-10 -29q0 -12 7.5 -19.5t20.5 -7.5q14 0 25 10.5z" />
    <glyph glyph-name="Utilde" unicode="&#x168;" horiz-adv-x="737" 
d="M123.5 44.5q-66.5 54.5 -66.5 156.5q0 41 17 156l49 346q1 8 6.5 11.5t20.5 4.5t51 1h14q35 0 50.5 -1t20.5 -4.5t4 -11.5l-49 -346q-15 -108 -15 -139q0 -41 30 -63.5t84 -22.5q65 0 103.5 35.5t47.5 103.5l60 432q1 8 7 11.5t25 4.5t48 1h9q35 0 50 -1t20 -4.5t4 -11.5
l-56 -403q-19 -161 -101 -235.5t-244 -74.5q-123 0 -189.5 54.5zM465.5 815q-15.5 5 -32.5 14q-16 9 -26 13t-24 4q-25 0 -55 -34q-5 -5 -10 -5q-11 0 -33 26l-5 6q-19 23 -19 30q0 6 6 12q27 32 57.5 50t60.5 18q21 0 34.5 -5t31.5 -14q14 -8 24.5 -11.5t25.5 -3.5
q29 0 64 32q6 4 8 4q10 0 31 -25l5 -6q17 -21 17 -32q0 -5 -5 -12q-24 -30 -54.5 -48t-62.5 -18q-23 0 -38.5 5z" />
    <glyph glyph-name="V" unicode="V" horiz-adv-x="703" 
d="M248 1.5q-18 1.5 -24 5.5t-8 14l-140 681q-2 8 2.5 11.5t19.5 5t48 1.5h13q40 0 57.5 -1.5t22.5 -5t6 -12.5l56 -318q24 -136 32 -233q29 98 96 251l134 300q4 8 10 12t21.5 5.5t49.5 1.5h5q38 0 55.5 -1.5t22 -5.5t0.5 -12l-315 -678q-5 -11 -13.5 -15.5t-26 -6
t-56.5 -1.5h-4q-46 0 -64 1.5z" />
    <glyph glyph-name="W" unicode="W" horiz-adv-x="1019" 
d="M205 1.5q-15 1.5 -19.5 5t-5.5 11.5l-105 684q-1 8 3 11.5t21 5t56 1.5h9q37 0 53.5 -1.5t21.5 -5t6 -12.5l36 -279q20 -156 22 -231q27 118 60 210l109 300q4 10 10 13.5t22 4.5t56 1h8q37 0 52.5 -1t21 -5t6.5 -13l34 -327q11 -112 11 -185q21 81 57 178l127 334
q3 9 9 12.5t22 5t53 1.5h9q49 0 63 -4t9 -15l-285 -683q-3 -8 -9.5 -12t-22.5 -5t-51 -1h-17q-40 0 -56.5 1t-22 4.5t-6.5 12.5l-28 237q-14 122 -15 238q-31 -116 -66 -214l-94 -261q-4 -11 -19 -14.5t-66 -3.5h-28q-36 0 -51 1.5z" />
    <glyph glyph-name="Wacute" unicode="&#x1e82;" horiz-adv-x="1019" 
d="M205 1.5q-15 1.5 -19.5 5t-5.5 11.5l-105 684q-1 8 3 11.5t21 5t56 1.5h9q37 0 53.5 -1.5t21.5 -5t6 -12.5l36 -279q20 -156 22 -231q27 118 60 210l109 300q4 10 10 13.5t22 4.5t56 1h8q37 0 52.5 -1t21 -5t6.5 -13l34 -327q11 -112 11 -185q21 81 57 178l127 334
q3 9 9 12.5t22 5t53 1.5h9q49 0 63 -4t9 -15l-285 -683q-3 -8 -9.5 -12t-22.5 -5t-51 -1h-17q-40 0 -56.5 1t-22 4.5t-6.5 12.5l-28 237q-14 122 -15 238q-31 -116 -66 -214l-94 -261q-4 -11 -19 -14.5t-66 -3.5h-28q-36 0 -51 1.5zM485 786.5q-9 2.5 -9 9.5t7 15l122 158
q8 10 18 12.5t44 2.5h40q26 0 38 -3.5t12 -10.5q0 -6 -9 -15l-145 -157q-7 -8 -19 -11t-38 -3h-32q-20 0 -29 2.5z" />
    <glyph glyph-name="Wcircumflex" unicode="&#x174;" horiz-adv-x="1019" 
d="M205 1.5q-15 1.5 -19.5 5t-5.5 11.5l-105 684q-1 8 3 11.5t21 5t56 1.5h9q37 0 53.5 -1.5t21.5 -5t6 -12.5l36 -279q20 -156 22 -231q27 118 60 210l109 300q4 10 10 13.5t22 4.5t56 1h8q37 0 52.5 -1t21 -5t6.5 -13l34 -327q11 -112 11 -185q21 81 57 178l127 334
q3 9 9 12.5t22 5t53 1.5h9q49 0 63 -4t9 -15l-285 -683q-3 -8 -9.5 -12t-22.5 -5t-51 -1h-17q-40 0 -56.5 1t-22 4.5t-6.5 12.5l-28 237q-14 122 -15 238q-31 -116 -66 -214l-94 -261q-4 -11 -19 -14.5t-66 -3.5h-28q-36 0 -51 1.5zM475 786q-11 0 -32 25l-8 10
q-18 23 -18 31q0 6 6 10l100 92q15 14 27.5 17.5t45.5 3.5h12q33 0 44.5 -3.5t22.5 -17.5l74 -92q4 -4 4 -10q0 -5 -6 -12t-20 -19l-12 -10q-28 -24 -39 -24q-6 0 -12 6l-74 77l-102 -79q-8 -5 -13 -5z" />
    <glyph glyph-name="Wdieresis" unicode="&#x1e84;" horiz-adv-x="1019" 
d="M205 1.5q-15 1.5 -19.5 5t-5.5 11.5l-105 684q-1 8 3 11.5t21 5t56 1.5h9q37 0 53.5 -1.5t21.5 -5t6 -12.5l36 -279q20 -156 22 -231q27 118 60 210l109 300q4 10 10 13.5t22 4.5t56 1h8q37 0 52.5 -1t21 -5t6.5 -13l34 -327q11 -112 11 -185q21 81 57 178l127 334
q3 9 9 12.5t22 5t53 1.5h9q49 0 63 -4t9 -15l-285 -683q-3 -8 -9.5 -12t-22.5 -5t-51 -1h-17q-40 0 -56.5 1t-22 4.5t-6.5 12.5l-28 237q-14 122 -15 238q-31 -116 -66 -214l-94 -261q-4 -11 -19 -14.5t-66 -3.5h-28q-36 0 -51 1.5zM413 808q-20 19 -20 49q0 38 28 66.5
t69 28.5q32 0 52 -19.5t20 -49.5q0 -37 -28 -65.5t-67 -28.5q-34 0 -54 19zM626 808q-20 19 -20 49q0 38 28 66.5t69 28.5q32 0 52 -19.5t20 -49.5q0 -37 -28 -65.5t-67 -28.5q-34 0 -54 19z" />
    <glyph glyph-name="Wgrave" unicode="&#x1e80;" horiz-adv-x="1019" 
d="M205 1.5q-15 1.5 -19.5 5t-5.5 11.5l-105 684q-1 8 3 11.5t21 5t56 1.5h9q37 0 53.5 -1.5t21.5 -5t6 -12.5l36 -279q20 -156 22 -231q27 118 60 210l109 300q4 10 10 13.5t22 4.5t56 1h8q37 0 52.5 -1t21 -5t6.5 -13l34 -327q11 -112 11 -185q21 81 57 178l127 334
q3 9 9 12.5t22 5t53 1.5h9q49 0 63 -4t9 -15l-285 -683q-3 -8 -9.5 -12t-22.5 -5t-51 -1h-17q-40 0 -56.5 1t-22 4.5t-6.5 12.5l-28 237q-14 122 -15 238q-31 -116 -66 -214l-94 -261q-4 -11 -19 -14.5t-66 -3.5h-28q-36 0 -51 1.5zM551 787q-12 3 -16 11l-101 157
q-4 7 -4 12q0 9 11.5 13t39.5 4h36q33 0 47 -5t19 -15l76 -153q3 -6 3 -12q0 -8 -10 -11.5t-32 -3.5h-32q-25 0 -37 3z" />
    <glyph glyph-name="X" unicode="X" horiz-adv-x="678" 
d="M-30 3.5q-9 3.5 -2 12.5l187 235l99 123l-57 112l-110 217q-5 10 6 13.5t54 3.5h42q27 0 44.5 -1t23 -3.5t9.5 -9.5l45 -87q40 -79 61 -130q36 58 68 103l82 114q6 9 18.5 11.5t55.5 2.5h62q47 0 47 -10q0 -2 -4 -8l-155 -200q-85 -109 -115 -142q32 -58 68 -131
l106 -214q5 -9 -6.5 -12t-54.5 -3h-42q-45 0 -58 2.5t-17 11.5l-48 99q-42 88 -67 144l-78 -118l-84 -125q-6 -9 -18 -11.5t-58 -2.5h-61q-34 0 -43 3.5z" />
    <glyph glyph-name="Y" unicode="Y" horiz-adv-x="655" 
d="M221.5 1q-15.5 1 -19.5 4.5t-3 11.5l37 264l-167 420q-4 9 0.5 13t20 5t52.5 1h19q50 0 64.5 -3t18.5 -15l53 -138q36 -90 51 -142q40 80 79 142l87 139q7 11 20.5 14t58.5 3h38q35 0 48.5 -2.5t13.5 -7.5q0 -3 -3 -8l-286 -424l-34 -261q-1 -8 -7 -11.5t-22 -4.5t-52 -1
h-14q-38 0 -53.5 1z" />
    <glyph glyph-name="Yacute" unicode="&#xdd;" horiz-adv-x="655" 
d="M221.5 1q-15.5 1 -19.5 4.5t-3 11.5l37 264l-167 420q-4 9 0.5 13t20 5t52.5 1h19q50 0 64.5 -3t18.5 -15l53 -138q36 -90 51 -142q40 80 79 142l87 139q7 11 20.5 14t58.5 3h38q35 0 48.5 -2.5t13.5 -7.5q0 -3 -3 -8l-286 -424l-34 -261q-1 -8 -7 -11.5t-22 -4.5t-52 -1
h-14q-38 0 -53.5 1zM301 786.5q-9 2.5 -9 9.5t7 15l122 158q8 10 18 12.5t44 2.5h40q26 0 38 -3.5t12 -10.5q0 -6 -9 -15l-145 -157q-7 -8 -19 -11t-38 -3h-32q-20 0 -29 2.5z" />
    <glyph glyph-name="Ycircumflex" unicode="&#x176;" horiz-adv-x="655" 
d="M221.5 1q-15.5 1 -19.5 4.5t-3 11.5l37 264l-167 420q-4 9 0.5 13t20 5t52.5 1h19q50 0 64.5 -3t18.5 -15l53 -138q36 -90 51 -142q40 80 79 142l87 139q7 11 20.5 14t58.5 3h38q35 0 48.5 -2.5t13.5 -7.5q0 -3 -3 -8l-286 -424l-34 -261q-1 -8 -7 -11.5t-22 -4.5t-52 -1
h-14q-38 0 -53.5 1zM291 786q-11 0 -32 25l-8 10q-18 23 -18 31q0 6 6 10l100 92q15 14 27.5 17.5t45.5 3.5h12q33 0 44.5 -3.5t22.5 -17.5l74 -92q4 -4 4 -10q0 -5 -6 -12t-20 -19l-12 -10q-28 -24 -39 -24q-6 0 -12 6l-74 77l-102 -79q-8 -5 -13 -5z" />
    <glyph glyph-name="Ydieresis" unicode="&#x178;" horiz-adv-x="655" 
d="M221.5 1q-15.5 1 -19.5 4.5t-3 11.5l37 264l-167 420q-4 9 0.5 13t20 5t52.5 1h19q50 0 64.5 -3t18.5 -15l53 -138q36 -90 51 -142q40 80 79 142l87 139q7 11 20.5 14t58.5 3h38q35 0 48.5 -2.5t13.5 -7.5q0 -3 -3 -8l-286 -424l-34 -261q-1 -8 -7 -11.5t-22 -4.5t-52 -1
h-14q-38 0 -53.5 1zM229 808q-20 19 -20 49q0 38 28 66.5t69 28.5q32 0 52 -19.5t20 -49.5q0 -37 -28 -65.5t-67 -28.5q-34 0 -54 19zM442 808q-20 19 -20 49q0 38 28 66.5t69 28.5q32 0 52 -19.5t20 -49.5q0 -37 -28 -65.5t-67 -28.5q-34 0 -54 19z" />
    <glyph glyph-name="Ygrave" unicode="&#x1ef2;" horiz-adv-x="655" 
d="M221.5 1q-15.5 1 -19.5 4.5t-3 11.5l37 264l-167 420q-4 9 0.5 13t20 5t52.5 1h19q50 0 64.5 -3t18.5 -15l53 -138q36 -90 51 -142q40 80 79 142l87 139q7 11 20.5 14t58.5 3h38q35 0 48.5 -2.5t13.5 -7.5q0 -3 -3 -8l-286 -424l-34 -261q-1 -8 -7 -11.5t-22 -4.5t-52 -1
h-14q-38 0 -53.5 1zM367 787q-12 3 -16 11l-101 157q-4 7 -4 12q0 9 11.5 13t39.5 4h36q33 0 47 -5t19 -15l76 -153q3 -6 3 -12q0 -8 -10 -11.5t-32 -3.5h-32q-25 0 -37 3z" />
    <glyph glyph-name="Z" unicode="Z" horiz-adv-x="611" 
d="M5.5 3.5q-8.5 3.5 -6.5 12.5l9 64q4 27 9.5 40.5t21.5 33.5l352 431h-279q-7 0 -10.5 4.5t-3.5 17.5q0 16 4 43l1 7q3 25 6.5 40t7 19t11.5 4h433q32 0 40.5 -3t6.5 -13l-9 -65q-4 -27 -9.5 -41.5t-20.5 -33.5l-349 -429h304q9 0 12.5 -3.5t3.5 -15.5q0 -3 -4 -43l-1 -8
q-4 -30 -7.5 -44t-8 -17.5t-13.5 -3.5h-460q-32 0 -40.5 3.5z" />
    <glyph glyph-name="Zacute" unicode="&#x179;" horiz-adv-x="611" 
d="M5.5 3.5q-8.5 3.5 -6.5 12.5l9 64q4 27 9.5 40.5t21.5 33.5l352 431h-279q-7 0 -10.5 4.5t-3.5 17.5q0 16 4 43l1 7q3 25 6.5 40t7 19t11.5 4h433q32 0 40.5 -3t6.5 -13l-9 -65q-4 -27 -9.5 -41.5t-20.5 -33.5l-349 -429h304q9 0 12.5 -3.5t3.5 -15.5q0 -3 -4 -43l-1 -8
q-4 -30 -7.5 -44t-8 -17.5t-13.5 -3.5h-460q-32 0 -40.5 3.5zM277 786.5q-9 2.5 -9 9.5t7 15l122 158q8 10 18 12.5t44 2.5h40q26 0 38 -3.5t12 -10.5q0 -6 -9 -15l-145 -157q-7 -8 -19 -11t-38 -3h-32q-20 0 -29 2.5z" />
    <glyph glyph-name="Zacute.loclPLK" horiz-adv-x="611" 
d="M5.5 3.5q-8.5 3.5 -6.5 12.5l9 64q4 27 9.5 40.5t21.5 33.5l352 431h-279q-7 0 -10.5 4.5t-3.5 17.5q0 16 4 43l1 7q3 25 6.5 40t7 19t11.5 4h433q32 0 40.5 -3t6.5 -13l-9 -65q-4 -27 -9.5 -41.5t-20.5 -33.5l-349 -429h304q9 0 12.5 -3.5t3.5 -15.5q0 -3 -4 -43l-1 -8
q-4 -30 -7.5 -44t-8 -17.5t-13.5 -3.5h-460q-32 0 -40.5 3.5zM304 787q-10 3 -10 11q0 3 4 13l68 155q5 11 16.5 14.5t42.5 3.5h43q27 0 37.5 -2.5t10.5 -9.5q0 -5 -7 -17l-90 -153q-7 -12 -16 -15t-35 -3h-29q-25 0 -35 3z" />
    <glyph glyph-name="Zcaron" unicode="&#x17d;" horiz-adv-x="611" 
d="M5.5 3.5q-8.5 3.5 -6.5 12.5l9 64q4 27 9.5 40.5t21.5 33.5l352 431h-279q-7 0 -10.5 4.5t-3.5 17.5q0 16 4 43l1 7q3 25 6.5 40t7 19t11.5 4h433q32 0 40.5 -3t6.5 -13l-9 -65q-4 -27 -9.5 -41.5t-20.5 -33.5l-349 -429h304q9 0 12.5 -3.5t3.5 -15.5q0 -3 -4 -43l-1 -8
q-4 -30 -7.5 -44t-8 -17.5t-13.5 -3.5h-460q-32 0 -40.5 3.5zM309 785q-12 4 -23 17l-75 95q-4 6 -4 9q0 11 28 34l12 10q26 22 37 22q6 0 12 -6l78 -80l101 80q11 7 15 7q11 0 32 -25l8 -10q18 -22 18 -30q0 -5 -6 -11l-104 -95q-14 -13 -28 -17t-45 -4h-12q-32 0 -44 4z
" />
    <glyph glyph-name="Zdotaccent" unicode="&#x17b;" horiz-adv-x="611" 
d="M5.5 3.5q-8.5 3.5 -6.5 12.5l9 64q4 27 9.5 40.5t21.5 33.5l352 431h-279q-7 0 -10.5 4.5t-3.5 17.5q0 16 4 43l1 7q3 25 6.5 40t7 19t11.5 4h433q32 0 40.5 -3t6.5 -13l-9 -65q-4 -27 -9.5 -41.5t-20.5 -33.5l-349 -429h304q9 0 12.5 -3.5t3.5 -15.5q0 -3 -4 -43l-1 -8
q-4 -30 -7.5 -44t-8 -17.5t-13.5 -3.5h-460q-32 0 -40.5 3.5zM311 793.5q-20 20.5 -20 50.5q0 38 27.5 64.5t66.5 26.5q31 0 51 -20.5t20 -50.5q0 -39 -27 -65t-66 -26q-32 0 -52 20.5z" />
    <glyph glyph-name="a" unicode="a" horiz-adv-x="574" 
d="M74 44q-48 54 -48 150q0 105 39 183t101 119.5t128 41.5q73 0 108 -51l7 23q3 10 14 14t51 4h6q42 0 55 -4.5t11 -16.5l-40 -269q-15 -101 -23 -212q-1 -12 -4.5 -16.5t-18.5 -7t-49 -2.5h-4q-36 0 -49.5 2t-17 9t-3.5 27v9q-26 -30 -57.5 -43.5t-72.5 -13.5
q-85 0 -133 54zM316 137.5q20 20.5 27 66.5l23 167q-8 16 -25.5 26t-37.5 10q-32 0 -57.5 -24t-40.5 -69t-15 -105q0 -92 70 -92q36 0 56 20.5z" />
    <glyph glyph-name="a.ss01" horiz-adv-x="573" 
d="M51 36q-45 46 -45 116q0 83 62.5 122t164.5 39h110l1 9q3 23 3 31q0 54 -76 54q-33 0 -64 -7t-71 -23q-4 -2 -12 -2q-10 0 -17.5 10.5t-18.5 37.5l-4 10q-12 29 -12 40q0 7 3.5 11.5t11.5 8.5q45 21 99 33t109 12q105 0 158.5 -46.5t53.5 -131.5q0 -23 -7 -72l-19 -136
l-2 -17q0 -10 4.5 -14.5t14.5 -4.5h14q7 0 10 -2.5t3 -11.5q0 -3 -4 -37l-1 -9q-4 -28 -8.5 -37.5t-13.5 -13.5q-25 -10 -73 -10q-76 0 -99 54q-25 -29 -63 -44t-84 -15q-83 0 -128 46zM293 141q28 26 35 71h-99q-63 0 -63 -46q0 -23 15.5 -37t42.5 -14q41 0 69 26z" />
    <glyph glyph-name="aacute" unicode="&#xe1;" horiz-adv-x="574" 
d="M74 44q-48 54 -48 150q0 105 39 183t101 119.5t128 41.5q73 0 108 -51l7 23q3 10 14 14t51 4h6q42 0 55 -4.5t11 -16.5l-40 -269q-15 -101 -23 -212q-1 -12 -4.5 -16.5t-18.5 -7t-49 -2.5h-4q-36 0 -49.5 2t-17 9t-3.5 27v9q-26 -30 -57.5 -43.5t-72.5 -13.5
q-85 0 -133 54zM316 137.5q20 20.5 27 66.5l23 167q-8 16 -25.5 26t-37.5 10q-32 0 -57.5 -24t-40.5 -69t-15 -105q0 -92 70 -92q36 0 56 20.5zM247 594.5q-9 2.5 -9 9.5t7 15l122 158q8 10 18 12.5t44 2.5h40q26 0 38 -3.5t12 -10.5q0 -6 -9 -15l-145 -157q-7 -8 -19 -11
t-38 -3h-32q-20 0 -29 2.5z" />
    <glyph glyph-name="aacute.ss01" horiz-adv-x="573" 
d="M51 36q-45 46 -45 116q0 83 62.5 122t164.5 39h110l1 9q3 23 3 31q0 54 -76 54q-33 0 -64 -7t-71 -23q-4 -2 -12 -2q-10 0 -17.5 10.5t-18.5 37.5l-4 10q-12 29 -12 40q0 7 3.5 11.5t11.5 8.5q45 21 99 33t109 12q105 0 158.5 -46.5t53.5 -131.5q0 -23 -7 -72l-19 -136
l-2 -17q0 -10 4.5 -14.5t14.5 -4.5h14q7 0 10 -2.5t3 -11.5q0 -3 -4 -37l-1 -9q-4 -28 -8.5 -37.5t-13.5 -13.5q-25 -10 -73 -10q-76 0 -99 54q-25 -29 -63 -44t-84 -15q-83 0 -128 46zM293 141q28 26 35 71h-99q-63 0 -63 -46q0 -23 15.5 -37t42.5 -14q41 0 69 26z
M222 594.5q-9 2.5 -9 9.5t7 15l122 158q8 10 18 12.5t44 2.5h40q26 0 38 -3.5t12 -10.5q0 -6 -9 -15l-145 -157q-7 -8 -19 -11t-38 -3h-32q-20 0 -29 2.5z" />
    <glyph glyph-name="abreve" unicode="&#x103;" horiz-adv-x="574" 
d="M74 44q-48 54 -48 150q0 105 39 183t101 119.5t128 41.5q73 0 108 -51l7 23q3 10 14 14t51 4h6q42 0 55 -4.5t11 -16.5l-40 -269q-15 -101 -23 -212q-1 -12 -4.5 -16.5t-18.5 -7t-49 -2.5h-4q-36 0 -49.5 2t-17 9t-3.5 27v9q-26 -30 -57.5 -43.5t-72.5 -13.5
q-85 0 -133 54zM316 137.5q20 20.5 27 66.5l23 167q-8 16 -25.5 26t-37.5 10q-32 0 -57.5 -24t-40.5 -69t-15 -105q0 -92 70 -92q36 0 56 20.5zM221.5 628.5q-38.5 32.5 -38.5 89.5q0 16 1 23q1 14 11.5 17.5t44.5 3.5h14q29 0 38.5 -4t8.5 -14q-2 -23 8 -36t30 -13
q21 0 34 12t19 37q2 10 12.5 14t40.5 4h14q34 0 43 -3.5t6 -17.5q-13 -68 -60.5 -106.5t-117.5 -38.5t-108.5 32.5z" />
    <glyph glyph-name="abreve.ss01" horiz-adv-x="573" 
d="M51 36q-45 46 -45 116q0 83 62.5 122t164.5 39h110l1 9q3 23 3 31q0 54 -76 54q-33 0 -64 -7t-71 -23q-4 -2 -12 -2q-10 0 -17.5 10.5t-18.5 37.5l-4 10q-12 29 -12 40q0 7 3.5 11.5t11.5 8.5q45 21 99 33t109 12q105 0 158.5 -46.5t53.5 -131.5q0 -23 -7 -72l-19 -136
l-2 -17q0 -10 4.5 -14.5t14.5 -4.5h14q7 0 10 -2.5t3 -11.5q0 -3 -4 -37l-1 -9q-4 -28 -8.5 -37.5t-13.5 -13.5q-25 -10 -73 -10q-76 0 -99 54q-25 -29 -63 -44t-84 -15q-83 0 -128 46zM293 141q28 26 35 71h-99q-63 0 -63 -46q0 -23 15.5 -37t42.5 -14q41 0 69 26z
M196.5 628.5q-38.5 32.5 -38.5 89.5q0 16 1 23q1 14 11.5 17.5t44.5 3.5h14q29 0 38.5 -4t8.5 -14q-2 -23 8 -36t30 -13q21 0 34 12t19 37q2 10 12.5 14t40.5 4h14q34 0 43 -3.5t6 -17.5q-13 -68 -60.5 -106.5t-117.5 -38.5t-108.5 32.5z" />
    <glyph glyph-name="uni01CE" unicode="&#x1ce;" horiz-adv-x="574" 
d="M74 44q-48 54 -48 150q0 105 39 183t101 119.5t128 41.5q73 0 108 -51l7 23q3 10 14 14t51 4h6q42 0 55 -4.5t11 -16.5l-40 -269q-15 -101 -23 -212q-1 -12 -4.5 -16.5t-18.5 -7t-49 -2.5h-4q-36 0 -49.5 2t-17 9t-3.5 27v9q-26 -30 -57.5 -43.5t-72.5 -13.5
q-85 0 -133 54zM316 137.5q20 20.5 27 66.5l23 167q-8 16 -25.5 26t-37.5 10q-32 0 -57.5 -24t-40.5 -69t-15 -105q0 -92 70 -92q36 0 56 20.5zM279 595q-12 4 -23 17l-75 95q-4 6 -4 9q0 11 28 34l12 10q26 22 37 22q6 0 12 -6l78 -80l101 80q10 7 15 7q11 0 32 -25l8 -10
q18 -22 18 -30q0 -5 -6 -11l-104 -95q-14 -13 -28 -17t-45 -4h-12q-32 0 -44 4z" />
    <glyph glyph-name="uni01CE.ss01" horiz-adv-x="573" 
d="M51 36q-45 46 -45 116q0 83 62.5 122t164.5 39h110l1 9q3 23 3 31q0 54 -76 54q-33 0 -64 -7t-71 -23q-4 -2 -12 -2q-10 0 -17.5 10.5t-18.5 37.5l-4 10q-12 29 -12 40q0 7 3.5 11.5t11.5 8.5q45 21 99 33t109 12q105 0 158.5 -46.5t53.5 -131.5q0 -23 -7 -72l-19 -136
l-2 -17q0 -10 4.5 -14.5t14.5 -4.5h14q7 0 10 -2.5t3 -11.5q0 -3 -4 -37l-1 -9q-4 -28 -8.5 -37.5t-13.5 -13.5q-25 -10 -73 -10q-76 0 -99 54q-25 -29 -63 -44t-84 -15q-83 0 -128 46zM293 141q28 26 35 71h-99q-63 0 -63 -46q0 -23 15.5 -37t42.5 -14q41 0 69 26zM254 595
q-12 4 -23 17l-75 95q-4 6 -4 9q0 11 28 34l12 10q26 22 37 22q6 0 12 -6l78 -80l101 80q10 7 15 7q11 0 32 -25l8 -10q18 -22 18 -30q0 -5 -6 -11l-104 -95q-14 -13 -28 -17t-45 -4h-12q-32 0 -44 4z" />
    <glyph glyph-name="acircumflex" unicode="&#xe2;" horiz-adv-x="574" 
d="M74 44q-48 54 -48 150q0 105 39 183t101 119.5t128 41.5q73 0 108 -51l7 23q3 10 14 14t51 4h6q42 0 55 -4.5t11 -16.5l-40 -269q-15 -101 -23 -212q-1 -12 -4.5 -16.5t-18.5 -7t-49 -2.5h-4q-36 0 -49.5 2t-17 9t-3.5 27v9q-26 -30 -57.5 -43.5t-72.5 -13.5
q-85 0 -133 54zM316 137.5q20 20.5 27 66.5l23 167q-8 16 -25.5 26t-37.5 10q-32 0 -57.5 -24t-40.5 -69t-15 -105q0 -92 70 -92q36 0 56 20.5zM237 594q-11 0 -32 25l-8 10q-18 23 -18 31q0 6 6 10l100 92q15 14 27.5 17.5t45.5 3.5h12q33 0 44.5 -3.5t22.5 -17.5l74 -92
q4 -4 4 -10q0 -5 -6 -12t-20 -19l-12 -10q-28 -24 -39 -24q-6 0 -12 6l-74 77l-102 -79q-8 -5 -13 -5z" />
    <glyph glyph-name="acircumflex.ss01" horiz-adv-x="573" 
d="M51 36q-45 46 -45 116q0 83 62.5 122t164.5 39h110l1 9q3 23 3 31q0 54 -76 54q-33 0 -64 -7t-71 -23q-4 -2 -12 -2q-10 0 -17.5 10.5t-18.5 37.5l-4 10q-12 29 -12 40q0 7 3.5 11.5t11.5 8.5q45 21 99 33t109 12q105 0 158.5 -46.5t53.5 -131.5q0 -23 -7 -72l-19 -136
l-2 -17q0 -10 4.5 -14.5t14.5 -4.5h14q7 0 10 -2.5t3 -11.5q0 -3 -4 -37l-1 -9q-4 -28 -8.5 -37.5t-13.5 -13.5q-25 -10 -73 -10q-76 0 -99 54q-25 -29 -63 -44t-84 -15q-83 0 -128 46zM293 141q28 26 35 71h-99q-63 0 -63 -46q0 -23 15.5 -37t42.5 -14q41 0 69 26zM212 594
q-11 0 -32 25l-8 10q-18 23 -18 31q0 6 6 10l100 92q15 14 27.5 17.5t45.5 3.5h12q33 0 44.5 -3.5t22.5 -17.5l74 -92q4 -4 4 -10q0 -5 -6 -12t-20 -19l-12 -10q-28 -24 -39 -24q-6 0 -12 6l-74 77l-102 -79q-8 -5 -13 -5z" />
    <glyph glyph-name="adieresis" unicode="&#xe4;" horiz-adv-x="574" 
d="M74 44q-48 54 -48 150q0 105 39 183t101 119.5t128 41.5q73 0 108 -51l7 23q3 10 14 14t51 4h6q42 0 55 -4.5t11 -16.5l-40 -269q-15 -101 -23 -212q-1 -12 -4.5 -16.5t-18.5 -7t-49 -2.5h-4q-36 0 -49.5 2t-17 9t-3.5 27v9q-26 -30 -57.5 -43.5t-72.5 -13.5
q-85 0 -133 54zM316 137.5q20 20.5 27 66.5l23 167q-8 16 -25.5 26t-37.5 10q-32 0 -57.5 -24t-40.5 -69t-15 -105q0 -92 70 -92q36 0 56 20.5zM175 617q-20 19 -20 49q0 38 28 66.5t69 28.5q32 0 52 -19.5t20 -49.5q0 -37 -28 -65.5t-67 -28.5q-34 0 -54 19zM388 617
q-20 19 -20 49q0 38 28 66.5t69 28.5q32 0 52 -19.5t20 -49.5q0 -37 -28 -65.5t-67 -28.5q-34 0 -54 19z" />
    <glyph glyph-name="adieresis.ss01" horiz-adv-x="573" 
d="M51 36q-45 46 -45 116q0 83 62.5 122t164.5 39h110l1 9q3 23 3 31q0 54 -76 54q-33 0 -64 -7t-71 -23q-4 -2 -12 -2q-10 0 -17.5 10.5t-18.5 37.5l-4 10q-12 29 -12 40q0 7 3.5 11.5t11.5 8.5q45 21 99 33t109 12q105 0 158.5 -46.5t53.5 -131.5q0 -23 -7 -72l-19 -136
l-2 -17q0 -10 4.5 -14.5t14.5 -4.5h14q7 0 10 -2.5t3 -11.5q0 -3 -4 -37l-1 -9q-4 -28 -8.5 -37.5t-13.5 -13.5q-25 -10 -73 -10q-76 0 -99 54q-25 -29 -63 -44t-84 -15q-83 0 -128 46zM293 141q28 26 35 71h-99q-63 0 -63 -46q0 -23 15.5 -37t42.5 -14q41 0 69 26zM150 617
q-20 19 -20 49q0 38 28 66.5t69 28.5q32 0 52 -19.5t20 -49.5q0 -37 -28 -65.5t-67 -28.5q-34 0 -54 19zM363 617q-20 19 -20 49q0 38 28 66.5t69 28.5q32 0 52 -19.5t20 -49.5q0 -37 -28 -65.5t-67 -28.5q-34 0 -54 19z" />
    <glyph glyph-name="agrave" unicode="&#xe0;" horiz-adv-x="574" 
d="M74 44q-48 54 -48 150q0 105 39 183t101 119.5t128 41.5q73 0 108 -51l7 23q3 10 14 14t51 4h6q42 0 55 -4.5t11 -16.5l-40 -269q-15 -101 -23 -212q-1 -12 -4.5 -16.5t-18.5 -7t-49 -2.5h-4q-36 0 -49.5 2t-17 9t-3.5 27v9q-26 -30 -57.5 -43.5t-72.5 -13.5
q-85 0 -133 54zM316 137.5q20 20.5 27 66.5l23 167q-8 16 -25.5 26t-37.5 10q-32 0 -57.5 -24t-40.5 -69t-15 -105q0 -92 70 -92q36 0 56 20.5zM303 595q-12 3 -16 11l-101 157q-4 7 -4 12q0 9 11.5 13t39.5 4h36q33 0 47 -5t19 -15l76 -153q3 -6 3 -12q0 -8 -10 -11.5
t-32 -3.5h-32q-25 0 -37 3z" />
    <glyph glyph-name="agrave.ss01" horiz-adv-x="573" 
d="M51 36q-45 46 -45 116q0 83 62.5 122t164.5 39h110l1 9q3 23 3 31q0 54 -76 54q-33 0 -64 -7t-71 -23q-4 -2 -12 -2q-10 0 -17.5 10.5t-18.5 37.5l-4 10q-12 29 -12 40q0 7 3.5 11.5t11.5 8.5q45 21 99 33t109 12q105 0 158.5 -46.5t53.5 -131.5q0 -23 -7 -72l-19 -136
l-2 -17q0 -10 4.5 -14.5t14.5 -4.5h14q7 0 10 -2.5t3 -11.5q0 -3 -4 -37l-1 -9q-4 -28 -8.5 -37.5t-13.5 -13.5q-25 -10 -73 -10q-76 0 -99 54q-25 -29 -63 -44t-84 -15q-83 0 -128 46zM293 141q28 26 35 71h-99q-63 0 -63 -46q0 -23 15.5 -37t42.5 -14q41 0 69 26zM278 595
q-12 3 -16 11l-101 157q-4 7 -4 12q0 9 11.5 13t39.5 4h36q33 0 47 -5t19 -15l76 -153q3 -6 3 -12q0 -8 -10 -11.5t-32 -3.5h-32q-25 0 -37 3z" />
    <glyph glyph-name="amacron" unicode="&#x101;" horiz-adv-x="574" 
d="M74 44q-48 54 -48 150q0 105 39 183t101 119.5t128 41.5q73 0 108 -51l7 23q3 10 14 14t51 4h6q42 0 55 -4.5t11 -16.5l-40 -269q-15 -101 -23 -212q-1 -12 -4.5 -16.5t-18.5 -7t-49 -2.5h-4q-36 0 -49.5 2t-17 9t-3.5 27v9q-26 -30 -57.5 -43.5t-72.5 -13.5
q-85 0 -133 54zM316 137.5q20 20.5 27 66.5l23 167q-8 16 -25.5 26t-37.5 10q-32 0 -57.5 -24t-40.5 -69t-15 -105q0 -92 70 -92q36 0 56 20.5zM193.5 629q-2.5 3 -2.5 13q0 14 4 38l1 7q4 31 8 39.5t13 8.5h274q6 0 8.5 -3.5t2.5 -13.5t-3 -34l-1 -7q-5 -34 -9 -42.5
t-13 -8.5h-274q-6 0 -8.5 3z" />
    <glyph glyph-name="amacron.ss01" horiz-adv-x="573" 
d="M51 36q-45 46 -45 116q0 83 62.5 122t164.5 39h110l1 9q3 23 3 31q0 54 -76 54q-33 0 -64 -7t-71 -23q-4 -2 -12 -2q-10 0 -17.5 10.5t-18.5 37.5l-4 10q-12 29 -12 40q0 7 3.5 11.5t11.5 8.5q45 21 99 33t109 12q105 0 158.5 -46.5t53.5 -131.5q0 -23 -7 -72l-19 -136
l-2 -17q0 -10 4.5 -14.5t14.5 -4.5h14q7 0 10 -2.5t3 -11.5q0 -3 -4 -37l-1 -9q-4 -28 -8.5 -37.5t-13.5 -13.5q-25 -10 -73 -10q-76 0 -99 54q-25 -29 -63 -44t-84 -15q-83 0 -128 46zM293 141q28 26 35 71h-99q-63 0 -63 -46q0 -23 15.5 -37t42.5 -14q41 0 69 26z
M168.5 629q-2.5 3 -2.5 13q0 14 4 38l1 7q4 31 8 39.5t13 8.5h274q6 0 8.5 -3.5t2.5 -13.5t-3 -34l-1 -7q-5 -34 -9 -42.5t-13 -8.5h-274q-6 0 -8.5 3z" />
    <glyph glyph-name="aogonek" unicode="&#x105;" horiz-adv-x="574" 
d="M253 -216.5q-30 29.5 -30 76.5q0 48 31.5 87.5t85.5 62.5l-3 37q-26 -30 -57.5 -43.5t-72.5 -13.5q-85 0 -133 54t-48 150q0 105 39 183t101 119.5t128 41.5q73 0 108 -51l7 23q3 10 14 14t51 4h6q42 0 55 -4.5t11 -16.5l-40 -269q-18 -120 -23 -216q-1 -9 -5 -13t-16 -8
q-53 -16 -83.5 -45t-30.5 -66q0 -16 8.5 -25t22.5 -9q16 0 40 8q8 2 12 -3t9 -27l2 -9q3 -18 3 -28q0 -13 -9 -18q-48 -25 -98 -25q-55 0 -85 29.5zM316 137.5q20 20.5 27 66.5l23 167q-8 16 -25.5 26t-37.5 10q-32 0 -57.5 -24t-40.5 -69t-15 -105q0 -92 70 -92
q36 0 56 20.5z" />
    <glyph glyph-name="aogonek.ss01" horiz-adv-x="573" 
d="M285 -216.5q-30 29.5 -30 76.5q0 46 30 85t81 62q-28 13 -40 42q-25 -29 -63 -44t-84 -15q-83 0 -128 46t-45 116q0 83 62.5 122t164.5 39h110l1 9q3 23 3 31q0 54 -76 54q-33 0 -64 -7t-71 -23q-4 -2 -12 -2q-10 0 -17.5 10.5t-18.5 37.5l-4 10q-12 29 -12 40
q0 7 3.5 11.5t11.5 8.5q45 21 99 33t109 12q105 0 158.5 -46.5t53.5 -131.5q0 -23 -7 -72l-19 -136q-2 -12 -2 -17q0 -10 4.5 -14.5t14.5 -4.5h14q7 0 10 -2.5t3 -11.5q0 -3 -4 -37l-6 -43q-2 -9 -5.5 -13t-15.5 -8q-53 -16 -83.5 -45t-30.5 -66q0 -16 8.5 -25t22.5 -9
q16 0 40 8q8 2 12 -3t9 -27l2 -9q3 -18 3 -28q0 -13 -9 -18q-48 -25 -98 -25q-55 0 -85 29.5zM293 141q28 26 35 71h-99q-63 0 -63 -46q0 -23 15.5 -37t42.5 -14q41 0 69 26z" />
    <glyph glyph-name="aring" unicode="&#xe5;" horiz-adv-x="574" 
d="M74 44q-48 54 -48 150q0 105 39 183t101 119.5t128 41.5q73 0 108 -51l7 23q3 10 14 14t51 4h6q42 0 55 -4.5t11 -16.5l-40 -269q-15 -101 -23 -212q-1 -12 -4.5 -16.5t-18.5 -7t-49 -2.5h-4q-36 0 -49.5 2t-17 9t-3.5 27v9q-26 -30 -57.5 -43.5t-72.5 -13.5
q-85 0 -133 54zM316 137.5q20 20.5 27 66.5l23 167q-8 16 -25.5 26t-37.5 10q-32 0 -57.5 -24t-40.5 -69t-15 -105q0 -92 70 -92q36 0 56 20.5zM257 613.5q-30 29.5 -30 71.5q0 34 18 64.5t49.5 49.5t70.5 19q47 0 76.5 -28t29.5 -74q0 -34 -19.5 -64.5t-51.5 -49t-68 -18.5
q-45 0 -75 29.5zM369 678.5q11 10.5 11 26.5q0 13 -7.5 21t-21.5 8q-15 0 -25 -10t-10 -29q0 -12 7.5 -19.5t20.5 -7.5q14 0 25 10.5z" />
    <glyph glyph-name="aring.ss01" horiz-adv-x="573" 
d="M51 36q-45 46 -45 116q0 83 62.5 122t164.5 39h110l1 9q3 23 3 31q0 54 -76 54q-33 0 -64 -7t-71 -23q-4 -2 -12 -2q-10 0 -17.5 10.5t-18.5 37.5l-4 10q-12 29 -12 40q0 7 3.5 11.5t11.5 8.5q45 21 99 33t109 12q105 0 158.5 -46.5t53.5 -131.5q0 -23 -7 -72l-19 -136
l-2 -17q0 -10 4.5 -14.5t14.5 -4.5h14q7 0 10 -2.5t3 -11.5q0 -3 -4 -37l-1 -9q-4 -28 -8.5 -37.5t-13.5 -13.5q-25 -10 -73 -10q-76 0 -99 54q-25 -29 -63 -44t-84 -15q-83 0 -128 46zM293 141q28 26 35 71h-99q-63 0 -63 -46q0 -23 15.5 -37t42.5 -14q41 0 69 26z
M232 613.5q-30 29.5 -30 71.5q0 34 18 64.5t49.5 49.5t70.5 19q47 0 76.5 -28t29.5 -74q0 -34 -19.5 -64.5t-51.5 -49t-68 -18.5q-45 0 -75 29.5zM344 678.5q11 10.5 11 26.5q0 13 -7.5 21t-21.5 8q-15 0 -25 -10t-10 -29q0 -12 7.5 -19.5t20.5 -7.5q14 0 25 10.5z" />
    <glyph glyph-name="aringacute" unicode="&#x1fb;" horiz-adv-x="574" 
d="M74 44q-48 54 -48 150q0 105 39 183t101 119.5t128 41.5q73 0 108 -51l7 23q3 10 14 14t51 4h6q42 0 55 -4.5t11 -16.5l-40 -269q-15 -101 -23 -212q-1 -12 -4.5 -16.5t-18.5 -7t-49 -2.5h-4q-36 0 -49.5 2t-17 9t-3.5 27v9q-26 -30 -57.5 -43.5t-72.5 -13.5
q-85 0 -133 54zM316 137.5q20 20.5 27 66.5l23 167q-8 16 -25.5 26t-37.5 10q-32 0 -57.5 -24t-40.5 -69t-15 -105q0 -92 70 -92q36 0 56 20.5zM289 603.5q-30 29.5 -30 71.5q0 34 18 64.5t49.5 49.5t70.5 19q47 0 76.5 -28t29.5 -74q0 -34 -19.5 -64.5t-51.5 -49t-68 -18.5
q-45 0 -75 29.5zM401 668.5q11 10.5 11 26.5q0 13 -7.5 21t-21.5 8q-15 0 -25 -10t-10 -29q0 -12 7.5 -19.5t20.5 -7.5q14 0 25 10.5zM294 842.5q-9 2.5 -9 9.5t7 15l122 158q8 10 18 12.5t44 2.5h40q26 0 38 -3.5t12 -10.5q0 -6 -9 -15l-145 -157q-7 -8 -19 -11t-38 -3h-32
q-20 0 -29 2.5z" />
    <glyph glyph-name="aringacute.ss01" horiz-adv-x="573" 
d="M51 36q-45 46 -45 116q0 83 62.5 122t164.5 39h110l1 9q3 23 3 31q0 54 -76 54q-33 0 -64 -7t-71 -23q-4 -2 -12 -2q-10 0 -17.5 10.5t-18.5 37.5l-4 10q-12 29 -12 40q0 7 3.5 11.5t11.5 8.5q45 21 99 33t109 12q105 0 158.5 -46.5t53.5 -131.5q0 -23 -7 -72l-19 -136
l-2 -17q0 -10 4.5 -14.5t14.5 -4.5h14q7 0 10 -2.5t3 -11.5q0 -3 -4 -37l-1 -9q-4 -28 -8.5 -37.5t-13.5 -13.5q-25 -10 -73 -10q-76 0 -99 54q-25 -29 -63 -44t-84 -15q-83 0 -128 46zM293 141q28 26 35 71h-99q-63 0 -63 -46q0 -23 15.5 -37t42.5 -14q41 0 69 26z
M232 613.5q-30 29.5 -30 71.5q0 34 18 64.5t49.5 49.5t70.5 19q47 0 76.5 -28t29.5 -74q0 -34 -19.5 -64.5t-51.5 -49t-68 -18.5q-45 0 -75 29.5zM344 678.5q11 10.5 11 26.5q0 13 -7.5 21t-21.5 8q-15 0 -25 -10t-10 -29q0 -12 7.5 -19.5t20.5 -7.5q14 0 25 10.5z
M242 844.5q-9 2.5 -9 9.5t7 15l122 158q8 10 18 12.5t44 2.5h40q26 0 38 -3.5t12 -10.5q0 -6 -9 -15l-145 -157q-7 -8 -19 -11t-38 -3h-32q-20 0 -29 2.5z" />
    <glyph glyph-name="atilde" unicode="&#xe3;" horiz-adv-x="574" 
d="M74 44q-48 54 -48 150q0 105 39 183t101 119.5t128 41.5q73 0 108 -51l7 23q3 10 14 14t51 4h6q42 0 55 -4.5t11 -16.5l-40 -269q-15 -101 -23 -212q-1 -12 -4.5 -16.5t-18.5 -7t-49 -2.5h-4q-36 0 -49.5 2t-17 9t-3.5 27v9q-26 -30 -57.5 -43.5t-72.5 -13.5
q-85 0 -133 54zM316 137.5q20 20.5 27 66.5l23 167q-8 16 -25.5 26t-37.5 10q-32 0 -57.5 -24t-40.5 -69t-15 -105q0 -92 70 -92q36 0 56 20.5zM368.5 617q-15.5 5 -32.5 14q-16 9 -26 13t-24 4q-25 0 -55 -34q-5 -5 -10 -5q-11 0 -33 26l-5 6q-19 23 -19 30q0 6 6 12
q27 32 57.5 50t60.5 18q21 0 34.5 -5t31.5 -14q14 -8 24.5 -11.5t25.5 -3.5q29 0 64 32q6 4 8 4q10 0 31 -25l5 -6q17 -21 17 -32q0 -5 -5 -12q-24 -30 -54.5 -48t-62.5 -18q-23 0 -38.5 5z" />
    <glyph glyph-name="atilde.ss01" horiz-adv-x="573" 
d="M51 36q-45 46 -45 116q0 83 62.5 122t164.5 39h110l1 9q3 23 3 31q0 54 -76 54q-33 0 -64 -7t-71 -23q-4 -2 -12 -2q-10 0 -17.5 10.5t-18.5 37.5l-4 10q-12 29 -12 40q0 7 3.5 11.5t11.5 8.5q45 21 99 33t109 12q105 0 158.5 -46.5t53.5 -131.5q0 -23 -7 -72l-19 -136
l-2 -17q0 -10 4.5 -14.5t14.5 -4.5h14q7 0 10 -2.5t3 -11.5q0 -3 -4 -37l-1 -9q-4 -28 -8.5 -37.5t-13.5 -13.5q-25 -10 -73 -10q-76 0 -99 54q-25 -29 -63 -44t-84 -15q-83 0 -128 46zM293 141q28 26 35 71h-99q-63 0 -63 -46q0 -23 15.5 -37t42.5 -14q41 0 69 26z
M343.5 617q-15.5 5 -32.5 14q-16 9 -26 13t-24 4q-25 0 -55 -34q-5 -5 -10 -5q-11 0 -33 26l-5 6q-19 23 -19 30q0 6 6 12q27 32 57.5 50t60.5 18q21 0 34.5 -5t31.5 -14q14 -8 24.5 -11.5t25.5 -3.5q29 0 64 32q6 4 8 4q10 0 31 -25l5 -6q17 -21 17 -32q0 -5 -5 -12
q-24 -30 -54.5 -48t-62.5 -18q-23 0 -38.5 5z" />
    <glyph glyph-name="ae" unicode="&#xe6;" horiz-adv-x="849" 
d="M53 34q-19 17 -29.5 45t-10.5 60q0 61 33 106.5t88.5 69t122.5 23.5q39 0 79 -10q3 18 3 27q0 59 -68 59q-27 0 -61.5 -9t-66.5 -22q-13 -5 -18 -5q-9 0 -13.5 8t-10.5 31l-4 15q-7 24 -7 36q0 10 10 16q40 24 97 39t105 15q107 0 153 -55q32 25 73.5 40t86.5 15
q98 0 148.5 -57t50.5 -154q0 -31 -4 -58t-7.5 -38.5t-8 -15.5t-14.5 -4h-294q3 -92 97 -92q35 0 69 8t76 26q10 4 16 -3t12 -33l5 -24q4 -17 4 -30q0 -9 -3 -14t-10 -9q-96 -50 -204 -50q-56 0 -100.5 16t-73.5 47q-38 -30 -87 -46.5t-103 -16.5q-84 0 -131 44zM657 321
q2 44 -13 67t-46 23q-34 0 -59 -23t-38 -67h156zM328 148q-7 31 -6 68q-38 9 -65 9q-83 0 -83 -62q0 -22 14.5 -35t38.5 -13q53 0 101 33z" />
    <glyph glyph-name="aeacute" unicode="&#x1fd;" horiz-adv-x="849" 
d="M53 34q-19 17 -29.5 45t-10.5 60q0 61 33 106.5t88.5 69t122.5 23.5q39 0 79 -10q3 18 3 27q0 59 -68 59q-27 0 -61.5 -9t-66.5 -22q-13 -5 -18 -5q-9 0 -13.5 8t-10.5 31l-4 15q-7 24 -7 36q0 10 10 16q40 24 97 39t105 15q107 0 153 -55q32 25 73.5 40t86.5 15
q98 0 148.5 -57t50.5 -154q0 -31 -4 -58t-7.5 -38.5t-8 -15.5t-14.5 -4h-294q3 -92 97 -92q35 0 69 8t76 26q10 4 16 -3t12 -33l5 -24q4 -17 4 -30q0 -9 -3 -14t-10 -9q-96 -50 -204 -50q-56 0 -100.5 16t-73.5 47q-38 -30 -87 -46.5t-103 -16.5q-84 0 -131 44zM657 321
q2 44 -13 67t-46 23q-34 0 -59 -23t-38 -67h156zM328 148q-7 31 -6 68q-38 9 -65 9q-83 0 -83 -62q0 -22 14.5 -35t38.5 -13q53 0 101 33zM414 594.5q-9 2.5 -9 9.5t7 15l122 158q8 10 18 12.5t44 2.5h40q26 0 38 -3.5t12 -10.5q0 -6 -9 -15l-145 -157q-7 -8 -19 -11t-38 -3
h-32q-20 0 -29 2.5z" />
    <glyph glyph-name="b" unicode="b" horiz-adv-x="575" 
d="M113.5 2.5q-54.5 12.5 -76.5 31.5q-7 5 -9 11.5t-1 17.5l95 675q1 9 6 13.5t19.5 6.5t46.5 2h12q48 0 62.5 -4.5t12.5 -17.5l-33 -236q52 36 115 36q84 0 131 -53.5t47 -149.5q0 -166 -83 -255.5t-235 -89.5q-55 0 -109.5 12.5zM340.5 167q36.5 50 36.5 154q0 88 -72 88
q-32 0 -51 -12q-13 -8 -19 -19.5t-10 -37.5l-31 -217q19 -6 50 -6q60 0 96.5 50z" />
    <glyph glyph-name="c" unicode="c" horiz-adv-x="492" 
d="M151.5 5.5q-43.5 15.5 -69.5 44.5q-55 60 -55 160q0 72 27 140.5t80 116.5q79 71 199 71q47 0 86.5 -13t67.5 -37q5 -5 5 -10q0 -11 -24 -45l-12 -18q-15 -22 -23.5 -31t-14.5 -9q-3 0 -10 5q-34 27 -86 27t-85 -37q-24 -26 -35 -63.5t-11 -80.5q1 -51 24.5 -78t69.5 -27
q54 0 99 24q11 6 16 6q7 0 11.5 -9t10.5 -34l4 -15q7 -24 7 -37t-10 -19q-76 -47 -174 -47q-54 0 -97.5 15.5z" />
    <glyph glyph-name="cacute" unicode="&#x107;" horiz-adv-x="492" 
d="M151.5 5.5q-43.5 15.5 -69.5 44.5q-55 60 -55 160q0 72 27 140.5t80 116.5q79 71 199 71q47 0 86.5 -13t67.5 -37q5 -5 5 -10q0 -11 -24 -45l-12 -18q-15 -22 -23.5 -31t-14.5 -9q-3 0 -10 5q-34 27 -86 27t-85 -37q-24 -26 -35 -63.5t-11 -80.5q1 -51 24.5 -78t69.5 -27
q54 0 99 24q11 6 16 6q7 0 11.5 -9t10.5 -34l4 -15q7 -24 7 -37t-10 -19q-76 -47 -174 -47q-54 0 -97.5 15.5zM246 594.5q-9 2.5 -9 9.5t7 15l122 158q8 10 18 12.5t44 2.5h40q26 0 38 -3.5t12 -10.5q0 -6 -9 -15l-145 -157q-7 -8 -19 -11t-38 -3h-32q-20 0 -29 2.5z" />
    <glyph glyph-name="cacute.loclPLK" horiz-adv-x="492" 
d="M151.5 5.5q-43.5 15.5 -69.5 44.5q-55 60 -55 160q0 72 27 140.5t80 116.5q79 71 199 71q47 0 86.5 -13t67.5 -37q5 -5 5 -10q0 -11 -24 -45l-12 -18q-15 -22 -23.5 -31t-14.5 -9q-3 0 -10 5q-34 27 -86 27t-85 -37q-24 -26 -35 -63.5t-11 -80.5q1 -51 24.5 -78t69.5 -27
q54 0 99 24q11 6 16 6q7 0 11.5 -9t10.5 -34l4 -15q7 -24 7 -37t-10 -19q-76 -47 -174 -47q-54 0 -97.5 15.5zM282 595q-10 3 -10 11q0 3 4 13l68 155q5 11 16.5 14.5t42.5 3.5h45q27 0 37.5 -2.5t10.5 -9.5q0 -5 -7 -17l-90 -153q-7 -12 -16 -15t-35 -3h-31q-25 0 -35 3z
" />
    <glyph glyph-name="ccaron" unicode="&#x10d;" horiz-adv-x="492" 
d="M151.5 5.5q-43.5 15.5 -69.5 44.5q-55 60 -55 160q0 72 27 140.5t80 116.5q79 71 199 71q47 0 86.5 -13t67.5 -37q5 -5 5 -10q0 -11 -24 -45l-12 -18q-15 -22 -23.5 -31t-14.5 -9q-3 0 -10 5q-34 27 -86 27t-85 -37q-24 -26 -35 -63.5t-11 -80.5q1 -51 24.5 -78t69.5 -27
q54 0 99 24q11 6 16 6q7 0 11.5 -9t10.5 -34l4 -15q7 -24 7 -37t-10 -19q-76 -47 -174 -47q-54 0 -97.5 15.5zM278 595q-12 4 -23 17l-75 95q-4 6 -4 9q0 11 28 34l12 10q26 22 37 22q6 0 12 -6l78 -80l101 80q10 7 15 7q11 0 32 -25l8 -10q18 -22 18 -30q0 -5 -6 -11
l-104 -95q-14 -13 -28 -17t-45 -4h-12q-32 0 -44 4z" />
    <glyph glyph-name="ccedilla" unicode="&#xe7;" horiz-adv-x="492" 
d="M492 478q0 -11 -24 -45l-12 -18q-15 -22 -23.5 -31t-14.5 -9q-3 0 -10 5q-34 27 -86 27t-85 -37q-24 -26 -35 -63.5t-11 -80.5q1 -51 24.5 -78t69.5 -27q54 0 99 24q11 6 16 6q7 0 11.5 -9t10.5 -34l4 -15q7 -24 7 -37t-10 -19q-70 -43 -153 -46l-7 -29h6q42 0 68 -19
t26 -57q0 -62 -42.5 -95.5t-106.5 -33.5q-44 0 -81 14q-8 3 -8 10q0 8 9 29l5 11q10 21 14.5 25.5t13.5 2.5q23 -7 46 -7q37 0 37 30q0 12 -9.5 17t-27.5 5q-30 0 -59 -7l31 109q-66 14 -103 54q-55 60 -55 160q0 72 27 140.5t80 116.5q79 71 199 71q47 0 86.5 -13t67.5 -37
q5 -5 5 -10z" />
    <glyph glyph-name="ccircumflex" unicode="&#x109;" horiz-adv-x="492" 
d="M151.5 5.5q-43.5 15.5 -69.5 44.5q-55 60 -55 160q0 72 27 140.5t80 116.5q79 71 199 71q47 0 86.5 -13t67.5 -37q5 -5 5 -10q0 -11 -24 -45l-12 -18q-15 -22 -23.5 -31t-14.5 -9q-3 0 -10 5q-34 27 -86 27t-85 -37q-24 -26 -35 -63.5t-11 -80.5q1 -51 24.5 -78t69.5 -27
q54 0 99 24q11 6 16 6q7 0 11.5 -9t10.5 -34l4 -15q7 -24 7 -37t-10 -19q-76 -47 -174 -47q-54 0 -97.5 15.5zM236 594q-11 0 -32 25l-8 10q-18 23 -18 31q0 6 6 10l100 92q15 14 27.5 17.5t45.5 3.5h12q33 0 44.5 -3.5t22.5 -17.5l74 -92q4 -4 4 -10q0 -5 -6 -12t-20 -19
l-12 -10q-28 -24 -39 -24q-6 0 -12 6l-74 77l-102 -79q-8 -5 -13 -5z" />
    <glyph glyph-name="cdotaccent" unicode="&#x10b;" horiz-adv-x="492" 
d="M151.5 5.5q-43.5 15.5 -69.5 44.5q-55 60 -55 160q0 72 27 140.5t80 116.5q79 71 199 71q47 0 86.5 -13t67.5 -37q5 -5 5 -10q0 -11 -24 -45l-12 -18q-15 -22 -23.5 -31t-14.5 -9q-3 0 -10 5q-34 27 -86 27t-85 -37q-24 -26 -35 -63.5t-11 -80.5q1 -51 24.5 -78t69.5 -27
q54 0 99 24q11 6 16 6q7 0 11.5 -9t10.5 -34l4 -15q7 -24 7 -37t-10 -19q-76 -47 -174 -47q-54 0 -97.5 15.5zM284 630.5q-20 20.5 -20 50.5q0 38 27.5 64.5t66.5 26.5q31 0 51 -20.5t20 -50.5q0 -39 -27 -65t-66 -26q-32 0 -52 20.5z" />
    <glyph glyph-name="d" unicode="d" horiz-adv-x="587" 
d="M74 46q-47 56 -47 157q0 69 24 139.5t70 119.5q35 37 79 56.5t95 19.5q57 0 94 -34l33 234q1 9 5.5 13.5t21 6.5t53.5 2h5q34 0 50 -2t20 -6.5t3 -13.5l-84 -600v-5q0 -9 5 -12t17 -3q7 0 9.5 -2.5t2.5 -10.5t-3 -34l-1 -8q-4 -28 -8 -39t-14 -15q-31 -13 -75 -13
q-32 0 -55.5 14t-29.5 37q-51 -57 -135 -57q-88 0 -135 56zM326 139q7 7 11.5 20.5t8.5 40.5l25 175q-27 33 -68 33q-54 0 -83.5 -59.5t-29.5 -136.5q0 -48 16.5 -70.5t57.5 -22.5q42 0 62 20z" />
    <glyph glyph-name="eth" unicode="&#xf0;" horiz-adv-x="578" 
d="M73 48q-55 58 -55 155q0 77 34 147t95 113t139 43q40 0 73 -13q-6 34 -24 63l-109 -29l-12 -2q-8 0 -11 7t-5 28l-1 8q-2 20 -2 23q0 9 3.5 13t12.5 6l68 19q-22 21 -55 44q-6 5 -6 11q0 14 27 40l17 16q16 16 25 22t17 6t18 -6q66 -37 114 -91l104 29q8 2 10 2
q7 0 10.5 -7t4.5 -27l1 -11q1 -8 1 -19t-2.5 -15t-8.5 -6l-67 -19q51 -97 51 -214q0 -98 -33 -188t-104.5 -148t-178.5 -58q-96 0 -151 58zM330.5 163q30.5 47 40.5 150q3 36 3 44q-13 12 -34 19.5t-42 7.5q-60 0 -88.5 -53t-28.5 -121q0 -45 17.5 -69.5t49.5 -24.5
q52 0 82.5 47z" />
    <glyph glyph-name="dcaron" unicode="&#x10f;" horiz-adv-x="710" 
d="M74 46q-47 56 -47 157q0 69 24 139.5t70 119.5q35 37 79 56.5t95 19.5q57 0 94 -34l33 234q1 9 5.5 13.5t21 6.5t53.5 2h5q34 0 50 -2t20 -6.5t3 -13.5l-84 -600v-5q0 -9 5 -12t17 -3q7 0 9.5 -2.5t2.5 -10.5t-3 -34l-1 -8q-4 -28 -8 -39t-14 -15q-31 -13 -75 -13
q-32 0 -55.5 14t-29.5 37q-51 -57 -135 -57q-88 0 -135 56zM326 139q7 7 11.5 20.5t8.5 40.5l25 175q-27 33 -68 33q-54 0 -83.5 -59.5t-29.5 -136.5q0 -48 16.5 -70.5t57.5 -22.5q42 0 62 20zM622 449q-7 0 -18 13l-4 5q-11 14 -11 20q0 4 5 9q56 56 56 96q0 11 -6 19.5
t-7 10.5q-15 17 -15 35q0 30 24.5 51.5t56.5 21.5q31 0 48 -19t17 -51t-16.5 -68t-42.5 -69q-31 -37 -72 -68q-9 -6 -15 -6z" />
    <glyph glyph-name="dcroat" unicode="&#x111;" horiz-adv-x="587" 
d="M74 46q-47 56 -47 157q0 69 24 139.5t70 119.5q35 37 79 56.5t95 19.5q57 0 94 -34l12 84h-139q-12 0 -17.5 5t-5.5 20q0 11 3 29l2 12q5 30 12 38.5t23 8.5h138l5 37q1 9 5.5 13.5t21 6.5t53.5 2h5q34 0 50 -2t20 -6.5t3 -13.5l-5 -37h45q12 0 17.5 -4.5t5.5 -19.5
q0 -11 -3 -29l-2 -12q-6 -32 -12.5 -40t-22.5 -8h-44l-63 -450v-5q0 -9 5 -12t17 -3q7 0 9.5 -2.5t2.5 -10.5t-3 -34l-1 -8q-4 -28 -8 -39t-14 -15q-31 -13 -75 -13q-32 0 -55.5 14t-29.5 37q-51 -57 -135 -57q-88 0 -135 56zM326 139q7 7 11.5 20.5t8.5 40.5l25 175
q-27 33 -68 33q-54 0 -83.5 -59.5t-29.5 -136.5q0 -48 16.5 -70.5t57.5 -22.5q42 0 62 20z" />
    <glyph glyph-name="e" unicode="e" horiz-adv-x="556" 
d="M87.5 47q-60.5 57 -60.5 160q0 66 23 130.5t67 112.5q39 42 91.5 65t113.5 23q97 0 147.5 -56.5t51.5 -151.5q0 -34 -4 -62q-4 -27 -7.5 -38.5t-8 -15t-14.5 -3.5h-296q1 -46 26.5 -69t72.5 -23q35 0 69 8t76 26q10 4 16.5 -3.5t11.5 -32.5l5 -24q4 -17 4 -30
q0 -9 -3 -14t-10 -9q-96 -50 -204 -50q-107 0 -167.5 57zM364 312q2 10 2 21q0 81 -64 81q-35 0 -61.5 -26.5t-36.5 -75.5h160z" />
    <glyph glyph-name="eacute" unicode="&#xe9;" horiz-adv-x="556" 
d="M87.5 47q-60.5 57 -60.5 160q0 66 23 130.5t67 112.5q39 42 91.5 65t113.5 23q97 0 147.5 -56.5t51.5 -151.5q0 -34 -4 -62q-4 -27 -7.5 -38.5t-8 -15t-14.5 -3.5h-296q1 -46 26.5 -69t72.5 -23q35 0 69 8t76 26q10 4 16.5 -3.5t11.5 -32.5l5 -24q4 -17 4 -30
q0 -9 -3 -14t-10 -9q-96 -50 -204 -50q-107 0 -167.5 57zM364 312q2 10 2 21q0 81 -64 81q-35 0 -61.5 -26.5t-36.5 -75.5h160zM238 594.5q-9 2.5 -9 9.5t7 15l122 158q8 10 18 12.5t44 2.5h40q26 0 38 -3.5t12 -10.5q0 -6 -9 -15l-145 -157q-7 -8 -19 -11t-38 -3h-32
q-20 0 -29 2.5z" />
    <glyph glyph-name="ebreve" unicode="&#x115;" horiz-adv-x="556" 
d="M87.5 47q-60.5 57 -60.5 160q0 66 23 130.5t67 112.5q39 42 91.5 65t113.5 23q97 0 147.5 -56.5t51.5 -151.5q0 -34 -4 -62q-4 -27 -7.5 -38.5t-8 -15t-14.5 -3.5h-296q1 -46 26.5 -69t72.5 -23q35 0 69 8t76 26q10 4 16.5 -3.5t11.5 -32.5l5 -24q4 -17 4 -30
q0 -9 -3 -14t-10 -9q-96 -50 -204 -50q-107 0 -167.5 57zM364 312q2 10 2 21q0 81 -64 81q-35 0 -61.5 -26.5t-36.5 -75.5h160zM212.5 628.5q-38.5 32.5 -38.5 89.5q0 16 1 23q1 14 11.5 17.5t44.5 3.5h14q29 0 38.5 -4t8.5 -14q-2 -23 8 -36t30 -13q21 0 34 12t19 37
q2 10 12.5 14t40.5 4h14q34 0 43 -3.5t6 -17.5q-13 -68 -60.5 -106.5t-117.5 -38.5t-108.5 32.5z" />
    <glyph glyph-name="ecaron" unicode="&#x11b;" horiz-adv-x="556" 
d="M87.5 47q-60.5 57 -60.5 160q0 66 23 130.5t67 112.5q39 42 91.5 65t113.5 23q97 0 147.5 -56.5t51.5 -151.5q0 -34 -4 -62q-4 -27 -7.5 -38.5t-8 -15t-14.5 -3.5h-296q1 -46 26.5 -69t72.5 -23q35 0 69 8t76 26q10 4 16.5 -3.5t11.5 -32.5l5 -24q4 -17 4 -30
q0 -9 -3 -14t-10 -9q-96 -50 -204 -50q-107 0 -167.5 57zM364 312q2 10 2 21q0 81 -64 81q-35 0 -61.5 -26.5t-36.5 -75.5h160zM270 595q-12 4 -23 17l-75 95q-4 6 -4 9q0 11 28 34l12 10q26 22 37 22q6 0 12 -6l78 -80l101 80q10 7 15 7q11 0 32 -25l8 -10q18 -22 18 -30
q0 -5 -6 -11l-104 -95q-14 -13 -28 -17t-45 -4h-12q-32 0 -44 4z" />
    <glyph glyph-name="ecircumflex" unicode="&#xea;" horiz-adv-x="556" 
d="M87.5 47q-60.5 57 -60.5 160q0 66 23 130.5t67 112.5q39 42 91.5 65t113.5 23q97 0 147.5 -56.5t51.5 -151.5q0 -34 -4 -62q-4 -27 -7.5 -38.5t-8 -15t-14.5 -3.5h-296q1 -46 26.5 -69t72.5 -23q35 0 69 8t76 26q10 4 16.5 -3.5t11.5 -32.5l5 -24q4 -17 4 -30
q0 -9 -3 -14t-10 -9q-96 -50 -204 -50q-107 0 -167.5 57zM364 312q2 10 2 21q0 81 -64 81q-35 0 -61.5 -26.5t-36.5 -75.5h160zM228 594q-11 0 -32 25l-8 10q-18 23 -18 31q0 6 6 10l100 92q15 14 27.5 17.5t45.5 3.5h12q33 0 44.5 -3.5t22.5 -17.5l74 -92q4 -4 4 -10
q0 -5 -6 -12t-20 -19l-12 -10q-28 -24 -39 -24q-6 0 -12 6l-74 77l-102 -79q-8 -5 -13 -5z" />
    <glyph glyph-name="edieresis" unicode="&#xeb;" horiz-adv-x="556" 
d="M87.5 47q-60.5 57 -60.5 160q0 66 23 130.5t67 112.5q39 42 91.5 65t113.5 23q97 0 147.5 -56.5t51.5 -151.5q0 -34 -4 -62q-4 -27 -7.5 -38.5t-8 -15t-14.5 -3.5h-296q1 -46 26.5 -69t72.5 -23q35 0 69 8t76 26q10 4 16.5 -3.5t11.5 -32.5l5 -24q4 -17 4 -30
q0 -9 -3 -14t-10 -9q-96 -50 -204 -50q-107 0 -167.5 57zM364 312q2 10 2 21q0 81 -64 81q-35 0 -61.5 -26.5t-36.5 -75.5h160zM166 617q-20 19 -20 49q0 38 28 66.5t69 28.5q32 0 52 -19.5t20 -49.5q0 -37 -28 -65.5t-67 -28.5q-34 0 -54 19zM379 617q-20 19 -20 49
q0 38 28 66.5t69 28.5q32 0 52 -19.5t20 -49.5q0 -37 -28 -65.5t-67 -28.5q-34 0 -54 19z" />
    <glyph glyph-name="edotaccent" unicode="&#x117;" horiz-adv-x="556" 
d="M87.5 47q-60.5 57 -60.5 160q0 66 23 130.5t67 112.5q39 42 91.5 65t113.5 23q97 0 147.5 -56.5t51.5 -151.5q0 -34 -4 -62q-4 -27 -7.5 -38.5t-8 -15t-14.5 -3.5h-296q1 -46 26.5 -69t72.5 -23q35 0 69 8t76 26q10 4 16.5 -3.5t11.5 -32.5l5 -24q4 -17 4 -30
q0 -9 -3 -14t-10 -9q-96 -50 -204 -50q-107 0 -167.5 57zM364 312q2 10 2 21q0 81 -64 81q-35 0 -61.5 -26.5t-36.5 -75.5h160zM276 630.5q-20 20.5 -20 50.5q0 38 27.5 64.5t66.5 26.5q31 0 51 -20.5t20 -50.5q0 -39 -27 -65t-66 -26q-32 0 -52 20.5z" />
    <glyph glyph-name="egrave" unicode="&#xe8;" horiz-adv-x="556" 
d="M87.5 47q-60.5 57 -60.5 160q0 66 23 130.5t67 112.5q39 42 91.5 65t113.5 23q97 0 147.5 -56.5t51.5 -151.5q0 -34 -4 -62q-4 -27 -7.5 -38.5t-8 -15t-14.5 -3.5h-296q1 -46 26.5 -69t72.5 -23q35 0 69 8t76 26q10 4 16.5 -3.5t11.5 -32.5l5 -24q4 -17 4 -30
q0 -9 -3 -14t-10 -9q-96 -50 -204 -50q-107 0 -167.5 57zM364 312q2 10 2 21q0 81 -64 81q-35 0 -61.5 -26.5t-36.5 -75.5h160zM294 595q-12 3 -16 11l-101 157q-4 7 -4 12q0 9 11.5 13t39.5 4h36q33 0 47 -5t19 -15l76 -153q3 -6 3 -12q0 -8 -10 -11.5t-32 -3.5h-32
q-25 0 -37 3z" />
    <glyph glyph-name="emacron" unicode="&#x113;" horiz-adv-x="556" 
d="M87.5 47q-60.5 57 -60.5 160q0 66 23 130.5t67 112.5q39 42 91.5 65t113.5 23q97 0 147.5 -56.5t51.5 -151.5q0 -34 -4 -62q-4 -27 -7.5 -38.5t-8 -15t-14.5 -3.5h-296q1 -46 26.5 -69t72.5 -23q35 0 69 8t76 26q10 4 16.5 -3.5t11.5 -32.5l5 -24q4 -17 4 -30
q0 -9 -3 -14t-10 -9q-96 -50 -204 -50q-107 0 -167.5 57zM364 312q2 10 2 21q0 81 -64 81q-35 0 -61.5 -26.5t-36.5 -75.5h160zM184.5 629q-2.5 3 -2.5 13q0 14 4 38l1 7q4 31 8 39.5t13 8.5h274q6 0 8.5 -3.5t2.5 -13.5t-3 -34l-1 -7q-5 -34 -9 -42.5t-13 -8.5h-274
q-6 0 -8.5 3z" />
    <glyph glyph-name="eogonek" unicode="&#x119;" horiz-adv-x="556" 
d="M226 -220q-30 26 -30 75q0 37 21.5 71.5t58.5 63.5h-21q-107 0 -167.5 57t-60.5 160q0 66 23 130.5t67 112.5q39 42 91.5 65t113.5 23q97 0 147.5 -56.5t51.5 -151.5q0 -34 -4 -62q-4 -27 -7.5 -38.5t-8 -15t-14.5 -3.5h-296q1 -46 26.5 -69t72.5 -23q35 0 69 8t76 26
q10 4 16 -2.5t12 -33.5l5 -24q5 -25 5 -32q0 -8 -3 -12.5t-11 -8.5q-138 -74 -138 -150q0 -34 33 -34q16 0 42 8q8 2 12.5 -3.5t8.5 -26.5l2 -9q5 -22 5 -28q0 -8 -2.5 -11.5t-8.5 -6.5q-23 -11 -50.5 -18t-51.5 -7q-55 0 -85 26zM364 312q2 10 2 21q0 81 -64 81
q-35 0 -61.5 -26.5t-36.5 -75.5h160z" />
    <glyph glyph-name="f" unicode="f" horiz-adv-x="381" 
d="M34.5 -231q-15.5 2 -19 6.5t-1.5 13.5l88 626h-58q-9 0 -12.5 3t-3.5 14q0 3 4 37l1 7q4 26 6.5 36t7 13t13.5 3h57l4 23q19 110 79 166q59 53 155 53q32 0 63 -5.5t50 -13.5q7 -3 7 -12q0 -11 -12 -43l-6 -16q-13 -31 -18.5 -38.5t-15.5 -4.5q-32 8 -59 8
q-22 0 -35.5 -5.5t-24.5 -17.5q-18 -21 -26 -75l-2 -19h102q8 0 11.5 -3t3.5 -14q0 -2 -4 -36l-1 -7q-4 -25 -7 -36t-7 -14t-12 -3h-102l-88 -626q-2 -9 -7.5 -13.5t-22 -6.5t-50.5 -2h-5q-37 0 -52.5 2z" />
    <glyph glyph-name="g" unicode="g" horiz-adv-x="577" 
d="M108.5 -221.5q-44.5 11.5 -71.5 29.5q-8 5 -8 13q0 12 18 44l9 16q16 27 23.5 36t14.5 9l8 -2q22 -12 52 -20.5t54 -8.5q53 0 81 29t37 101l2 11q-26 -20 -54 -29t-63 -9q-87 0 -135.5 53.5t-48.5 150.5q0 69 22 136.5t67 118.5q35 40 80.5 60.5t96.5 20.5q38 0 70.5 -15
t50.5 -40l9 31q3 9 13 11.5t42 2.5h10q33 0 44 -5.5t11 -20.5q0 -31 -14 -129l-46 -331q-19 -138 -91 -209q-69 -66 -194 -66q-45 0 -89.5 11.5zM330 148q6 8 9.5 21t7.5 42l23 160q-21 37 -66 37t-74 -41q-18 -25 -28.5 -66t-10.5 -81q0 -94 76 -94q45 0 63 22z" />
    <glyph glyph-name="gbreve" unicode="&#x11f;" horiz-adv-x="577" 
d="M108.5 -221.5q-44.5 11.5 -71.5 29.5q-8 5 -8 13q0 12 18 44l9 16q16 27 23.5 36t14.5 9l8 -2q22 -12 52 -20.5t54 -8.5q53 0 81 29t37 101l2 11q-26 -20 -54 -29t-63 -9q-87 0 -135.5 53.5t-48.5 150.5q0 69 22 136.5t67 118.5q35 40 80.5 60.5t96.5 20.5q38 0 70.5 -15
t50.5 -40l9 31q3 9 13 11.5t42 2.5h10q33 0 44 -5.5t11 -20.5q0 -31 -14 -129l-46 -331q-19 -138 -91 -209q-69 -66 -194 -66q-45 0 -89.5 11.5zM330 148q6 8 9.5 21t7.5 42l23 160q-21 37 -66 37t-74 -41q-18 -25 -28.5 -66t-10.5 -81q0 -94 76 -94q45 0 63 22z
M212.5 628.5q-38.5 32.5 -38.5 89.5q0 16 1 23q1 14 11.5 17.5t44.5 3.5h14q29 0 38.5 -4t8.5 -14q-2 -23 8 -36t30 -13q21 0 34 12t19 37q2 10 12.5 14t40.5 4h14q34 0 43 -3.5t6 -17.5q-13 -68 -60.5 -106.5t-117.5 -38.5t-108.5 32.5z" />
    <glyph glyph-name="gcircumflex" unicode="&#x11d;" horiz-adv-x="577" 
d="M108.5 -221.5q-44.5 11.5 -71.5 29.5q-8 5 -8 13q0 12 18 44l9 16q16 27 23.5 36t14.5 9l8 -2q22 -12 52 -20.5t54 -8.5q53 0 81 29t37 101l2 11q-26 -20 -54 -29t-63 -9q-87 0 -135.5 53.5t-48.5 150.5q0 69 22 136.5t67 118.5q35 40 80.5 60.5t96.5 20.5q38 0 70.5 -15
t50.5 -40l9 31q3 9 13 11.5t42 2.5h10q33 0 44 -5.5t11 -20.5q0 -31 -14 -129l-46 -331q-19 -138 -91 -209q-69 -66 -194 -66q-45 0 -89.5 11.5zM330 148q6 8 9.5 21t7.5 42l23 160q-21 37 -66 37t-74 -41q-18 -25 -28.5 -66t-10.5 -81q0 -94 76 -94q45 0 63 22zM228 594
q-11 0 -32 25l-8 10q-18 23 -18 31q0 6 6 10l100 92q15 14 27.5 17.5t45.5 3.5h12q33 0 44.5 -3.5t22.5 -17.5l74 -92q4 -4 4 -10q0 -5 -6 -12t-20 -19l-12 -10q-28 -24 -39 -24q-6 0 -12 6l-74 77l-102 -79q-8 -5 -13 -5z" />
    <glyph glyph-name="gcommaaccent" unicode="&#x123;" horiz-adv-x="577" 
d="M263 611q-17 19 -17 51t16.5 68t42.5 69q31 37 72 68q9 6 15 6q7 0 18 -13l4 -5q11 -14 11 -20q0 -4 -5 -9q-56 -56 -56 -96q0 -11 6 -19.5t7 -10.5q15 -17 15 -35q0 -30 -24.5 -51.5t-56.5 -21.5q-31 0 -48 19zM108.5 -221.5q-44.5 11.5 -71.5 29.5q-8 5 -8 13
q0 12 18 44l9 16q16 27 23.5 36t14.5 9l8 -2q22 -12 52 -20.5t54 -8.5q53 0 81 29t37 101l2 11q-26 -20 -54 -29t-63 -9q-87 0 -135.5 53.5t-48.5 150.5q0 69 22 136.5t67 118.5q35 40 80.5 60.5t96.5 20.5q38 0 70.5 -15t50.5 -40l9 31q3 9 13 11.5t42 2.5h10q33 0 44 -5.5
t11 -20.5q0 -31 -14 -129l-46 -331q-19 -138 -91 -209q-69 -66 -194 -66q-45 0 -89.5 11.5zM330 148q6 8 9.5 21t7.5 42l23 160q-21 37 -66 37t-74 -41q-18 -25 -28.5 -66t-10.5 -81q0 -94 76 -94q45 0 63 22z" />
    <glyph glyph-name="gdotaccent" unicode="&#x121;" horiz-adv-x="577" 
d="M108.5 -221.5q-44.5 11.5 -71.5 29.5q-8 5 -8 13q0 12 18 44l9 16q16 27 23.5 36t14.5 9l8 -2q22 -12 52 -20.5t54 -8.5q53 0 81 29t37 101l2 11q-26 -20 -54 -29t-63 -9q-87 0 -135.5 53.5t-48.5 150.5q0 69 22 136.5t67 118.5q35 40 80.5 60.5t96.5 20.5q38 0 70.5 -15
t50.5 -40l9 31q3 9 13 11.5t42 2.5h10q33 0 44 -5.5t11 -20.5q0 -31 -14 -129l-46 -331q-19 -138 -91 -209q-69 -66 -194 -66q-45 0 -89.5 11.5zM330 148q6 8 9.5 21t7.5 42l23 160q-21 37 -66 37t-74 -41q-18 -25 -28.5 -66t-10.5 -81q0 -94 76 -94q45 0 63 22zM276 630.5
q-20 20.5 -20 50.5q0 38 27.5 64.5t66.5 26.5q31 0 51 -20.5t20 -50.5q0 -39 -27 -65t-66 -26q-32 0 -52 20.5z" />
    <glyph glyph-name="h" unicode="h" horiz-adv-x="584" 
d="M34 5q-9 4 -7 17l101 716q1 9 6.5 13.5t20 6.5t46.5 2h8q46 0 64 -4q15 -3 13 -18l-35 -243q24 19 59 31t67 12q79 0 119 -43.5t40 -116.5q0 -29 -4 -57l-42 -299q-1 -9 -6.5 -13.5t-21.5 -6.5t-50 -2h-5q-49 0 -64 4q-8 3 -10 6t-1 12l37 262q7 56 7 68q0 53 -58 53
q-47 0 -67 -22q-11 -13 -17 -35.5t-17 -98.5l-32 -227q-1 -9 -6.5 -13.5t-22 -6.5t-50.5 -2h-5q-56 0 -67 5z" />
    <glyph glyph-name="hbar" unicode="&#x127;" horiz-adv-x="584" 
d="M34 5q-9 4 -7 17l80 566h-45q-12 0 -17.5 4.5t-5.5 19.5q0 11 3 29l2 12q6 32 12.5 40t22.5 8h44l5 37q2 11 6.5 15.5t18 5.5t48.5 1h8q46 0 64 -4q15 -3 13 -18l-6 -37h140q12 0 17.5 -5t5.5 -20q0 -11 -3 -29l-2 -12q-5 -30 -12 -38.5t-23 -8.5h-139l-13 -93
q24 19 59 31t67 12q79 0 119 -43.5t40 -116.5q0 -29 -4 -57l-42 -299q-1 -9 -6.5 -13.5t-21.5 -6.5t-50 -2h-5q-49 0 -64 4q-8 3 -10 6t-1 12l37 262q7 56 7 68q0 53 -58 53q-47 0 -67 -22q-11 -13 -17 -35.5t-17 -98.5l-32 -227q-1 -9 -6.5 -13.5t-22 -6.5t-50.5 -2h-5
q-56 0 -67 5z" />
    <glyph glyph-name="hcircumflex" unicode="&#x125;" horiz-adv-x="584" 
d="M34 5q-9 4 -7 17l101 716q1 9 6.5 13.5t20 6.5t46.5 2h8q46 0 64 -4q15 -3 13 -18l-35 -243q24 19 59 31t67 12q79 0 119 -43.5t40 -116.5q0 -29 -4 -57l-42 -299q-1 -9 -6.5 -13.5t-21.5 -6.5t-50 -2h-5q-49 0 -64 4q-8 3 -10 6t-1 12l37 262q7 56 7 68q0 53 -58 53
q-47 0 -67 -22q-11 -13 -17 -35.5t-17 -98.5l-32 -227q-1 -9 -6.5 -13.5t-22 -6.5t-50.5 -2h-5q-56 0 -67 5zM108 783q-11 0 -32 25l-8 10q-18 23 -18 31q0 6 6 10l100 92q15 14 27.5 17.5t45.5 3.5h12q33 0 44.5 -3.5t22.5 -17.5l74 -92q4 -4 4 -10q0 -5 -6 -12t-20 -19
l-12 -10q-28 -24 -39 -24q-6 0 -12 6l-74 77l-102 -79q-8 -5 -13 -5z" />
    <glyph glyph-name="i" unicode="i" horiz-adv-x="290" 
d="M129 608q-23 23 -23 57q0 27 15 51.5t39.5 40t53.5 15.5q37 0 60 -23.5t23 -57.5q0 -27 -15 -51.5t-40 -39.5t-54 -15q-36 0 -59 23zM52 2q-16 2 -19.5 6.5t-2.5 13.5l68 484q2 9 6.5 13.5t21.5 6.5t54 2h5q34 0 49 -2t19 -6.5t3 -13.5l-68 -484q-1 -9 -6.5 -13.5
t-21.5 -6.5t-50 -2h-5q-37 0 -53 2z" />
    <glyph glyph-name="dotlessi" unicode="&#x131;" horiz-adv-x="290" 
d="M52 2q-16 2 -19.5 6.5t-2.5 13.5l68 484q1 9 6 13.5t21 6.5t51 2h5q34 0 50.5 -2t21 -6.5t3.5 -13.5l-68 -484q-2 -13 -16.5 -17.5t-63.5 -4.5h-5q-35 0 -51 2z" />
    <glyph glyph-name="iacute" unicode="&#xed;" horiz-adv-x="290" 
d="M52 2q-16 2 -19.5 6.5t-2.5 13.5l68 484q1 9 6 13.5t21 6.5t51 2h5q34 0 50.5 -2t21 -6.5t3.5 -13.5l-68 -484q-2 -13 -16.5 -17.5t-63.5 -4.5h-5q-35 0 -51 2zM98 594.5q-9 2.5 -9 9.5t7 15l122 158q8 10 18 12.5t44 2.5h40q26 0 38 -3.5t12 -10.5q0 -6 -9 -15
l-145 -157q-7 -8 -19 -11t-38 -3h-32q-20 0 -29 2.5z" />
    <glyph glyph-name="iacute_j.loclNLD" horiz-adv-x="589" 
d="M52 2q-16 2 -19.5 6.5t-2.5 13.5l68 484q1 9 6 13.5t21 6.5t51 2h5q34 0 50.5 -2t21 -6.5t3.5 -13.5l-68 -484q-2 -13 -16.5 -17.5t-63.5 -4.5h-5q-35 0 -51 2zM98 594.5q-9 2.5 -9 9.5t7 15l122 158q8 10 18 12.5t44 2.5h40q26 0 38 -3.5t12 -10.5q0 -6 -9 -15
l-145 -157q-7 -8 -19 -11t-38 -3h-32q-20 0 -29 2.5zM196.5 -227q-29.5 6 -43.5 13q-10 4 -10 14q0 9 12 39l6 16q11 28 16.5 37t14.5 9q6 0 9 -1q26 -7 50 -7q34 0 48 20q8 11 13.5 27t9.5 46l73 520q1 9 6 13.5t21 6.5t50 2h9q34 0 50 -2t20 -6.5t3 -13.5l-71 -500
q-17 -126 -76 -182.5t-153 -56.5q-28 0 -57.5 6zM399 594.5q-9 2.5 -9 9.5t7 15l122 158q8 10 18 12.5t44 2.5h40q26 0 38 -3.5t12 -10.5q0 -6 -9 -15l-145 -157q-7 -8 -19 -11t-38 -3h-32q-20 0 -29 2.5z" />
    <glyph glyph-name="ibreve" unicode="&#x12d;" horiz-adv-x="290" 
d="M52 2q-16 2 -19.5 6.5t-2.5 13.5l68 484q1 9 6 13.5t21 6.5t51 2h5q34 0 50.5 -2t21 -6.5t3.5 -13.5l-68 -484q-2 -13 -16.5 -17.5t-63.5 -4.5h-5q-35 0 -51 2zM72.5 628.5q-38.5 32.5 -38.5 89.5q0 16 1 23q1 14 11.5 17.5t44.5 3.5h14q29 0 38.5 -4t8.5 -14
q-2 -23 8 -36t30 -13q21 0 34 12t19 37q2 10 12.5 14t40.5 4h14q34 0 43 -3.5t6 -17.5q-13 -68 -60.5 -106.5t-117.5 -38.5t-108.5 32.5z" />
    <glyph glyph-name="icircumflex" unicode="&#xee;" horiz-adv-x="290" 
d="M52 2q-16 2 -19.5 6.5t-2.5 13.5l68 484q1 9 6 13.5t21 6.5t51 2h5q34 0 50.5 -2t21 -6.5t3.5 -13.5l-68 -484q-2 -13 -16.5 -17.5t-63.5 -4.5h-5q-35 0 -51 2zM88 594q-11 0 -32 25l-8 10q-18 23 -18 31q0 6 6 10l100 92q15 14 27.5 17.5t45.5 3.5h12q33 0 44.5 -3.5
t22.5 -17.5l74 -92q4 -4 4 -10q0 -5 -6 -12t-20 -19l-12 -10q-28 -24 -39 -24q-6 0 -12 6l-74 77l-102 -79q-8 -5 -13 -5z" />
    <glyph glyph-name="idieresis" unicode="&#xef;" horiz-adv-x="290" 
d="M52 2q-16 2 -19.5 6.5t-2.5 13.5l68 484q1 9 6 13.5t21 6.5t51 2h5q34 0 50.5 -2t21 -6.5t3.5 -13.5l-68 -484q-2 -13 -16.5 -17.5t-63.5 -4.5h-5q-35 0 -51 2zM26 617q-20 19 -20 49q0 38 28 66.5t69 28.5q32 0 52 -19.5t20 -49.5q0 -37 -28 -65.5t-67 -28.5
q-34 0 -54 19zM239 617q-20 19 -20 49q0 38 28 66.5t69 28.5q32 0 52 -19.5t20 -49.5q0 -37 -28 -65.5t-67 -28.5q-34 0 -54 19z" />
    <glyph glyph-name="i.loclTRK" horiz-adv-x="290" 
d="M52 2q-16 2 -19.5 6.5t-2.5 13.5l68 484q1 9 6 13.5t21 6.5t51 2h5q34 0 50.5 -2t21 -6.5t3.5 -13.5l-68 -484q-2 -13 -16.5 -17.5t-63.5 -4.5h-5q-35 0 -51 2zM136 630.5q-20 20.5 -20 50.5q0 38 27.5 64.5t66.5 26.5q31 0 51 -20.5t20 -50.5q0 -39 -27 -65t-66 -26
q-32 0 -52 20.5z" />
    <glyph glyph-name="igrave" unicode="&#xec;" horiz-adv-x="290" 
d="M52 2q-16 2 -19.5 6.5t-2.5 13.5l68 484q1 9 6 13.5t21 6.5t51 2h5q34 0 50.5 -2t21 -6.5t3.5 -13.5l-68 -484q-2 -13 -16.5 -17.5t-63.5 -4.5h-5q-35 0 -51 2zM154 595q-12 3 -16 11l-101 157q-4 7 -4 12q0 9 11.5 13t39.5 4h36q33 0 47 -5t19 -15l76 -153q3 -6 3 -12
q0 -8 -10 -11.5t-32 -3.5h-32q-25 0 -37 3z" />
    <glyph glyph-name="ij" unicode="&#x133;" horiz-adv-x="589" 
d="M129 608q-23 23 -23 57q0 27 15 51.5t39.5 40t53.5 15.5q37 0 60 -23.5t23 -57.5q0 -27 -15 -51.5t-40 -39.5t-54 -15q-36 0 -59 23zM52 2q-16 2 -19.5 6.5t-2.5 13.5l68 484q2 9 6.5 13.5t21.5 6.5t54 2h5q34 0 49 -2t19 -6.5t3 -13.5l-68 -484q-1 -9 -6.5 -13.5
t-21.5 -6.5t-50 -2h-5q-37 0 -53 2zM426 608q-23 23 -23 57q0 27 15 51.5t39.5 40t53.5 15.5q37 0 60 -23.5t23 -57.5q0 -27 -15 -51.5t-40 -39.5t-54 -15q-36 0 -59 23zM196.5 -227q-29.5 6 -43.5 13q-10 4 -10 14q0 9 12 39l6 16q11 28 16.5 37t14.5 9q6 0 9 -1
q26 -7 50 -7q34 0 48 20q8 11 13.5 27t9.5 46l73 520q1 9 6 13.5t21 6.5t50 2h9q34 0 50 -2t20 -6.5t3 -13.5l-71 -500q-17 -126 -76 -182.5t-153 -56.5q-28 0 -57.5 6z" />
    <glyph glyph-name="imacron" unicode="&#x12b;" horiz-adv-x="290" 
d="M52 2q-16 2 -19.5 6.5t-2.5 13.5l68 484q1 9 6 13.5t21 6.5t51 2h5q34 0 50.5 -2t21 -6.5t3.5 -13.5l-68 -484q-2 -13 -16.5 -17.5t-63.5 -4.5h-5q-35 0 -51 2zM44.5 629q-2.5 3 -2.5 13q0 14 4 38l1 7q4 31 8 39.5t13 8.5h274q6 0 8.5 -3.5t2.5 -13.5t-3 -34l-1 -7
q-5 -34 -9 -42.5t-13 -8.5h-274q-6 0 -8.5 3z" />
    <glyph glyph-name="iogonek" unicode="&#x12f;" horiz-adv-x="290" 
d="M129 608q-23 23 -23 57q0 27 15 51.5t39.5 40t53.5 15.5q37 0 60 -23.5t23 -57.5q0 -27 -15 -51.5t-40 -39.5t-54 -15q-36 0 -59 23zM-35 -216.5q-30 29.5 -30 76.5q0 45 26.5 85t66.5 62l70 499q1 9 6 13.5t22 6.5t54 2h5q34 0 49 -2t19 -6.5t3 -13.5l-67 -478
q-2 -16 -7.5 -23t-20.5 -12q-50 -16 -75.5 -41.5t-25.5 -58.5q0 -17 9 -27t25 -10q13 0 37 8q8 2 12 -3t9 -27l2 -9q3 -18 3 -28q0 -13 -9 -18q-48 -25 -98 -25q-55 0 -85 29.5z" />
    <glyph glyph-name="itilde" unicode="&#x129;" horiz-adv-x="290" 
d="M52 2q-16 2 -19.5 6.5t-2.5 13.5l68 484q1 9 6 13.5t21 6.5t51 2h5q34 0 50.5 -2t21 -6.5t3.5 -13.5l-68 -484q-2 -13 -16.5 -17.5t-63.5 -4.5h-5q-35 0 -51 2zM219.5 617q-15.5 5 -32.5 14q-16 9 -26 13t-24 4q-25 0 -55 -34q-5 -5 -10 -5q-11 0 -33 26l-5 6
q-19 23 -19 30q0 6 6 12q27 32 57.5 50t60.5 18q21 0 34.5 -5t31.5 -14q14 -8 24.5 -11.5t25.5 -3.5q29 0 64 32q6 4 8 4q10 0 31 -25l5 -6q17 -21 17 -32q0 -5 -5 -12q-24 -30 -54.5 -48t-62.5 -18q-23 0 -38.5 5z" />
    <glyph glyph-name="j" unicode="j" horiz-adv-x="299" 
d="M136 608q-23 23 -23 57q0 27 15 51.5t39.5 40t53.5 15.5q37 0 60 -23.5t23 -57.5q0 -27 -15 -51.5t-40 -39.5t-54 -15q-36 0 -59 23zM-93.5 -227q-29.5 6 -43.5 13q-10 4 -10 14q0 9 12 39l6 16q11 28 16.5 37t14.5 9q6 0 9 -1q26 -7 50 -7q34 0 48 20q8 11 13.5 27
t9.5 46l73 520q1 9 6 13.5t21 6.5t50 2h9q34 0 50 -2t20 -6.5t3 -13.5l-71 -500q-17 -126 -76 -182.5t-153 -56.5q-28 0 -57.5 6z" />
    <glyph glyph-name="uni0237" unicode="&#x237;" horiz-adv-x="299" 
d="M-93.5 -227q-29.5 6 -43.5 13q-10 4 -10 14q0 9 12 39l6 16q11 28 16.5 37t14.5 9q6 0 9 -1q26 -7 50 -7q34 0 48 20q8 11 13.5 27t9.5 46l73 520q1 9 6 13.5t21 6.5t50 2h9q34 0 50 -2t20 -6.5t3 -13.5l-71 -500q-17 -126 -76 -182.5t-153 -56.5q-28 0 -57.5 6z" />
    <glyph glyph-name="jcircumflex" unicode="&#x135;" horiz-adv-x="299" 
d="M-93.5 -227q-29.5 6 -43.5 13q-10 4 -10 14q0 9 12 39l6 16q11 28 16.5 37t14.5 9q6 0 9 -1q26 -7 50 -7q34 0 48 20q8 11 13.5 27t9.5 46l73 520q1 9 6 13.5t21 6.5t50 2h9q34 0 50 -2t20 -6.5t3 -13.5l-71 -500q-17 -126 -76 -182.5t-153 -56.5q-28 0 -57.5 6zM99 594
q-11 0 -32 25l-8 10q-18 23 -18 31q0 6 6 10l100 92q15 14 27.5 17.5t45.5 3.5h12q33 0 44.5 -3.5t22.5 -17.5l74 -92q4 -4 4 -10q0 -5 -6 -12t-20 -19l-12 -10q-28 -24 -39 -24q-6 0 -12 6l-74 77l-102 -79q-8 -5 -13 -5z" />
    <glyph glyph-name="k" unicode="k" horiz-adv-x="528" 
d="M40.5 2q-15.5 2 -19 6.5t-2.5 13.5l101 716q1 9 5.5 13.5t20.5 6.5t50 2h9q34 0 50 -2t20.5 -6.5t3.5 -13.5l-55 -386q92 87 146 160q8 10 21.5 13t53.5 3h15q36 0 51 -3.5t15 -11.5q0 -4 -5 -12q-23 -38 -78 -99t-113 -112l150 -257q3 -6 3 -10q0 -23 -77 -23h-13
q-49 0 -65.5 3.5t-21.5 13.5l-100 202l-28 -197q-1 -9 -6.5 -13.5t-22 -6.5t-51.5 -2h-8q-34 0 -49.5 2z" />
    <glyph glyph-name="kcommaaccent" unicode="&#x137;" horiz-adv-x="528" 
d="M40.5 2q-15.5 2 -19 6.5t-2.5 13.5l101 716q1 9 5.5 13.5t20.5 6.5t50 2h9q34 0 50 -2t20.5 -6.5t3.5 -13.5l-55 -386q92 87 146 160q8 10 21.5 13t53.5 3h15q36 0 51 -3.5t15 -11.5q0 -4 -5 -12q-23 -38 -78 -99t-113 -112l150 -257q3 -6 3 -10q0 -23 -77 -23h-13
q-49 0 -65.5 3.5t-21.5 13.5l-100 202l-28 -197q-1 -9 -6.5 -13.5t-22 -6.5t-51.5 -2h-8q-34 0 -49.5 2zM154 -330q-7 0 -18 13l-4 5q-11 14 -11 20q0 4 5 9q56 56 56 96q0 11 -6 19.5t-7 10.5q-15 17 -15 35q0 30 24.5 51.5t56.5 21.5q31 0 48 -19t17 -51t-16.5 -68
t-42.5 -69q-31 -37 -72 -68q-9 -6 -15 -6z" />
    <glyph glyph-name="kgreenlandic" unicode="&#x138;" horiz-adv-x="528" 
d="M40.5 2q-15.5 2 -19 6.5t-2.5 13.5l68 484q1 9 5.5 13.5t20.5 6.5t50 2h9q34 0 50 -2t20.5 -6.5t3.5 -13.5l-22 -154q92 87 146 160q8 10 21.5 13t53.5 3h15q36 0 51 -3.5t15 -11.5q0 -4 -5 -12q-23 -38 -78 -99t-113 -112l150 -257q3 -6 3 -10q0 -23 -77 -23h-13
q-49 0 -65.5 3.5t-21.5 13.5l-100 202l-28 -197q-1 -9 -6.5 -13.5t-22 -6.5t-51.5 -2h-8q-34 0 -49.5 2z" />
    <glyph glyph-name="l" unicode="l" horiz-adv-x="307" 
d="M56 26q-22 25 -22 70q0 21 7 67l43 308q9 60 17.5 142.5t12.5 126.5q1 9 5 12.5t19 5.5t50 2h8q34 0 49.5 -2t21 -6.5t5.5 -13.5q0 -55 -32 -288l-42 -298l-2 -17q0 -10 4.5 -14.5t14.5 -4.5h14q7 0 10 -2.5t3 -11.5q0 -3 -4 -37l-1 -9q-4 -28 -8.5 -37.5t-13.5 -13.5
q-25 -10 -73 -10q-60 0 -86 31z" />
    <glyph glyph-name="lacute" unicode="&#x13a;" horiz-adv-x="307" 
d="M56 26q-22 25 -22 70q0 21 7 67l43 308q9 60 17.5 142.5t12.5 126.5q1 9 5 12.5t19 5.5t50 2h8q34 0 49.5 -2t21 -6.5t5.5 -13.5q0 -55 -32 -288l-42 -298l-2 -17q0 -10 4.5 -14.5t14.5 -4.5h14q7 0 10 -2.5t3 -11.5q0 -3 -4 -37l-1 -9q-4 -28 -8.5 -37.5t-13.5 -13.5
q-25 -10 -73 -10q-60 0 -86 31zM130 798.5q-9 2.5 -9 9.5t7 15l122 158q8 10 18 12.5t44 2.5h40q26 0 38 -3.5t12 -10.5q0 -6 -9 -15l-145 -157q-7 -8 -19 -11t-38 -3h-32q-20 0 -29 2.5z" />
    <glyph glyph-name="lcaron" unicode="&#x13e;" horiz-adv-x="410" 
d="M56 26q-22 25 -22 70q0 21 7 67l43 308q9 60 17.5 142.5t12.5 126.5q1 9 5 12.5t19 5.5t50 2h8q34 0 49.5 -2t21 -6.5t5.5 -13.5q0 -55 -32 -288l-42 -298l-2 -17q0 -10 4.5 -14.5t14.5 -4.5h14q7 0 10 -2.5t3 -11.5q0 -3 -4 -37l-1 -9q-4 -28 -8.5 -37.5t-13.5 -13.5
q-25 -10 -73 -10q-60 0 -86 31zM322 449q-7 0 -18 13l-4 5q-11 14 -11 20q0 4 5 9q56 56 56 96q0 11 -6 19.5t-7 10.5q-15 17 -15 35q0 30 24.5 51.5t56.5 21.5q31 0 48 -19t17 -51t-16.5 -68t-42.5 -69q-31 -37 -72 -68q-9 -6 -15 -6z" />
    <glyph glyph-name="lcommaaccent" unicode="&#x13c;" horiz-adv-x="307" 
d="M56 26q-22 25 -22 70q0 21 7 67l43 308q9 60 17.5 142.5t12.5 126.5q1 9 5 12.5t19 5.5t50 2h8q34 0 49.5 -2t21 -6.5t5.5 -13.5q0 -55 -32 -288l-42 -298l-2 -17q0 -10 4.5 -14.5t14.5 -4.5h14q7 0 10 -2.5t3 -11.5q0 -3 -4 -37l-1 -9q-4 -28 -8.5 -37.5t-13.5 -13.5
q-25 -10 -73 -10q-60 0 -86 31zM36 -330q-7 0 -18 13l-4 5q-11 14 -11 20q0 4 5 9q56 56 56 96q0 11 -6 19.5t-7 10.5q-15 17 -15 35q0 30 24.5 51.5t56.5 21.5q31 0 48 -19t17 -51t-16.5 -68t-42.5 -69q-31 -37 -72 -68q-9 -6 -15 -6z" />
    <glyph glyph-name="ldot" unicode="&#x140;" horiz-adv-x="449" 
d="M56 26q-22 25 -22 70q0 21 7 67l43 308q9 60 17.5 142.5t12.5 126.5q1 9 5 12.5t19 5.5t50 2h8q34 0 49.5 -2t21 -6.5t5.5 -13.5q0 -55 -32 -288l-42 -298l-2 -17q0 -10 4.5 -14.5t14.5 -4.5h14q7 0 10 -2.5t3 -11.5q0 -3 -4 -37l-1 -9q-4 -28 -8.5 -37.5t-13.5 -13.5
q-25 -10 -73 -10q-60 0 -86 31zM334 310.5q-20 20.5 -20 50.5q0 38 27.5 64.5t66.5 26.5q31 0 51 -20.5t20 -50.5q0 -39 -27 -65t-66 -26q-32 0 -52 20.5z" />
    <glyph glyph-name="lslash" unicode="&#x142;" horiz-adv-x="308" 
d="M56 26q-22 25 -22 70q0 21 7 67l14 102l-50 -26q-10 -5 -16 -5q-15 0 -15 29q0 6 2 24l3 26q4 32 8.5 41.5t18.5 16.5l69 36l9 64q9 60 17.5 142.5t12.5 126.5q1 9 5 12.5t20.5 5.5t54.5 2h5q32 0 47.5 -2t20.5 -6.5t5 -13.5q0 -57 -26 -242l65 34q10 5 15 5q11 0 11 -21
q0 -12 -3 -32l-4 -27q-4 -31 -10.5 -44t-19.5 -19l-74 -38l-28 -202l-2 -17q0 -10 4.5 -14.5t14.5 -4.5h14q7 0 10 -2.5t3 -11.5q0 -3 -4 -37l-1 -9q-4 -28 -8.5 -37.5t-13.5 -13.5q-25 -10 -73 -10q-60 0 -86 31z" />
    <glyph glyph-name="m" unicode="m" horiz-adv-x="873" 
d="M47 2q-15 2 -17 6t-1 14l37 268q18 125 23 212q1 11 5 16t18 7.5t46 2.5h9q40 0 53.5 -4t13.5 -15l-1 -29q27 26 64.5 42t75.5 16q92 0 133 -68q32 31 74 49.5t85 18.5q44 0 77 -15t52 -41q31 -43 31 -105q0 -28 -4 -56l-42 -299q-1 -9 -6 -13.5t-20.5 -6.5t-49.5 -2h-10
q-37 0 -52.5 2t-18.5 6t-2 14l37 262q7 46 7 70q0 19 -8 30q-15 20 -49 20q-30 0 -48 -13q-22 -15 -29 -46q-5 -23 -15 -95l-32 -228q-1 -9 -6.5 -13.5t-22 -6.5t-50.5 -2h-8q-37 0 -52 2t-17.5 6t-1.5 14l37 262q6 44 6 65q0 55 -54 55q-31 0 -51 -13q-22 -15 -29 -46
q-5 -23 -15 -95l-32 -228q-1 -9 -6.5 -13.5t-22 -6.5t-50.5 -2h-9q-37 0 -52 2z" />
    <glyph glyph-name="n" unicode="n" horiz-adv-x="586" 
d="M50.5 2q-15.5 2 -19 6.5t-2.5 13.5l37 268q18 125 23 212q1 11 5 16t18 7.5t45 2.5h9q31 0 46 -3t19 -8.5t3 -17.5l-1 -19q29 25 67 41.5t75 16.5q46 0 80.5 -15t52.5 -41q30 -40 30 -102q0 -32 -6 -71l-40 -287q-1 -9 -6.5 -13.5t-21.5 -6.5t-50 -2h-5q-38 0 -54 2
t-19.5 6.5t-2.5 13.5l37 262q7 54 7 66q0 23 -7 34q-7 9 -21 14.5t-30 5.5q-55 0 -76 -35q-6 -11 -10.5 -31.5t-11.5 -73.5l-34 -242q-1 -9 -6.5 -13.5t-22 -6.5t-50.5 -2h-5q-37 0 -52.5 2z" />
    <glyph glyph-name="nacute" unicode="&#x144;" horiz-adv-x="586" 
d="M50.5 2q-15.5 2 -19 6.5t-2.5 13.5l37 268q18 125 23 212q1 11 5 16t18 7.5t45 2.5h9q31 0 46 -3t19 -8.5t3 -17.5l-1 -19q29 25 67 41.5t75 16.5q46 0 80.5 -15t52.5 -41q30 -40 30 -102q0 -32 -6 -71l-40 -287q-1 -9 -6.5 -13.5t-21.5 -6.5t-50 -2h-5q-38 0 -54 2
t-19.5 6.5t-2.5 13.5l37 262q7 54 7 66q0 23 -7 34q-7 9 -21 14.5t-30 5.5q-55 0 -76 -35q-6 -11 -10.5 -31.5t-11.5 -73.5l-34 -242q-1 -9 -6.5 -13.5t-22 -6.5t-50.5 -2h-5q-37 0 -52.5 2zM267 594.5q-9 2.5 -9 9.5t7 15l122 158q8 10 18 12.5t44 2.5h40q26 0 38 -3.5
t12 -10.5q0 -6 -9 -15l-145 -157q-7 -8 -19 -11t-38 -3h-32q-20 0 -29 2.5z" />
    <glyph glyph-name="nacute.loclPLK" horiz-adv-x="586" 
d="M50.5 2q-15.5 2 -19 6.5t-2.5 13.5l37 268q18 125 23 212q1 11 5 16t18 7.5t45 2.5h9q31 0 46 -3t19 -8.5t3 -17.5l-1 -19q29 25 67 41.5t75 16.5q46 0 80.5 -15t52.5 -41q30 -40 30 -102q0 -32 -6 -71l-40 -287q-1 -9 -6.5 -13.5t-21.5 -6.5t-50 -2h-5q-38 0 -54 2
t-19.5 6.5t-2.5 13.5l37 262q7 54 7 66q0 23 -7 34q-7 9 -21 14.5t-30 5.5q-55 0 -76 -35q-6 -11 -10.5 -31.5t-11.5 -73.5l-34 -242q-1 -9 -6.5 -13.5t-22 -6.5t-50.5 -2h-5q-37 0 -52.5 2zM303 595q-10 3 -10 11q0 3 4 13l68 155q5 11 16.5 14.5t42.5 3.5h45
q27 0 37.5 -2.5t10.5 -9.5q0 -5 -7 -17l-90 -153q-7 -12 -16 -15t-35 -3h-31q-25 0 -35 3z" />
    <glyph glyph-name="napostrophe" unicode="&#x149;" horiz-adv-x="721" 
d="M185.5 2q-15.5 2 -19 6.5t-2.5 13.5l37 268q18 125 23 212q1 11 5 16t18 7.5t45 2.5h9q31 0 46 -3t19 -8.5t3 -17.5l-1 -19q29 25 67 41.5t75 16.5q46 0 80.5 -15t52.5 -41q30 -40 30 -102q0 -32 -6 -71l-40 -287q-1 -9 -6.5 -13.5t-21.5 -6.5t-50 -2h-5q-38 0 -54 2
t-19.5 6.5t-2.5 13.5l37 262q7 54 7 66q0 23 -7 34q-7 9 -21 14.5t-30 5.5q-55 0 -76 -35q-6 -11 -10.5 -31.5t-11.5 -73.5l-34 -242q-1 -9 -6.5 -13.5t-22 -6.5t-50.5 -2h-5q-37 0 -52.5 2zM55 382q-10 0 -26 16l-6 6q-16 16 -16 25q0 5 4 9q31 34 53 65t22 60q0 18 -18 42
q-15 21 -15 42q0 40 28 66.5t69 26.5t64.5 -24.5t23.5 -65.5t-21 -87t-55 -87q-39 -48 -92 -88q-8 -6 -15 -6z" />
    <glyph glyph-name="ncaron" unicode="&#x148;" horiz-adv-x="586" 
d="M50.5 2q-15.5 2 -19 6.5t-2.5 13.5l37 268q18 125 23 212q1 11 5 16t18 7.5t45 2.5h9q31 0 46 -3t19 -8.5t3 -17.5l-1 -19q29 25 67 41.5t75 16.5q46 0 80.5 -15t52.5 -41q30 -40 30 -102q0 -32 -6 -71l-40 -287q-1 -9 -6.5 -13.5t-21.5 -6.5t-50 -2h-5q-38 0 -54 2
t-19.5 6.5t-2.5 13.5l37 262q7 54 7 66q0 23 -7 34q-7 9 -21 14.5t-30 5.5q-55 0 -76 -35q-6 -11 -10.5 -31.5t-11.5 -73.5l-34 -242q-1 -9 -6.5 -13.5t-22 -6.5t-50.5 -2h-5q-37 0 -52.5 2zM299 595q-12 4 -23 17l-75 95q-4 6 -4 9q0 11 28 34l12 10q26 22 37 22q6 0 12 -6
l78 -80l101 80q10 7 15 7q11 0 32 -25l8 -10q18 -22 18 -30q0 -5 -6 -11l-104 -95q-14 -13 -28 -17t-45 -4h-12q-32 0 -44 4z" />
    <glyph glyph-name="ncommaaccent" unicode="&#x146;" horiz-adv-x="586" 
d="M50.5 2q-15.5 2 -19 6.5t-2.5 13.5l37 268q18 125 23 212q1 11 5 16t18 7.5t45 2.5h9q31 0 46 -3t19 -8.5t3 -17.5l-1 -19q29 25 67 41.5t75 16.5q46 0 80.5 -15t52.5 -41q30 -40 30 -102q0 -32 -6 -71l-40 -287q-1 -9 -6.5 -13.5t-21.5 -6.5t-50 -2h-5q-38 0 -54 2
t-19.5 6.5t-2.5 13.5l37 262q7 54 7 66q0 23 -7 34q-7 9 -21 14.5t-30 5.5q-55 0 -76 -35q-6 -11 -10.5 -31.5t-11.5 -73.5l-34 -242q-1 -9 -6.5 -13.5t-22 -6.5t-50.5 -2h-5q-37 0 -52.5 2zM168 -330q-7 0 -18 13l-4 5q-11 14 -11 20q0 4 5 9q56 56 56 96q0 11 -6 19.5
t-7 10.5q-15 17 -15 35q0 30 24.5 51.5t56.5 21.5q31 0 48 -19t17 -51t-16.5 -68t-42.5 -69q-31 -37 -72 -68q-9 -6 -15 -6z" />
    <glyph glyph-name="eng" unicode="&#x14b;" horiz-adv-x="586" 
d="M209.5 -177q-29.5 6 -43.5 13q-10 4 -10 14q0 9 12 39l6 16q11 28 16.5 37t14.5 9q6 0 9 -1q26 -7 50 -7q34 0 48 20q8 11 13.5 27t9.5 46l35 248q7 54 7 66q0 23 -7 34q-7 9 -21 14.5t-30 5.5q-55 0 -76 -35q-6 -11 -10.5 -31.5t-11.5 -73.5l-34 -242q-1 -9 -6.5 -13.5
t-22 -6.5t-50.5 -2h-5q-37 0 -52.5 2t-19 6.5t-2.5 13.5l37 268q18 125 23 212q1 11 5 16t18 7.5t45 2.5h9q31 0 46 -3t19 -8.5t3 -17.5l-1 -19q29 25 67 41.5t75 16.5q46 0 80.5 -15t52.5 -41q30 -40 30 -102q0 -32 -6 -71l-36 -253q-18 -126 -76.5 -182.5t-152.5 -56.5
q-28 0 -57.5 6z" />
    <glyph glyph-name="ntilde" unicode="&#xf1;" horiz-adv-x="586" 
d="M50.5 2q-15.5 2 -19 6.5t-2.5 13.5l37 268q18 125 23 212q1 11 5 16t18 7.5t45 2.5h9q31 0 46 -3t19 -8.5t3 -17.5l-1 -19q29 25 67 41.5t75 16.5q46 0 80.5 -15t52.5 -41q30 -40 30 -102q0 -32 -6 -71l-40 -287q-1 -9 -6.5 -13.5t-21.5 -6.5t-50 -2h-5q-38 0 -54 2
t-19.5 6.5t-2.5 13.5l37 262q7 54 7 66q0 23 -7 34q-7 9 -21 14.5t-30 5.5q-55 0 -76 -35q-6 -11 -10.5 -31.5t-11.5 -73.5l-34 -242q-1 -9 -6.5 -13.5t-22 -6.5t-50.5 -2h-5q-37 0 -52.5 2zM388.5 617q-15.5 5 -32.5 14q-16 9 -26 13t-24 4q-25 0 -55 -34q-5 -5 -10 -5
q-11 0 -33 26l-5 6q-19 23 -19 30q0 6 6 12q27 32 57.5 50t60.5 18q21 0 34.5 -5t31.5 -14q14 -8 24.5 -11.5t25.5 -3.5q29 0 64 32q6 4 8 4q10 0 31 -25l5 -6q17 -21 17 -32q0 -5 -5 -12q-24 -30 -54.5 -48t-62.5 -18q-23 0 -38.5 5z" />
    <glyph glyph-name="o" unicode="o" horiz-adv-x="567" 
d="M82 42.5q-55 52.5 -55 152.5q0 73 24 142.5t65 114.5q78 86 214 86q100 0 155 -52.5t55 -152.5q0 -73 -24 -142.5t-65 -114.5q-78 -86 -214 -86q-100 0 -155 52.5zM333 157q20 25 31.5 68.5t11.5 90.5q0 92 -67 92q-47 0 -75 -37q-20 -25 -31.5 -68.5t-11.5 -90.5
q0 -92 67 -92q47 0 75 37z" />
    <glyph glyph-name="oacute" unicode="&#xf3;" horiz-adv-x="567" 
d="M82 42.5q-55 52.5 -55 152.5q0 73 24 142.5t65 114.5q78 86 214 86q100 0 155 -52.5t55 -152.5q0 -73 -24 -142.5t-65 -114.5q-78 -86 -214 -86q-100 0 -155 52.5zM333 157q20 25 31.5 68.5t11.5 90.5q0 92 -67 92q-47 0 -75 -37q-20 -25 -31.5 -68.5t-11.5 -90.5
q0 -92 67 -92q47 0 75 37zM251 594.5q-9 2.5 -9 9.5t7 15l122 158q8 10 18 12.5t44 2.5h40q26 0 38 -3.5t12 -10.5q0 -6 -9 -15l-145 -157q-7 -8 -19 -11t-38 -3h-32q-20 0 -29 2.5z" />
    <glyph glyph-name="oacute.loclPLK" horiz-adv-x="567" 
d="M82 42.5q-55 52.5 -55 152.5q0 73 24 142.5t65 114.5q78 86 214 86q100 0 155 -52.5t55 -152.5q0 -73 -24 -142.5t-65 -114.5q-78 -86 -214 -86q-100 0 -155 52.5zM333 157q20 25 31.5 68.5t11.5 90.5q0 92 -67 92q-47 0 -75 -37q-20 -25 -31.5 -68.5t-11.5 -90.5
q0 -92 67 -92q47 0 75 37zM287 595q-10 3 -10 11q0 3 4 13l68 155q5 11 16.5 14.5t42.5 3.5h45q27 0 37.5 -2.5t10.5 -9.5q0 -5 -7 -17l-90 -153q-7 -12 -16 -15t-35 -3h-31q-25 0 -35 3z" />
    <glyph glyph-name="obreve" unicode="&#x14f;" horiz-adv-x="567" 
d="M82 42.5q-55 52.5 -55 152.5q0 73 24 142.5t65 114.5q78 86 214 86q100 0 155 -52.5t55 -152.5q0 -73 -24 -142.5t-65 -114.5q-78 -86 -214 -86q-100 0 -155 52.5zM333 157q20 25 31.5 68.5t11.5 90.5q0 92 -67 92q-47 0 -75 -37q-20 -25 -31.5 -68.5t-11.5 -90.5
q0 -92 67 -92q47 0 75 37zM225.5 628.5q-38.5 32.5 -38.5 89.5q0 16 1 23q1 14 11.5 17.5t44.5 3.5h14q29 0 38.5 -4t8.5 -14q-2 -23 8 -36t30 -13q21 0 34 12t19 37q2 10 12.5 14t40.5 4h14q34 0 43 -3.5t6 -17.5q-13 -68 -60.5 -106.5t-117.5 -38.5t-108.5 32.5z" />
    <glyph glyph-name="ocircumflex" unicode="&#xf4;" horiz-adv-x="567" 
d="M82 42.5q-55 52.5 -55 152.5q0 73 24 142.5t65 114.5q78 86 214 86q100 0 155 -52.5t55 -152.5q0 -73 -24 -142.5t-65 -114.5q-78 -86 -214 -86q-100 0 -155 52.5zM333 157q20 25 31.5 68.5t11.5 90.5q0 92 -67 92q-47 0 -75 -37q-20 -25 -31.5 -68.5t-11.5 -90.5
q0 -92 67 -92q47 0 75 37zM241 594q-11 0 -32 25l-8 10q-18 23 -18 31q0 6 6 10l100 92q15 14 27.5 17.5t45.5 3.5h12q33 0 44.5 -3.5t22.5 -17.5l74 -92q4 -4 4 -10q0 -5 -6 -12t-20 -19l-12 -10q-28 -24 -39 -24q-6 0 -12 6l-74 77l-102 -79q-8 -5 -13 -5z" />
    <glyph glyph-name="odieresis" unicode="&#xf6;" horiz-adv-x="567" 
d="M82 42.5q-55 52.5 -55 152.5q0 73 24 142.5t65 114.5q78 86 214 86q100 0 155 -52.5t55 -152.5q0 -73 -24 -142.5t-65 -114.5q-78 -86 -214 -86q-100 0 -155 52.5zM333 157q20 25 31.5 68.5t11.5 90.5q0 92 -67 92q-47 0 -75 -37q-20 -25 -31.5 -68.5t-11.5 -90.5
q0 -92 67 -92q47 0 75 37zM179 617q-20 19 -20 49q0 38 28 66.5t69 28.5q32 0 52 -19.5t20 -49.5q0 -37 -28 -65.5t-67 -28.5q-34 0 -54 19zM392 617q-20 19 -20 49q0 38 28 66.5t69 28.5q32 0 52 -19.5t20 -49.5q0 -37 -28 -65.5t-67 -28.5q-34 0 -54 19z" />
    <glyph glyph-name="ograve" unicode="&#xf2;" horiz-adv-x="567" 
d="M82 42.5q-55 52.5 -55 152.5q0 73 24 142.5t65 114.5q78 86 214 86q100 0 155 -52.5t55 -152.5q0 -73 -24 -142.5t-65 -114.5q-78 -86 -214 -86q-100 0 -155 52.5zM333 157q20 25 31.5 68.5t11.5 90.5q0 92 -67 92q-47 0 -75 -37q-20 -25 -31.5 -68.5t-11.5 -90.5
q0 -92 67 -92q47 0 75 37zM307 595q-12 3 -16 11l-101 157q-4 7 -4 12q0 9 11.5 13t39.5 4h36q33 0 47 -5t19 -15l76 -153q3 -6 3 -12q0 -8 -10 -11.5t-32 -3.5h-32q-25 0 -37 3z" />
    <glyph glyph-name="ohungarumlaut" unicode="&#x151;" horiz-adv-x="567" 
d="M82 42.5q-55 52.5 -55 152.5q0 73 24 142.5t65 114.5q78 86 214 86q100 0 155 -52.5t55 -152.5q0 -73 -24 -142.5t-65 -114.5q-78 -86 -214 -86q-100 0 -155 52.5zM333 157q20 25 31.5 68.5t11.5 90.5q0 92 -67 92q-47 0 -75 -37q-20 -25 -31.5 -68.5t-11.5 -90.5
q0 -92 67 -92q47 0 75 37zM148 611q0 5 4 12l110 153q5 9 16 12t43 3h39q46 0 46 -11q0 -7 -9 -16l-132 -152q-8 -8 -18 -11t-32 -3h-31q-36 0 -36 13zM343 611q0 4 5 12l110 153q5 9 16.5 12t42.5 3h38q46 0 46 -12q0 -5 -8 -15l-132 -152q-8 -8 -18 -11t-32 -3h-31
q-37 0 -37 13z" />
    <glyph glyph-name="omacron" unicode="&#x14d;" horiz-adv-x="567" 
d="M82 42.5q-55 52.5 -55 152.5q0 73 24 142.5t65 114.5q78 86 214 86q100 0 155 -52.5t55 -152.5q0 -73 -24 -142.5t-65 -114.5q-78 -86 -214 -86q-100 0 -155 52.5zM333 157q20 25 31.5 68.5t11.5 90.5q0 92 -67 92q-47 0 -75 -37q-20 -25 -31.5 -68.5t-11.5 -90.5
q0 -92 67 -92q47 0 75 37zM197.5 629q-2.5 3 -2.5 13q0 14 4 38l1 7q4 31 8 39.5t13 8.5h274q6 0 8.5 -3.5t2.5 -13.5t-3 -34l-1 -7q-5 -34 -9 -42.5t-13 -8.5h-274q-6 0 -8.5 3z" />
    <glyph glyph-name="oslash" unicode="&#xf8;" horiz-adv-x="567" 
d="M109 -72q-3 -3 -8 -3q-9 0 -32 13l-9 5q-13 7 -20.5 12.5t-7.5 9.5q0 2 1.5 4.5t2.5 4.5l45 68q-55 53 -55 151q0 74 23.5 144t65.5 115q78 86 214 86q39 0 77 -10l44 65q5 7 11 7q7 0 30 -13l9 -5q18 -10 24 -15t6 -9q0 -2 -3 -7l-44 -65q56 -53 56 -156
q0 -72 -24 -140.5t-65 -113.5q-78 -86 -214 -86q-40 0 -78 10l-43 -65q-3 -4 -6 -7zM325 406q-10 2 -17 2q-47 0 -75 -37q-20 -25 -31.5 -68.5t-11.5 -90.5v-8zM332 157q20 25 31.5 68.5t11.5 90.5v7l-135 -202q5 -1 17 -1q47 0 75 37z" />
    <glyph glyph-name="oslashacute" unicode="&#x1ff;" horiz-adv-x="567" 
d="M109 -72q-3 -3 -8 -3q-9 0 -32 13l-9 5q-13 7 -20.5 12.5t-7.5 9.5q0 2 1.5 4.5t2.5 4.5l45 68q-55 53 -55 151q0 74 23.5 144t65.5 115q78 86 214 86q39 0 77 -10l44 65q5 7 11 7q7 0 30 -13l9 -5q18 -10 24 -15t6 -9q0 -2 -3 -7l-44 -65q56 -53 56 -156
q0 -72 -24 -140.5t-65 -113.5q-78 -86 -214 -86q-40 0 -78 10l-43 -65q-3 -4 -6 -7zM325 406q-10 2 -17 2q-47 0 -75 -37q-20 -25 -31.5 -68.5t-11.5 -90.5v-8zM332 157q20 25 31.5 68.5t11.5 90.5v7l-135 -202q5 -1 17 -1q47 0 75 37zM243 594.5q-9 2.5 -9 9.5t7 15
l122 158q8 10 18 12.5t44 2.5h40q26 0 38 -3.5t12 -10.5q0 -6 -9 -15l-145 -157q-7 -8 -19 -11t-38 -3h-32q-20 0 -29 2.5z" />
    <glyph glyph-name="otilde" unicode="&#xf5;" horiz-adv-x="567" 
d="M82 42.5q-55 52.5 -55 152.5q0 73 24 142.5t65 114.5q78 86 214 86q100 0 155 -52.5t55 -152.5q0 -73 -24 -142.5t-65 -114.5q-78 -86 -214 -86q-100 0 -155 52.5zM333 157q20 25 31.5 68.5t11.5 90.5q0 92 -67 92q-47 0 -75 -37q-20 -25 -31.5 -68.5t-11.5 -90.5
q0 -92 67 -92q47 0 75 37zM372.5 617q-15.5 5 -32.5 14q-16 9 -26 13t-24 4q-25 0 -55 -34q-5 -5 -10 -5q-11 0 -33 26l-5 6q-19 23 -19 30q0 6 6 12q27 32 57.5 50t60.5 18q21 0 34.5 -5t31.5 -14q14 -8 24.5 -11.5t25.5 -3.5q29 0 64 32q6 4 8 4q10 0 31 -25l5 -6
q17 -21 17 -32q0 -5 -5 -12q-24 -30 -54.5 -48t-62.5 -18q-23 0 -38.5 5z" />
    <glyph glyph-name="oe" unicode="&#x153;" horiz-adv-x="894" 
d="M81.5 44.5q-55.5 54.5 -55.5 154.5q0 89 34 166.5t102 125t164 47.5q50 0 90 -18t66 -50q33 30 81 49t96 19q98 0 149 -57t51 -155q0 -30 -4 -57t-7.5 -38.5t-8 -15.5t-14.5 -4h-294q3 -92 97 -92q35 0 69 8t76 26q10 4 15.5 -2.5t11.5 -33.5l5 -24q4 -17 4 -30
q0 -17 -13 -23q-96 -50 -204 -50q-53 0 -97 18t-72 48q-78 -66 -186 -66q-100 0 -155.5 54.5zM702 321q2 44 -13 67t-47 23q-34 0 -58.5 -23t-37.5 -67h156zM371 268q4 34 4 47q0 93 -67 93q-62 0 -89.5 -60.5t-27.5 -134.5q0 -93 66 -93q93 0 114 148z" />
    <glyph glyph-name="p" unicode="p" horiz-adv-x="578" 
d="M21.5 -221q-15.5 2 -19 6t-2.5 14l69 491q18 125 23 212q1 11 5.5 16t20.5 7.5t50 2.5h4q38 0 51.5 -4.5t12.5 -15.5l-1 -24q29 25 65 39.5t74 14.5q84 0 131 -55.5t47 -151.5q0 -72 -24 -145.5t-72 -124.5q-68 -71 -167 -71q-26 0 -52.5 9.5t-45.5 24.5l-32 -225
q-1 -9 -6.5 -13.5t-22 -6.5t-51.5 -2h-5q-37 0 -52.5 2zM346 158.5q28 39.5 39 113.5q4 28 4 54q0 40 -19 62t-55 22q-38 0 -60 -20q-8 -8 -12.5 -19t-7.5 -33l-27 -189q28 -30 66 -30q44 0 72 39.5z" />
    <glyph glyph-name="thorn" unicode="&#xfe;" horiz-adv-x="576" 
d="M15 -221q-15 2 -18 6t-2 14l132 939q1 9 6 13.5t20 6.5t47 2h10q35 0 51 -2t21 -6.5t4 -13.5l-33 -237q55 37 116 37q84 0 131 -55t47 -151q0 -83 -29 -161.5t-89 -129.5t-146 -51q-57 0 -97 34l-32 -225q-1 -9 -6.5 -13.5t-22 -6.5t-51.5 -2h-9q-35 0 -50 2zM357 184
q27 65 27 141q0 39 -14 58q-20 26 -59 26t-61 -19q-8 -7 -12.5 -19t-7.5 -33l-26 -189q13 -15 30 -22.5t35 -7.5q61 0 88 65z" />
    <glyph glyph-name="q" unicode="q" horiz-adv-x="575" 
d="M331.5 -221.5q-14.5 1.5 -19.5 5t-6 13.5q-1 6 -1 24q0 84 16 206q-19 -17 -48 -27t-63 -10q-85 0 -133 52t-50 145q-3 76 24 149.5t82 123.5q86 78 217 78q50 0 97.5 -12t77.5 -31q9 -5 12.5 -10t3.5 -13l-1 -8l-55 -389q-11 -73 -16 -149.5t-4 -125.5q0 -9 -5 -13.5
t-21 -7t-51 -2.5h-6q-36 0 -50.5 1.5zM310 129.5q18 11.5 25 29.5q6 17 12 59l26 187q-24 6 -46 6q-46 0 -76.5 -30t-45 -76t-14.5 -93q0 -41 16 -66q20 -28 59 -28q26 0 44 11.5z" />
    <glyph glyph-name="r" unicode="r" horiz-adv-x="401" 
d="M49.5 2q-15.5 2 -18.5 6.5t-2 13.5l37 268q18 125 23 212q1 11 4.5 16t17 7.5t44.5 2.5h9q41 0 52 -3.5t12 -13.5q1 -8 1 -30q0 -28 -3 -61q61 118 146 118q20 0 32 -6q6 -3 8.5 -7t2.5 -14t-3 -33l-2 -14q-4 -27 -7.5 -39.5t-8 -16t-12.5 -4.5q-71 -5 -117 -62
q-20 -26 -34 -69.5t-24 -110.5l-19 -140q-1 -9 -6.5 -13.5t-22 -6.5t-51.5 -2h-7q-36 0 -51.5 2z" />
    <glyph glyph-name="racute" unicode="&#x155;" horiz-adv-x="401" 
d="M49.5 2q-15.5 2 -18.5 6.5t-2 13.5l37 268q18 125 23 212q1 11 4.5 16t17 7.5t44.5 2.5h9q41 0 52 -3.5t12 -13.5q1 -8 1 -30q0 -28 -3 -61q61 118 146 118q20 0 32 -6q6 -3 8.5 -7t2.5 -14t-3 -33l-2 -14q-4 -27 -7.5 -39.5t-8 -16t-12.5 -4.5q-71 -5 -117 -62
q-20 -26 -34 -69.5t-24 -110.5l-19 -140q-1 -9 -6.5 -13.5t-22 -6.5t-51.5 -2h-7q-36 0 -51.5 2zM190 594.5q-9 2.5 -9 9.5t7 15l122 158q8 10 18 12.5t44 2.5h40q26 0 38 -3.5t12 -10.5q0 -6 -9 -15l-145 -157q-7 -8 -19 -11t-38 -3h-32q-20 0 -29 2.5z" />
    <glyph glyph-name="rcaron" unicode="&#x159;" horiz-adv-x="401" 
d="M49.5 2q-15.5 2 -18.5 6.5t-2 13.5l37 268q18 125 23 212q1 11 4.5 16t17 7.5t44.5 2.5h9q41 0 52 -3.5t12 -13.5q1 -8 1 -30q0 -28 -3 -61q61 118 146 118q20 0 32 -6q6 -3 8.5 -7t2.5 -14t-3 -33l-2 -14q-4 -27 -7.5 -39.5t-8 -16t-12.5 -4.5q-71 -5 -117 -62
q-20 -26 -34 -69.5t-24 -110.5l-19 -140q-1 -9 -6.5 -13.5t-22 -6.5t-51.5 -2h-7q-36 0 -51.5 2zM222 595q-12 4 -23 17l-75 95q-4 6 -4 9q0 11 28 34l12 10q26 22 37 22q6 0 12 -6l78 -80l101 80q10 7 15 7q11 0 32 -25l8 -10q18 -22 18 -30q0 -5 -6 -11l-104 -95
q-14 -13 -28 -17t-45 -4h-12q-32 0 -44 4z" />
    <glyph glyph-name="rcommaaccent" unicode="&#x157;" horiz-adv-x="401" 
d="M49.5 2q-15.5 2 -18.5 6.5t-2 13.5l37 268q18 125 23 212q1 11 4.5 16t17 7.5t44.5 2.5h9q41 0 52 -3.5t12 -13.5q1 -8 1 -30q0 -28 -3 -61q61 118 146 118q20 0 32 -6q6 -3 8.5 -7t2.5 -14t-3 -33l-2 -14q-4 -27 -7.5 -39.5t-8 -16t-12.5 -4.5q-71 -5 -117 -62
q-20 -26 -34 -69.5t-24 -110.5l-19 -140q-1 -9 -6.5 -13.5t-22 -6.5t-51.5 -2h-7q-36 0 -51.5 2zM13 -330q-7 0 -18 13l-4 5q-11 14 -11 20q0 4 5 9q56 56 56 96q0 11 -6 19.5t-7 10.5q-15 17 -15 35q0 30 24.5 51.5t56.5 21.5q31 0 48 -19t17 -51t-16.5 -68t-42.5 -69
q-31 -37 -72 -68q-9 -6 -15 -6z" />
    <glyph glyph-name="s" unicode="s" horiz-adv-x="477" 
d="M86 6.5q-50 16.5 -78 42.5q-6 6 -6 12q0 10 22 41l13 17q19 24 27.5 32.5t14.5 8.5q3 0 9 -4q25 -19 56 -30.5t58 -11.5q35 0 54 11.5t19 28.5q0 15 -17.5 24t-51.5 19q-68 21 -110 53t-42 97q0 34 13.5 67.5t38.5 56.5q35 33 83 50t102 17q49 0 90.5 -13t69.5 -36
q6 -4 6 -11q0 -9 -23 -44l-12 -18q-24 -34 -37 -34q-5 0 -9 3q-47 31 -98 31q-35 0 -50 -10q-18 -12 -18 -30q0 -15 17 -24t54 -20q47 -15 77.5 -29t52.5 -42.5t22 -74.5q0 -85 -65 -141q-65 -55 -180 -55q-52 0 -102 16.5z" />
    <glyph glyph-name="sacute" unicode="&#x15b;" horiz-adv-x="477" 
d="M86 6.5q-50 16.5 -78 42.5q-6 6 -6 12q0 10 22 41l13 17q19 24 27.5 32.5t14.5 8.5q3 0 9 -4q25 -19 56 -30.5t58 -11.5q35 0 54 11.5t19 28.5q0 15 -17.5 24t-51.5 19q-68 21 -110 53t-42 97q0 34 13.5 67.5t38.5 56.5q35 33 83 50t102 17q49 0 90.5 -13t69.5 -36
q6 -4 6 -11q0 -9 -23 -44l-12 -18q-24 -34 -37 -34q-5 0 -9 3q-47 31 -98 31q-35 0 -50 -10q-18 -12 -18 -30q0 -15 17 -24t54 -20q47 -15 77.5 -29t52.5 -42.5t22 -74.5q0 -85 -65 -141q-65 -55 -180 -55q-52 0 -102 16.5zM211 594.5q-9 2.5 -9 9.5t7 15l122 158
q8 10 18 12.5t44 2.5h40q26 0 38 -3.5t12 -10.5q0 -6 -9 -15l-145 -157q-7 -8 -19 -11t-38 -3h-32q-20 0 -29 2.5z" />
    <glyph glyph-name="sacute.loclPLK" horiz-adv-x="477" 
d="M86 6.5q-50 16.5 -78 42.5q-6 6 -6 12q0 10 22 41l13 17q19 24 27.5 32.5t14.5 8.5q3 0 9 -4q25 -19 56 -30.5t58 -11.5q35 0 54 11.5t19 28.5q0 15 -17.5 24t-51.5 19q-68 21 -110 53t-42 97q0 34 13.5 67.5t38.5 56.5q35 33 83 50t102 17q49 0 90.5 -13t69.5 -36
q6 -4 6 -11q0 -9 -23 -44l-12 -18q-24 -34 -37 -34q-5 0 -9 3q-47 31 -98 31q-35 0 -50 -10q-18 -12 -18 -30q0 -15 17 -24t54 -20q47 -15 77.5 -29t52.5 -42.5t22 -74.5q0 -85 -65 -141q-65 -55 -180 -55q-52 0 -102 16.5zM247 595q-10 3 -10 11q0 3 4 13l68 155
q5 11 16.5 14.5t42.5 3.5h45q27 0 37.5 -2.5t10.5 -9.5q0 -5 -7 -17l-90 -153q-7 -12 -16 -15t-35 -3h-31q-25 0 -35 3z" />
    <glyph glyph-name="scaron" unicode="&#x161;" horiz-adv-x="477" 
d="M86 6.5q-50 16.5 -78 42.5q-6 6 -6 12q0 10 22 41l13 17q19 24 27.5 32.5t14.5 8.5q3 0 9 -4q25 -19 56 -30.5t58 -11.5q35 0 54 11.5t19 28.5q0 15 -17.5 24t-51.5 19q-68 21 -110 53t-42 97q0 34 13.5 67.5t38.5 56.5q35 33 83 50t102 17q49 0 90.5 -13t69.5 -36
q6 -4 6 -11q0 -9 -23 -44l-12 -18q-24 -34 -37 -34q-5 0 -9 3q-47 31 -98 31q-35 0 -50 -10q-18 -12 -18 -30q0 -15 17 -24t54 -20q47 -15 77.5 -29t52.5 -42.5t22 -74.5q0 -85 -65 -141q-65 -55 -180 -55q-52 0 -102 16.5zM243 595q-12 4 -23 17l-75 95q-4 6 -4 9
q0 11 28 34l12 10q26 22 37 22q6 0 12 -6l78 -80l101 80q10 7 15 7q11 0 32 -25l8 -10q18 -22 18 -30q0 -5 -6 -11l-104 -95q-14 -13 -28 -17t-45 -4h-12q-32 0 -44 4z" />
    <glyph glyph-name="scedilla" unicode="&#x15f;" horiz-adv-x="477" 
d="M210 376q0 -15 17 -24t54 -20q47 -15 77.5 -29t52.5 -42.5t22 -74.5q0 -85 -65 -141q-54 -45 -137 -53l-7 -30h6q42 0 68 -19t26 -57q0 -62 -42.5 -95.5t-106.5 -33.5q-44 0 -81 14q-8 3 -8 10q0 8 9 29l5 11q10 21 14.5 25.5t13.5 2.5q23 -7 46 -7q37 0 37 30
q0 12 -9.5 17t-27.5 5q-30 0 -59 -7l30 106q-41 5 -77.5 20t-59.5 36q-6 6 -6 12q0 10 22 41l13 17q19 24 27.5 32.5t14.5 8.5q3 0 9 -4q25 -19 56 -30.5t58 -11.5q35 0 54 11.5t19 28.5q0 15 -17.5 24t-51.5 19q-68 21 -110 53t-42 97q0 34 13.5 67.5t38.5 56.5
q35 33 83 50t102 17q49 0 90.5 -13t69.5 -36q6 -4 6 -11q0 -9 -23 -44l-12 -18q-24 -34 -37 -34q-5 0 -9 3q-47 31 -98 31q-35 0 -50 -10q-18 -12 -18 -30z" />
    <glyph glyph-name="scircumflex" unicode="&#x15d;" horiz-adv-x="477" 
d="M86 6.5q-50 16.5 -78 42.5q-6 6 -6 12q0 10 22 41l13 17q19 24 27.5 32.5t14.5 8.5q3 0 9 -4q25 -19 56 -30.5t58 -11.5q35 0 54 11.5t19 28.5q0 15 -17.5 24t-51.5 19q-68 21 -110 53t-42 97q0 34 13.5 67.5t38.5 56.5q35 33 83 50t102 17q49 0 90.5 -13t69.5 -36
q6 -4 6 -11q0 -9 -23 -44l-12 -18q-24 -34 -37 -34q-5 0 -9 3q-47 31 -98 31q-35 0 -50 -10q-18 -12 -18 -30q0 -15 17 -24t54 -20q47 -15 77.5 -29t52.5 -42.5t22 -74.5q0 -85 -65 -141q-65 -55 -180 -55q-52 0 -102 16.5zM201 594q-11 0 -32 25l-8 10q-18 23 -18 31
q0 6 6 10l100 92q15 14 27.5 17.5t45.5 3.5h12q33 0 44.5 -3.5t22.5 -17.5l74 -92q4 -4 4 -10q0 -5 -6 -12t-20 -19l-12 -10q-28 -24 -39 -24q-6 0 -12 6l-74 77l-102 -79q-8 -5 -13 -5z" />
    <glyph glyph-name="scommaaccent" unicode="&#x219;" horiz-adv-x="477" 
d="M86 6.5q-50 16.5 -78 42.5q-6 6 -6 12q0 10 22 41l13 17q19 24 27.5 32.5t14.5 8.5q3 0 9 -4q25 -19 56 -30.5t58 -11.5q35 0 54 11.5t19 28.5q0 15 -17.5 24t-51.5 19q-68 21 -110 53t-42 97q0 34 13.5 67.5t38.5 56.5q35 33 83 50t102 17q49 0 90.5 -13t69.5 -36
q6 -4 6 -11q0 -9 -23 -44l-12 -18q-24 -34 -37 -34q-5 0 -9 3q-47 31 -98 31q-35 0 -50 -10q-18 -12 -18 -30q0 -15 17 -24t54 -20q47 -15 77.5 -29t52.5 -42.5t22 -74.5q0 -85 -65 -141q-65 -55 -180 -55q-52 0 -102 16.5zM107 -330q-7 0 -18 13l-4 5q-11 14 -11 20
q0 4 5 9q56 56 56 96q0 11 -6 19.5t-7 10.5q-15 17 -15 35q0 30 24.5 51.5t56.5 21.5q31 0 48 -19t17 -51t-16.5 -68t-42.5 -69q-31 -37 -72 -68q-9 -6 -15 -6z" />
    <glyph glyph-name="germandbls" unicode="&#xdf;" horiz-adv-x="680" 
d="M289 6.5q-48 16.5 -76 41.5q-4 4 -4 9q0 10 22 43l11 17q16 24 25.5 33.5t16.5 9.5q5 0 12 -5q19 -17 48.5 -29t54.5 -12q35 0 52 11t17 29q0 14 -15.5 24.5t-43.5 21.5q-60 22 -96.5 52t-36.5 84q0 48 28 85t78 72q32 23 51 45t19 53q0 27 -19.5 42t-54.5 15
q-49 0 -82 -31q-40 -37 -53 -129l-65 -466q-1 -9 -6.5 -13.5t-22 -6.5t-50.5 -2h-12q-34 0 -48.5 2t-17.5 6.5t-2 13.5l67 474q11 76 34 123t63 81q38 34 92 52t116 18q101 0 163 -43t62 -115q0 -56 -30.5 -96.5t-89.5 -82.5q-29 -21 -42.5 -34t-13.5 -28t14.5 -24t45.5 -21
q39 -15 65.5 -30t45.5 -41.5t19 -66.5q0 -60 -31 -105t-85.5 -69t-123.5 -24q-53 0 -101 16.5z" />
    <glyph glyph-name="longs" unicode="&#x17f;" horiz-adv-x="381" 
d="M34.5 -231q-15.5 2 -19 6.5t-1.5 13.5l88 626h-58q-9 0 -12.5 3t-3.5 14q0 3 4 37l1 7q4 26 6.5 36t7 13t13.5 3h57l4 23q19 110 79 166q59 53 155 53q32 0 63 -5.5t50 -13.5q7 -3 7 -12q0 -11 -12 -43l-6 -16q-13 -31 -18.5 -38.5t-15.5 -4.5q-32 8 -59 8
q-22 0 -35.5 -5.5t-24.5 -17.5q-18 -21 -26 -75l-106 -758q-2 -13 -16.5 -17.5t-63.5 -4.5h-5q-37 0 -52.5 2z" />
    <glyph glyph-name="t" unicode="t" horiz-adv-x="411" 
d="M106 32q-26 30 -26 92q0 19 7 73l31 218h-76q-12 0 -12 17q0 11 3 32l1 7q4 26 8.5 36t13.5 12q46 13 70 27t39 39t27 73q3 9 13.5 11.5t43.5 2.5h9q33 0 43 -4t9 -14l-18 -126h99q8 0 11.5 -3t3.5 -15q0 -11 -3 -35l-1 -7q-4 -25 -7 -36t-7 -14t-12 -3h-99l-34 -236
q-3 -19 -3 -33q0 -30 38 -30q25 0 52 9q6 2 9 2q8 0 12.5 -10.5t6.5 -35.5l1 -10l2 -29q0 -13 -3.5 -18t-13.5 -10q-51 -24 -118 -24q-84 0 -120 42z" />
    <glyph glyph-name="tbar" unicode="&#x167;" horiz-adv-x="411" 
d="M402.5 525q3.5 -3 3.5 -15q0 -11 -3 -35l-1 -7q-4 -25 -7 -36t-7 -14t-12 -3h-99l-12 -85h69q12 0 17.5 -4.5t5.5 -19.5q0 -11 -3 -29l-2 -12q-6 -32 -12.5 -40t-22.5 -8h-69l-5 -38q-3 -19 -3 -33q0 -30 38 -30q25 0 52 9q6 2 9 2q8 0 12.5 -10.5t6.5 -35.5l1 -10l2 -29
q0 -13 -3.5 -18t-13.5 -10q-51 -24 -118 -24q-84 0 -120 42q-26 30 -26 92q0 19 7 73l3 20h-46q-12 0 -17.5 5t-5.5 20q0 11 3 29l2 12q5 30 12 38.5t23 8.5h45l12 85h-76q-12 0 -12 17q0 11 3 32l1 7q4 26 8.5 36t13.5 12q46 13 70 27t39 39t27 73q3 9 13.5 11.5t43.5 2.5
h9q33 0 43 -4t9 -14l-18 -126h99q8 0 11.5 -3z" />
    <glyph glyph-name="tcaron" unicode="&#x165;" horiz-adv-x="404" 
d="M106 32q-26 30 -26 92q0 19 7 73l31 218h-76q-12 0 -12 17q0 11 3 32l1 7q4 26 8.5 36t13.5 12q46 13 70 27t39 39t27 73q3 9 13.5 11.5t43.5 2.5h9q33 0 43 -4t9 -14l-18 -126h99q8 0 11.5 -3t3.5 -15q0 -11 -3 -35l-1 -7q-4 -25 -7 -36t-7 -14t-12 -3h-99l-34 -236
q-3 -19 -3 -33q0 -30 38 -30q25 0 52 9q6 2 9 2q8 0 12.5 -10.5t6.5 -35.5l1 -10l2 -29q0 -13 -3.5 -18t-13.5 -10q-51 -24 -118 -24q-84 0 -120 42zM376 583q-7 0 -18 13l-4 5q-11 14 -11 20q0 4 5 9q56 56 56 96q0 11 -6 19.5t-7 10.5q-15 17 -15 35q0 30 24.5 51.5
t56.5 21.5q31 0 48 -19t17 -51t-16.5 -68t-42.5 -69q-31 -37 -72 -68q-9 -6 -15 -6z" />
    <glyph glyph-name="uni0163" unicode="&#x163;" horiz-adv-x="411" 
d="M106 32q-26 30 -26 92q0 19 7 73l31 218h-76q-12 0 -12 17q0 11 3 32l1 7q4 26 8.5 36t13.5 12q46 13 70 27t39 39t27 73q3 9 13.5 11.5t43.5 2.5h9q33 0 43 -4t9 -14l-18 -126h99q8 0 11.5 -3t3.5 -15q0 -11 -3 -35l-1 -7q-4 -25 -7 -36t-7 -14t-12 -3h-99l-34 -236
q-3 -19 -3 -33q0 -30 38 -30q25 0 52 9q6 2 9 2q8 0 12.5 -10.5t6.5 -35.5l1 -10l2 -29q0 -13 -3.5 -18t-13.5 -10q-51 -24 -118 -24q-84 0 -120 42zM124 -330q-7 0 -18 13l-4 5q-11 14 -11 20q0 4 5 9q56 56 56 96q0 11 -6 19.5t-7 10.5q-15 17 -15 35q0 30 24.5 51.5
t56.5 21.5q31 0 48 -19t17 -51t-16.5 -68t-42.5 -69q-31 -37 -72 -68q-9 -6 -15 -6z" />
    <glyph glyph-name="uni021B" unicode="&#x21b;" horiz-adv-x="411" 
d="M106 32q-26 30 -26 92q0 19 7 73l31 218h-76q-12 0 -12 17q0 11 3 32l1 7q4 26 8.5 36t13.5 12q46 13 70 27t39 39t27 73q3 9 13.5 11.5t43.5 2.5h9q33 0 43 -4t9 -14l-18 -126h99q8 0 11.5 -3t3.5 -15q0 -11 -3 -35l-1 -7q-4 -25 -7 -36t-7 -14t-12 -3h-99l-34 -236
q-3 -19 -3 -33q0 -30 38 -30q25 0 52 9q6 2 9 2q8 0 12.5 -10.5t6.5 -35.5l1 -10l2 -29q0 -13 -3.5 -18t-13.5 -10q-51 -24 -118 -24q-84 0 -120 42zM124 -330q-7 0 -18 13l-4 5q-11 14 -11 20q0 4 5 9q56 56 56 96q0 11 -6 19.5t-7 10.5q-15 17 -15 35q0 30 24.5 51.5
t56.5 21.5q31 0 48 -19t17 -51t-16.5 -68t-42.5 -69q-31 -37 -72 -68q-9 -6 -15 -6z" />
    <glyph glyph-name="u" unicode="u" horiz-adv-x="584" 
d="M129.5 5q-34.5 15 -53.5 41q-30 39 -30 105q0 31 7 78l39 277q1 9 5 13.5t19 6.5t49 2h8q50 0 65 -4.5t13 -17.5l-36 -262q-7 -48 -7 -69q0 -25 15 -38.5t43 -13.5q39 0 59 16q10 7 15 19t10 34q7 35 15 87l31 227q1 9 6 13.5t21 6.5t51 2h8q34 0 49.5 -2t20 -6.5
t2.5 -13.5l-37 -268q-17 -115 -24 -212q-1 -12 -4.5 -16.5t-18 -7t-48.5 -2.5h-8q-26 0 -46 2q-10 1 -13.5 5.5t-4.5 12.5l-2 27q-26 -27 -62 -42t-76 -15q-46 0 -80.5 15z" />
    <glyph glyph-name="uacute" unicode="&#xfa;" horiz-adv-x="584" 
d="M129.5 5q-34.5 15 -53.5 41q-30 39 -30 105q0 31 7 78l39 277q1 9 5 13.5t19 6.5t49 2h8q50 0 65 -4.5t13 -17.5l-36 -262q-7 -48 -7 -69q0 -25 15 -38.5t43 -13.5q39 0 59 16q10 7 15 19t10 34q7 35 15 87l31 227q1 9 6 13.5t21 6.5t51 2h8q34 0 49.5 -2t20 -6.5
t2.5 -13.5l-37 -268q-17 -115 -24 -212q-1 -12 -4.5 -16.5t-18 -7t-48.5 -2.5h-8q-26 0 -46 2q-10 1 -13.5 5.5t-4.5 12.5l-2 27q-26 -27 -62 -42t-76 -15q-46 0 -80.5 15zM246 594.5q-9 2.5 -9 9.5t7 15l122 158q8 10 18 12.5t44 2.5h40q26 0 38 -3.5t12 -10.5q0 -6 -9 -15
l-145 -157q-7 -8 -19 -11t-38 -3h-32q-20 0 -29 2.5z" />
    <glyph glyph-name="ubreve" unicode="&#x16d;" horiz-adv-x="584" 
d="M129.5 5q-34.5 15 -53.5 41q-30 39 -30 105q0 31 7 78l39 277q1 9 5 13.5t19 6.5t49 2h8q50 0 65 -4.5t13 -17.5l-36 -262q-7 -48 -7 -69q0 -25 15 -38.5t43 -13.5q39 0 59 16q10 7 15 19t10 34q7 35 15 87l31 227q1 9 6 13.5t21 6.5t51 2h8q34 0 49.5 -2t20 -6.5
t2.5 -13.5l-37 -268q-17 -115 -24 -212q-1 -12 -4.5 -16.5t-18 -7t-48.5 -2.5h-8q-26 0 -46 2q-10 1 -13.5 5.5t-4.5 12.5l-2 27q-26 -27 -62 -42t-76 -15q-46 0 -80.5 15zM220.5 628.5q-38.5 32.5 -38.5 89.5q0 16 1 23q1 14 11.5 17.5t44.5 3.5h14q29 0 38.5 -4t8.5 -14
q-2 -23 8 -36t30 -13q21 0 34 12t19 37q2 10 12.5 14t40.5 4h14q34 0 43 -3.5t6 -17.5q-13 -68 -60.5 -106.5t-117.5 -38.5t-108.5 32.5z" />
    <glyph glyph-name="ucircumflex" unicode="&#xfb;" horiz-adv-x="584" 
d="M129.5 5q-34.5 15 -53.5 41q-30 39 -30 105q0 31 7 78l39 277q1 9 5 13.5t19 6.5t49 2h8q50 0 65 -4.5t13 -17.5l-36 -262q-7 -48 -7 -69q0 -25 15 -38.5t43 -13.5q39 0 59 16q10 7 15 19t10 34q7 35 15 87l31 227q1 9 6 13.5t21 6.5t51 2h8q34 0 49.5 -2t20 -6.5
t2.5 -13.5l-37 -268q-17 -115 -24 -212q-1 -12 -4.5 -16.5t-18 -7t-48.5 -2.5h-8q-26 0 -46 2q-10 1 -13.5 5.5t-4.5 12.5l-2 27q-26 -27 -62 -42t-76 -15q-46 0 -80.5 15zM236 594q-11 0 -32 25l-8 10q-18 23 -18 31q0 6 6 10l100 92q15 14 27.5 17.5t45.5 3.5h12
q33 0 44.5 -3.5t22.5 -17.5l74 -92q4 -4 4 -10q0 -5 -6 -12t-20 -19l-12 -10q-28 -24 -39 -24q-6 0 -12 6l-74 77l-102 -79q-8 -5 -13 -5z" />
    <glyph glyph-name="udieresis" unicode="&#xfc;" horiz-adv-x="584" 
d="M129.5 5q-34.5 15 -53.5 41q-30 39 -30 105q0 31 7 78l39 277q1 9 5 13.5t19 6.5t49 2h8q50 0 65 -4.5t13 -17.5l-36 -262q-7 -48 -7 -69q0 -25 15 -38.5t43 -13.5q39 0 59 16q10 7 15 19t10 34q7 35 15 87l31 227q1 9 6 13.5t21 6.5t51 2h8q34 0 49.5 -2t20 -6.5
t2.5 -13.5l-37 -268q-17 -115 -24 -212q-1 -12 -4.5 -16.5t-18 -7t-48.5 -2.5h-8q-26 0 -46 2q-10 1 -13.5 5.5t-4.5 12.5l-2 27q-26 -27 -62 -42t-76 -15q-46 0 -80.5 15zM174 617q-20 19 -20 49q0 38 28 66.5t69 28.5q32 0 52 -19.5t20 -49.5q0 -37 -28 -65.5t-67 -28.5
q-34 0 -54 19zM387 617q-20 19 -20 49q0 38 28 66.5t69 28.5q32 0 52 -19.5t20 -49.5q0 -37 -28 -65.5t-67 -28.5q-34 0 -54 19z" />
    <glyph glyph-name="ugrave" unicode="&#xf9;" horiz-adv-x="584" 
d="M129.5 5q-34.5 15 -53.5 41q-30 39 -30 105q0 31 7 78l39 277q1 9 5 13.5t19 6.5t49 2h8q50 0 65 -4.5t13 -17.5l-36 -262q-7 -48 -7 -69q0 -25 15 -38.5t43 -13.5q39 0 59 16q10 7 15 19t10 34q7 35 15 87l31 227q1 9 6 13.5t21 6.5t51 2h8q34 0 49.5 -2t20 -6.5
t2.5 -13.5l-37 -268q-17 -115 -24 -212q-1 -12 -4.5 -16.5t-18 -7t-48.5 -2.5h-8q-26 0 -46 2q-10 1 -13.5 5.5t-4.5 12.5l-2 27q-26 -27 -62 -42t-76 -15q-46 0 -80.5 15zM302 595q-12 3 -16 11l-101 157q-4 7 -4 12q0 9 11.5 13t39.5 4h36q33 0 47 -5t19 -15l76 -153
q3 -6 3 -12q0 -8 -10 -11.5t-32 -3.5h-32q-25 0 -37 3z" />
    <glyph glyph-name="uhungarumlaut" unicode="&#x171;" horiz-adv-x="584" 
d="M129.5 5q-34.5 15 -53.5 41q-30 39 -30 105q0 31 7 78l39 277q1 9 5 13.5t19 6.5t49 2h8q50 0 65 -4.5t13 -17.5l-36 -262q-7 -48 -7 -69q0 -25 15 -38.5t43 -13.5q39 0 59 16q10 7 15 19t10 34q7 35 15 87l31 227q1 9 6 13.5t21 6.5t51 2h8q34 0 49.5 -2t20 -6.5
t2.5 -13.5l-37 -268q-17 -115 -24 -212q-1 -12 -4.5 -16.5t-18 -7t-48.5 -2.5h-8q-26 0 -46 2q-10 1 -13.5 5.5t-4.5 12.5l-2 27q-26 -27 -62 -42t-76 -15q-46 0 -80.5 15zM143 611q0 5 4 12l110 153q5 9 16 12t43 3h39q46 0 46 -11q0 -7 -9 -16l-132 -152q-8 -8 -18 -11
t-32 -3h-31q-36 0 -36 13zM338 611q0 4 5 12l110 153q5 9 16.5 12t42.5 3h38q46 0 46 -12q0 -5 -8 -15l-132 -152q-8 -8 -18 -11t-32 -3h-31q-37 0 -37 13z" />
    <glyph glyph-name="umacron" unicode="&#x16b;" horiz-adv-x="584" 
d="M129.5 5q-34.5 15 -53.5 41q-30 39 -30 105q0 31 7 78l39 277q1 9 5 13.5t19 6.5t49 2h8q50 0 65 -4.5t13 -17.5l-36 -262q-7 -48 -7 -69q0 -25 15 -38.5t43 -13.5q39 0 59 16q10 7 15 19t10 34q7 35 15 87l31 227q1 9 6 13.5t21 6.5t51 2h8q34 0 49.5 -2t20 -6.5
t2.5 -13.5l-37 -268q-17 -115 -24 -212q-1 -12 -4.5 -16.5t-18 -7t-48.5 -2.5h-8q-26 0 -46 2q-10 1 -13.5 5.5t-4.5 12.5l-2 27q-26 -27 -62 -42t-76 -15q-46 0 -80.5 15zM192.5 629q-2.5 3 -2.5 13q0 14 4 38l1 7q4 31 8 39.5t13 8.5h274q6 0 8.5 -3.5t2.5 -13.5t-3 -34
l-1 -7q-5 -34 -9 -42.5t-13 -8.5h-274q-6 0 -8.5 3z" />
    <glyph glyph-name="uogonek" unicode="&#x173;" horiz-adv-x="584" 
d="M264 -216.5q-30 29.5 -30 76.5t32.5 87t86.5 63l-5 37q-26 -27 -62 -42t-76 -15q-46 0 -80.5 15t-53.5 41q-30 39 -30 105q0 31 7 78l39 277q1 9 5 13.5t19 6.5t49 2h8q50 0 65 -4.5t13 -17.5l-36 -262q-7 -48 -7 -69q0 -25 15 -38.5t43 -13.5q39 0 59 16q10 7 15 19
t10 34q7 35 15 87l31 227q1 9 6 13.5t21 6.5t51 2h8q34 0 49.5 -2t20 -6.5t2.5 -13.5l-37 -268q-20 -142 -24 -216q-1 -9 -4.5 -13t-15.5 -8q-53 -16 -83.5 -45t-30.5 -66q0 -16 8.5 -25t22.5 -9q16 0 40 8q8 2 12 -3t9 -27l2 -9q3 -18 3 -28q0 -13 -9 -18q-48 -25 -98 -25
q-55 0 -85 29.5z" />
    <glyph glyph-name="uring" unicode="&#x16f;" horiz-adv-x="584" 
d="M129.5 5q-34.5 15 -53.5 41q-30 39 -30 105q0 31 7 78l39 277q1 9 5 13.5t19 6.5t49 2h8q50 0 65 -4.5t13 -17.5l-36 -262q-7 -48 -7 -69q0 -25 15 -38.5t43 -13.5q39 0 59 16q10 7 15 19t10 34q7 35 15 87l31 227q1 9 6 13.5t21 6.5t51 2h8q34 0 49.5 -2t20 -6.5
t2.5 -13.5l-37 -268q-17 -115 -24 -212q-1 -12 -4.5 -16.5t-18 -7t-48.5 -2.5h-8q-26 0 -46 2q-10 1 -13.5 5.5t-4.5 12.5l-2 27q-26 -27 -62 -42t-76 -15q-46 0 -80.5 15zM256 613.5q-30 29.5 -30 71.5q0 34 18 64.5t49.5 49.5t70.5 19q47 0 76.5 -28t29.5 -74
q0 -34 -19.5 -64.5t-51.5 -49t-68 -18.5q-45 0 -75 29.5zM368 678.5q11 10.5 11 26.5q0 13 -7.5 21t-21.5 8q-15 0 -25 -10t-10 -29q0 -12 7.5 -19.5t20.5 -7.5q14 0 25 10.5z" />
    <glyph glyph-name="utilde" unicode="&#x169;" horiz-adv-x="584" 
d="M129.5 5q-34.5 15 -53.5 41q-30 39 -30 105q0 31 7 78l39 277q1 9 5 13.5t19 6.5t49 2h8q50 0 65 -4.5t13 -17.5l-36 -262q-7 -48 -7 -69q0 -25 15 -38.5t43 -13.5q39 0 59 16q10 7 15 19t10 34q7 35 15 87l31 227q1 9 6 13.5t21 6.5t51 2h8q34 0 49.5 -2t20 -6.5
t2.5 -13.5l-37 -268q-17 -115 -24 -212q-1 -12 -4.5 -16.5t-18 -7t-48.5 -2.5h-8q-26 0 -46 2q-10 1 -13.5 5.5t-4.5 12.5l-2 27q-26 -27 -62 -42t-76 -15q-46 0 -80.5 15zM367.5 617q-15.5 5 -32.5 14q-16 9 -26 13t-24 4q-25 0 -55 -34q-5 -5 -10 -5q-11 0 -33 26l-5 6
q-19 23 -19 30q0 6 6 12q27 32 57.5 50t60.5 18q21 0 34.5 -5t31.5 -14q14 -8 24.5 -11.5t25.5 -3.5q29 0 64 32q6 4 8 4q10 0 31 -25l5 -6q17 -21 17 -32q0 -5 -5 -12q-24 -30 -54.5 -48t-62.5 -18q-23 0 -38.5 5z" />
    <glyph glyph-name="v" unicode="v" horiz-adv-x="522" 
d="M160.5 3.5q-13.5 3.5 -15.5 13.5l-109 483q-2 10 2 16t20.5 9t52.5 3h10q47 0 62.5 -4t17.5 -16l35 -198q12 -79 14 -177q102 223 153 375q3 8 8 12t19 6t43 2h10q44 0 57 -5t9 -18q-39 -111 -103 -249t-128 -236q-9 -13 -22.5 -16.5t-55.5 -3.5h-23q-43 0 -56.5 3.5z
" />
    <glyph glyph-name="w" unicode="w" horiz-adv-x="775" 
d="M120 3.5q-15 3.5 -17 14.5l-66 482l-1 8q0 11 14.5 15.5t58.5 4.5h7q46 0 62 -4.5t17 -16.5l18 -194q3 -34 3 -88q0 -63 -3 -100q25 103 50 169l80 213q5 13 20 17t62 4h9q45 0 59.5 -4.5t15.5 -16.5l17 -202q7 -93 8 -179q26 83 59.5 197t50.5 183q2 9 7.5 13.5t21 6.5
t48.5 2h7q44 0 57 -5t9 -19q-23 -87 -84.5 -236.5t-116.5 -249.5q-7 -12 -20.5 -15t-60.5 -3h-10q-37 0 -52.5 1.5t-19.5 5t-5 11.5l-17 151q-6 59 -6 122q0 57 2 91q-26 -112 -67 -213l-63 -152q-4 -9 -20 -13t-63 -4h-10q-46 0 -61 3.5z" />
    <glyph glyph-name="wacute" unicode="&#x1e83;" horiz-adv-x="775" 
d="M120 3.5q-15 3.5 -17 14.5l-66 482l-1 8q0 11 14.5 15.5t58.5 4.5h7q46 0 62 -4.5t17 -16.5l18 -194q3 -34 3 -88q0 -63 -3 -100q25 103 50 169l80 213q5 13 20 17t62 4h9q45 0 59.5 -4.5t15.5 -16.5l17 -202q7 -93 8 -179q26 83 59.5 197t50.5 183q2 9 7.5 13.5t21 6.5
t48.5 2h7q44 0 57 -5t9 -19q-23 -87 -84.5 -236.5t-116.5 -249.5q-7 -12 -20.5 -15t-60.5 -3h-10q-37 0 -52.5 1.5t-19.5 5t-5 11.5l-17 151q-6 59 -6 122q0 57 2 91q-26 -112 -67 -213l-63 -152q-4 -9 -20 -13t-63 -4h-10q-46 0 -61 3.5zM350 594.5q-9 2.5 -9 9.5t7 15
l122 158q8 10 18 12.5t44 2.5h40q26 0 38 -3.5t12 -10.5q0 -6 -9 -15l-145 -157q-7 -8 -19 -11t-38 -3h-32q-20 0 -29 2.5z" />
    <glyph glyph-name="wcircumflex" unicode="&#x175;" horiz-adv-x="775" 
d="M120 3.5q-15 3.5 -17 14.5l-66 482l-1 8q0 11 14.5 15.5t58.5 4.5h7q46 0 62 -4.5t17 -16.5l18 -194q3 -34 3 -88q0 -63 -3 -100q25 103 50 169l80 213q5 13 20 17t62 4h9q45 0 59.5 -4.5t15.5 -16.5l17 -202q7 -93 8 -179q26 83 59.5 197t50.5 183q2 9 7.5 13.5t21 6.5
t48.5 2h7q44 0 57 -5t9 -19q-23 -87 -84.5 -236.5t-116.5 -249.5q-7 -12 -20.5 -15t-60.5 -3h-10q-37 0 -52.5 1.5t-19.5 5t-5 11.5l-17 151q-6 59 -6 122q0 57 2 91q-26 -112 -67 -213l-63 -152q-4 -9 -20 -13t-63 -4h-10q-46 0 -61 3.5zM340 594q-11 0 -32 25l-8 10
q-18 23 -18 31q0 6 6 10l100 92q15 14 27.5 17.5t45.5 3.5h12q33 0 44.5 -3.5t22.5 -17.5l74 -92q4 -4 4 -10q0 -5 -6 -12t-20 -19l-12 -10q-28 -24 -39 -24q-6 0 -12 6l-74 77l-102 -79q-8 -5 -13 -5z" />
    <glyph glyph-name="wdieresis" unicode="&#x1e85;" horiz-adv-x="775" 
d="M120 3.5q-15 3.5 -17 14.5l-66 482l-1 8q0 11 14.5 15.5t58.5 4.5h7q46 0 62 -4.5t17 -16.5l18 -194q3 -34 3 -88q0 -63 -3 -100q25 103 50 169l80 213q5 13 20 17t62 4h9q45 0 59.5 -4.5t15.5 -16.5l17 -202q7 -93 8 -179q26 83 59.5 197t50.5 183q2 9 7.5 13.5t21 6.5
t48.5 2h7q44 0 57 -5t9 -19q-23 -87 -84.5 -236.5t-116.5 -249.5q-7 -12 -20.5 -15t-60.5 -3h-10q-37 0 -52.5 1.5t-19.5 5t-5 11.5l-17 151q-6 59 -6 122q0 57 2 91q-26 -112 -67 -213l-63 -152q-4 -9 -20 -13t-63 -4h-10q-46 0 -61 3.5zM278 617q-20 19 -20 49
q0 38 28 66.5t69 28.5q32 0 52 -19.5t20 -49.5q0 -37 -28 -65.5t-67 -28.5q-34 0 -54 19zM491 617q-20 19 -20 49q0 38 28 66.5t69 28.5q32 0 52 -19.5t20 -49.5q0 -37 -28 -65.5t-67 -28.5q-34 0 -54 19z" />
    <glyph glyph-name="wgrave" unicode="&#x1e81;" horiz-adv-x="775" 
d="M120 3.5q-15 3.5 -17 14.5l-66 482l-1 8q0 11 14.5 15.5t58.5 4.5h7q46 0 62 -4.5t17 -16.5l18 -194q3 -34 3 -88q0 -63 -3 -100q25 103 50 169l80 213q5 13 20 17t62 4h9q45 0 59.5 -4.5t15.5 -16.5l17 -202q7 -93 8 -179q26 83 59.5 197t50.5 183q2 9 7.5 13.5t21 6.5
t48.5 2h7q44 0 57 -5t9 -19q-23 -87 -84.5 -236.5t-116.5 -249.5q-7 -12 -20.5 -15t-60.5 -3h-10q-37 0 -52.5 1.5t-19.5 5t-5 11.5l-17 151q-6 59 -6 122q0 57 2 91q-26 -112 -67 -213l-63 -152q-4 -9 -20 -13t-63 -4h-10q-46 0 -61 3.5zM406 595q-12 3 -16 11l-101 157
q-4 7 -4 12q0 9 11.5 13t39.5 4h36q33 0 47 -5t19 -15l76 -153q3 -6 3 -12q0 -8 -10 -11.5t-32 -3.5h-32q-25 0 -37 3z" />
    <glyph glyph-name="x" unicode="x" horiz-adv-x="508" 
d="M-13 4q-16 4 -16 13q0 6 6 13l192 240l-123 228q-4 10 -4 12q0 10 17.5 14t58.5 4h15q48 0 62.5 -4t20.5 -15l58 -126l84 126q6 9 12 12.5t20 5t46 1.5h9q42 0 59 -3t17 -11q0 -3 -6 -11l-185 -230l135 -245q4 -7 4 -12q0 -10 -17.5 -13t-63.5 -3h-15q-48 0 -62 3t-19 15
l-63 140l-95 -139q-8 -12 -23 -15.5t-60 -3.5h-10q-38 0 -54 4z" />
    <glyph glyph-name="y" unicode="y" horiz-adv-x="525" 
d="M-31.5 -226q-28.5 7 -44.5 18q-7 4 -7 13q0 8 14 41l5 14q13 31 22.5 40.5t20.5 4.5t30 -8.5t32 -3.5q74 0 118 102l-102 505q-2 10 2.5 16t21.5 9t53 3h13q32 0 47.5 -2t20.5 -6t7 -12l23 -160q11 -78 15 -207q35 111 73 210l62 157q5 12 18 16t57 4h12q40 0 55.5 -4
t15.5 -13q0 -5 -3 -11l-231 -486q-42 -88 -81.5 -141t-89.5 -79.5t-118 -26.5q-33 0 -61.5 7z" />
    <glyph glyph-name="yacute" unicode="&#xfd;" horiz-adv-x="525" 
d="M-31.5 -226q-28.5 7 -44.5 18q-7 4 -7 13q0 8 14 41l5 14q13 31 22.5 40.5t20.5 4.5t30 -8.5t32 -3.5q74 0 118 102l-102 505q-2 10 2.5 16t21.5 9t53 3h13q32 0 47.5 -2t20.5 -6t7 -12l23 -160q11 -78 15 -207q35 111 73 210l62 157q5 12 18 16t57 4h12q40 0 55.5 -4
t15.5 -13q0 -5 -3 -11l-231 -486q-42 -88 -81.5 -141t-89.5 -79.5t-118 -26.5q-33 0 -61.5 7zM234 594.5q-9 2.5 -9 9.5t7 15l122 158q8 10 18 12.5t44 2.5h40q26 0 38 -3.5t12 -10.5q0 -6 -9 -15l-145 -157q-7 -8 -19 -11t-38 -3h-32q-20 0 -29 2.5z" />
    <glyph glyph-name="ycircumflex" unicode="&#x177;" horiz-adv-x="525" 
d="M-31.5 -226q-28.5 7 -44.5 18q-7 4 -7 13q0 8 14 41l5 14q13 31 22.5 40.5t20.5 4.5t30 -8.5t32 -3.5q74 0 118 102l-102 505q-2 10 2.5 16t21.5 9t53 3h13q32 0 47.5 -2t20.5 -6t7 -12l23 -160q11 -78 15 -207q35 111 73 210l62 157q5 12 18 16t57 4h12q40 0 55.5 -4
t15.5 -13q0 -5 -3 -11l-231 -486q-42 -88 -81.5 -141t-89.5 -79.5t-118 -26.5q-33 0 -61.5 7zM224 594q-11 0 -32 25l-8 10q-18 23 -18 31q0 6 6 10l100 92q15 14 27.5 17.5t45.5 3.5h12q33 0 44.5 -3.5t22.5 -17.5l74 -92q4 -4 4 -10q0 -5 -6 -12t-20 -19l-12 -10
q-28 -24 -39 -24q-6 0 -12 6l-74 77l-102 -79q-8 -5 -13 -5z" />
    <glyph glyph-name="ydieresis" unicode="&#xff;" horiz-adv-x="525" 
d="M-31.5 -226q-28.5 7 -44.5 18q-7 4 -7 13q0 8 14 41l5 14q13 31 22.5 40.5t20.5 4.5t30 -8.5t32 -3.5q74 0 118 102l-102 505q-2 10 2.5 16t21.5 9t53 3h13q32 0 47.5 -2t20.5 -6t7 -12l23 -160q11 -78 15 -207q35 111 73 210l62 157q5 12 18 16t57 4h12q40 0 55.5 -4
t15.5 -13q0 -5 -3 -11l-231 -486q-42 -88 -81.5 -141t-89.5 -79.5t-118 -26.5q-33 0 -61.5 7zM162 617q-20 19 -20 49q0 38 28 66.5t69 28.5q32 0 52 -19.5t20 -49.5q0 -37 -28 -65.5t-67 -28.5q-34 0 -54 19zM375 617q-20 19 -20 49q0 38 28 66.5t69 28.5q32 0 52 -19.5
t20 -49.5q0 -37 -28 -65.5t-67 -28.5q-34 0 -54 19z" />
    <glyph glyph-name="ygrave" unicode="&#x1ef3;" horiz-adv-x="525" 
d="M-31.5 -226q-28.5 7 -44.5 18q-7 4 -7 13q0 8 14 41l5 14q13 31 22.5 40.5t20.5 4.5t30 -8.5t32 -3.5q74 0 118 102l-102 505q-2 10 2.5 16t21.5 9t53 3h13q32 0 47.5 -2t20.5 -6t7 -12l23 -160q11 -78 15 -207q35 111 73 210l62 157q5 12 18 16t57 4h12q40 0 55.5 -4
t15.5 -13q0 -5 -3 -11l-231 -486q-42 -88 -81.5 -141t-89.5 -79.5t-118 -26.5q-33 0 -61.5 7zM290 595q-12 3 -16 11l-101 157q-4 7 -4 12q0 9 11.5 13t39.5 4h36q33 0 47 -5t19 -15l76 -153q3 -6 3 -12q0 -8 -10 -11.5t-32 -3.5h-32q-25 0 -37 3z" />
    <glyph glyph-name="z" unicode="z" horiz-adv-x="479" 
d="M3 4.5q-7 4.5 -5 16.5l5 35q2 17 7 28t16 25l244 301h-178q-8 0 -11.5 4t-3.5 16q0 14 4 38l1 6q5 27 8 38t6.5 13.5t11.5 2.5h327q23 0 32.5 -1t12 -5t1.5 -12l-6 -38q-2 -17 -7 -28t-17 -25l-241 -301h201q8 0 11.5 -3t3.5 -14q0 -15 -4 -39l-1 -6q-5 -28 -8 -39
t-7 -14t-12 -3h-362q-22 0 -29 4.5z" />
    <glyph glyph-name="zacute" unicode="&#x17a;" horiz-adv-x="479" 
d="M3 4.5q-7 4.5 -5 16.5l5 35q2 17 7 28t16 25l244 301h-178q-8 0 -11.5 4t-3.5 16q0 14 4 38l1 6q5 27 8 38t6.5 13.5t11.5 2.5h327q23 0 32.5 -1t12 -5t1.5 -12l-6 -38q-2 -17 -7 -28t-17 -25l-241 -301h201q8 0 11.5 -3t3.5 -14q0 -15 -4 -39l-1 -6q-5 -28 -8 -39
t-7 -14t-12 -3h-362q-22 0 -29 4.5zM211 594.5q-9 2.5 -9 9.5t7 15l122 158q8 10 18 12.5t44 2.5h40q26 0 38 -3.5t12 -10.5q0 -6 -9 -15l-145 -157q-7 -8 -19 -11t-38 -3h-32q-20 0 -29 2.5z" />
    <glyph glyph-name="zacute.loclPLK" horiz-adv-x="479" 
d="M3 4.5q-7 4.5 -5 16.5l5 35q2 17 7 28t16 25l244 301h-178q-8 0 -11.5 4t-3.5 16q0 14 4 38l1 6q5 27 8 38t6.5 13.5t11.5 2.5h327q23 0 32.5 -1t12 -5t1.5 -12l-6 -38q-2 -17 -7 -28t-17 -25l-241 -301h201q8 0 11.5 -3t3.5 -14q0 -15 -4 -39l-1 -6q-5 -28 -8 -39
t-7 -14t-12 -3h-362q-22 0 -29 4.5zM247 595q-10 3 -10 11q0 3 4 13l68 155q5 11 16.5 14.5t42.5 3.5h45q27 0 37.5 -2.5t10.5 -9.5q0 -5 -7 -17l-90 -153q-7 -12 -16 -15t-35 -3h-31q-25 0 -35 3z" />
    <glyph glyph-name="zcaron" unicode="&#x17e;" horiz-adv-x="479" 
d="M3 4.5q-7 4.5 -5 16.5l5 35q2 17 7 28t16 25l244 301h-178q-8 0 -11.5 4t-3.5 16q0 14 4 38l1 6q5 27 8 38t6.5 13.5t11.5 2.5h327q23 0 32.5 -1t12 -5t1.5 -12l-6 -38q-2 -17 -7 -28t-17 -25l-241 -301h201q8 0 11.5 -3t3.5 -14q0 -15 -4 -39l-1 -6q-5 -28 -8 -39
t-7 -14t-12 -3h-362q-22 0 -29 4.5zM243 595q-12 4 -23 17l-75 95q-4 6 -4 9q0 11 28 34l12 10q26 22 37 22q6 0 12 -6l78 -80l101 80q10 7 15 7q11 0 32 -25l8 -10q18 -22 18 -30q0 -5 -6 -11l-104 -95q-14 -13 -28 -17t-45 -4h-12q-32 0 -44 4z" />
    <glyph glyph-name="zdotaccent" unicode="&#x17c;" horiz-adv-x="479" 
d="M3 4.5q-7 4.5 -5 16.5l5 35q2 17 7 28t16 25l244 301h-178q-8 0 -11.5 4t-3.5 16q0 14 4 38l1 6q5 27 8 38t6.5 13.5t11.5 2.5h327q23 0 32.5 -1t12 -5t1.5 -12l-6 -38q-2 -17 -7 -28t-17 -25l-241 -301h201q8 0 11.5 -3t3.5 -14q0 -15 -4 -39l-1 -6q-5 -28 -8 -39
t-7 -14t-12 -3h-362q-22 0 -29 4.5zM249 630.5q-20 20.5 -20 50.5q0 38 27.5 64.5t66.5 26.5q31 0 51 -20.5t20 -50.5q0 -39 -27 -65t-66 -26q-32 0 -52 20.5z" />
    <glyph glyph-name="a.sc" horiz-adv-x="635" 
d="M576 19q0 -12 -15.5 -15.5t-56.5 -3.5h-8q-37 0 -52 1.5t-20.5 5.5t-7.5 14l-26 121h-204l-58 -121q-5 -10 -11.5 -14t-22 -5.5t-50.5 -1.5h-9q-37 0 -51 2.5t-14 10.5q0 6 4 13l295 537q5 10 11 13.5t18.5 4.5t45.5 1h10q31 0 43.5 -1t17.5 -5t8 -14l151 -534zM365 256
l-38 177l-85 -177h123z" />
    <glyph glyph-name="a.ss01.sc" horiz-adv-x="635" 
d="M576 19q0 -12 -15.5 -15.5t-56.5 -3.5h-8q-37 0 -52 1.5t-20.5 5.5t-7.5 14l-26 121h-204l-58 -121q-5 -10 -11.5 -14t-22 -5.5t-50.5 -1.5h-9q-37 0 -51 2.5t-14 10.5q0 6 4 13l295 537q5 10 11 13.5t18.5 4.5t45.5 1h10q31 0 43.5 -1t17.5 -5t8 -14l151 -534zM365 256
l-38 177l-85 -177h123z" />
    <glyph glyph-name="aacute.sc" horiz-adv-x="635" 
d="M576 19q0 -12 -15.5 -15.5t-56.5 -3.5h-8q-37 0 -52 1.5t-20.5 5.5t-7.5 14l-26 121h-204l-58 -121q-5 -10 -11.5 -14t-22 -5.5t-50.5 -1.5h-9q-37 0 -51 2.5t-14 10.5q0 6 4 13l295 537q5 10 11 13.5t18.5 4.5t45.5 1h10q31 0 43.5 -1t17.5 -5t8 -14l151 -534zM365 256
l-38 177l-85 -177h123zM281 635.5q-9 2.5 -9 9.5t7 15l122 158q8 10 18 12.5t44 2.5h40q26 0 38 -3.5t12 -10.5q0 -6 -9 -15l-145 -157q-7 -8 -19 -11t-38 -3h-32q-20 0 -29 2.5z" />
    <glyph glyph-name="aacute.ss01.sc" horiz-adv-x="635" 
d="M576 19q0 -12 -15.5 -15.5t-56.5 -3.5h-8q-37 0 -52 1.5t-20.5 5.5t-7.5 14l-26 121h-204l-58 -121q-5 -10 -11.5 -14t-22 -5.5t-50.5 -1.5h-9q-37 0 -51 2.5t-14 10.5q0 6 4 13l295 537q5 10 11 13.5t18.5 4.5t45.5 1h10q31 0 43.5 -1t17.5 -5t8 -14l151 -534zM365 256
l-38 177l-85 -177h123zM289 635.5q-9 2.5 -9 9.5t7 15l122 158q8 10 18 12.5t44 2.5h40q26 0 38 -3.5t12 -10.5q0 -6 -9 -15l-145 -157q-7 -8 -19 -11t-38 -3h-32q-20 0 -29 2.5z" />
    <glyph glyph-name="abreve.sc" horiz-adv-x="635" 
d="M576 19q0 -12 -15.5 -15.5t-56.5 -3.5h-8q-37 0 -52 1.5t-20.5 5.5t-7.5 14l-26 121h-204l-58 -121q-5 -10 -11.5 -14t-22 -5.5t-50.5 -1.5h-9q-37 0 -51 2.5t-14 10.5q0 6 4 13l295 537q5 10 11 13.5t18.5 4.5t45.5 1h10q31 0 43.5 -1t17.5 -5t8 -14l151 -534zM365 256
l-38 177l-85 -177h123zM245.5 669.5q-38.5 32.5 -38.5 89.5q0 16 1 23q1 14 11.5 17.5t44.5 3.5h14q29 0 38.5 -4t8.5 -14q-2 -23 8 -36t30 -13q21 0 34 12t19 37q2 10 12.5 14t40.5 4h14q34 0 43 -3.5t6 -17.5q-13 -68 -60.5 -106.5t-117.5 -38.5t-108.5 32.5z" />
    <glyph glyph-name="abreve.ss01.sc" horiz-adv-x="635" 
d="M576 19q0 -12 -15.5 -15.5t-56.5 -3.5h-8q-37 0 -52 1.5t-20.5 5.5t-7.5 14l-26 121h-204l-58 -121q-5 -10 -11.5 -14t-22 -5.5t-50.5 -1.5h-9q-37 0 -51 2.5t-14 10.5q0 6 4 13l295 537q5 10 11 13.5t18.5 4.5t45.5 1h10q31 0 43.5 -1t17.5 -5t8 -14l151 -534zM365 256
l-38 177l-85 -177h123zM253.5 669.5q-38.5 32.5 -38.5 89.5q0 16 1 23q1 14 11.5 17.5t44.5 3.5h14q29 0 38.5 -4t8.5 -14q-2 -23 8 -36t30 -13q21 0 34 12t19 37q2 10 12.5 14t40.5 4h14q34 0 43 -3.5t6 -17.5q-13 -68 -60.5 -106.5t-117.5 -38.5t-108.5 32.5z" />
    <glyph glyph-name="uni01CE.sc" horiz-adv-x="635" 
d="M576 19q0 -12 -15.5 -15.5t-56.5 -3.5h-8q-37 0 -52 1.5t-20.5 5.5t-7.5 14l-26 121h-204l-58 -121q-5 -10 -11.5 -14t-22 -5.5t-50.5 -1.5h-9q-37 0 -51 2.5t-14 10.5q0 6 4 13l295 537q5 10 11 13.5t18.5 4.5t45.5 1h10q31 0 43.5 -1t17.5 -5t8 -14l151 -534zM365 256
l-38 177l-85 -177h123zM303 636q-12 4 -23 17l-75 95q-4 6 -4 9q0 11 28 34l12 10q26 22 37 22q6 0 12 -6l78 -80l101 80q11 7 15 7q11 0 32 -25l8 -10q18 -22 18 -30q0 -5 -6 -11l-104 -95q-14 -13 -28 -17t-45 -4h-12q-32 0 -44 4z" />
    <glyph glyph-name="uni01CE.ss01.sc" horiz-adv-x="635" 
d="M576 19q0 -12 -15.5 -15.5t-56.5 -3.5h-8q-37 0 -52 1.5t-20.5 5.5t-7.5 14l-26 121h-204l-58 -121q-5 -10 -11.5 -14t-22 -5.5t-50.5 -1.5h-9q-37 0 -51 2.5t-14 10.5q0 6 4 13l295 537q5 10 11 13.5t18.5 4.5t45.5 1h10q31 0 43.5 -1t17.5 -5t8 -14l151 -534zM365 256
l-38 177l-85 -177h123zM311 636q-12 4 -23 17l-75 95q-4 6 -4 9q0 11 28 34l12 10q26 22 37 22q6 0 12 -6l78 -80l101 80q11 7 15 7q11 0 32 -25l8 -10q18 -22 18 -30q0 -5 -6 -11l-104 -95q-14 -13 -28 -17t-45 -4h-12q-32 0 -44 4z" />
    <glyph glyph-name="acircumflex.sc" horiz-adv-x="635" 
d="M576 19q0 -12 -15.5 -15.5t-56.5 -3.5h-8q-37 0 -52 1.5t-20.5 5.5t-7.5 14l-26 121h-204l-58 -121q-5 -10 -11.5 -14t-22 -5.5t-50.5 -1.5h-9q-37 0 -51 2.5t-14 10.5q0 6 4 13l295 537q5 10 11 13.5t18.5 4.5t45.5 1h10q31 0 43.5 -1t17.5 -5t8 -14l151 -534zM365 256
l-38 177l-85 -177h123zM251 635q-11 0 -32 25l-8 10q-18 23 -18 31q0 6 6 10l100 92q15 14 27.5 17.5t45.5 3.5h12q33 0 44.5 -3.5t22.5 -17.5l74 -92q4 -4 4 -10q0 -5 -6 -12t-20 -19l-12 -10q-28 -24 -39 -24q-6 0 -12 6l-74 77l-102 -79q-8 -5 -13 -5z" />
    <glyph glyph-name="acircumflex.ss01.sc" horiz-adv-x="635" 
d="M576 19q0 -12 -15.5 -15.5t-56.5 -3.5h-8q-37 0 -52 1.5t-20.5 5.5t-7.5 14l-26 121h-204l-58 -121q-5 -10 -11.5 -14t-22 -5.5t-50.5 -1.5h-9q-37 0 -51 2.5t-14 10.5q0 6 4 13l295 537q5 10 11 13.5t18.5 4.5t45.5 1h10q31 0 43.5 -1t17.5 -5t8 -14l151 -534zM365 256
l-38 177l-85 -177h123zM259 635q-11 0 -32 25l-8 10q-18 23 -18 31q0 6 6 10l100 92q15 14 27.5 17.5t45.5 3.5h12q33 0 44.5 -3.5t22.5 -17.5l74 -92q4 -4 4 -10q0 -5 -6 -12t-20 -19l-12 -10q-28 -24 -39 -24q-6 0 -12 6l-74 77l-102 -79q-8 -5 -13 -5z" />
    <glyph glyph-name="adieresis.sc" horiz-adv-x="635" 
d="M576 19q0 -12 -15.5 -15.5t-56.5 -3.5h-8q-37 0 -52 1.5t-20.5 5.5t-7.5 14l-26 121h-204l-58 -121q-5 -10 -11.5 -14t-22 -5.5t-50.5 -1.5h-9q-37 0 -51 2.5t-14 10.5q0 6 4 13l295 537q5 10 11 13.5t18.5 4.5t45.5 1h10q31 0 43.5 -1t17.5 -5t8 -14l151 -534zM365 256
l-38 177l-85 -177h123zM189 658q-20 19 -20 49q0 38 28 66.5t69 28.5q32 0 52 -19.5t20 -49.5q0 -37 -28 -65.5t-67 -28.5q-34 0 -54 19zM402 658q-20 19 -20 49q0 38 28 66.5t69 28.5q32 0 52 -19.5t20 -49.5q0 -37 -28 -65.5t-67 -28.5q-34 0 -54 19z" />
    <glyph glyph-name="adieresis.ss01.sc" horiz-adv-x="635" 
d="M576 19q0 -12 -15.5 -15.5t-56.5 -3.5h-8q-37 0 -52 1.5t-20.5 5.5t-7.5 14l-26 121h-204l-58 -121q-5 -10 -11.5 -14t-22 -5.5t-50.5 -1.5h-9q-37 0 -51 2.5t-14 10.5q0 6 4 13l295 537q5 10 11 13.5t18.5 4.5t45.5 1h10q31 0 43.5 -1t17.5 -5t8 -14l151 -534zM365 256
l-38 177l-85 -177h123zM197 658q-20 19 -20 49q0 38 28 66.5t69 28.5q32 0 52 -19.5t20 -49.5q0 -37 -28 -65.5t-67 -28.5q-34 0 -54 19zM410 658q-20 19 -20 49q0 38 28 66.5t69 28.5q32 0 52 -19.5t20 -49.5q0 -37 -28 -65.5t-67 -28.5q-34 0 -54 19z" />
    <glyph glyph-name="agrave.sc" horiz-adv-x="635" 
d="M576 19q0 -12 -15.5 -15.5t-56.5 -3.5h-8q-37 0 -52 1.5t-20.5 5.5t-7.5 14l-26 121h-204l-58 -121q-5 -10 -11.5 -14t-22 -5.5t-50.5 -1.5h-9q-37 0 -51 2.5t-14 10.5q0 6 4 13l295 537q5 10 11 13.5t18.5 4.5t45.5 1h10q31 0 43.5 -1t17.5 -5t8 -14l151 -534zM365 256
l-38 177l-85 -177h123zM317 636q-12 3 -16 11l-101 157q-4 7 -4 12q0 9 11.5 13t39.5 4h36q33 0 47 -5t19 -15l76 -153q3 -6 3 -12q0 -8 -10 -11.5t-32 -3.5h-32q-25 0 -37 3z" />
    <glyph glyph-name="agrave.ss01.sc" horiz-adv-x="635" 
d="M576 19q0 -12 -15.5 -15.5t-56.5 -3.5h-8q-37 0 -52 1.5t-20.5 5.5t-7.5 14l-26 121h-204l-58 -121q-5 -10 -11.5 -14t-22 -5.5t-50.5 -1.5h-9q-37 0 -51 2.5t-14 10.5q0 6 4 13l295 537q5 10 11 13.5t18.5 4.5t45.5 1h10q31 0 43.5 -1t17.5 -5t8 -14l151 -534zM365 256
l-38 177l-85 -177h123zM325 636q-12 3 -16 11l-101 157q-4 7 -4 12q0 9 11.5 13t39.5 4h36q33 0 47 -5t19 -15l76 -153q3 -6 3 -12q0 -8 -10 -11.5t-32 -3.5h-32q-25 0 -37 3z" />
    <glyph glyph-name="amacron.sc" horiz-adv-x="635" 
d="M576 19q0 -12 -15.5 -15.5t-56.5 -3.5h-8q-37 0 -52 1.5t-20.5 5.5t-7.5 14l-26 121h-204l-58 -121q-5 -10 -11.5 -14t-22 -5.5t-50.5 -1.5h-9q-37 0 -51 2.5t-14 10.5q0 6 4 13l295 537q5 10 11 13.5t18.5 4.5t45.5 1h10q31 0 43.5 -1t17.5 -5t8 -14l151 -534zM365 256
l-38 177l-85 -177h123zM213.5 670q-2.5 3 -2.5 13q0 14 4 38l1 7q4 31 8 39.5t13 8.5h274q6 0 8.5 -3.5t2.5 -13.5t-3 -34l-1 -7q-5 -34 -9 -42.5t-13 -8.5h-274q-6 0 -8.5 3z" />
    <glyph glyph-name="amacron.ss01.sc" horiz-adv-x="635" 
d="M576 19q0 -12 -15.5 -15.5t-56.5 -3.5h-8q-37 0 -52 1.5t-20.5 5.5t-7.5 14l-26 121h-204l-58 -121q-5 -10 -11.5 -14t-22 -5.5t-50.5 -1.5h-9q-37 0 -51 2.5t-14 10.5q0 6 4 13l295 537q5 10 11 13.5t18.5 4.5t45.5 1h10q31 0 43.5 -1t17.5 -5t8 -14l151 -534zM365 256
l-38 177l-85 -177h123zM221.5 670q-2.5 3 -2.5 13q0 14 4 38l1 7q4 31 8 39.5t13 8.5h274q6 0 8.5 -3.5t2.5 -13.5t-3 -34l-1 -7q-5 -34 -9 -42.5t-13 -8.5h-274q-6 0 -8.5 3z" />
    <glyph glyph-name="aogonek.sc" horiz-adv-x="635" 
d="M575 19q0 -8 -8 -13q-117 -72 -117 -123q0 -29 33 -29q19 0 37 8q8 4 12.5 -1.5t10.5 -25.5l7 -24q4 -13 4 -23q0 -8 -3.5 -12t-11.5 -8q-17 -9 -42 -13.5t-48 -4.5q-51 0 -83 26t-32 75q0 43 24 81t63 64l-31 146h-204l-58 -121q-5 -10 -11.5 -14t-22 -5.5t-50.5 -1.5
h-9q-37 0 -51 2.5t-14 10.5q0 6 4 13l295 537q5 10 11 13.5t18.5 4.5t45.5 1h10q31 0 43.5 -1t17.5 -5t8 -14l151 -534q1 -3 1 -9zM365 256l-38 177l-85 -177h123z" />
    <glyph glyph-name="aogonek.ss01.sc" horiz-adv-x="635" 
d="M575 19q0 -8 -8 -13q-117 -72 -117 -123q0 -29 33 -29q19 0 37 8q8 4 12.5 -1.5t10.5 -25.5l7 -24q4 -13 4 -23q0 -8 -3.5 -12t-11.5 -8q-17 -9 -42 -13.5t-48 -4.5q-51 0 -83 26t-32 75q0 43 24 81t63 64l-31 146h-204l-58 -121q-5 -10 -11.5 -14t-22 -5.5t-50.5 -1.5
h-9q-37 0 -51 2.5t-14 10.5q0 6 4 13l295 537q5 10 11 13.5t18.5 4.5t45.5 1h10q31 0 43.5 -1t17.5 -5t8 -14l151 -534q1 -3 1 -9zM365 256l-38 177l-85 -177h123z" />
    <glyph glyph-name="aring.sc" horiz-adv-x="635" 
d="M576 19q0 -12 -15.5 -15.5t-56.5 -3.5h-8q-37 0 -52 1.5t-20.5 5.5t-7.5 14l-26 121h-204l-58 -121q-5 -10 -11.5 -14t-22 -5.5t-50.5 -1.5h-9q-37 0 -51 2.5t-14 10.5q0 6 4 13l301 546q-37 31 -37 78q0 34 19.5 64.5t52 49t68.5 18.5q46 0 77 -29t31 -72q0 -34 -18 -63
t-47 -48l153 -542zM339.5 687q-10.5 -11 -10.5 -28q0 -12 7.5 -19.5t20.5 -7.5q15 0 26 10.5t11 26.5q0 13 -7.5 21t-20.5 8q-16 0 -26.5 -11zM365 256l-38 177l-85 -177h123z" />
    <glyph glyph-name="aring.ss01.sc" horiz-adv-x="635" 
d="M576 19q0 -12 -15.5 -15.5t-56.5 -3.5h-8q-37 0 -52 1.5t-20.5 5.5t-7.5 14l-26 121h-204l-58 -121q-5 -10 -11.5 -14t-22 -5.5t-50.5 -1.5h-9q-37 0 -51 2.5t-14 10.5q0 6 4 13l301 546q-37 31 -37 78q0 34 19.5 64.5t52 49t68.5 18.5q46 0 77 -29t31 -72q0 -34 -18 -63
t-47 -48l153 -542zM339.5 687q-10.5 -11 -10.5 -28q0 -12 7.5 -19.5t20.5 -7.5q15 0 26 10.5t11 26.5q0 13 -7.5 21t-20.5 8q-16 0 -26.5 -11zM365 256l-38 177l-85 -177h123z" />
    <glyph glyph-name="aringacute.sc" horiz-adv-x="635" 
d="M576 19q0 -12 -15.5 -15.5t-56.5 -3.5h-8q-37 0 -52 1.5t-20.5 5.5t-7.5 14l-26 121h-204l-58 -121q-5 -10 -11.5 -14t-22 -5.5t-50.5 -1.5h-9q-37 0 -51 2.5t-14 10.5q0 6 4 13l301 546q-37 31 -37 78q0 34 19.5 64.5t52 49t68.5 18.5q46 0 77 -29t31 -72q0 -34 -18 -63
t-47 -48l153 -542zM339.5 687q-10.5 -11 -10.5 -28q0 -12 7.5 -19.5t20.5 -7.5q15 0 26 10.5t11 26.5q0 13 -7.5 21t-20.5 8q-16 0 -26.5 -11zM365 256l-38 177l-85 -177h123zM301 806.5q-9 2.5 -9 9.5t7 15l122 158q8 10 18 12.5t44 2.5h40q26 0 38 -3.5t12 -10.5
q0 -6 -9 -15l-145 -157q-7 -8 -19 -11t-38 -3h-32q-20 0 -29 2.5z" />
    <glyph glyph-name="aringacute.ss01.sc" horiz-adv-x="635" 
d="M576 19q0 -12 -15.5 -15.5t-56.5 -3.5h-8q-37 0 -52 1.5t-20.5 5.5t-7.5 14l-26 121h-204l-58 -121q-5 -10 -11.5 -14t-22 -5.5t-50.5 -1.5h-9q-37 0 -51 2.5t-14 10.5q0 6 4 13l301 546q-37 31 -37 78q0 34 19.5 64.5t52 49t68.5 18.5q46 0 77 -29t31 -72q0 -34 -18 -63
t-47 -48l153 -542zM339.5 687q-10.5 -11 -10.5 -28q0 -12 7.5 -19.5t20.5 -7.5q15 0 26 10.5t11 26.5q0 13 -7.5 21t-20.5 8q-16 0 -26.5 -11zM365 256l-38 177l-85 -177h123zM301 806.5q-9 2.5 -9 9.5t7 15l122 158q8 10 18 12.5t44 2.5h40q26 0 38 -3.5t12 -10.5
q0 -6 -9 -15l-145 -157q-7 -8 -19 -11t-38 -3h-32q-20 0 -29 2.5z" />
    <glyph glyph-name="atilde.sc" horiz-adv-x="635" 
d="M576 19q0 -12 -15.5 -15.5t-56.5 -3.5h-8q-37 0 -52 1.5t-20.5 5.5t-7.5 14l-26 121h-204l-58 -121q-5 -10 -11.5 -14t-22 -5.5t-50.5 -1.5h-9q-37 0 -51 2.5t-14 10.5q0 6 4 13l295 537q5 10 11 13.5t18.5 4.5t45.5 1h10q31 0 43.5 -1t17.5 -5t8 -14l151 -534zM365 256
l-38 177l-85 -177h123zM392.5 658q-15.5 5 -32.5 14q-16 9 -26 13t-24 4q-25 0 -55 -34q-5 -5 -10 -5q-11 0 -33 26l-5 6q-19 23 -19 30q0 6 6 12q27 32 57.5 50t60.5 18q21 0 34.5 -5t31.5 -14q14 -8 24.5 -11.5t25.5 -3.5q29 0 64 32q6 4 8 4q10 0 31 -25l5 -6
q17 -21 17 -32q0 -5 -5 -12q-24 -30 -54.5 -48t-62.5 -18q-23 0 -38.5 5z" />
    <glyph glyph-name="atilde.ss01.sc" horiz-adv-x="635" 
d="M576 19q0 -12 -15.5 -15.5t-56.5 -3.5h-8q-37 0 -52 1.5t-20.5 5.5t-7.5 14l-26 121h-204l-58 -121q-5 -10 -11.5 -14t-22 -5.5t-50.5 -1.5h-9q-37 0 -51 2.5t-14 10.5q0 6 4 13l295 537q5 10 11 13.5t18.5 4.5t45.5 1h10q31 0 43.5 -1t17.5 -5t8 -14l151 -534zM365 256
l-38 177l-85 -177h123zM400.5 658q-15.5 5 -32.5 14q-16 9 -26 13t-24 4q-25 0 -55 -34q-5 -5 -10 -5q-11 0 -33 26l-5 6q-19 23 -19 30q0 6 6 12q27 32 57.5 50t60.5 18q21 0 34.5 -5t31.5 -14q14 -8 24.5 -11.5t25.5 -3.5q29 0 64 32q6 4 8 4q10 0 31 -25l5 -6
q17 -21 17 -32q0 -5 -5 -12q-24 -30 -54.5 -48t-62.5 -18q-23 0 -38.5 5z" />
    <glyph glyph-name="ae.sc" horiz-adv-x="925" 
d="M894.5 579q2.5 -3 2.5 -13q0 -15 -4 -42l-1 -7q-4 -27 -7 -39t-6 -15t-8 -3h-244l-15 -106h207q6 0 8 -2.5t2 -11.5q0 -14 -4 -42l-1 -7q-3 -23 -6 -37t-6.5 -18t-9.5 -4h-207l-15 -110h245q6 0 8.5 -3t2.5 -13q0 -15 -4 -42l-1 -7q-4 -27 -7 -39t-6 -15t-8 -3h-358
q-30 0 -37.5 2t-7.5 12q0 6 1 10l15 110h-201l-89 -115q-10 -13 -24.5 -16t-56.5 -3h-14q-36 0 -52 3.5t-16 11.5q0 4 7 13l444 536q10 11 21.5 14.5t41.5 3.5h402q6 0 8.5 -3zM466 447l-160 -206h132z" />
    <glyph glyph-name="aeacute.sc" horiz-adv-x="925" 
d="M894.5 579q2.5 -3 2.5 -13q0 -15 -4 -42l-1 -7q-4 -27 -7 -39t-6 -15t-8 -3h-244l-15 -106h207q6 0 8 -2.5t2 -11.5q0 -14 -4 -42l-1 -7q-3 -23 -6 -37t-6.5 -18t-9.5 -4h-207l-15 -110h245q6 0 8.5 -3t2.5 -13q0 -15 -4 -42l-1 -7q-4 -27 -7 -39t-6 -15t-8 -3h-358
q-30 0 -37.5 2t-7.5 12q0 6 1 10l15 110h-201l-89 -115q-10 -13 -24.5 -16t-56.5 -3h-14q-36 0 -52 3.5t-16 11.5q0 4 7 13l444 536q10 11 21.5 14.5t41.5 3.5h402q6 0 8.5 -3zM466 447l-160 -206h132zM534 635.5q-9 2.5 -9 9.5t7 15l122 158q8 10 18 12.5t44 2.5h40
q26 0 38 -3.5t12 -10.5q0 -6 -9 -15l-145 -157q-7 -8 -19 -11t-38 -3h-32q-20 0 -29 2.5z" />
    <glyph glyph-name="b.sc" horiz-adv-x="576" 
d="M494 261.5q23 -32.5 23 -79.5q0 -48 -29.5 -89t-98 -67t-180.5 -26h-139q-30 0 -37.5 2t-7.5 12q0 6 1 10l75 533q3 18 11 21.5t39 3.5h116q92 0 146.5 -12.5t80.5 -41.5t26 -79q0 -42 -26 -77t-75 -60q52 -18 75 -50.5zM332.5 373.5q24.5 17.5 24.5 46.5q0 24 -20 32.5
t-69 8.5h-21l-15 -105h27q49 0 73.5 17.5zM325 137.5q29 17.5 29 49.5q0 54 -105 54h-33l-17 -121h41q56 0 85 17.5z" />
    <glyph glyph-name="c.sc" horiz-adv-x="567" 
d="M151.5 24.5q-60.5 34.5 -92.5 93.5t-32 131q0 82 35.5 161t111.5 130.5t191 51.5q105 0 183 -58q8 -6 8 -13q0 -12 -24 -44l-15 -20q-24 -32 -36 -32q-5 0 -13 5q-25 15 -50 24.5t-62 9.5q-57 0 -94 -31.5t-53.5 -78t-16.5 -92.5q0 -70 35 -107t100 -37q29 0 55 7.5
t58 24.5q6 3 10 3q6 0 11.5 -7.5t13.5 -28.5l9 -24q9 -22 9 -32q0 -6 -3.5 -10t-11.5 -9q-44 -25 -92.5 -38.5t-92.5 -13.5q-81 0 -141.5 34.5z" />
    <glyph glyph-name="cacute.loclPLK.sc" horiz-adv-x="567" 
d="M151.5 24.5q-60.5 34.5 -92.5 93.5t-32 131q0 82 35.5 161t111.5 130.5t191 51.5q105 0 183 -58q8 -6 8 -13q0 -12 -24 -44l-15 -20q-24 -32 -36 -32q-5 0 -13 5q-25 15 -50 24.5t-62 9.5q-57 0 -94 -31.5t-53.5 -78t-16.5 -92.5q0 -70 35 -107t100 -37q29 0 55 7.5
t58 24.5q6 3 10 3q6 0 11.5 -7.5t13.5 -28.5l9 -24q9 -22 9 -32q0 -6 -3.5 -10t-11.5 -9q-44 -25 -92.5 -38.5t-92.5 -13.5q-81 0 -141.5 34.5zM296 642q-10 3 -10 11q0 3 4 13l68 155q5 11 16.5 14.5t42.5 3.5h45q27 0 37.5 -2.5t10.5 -9.5q0 -5 -7 -17l-90 -153
q-7 -12 -16 -15t-35 -3h-31q-25 0 -35 3z" />
    <glyph glyph-name="cacute.sc" horiz-adv-x="567" 
d="M151.5 24.5q-60.5 34.5 -92.5 93.5t-32 131q0 82 35.5 161t111.5 130.5t191 51.5q105 0 183 -58q8 -6 8 -13q0 -12 -24 -44l-15 -20q-24 -32 -36 -32q-5 0 -13 5q-25 15 -50 24.5t-62 9.5q-57 0 -94 -31.5t-53.5 -78t-16.5 -92.5q0 -70 35 -107t100 -37q29 0 55 7.5
t58 24.5q6 3 10 3q6 0 11.5 -7.5t13.5 -28.5l9 -24q9 -22 9 -32q0 -6 -3.5 -10t-11.5 -9q-44 -25 -92.5 -38.5t-92.5 -13.5q-81 0 -141.5 34.5zM296 635.5q-9 2.5 -9 9.5t7 15l122 158q8 10 18 12.5t44 2.5h40q26 0 38 -3.5t12 -10.5q0 -6 -9 -15l-145 -157q-7 -8 -19 -11
t-38 -3h-32q-20 0 -29 2.5z" />
    <glyph glyph-name="ccaron.sc" horiz-adv-x="567" 
d="M151.5 24.5q-60.5 34.5 -92.5 93.5t-32 131q0 82 35.5 161t111.5 130.5t191 51.5q105 0 183 -58q8 -6 8 -13q0 -12 -24 -44l-15 -20q-24 -32 -36 -32q-5 0 -13 5q-25 15 -50 24.5t-62 9.5q-57 0 -94 -31.5t-53.5 -78t-16.5 -92.5q0 -70 35 -107t100 -37q29 0 55 7.5
t58 24.5q6 3 10 3q6 0 11.5 -7.5t13.5 -28.5l9 -24q9 -22 9 -32q0 -6 -3.5 -10t-11.5 -9q-44 -25 -92.5 -38.5t-92.5 -13.5q-81 0 -141.5 34.5zM318 636q-12 4 -23 17l-75 95q-4 6 -4 9q0 11 28 34l12 10q26 22 37 22q6 0 12 -6l78 -80l101 80q11 7 15 7q11 0 32 -25l8 -10
q18 -22 18 -30q0 -5 -6 -11l-104 -95q-14 -13 -28 -17t-45 -4h-12q-32 0 -44 4z" />
    <glyph glyph-name="ccedilla.sc" horiz-adv-x="567" 
d="M556 521q0 -12 -24 -44l-15 -20q-24 -32 -36 -32q-5 0 -13 5q-25 15 -50 24.5t-62 9.5q-57 0 -94 -31.5t-53.5 -78t-16.5 -92.5q0 -70 35 -107t100 -37q29 0 55 7.5t58 24.5q6 3 10 3q6 0 11.5 -7.5t13.5 -28.5l9 -24q9 -22 9 -32q0 -6 -3.5 -10t-11.5 -9
q-77 -42 -154 -50l-7 -30h6q42 0 68 -19t26 -57q0 -62 -42.5 -95.5t-106.5 -33.5q-44 0 -81 14q-8 3 -8 10q0 8 9 29l5 11q10 21 14.5 25.5t13.5 2.5q23 -7 46 -7q37 0 37 30q0 12 -9.5 17t-27.5 5q-30 0 -59 -7l31 107q-99 17 -155.5 87.5t-56.5 167.5q0 82 35.5 161
t111.5 130.5t191 51.5q105 0 183 -58q8 -6 8 -13z" />
    <glyph glyph-name="ccircumflex.sc" horiz-adv-x="567" 
d="M151.5 24.5q-60.5 34.5 -92.5 93.5t-32 131q0 82 35.5 161t111.5 130.5t191 51.5q105 0 183 -58q8 -6 8 -13q0 -12 -24 -44l-15 -20q-24 -32 -36 -32q-5 0 -13 5q-25 15 -50 24.5t-62 9.5q-57 0 -94 -31.5t-53.5 -78t-16.5 -92.5q0 -70 35 -107t100 -37q29 0 55 7.5
t58 24.5q6 3 10 3q6 0 11.5 -7.5t13.5 -28.5l9 -24q9 -22 9 -32q0 -6 -3.5 -10t-11.5 -9q-44 -25 -92.5 -38.5t-92.5 -13.5q-81 0 -141.5 34.5zM266 635q-11 0 -32 25l-8 10q-18 23 -18 31q0 6 6 10l100 92q15 14 27.5 17.5t45.5 3.5h12q33 0 44.5 -3.5t22.5 -17.5l74 -92
q4 -4 4 -10q0 -5 -6 -12t-20 -19l-12 -10q-28 -24 -39 -24q-6 0 -12 6l-74 77l-102 -79q-8 -5 -13 -5z" />
    <glyph glyph-name="cdotaccent.sc" horiz-adv-x="567" 
d="M151.5 24.5q-60.5 34.5 -92.5 93.5t-32 131q0 82 35.5 161t111.5 130.5t191 51.5q105 0 183 -58q8 -6 8 -13q0 -12 -24 -44l-15 -20q-24 -32 -36 -32q-5 0 -13 5q-25 15 -50 24.5t-62 9.5q-57 0 -94 -31.5t-53.5 -78t-16.5 -92.5q0 -70 35 -107t100 -37q29 0 55 7.5
t58 24.5q6 3 10 3q6 0 11.5 -7.5t13.5 -28.5l9 -24q9 -22 9 -32q0 -6 -3.5 -10t-11.5 -9q-44 -25 -92.5 -38.5t-92.5 -13.5q-81 0 -141.5 34.5zM325 671.5q-20 20.5 -20 50.5q0 38 27.5 64.5t66.5 26.5q31 0 51 -20.5t20 -50.5q0 -39 -27 -65t-66 -26q-32 0 -52 20.5z" />
    <glyph glyph-name="d.sc" horiz-adv-x="645" 
d="M32.5 2q-7.5 2 -7.5 12q0 6 1 10l75 533q3 18 11 21.5t39 3.5h131q155 0 236.5 -62.5t81.5 -186.5q0 -174 -105 -257q-49 -38 -125 -57t-170 -19h-130q-30 0 -37.5 2zM232 122q91 0 143 41q60 51 60 159q0 73 -34 105.5t-121 32.5h-33l-48 -338h33z" />
    <glyph glyph-name="eth.sc" horiz-adv-x="645" 
d="M518.5 519.5q81.5 -62.5 81.5 -186.5q0 -174 -105 -257q-49 -38 -125 -57t-170 -19h-130q-30 0 -37.5 2t-7.5 12q0 6 1 10l30 216h-44q-5 0 -7 2.5t-2 11.5t3 36l1 7q4 34 7.5 42.5t11.5 8.5h46l29 209q3 18 11 21.5t39 3.5h131q155 0 236.5 -62.5zM435 322
q0 73 -34 105.5t-121 32.5h-33l-16 -112h77q5 0 7 -2.5t2 -11.5t-3 -36l-1 -7q-4 -34 -7.5 -42.5t-11.5 -8.5h-78l-17 -118h33q91 0 143 41q60 51 60 159z" />
    <glyph glyph-name="dcaron.sc" horiz-adv-x="645" 
d="M32.5 2q-7.5 2 -7.5 12q0 6 1 10l75 533q3 18 11 21.5t39 3.5h131q155 0 236.5 -62.5t81.5 -186.5q0 -174 -105 -257q-49 -38 -125 -57t-170 -19h-130q-30 0 -37.5 2zM232 122q91 0 143 41q60 51 60 159q0 73 -34 105.5t-121 32.5h-33l-48 -338h33zM280 636q-12 4 -23 17
l-75 95q-4 6 -4 9q0 11 28 34l12 10q26 22 37 22q6 0 12 -6l78 -80l101 80q11 7 15 7q11 0 32 -25l8 -10q18 -22 18 -30q0 -5 -6 -11l-104 -95q-14 -13 -28 -17t-45 -4h-12q-32 0 -44 4z" />
    <glyph glyph-name="dcroat.sc" horiz-adv-x="645" 
d="M518.5 519.5q81.5 -62.5 81.5 -186.5q0 -174 -105 -257q-49 -38 -125 -57t-170 -19h-130q-30 0 -37.5 2t-7.5 12q0 6 1 10l30 216h-44q-5 0 -7 2.5t-2 11.5t3 36l1 7q4 34 7.5 42.5t11.5 8.5h46l29 209q3 18 11 21.5t39 3.5h131q155 0 236.5 -62.5zM435 322
q0 73 -34 105.5t-121 32.5h-33l-16 -112h77q5 0 7 -2.5t2 -11.5t-3 -36l-1 -7q-4 -34 -7.5 -42.5t-11.5 -8.5h-78l-17 -118h33q91 0 143 41q60 51 60 159z" />
    <glyph glyph-name="e.sc" horiz-adv-x="543" 
d="M512.5 579q2.5 -3 2.5 -13q0 -15 -4 -42l-1 -7q-4 -27 -7 -39t-6 -15t-8 -3h-243l-15 -106h206q6 0 8 -2.5t2 -11.5q0 -14 -4 -42l-1 -7q-3 -23 -6 -37t-6.5 -18t-9.5 -4h-206l-15 -110h244q6 0 8.5 -3t2.5 -13q0 -15 -4 -42l-1 -7q-4 -27 -7 -39t-6 -15t-8 -3h-358
q-30 0 -37.5 2t-7.5 12q0 6 1 10l75 533q3 18 11 21.5t39 3.5h353q6 0 8.5 -3z" />
    <glyph glyph-name="eacute.sc" horiz-adv-x="543" 
d="M512.5 579q2.5 -3 2.5 -13q0 -15 -4 -42l-1 -7q-4 -27 -7 -39t-6 -15t-8 -3h-243l-15 -106h206q6 0 8 -2.5t2 -11.5q0 -14 -4 -42l-1 -7q-3 -23 -6 -37t-6.5 -18t-9.5 -4h-206l-15 -110h244q6 0 8.5 -3t2.5 -13q0 -15 -4 -42l-1 -7q-4 -27 -7 -39t-6 -15t-8 -3h-358
q-30 0 -37.5 2t-7.5 12q0 6 1 10l75 533q3 18 11 21.5t39 3.5h353q6 0 8.5 -3zM248 635.5q-9 2.5 -9 9.5t7 15l122 158q8 10 18 12.5t44 2.5h40q26 0 38 -3.5t12 -10.5q0 -6 -9 -15l-145 -157q-7 -8 -19 -11t-38 -3h-32q-20 0 -29 2.5z" />
    <glyph glyph-name="ebreve.sc" horiz-adv-x="543" 
d="M512.5 579q2.5 -3 2.5 -13q0 -15 -4 -42l-1 -7q-4 -27 -7 -39t-6 -15t-8 -3h-243l-15 -106h206q6 0 8 -2.5t2 -11.5q0 -14 -4 -42l-1 -7q-3 -23 -6 -37t-6.5 -18t-9.5 -4h-206l-15 -110h244q6 0 8.5 -3t2.5 -13q0 -15 -4 -42l-1 -7q-4 -27 -7 -39t-6 -15t-8 -3h-358
q-30 0 -37.5 2t-7.5 12q0 6 1 10l75 533q3 18 11 21.5t39 3.5h353q6 0 8.5 -3zM212.5 669.5q-38.5 32.5 -38.5 89.5q0 16 1 23q1 14 11.5 17.5t44.5 3.5h14q29 0 38.5 -4t8.5 -14q-2 -23 8 -36t30 -13q21 0 34 12t19 37q2 10 12.5 14t40.5 4h14q34 0 43 -3.5t6 -17.5
q-13 -68 -60.5 -106.5t-117.5 -38.5t-108.5 32.5z" />
    <glyph glyph-name="ecaron.sc" horiz-adv-x="543" 
d="M512.5 579q2.5 -3 2.5 -13q0 -15 -4 -42l-1 -7q-4 -27 -7 -39t-6 -15t-8 -3h-243l-15 -106h206q6 0 8 -2.5t2 -11.5q0 -14 -4 -42l-1 -7q-3 -23 -6 -37t-6.5 -18t-9.5 -4h-206l-15 -110h244q6 0 8.5 -3t2.5 -13q0 -15 -4 -42l-1 -7q-4 -27 -7 -39t-6 -15t-8 -3h-358
q-30 0 -37.5 2t-7.5 12q0 6 1 10l75 533q3 18 11 21.5t39 3.5h353q6 0 8.5 -3zM270 636q-12 4 -23 17l-75 95q-4 6 -4 9q0 11 28 34l12 10q26 22 37 22q6 0 12 -6l78 -80l101 80q11 7 15 7q11 0 32 -25l8 -10q18 -22 18 -30q0 -5 -6 -11l-104 -95q-14 -13 -28 -17t-45 -4
h-12q-32 0 -44 4z" />
    <glyph glyph-name="ecircumflex.sc" horiz-adv-x="543" 
d="M512.5 579q2.5 -3 2.5 -13q0 -15 -4 -42l-1 -7q-4 -27 -7 -39t-6 -15t-8 -3h-243l-15 -106h206q6 0 8 -2.5t2 -11.5q0 -14 -4 -42l-1 -7q-3 -23 -6 -37t-6.5 -18t-9.5 -4h-206l-15 -110h244q6 0 8.5 -3t2.5 -13q0 -15 -4 -42l-1 -7q-4 -27 -7 -39t-6 -15t-8 -3h-358
q-30 0 -37.5 2t-7.5 12q0 6 1 10l75 533q3 18 11 21.5t39 3.5h353q6 0 8.5 -3zM218 635q-11 0 -32 25l-8 10q-18 23 -18 31q0 6 6 10l100 92q15 14 27.5 17.5t45.5 3.5h12q33 0 44.5 -3.5t22.5 -17.5l74 -92q4 -4 4 -10q0 -5 -6 -12t-20 -19l-12 -10q-28 -24 -39 -24
q-6 0 -12 6l-74 77l-102 -79q-8 -5 -13 -5z" />
    <glyph glyph-name="edieresis.sc" horiz-adv-x="543" 
d="M512.5 579q2.5 -3 2.5 -13q0 -15 -4 -42l-1 -7q-4 -27 -7 -39t-6 -15t-8 -3h-243l-15 -106h206q6 0 8 -2.5t2 -11.5q0 -14 -4 -42l-1 -7q-3 -23 -6 -37t-6.5 -18t-9.5 -4h-206l-15 -110h244q6 0 8.5 -3t2.5 -13q0 -15 -4 -42l-1 -7q-4 -27 -7 -39t-6 -15t-8 -3h-358
q-30 0 -37.5 2t-7.5 12q0 6 1 10l75 533q3 18 11 21.5t39 3.5h353q6 0 8.5 -3zM156 658q-20 19 -20 49q0 38 28 66.5t69 28.5q32 0 52 -19.5t20 -49.5q0 -37 -28 -65.5t-67 -28.5q-34 0 -54 19zM369 658q-20 19 -20 49q0 38 28 66.5t69 28.5q32 0 52 -19.5t20 -49.5
q0 -37 -28 -65.5t-67 -28.5q-34 0 -54 19z" />
    <glyph glyph-name="edotaccent.sc" horiz-adv-x="543" 
d="M512.5 579q2.5 -3 2.5 -13q0 -15 -4 -42l-1 -7q-4 -27 -7 -39t-6 -15t-8 -3h-243l-15 -106h206q6 0 8 -2.5t2 -11.5q0 -14 -4 -42l-1 -7q-3 -23 -6 -37t-6.5 -18t-9.5 -4h-206l-15 -110h244q6 0 8.5 -3t2.5 -13q0 -15 -4 -42l-1 -7q-4 -27 -7 -39t-6 -15t-8 -3h-358
q-30 0 -37.5 2t-7.5 12q0 6 1 10l75 533q3 18 11 21.5t39 3.5h353q6 0 8.5 -3zM277 671.5q-20 20.5 -20 50.5q0 38 27.5 64.5t66.5 26.5q31 0 51 -20.5t20 -50.5q0 -39 -27 -65t-66 -26q-32 0 -52 20.5z" />
    <glyph glyph-name="egrave.sc" horiz-adv-x="543" 
d="M512.5 579q2.5 -3 2.5 -13q0 -15 -4 -42l-1 -7q-4 -27 -7 -39t-6 -15t-8 -3h-243l-15 -106h206q6 0 8 -2.5t2 -11.5q0 -14 -4 -42l-1 -7q-3 -23 -6 -37t-6.5 -18t-9.5 -4h-206l-15 -110h244q6 0 8.5 -3t2.5 -13q0 -15 -4 -42l-1 -7q-4 -27 -7 -39t-6 -15t-8 -3h-358
q-30 0 -37.5 2t-7.5 12q0 6 1 10l75 533q3 18 11 21.5t39 3.5h353q6 0 8.5 -3zM284 636q-12 3 -16 11l-101 157q-4 7 -4 12q0 9 11.5 13t39.5 4h36q33 0 47 -5t19 -15l76 -153q3 -6 3 -12q0 -8 -10 -11.5t-32 -3.5h-32q-25 0 -37 3z" />
    <glyph glyph-name="emacron.sc" horiz-adv-x="543" 
d="M512.5 579q2.5 -3 2.5 -13q0 -15 -4 -42l-1 -7q-4 -27 -7 -39t-6 -15t-8 -3h-243l-15 -106h206q6 0 8 -2.5t2 -11.5q0 -14 -4 -42l-1 -7q-3 -23 -6 -37t-6.5 -18t-9.5 -4h-206l-15 -110h244q6 0 8.5 -3t2.5 -13q0 -15 -4 -42l-1 -7q-4 -27 -7 -39t-6 -15t-8 -3h-358
q-30 0 -37.5 2t-7.5 12q0 6 1 10l75 533q3 18 11 21.5t39 3.5h353q6 0 8.5 -3zM180.5 670q-2.5 3 -2.5 13q0 14 4 38l1 7q4 31 8 39.5t13 8.5h274q6 0 8.5 -3.5t2.5 -13.5t-3 -34l-1 -7q-5 -34 -9 -42.5t-13 -8.5h-274q-6 0 -8.5 3z" />
    <glyph glyph-name="eogonek.sc" horiz-adv-x="543" 
d="M512.5 579q2.5 -3 2.5 -13q0 -15 -4 -42l-1 -7q-4 -27 -7 -39t-6 -15t-8 -3h-243l-15 -106h206q6 0 8 -2.5t2 -11.5q0 -14 -4 -42l-1 -7q-3 -23 -6 -37t-6.5 -18t-9.5 -4h-206l-15 -110h244q6 0 8.5 -3t2.5 -12q0 -1 -4 -43l-1 -9q-3 -30 -7.5 -39.5t-13.5 -15.5
q-54 -36 -81 -64.5t-27 -52.5q0 -29 33 -29q19 0 37 8q7 4 12 -1.5t11 -25.5l7 -24q4 -13 4 -23q0 -8 -3.5 -12t-11.5 -8q-17 -9 -42 -13.5t-48 -4.5q-51 0 -83 26t-32 75q0 45 26 84.5t68 64.5h-228q-29 0 -37 2t-8 13l1 9l75 533q3 18 11 21.5t39 3.5h353q6 0 8.5 -3z" />
    <glyph glyph-name="f.sc" horiz-adv-x="517" 
d="M520.5 579q2.5 -3 2.5 -13q0 -15 -4 -42l-1 -7q-4 -27 -7 -39t-6 -15t-8 -3h-250l-15 -106h214q6 0 8 -2.5t2 -11.5q0 -14 -4 -42l-1 -7q-3 -23 -6 -37t-6.5 -18t-9.5 -4h-214l-30 -212q-2 -9 -7.5 -13t-21 -5.5t-51.5 -1.5h-10q-37 0 -50.5 1t-17 5t-1.5 14l75 537
q2 13 5.5 18t12.5 6t34 1h359q6 0 8.5 -3z" />
    <glyph glyph-name="f_f.liga.sc" horiz-adv-x="1034" 
d="M520.5 579q2.5 -3 2.5 -13q0 -15 -4 -42l-1 -7q-4 -27 -7 -39t-6 -15t-8 -3h-250l-15 -106h214q6 0 8 -2.5t2 -11.5q0 -14 -4 -42l-1 -7q-3 -23 -6 -37t-6.5 -18t-9.5 -4h-214l-30 -212q-2 -9 -7.5 -13t-21 -5.5t-51.5 -1.5h-10q-37 0 -50.5 1t-17 5t-1.5 14l75 537
q2 13 5.5 18t12.5 6t34 1h359q6 0 8.5 -3zM1037.5 579q2.5 -3 2.5 -13q0 -15 -4 -42l-1 -7q-4 -27 -7 -39t-6 -15t-8 -3h-250l-15 -106h214q6 0 8 -2.5t2 -11.5q0 -14 -4 -42l-1 -7q-3 -23 -6 -37t-6.5 -18t-9.5 -4h-214l-30 -212q-2 -9 -7.5 -13t-21 -5.5t-51.5 -1.5h-10
q-37 0 -50.5 1t-17 5t-1.5 14l75 537q2 13 5.5 18t12.5 6t34 1h359q6 0 8.5 -3z" />
    <glyph glyph-name="f_f_i.liga.sc" horiz-adv-x="1328" 
d="M520.5 579q2.5 -3 2.5 -13q0 -15 -4 -42l-1 -7q-4 -27 -7 -39t-6 -15t-8 -3h-250l-15 -106h214q6 0 8 -2.5t2 -11.5q0 -14 -4 -42l-1 -7q-3 -23 -6 -37t-6.5 -18t-9.5 -4h-214l-30 -212q-2 -9 -7.5 -13t-21 -5.5t-51.5 -1.5h-10q-37 0 -50.5 1t-17 5t-1.5 14l75 537
q2 13 5.5 18t12.5 6t34 1h359q6 0 8.5 -3zM1037.5 579q2.5 -3 2.5 -13q0 -15 -4 -42l-1 -7q-4 -27 -7 -39t-6 -15t-8 -3h-250l-15 -106h214q6 0 8 -2.5t2 -11.5q0 -14 -4 -42l-1 -7q-3 -23 -6 -37t-6.5 -18t-9.5 -4h-214l-30 -212q-2 -9 -7.5 -13t-21 -5.5t-51.5 -1.5h-10
q-37 0 -50.5 1t-17 5t-1.5 14l75 537q2 13 5.5 18t12.5 6t34 1h359q6 0 8.5 -3zM1080 1.5q-14 1.5 -18 5.5t-2 14l75 538q2 12 6.5 16.5t18 5.5t50.5 1h11q35 0 50 -1.5t20 -6t3 -15.5l-75 -538q-2 -10 -7 -14t-20 -5.5t-51 -1.5h-12q-35 0 -49 1.5z" />
    <glyph glyph-name="f_f_l.liga.sc" horiz-adv-x="1525" 
d="M520.5 579q2.5 -3 2.5 -13q0 -15 -4 -42l-1 -7q-4 -27 -7 -39t-6 -15t-8 -3h-250l-15 -106h214q6 0 8 -2.5t2 -11.5q0 -14 -4 -42l-1 -7q-3 -23 -6 -37t-6.5 -18t-9.5 -4h-214l-30 -212q-2 -9 -7.5 -13t-21 -5.5t-51.5 -1.5h-10q-37 0 -50.5 1t-17 5t-1.5 14l75 537
q2 13 5.5 18t12.5 6t34 1h359q6 0 8.5 -3zM1037.5 579q2.5 -3 2.5 -13q0 -15 -4 -42l-1 -7q-4 -27 -7 -39t-6 -15t-8 -3h-250l-15 -106h214q6 0 8 -2.5t2 -11.5q0 -14 -4 -42l-1 -7q-3 -23 -6 -37t-6.5 -18t-9.5 -4h-214l-30 -212q-2 -9 -7.5 -13t-21 -5.5t-51.5 -1.5h-10
q-37 0 -50.5 1t-17 5t-1.5 14l75 537q2 13 5.5 18t12.5 6t34 1h359q6 0 8.5 -3zM1067 0.5q-8 1.5 -8 9.5q0 5 1 9l76 541q2 11 7 15.5t18.5 5.5t50.5 1h12q34 0 48 -1.5t19 -6t4 -14.5l-62 -438h227q6 0 8.5 -3t2.5 -13q0 -15 -4 -42l-1 -7q-4 -27 -7 -39t-6 -15t-8 -3
l-340 -1q-30 0 -38 1.5z" />
    <glyph glyph-name="fi.sc" horiz-adv-x="811" 
d="M520.5 579q2.5 -3 2.5 -13q0 -15 -4 -42l-1 -7q-4 -27 -7 -39t-6 -15t-8 -3h-250l-15 -106h214q6 0 8 -2.5t2 -11.5q0 -14 -4 -42l-1 -7q-3 -23 -6 -37t-6.5 -18t-9.5 -4h-214l-30 -212q-2 -9 -7.5 -13t-21 -5.5t-51.5 -1.5h-10q-37 0 -50.5 1t-17 5t-1.5 14l75 537
q2 13 5.5 18t12.5 6t34 1h359q6 0 8.5 -3zM563 1.5q-14 1.5 -18 5.5t-2 14l75 538q2 12 6.5 16.5t18 5.5t50.5 1h11q35 0 50 -1.5t20 -6t3 -15.5l-75 -538q-2 -10 -7 -14t-20 -5.5t-51 -1.5h-12q-35 0 -49 1.5z" />
    <glyph glyph-name="fl.sc" horiz-adv-x="1008" 
d="M520.5 579q2.5 -3 2.5 -13q0 -15 -4 -42l-1 -7q-4 -27 -7 -39t-6 -15t-8 -3h-250l-15 -106h214q6 0 8 -2.5t2 -11.5q0 -14 -4 -42l-1 -7q-3 -23 -6 -37t-6.5 -18t-9.5 -4h-214l-30 -212q-2 -9 -7.5 -13t-21 -5.5t-51.5 -1.5h-10q-37 0 -50.5 1t-17 5t-1.5 14l75 537
q2 13 5.5 18t12.5 6t34 1h359q6 0 8.5 -3zM550 0.5q-8 1.5 -8 9.5q0 5 1 9l76 541q2 11 7 15.5t18.5 5.5t50.5 1h12q34 0 48 -1.5t19 -6t4 -14.5l-62 -438h227q6 0 8.5 -3t2.5 -13q0 -15 -4 -42l-1 -7q-4 -27 -7 -39t-6 -15t-8 -3l-340 -1q-30 0 -38 1.5z" />
    <glyph glyph-name="g.sc" horiz-adv-x="627" 
d="M94.5 59.5q-67.5 69.5 -67.5 191.5q0 88 36 165.5t113.5 126.5t195.5 49q122 0 208 -61q8 -5 8 -12q0 -11 -25 -45l-16 -20q-14 -19 -22 -26t-15 -7q-5 0 -17 7q-65 36 -128 36q-73 0 -117 -42q-57 -51 -57 -157q0 -76 30 -112t89 -36q22 0 41 3t28 8l13 92h-85
q-7 0 -10 4t-3 14q0 12 3 34l2 16q3 26 6.5 36.5t6.5 13t10 2.5h208q22 0 28.5 -2.5t6.5 -12.5l-1 -10l-35 -244q-3 -20 -9.5 -26.5t-28.5 -16.5q-38 -17 -92 -27.5t-107 -10.5q-130 0 -197.5 69.5z" />
    <glyph glyph-name="gbreve.sc" horiz-adv-x="627" 
d="M94.5 59.5q-67.5 69.5 -67.5 191.5q0 88 36 165.5t113.5 126.5t195.5 49q122 0 208 -61q8 -5 8 -12q0 -11 -25 -45l-16 -20q-14 -19 -22 -26t-15 -7q-5 0 -17 7q-65 36 -128 36q-73 0 -117 -42q-57 -51 -57 -157q0 -76 30 -112t89 -36q22 0 41 3t28 8l13 92h-85
q-7 0 -10 4t-3 14q0 12 3 34l2 16q3 26 6.5 36.5t6.5 13t10 2.5h208q22 0 28.5 -2.5t6.5 -12.5l-1 -10l-35 -244q-3 -20 -9.5 -26.5t-28.5 -16.5q-38 -17 -92 -27.5t-107 -10.5q-130 0 -197.5 69.5zM259.5 669.5q-38.5 32.5 -38.5 89.5q0 16 1 23q1 14 11.5 17.5t44.5 3.5
h14q29 0 38.5 -4t8.5 -14q-2 -23 8 -36t30 -13q21 0 34 12t19 37q2 10 12.5 14t40.5 4h14q34 0 43 -3.5t6 -17.5q-13 -68 -60.5 -106.5t-117.5 -38.5t-108.5 32.5z" />
    <glyph glyph-name="gcircumflex.sc" horiz-adv-x="627" 
d="M94.5 59.5q-67.5 69.5 -67.5 191.5q0 88 36 165.5t113.5 126.5t195.5 49q122 0 208 -61q8 -5 8 -12q0 -11 -25 -45l-16 -20q-14 -19 -22 -26t-15 -7q-5 0 -17 7q-65 36 -128 36q-73 0 -117 -42q-57 -51 -57 -157q0 -76 30 -112t89 -36q22 0 41 3t28 8l13 92h-85
q-7 0 -10 4t-3 14q0 12 3 34l2 16q3 26 6.5 36.5t6.5 13t10 2.5h208q22 0 28.5 -2.5t6.5 -12.5l-1 -10l-35 -244q-3 -20 -9.5 -26.5t-28.5 -16.5q-38 -17 -92 -27.5t-107 -10.5q-130 0 -197.5 69.5zM265 635q-11 0 -32 25l-8 10q-18 23 -18 31q0 6 6 10l100 92
q15 14 27.5 17.5t45.5 3.5h12q33 0 44.5 -3.5t22.5 -17.5l74 -92q4 -4 4 -10q0 -5 -6 -12t-20 -19l-12 -10q-28 -24 -39 -24q-6 0 -12 6l-74 77l-102 -79q-8 -5 -13 -5z" />
    <glyph glyph-name="gcommaaccent.sc" horiz-adv-x="627" 
d="M94.5 59.5q-67.5 69.5 -67.5 191.5q0 88 36 165.5t113.5 126.5t195.5 49q122 0 208 -61q8 -5 8 -12q0 -11 -25 -45l-16 -20q-14 -19 -22 -26t-15 -7q-5 0 -17 7q-65 36 -128 36q-73 0 -117 -42q-57 -51 -57 -157q0 -76 30 -112t89 -36q22 0 41 3t28 8l13 92h-85
q-7 0 -10 4t-3 14q0 12 3 34l2 16q3 26 6.5 36.5t6.5 13t10 2.5h208q22 0 28.5 -2.5t6.5 -12.5l-1 -10l-35 -244q-3 -20 -9.5 -26.5t-28.5 -16.5q-38 -17 -92 -27.5t-107 -10.5q-130 0 -197.5 69.5zM220 -330q-7 0 -18 13l-4 5q-11 14 -11 20q0 4 5 9q56 56 56 96
q0 11 -6 19.5t-7 10.5q-15 17 -15 35q0 30 24.5 51.5t56.5 21.5q31 0 48 -19t17 -51t-16.5 -68t-42.5 -69q-31 -37 -72 -68q-9 -6 -15 -6z" />
    <glyph glyph-name="gdotaccent.sc" horiz-adv-x="627" 
d="M94.5 59.5q-67.5 69.5 -67.5 191.5q0 88 36 165.5t113.5 126.5t195.5 49q122 0 208 -61q8 -5 8 -12q0 -11 -25 -45l-16 -20q-14 -19 -22 -26t-15 -7q-5 0 -17 7q-65 36 -128 36q-73 0 -117 -42q-57 -51 -57 -157q0 -76 30 -112t89 -36q22 0 41 3t28 8l13 92h-85
q-7 0 -10 4t-3 14q0 12 3 34l2 16q3 26 6.5 36.5t6.5 13t10 2.5h208q22 0 28.5 -2.5t6.5 -12.5l-1 -10l-35 -244q-3 -20 -9.5 -26.5t-28.5 -16.5q-38 -17 -92 -27.5t-107 -10.5q-130 0 -197.5 69.5zM324 671.5q-20 20.5 -20 50.5q0 38 27.5 64.5t66.5 26.5q31 0 51 -20.5
t20 -50.5q0 -39 -27 -65t-66 -26q-32 0 -52 20.5z" />
    <glyph glyph-name="h.sc" horiz-adv-x="649" 
d="M592 580.5q15 -1.5 20 -6t3 -15.5l-75 -538q-2 -10 -7 -14t-20 -5.5t-51 -1.5h-12q-35 0 -49 1.5t-18 5.5t-2 14l29 211h-196l-29 -211q-2 -10 -7 -14t-20 -5.5t-51 -1.5h-12q-35 0 -49 1.5t-18 5.5t-2 14l75 538q2 12 6.5 16.5t18 5.5t50.5 1h11q35 0 50 -1.5t20 -6
t3 -15.5l-29 -205h196l29 205q2 12 6.5 16.5t18 5.5t50.5 1h11q35 0 50 -1.5z" />
    </font>
</defs>
</svg>
